<svg width="16" height="16" viewBox="0 0 16 16" fill="none" xmlns="http://www.w3.org/2000/svg">
<path d="M8.82808 2.99414C8.62496 2.99414 8.44137 3.11784 8.36454 3.30664C8.28772 3.49544 8.33329 3.71159 8.47913 3.85352L12.2929 7.66602H2.49996C2.32027 7.66341 2.1523 7.75846 2.06116 7.91341C1.97001 8.06966 1.97001 8.26237 2.06116 8.41862C2.1523 8.57357 2.32027 8.66862 2.49996 8.66602H12.2929L8.47913 12.4785C8.34892 12.6048 8.29683 12.791 8.34241 12.9655C8.38798 13.1413 8.5247 13.278 8.70048 13.3236C8.87496 13.3691 9.06116 13.3171 9.18746 13.1868L13.8541 8.52018C14.0481 8.32487 14.0481 8.00716 13.8541 7.81185L9.18746 3.14518C9.09241 3.04883 8.9635 2.99414 8.82808 2.99414Z" fill="black" fill-opacity="0.9" style="fill:black;fill:black;fill-opacity:0.9;"/>
</svg>
