<?xml version="1.0" encoding="UTF-8"?>
<svg width="352px" height="172px" viewBox="0 0 352 172" version="1.1" xmlns="http://www.w3.org/2000/svg" xmlns:xlink="http://www.w3.org/1999/xlink">
    <title>编组 53</title>
    <defs>
        <linearGradient x1="50%" y1="0%" x2="50%" y2="100%" id="linearGradient-1">
            <stop stop-color="#C7C2F4" offset="0%"></stop>
            <stop stop-color="#D8DDF5" offset="100%"></stop>
        </linearGradient>
        <polygon id="path-2" points="0 0 65 0 65 56 0 56"></polygon>
    </defs>
    <g id="正式版" stroke="none" stroke-width="1" fill="none" fill-rule="evenodd">
        <g id="Ant-Design-5.0-官网-PC" transform="translate(-960.000000, -3049.000000)">
            <g id="编组-52" transform="translate(0.000000, 2022.000000)">
                <g id="编组-53" transform="translate(960.000000, 1027.000000)">
                    <path d="M5.1277704,1.15308315e-15 L346.87223,2.07168062e-16 C348.655267,-1.2037061e-16 349.30184,0.185651222 349.953691,0.534265408 C350.605543,0.882879593 351.11712,1.39445674 351.465735,2.04630859 C351.814349,2.69816044 352,3.34473292 352,5.1277704 L352,166.87223 C352,168.655267 351.814349,169.30184 351.465735,169.953691 C351.11712,170.605543 350.605543,171.11712 349.953691,171.465735 C349.30184,171.814349 348.655267,172 346.87223,172 L5.1277704,172 C3.34473292,172 2.69816044,171.814349 2.04630859,171.465735 C1.39445674,171.11712 0.882879593,170.605543 0.534265408,169.953691 C0.185651222,169.30184 -1.10527061e-15,168.655267 1.90226477e-15,166.87223 L1.38112041e-16,5.1277704 C-8.02470732e-17,3.34473292 0.185651222,2.69816044 0.534265408,2.04630859 C0.882879593,1.39445674 1.39445674,0.882879593 2.04630859,0.534265408 C2.69816044,0.185651222 3.34473292,-6.69974515e-16 5.1277704,1.15308315e-15 Z" id="蒙版备份-4" fill="url(#linearGradient-1)"></path>
                    <g id="编组-45" transform="translate(44.000000, 53.000000)">
                        <g id="Vue" transform="translate(198.000000, 5.000000)">
                            <g id="编组">
                                <mask id="mask-3" fill="white">
                                    <use xlink:href="#path-2"></use>
                                </mask>
                                <g id="Clip-2"></g>
                                <polygon id="Fill-1" fill="#FFFFFF" opacity="0.626209077" mask="url(#mask-3)" points="40.005045 0.00702793152 51.9985868 0.00702793152 32.4972824 33.604415 12.9956156 0.00702793152 -0.00543522191 0.00702793152 32.4972824 56 65 0"></polygon>
                            </g>
                            <polygon id="Fill-3" fill="#FFFFFF" points="52 0 40.0073718 0 32.5001812 13.0867216 24.9929905 0 13 0 32.5001812 34"></polygon>
                        </g>
                        <g id="react" transform="translate(0.000000, 4.000000)" fill="#FFFFFF">
                            <path d="M28,30 C28,33.3137085 30.6862915,36 34,36 C37.3137085,36 40,33.3137085 40,30 C40,26.6862915 37.3137085,24 34,24 C30.6862915,24 28,26.6862915 28,30 L28,30 Z" id="路径" opacity="0.626209077"></path>
                            <path d="M16.7723333,42 L15.4546667,41.6618925 C5.63358331,39.1570791 0,34.9053768 0,30 C0,25.0946231 5.63358331,20.8429208 15.4546667,18.3381075 L16.7723333,18.0028176 L17.143625,19.321437 C18.1385249,22.780594 19.411084,26.1521664 20.9486667,29.4026767 L21.230625,30.0028176 L20.9486667,30.6029584 C19.4085197,33.8523596 18.1358794,37.2241472 17.143625,40.6841981 L16.7723333,42 L16.7723333,42 Z M14.8432917,21.4177037 C7.378375,23.5336934 2.79725,26.7710731 2.79725,30 C2.79725,33.2261094 7.378375,36.463489 14.8432917,38.5822963 C15.756235,35.6518383 16.8585146,32.7849273 18.1430417,30 C16.8570442,27.2157054 15.7547266,24.3486955 14.8432917,21.4177037 L14.8432917,21.4177037 Z M50.2276667,42 L49.856375,40.678563 C48.8624756,37.2195886 47.5889213,33.8487956 46.0485417,30.6001408 L45.7665833,30 L46.0485417,29.3998591 C47.5883372,26.1499809 48.8618705,22.778301 49.856375,19.3186194 L50.2276667,18 L51.548125,18.33529 C61.3664167,20.8401033 67,25.0918056 67,30 C67,34.9081944 61.3664167,39.1570791 51.548125,41.6618925 L50.2276667,42 L50.2276667,42 Z M48.8569583,30 C50.1969583,32.9274477 51.30525,35.8041793 52.1567083,38.5822963 C59.6244166,36.4634891 64.20275,33.2261094 64.20275,30 C64.20275,26.771073 59.621625,23.5365109 52.1567083,21.4177037 C51.2449973,24.3485979 50.1426868,27.2155896 48.8569583,30 L48.8569583,30 Z" id="形状" fill-rule="nonzero"></path>
                            <path d="M15.0060121,21.0576891 L14.6283978,19.7673634 C11.8204241,10.1355099 12.6721856,3.23351052 16.9650636,0.824165609 C21.1756046,-1.54097112 27.9357517,1.25243216 35.0195682,8.32850126 L35.9848979,9.29279183 L35.0195682,10.2570823 C32.502489,12.8034908 30.2027018,15.545171 28.1430137,18.4549335 L27.759721,18.9881945 L27.0925078,19.0434547 C23.4694209,19.321407 19.875492,19.8850695 16.3461169,20.7288909 L15.0060121,21.0576891 L15.0060121,21.0576891 Z M20.3891448,2.73893166 C19.6282378,2.73893166 18.9553462,2.89918627 18.3875053,3.21693246 C15.5653355,4.80013729 15.0656354,10.3040536 17.0104909,17.7310249 C20.036051,17.0760027 23.1022677,16.6135997 26.1896406,16.3467568 C27.9710269,13.881828 29.9172526,11.5337166 32.0156893,9.31765892 C27.5865295,5.12064645 23.3930237,2.73893166 20.3891448,2.73893166 L20.3891448,2.73893166 Z M47.6142816,58.9993448 C47.6114424,58.9993448 47.6114424,58.9993448 47.6142816,58.9993448 C43.5684145,58.9993448 38.3726693,56.0346349 32.981019,50.6467651 L32.0156893,49.6824745 L32.981019,48.7181839 C35.4974462,46.170967 37.7962987,43.4283451 39.8547343,40.5175698 L40.238027,39.9843088 L40.902401,39.9290486 C44.5273575,39.6526275 48.1232237,39.089883 51.6544703,38.2463754 L52.9945751,37.9175772 L53.3750285,39.2106659 C56.1773239,48.8369934 55.3284016,55.7417558 51.0355236,58.1483377 C49.9927787,58.7221002 48.8120469,59.015798 47.6142816,58.9993448 L47.6142816,58.9993448 Z M35.9848979,49.6576074 C40.4140577,53.8546199 44.6075635,56.2363346 47.6114424,56.2363346 L47.6142816,56.2363346 C48.3723494,56.2363346 49.0480802,56.07608 49.6130819,55.7583339 C52.4352517,54.1751291 52.937791,48.6684498 50.9900963,41.2414784 C47.9637551,41.8974086 44.8965327,42.3598202 41.8081073,42.6257465 C40.0288804,45.0923783 38.0835434,47.4414849 35.9848979,49.6576074 L35.9848979,49.6576074 Z" id="形状" fill-rule="nonzero"></path>
                            <path d="M52.9933964,21.0567203 L51.6533311,20.7279141 C48.1226475,19.8816368 44.5267329,19.3179303 40.9015787,19.0424365 L40.2372243,18.987175 L39.8539429,18.453901 C37.7966184,15.5431507 35.4977609,12.8012988 32.9804302,10.2558488 L32.0151289,9.29153466 L32.9804302,8.32722044 C40.0611987,1.25374098 46.8183075,-1.53973079 51.0344027,0.822700824 C55.3271542,3.23210474 56.1788906,10.1342734 53.3738387,19.7635999 L52.9933964,21.0567203 L52.9933964,21.0567203 Z M41.8072583,16.3456726 C45.0495349,16.6330326 48.1299816,17.0999928 50.9889767,17.7299746 C52.9366139,10.3028212 52.4340895,4.79876998 49.6120029,3.21552634 C46.806951,1.63780883 41.5347027,4.05550204 35.9842205,9.31640236 C38.0816078,11.5326104 40.0268255,13.8807766 41.8072583,16.3456726 L41.8072583,16.3456726 Z M20.388927,58.9993062 C19.1902375,59.0162512 18.0084954,58.72253 16.9649467,58.1482782 C12.6721953,55.7416373 11.8204589,48.8394688 14.6283498,39.2101422 L15.0031138,37.9170217 L16.3431791,38.2458281 C19.6223643,39.0498837 23.2394048,39.6163147 27.0892534,39.9285425 L27.7564469,39.983804 L28.1368891,40.5170781 C30.1968338,43.4275434 32.4965279,46.1701847 35.013241,48.7178933 L35.9785423,49.6822075 L35.013241,50.6465217 C29.6245887,56.0345236 24.4289967,58.9993062 20.388927,58.9993062 L20.388927,58.9993062 Z M17.0103727,41.2410045 C15.0627355,48.6681579 15.5652599,54.1749722 18.3873465,55.7582158 C21.1895592,57.3138287 26.4589684,54.9154771 32.0151289,49.6573398 C29.9175897,47.4395545 27.9714701,45.0905214 26.1892519,42.6253065 C23.1018271,42.3595999 20.0356244,41.897174 17.0103727,41.2410045 L17.0103727,41.2410045 Z" id="形状" opacity="0.626209077"></path>
                            <path d="M33.998637,43 C31.7551113,43 29.4488868,42.9004557 27.1399364,42.7068974 L26.4993185,42.651595 L26.1313039,42.117927 C24.8252869,40.2144181 23.5975205,38.2568812 22.4511586,36.2503446 C21.3081982,34.2422006 20.24777,32.1868756 19.2726034,30.0896595 L19,29.5006892 L19.2726034,28.9117188 C20.2476188,26.8144264 21.3080501,24.7590952 22.4511586,22.7510338 C23.5797365,20.7712086 24.8200818,18.7969137 26.1313039,16.8834513 L26.4993185,16.3497834 L27.1399364,16.294481 C31.7051213,15.9018397 36.2948787,15.9018397 40.8600636,16.294481 L41.4979555,16.3497834 L41.8632439,16.8834513 C44.4779678,20.6911942 46.7731584,24.7147258 48.7246706,28.9117188 L49,29.5006892 L48.7246706,30.0896595 C46.7778347,34.2891361 44.482421,38.3130588 41.8632439,42.117927 L41.4979555,42.651595 L40.8600636,42.7068974 C38.5511131,42.9004557 36.2421627,43 33.998637,43 L33.998637,43 Z M28.0095411,40.002611 C32.0440709,40.3095392 35.9532031,40.3095392 39.9904588,40.002611 C42.2444228,36.6602798 44.2456019,33.1496001 45.9768287,29.5006892 C44.2486715,25.8495759 42.2464094,22.338595 39.9877329,18.9987673 C36.0007354,18.6918341 31.9965385,18.6918341 28.0095411,18.9987673 C25.7498781,22.3379636 23.747571,25.8490233 22.0204453,29.5006892 C23.7535425,33.149153 25.7555917,36.6597604 28.0095411,40.002611 L28.0095411,40.002611 Z" id="形状" opacity="0.626209077"></path>
                        </g>
                        <g id="Angular-(1)" transform="translate(102.000000, 0.000000)" fill="#FFFFFF">
                            <polygon id="路径" fill-rule="nonzero" points="24 35 30 35 30 21"></polygon>
                            <polygon id="路径" fill-rule="nonzero" points="22.7427475 41.3366071 18.8482378 51.1174107 11.624071 51.1174107 31 7.40290179 31 0 0 11.119308 4.726924 52.3587054 31 67 31 41.3366071"></polygon>
                            <polygon id="路径" opacity="0.626209077" points="30 21 30 35 36 35"></polygon>
                            <polygon id="路径" opacity="0.626209077" points="30 0 30 7.40290179 49.3090386 51.1174107 42.0848717 51.1174107 38.190362 41.3366071 30 41.3366071 30 67 56.273076 52.3587054 61 11.119308"></polygon>
                        </g>
                    </g>
                </g>
            </g>
        </g>
    </g>
</svg>