<?xml version="1.0" encoding="UTF-8"?>
<svg width="352px" height="172px" viewBox="0 0 352 172" version="1.1" xmlns="http://www.w3.org/2000/svg" xmlns:xlink="http://www.w3.org/1999/xlink">
    <title>编组 29</title>
    <defs>
        <linearGradient x1="50%" y1="0%" x2="50%" y2="100%" id="linearGradient-1">
            <stop stop-color="#84B7FF" offset="0%"></stop>
            <stop stop-color="#7FCDFF" offset="100%"></stop>
        </linearGradient>
    </defs>
    <g id="正式版" stroke="none" stroke-width="1" fill="none" fill-rule="evenodd">
        <g id="Ant-Design-5.0-官网-PC" transform="translate(-128.000000, -3049.000000)">
            <g id="编组-52" transform="translate(0.000000, 2022.000000)">
                <g id="编组-29" transform="translate(128.000000, 1027.000000)">
                    <path d="M5.1277704,1.15308315e-15 L346.87223,2.07168062e-16 C348.655267,-1.2037061e-16 349.30184,0.185651222 349.953691,0.534265408 C350.605543,0.882879593 351.11712,1.39445674 351.465735,2.04630859 C351.814349,2.69816044 352,3.34473292 352,5.1277704 L352,166.87223 C352,168.655267 351.814349,169.30184 351.465735,169.953691 C351.11712,170.605543 350.605543,171.11712 349.953691,171.465735 C349.30184,171.814349 348.655267,172 346.87223,172 L5.1277704,172 C3.34473292,172 2.69816044,171.814349 2.04630859,171.465735 C1.39445674,171.11712 0.882879593,170.605543 0.534265408,169.953691 C0.185651222,169.30184 -1.10527061e-15,168.655267 1.90226477e-15,166.87223 L1.38112041e-16,5.1277704 C-8.02470732e-17,3.34473292 0.185651222,2.69816044 0.534265408,2.04630859 C0.882879593,1.39445674 1.39445674,0.882879593 2.04630859,0.534265408 C2.69816044,0.185651222 3.34473292,-6.69974515e-16 5.1277704,1.15308315e-15 Z" id="蒙版" fill="url(#linearGradient-1)"></path>
                    <g id="编组-28备份" transform="translate(56.000000, 34.000000)">
                        <rect id="矩形" x="0" y="0" width="96" height="96"></rect>
                        <g id="编组-3" transform="translate(7.000000, 4.000000)" fill="#FFFFFF">
                            <path d="M28.2905357,39.3895069 C19.5022967,30.5689999 19.0276854,22.2248468 26.8667019,14.3570476 L40.9119428,0.260236443 L41.1921968,0 L41.4726726,0.260236443 L55.5179135,14.3570476 C63.2785398,22.1461688 62.8909795,30.4021645 54.3552327,39.1250346 L54.0940797,39.3895069 L41.1924185,52.3384615 L28.2905357,39.3895069 Z" id="蒙版" fill-opacity="0.8"></path>
                            <path d="M82.4631296,49.9151931 L82.8540675,49.9303872 L82.8694223,50.3214858 L82.8694223,70.6752449 C82.8694223,81.9216107 76.6283719,87.6010254 64.1462711,87.7134891 L63.7661153,87.7151931 L45.0694223,87.7151931 L45.0694223,69.0185001 C45.0694223,56.2829621 50.749405,49.9151931 62.1093705,49.9151931 L82.4631296,49.9151931 Z M76.7205394,56 L62.7205993,56 C54.9068664,56 51,60.3799469 51,69.1398408 L51,82 L63.8601592,82 L64.121642,81.9988279 C72.707214,81.921472 77,78.0149962 77,70.2794007 L77,56.2794606 L76.9894385,56.010451 L76.7205394,56 Z" id="形状结合" fill-opacity="0.8" fill-rule="nonzero"></path>
                            <g id="编组-36" transform="translate(0.000000, 49.915193)">
                                <path d="M3.63797881e-12,19.103307 C3.63797881e-12,6.367769 5.67998275,0 17.0399482,0 L37.3937073,0 L37.7846452,0.0151941192 L37.8,0.406292705 L37.8,20.7600518 C37.8,32.0064176 31.5589496,37.6858323 19.0768488,37.798296 L18.696693,37.8 L3.63797881e-12,37.8 L3.63797881e-12,19.103307 Z" id="蒙版" fill-opacity="0.50076486" transform="translate(18.900000, 18.900000) scale(-1, 1) translate(-18.900000, -18.900000) "></path>
                                <path d="M37.8,37.8 L19.103307,37.8 L18.7231512,37.7982398 C6.38129872,37.6870398 0.141036235,32.1332859 0.00236373579,21.1369781 L0,20.7599955 L0,0.406236487 L0.0153547541,0.0151379008 L37.8,37.8 Z" id="路径" fill-opacity="0.85"></path>
                            </g>
                        </g>
                    </g>
                    <g id="编组-7备份-5" transform="translate(205.000000, 41.000000)" fill="#FFFFFF">
                        <path d="M45,0 C69.8528137,0 90,20.1471863 90,45 C90,69.8528137 69.8528137,90 45,90 C20.1471863,90 0,69.8528137 0,45 C0,20.1471863 20.1471863,0 45,0 Z M44.5,18 C29.3121694,18 17,30.3121694 17,45.5 C17,60.6878306 29.3121694,73 44.5,73 C59.6878306,73 72,60.6878306 72,45.5 C72,30.3121694 59.6878306,18 44.5,18 Z" id="形状结合" opacity="0.380068824"></path>
                        <path d="M45,11 C63.7776815,11 79,26.2223185 79,45 C79,63.7776815 63.7776815,79 45,79 C26.2223185,79 11,63.7776815 11,45 C11,26.2223185 26.2223185,11 45,11 Z M45,21 C31.745166,21 21,31.745166 21,45 C21,58.254834 31.745166,69 45,69 C58.254834,69 69,58.254834 69,45 C69,31.745166 58.254834,21 45,21 Z" id="形状结合" opacity="0.796921503"></path>
                        <g id="heart-fill" transform="translate(32.538462, 33.836538)" fill-rule="nonzero">
                            <path d="M24.3173077,4.575 C23.9307692,3.67788462 23.3769231,2.87596154 22.6759615,2.18653846 C21.975,1.5 21.1615385,0.963461538 20.2528846,0.585576923 C19.3153846,0.196153846 18.3230769,0 17.2990385,0 C15.8769231,0 14.4894231,0.389423077 13.2836538,1.125 C12.9951923,1.30096154 12.7211538,1.49423077 12.4615385,1.70480769 C12.2019231,1.49423077 11.9278846,1.30096154 11.6394231,1.125 C10.4336538,0.389423077 9.04615385,0 7.62403846,0 C6.6,0 5.60769231,0.196153846 4.67019231,0.585576923 C3.76442308,0.960576923 2.94807692,1.5 2.24711538,2.18653846 C1.54326923,2.87596154 0.992307692,3.67788462 0.605769231,4.575 C0.204807692,5.50673077 0,6.49615385 0,7.51442308 C0,8.475 0.196153846,9.47596154 0.585576923,10.4942308 C0.911538462,11.3451923 1.37884615,12.2278846 1.97596154,13.1192308 C2.92211538,14.5298077 4.22307692,16.0009615 5.83846154,17.4923077 C8.51538462,19.9644231 11.1663462,21.6721154 11.2788462,21.7413462 L11.9625,22.1798077 C12.2653846,22.3730769 12.6548077,22.3730769 12.9576923,22.1798077 L13.6413462,21.7413462 C13.7538462,21.6692308 16.4019231,19.9644231 19.0817308,17.4923077 C20.6971154,16.0009615 21.9980769,14.5298077 22.9442308,13.1192308 C23.5413462,12.2278846 24.0115385,11.3451923 24.3346154,10.4942308 C24.7240385,9.47596154 24.9202224,8.475 24.9202224,7.51442308 C24.9230769,6.49615385 24.7182692,5.50673077 24.3173077,4.575 Z" id="路径"></path>
                        </g>
                    </g>
                </g>
            </g>
        </g>
    </g>
</svg>