<?xml version="1.0" encoding="UTF-8"?>
<svg width="352px" height="172px" viewBox="0 0 352 172" version="1.1" xmlns="http://www.w3.org/2000/svg" xmlns:xlink="http://www.w3.org/1999/xlink">
    <title>编组 29</title>
    <defs>
        <linearGradient x1="50%" y1="0%" x2="50%" y2="100%" id="linearGradient-1">
            <stop stop-color="#FF9674" offset="0%"></stop>
            <stop stop-color="#FFC2C6" offset="100%"></stop>
        </linearGradient>
    </defs>
    <g id="正式版" stroke="none" stroke-width="1" fill="none" fill-rule="evenodd">
        <g id="Ant-Design-5.0-官网-PC" transform="translate(-544.000000, -3049.000000)">
            <g id="编组-52" transform="translate(0.000000, 2022.000000)">
                <g id="编组-29" transform="translate(544.000000, 1027.000000)">
                    <path d="M5.1277704,1.15308315e-15 L346.87223,2.07168062e-16 C348.655267,-1.2037061e-16 349.30184,0.185651222 349.953691,0.534265408 C350.605543,0.882879593 351.11712,1.39445674 351.465735,2.04630859 C351.814349,2.69816044 352,3.34473292 352,5.1277704 L352,166.87223 C352,168.655267 351.814349,169.30184 351.465735,169.953691 C351.11712,170.605543 350.605543,171.11712 349.953691,171.465735 C349.30184,171.814349 348.655267,172 346.87223,172 L5.1277704,172 C3.34473292,172 2.69816044,171.814349 2.04630859,171.465735 C1.39445674,171.11712 0.882879593,170.605543 0.534265408,169.953691 C0.185651222,169.30184 -1.10527061e-15,168.655267 1.90226477e-15,166.87223 L1.38112041e-16,5.1277704 C-8.02470732e-17,3.34473292 0.185651222,2.69816044 0.534265408,2.04630859 C0.882879593,1.39445674 1.39445674,0.882879593 2.04630859,0.534265408 C2.69816044,0.185651222 3.34473292,-6.69974515e-16 5.1277704,1.15308315e-15 Z" id="蒙版备份-3" fill="url(#linearGradient-1)"></path>
                    <line x1="105" y1="93.25" x2="265.5" y2="93.5" id="路径-125备份" stroke="#FFCEC0" stroke-width="0.9" stroke-linecap="round" stroke-linejoin="round"></line>
                    <path d="M143.511416,51 L153.488584,51 L183,120 L173.652968,120 L165.671233,100.672269 L131.223744,100.672269 L123.242009,120 L114,120 L143.511416,51 Z M132.818182,94.9090909 L162.38961,94.9090909 L147.925325,59.961039 L147.496753,59.961039 L132.818182,94.9090909 Z" id="A-Copy" stroke="#FFFFFF" stroke-width="2.7" fill="#FFFFFF"></path>
                    <path d="M213.896552,61 C222.267377,61 228.466048,63.124546 232.665454,67.539557 C236.199393,71.425979 238,76.7240573 238,83.2705737 L238,120.972326 L227.182266,120.972326 L227.182266,112.639501 C225.323028,114.485492 223.116689,116.102275 220.601636,117.475033 C216.23966,119.814151 211.35138,121 205.985222,121 C200.071997,121 195.323361,119.547816 191.694267,116.594268 C187.925055,113.508255 186,109.451196 186,104.618513 C186,97.9143628 188.762163,92.8674252 194.308359,89.5044558 C199.02017,86.456351 205.587965,84.844876 213.927067,84.6716044 L226.640394,84.4720674 L226.640394,82.955087 C226.640394,74.5823674 222.399576,70.6272765 213.35468,70.6272765 C209.363721,70.6272765 206.300621,71.3463843 203.946824,72.8668788 C201.387185,74.3387447 199.738688,76.6338755 198.945209,79.8099647 L187.50629,79.7991103 C187.513628,79.7641544 187.518818,79.739432 187.52186,79.7249434 C187.575361,79.4700866 187.655612,79.0878014 187.762614,78.5780878 C189.031452,72.5338636 192.181607,67.9058305 197.045462,64.9841769 C201.411941,62.3081388 206.972834,61 213.896552,61 Z M229.034483,91.42574 L229.034483,97.3451586 C229.034483,101.906757 226.810553,106.00475 222.541714,109.461313 C218.222304,112.976645 213.314432,114.731343 207.769683,114.731343 C204.117575,114.731343 201.041279,113.845143 198.59298,112.069744 C196.148501,110.179788 194.965517,107.833046 194.965517,104.900848 C194.965517,96.3467091 201.688686,91.968709 214.498776,91.6635295 L229.034483,91.42574 Z" id="a-copy" fill="#FFFFFF" fill-rule="nonzero"></path>
                    <path d="M226.999094,93 L215.49969,93.1864762 L214.668105,93.2059849 C203.310373,93.5525027 198,97.0800332 198,103.811726 C198,105.915102 198.798297,107.4915 200.578411,108.862343 C202.527402,110.268589 205.078004,111 208.223923,111 C213.201133,111 217.55597,109.450127 221.441053,106.302697 C225.051073,103.392919 226.893171,100.120056 226.995486,96.5269997 L227,96.2091354 L226.999094,93 Z" id="路径" fill="#FFAFA4" fill-rule="nonzero"></path>
                    <g id="编组-35" transform="translate(88.000000, 49.000000)" stroke="#FFCEC0" stroke-linecap="round" stroke-linejoin="round">
                        <line x1="0.266566265" y1="0.5" x2="177" y2="0.5" id="路径-131备份"></line>
                        <line x1="0.266566265" y1="72.5" x2="177" y2="72.5" id="路径-131备份-4"></line>
                    </g>
                    <path id="路径-133" d="M91.9357878,49.2548694 L96.4357878,57.2548694 C96.5711697,57.4955483 96.4858096,57.8004059 96.2451306,57.9357878 C96.0044517,58.0711697 95.6995941,57.9858096 95.5642122,57.7451306 L92,51.408 L92,119.591 L95.5642122,113.254869 C95.6995941,113.01419 96.0044517,112.92883 96.2451306,113.064212 C96.4858096,113.199594 96.5711697,113.504452 96.4357878,113.745131 L91.9357878,121.745131 C91.7446357,122.084956 91.2553643,122.084956 91.0642122,121.745131 L86.5642122,113.745131 C86.4288303,113.504452 86.5141904,113.199594 86.7548694,113.064212 C86.9955483,112.92883 87.3004059,113.01419 87.4357878,113.254869 L91,119.591 L91,51.408 L87.4357878,57.7451306 C87.3154483,57.9590675 87.0612021,58.0502832 86.8371522,57.9728292 L86.7548694,57.9357878 C86.5141904,57.8004059 86.4288303,57.4955483 86.5642122,57.2548694 L91.0642122,49.2548694 C91.2553643,48.9150435 91.7446357,48.9150435 91.9357878,49.2548694 Z" fill="#FFCEC0" fill-rule="nonzero"></path>
                </g>
            </g>
        </g>
    </g>
</svg>