<?xml version="1.0" encoding="UTF-8"?>
<svg width="164px" height="165px" viewBox="0 0 164 165" version="1.1" xmlns="http://www.w3.org/2000/svg" xmlns:xlink="http://www.w3.org/1999/xlink">
    <title>Artboard</title>
    <defs>
        <linearGradient x1="95.9612965%" y1="61.7703731%" x2="52.4889942%" y2="37.6153707%" id="linearGradient-1">
            <stop stop-color="#54A6FF" offset="0%"></stop>
            <stop stop-color="#007AFF" offset="100%"></stop>
        </linearGradient>
        <linearGradient x1="6.840663%" y1="3.26488233%" x2="50%" y2="100%" id="linearGradient-2">
            <stop stop-color="#57A7FF" offset="0%"></stop>
            <stop stop-color="#007AFF" offset="100%"></stop>
        </linearGradient>
    </defs>
    <g id="Artboard" stroke="none" stroke-width="1" fill="none" fill-rule="evenodd">
        <g id="Group">
            <path d="M94.9383404,2.0507254e-12 L160.397413,65.8582137 C165.200862,70.6909518 165.200862,78.5263684 160.397413,83.3591065 C158.090716,85.6798692 154.962163,86.9836601 151.7,86.9836601 L16.4,86.9836601 C7.3425301,86.9836601 12,83.0170901 12,73.9043918 L94.9383404,2.0507254e-12 Z" id="ShapeFront" fill="url(#linearGradient-1)" opacity="0.400000006" transform="translate(87.401385, 43.491830) scale(1, -1) translate(-87.401385, -43.491830) "></path>
            <path d="M94.8049786,4.40187377 L158.129431,68.1124508 C159.912438,69.9063295 160.802293,72.2579154 160.802293,74.6086601 C160.802293,76.9594047 159.912438,79.3109907 158.129431,81.1048693 C156.42424,82.8204579 154.111953,83.7859531 151.7,83.7859531 L151.7,83.7859531 L16.4,83.7859531 C15.2071843,83.7859531 14.1480188,84.1298604 13.7879976,83.6980964 C13.3753257,83.2031897 14.2176947,82.2175777 14.3753538,81.3704249 C14.6853117,79.7049213 15.0484273,77.7110239 15.161956,75.3698858 L15.161956,75.3698858 L94.8049786,4.40187377 Z" id="ShapeFront" stroke="#007AFF" stroke-width="6.39541394" opacity="0.200000003" transform="translate(87.401385, 43.491830) scale(1, -1) translate(-87.401385, -43.491830) "></path>
            <path d="M12.3,0 C15.5621628,0 18.690716,1.3037909 20.9974134,3.62455358 L160.397413,143.874554 C165.200862,148.707292 165.200862,156.542708 160.397413,161.375446 C158.090716,163.696209 154.962163,165 151.7,165 L16.4,165 C7.3425301,165 0,157.612698 0,148.5 L0,12.375 C0,5.54047622 5.50689758,0 12.3,0 Z M49.7857143,94.2857143 C38.4638769,94.2857143 29.2857143,103.519841 29.2857143,114.910714 C29.2857143,126.301587 38.4638769,135.535714 49.7857143,135.535714 C61.1075517,135.535714 70.2857143,126.301587 70.2857143,114.910714 C70.2857143,103.519841 61.1075517,94.2857143 49.7857143,94.2857143 Z" id="ShapeFront" fill="url(#linearGradient-2)"></path>
        </g>
    </g>
</svg>