<svg width="300" height="230" viewBox="0 0 300 230" fill="none" xmlns="http://www.w3.org/2000/svg">
<path d="M237.382 174.924L238.228 168.676H234.988L235.191 167.133H243.549L243.346 168.676H240.106L239.241 174.924H237.382ZM255.294 174.924L255.772 171.367C255.937 170.182 256.03 169.485 256.122 168.883C255.772 169.429 255.312 170.05 254.631 170.991L251.796 174.924H249.955L248.317 171.028C247.93 170.125 247.71 169.617 247.434 168.883C247.434 169.711 247.285 170.257 247.12 171.387L246.642 174.924H244.801L245.868 167.133H248.482L251.041 173.305L255.423 167.133H258L256.932 174.924H255.294Z" fill="#191818"/>
<path d="M86.1165 210.038L88.5096 192.124H56.3125L53.901 210.038H43.5L49.2988 167.566H59.7181L57.4723 183.901H89.6694L91.9154 167.566H102.316L96.5175 210.038H86.1165Z" fill="#191818"/>
<path d="M110.195 210.038L115.994 167.566H160.359L159.144 176.298H124.536L123.542 183.73H157.562L156.402 191.747H122.4L121.093 201.476H155.924L154.763 210.038H110.195Z" fill="#191818"/>
<path d="M210.413 210.038L196.146 193.591L177.516 210.038H164.06L190.569 187.738L170.889 167.284H184.236L197.528 182.149L215.549 167.284H228.435L203.528 187.909L223.484 210.038H210.413Z" fill="#191818"/>
<path d="M49.9431 227.577C50.5587 227.59 51.1743 227.551 51.7841 227.464C52.1354 227.433 52.4784 227.337 52.7964 227.182C53.0127 227.073 53.1875 226.895 53.2935 226.673C53.4006 226.432 53.4809 226.181 53.5328 225.921H55.6499C55.6499 226.316 55.5026 226.693 55.4105 227.012C55.3215 227.315 55.1981 227.605 55.0424 227.878C54.8654 228.128 54.6473 228.344 54.3981 228.517C54.0836 228.712 53.7423 228.859 53.3856 228.95C52.8896 229.072 52.3848 229.155 51.876 229.195C51.287 229.195 50.5691 229.195 49.7406 229.195C48.8919 229.207 48.0432 229.164 47.2002 229.063C46.6452 229.007 46.1037 228.853 45.5987 228.612C45.2375 228.43 44.9507 228.123 44.7887 227.746C44.613 227.318 44.5314 226.855 44.5493 226.391C44.5493 226.128 44.5397 225.53 44.6477 224.679C44.5188 225.695 44.7765 223.663 44.6477 224.679C44.7557 223.827 44.8623 223.324 44.9727 222.853C45.069 222.422 45.2174 222.005 45.4145 221.611C45.5969 221.279 45.8406 220.984 46.1325 220.746C46.4565 220.493 46.8254 220.308 47.2185 220.201C47.7365 220.055 48.2666 219.961 48.8018 219.918C49.4277 219.918 50.1641 219.918 51.0108 219.918C51.8718 219.903 52.7328 219.948 53.5881 220.05C54.1217 220.09 54.6447 220.224 55.1345 220.444C55.4472 220.589 55.7057 220.834 55.8708 221.141C56.0039 221.463 56.0667 221.809 56.0549 222.157V222.59V223.079H53.9378C53.9669 222.861 53.9669 222.639 53.9378 222.421C53.91 222.326 53.8629 222.238 53.7993 222.163C53.7359 222.09 53.6576 222.028 53.5697 221.988C53.2661 221.852 52.9425 221.769 52.6124 221.743C51.9993 221.705 51.3845 221.705 50.7716 221.743C50.1069 221.732 49.4426 221.769 48.7833 221.857C48.3899 221.898 48.0149 222.048 47.6972 222.289C47.4326 222.516 47.2509 222.827 47.1818 223.174C46.9056 224.679 47.1818 223.174 46.9056 224.679C46.9056 224.998 46.9056 225.262 46.9056 225.507C46.8888 225.719 46.8888 225.934 46.9056 226.147C46.892 226.404 46.9361 226.662 47.0345 226.9C47.1446 227.104 47.3201 227.263 47.5316 227.351C47.8352 227.482 48.1593 227.559 48.4889 227.577C48.7833 227.539 49.2989 227.577 49.9431 227.577Z" fill="#191818"/>
<path d="M68.6651 227.294H62.6822L61.412 229.177H59.0557L65.2411 220.049H68.0576L71.629 229.177H69.3463L68.6651 227.294ZM68.0393 225.638C67.7815 224.962 67.5791 224.396 67.3949 223.945C67.2109 223.493 67.082 223.099 66.9716 222.797C66.8611 222.496 66.7691 222.232 66.7138 222.025C66.6467 221.841 66.5914 221.653 66.5482 221.461L66.1799 222.044L65.7013 222.797L64.9466 223.945L63.8053 225.638H68.0393Z" fill="#191818"/>
<path d="M86.724 222.175C86.724 221.988 86.724 222.382 86.724 222.175C86.724 222.364 86.632 222.571 86.5767 222.778H84.4782V222.553C84.4878 222.451 84.4878 222.352 84.4782 222.251C84.5064 222.159 84.5064 222.06 84.4782 221.968C84.3825 221.858 84.2523 221.786 84.1099 221.761C83.8402 221.745 83.5696 221.745 83.2999 221.761H81.9193H80.5755C80.275 221.746 79.9738 221.746 79.6734 221.761C79.4722 221.789 79.2747 221.84 79.0843 221.912C78.9663 221.973 78.8602 222.057 78.7714 222.157C78.7003 222.258 78.6502 222.373 78.6241 222.496C78.615 222.628 78.615 222.76 78.6241 222.891C78.6109 222.979 78.6109 223.068 78.6241 223.154C78.6588 223.233 78.7167 223.299 78.7897 223.342C78.8916 223.411 79.0035 223.462 79.1212 223.493H79.6366C79.9311 223.493 80.2993 223.588 80.7595 223.624H82.2322C82.8907 223.632 83.5482 223.677 84.202 223.756C84.6438 223.802 85.0773 223.91 85.4907 224.077C85.7698 224.196 86.0071 224.4 86.1718 224.659C86.3149 224.945 86.3845 225.262 86.3743 225.582C86.4007 225.932 86.4007 226.285 86.3743 226.636C86.3217 226.995 86.203 227.338 86.0245 227.652C85.8678 227.938 85.6546 228.188 85.3986 228.385C85.0909 228.599 84.7477 228.752 84.3861 228.838C83.91 228.962 83.4228 229.037 82.9318 229.063C82.3611 229.063 81.6799 229.063 80.9068 229.063C80.1336 229.063 79.0659 229.063 78.4216 229.063C77.8894 229.022 77.364 228.914 76.8568 228.743C76.5522 228.71 76.2639 228.586 76.0285 228.385C75.8737 228.111 75.7972 227.798 75.8076 227.482C75.8112 227.096 75.8605 226.709 75.9549 226.335H78.1087C78.1 226.423 78.1 226.51 78.1087 226.598C78.0985 226.699 78.0985 226.798 78.1087 226.9C78.1042 226.967 78.1134 227.036 78.1354 227.1C78.1576 227.165 78.1923 227.225 78.2376 227.275C78.3558 227.403 78.5104 227.488 78.6793 227.521C78.9882 227.588 79.3024 227.625 79.6182 227.633H81.1645H82.4532C82.7413 227.649 83.0302 227.649 83.3184 227.633C83.505 227.611 83.686 227.553 83.8522 227.464C83.9769 227.413 84.0808 227.32 84.1468 227.2C84.2197 227.088 84.2641 226.958 84.2757 226.824C84.2847 226.693 84.2847 226.561 84.2757 226.429C84.3048 226.325 84.3048 226.213 84.2757 226.108C84.2151 226.012 84.1242 225.94 84.018 225.901C83.8441 225.846 83.6653 225.808 83.4841 225.789C83.1958 225.773 82.9071 225.773 82.6188 225.789H81.772H80.8516H79.6918C79.2684 225.789 78.8634 225.789 78.4584 225.619C77.9589 225.55 77.4876 225.342 77.0962 225.017C76.9254 224.831 76.7934 224.612 76.7079 224.373C76.6224 224.133 76.5855 223.879 76.5991 223.624C76.5735 223.287 76.5735 222.947 76.5991 222.609C76.6699 222.261 76.8009 221.93 76.9857 221.63C77.1352 221.37 77.3434 221.151 77.5932 220.99C77.9074 220.798 78.2491 220.659 78.6057 220.576C79.1028 220.467 79.6075 220.398 80.1153 220.369C80.7043 220.369 81.4039 220.369 82.2322 220.369C83.0607 220.369 83.889 220.369 84.4782 220.369C84.9642 220.407 85.4452 220.496 85.914 220.633C86.2011 220.703 86.4537 220.878 86.626 221.122C86.724 221.373 86.724 221.469 86.724 222.175Z" fill="#191818"/>
<path d="M90.314 229.177L91.5473 220.049H93.7563L92.5965 229.177H90.314Z" fill="#191818"/>
<path d="M106.016 229.177L102.003 224.321L100.917 223.004C100.623 222.628 100.328 222.271 100.07 221.912C100.07 222.157 100.07 222.383 100.07 222.609C100.07 222.835 100.07 223.079 100.07 223.342C100.07 223.606 100.07 223.87 99.96 224.17C99.8495 224.473 99.96 224.83 99.8127 225.224L99.2789 229.177H97.0698L98.3216 220.049H101.23L104.912 224.584L105.593 225.431L106.109 226.072L106.532 226.598L106.882 227.05C106.873 226.881 106.873 226.711 106.882 226.542C106.882 226.354 106.882 226.147 106.882 225.921C106.882 225.695 106.882 225.431 106.992 225.13C107.103 224.83 106.992 224.453 107.139 224.039L107.673 220.049H109.79L108.557 229.177H106.016Z" fill="#191818"/>
<path d="M118.921 229.289C117.816 229.289 116.914 229.289 116.196 229.177C115.622 229.132 115.057 229 114.521 228.781C114.145 228.638 113.836 228.356 113.656 227.991C113.473 227.571 113.385 227.114 113.398 226.654C113.382 226.348 113.382 226.039 113.398 225.733C113.398 225.394 113.398 225.037 113.546 224.623C113.693 224.209 113.73 223.399 113.822 222.928C113.915 222.491 114.064 222.067 114.263 221.668C114.441 221.331 114.685 221.036 114.981 220.802C115.323 220.561 115.703 220.383 116.104 220.276C116.653 220.13 117.214 220.035 117.78 219.994C118.442 219.994 119.234 219.994 120.154 219.994C121.052 219.984 121.949 220.023 122.842 220.105C123.424 220.151 123.996 220.291 124.536 220.519C124.905 220.691 125.21 220.983 125.401 221.347C125.613 221.78 125.726 222.257 125.732 222.74C125.732 223.003 125.732 223.324 125.732 223.644C125.732 223.963 125.732 224.321 125.603 224.716C125.475 225.112 125.401 225.94 125.29 226.411C125.214 226.852 125.064 227.278 124.849 227.671C124.676 228.005 124.43 228.295 124.131 228.517C123.792 228.763 123.411 228.942 123.008 229.045C122.46 229.194 121.899 229.282 121.332 229.309C120.596 229.27 119.823 229.289 118.921 229.289ZM119.142 227.596C119.794 227.605 120.446 227.567 121.093 227.482C121.513 227.442 121.921 227.315 122.29 227.107C122.556 226.943 122.768 226.699 122.897 226.411C123.048 226.05 123.147 225.67 123.192 225.28C123.192 224.886 123.192 224.566 123.321 224.321C123.45 224.077 123.321 223.87 123.321 223.738C123.321 223.606 123.321 223.474 123.321 223.417C123.321 223.361 123.321 223.286 123.321 223.23C123.331 222.962 123.274 222.697 123.155 222.458C123.03 222.235 122.836 222.064 122.603 221.968C122.263 221.824 121.902 221.735 121.535 221.705C121.093 221.705 120.522 221.705 119.841 221.705C119.186 221.66 118.527 221.66 117.872 221.705C117.455 221.749 117.049 221.87 116.675 222.064C116.395 222.218 116.179 222.473 116.068 222.778C115.924 223.14 115.831 223.519 115.791 223.907C115.791 224.321 115.681 224.641 115.663 224.886C115.644 225.13 115.663 225.319 115.663 225.469C115.663 225.619 115.663 225.714 115.663 225.79V225.958C115.658 226.223 115.708 226.486 115.81 226.729C115.934 226.952 116.129 227.125 116.362 227.219C116.705 227.355 117.064 227.444 117.43 227.482C117.872 227.557 118.369 227.596 119.142 227.596Z" fill="#191818"/>
<path d="M138.416 229.177L138.931 225.412H132.028L131.494 229.177H129.267L130.518 220.049H132.746L132.267 223.568H139.189L139.668 220.049H141.895L140.662 229.177H138.416Z" fill="#191818"/>
<path d="M145.19 229.177L146.424 220.049H155.959L155.701 221.932H148.338L148.117 223.531H155.481L155.242 225.244H147.878L147.602 227.332H155.076L154.837 229.214L145.19 229.177Z" fill="#191818"/>
<path d="M168.477 229.177L165.422 225.676L161.445 229.177H158.574L164.244 224.416L160.047 220.049H162.882L165.717 223.231L169.565 220.049H172.325L167.006 224.453L171.258 229.177H168.477Z" fill="#191818"/>
<path d="M175.767 229.176L176.007 227.293H177.848L177.609 229.176H175.767Z" fill="#191818"/>
<path d="M187.034 229.289C185.93 229.289 185.028 229.289 184.31 229.177C183.735 229.132 183.17 229 182.634 228.781C182.259 228.638 181.949 228.356 181.769 227.991C181.586 227.571 181.499 227.114 181.512 226.654C181.494 226.348 181.494 226.039 181.512 225.733C181.512 225.394 181.511 225.037 181.659 224.623C181.806 224.209 181.842 223.399 181.935 222.928C182.028 222.491 182.177 222.067 182.376 221.668C182.555 221.331 182.799 221.036 183.095 220.802C183.435 220.561 183.816 220.383 184.218 220.276C184.766 220.13 185.327 220.035 185.892 219.994C186.555 219.994 187.347 219.994 188.268 219.994C189.165 219.984 190.062 220.023 190.955 220.105C191.538 220.151 192.11 220.291 192.648 220.519C193.019 220.691 193.323 220.983 193.514 221.347C193.727 221.78 193.839 222.257 193.845 222.74C193.845 223.003 193.845 223.324 193.845 223.644C193.845 223.963 193.845 224.321 193.716 224.716C193.587 225.112 193.514 225.94 193.404 226.411C193.326 226.852 193.178 227.278 192.962 227.671C192.789 228.005 192.543 228.295 192.243 228.517C191.904 228.763 191.523 228.942 191.121 229.045C190.574 229.194 190.011 229.282 189.446 229.309C188.709 229.27 187.937 229.289 187.034 229.289ZM187.256 227.596C187.907 227.605 188.559 227.567 189.206 227.482C189.626 227.442 190.034 227.315 190.403 227.107C190.67 226.943 190.881 226.699 191.01 226.411C191.162 226.05 191.261 225.67 191.306 225.28C191.306 224.886 191.306 224.566 191.433 224.321C191.562 224.077 191.433 223.87 191.433 223.738C191.433 223.606 191.433 223.474 191.433 223.417C191.433 223.361 191.433 223.286 191.433 223.23C191.444 222.962 191.387 222.697 191.268 222.458C191.144 222.235 190.949 222.064 190.716 221.968C190.376 221.824 190.016 221.735 189.648 221.705C189.206 221.705 188.636 221.705 187.955 221.705C187.299 221.66 186.641 221.66 185.985 221.705C185.568 221.749 185.162 221.87 184.788 222.064C184.508 222.218 184.293 222.473 184.181 222.778C184.037 223.14 183.944 223.519 183.905 223.907C183.905 224.321 183.794 224.641 183.776 224.886C183.758 225.13 183.776 225.319 183.776 225.469C183.776 225.619 183.776 225.714 183.776 225.79V225.958C183.771 226.223 183.821 226.486 183.923 226.729C184.047 226.952 184.242 227.125 184.475 227.219C184.818 227.355 185.177 227.444 185.543 227.482C185.985 227.557 186.482 227.596 187.256 227.596Z" fill="#191818"/>
<path d="M203.418 229.177C203.392 229.008 203.392 228.836 203.418 228.667C203.418 228.424 203.418 228.103 203.418 227.746C203.418 227.389 203.418 227.238 203.418 227.068C203.418 226.9 203.418 226.786 203.418 226.693C203.422 226.624 203.422 226.554 203.418 226.485V226.39C203.424 226.308 203.413 226.225 203.385 226.147C203.356 226.068 203.31 225.998 203.251 225.94C203.16 225.826 202.939 225.789 202.608 225.789H197.527L197.067 229.177H194.857L196.09 220.049H203.565C203.97 220.016 204.375 220.016 204.78 220.049C205.086 220.075 205.381 220.171 205.645 220.331C205.864 220.458 206.044 220.648 206.16 220.877C206.278 221.162 206.335 221.47 206.326 221.78C206.334 221.893 206.334 222.007 206.326 222.119C206.338 222.326 206.338 222.533 206.326 222.74C206.28 223.034 206.212 223.322 206.124 223.606C206.044 223.827 205.926 224.031 205.774 224.209C205.636 224.368 205.467 224.497 205.276 224.584C205.062 224.69 204.832 224.759 204.595 224.791L205.093 224.923C205.225 224.972 205.35 225.043 205.461 225.13C205.578 225.231 205.666 225.36 205.719 225.506C205.752 225.687 205.719 226.607 205.719 226.607L205.627 229.177H203.418ZM204.043 223.154C204.043 222.891 204.043 222.721 204.043 222.628C204.051 222.553 204.051 222.476 204.043 222.401C204.052 222.323 204.043 222.243 204.018 222.168C203.992 222.093 203.95 222.025 203.896 221.968C203.7 221.839 203.464 221.786 203.233 221.818H198.153L197.821 224.17H203.049C203.385 224.17 203.233 224.17 203.545 224.17C203.668 224.135 203.778 224.063 203.859 223.963C203.932 223.867 203.988 223.759 204.025 223.643C204.043 223.154 204.025 223.305 204.043 223.154Z" fill="#191818"/>
<path d="M213.782 227.577C214.398 227.59 215.013 227.551 215.624 227.464C215.975 227.433 216.317 227.337 216.636 227.182C216.852 227.073 217.026 226.895 217.133 226.673C217.239 226.432 217.449 225.822 217.5 225.563H219.618C219.249 227.012 219.342 226.693 219.249 227.012C219.161 227.315 219.038 227.605 218.882 227.878C218.705 228.128 218.486 228.344 218.237 228.517C217.923 228.712 217.581 228.859 217.224 228.95C216.729 229.072 216.224 229.155 215.715 229.195C215.126 229.195 214.409 229.195 213.579 229.195C212.732 229.207 211.883 229.164 211.04 229.063C210.485 229.007 209.943 228.853 209.438 228.612C209.076 228.43 208.79 228.123 208.628 227.746C208.452 227.318 208.37 226.855 208.388 226.391C208.388 226.128 208.379 225.53 208.487 224.679C208.358 225.695 208.616 223.663 208.487 224.679C208.595 223.827 208.701 223.324 208.812 222.853C208.908 222.422 209.057 222.005 209.253 221.611C209.436 221.279 209.679 220.984 209.972 220.746C210.296 220.493 210.665 220.308 211.058 220.201C211.575 220.055 212.106 219.961 212.64 219.918C213.267 219.918 214.004 219.918 214.85 219.918C215.711 219.903 216.572 219.948 217.427 220.05C217.961 220.09 218.484 220.224 218.973 220.444C219.287 220.589 219.545 220.834 219.71 221.141C219.843 221.463 219.906 221.809 219.894 222.157V223.079H217.776C217.806 222.861 217.806 222.639 217.776 222.421C217.749 222.326 217.701 222.238 217.638 222.163C217.575 222.09 217.497 222.028 217.409 221.988C217.106 221.852 216.782 221.769 216.452 221.743C215.838 221.705 215.223 221.705 214.611 221.743C213.947 221.732 213.282 221.769 212.622 221.857C212.229 221.898 211.854 222.048 211.536 222.289C211.272 222.516 211.089 222.827 211.02 223.174C210.744 224.679 211.02 223.174 210.744 224.679C210.744 224.998 210.744 225.262 210.744 225.507C210.728 225.719 210.728 225.934 210.744 226.147C210.731 226.404 210.776 226.662 210.873 226.9C210.984 227.104 211.16 227.263 211.371 227.351C211.674 227.482 211.998 227.559 212.328 227.577C212.622 227.539 213.138 227.577 213.782 227.577Z" fill="#191818"/>
<path d="M219.618 225.563L220.059 224.212H215.316L215.016 225.563H219.618Z" fill="#191818"/>
<path d="M95.9157 122.774L139.517 148.519C146.896 152.88 156.036 152.88 163.416 148.519L207.017 122.774C214.397 118.414 218.933 110.386 218.933 101.666V50.1754C218.933 41.4552 214.397 33.3579 207.017 29.0671L163.416 3.32182C156.036 -1.03826 146.896 -1.03826 139.517 3.32182L95.9157 29.0671C88.5362 33.4271 84 41.4552 84 50.1754V101.666C84 110.386 88.5362 118.414 95.9157 122.774Z" fill="url(#paint0_radial_2080_35)"/>
<path d="M151.568 1.10733C155.562 1.10733 159.557 2.21464 163.01 4.29088L206.61 30.0361C213.651 34.1885 218.052 41.9398 218.052 50.1755V101.666C218.052 109.971 213.651 117.653 206.61 121.805L163.01 147.62C159.557 149.696 155.63 150.803 151.568 150.803C147.506 150.803 143.579 149.627 140.126 147.62L96.5252 121.875C89.4842 117.722 85.0835 109.971 85.0835 101.735V50.1755C85.0835 41.8707 89.4842 34.1885 96.5252 30.0361L140.126 4.29088C143.579 2.14544 147.506 1.10733 151.568 1.10733ZM151.568 0C147.506 0 143.308 1.10732 139.652 3.32197L95.9836 29.0672C88.604 33.4272 84.0679 41.4553 84.0679 50.1755V101.666C84.0679 110.386 88.604 118.484 95.9836 122.774L139.585 148.52C143.24 150.734 147.438 151.842 151.5 151.842C155.562 151.842 159.761 150.734 163.416 148.52L207.017 122.774C214.397 118.414 218.933 110.386 218.933 101.666V50.1755C218.933 41.4553 214.397 33.3581 207.017 29.0672L163.416 3.32197C159.828 1.10732 155.63 0 151.568 0Z" fill="url(#paint1_radial_2080_35)"/>
<path d="M90.9736 65.7472V86.2327C90.9736 88.3088 89.3488 89.9699 87.3176 89.9699H84.0679V62.0792H87.3854C89.4164 62.0792 90.9736 63.7402 90.9736 65.7472ZM129.023 13.5646L127.33 10.5887L103.702 24.4995L105.462 27.6138C106.478 29.344 108.712 29.9669 110.404 28.9286L127.669 18.7551C129.429 17.5786 130.038 15.2948 129.023 13.5646ZM194.357 25.676L196.116 22.5616L172.488 8.65088L170.796 11.6268C169.781 13.357 170.39 15.6408 172.082 16.679L189.414 26.9217C191.241 28.029 193.409 27.4062 194.357 25.676ZM212.027 65.7472V86.2327C212.027 88.3088 213.651 89.9699 215.682 89.9699H219V62.0792H215.682C213.719 62.0792 212.027 63.7402 212.027 65.7472ZM105.53 124.505L103.973 127.273L127.601 141.184L129.158 138.484C130.174 136.754 129.564 134.47 127.872 133.432L110.54 123.19C108.779 122.151 106.545 122.843 105.53 124.505ZM170.727 140.422L172.286 143.121L195.914 129.211L194.357 126.442C193.341 124.712 191.106 124.089 189.414 125.127L172.149 135.301C170.255 136.408 169.712 138.692 170.727 140.422Z" fill="white"/>
<path d="M127.33 10.5195L127.872 11.4884L104.243 25.3991L103.702 24.4302L127.33 10.5195ZM85.0835 62.0792H84.0679V89.9699H85.0835V62.0792ZM172.082 9.61978L195.71 23.5305L196.251 22.5616L172.623 8.65088L172.082 9.61978ZM217.985 89.9006H219V62.01H217.985V89.9006ZM195.914 129.211L195.44 128.38L171.812 142.291L172.286 143.121L195.914 129.211ZM104.379 126.512L103.905 127.342L127.533 141.253L128.007 140.422L104.379 126.512Z" fill="url(#paint2_radial_2080_35)"/>
<g opacity="0.5">
<path opacity="0.5" d="M110.607 110.456L142.834 129.418C148.318 132.671 154.953 132.671 160.437 129.418L192.663 110.456C198.147 107.203 201.465 101.32 201.465 94.8837V56.8888C201.465 50.4525 198.079 44.5006 192.663 41.317L160.437 22.3542C154.953 19.1013 148.318 19.1013 142.834 22.3542L110.607 41.317C105.123 44.5699 101.806 50.4525 101.806 56.8888V94.8837C101.738 101.32 105.123 107.272 110.607 110.456Z" fill="#3E9E48"/>
<path opacity="0.5" d="M151.567 20.6928C154.479 20.6928 157.458 21.5234 160.03 23.046L192.256 42.0089C197.47 45.1232 200.719 50.7983 200.719 56.9577V94.9527C200.719 101.112 197.47 106.856 192.256 109.902L160.03 128.864C157.458 130.387 154.546 131.217 151.567 131.217C148.656 131.217 145.677 130.387 143.105 128.864L110.878 109.902C105.665 106.787 102.415 101.112 102.415 94.9527V56.8885C102.415 50.7289 105.665 44.9848 110.878 41.9396L143.105 22.9767C145.677 21.4541 148.588 20.6928 151.567 20.6928ZM151.567 19.9316C148.521 19.9316 145.474 20.7621 142.766 22.3538L110.607 41.3167C105.123 44.5695 101.806 50.4522 101.806 56.8885V94.8834C101.806 101.32 105.191 107.272 110.607 110.455L142.834 129.418C145.542 131.01 148.588 131.84 151.635 131.84C154.749 131.84 157.728 131.01 160.437 129.418L192.663 110.455C198.147 107.202 201.465 101.32 201.465 94.8834V56.8885C201.465 50.4522 198.079 44.5002 192.663 41.3167L160.437 22.3538C157.66 20.7621 154.546 19.9316 151.567 19.9316Z" fill="url(#paint3_linear_2080_35)"/>
</g>
<path d="M151.567 129.072C149.875 129.072 148.115 128.795 146.558 128.242C146.354 128.172 146.287 127.965 146.354 127.826C146.422 127.619 146.625 127.55 146.761 127.619C148.792 128.311 150.891 128.518 152.989 128.311C153.192 128.311 153.328 128.449 153.328 128.657C153.328 128.864 153.192 129.003 152.989 129.003C152.583 129.072 152.041 129.072 151.567 129.072ZM159.15 127.134C159.015 127.134 158.88 127.065 158.88 126.927C158.812 126.788 158.88 126.581 159.015 126.442C159.217 126.304 159.421 126.235 159.691 126.096L164.566 123.259C164.701 123.189 164.905 123.189 165.04 123.397C165.108 123.535 165.108 123.743 164.905 123.882L160.03 126.719C159.828 126.857 159.556 126.996 159.286 127.065C159.286 127.134 159.217 127.134 159.15 127.134ZM140.871 125.404C140.803 125.404 140.735 125.404 140.668 125.335L135.048 122.013C134.913 121.944 134.845 121.736 134.913 121.528C134.98 121.39 135.184 121.321 135.387 121.39L141.006 124.712C141.141 124.781 141.209 124.989 141.141 125.197C141.074 125.335 140.938 125.404 140.871 125.404ZM170.322 120.629C170.185 120.629 170.118 120.56 170.05 120.421C169.983 120.283 169.983 120.075 170.185 119.937L175.806 116.615C175.941 116.545 176.143 116.545 176.28 116.753C176.347 116.892 176.347 117.099 176.143 117.238L170.524 120.56C170.524 120.56 170.389 120.629 170.322 120.629ZM129.7 118.829C129.632 118.829 129.564 118.829 129.564 118.76L123.945 115.438C123.809 115.369 123.742 115.161 123.809 114.954C123.877 114.746 124.08 114.746 124.283 114.815L129.903 118.137C130.038 118.207 130.106 118.414 130.038 118.622C129.903 118.76 129.835 118.829 129.7 118.829ZM181.56 114.054C181.425 114.054 181.357 113.985 181.29 113.846C181.221 113.708 181.221 113.5 181.425 113.362L187.044 110.04C187.179 109.971 187.383 109.971 187.518 110.178C187.585 110.317 187.585 110.525 187.383 110.663L181.764 113.985C181.695 113.985 181.627 114.054 181.56 114.054ZM118.461 112.185C118.393 112.185 118.325 112.185 118.325 112.116L112.706 108.794C111.284 107.964 110.066 106.995 108.915 105.68C108.779 105.541 108.779 105.334 108.915 105.195C109.05 105.057 109.253 105.057 109.389 105.195C110.472 106.372 111.691 107.341 113.045 108.102L118.664 111.424C118.799 111.493 118.867 111.701 118.799 111.909C118.664 112.116 118.596 112.185 118.461 112.185ZM192.595 107.203C192.528 107.203 192.393 107.133 192.325 107.064C192.189 106.926 192.189 106.718 192.393 106.58C194.017 105.195 195.304 103.465 196.32 101.597C196.387 101.458 196.59 101.389 196.794 101.458C196.929 101.528 196.996 101.735 196.929 101.943C195.913 103.95 194.491 105.68 192.867 107.133C192.73 107.133 192.663 107.203 192.595 107.203ZM105.733 100.42C105.597 100.42 105.462 100.351 105.394 100.213C104.582 98.2054 104.243 96.1293 104.243 93.9147V93.6377C104.243 93.4301 104.379 93.2917 104.582 93.2917C104.785 93.2917 104.92 93.4301 104.92 93.6377V93.9147C104.92 95.9908 105.259 97.9978 106.003 99.9356C106.071 100.143 106.003 100.282 105.8 100.351C105.8 100.351 105.8 100.42 105.733 100.42ZM198.486 95.7832C198.418 95.7832 198.418 95.7832 198.486 95.7832C198.283 95.7832 198.147 95.5756 198.147 95.4371C198.214 94.9527 198.214 94.3991 198.214 93.8454V88.8625C198.214 88.6549 198.351 88.5164 198.553 88.5164C198.757 88.5164 198.892 88.6549 198.892 88.8625V93.8454C198.892 94.3991 198.892 94.9527 198.825 95.5064C198.757 95.714 198.621 95.7832 198.486 95.7832ZM104.582 87.3399C104.379 87.3399 104.243 87.2014 104.243 86.9938V80.4192C104.243 80.2116 104.379 80.0731 104.582 80.0731C104.785 80.0731 104.92 80.2116 104.92 80.4192V86.9938C104.92 87.1323 104.785 87.3399 104.582 87.3399ZM198.553 82.5645C198.351 82.5645 198.214 82.4262 198.214 82.2186V75.6438C198.214 75.4362 198.351 75.2977 198.553 75.2977C198.757 75.2977 198.892 75.4362 198.892 75.6438V82.2186C198.892 82.4262 198.688 82.5645 198.553 82.5645ZM104.582 74.1212C104.379 74.1212 104.243 73.9829 104.243 73.7753V67.1313C104.243 66.9236 104.379 66.7852 104.582 66.7852C104.785 66.7852 104.92 66.9236 104.92 67.1313V73.7059C104.92 73.9136 104.785 74.1212 104.582 74.1212ZM198.553 69.3459C198.351 69.3459 198.214 69.2075 198.214 68.9998V62.4251C198.214 62.2175 198.351 62.0791 198.553 62.0791C198.757 62.0791 198.892 62.2175 198.892 62.4251V68.9998C198.892 69.2075 198.688 69.3459 198.553 69.3459ZM104.582 60.9026C104.379 60.9026 104.243 60.7642 104.243 60.5565V57.9959C104.243 56.6117 104.379 55.2276 104.717 53.9126C104.785 53.705 104.92 53.6357 105.123 53.6357C105.326 53.705 105.394 53.8435 105.394 54.0511C105.123 55.2968 104.988 56.6117 104.988 57.9266V60.4872C104.92 60.695 104.785 60.9026 104.582 60.9026ZM198.418 56.2657C198.283 56.2657 198.079 56.1272 198.079 55.9887C197.809 53.8433 197.131 51.8363 196.048 49.8985C195.981 49.7602 195.981 49.5526 196.183 49.4141C196.32 49.3448 196.522 49.345 196.657 49.5526C197.742 51.5596 198.418 53.6357 198.757 55.9196C198.757 55.9889 198.621 56.1965 198.418 56.2657ZM107.696 48.376C107.628 48.376 107.561 48.376 107.493 48.3067C107.357 48.1683 107.29 47.9607 107.425 47.8224C108.712 46.023 110.336 44.4311 112.232 43.2546C112.368 43.1854 112.571 43.1854 112.706 43.393C112.774 43.5315 112.774 43.7391 112.571 43.8774C110.81 45.0541 109.186 46.5074 107.967 48.3067C107.899 48.3067 107.831 48.376 107.696 48.376ZM192.189 44.9848C192.121 44.9848 192.054 44.9848 191.986 44.9156C191.445 44.4311 190.768 43.9467 190.023 43.6006L186.502 41.5243C186.367 41.4552 186.3 41.2476 186.367 41.04C186.435 40.9015 186.637 40.8324 186.841 40.9015L190.362 42.9778C191.106 43.393 191.715 43.8776 192.393 44.3619C192.528 44.5004 192.595 44.708 192.46 44.8463C192.393 44.9156 192.325 44.9848 192.189 44.9848ZM118.055 40.6247C117.919 40.6247 117.851 40.5554 117.784 40.4171C117.716 40.2787 117.716 40.0711 117.919 39.9326L123.539 36.6106C123.674 36.5415 123.877 36.5415 124.012 36.7491C124.08 36.8875 124.08 37.0952 123.877 37.2336L118.258 40.5556C118.122 40.6247 118.122 40.6247 118.055 40.6247ZM181.086 38.2717C181.018 38.2717 180.951 38.2717 180.883 38.2024L175.264 34.8804C175.128 34.8113 175.06 34.6036 175.128 34.396C175.195 34.2576 175.399 34.1884 175.602 34.2576L181.221 37.5795C181.357 37.6488 181.425 37.8565 181.357 38.0641C181.357 38.2024 181.153 38.2717 181.086 38.2717ZM129.226 33.9808C129.09 33.9808 129.023 33.9117 128.955 33.7732C128.887 33.6347 128.887 33.4271 129.09 33.2887L134.71 29.9667C134.845 29.8975 135.048 29.8975 135.184 30.1052C135.251 30.2436 135.251 30.4512 135.048 30.5895L129.429 33.9117C129.293 33.9808 129.293 33.9808 129.226 33.9808ZM169.915 31.6969C169.848 31.6969 169.78 31.6969 169.711 31.6278L164.092 28.3058C163.957 28.2365 163.89 28.0289 163.957 27.8213C164.025 27.6829 164.227 27.6136 164.431 27.6829L170.05 31.0049C170.185 31.0741 170.254 31.2817 170.185 31.4893C170.118 31.5584 170.05 31.6969 169.915 31.6969ZM140.397 27.406C140.261 27.406 140.194 27.3369 140.126 27.1984C140.058 27.06 140.058 26.8523 140.261 26.714L143.105 25.053C144.053 24.4993 145.068 24.0149 146.016 23.6688C146.219 23.5997 146.354 23.6688 146.422 23.8764C146.49 24.0841 146.422 24.2225 146.219 24.2917C145.204 24.6377 144.256 25.1223 143.443 25.6067L140.6 27.2676C140.532 27.406 140.397 27.406 140.397 27.406ZM158.745 25.1223C158.676 25.1223 158.676 25.1223 158.608 25.1223C156.645 24.1534 154.681 23.6688 152.515 23.5304C152.313 23.5304 152.176 23.3228 152.176 23.1845C152.176 22.9768 152.313 22.8384 152.515 22.8384C154.75 22.9768 156.916 23.5304 158.88 24.4993C159.082 24.5686 159.15 24.7762 159.015 24.9838C158.947 24.9838 158.812 25.1223 158.745 25.1223Z" fill="#368741"/>
<path d="M151.567 129.418C149.875 129.418 148.115 129.141 146.558 128.588C146.354 128.519 146.287 128.311 146.354 128.172C146.422 127.965 146.625 127.896 146.761 127.965C148.792 128.657 150.891 128.864 152.989 128.657C153.192 128.657 153.328 128.795 153.328 129.003C153.328 129.211 153.192 129.349 152.989 129.349C152.583 129.349 152.041 129.418 151.567 129.418ZM159.15 127.55C159.015 127.55 158.88 127.48 158.88 127.342C158.812 127.204 158.88 126.996 159.015 126.857C159.217 126.719 159.421 126.65 159.691 126.511L164.566 123.674C164.701 123.605 164.905 123.605 165.04 123.812C165.108 123.951 165.108 124.158 164.905 124.297L160.03 127.134C159.828 127.273 159.556 127.411 159.286 127.48C159.286 127.55 159.217 127.55 159.15 127.55ZM140.871 125.681C140.803 125.681 140.735 125.681 140.668 125.612L135.048 122.29C134.913 122.221 134.845 122.013 134.913 121.805C134.98 121.667 135.184 121.598 135.387 121.667L141.006 124.989C141.141 125.058 141.209 125.266 141.141 125.473C141.074 125.612 140.938 125.681 140.871 125.681ZM170.322 120.906C170.185 120.906 170.118 120.836 170.05 120.698C169.983 120.56 169.983 120.352 170.185 120.214L175.806 116.892C175.941 116.822 176.143 116.822 176.28 117.03C176.347 117.169 176.347 117.376 176.143 117.514L170.524 120.836C170.524 120.906 170.389 120.906 170.322 120.906ZM129.7 119.106C129.632 119.106 129.564 119.106 129.564 119.037L123.945 115.715C123.809 115.646 123.742 115.438 123.809 115.231C123.877 115.023 124.08 115.023 124.283 115.092L129.903 118.414C130.038 118.483 130.106 118.691 130.038 118.899C129.903 119.037 129.835 119.106 129.7 119.106ZM181.56 114.331C181.425 114.331 181.357 114.262 181.29 114.123C181.221 113.985 181.221 113.777 181.425 113.639L187.044 110.317C187.179 110.248 187.383 110.248 187.518 110.455C187.585 110.594 187.585 110.801 187.383 110.94L181.764 114.262C181.695 114.331 181.627 114.331 181.56 114.331ZM118.461 112.462C118.393 112.462 118.325 112.462 118.325 112.393L112.706 109.071C111.284 108.241 110.066 107.272 108.915 105.957C108.779 105.818 108.779 105.611 108.915 105.472C109.05 105.334 109.253 105.334 109.389 105.472C110.472 106.649 111.691 107.618 113.045 108.379L118.664 111.701C118.799 111.77 118.867 111.978 118.799 112.185C118.664 112.393 118.596 112.462 118.461 112.462ZM192.595 107.479C192.528 107.479 192.393 107.41 192.325 107.341C192.189 107.203 192.189 106.995 192.393 106.857C194.017 105.472 195.304 103.742 196.32 101.874C196.387 101.735 196.59 101.666 196.794 101.735C196.929 101.804 196.996 102.012 196.929 102.22C195.913 104.227 194.491 105.957 192.867 107.41C192.73 107.479 192.663 107.479 192.595 107.479ZM105.733 100.697C105.597 100.697 105.462 100.628 105.394 100.489C104.582 98.4132 104.243 96.4061 104.243 94.1915V93.9148C104.243 93.7071 104.379 93.5687 104.582 93.5687C104.785 93.5687 104.92 93.7071 104.92 93.9148V94.1915C104.92 96.2678 105.259 98.2748 106.003 100.213C106.071 100.42 106.003 100.559 105.733 100.697C105.8 100.697 105.8 100.697 105.733 100.697ZM198.486 96.1293C198.418 96.1293 198.418 96.1293 198.486 96.1293C198.283 96.1293 198.147 95.9217 198.147 95.7833C198.214 95.2989 198.214 94.7452 198.214 94.1915V89.2085C198.214 89.0009 198.351 88.8626 198.553 88.8626C198.757 88.8626 198.892 89.0009 198.892 89.2085V94.1915C198.892 94.7452 198.892 95.2989 198.825 95.8526C198.757 95.9909 198.621 96.1293 198.486 96.1293ZM104.582 87.6167C104.379 87.6167 104.243 87.4784 104.243 87.2708V80.696C104.243 80.4884 104.379 80.35 104.582 80.35C104.785 80.35 104.92 80.4884 104.92 80.696V87.2708C104.92 87.4784 104.785 87.6167 104.582 87.6167ZM198.553 82.9106C198.351 82.9106 198.214 82.7723 198.214 82.5646V75.9899C198.214 75.7823 198.351 75.6439 198.553 75.6439C198.757 75.6439 198.892 75.7823 198.892 75.9899V82.5646C198.892 82.7723 198.688 82.9106 198.553 82.9106ZM104.582 74.3982C104.379 74.3982 104.243 74.2597 104.243 74.0521V67.4773C104.243 67.2697 104.379 67.1314 104.582 67.1314C104.785 67.1314 104.92 67.2697 104.92 67.4773V74.0521C104.92 74.2597 104.785 74.3982 104.582 74.3982ZM198.553 69.7612C198.351 69.7612 198.214 69.6228 198.214 69.4152V62.8405C198.214 62.6329 198.351 62.4945 198.553 62.4945C198.757 62.4945 198.892 62.6329 198.892 62.8405V69.4152C198.892 69.5536 198.688 69.7612 198.553 69.7612ZM104.582 61.2486C104.379 61.2486 104.243 61.1103 104.243 60.9027V58.342C104.243 56.9577 104.379 55.5736 104.717 54.2588C104.785 54.0512 104.92 53.9818 105.123 53.9818C105.326 54.0512 105.394 54.1895 105.394 54.3971C105.123 55.6429 104.988 56.9577 104.988 58.2727V60.9027C104.92 61.1103 104.785 61.2486 104.582 61.2486ZM198.418 56.5425C198.283 56.5425 198.079 56.4042 198.079 56.2657C197.809 54.1203 197.131 52.1133 196.048 50.1755C195.981 50.037 195.981 49.8294 196.183 49.691C196.32 49.6218 196.522 49.6218 196.657 49.8294C197.742 51.8364 198.418 53.9127 198.757 56.1966C198.757 56.3349 198.621 56.5425 198.418 56.5425ZM107.696 48.6529C107.628 48.6529 107.561 48.6529 107.493 48.5837C107.357 48.4453 107.29 48.2377 107.425 48.0992C108.712 46.2998 110.336 44.7081 112.232 43.5316C112.368 43.4623 112.571 43.4623 112.706 43.67C112.774 43.8083 112.774 44.0159 112.571 44.1544C110.81 45.3309 109.186 46.7842 107.967 48.5837C107.899 48.6529 107.831 48.6529 107.696 48.6529ZM192.189 45.3309C192.121 45.3309 192.054 45.3309 191.986 45.2618C191.445 44.7772 190.768 44.2929 190.023 43.9468L186.502 41.8705C186.367 41.8014 186.3 41.5937 186.367 41.3861C186.435 41.2477 186.637 41.1785 186.841 41.2477L190.362 43.324C191.106 43.7392 191.715 44.2236 192.393 44.7081C192.528 44.8466 192.595 45.0542 192.46 45.1925C192.393 45.3309 192.325 45.3309 192.189 45.3309ZM118.055 40.9016C117.919 40.9016 117.851 40.8324 117.784 40.694C117.716 40.5557 117.716 40.3481 117.919 40.2096L123.539 36.8876C123.674 36.8183 123.877 36.8183 124.012 37.0259C124.08 37.1644 124.08 37.372 123.877 37.5105L118.258 40.8324C118.122 40.9016 118.122 40.9016 118.055 40.9016ZM181.086 38.5485C181.018 38.5485 180.951 38.5485 180.883 38.4794L175.264 35.1574C175.128 35.0883 175.06 34.8807 175.128 34.6729C175.195 34.5346 175.399 34.4653 175.602 34.5346L181.221 37.8565C181.357 37.9257 181.425 38.1333 181.357 38.3409C181.357 38.4794 181.153 38.5485 181.086 38.5485ZM129.226 34.327C129.09 34.327 129.023 34.2577 128.955 34.1194C128.887 33.9809 128.887 33.7733 129.09 33.6348L134.71 30.3129C134.845 30.2437 135.048 30.2437 135.184 30.4513C135.251 30.5898 135.251 30.7974 135.048 30.9357L129.429 34.2577C129.293 34.327 129.293 34.327 129.226 34.327ZM169.915 31.9739C169.848 31.9739 169.78 31.9739 169.711 31.9046L164.092 28.5826C163.957 28.5135 163.89 28.3059 163.957 28.0983C164.025 27.9598 164.227 27.8906 164.431 27.9598L170.05 31.2818C170.185 31.3509 170.254 31.5585 170.185 31.7663C170.118 31.9046 170.05 31.9739 169.915 31.9739ZM140.397 27.683C140.261 27.683 140.194 27.6137 140.126 27.4754C140.058 27.337 140.058 27.1293 140.261 26.9909L143.105 25.33C144.053 24.7763 145.068 24.2918 146.016 23.9458C146.219 23.8765 146.354 23.9458 146.422 24.1535C146.49 24.3611 146.422 24.4994 146.219 24.5687C145.204 24.9146 144.256 25.3991 143.443 25.8835L140.6 27.5446C140.532 27.683 140.397 27.683 140.397 27.683ZM158.745 25.3991C158.676 25.3991 158.676 25.3991 158.608 25.3991C156.645 24.4302 154.681 23.9458 152.515 23.8074C152.313 23.8074 152.176 23.5998 152.176 23.4613C152.176 23.2537 152.313 23.1152 152.515 23.1152C154.75 23.2537 156.916 23.8074 158.88 24.7763C159.082 24.8454 159.15 25.0531 159.015 25.2607C158.947 25.33 158.812 25.3991 158.745 25.3991Z" fill="white"/>
<path d="M115.008 106.718L143.714 123.674C148.589 126.512 154.546 126.512 159.354 123.674L188.059 106.718C192.934 103.881 195.913 98.5518 195.913 92.8768V58.9651C195.913 53.2208 192.867 47.9611 188.059 45.1235L159.354 28.1676C154.479 25.3302 148.521 25.3302 143.714 28.1676L115.008 45.1235C110.133 47.9611 107.154 53.2901 107.154 58.9651V92.7384C107.222 98.5518 110.133 103.812 115.008 106.718Z" fill="#F1F2F2"/>
<path d="M151.567 126.166C148.792 126.166 145.948 125.405 143.511 123.951L114.805 106.995C109.862 104.089 106.748 98.6212 106.748 92.7385V58.896C106.748 53.0134 109.862 47.6151 114.805 44.6392L143.511 27.6833C145.948 26.23 148.724 25.4688 151.567 25.4688C154.344 25.4688 157.186 26.23 159.624 27.6833L188.331 44.6392C193.273 47.546 196.387 53.0134 196.387 58.896V92.7385C196.387 98.6212 193.273 104.019 188.331 106.995L159.624 123.951C157.119 125.405 154.344 126.166 151.567 126.166ZM151.567 26.3685C148.927 26.3685 146.287 27.1297 143.917 28.5138L115.143 45.4697C110.404 48.238 107.493 53.4978 107.493 59.0345V92.877C107.493 98.4829 110.404 103.673 115.143 106.442L143.849 123.398C146.151 124.782 148.792 125.543 151.5 125.543C154.14 125.543 156.781 124.782 159.15 123.398L187.857 106.442C192.595 103.673 195.507 98.4135 195.507 92.877V58.9652C195.507 53.3595 192.595 48.1688 187.857 45.4005L159.15 28.4446C156.849 27.1297 154.207 26.3685 151.567 26.3685Z" fill="#3E9E48"/>
<path d="M195.507 59.657C195.507 54.0513 192.596 48.8606 187.857 46.0923L159.15 29.2056C156.849 27.8215 154.208 27.0602 151.5 27.0602C148.86 27.0602 146.219 27.8215 143.85 29.2056L115.144 46.1615C110.404 48.9298 107.493 54.1896 107.493 59.7263C107.493 53.8437 109.863 48.4454 114.805 45.5387L143.511 28.5828C145.949 27.1295 148.657 26.3682 151.568 26.3682C154.344 26.3682 157.187 27.1295 159.624 28.5828L188.331 45.5387C193.137 48.3763 195.507 53.8437 195.507 59.657Z" fill="#D1D3D4"/>
<path d="M151.839 117.93C151.026 117.93 150.349 117.722 149.604 117.376L118.461 98.8978C117.107 98.0674 116.227 96.6139 116.227 95.0222V58.3422C116.227 56.7505 117.107 55.2279 118.461 54.4666L149.672 35.9881C151.026 35.1576 152.787 35.1576 154.14 35.9881L182.575 52.8748C183.523 53.5668 183.997 54.5357 184.065 55.6431C184.132 56.8888 183.591 58.0653 182.508 58.9651L169.441 66.7855C169.035 67.0623 168.426 67.2008 167.952 67.2699C167.613 67.2699 167.139 67.3392 166.801 67.2699C166.056 67.2699 165.312 67.0623 164.634 66.5779L153.87 60.2108C152.787 59.5188 151.365 59.5188 150.282 60.2108L139.246 66.7164C138.095 67.4084 137.485 68.6541 137.485 69.969V83.1186C137.485 84.4334 138.23 85.6793 139.246 86.3713L150.282 92.8767C151.365 93.5689 152.787 93.5689 153.87 92.8767L164.634 86.5097C165.312 86.1636 166.056 85.956 166.801 85.8176C167.139 85.8176 167.613 85.8176 167.952 85.8176C168.426 85.8869 169.035 86.0252 169.441 86.3021L182.508 94.1226C183.591 95.0222 184.2 96.268 184.132 97.5137C184.065 98.6211 183.591 99.6591 182.643 100.282L182.508 100.351L154.207 117.169C153.396 117.722 152.65 117.93 151.839 117.93ZM151.839 36.1265C151.161 36.1265 150.552 36.265 149.943 36.6109L118.799 54.951C117.648 55.6431 116.904 56.8888 116.904 58.2729V94.953C116.904 96.268 117.648 97.5137 118.799 98.275L150.01 116.684C151.161 117.376 152.583 117.376 153.733 116.684L181.966 99.8667C182.779 99.3131 183.253 98.4826 183.253 97.5137C183.321 96.4756 182.847 95.5067 181.899 94.8146L168.9 87.0634C168.561 86.8558 168.087 86.7173 167.68 86.7173C167.343 86.7173 166.936 86.7173 166.597 86.7173C165.921 86.7173 165.312 86.9249 164.838 87.2017L154.072 93.5689C152.787 94.3993 151.026 94.3993 149.74 93.5689L138.704 87.0634C137.35 86.2328 136.537 84.7795 136.537 83.2569V70.1075C136.537 68.5157 137.418 66.9931 138.704 66.301L149.74 59.7955C151.026 58.9651 152.787 58.9651 154.072 59.7955L164.838 66.1627C165.379 66.4395 166.056 66.6471 166.597 66.6471C166.936 66.6471 167.343 66.6471 167.68 66.6471C168.087 66.6471 168.561 66.5086 168.9 66.301L181.966 58.4805C182.847 57.7885 183.321 56.8196 183.253 55.8507C183.184 54.8818 182.779 54.1205 181.966 53.4977L181.899 53.4285L153.802 36.6802C153.124 36.265 152.515 36.1265 151.839 36.1265Z" fill="#C9C9C9"/>
<path d="M136.876 82.357V69.3461C136.876 67.8926 137.688 66.5778 138.907 65.8165L149.943 59.311C151.161 58.5497 152.65 58.5497 153.87 59.311L164.701 65.678C165.244 66.0241 165.988 66.2317 166.732 66.2317C167.071 66.2317 167.545 66.2317 167.817 66.2317C168.291 66.1626 168.765 66.0241 169.17 65.8165L182.169 57.9267C184.269 56.2658 184.065 53.5667 182.169 52.2517L153.87 35.4343C152.583 34.673 151.093 34.673 149.807 35.4343L118.664 53.9128C117.378 54.6741 116.633 56.0582 116.633 57.5115V94.1916C116.633 95.645 117.445 97.0292 118.664 97.7903L149.875 116.2C151.161 116.961 152.65 116.961 153.937 116.2L182.238 99.3822C184.132 98.1364 184.336 95.4373 182.238 93.7072L169.17 85.8867C168.765 85.6791 168.291 85.5407 167.817 85.4714C167.478 85.4714 167.071 85.4714 166.732 85.4714C165.988 85.4714 165.379 85.679 164.701 86.025L153.87 92.3922C152.65 93.1535 151.161 93.1535 149.943 92.3922L138.907 85.8867C137.688 85.1254 136.876 83.8105 136.876 82.357Z" fill="url(#paint4_radial_2080_35)"/>
<defs>
<radialGradient id="paint0_radial_2080_35" cx="0" cy="0" r="1" gradientUnits="userSpaceOnUse" gradientTransform="translate(151.518 75.8986) scale(70.9257 72.5018)">
<stop offset="0.601" stop-color="#42B659"/>
<stop offset="0.9901" stop-color="#3CA852"/>
</radialGradient>
<radialGradient id="paint1_radial_2080_35" cx="0" cy="0" r="1" gradientUnits="userSpaceOnUse" gradientTransform="translate(151.482 75.895) scale(70.9368 72.5132)">
<stop offset="0.0246305" stop-color="#42B659"/>
<stop offset="0.9803" stop-color="#33984A"/>
</radialGradient>
<radialGradient id="paint2_radial_2080_35" cx="0" cy="0" r="1" gradientUnits="userSpaceOnUse" gradientTransform="translate(151.554 75.8948) scale(66.6265 68.1071)">
<stop offset="0.0246305" stop-color="#E6E7E8"/>
<stop offset="0.9803" stop-color="#E6E7E8"/>
</radialGradient>
<linearGradient id="paint3_linear_2080_35" x1="151.623" y1="131.858" x2="151.623" y2="19.929" gradientUnits="userSpaceOnUse">
<stop stop-color="#34994A"/>
<stop offset="1" stop-color="#24803D"/>
</linearGradient>
<radialGradient id="paint4_radial_2080_35" cx="0" cy="0" r="1" gradientUnits="userSpaceOnUse" gradientTransform="translate(150.141 75.8569) scale(36.8643 37.6835)">
<stop offset="0.7143" stop-color="#42B659"/>
<stop offset="0.9852" stop-color="#3EAF56"/>
</radialGradient>
</defs>
</svg>
