<svg width="48" height="48" viewBox="0 0 48 48" fill="none" xmlns="http://www.w3.org/2000/svg">
<path d="M21.0092 2.71972C22.8609 1.65497 25.1391 1.65498 26.9908 2.71973L40.9908 10.7697C42.8524 11.8401 44 13.8238 44 15.9712V32.0288C44 34.1762 42.8524 36.1599 40.9908 37.2303L26.9908 45.2803C25.1391 46.345 22.8609 46.345 21.0092 45.2803L7.00917 37.2303C5.1476 36.1599 4 34.1762 4 32.0288V15.9712C4 13.8238 5.1476 11.8401 7.00917 10.7697L21.0092 2.71972Z" stroke="#146EF5" stroke-width="1.5"/>
<path d="M9.82198 15.3335L22.6217 8.7129C23.4862 8.26577 24.5138 8.26577 25.3783 8.7129L38.178 15.3335C38.3132 15.4034 38.3132 15.5966 38.178 15.6665L25.3783 22.2871C24.5138 22.7342 23.4862 22.7342 22.6217 22.2871L9.82198 15.6665C9.68683 15.5966 9.68684 15.4034 9.82198 15.3335Z" stroke="white" stroke-width="1.5" stroke-linecap="round" stroke-linejoin="round"/>
<path d="M9.5 20V20C9.5 20.5055 9.77231 20.9718 10.2126 21.2203L23.0171 28.4454C23.6272 28.7896 24.3728 28.7896 24.9829 28.4454L37.7874 21.2203C38.2277 20.9718 38.5 20.5055 38.5 20V20" stroke="#898989" stroke-width="1.5" stroke-linecap="round" stroke-linejoin="round"/>
<path d="M38.5 25.5V25.5C38.5 26.0055 38.2277 26.4718 37.7874 26.7203L24.9829 33.9454C24.3728 34.2896 23.6272 34.2896 23.0171 33.9454L10.2126 26.7203C9.77231 26.4718 9.5 26.0055 9.5 25.5V25.5" stroke="#898989" stroke-width="1.5" stroke-linecap="round" stroke-linejoin="round"/>
<path d="M9.5 31V31C9.5 31.5055 9.77231 31.9718 10.2126 32.2203L23.0171 39.4454C23.6272 39.7896 24.3728 39.7896 24.9829 39.4454L37.7874 32.2203C38.2277 31.9718 38.5 31.5055 38.5 31V31" stroke="#898989" stroke-width="1.5" stroke-linecap="round" stroke-linejoin="round"/>
</svg>
