<svg width="48" height="48" viewBox="0 0 48 48" fill="none" xmlns="http://www.w3.org/2000/svg">
<path d="M19 11.75C19 11.3358 19.3358 11 19.75 11H28.25C28.6642 11 29 11.3358 29 11.75V15H19V11.75Z" stroke="#898989" stroke-width="1.5"/>
<path d="M8 42C4.68629 42 2 39.3137 2 36L2 12C2 8.6863 4.68629 6 8 6L40 6C43.3137 6 46 8.68629 46 12L46 36C46 39.3137 43.3137 42 40 42L8 42Z" stroke="#146EF5" stroke-width="1.5"/>
<path d="M8 16.5C8 15.6716 8.67157 15 9.5 15H38.5C39.3284 15 40 15.6716 40 16.5V33.5C40 34.3284 39.3284 35 38.5 35H9.5C8.67157 35 8 34.3284 8 33.5V16.5Z" stroke="white" stroke-width="1.5"/>
<path d="M14 15V35M34 15V35" stroke="#898989" stroke-width="1.5"/>
</svg>
