<svg width="48" height="48" viewBox="0 0 48 48" fill="none" xmlns="http://www.w3.org/2000/svg">
<path d="M10.1332 4.19287L5.48709 9.65045C4.52716 10.778 4 12.2105 4 13.6913V39.7662C4 43.209 6.79095 46 10.2338 46H37.7662C41.209 46 44 43.209 44 39.7662V13.6913C44 12.2105 43.4728 10.778 42.5129 9.65045L37.8668 4.19287C36.6824 2.8016 34.9473 2 33.1201 2H14.8799C13.0527 2 11.3176 2.8016 10.1332 4.19287Z" stroke="#146EF5" stroke-width="1.5"/>
<path d="M12 26V40H36V26" stroke="#898989" stroke-width="1.5" stroke-linecap="round" stroke-linejoin="round"/>
<path d="M24 8.96313V19.398" stroke="white" stroke-width="1.5" stroke-linejoin="round"/>
<path d="M19.6521 8.96338L16.7336 16.2597C16.3638 17.1841 16.1738 18.1706 16.1738 19.1663V19.833" stroke="white" stroke-width="1.5" stroke-linejoin="round"/>
<path d="M28.3479 8.96313L31.2664 16.2595C31.6362 17.1839 31.8262 18.1704 31.8262 19.166V19.8328" stroke="white" stroke-width="1.5" stroke-linejoin="round"/>
<path d="M16.164 18.8072L16.9122 18.8598L16.164 18.8072ZM31.8164 18.8071L31.0683 18.7544L31.8164 18.8071ZM31.8356 18.8071L31.0875 18.8597L31.8356 18.8071ZM38.799 16.0894L39.3852 15.6215L38.799 16.0894ZM38.7672 15.9976L39.3598 15.538L38.7672 15.9976ZM16.1835 18.8072L15.4354 18.8598L16.1835 18.8072ZM33.6336 9.37812L33.0409 9.83774L33.0409 9.83774L33.6336 9.37812ZM23.9901 18.8073L24.7382 18.86L23.9901 18.8073ZM24.0098 18.8073L24.758 18.7546L24.0098 18.8073ZM9.23186 16.0027L8.64332 15.5378L9.23186 16.0027ZM13.8845 8.90269L8.64332 15.5378L9.82039 16.4676L15.0616 9.83247L13.8845 8.90269ZM32.4483 8.04736H15.6501V9.54736H32.4483V8.04736ZM39.3598 15.538L34.2263 8.9185L33.0409 9.83774L38.1745 16.4572L39.3598 15.538ZM38.2129 16.5572C38.6445 17.0981 38.902 17.7822 38.902 18.5285H40.402C40.402 17.4301 40.0213 16.4185 39.3852 15.6215L38.2129 16.5572ZM38.902 18.5285C38.902 20.2754 37.4859 21.6916 35.739 21.6916V23.1916C38.3143 23.1916 40.402 21.1038 40.402 18.5285H38.902ZM35.739 21.6916C34.0681 21.6916 32.6992 20.3955 32.5838 18.7544L31.0875 18.8597C31.2578 21.2808 33.2749 23.1916 35.739 23.1916V21.6916ZM31.0683 18.7544C30.9528 20.3955 29.584 21.6916 27.9131 21.6916V23.1916C30.3772 23.1916 32.3943 21.2808 32.5646 18.8597L31.0683 18.7544ZM27.9131 21.6916C26.2423 21.6916 24.8735 20.3956 24.758 18.7546L23.2617 18.86C23.4321 21.281 25.4492 23.1916 27.9131 23.1916V21.6916ZM20.0868 23.1916C22.5508 23.1916 24.5678 21.281 24.7382 18.86L23.2419 18.7546C23.1264 20.3956 21.7576 21.6916 20.0868 21.6916V23.1916ZM15.4354 18.8598C15.6057 21.2809 17.6228 23.1916 20.0868 23.1916V21.6916C18.4159 21.6916 17.0471 20.3956 16.9317 18.7545L15.4354 18.8598ZM12.2607 23.1916C14.7247 23.1916 16.7418 21.2809 16.9122 18.8598L15.4159 18.7545C15.3004 20.3956 13.9316 21.6916 12.2607 21.6916V23.1916ZM7.59766 18.5285C7.59766 21.1038 9.68538 23.1916 12.2607 23.1916V21.6916C10.5138 21.6916 9.09766 20.2754 9.09766 18.5285H7.59766ZM8.61637 15.6191C7.97914 16.4165 7.59766 17.429 7.59766 18.5285H9.09766C9.09766 17.7814 9.35571 17.0967 9.78813 16.5556L8.61637 15.6191ZM16.1738 18.048C15.7697 18.048 15.4435 18.3618 15.4159 18.7545L16.9122 18.8598C16.8853 19.2423 16.5676 19.548 16.1738 19.548V18.048ZM31.826 18.048C31.422 18.048 31.0959 18.3617 31.0683 18.7544L32.5646 18.8597C32.5377 19.2423 32.2199 19.548 31.826 19.548V18.048ZM32.5838 18.7544C32.5562 18.3617 32.2301 18.048 31.826 18.048V19.548C31.4321 19.548 31.1144 19.2423 31.0875 18.8597L32.5838 18.7544ZM38.0327 16.0428C38.0327 16.2323 38.0978 16.4131 38.2129 16.5572L39.3852 15.6215C39.4791 15.7392 39.5327 15.8873 39.5327 16.043L38.0327 16.0428ZM38.1745 16.4572C38.0826 16.3387 38.0327 16.1929 38.0327 16.0428L39.5327 16.043C39.5327 15.8601 39.4719 15.6825 39.3598 15.538L38.1745 16.4572ZM16.9317 18.7545C16.904 18.3618 16.5778 18.048 16.1738 18.048V19.548C15.7799 19.548 15.4623 19.2423 15.4354 18.8598L16.9317 18.7545ZM32.4483 9.54736C32.6801 9.54736 32.8989 9.65456 33.0409 9.83774L34.2263 8.9185C33.8001 8.36895 33.1437 8.04736 32.4483 8.04736V9.54736ZM15.0616 9.83247C15.2038 9.65241 15.4206 9.54736 15.6501 9.54736V8.04736C14.9617 8.04736 14.3112 8.3625 13.8845 8.90269L15.0616 9.83247ZM24 18.048C23.5958 18.048 23.2696 18.3618 23.2419 18.7546L24.7382 18.86C24.7113 19.2424 24.3937 19.548 24 19.548V18.048ZM8.46727 16.0447C8.46727 15.8877 8.52128 15.7381 8.61637 15.6191L9.78813 16.5556C9.90259 16.4124 9.96727 16.2328 9.96727 16.0447H8.46727ZM24.758 18.7546C24.7303 18.3618 24.4041 18.048 24 18.048V19.548C23.6062 19.548 23.2886 19.2424 23.2617 18.86L24.758 18.7546ZM9.96727 16.0447C9.96727 16.1982 9.91553 16.3472 9.82039 16.4676L8.64332 15.5378C8.5293 15.6822 8.46727 15.8608 8.46727 16.0447H9.96727Z" fill="white"/>
</svg>
