<svg width="48" height="48" viewBox="0 0 48 48" fill="none" xmlns="http://www.w3.org/2000/svg">
<path d="M25 12H9.5C8.67157 12 8 12.6716 8 13.5V34.5C8 35.3284 8.67157 36 9.5 36H38.5C39.3284 36 40 35.3284 40 34.5V26.625" stroke="white" stroke-width="1.5" stroke-linejoin="round"/>
<path d="M8 16L25 16" stroke="white" stroke-width="1.5"/>
<path d="M28.8125 12H39.7734V22.9609" stroke="#898989" stroke-width="1.5"/>
<path d="M39.7734 12L25 26.7734" stroke="#898989" stroke-width="1.5"/>
<path d="M2 12C2 8.68629 4.68629 6 8 6H40C43.3137 6 46 8.68629 46 12V36C46 39.3137 43.3137 42 40 42H8C4.68629 42 2 39.3137 2 36V12Z" stroke="#146EF5" stroke-width="1.5"/>
</svg>
