<svg width="504" height="76" viewBox="0 0 504 76" fill="none" xmlns="http://www.w3.org/2000/svg">
<path d="M56.8494 1.39309C63.9672 -0.0130547 71.5881 -0.527098 78.4882 2.13015C81.8499 3.55805 85.1409 5.55711 87.2569 8.61689C90.4554 12.8843 90.9422 18.5877 90.3031 23.72C88.6821 33.4542 83.2697 42.1059 76.7802 49.3596C73.5137 52.724 70.3016 56.2081 66.4721 58.9496C66.4531 53.8582 66.211 48.7531 66.5129 43.6698C68.2237 41.1811 70.5709 39.2066 72.3061 36.7315C76.122 31.5775 79.5544 25.749 80.1337 19.2214C80.5254 16.4635 79.8291 13.6077 78.3468 11.266C76.19 8.09197 72.4448 6.43017 68.735 5.9542C61.707 4.80644 54.6682 6.78646 48.1515 9.29141C36.9677 13.8716 26.8309 20.9539 18.6416 29.8368C14.0125 34.8821 10.047 40.7541 8.1921 47.4068C7.59919 49.9688 7.19938 52.656 7.71342 55.2697C8.18939 57.5734 9.96542 59.7765 12.4051 60.0512C16.4875 60.8834 20.2871 58.6858 23.4856 56.4365C29.7711 51.5137 34.9251 45.3397 39.9377 39.1739C46.0573 31.4007 51.9021 23.3963 57.1269 14.9894C57.1867 31.8495 57.1867 48.7069 57.1269 65.5669C46.8705 71.3873 35.4174 75.9892 23.4339 75.7309C16.8112 75.7771 9.76687 73.6828 5.29007 68.5587C2.22757 65.2759 1.13965 60.674 1.00366 56.306C0.892144 49.8192 3.34541 43.6018 6.42423 38.0044C12.0597 28.4089 20.0994 20.3665 29.17 13.994C37.498 8.12189 46.865 3.58253 56.8494 1.39309Z" fill="white" stroke="white" stroke-width="0.0254982"/>
<path d="M196.756 19.1969C202.155 12.2614 211.59 9.57962 220.07 10.7111C224.61 11.323 229.081 13.0936 232.397 16.3302C236.514 20.3256 238.649 25.9964 239.204 31.6264C234.736 31.6536 230.27 31.6563 225.806 31.6373C224.991 28.8685 224.104 25.8849 221.618 24.1279C217.383 21.5658 211.315 22.36 208.038 26.1324C206.199 28.1015 205.34 30.7696 205 33.3943C204.736 37.1857 204.461 41.1675 205.824 44.7984C206.901 47.5971 208.609 50.3849 211.378 51.772C215.836 54.1029 221.506 53.8771 225.777 51.2117C229.584 48.8264 232.47 45.2363 234.76 41.4231C241.021 31.455 247.225 21.4516 253.535 11.5161C259.878 11.5134 266.22 11.508 272.565 11.5243C272.574 29.1976 272.574 46.8709 272.565 64.5469C268.127 64.5578 263.693 64.5632 259.257 64.5496C259.244 61.3131 259.249 58.0792 259.154 54.8481C253.127 54.7747 247.089 54.5951 241.067 54.8454C238.745 56.5616 237.007 58.9632 234.575 60.5597C230.553 63.3475 225.763 65.0011 220.884 65.3411C213.649 66.1407 205.919 64.6231 200.121 60.0429C196.199 57.0294 193.62 52.5607 192.171 47.8908C189.576 38.3144 190.43 27.1822 196.756 19.1969ZM247.244 44.1429C251.242 44.1674 255.238 44.1592 259.238 44.1484C259.222 37.765 259.328 31.3789 259.151 24.9982C255.047 31.2918 251.223 37.7677 247.244 44.1429Z" fill="white" stroke="white" stroke-width="0.0254982"/>
<path d="M426.896 10.5452C434.742 9.9985 443.024 12.5361 448.491 18.3673C454.08 24.3455 455.949 32.9102 455.342 40.8874C454.861 48.9053 450.977 57.0539 444.009 61.3811C435.795 66.4889 424.954 66.8561 416.204 62.8906C411.569 60.6495 407.648 56.9043 405.3 52.316C402.523 47.2898 401.903 41.3688 402.061 35.7197C402.436 28.8549 405.148 21.9983 410.172 17.206C414.719 13.0556 420.79 10.8552 426.896 10.5452ZM426.904 22.8061C423.259 23.0944 419.911 25.2539 418.122 28.4252C415.687 32.7633 415.519 38.0316 416.413 42.8266C416.987 46.0767 418.565 49.3079 421.364 51.2009C425.076 53.9043 430.173 53.8771 434.321 52.2453C438.613 50.4203 440.938 45.783 441.346 41.3252C441.792 36.1875 441.463 30.3291 437.859 26.2711C435.109 23.3065 430.818 22.2295 426.904 22.8061Z" fill="white" stroke="white" stroke-width="0.0254982"/>
<path d="M105.58 11.5216C112.38 11.5297 119.176 11.478 125.979 11.5216C133.692 11.5624 141.688 14.6956 146.366 21.03C149.521 25.3246 151.091 30.5956 151.403 35.8774C151.76 41.5319 150.797 47.3686 148.069 52.3785C145.637 56.6132 141.906 60.168 137.391 62.0991C133.088 64.1661 128.228 64.5224 123.528 64.5578C117.545 64.5795 111.561 64.5415 105.58 64.5469C105.572 46.8736 105.569 29.1976 105.58 11.5216ZM119.236 23.0155C119.084 32.9618 119.212 42.9108 119.179 52.8599C121.975 52.8681 124.777 52.9741 127.573 52.7511C130.861 52.4003 133.972 50.3822 135.457 47.3985C137.622 43.7513 137.851 39.3017 137.432 35.1839C137.065 31.5339 135.781 27.7044 132.784 25.379C128.984 22.3681 123.757 22.9175 119.236 23.0155Z" fill="white" stroke="white" stroke-width="0.0254982"/>
<path d="M154.537 11.5217C166.474 11.5543 178.411 11.4238 190.346 11.5897C190.463 15.3702 190.444 19.1534 190.43 22.934C182.997 22.9557 175.564 22.9231 168.13 22.9449C168.125 26.2059 168.125 29.4642 168.133 32.728C174.658 32.7416 181.185 32.7198 187.713 32.7334C187.713 36.2665 187.721 39.8022 187.71 43.3353C181.183 43.3489 174.655 43.3271 168.128 43.3407C168.125 46.512 168.128 49.6806 168.13 52.8519C175.536 52.9062 182.942 52.7648 190.348 52.9307C190.471 56.7738 190.468 60.6196 190.359 64.4654C178.419 64.6613 166.477 64.5062 154.537 64.547C154.529 46.871 154.526 29.1977 154.537 11.5217Z" fill="white" stroke="white" stroke-width="0.0254982"/>
<path d="M276.109 11.5189C289.526 11.5134 302.94 11.5134 316.357 11.5189C316.363 15.3239 316.365 19.1289 316.357 22.9366C311.913 22.9448 307.474 22.9339 303.036 22.942C303.019 36.8131 303.044 50.6813 303.03 64.5496C298.496 64.5578 293.968 64.5605 289.439 64.5469C289.42 50.6786 289.445 36.8103 289.431 22.942C284.987 22.9339 280.548 22.9448 276.109 22.9366C276.099 19.1289 276.099 15.3239 276.109 11.5189Z" fill="white" stroke="white" stroke-width="0.0254982"/>
<path d="M319.626 11.5188C324.155 11.508 328.683 11.508 333.215 11.5216C333.236 18.2259 333.206 24.9329 333.228 31.6372C339.388 31.6508 345.549 31.6481 351.715 31.6372C351.731 24.9329 351.701 18.2259 351.723 11.5188C356.249 11.508 360.78 11.508 365.311 11.5216C365.319 29.1976 365.319 46.8709 365.311 64.5469C360.78 64.5605 356.251 64.5605 351.726 64.5469C351.666 57.4156 351.807 50.2842 351.655 43.1556C345.541 43.0033 339.424 43.0169 333.312 43.142C333.119 50.2734 333.272 57.4101 333.217 64.5469C328.713 64.5469 324.212 64.6176 319.711 64.4898C319.509 46.8328 319.675 29.1758 319.626 11.5188Z" fill="white" stroke="white" stroke-width="0.0254982"/>
<path d="M369.129 11.5217C373.655 11.5081 378.186 11.5081 382.718 11.5217C382.777 25.3601 382.628 39.2011 382.788 53.0422C389.653 53.2272 396.523 53.083 403.394 53.1347C403.402 56.9125 403.421 60.6876 403.32 64.4654C391.924 64.6613 380.525 64.509 369.129 64.547C369.119 46.871 369.119 29.1977 369.129 11.5217Z" fill="white" stroke="white" stroke-width="0.0254982"/>
<path d="M458.611 11.5243C463.292 11.5053 467.976 11.489 472.659 11.5542C478.46 21.1851 484.218 30.8458 490.082 40.4413C490.248 30.8023 490.104 21.1606 490.161 11.5189C494.505 11.5107 498.856 11.508 503.208 11.5189C503.211 29.1949 503.216 46.8709 503.205 64.547C498.772 64.5578 494.344 64.5687 489.919 64.5415C483.884 54.4347 477.908 44.2925 471.71 34.2891C471.593 44.3741 471.699 54.4619 471.655 64.5497C467.304 64.5578 462.955 64.5605 458.609 64.5497C458.603 46.8736 458.6 29.2003 458.611 11.5243Z" fill="white" stroke="white" stroke-width="0.0254982"/>
</svg>
