<svg width="207" height="41" viewBox="0 0 207 41" fill="none" xmlns="http://www.w3.org/2000/svg">
<path fill-rule="evenodd" clip-rule="evenodd" d="M17.7837 27.8624L23.523 33.7293L18.7353 38.8308C17.1827 40.4853 14.6651 40.4853 13.1125 38.8308L1.1644 26.0998C-0.388134 24.445 -0.388134 21.7629 1.1644 20.1086C2.71743 18.4544 5.23459 18.4544 6.7871 20.1086L15.9239 29.8441L17.7837 27.8624ZM19.2756 26.2728L24.3589 20.8563L29.9812 26.8475L25.3004 31.8352L19.2756 26.2728Z" fill="white"/>
<path fill-rule="evenodd" clip-rule="evenodd" d="M42.2772 31.7231L36.2864 26.124L50.3644 11.1237C51.9168 9.46943 54.434 9.46943 55.987 11.1237C57.5397 12.778 57.5397 15.4601 55.987 17.1149L42.2772 31.7231ZM40.4142 33.7084L35.6063 38.8311C34.0533 40.4852 31.5361 40.4852 29.9836 38.8311L9.60094 17.1127C8.04839 15.4579 8.04839 12.7759 9.60094 11.1216C11.1535 9.4668 13.6706 9.4668 15.2236 11.1216L32.795 29.8444L34.7711 27.7385L40.4142 33.7084Z" fill="white"/>
<path fill-rule="evenodd" clip-rule="evenodd" d="M33.6386 24.7483L39.2347 18.7293L49.6643 29.8423L58.7988 20.109C60.3518 18.4547 62.8691 18.4547 64.4217 20.109C65.9741 21.7638 65.9741 24.4459 64.4217 26.1001L52.4756 38.829C50.9229 40.4834 48.4059 40.4834 46.8533 38.829L33.6386 24.7483ZM31.3202 22.2781L18.0355 8.12296C16.483 6.46869 16.483 3.7866 18.0355 2.13233C19.5885 0.477536 22.1057 0.477536 23.6582 2.13233L36.9568 16.3022L31.3202 22.2781Z" fill="white"/>
<path fill-rule="evenodd" clip-rule="evenodd" d="M47.5515 2.13548C45.9988 0.481209 43.4819 0.481209 41.9289 2.13548L24.3594 20.8561L29.9821 26.8473L47.5515 8.12663C49.1039 6.47184 49.1039 3.78974 47.5515 2.13548Z" fill="white"/>
<path fill-rule="evenodd" clip-rule="evenodd" d="M86.1684 5.05851H81.2793V35.66H99.1929V31.0385H86.1684V5.05851ZM109.774 14.2598C112.747 14.2598 114.742 15.5504 115.837 17.1325L116.072 14.6761H120.296V35.66H116.072L115.837 33.2035C114.742 34.7857 112.747 36.0763 109.774 36.0763C104.416 36.0763 100.778 31.4549 100.778 25.168C100.778 18.8396 104.416 14.2598 109.774 14.2598ZM110.791 18.673C107.74 18.673 105.55 21.2127 105.55 25.168C105.55 29.1233 107.74 31.663 110.791 31.663C113.138 31.663 114.546 30.3307 115.602 28.5404V21.7956C114.546 20.0053 113.138 18.673 110.791 18.673ZM132.129 7.63984H127.435V14.6761H123.719V18.9228H127.435V28.249C127.435 33.3285 130.29 36.0763 134.789 36.0763C136.744 36.0763 138.191 35.4933 139.169 34.8272L137.918 30.9136C137.331 31.2883 136.47 31.5798 135.219 31.5798C133.38 31.5798 132.129 30.3307 132.129 28.2073V18.9228H138.074V14.6761H132.129V7.63984ZM148.303 7.63984H143.61V14.6761H139.894V18.9228H143.61V28.249C143.61 33.3285 146.465 36.0763 150.963 36.0763C152.919 36.0763 154.366 35.4933 155.344 34.8272L154.092 30.9136C153.505 31.2883 152.645 31.5798 151.393 31.5798C149.555 31.5798 148.303 30.3307 148.303 28.2073V18.9228H154.248V14.6761H148.303V7.63984ZM163.187 14.6761H158.494V35.66H163.187V14.6761ZM160.84 4.89197C159.197 4.89197 157.946 6.18262 157.946 7.97292C157.946 9.76322 159.197 11.0539 160.84 11.0539C162.522 11.0539 163.774 9.76322 163.774 7.97292C163.774 6.18262 162.522 4.89197 160.84 4.89197ZM177.367 14.2598C171.304 14.2598 167.276 18.8396 167.276 25.168C167.276 31.4549 171.343 36.0763 177.406 36.0763C180.965 36.0763 183.664 34.3692 185.424 31.4549L182.061 28.6653C181.122 30.3307 179.596 31.7047 177.445 31.7047C173.964 31.7047 172.047 28.8319 172.047 25.168C172.047 21.4626 173.886 18.6314 177.406 18.6314C179.596 18.6314 181.044 19.9637 181.943 21.6291L185.346 18.8812C183.586 15.9668 180.965 14.2598 177.367 14.2598ZM196.905 14.2598C202.968 14.2598 205.94 19.0894 205.94 24.9599V26.7085H192.016C192.133 30.0393 194.011 31.8712 197.296 31.8712C199.604 31.8712 201.286 30.7887 202.185 29.4564L205.432 32.2876C203.476 34.7857 200.895 36.0763 197.257 36.0763C191.155 36.0763 187.244 31.4965 187.244 25.2097C187.244 18.8812 191.234 14.2598 196.905 14.2598ZM196.827 18.2567C194.05 18.2567 192.172 20.2135 192.016 23.1279H201.325C201.208 20.2552 199.643 18.2567 196.827 18.2567Z" fill="white"/>
</svg>
