<svg width="146" height="41" viewBox="0 0 146 41" fill="none" xmlns="http://www.w3.org/2000/svg">
<g clip-path="url(#clip0_962_79285)">
<mask id="mask0_962_79285" style="mask-type:luminance" maskUnits="userSpaceOnUse" x="0" y="0" width="146" height="41">
<path d="M145.094 0H0V40.6261H145.094V0Z" fill="white"/>
</mask>
<g mask="url(#mask0_962_79285)">
<path d="M53.351 10.1055V13.8803H43.1856V17.9877H52.5412V21.7895H43.1856V29.7104H38.3037V10.1055H53.351Z" fill="white"/>
<path d="M56.4463 10.0796H60.6647V13.4059H56.4463V10.0796ZM56.4463 15.19H60.6647V29.7114H56.4463V15.19Z" fill="white"/>
<path d="M62.7442 15.2176H67.2448C69.0239 21.6585 69.3296 22.9773 69.7999 25.7491C70.3813 22.5286 70.4652 22.1691 71.3304 18.7538L72.2174 15.2007H76.6051L71.9116 29.6953H67.4396L62.7442 15.2176Z" fill="white"/>
<path d="M92.1682 26.0137C91.6763 26.805 91.0879 27.5341 90.4162 28.1809C88.9195 29.535 86.9636 30.2707 84.9462 30.237C80.639 30.237 77.6132 27.4652 77.6132 22.7378C77.6132 19.2402 79.3368 14.7397 85.0571 14.7397C87.0109 14.6792 88.9021 15.4334 90.2783 16.8245C92.1682 18.8539 92.2792 21.6845 92.3343 23.3208H81.9812C81.9543 25.1284 82.9787 26.9293 85.3075 26.9293C87.6355 26.9293 88.4436 25.3989 88.9711 24.3741L92.1682 26.0137ZM87.9162 20.6547C87.8814 19.9005 87.5984 19.1781 87.1131 18.5986C86.5472 18.0726 85.8015 17.7854 85.0288 17.7956C84.2055 17.7921 83.4205 18.1348 82.8612 18.738C82.399 19.2839 82.1023 19.9475 82.0029 20.6564H87.9162V20.6547Z" fill="white"/>
<path d="M95.8466 11.0205H100.098V15.548H102.902V18.1586H100.07V24.6818C100.07 25.5688 100.07 26.345 101.179 26.345L102.709 26.2895V29.6158C101.966 29.7519 101.214 29.8257 100.46 29.8375C98.9849 29.8375 97.3787 29.7553 96.4632 28.418C95.8821 27.5596 95.8538 26.528 95.8538 25.1422V18.13H93.7405V15.516H95.8516L95.8466 11.0205Z" fill="white"/>
<path d="M109.977 16.7137C110.92 15.9107 111.951 15.2723 114.167 15.0505V18.8422L112.754 19.0639C110.698 19.4234 110.088 19.7291 110.088 21.5637V29.7114H105.836V15.1899H109.999L109.977 16.7137Z" fill="white"/>
<path d="M116.409 19.3247C116.391 18.0716 116.957 16.8822 117.94 16.1044C119.27 15.051 120.994 14.8293 122.689 14.8293C124.468 14.8293 128.785 15.2442 128.785 18.9921V27.4338C128.785 28.9912 128.868 29.213 129.201 29.7119H125.01V28.3764C123.902 29.1794 122.706 30.0999 120.577 30.0999C117.251 30.0999 115.828 27.7111 115.828 25.6666C115.828 23.3331 117.691 22.0026 118.882 21.5037C120.074 21.0048 122.795 20.5058 124.603 20.1732V19.397C124.547 18.7317 124.492 17.6179 122.939 17.6179C121.049 17.6179 120.799 18.7823 120.689 19.3147L116.409 19.3247ZM121.824 23.6877C121.103 23.9648 119.989 24.3798 119.989 25.4952C120.034 26.3487 120.761 27.0055 121.614 26.9635C122.14 26.9485 122.65 26.7855 123.089 26.4931C124.502 25.6062 124.557 24.2755 124.59 22.7738L121.824 23.6877Z" fill="white"/>
<path d="M136.509 16.5203C136.9 16.0381 137.394 15.6502 137.956 15.3847C138.791 15.0319 139.688 14.8437 140.593 14.8303C141.488 14.8119 142.376 15.0117 143.174 15.4115C144.705 16.2145 145.094 17.5231 145.094 19.7743V29.7129H140.848V21.5483C140.848 20.2465 140.822 19.7693 140.655 19.3813C140.309 18.6487 139.545 18.2069 138.736 18.2724C136.488 18.2724 136.488 20.08 136.488 21.8809V29.7129H132.226V15.2452H136.532L136.509 16.5203Z" fill="white"/>
<path d="M20.0408 20.161H24.0895C24.412 20.1677 24.6808 19.9107 24.6875 19.5881C24.6893 19.5059 24.674 19.4235 24.6422 19.3479L17.6754 0.3864C17.5915 0.154568 17.3714 -0.00166652 17.1244 1.34161e-05H13.0607C12.7381 -0.00166652 12.4743 0.258725 12.4727 0.582953C12.4727 0.65351 12.4844 0.722389 12.5097 0.787906L19.4747 19.7746C19.5603 20.0115 19.7889 20.1677 20.0408 20.161Z" fill="white"/>
<path d="M19.3093 40.3186H23.3579C23.6805 40.3203 23.9442 40.0599 23.946 39.7356C23.946 39.665 23.9342 39.5962 23.9089 39.5307L9.5438 0.386395C9.4598 0.154563 9.23976 8.08311e-06 8.99107 8.08311e-06H4.94748C4.62494 -0.00167185 4.36119 0.25872 4.3595 0.582948C4.3595 0.653505 4.37127 0.722383 4.39647 0.7879L18.7583 39.9356C18.844 40.1657 19.064 40.3186 19.3093 40.3186Z" fill="white"/>
<path d="M11.3389 40.3184H15.3876C15.7101 40.3335 15.9839 40.0832 15.999 39.7606C16.0024 39.6816 15.9906 39.6044 15.9637 39.5304L8.97351 20.5438C8.8895 20.312 8.66947 20.1557 8.42252 20.1575H4.3537C4.03115 20.1659 3.77579 20.4346 3.7842 20.7572C3.78587 20.8227 3.79932 20.8882 3.82283 20.9503L10.7879 39.9371C10.8736 40.1655 11.0936 40.3184 11.3389 40.3184Z" fill="white"/>
<path d="M20.529 0.792949L23.7948 9.67481C23.8789 9.9066 24.0989 10.0629 24.346 10.0612H28.3946C28.7171 10.0629 28.9809 9.80249 28.9825 9.47821C28.9825 9.40769 28.9709 9.33878 28.9456 9.27327L25.6798 0.3864C25.5958 0.154568 25.3757 -0.00166652 25.1288 1.34161e-05H21.0801C20.7575 -0.00166652 20.4922 0.257044 20.4904 0.581273C20.4904 0.65351 20.5022 0.725748 20.529 0.792949Z" fill="white"/>
<path d="M3.8689 40.32H7.91759C8.24013 40.3216 8.50384 40.0612 8.50558 39.737C8.50558 39.6664 8.49376 39.5976 8.46858 39.5321L5.18431 30.6267C5.1003 30.3949 4.88023 30.2386 4.63328 30.2402H0.58966C0.26711 30.2386 0.00167994 30.4973 0 30.8216C0 30.8938 0.0117596 30.9661 0.0386387 31.0332L3.30445 39.9386C3.39012 40.1722 3.61859 40.3267 3.8689 40.32Z" fill="white"/>
</g>
</g>
<defs>
<clipPath id="clip0_962_79285">
<rect width="146" height="40.6261" fill="white"/>
</clipPath>
</defs>
</svg>
