<svg width="69" height="21" viewBox="0 0 69 21" fill="none" xmlns="http://www.w3.org/2000/svg">
<g clip-path="url(#clip0_9922_827)">
<path d="M66.144 3.51763C64.3457 1.73244 61.8075 0.633839 58.8777 0.636479C55.9492 0.633839 53.3979 1.74697 51.5861 3.54536C50.4601 4.66109 49.6201 6.04359 49.1456 7.58055C48.68 6.08188 47.856 4.75353 46.7393 3.68928C44.9434 1.9754 42.3987 0.949419 39.4266 0.950738H31.8636V12.3235C31.3639 11.3002 30.5015 10.5647 29.4164 10.0405C30.4871 9.24165 31.3349 8.01099 31.323 6.173V6.1215C31.3269 4.56606 30.6861 3.23242 29.5403 2.33322C28.3984 1.43138 26.7925 0.952059 24.8544 0.952059H15.9318V12.3235C15.4321 11.3015 14.5698 10.5673 13.4846 10.0418C14.5553 9.24165 15.4018 8.01099 15.3912 6.173V6.1215C15.3965 4.56606 14.7544 3.23242 13.6099 2.33322C12.468 1.4327 10.8621 0.952059 8.92248 0.952059H0V20.1311H9.13214C11.251 20.1311 13.0482 19.7072 14.3496 18.7975C15.0405 18.3182 15.5771 17.6923 15.9305 16.9436V20.1298H25.0627C27.1814 20.1298 28.9787 19.7059 30.2801 18.7975C30.971 18.3182 31.5088 17.691 31.861 16.9423V20.1311H39.4279C42.4013 20.1311 44.9434 19.0919 46.7367 17.3635C47.8403 16.3045 48.6563 14.9881 49.1245 13.5066C49.5925 15.0554 50.4286 16.4432 51.5571 17.5616C53.3557 19.3468 55.8952 20.4454 58.8237 20.444H58.8276C61.7561 20.444 64.306 19.3322 66.1164 17.5352C67.9267 15.7394 69.0013 13.2583 69 10.5409V10.4894C69 7.77334 67.9413 5.30414 66.1414 3.51896L66.144 3.51763Z" fill="#080808"/>
</g>
<defs>
<clipPath id="clip0_9922_827">
<rect width="69" height="19.8076" fill="white" transform="translate(0 0.636475)"/>
</clipPath>
</defs>
</svg>
