<svg width="80" height="21" viewBox="0 0 80 21" fill="none" xmlns="http://www.w3.org/2000/svg">
<g clip-path="url(#clip0_23_1695)">
<g clip-path="url(#clip1_23_1695)">
<path d="M0 4.85389H6.51832V16.2609H0V19.5201H17.1106V16.2609H10.5923V4.85389H17.1106V1.59473H0V4.85389Z" fill="#080808"/>
<path d="M41.5454 19.5201H58.656V16.2609H44.8046V12.187H56.2116V8.92784H44.8046V4.85389H58.656V1.59473H41.5454V19.5201Z" fill="#080808"/>
<path d="M70.5501 0.780029C68.01 0.831243 65.5929 1.88361 63.8247 3.70811C62.0566 5.5326 61.0807 7.98158 61.1092 10.5221C61.054 11.7975 61.2575 13.0708 61.7075 14.2655C62.1575 15.4601 62.8446 16.5513 63.7276 17.4733C64.6105 18.3953 65.6709 19.129 66.845 19.6303C68.019 20.1315 69.2824 20.39 70.559 20.39C71.8356 20.39 73.0989 20.1315 74.273 19.6303C75.447 19.129 76.5075 18.3953 77.3904 17.4733C78.2734 16.5513 78.9605 15.4601 79.4105 14.2655C79.8605 13.0708 80.064 11.7975 80.0088 10.5221C80.037 9.25882 79.8137 8.00256 79.3519 6.8264C78.8901 5.65024 78.1989 4.57767 77.3187 3.67109C76.4385 2.76452 75.3868 2.04205 74.2248 1.54572C73.0628 1.04939 71.8137 0.789109 70.5501 0.780029V0.780029ZM70.5501 16.9961C69.7194 16.9835 68.8994 16.8066 68.1373 16.4756C67.3752 16.1446 66.6862 15.666 66.1099 15.0675C65.5336 14.469 65.0815 13.7624 64.7796 12.9883C64.4776 12.2143 64.3319 11.3881 64.3506 10.5575C64.3506 8.9133 65.0038 7.33644 66.1664 6.17381C67.3291 5.01118 68.9059 4.35802 70.5501 4.35802C72.1943 4.35802 73.7712 5.01118 74.9338 6.17381C76.0965 7.33644 76.7496 8.9133 76.7496 10.5575C76.7684 11.3881 76.6226 12.2143 76.3207 12.9883C76.0188 13.7624 75.5666 14.469 74.9903 15.0675C74.4141 15.666 73.725 16.1446 72.963 16.4756C72.2009 16.8066 71.3809 16.9835 70.5501 16.9961Z" fill="#080808"/>
<path d="M29.5716 1.59473H21.1846V19.5201H29.4122C30.5976 19.5441 31.7755 19.3251 32.8731 18.8768C33.9708 18.4284 34.965 17.7601 35.7947 16.913C36.6244 16.0659 37.2718 15.058 37.6973 13.9513C38.1228 12.8445 38.3172 11.6624 38.2686 10.4777C38.2863 5.50926 34.8677 1.75414 29.5716 1.59473ZM29.4919 16.2609H24.4437V4.85389H29.4919C32.751 4.93359 34.8057 7.29826 34.8057 10.5574C34.8057 13.8166 32.7688 16.1812 29.4919 16.2609Z" fill="#080808"/>
</g>
</g>
<defs>
<clipPath id="clip0_23_1695">
<rect width="80" height="19.555" fill="white" transform="translate(0 0.780029)"/>
</clipPath>
<clipPath id="clip1_23_1695">
<rect width="80" height="19.555" fill="white" transform="translate(0 0.780029)"/>
</clipPath>
</defs>
</svg>
