<svg width="100" height="27" viewBox="0 0 100 27" fill="none" xmlns="http://www.w3.org/2000/svg">
<g clip-path="url(#clip0_10804_664)">
<g clip-path="url(#clip1_10804_664)">
<path fill-rule="evenodd" clip-rule="evenodd" d="M10.1249 2.27188C10.7487 2.27188 11.2285 1.79203 11.2285 1.16823C11.2285 0.544433 10.7487 0.0645862 10.1249 0.0645862C9.50107 0.0645862 9.02122 0.544433 9.02122 1.16823C9.02122 1.74405 9.50107 2.27188 10.1249 2.27188ZM15.2592 2.8477C15.2592 3.4715 14.7794 3.95134 14.1556 3.95134C13.5318 3.95134 13.0519 3.4715 13.0519 2.8477C13.0519 2.2239 13.5318 1.74405 14.1556 1.74405C14.7794 1.74405 15.2592 2.2239 15.2592 2.8477ZM21.4492 4.86305C21.4492 5.48685 20.9694 5.9667 20.3456 5.9667C19.7218 5.9667 19.242 5.48685 19.242 4.86305C19.242 4.23925 19.7218 3.7594 20.3456 3.7594C20.9694 3.7594 21.4492 4.23925 21.4492 4.86305ZM7.91758 6.06267C8.54138 6.06267 9.02122 5.58282 9.02122 4.95902C9.02122 4.33522 8.54138 3.85537 7.91758 3.85537C7.29378 3.85537 6.81393 4.33522 6.81393 4.95902C6.76595 5.53484 7.29378 6.06267 7.91758 6.06267ZM3.64694 6.92639C4.27074 6.92639 4.75059 6.44654 4.75059 5.82274C4.75059 5.19894 4.27074 4.7191 3.64694 4.7191C3.02314 4.7191 2.5433 5.19894 2.5433 5.82274C2.5433 6.44654 3.02314 6.92639 3.64694 6.92639ZM5.23044 10.1414C5.23044 10.7652 4.75059 11.245 4.12679 11.245C3.50299 11.245 3.02314 10.7652 3.02314 10.1414C3.02314 9.51756 3.50299 9.03771 4.12679 9.03771C4.75059 9.03771 5.23044 9.51756 5.23044 10.1414ZM7.29378 13.4043C7.29378 14.0281 6.81393 14.508 6.19013 14.508C5.56633 14.508 5.08648 14.0281 5.08648 13.4043C5.08648 12.7805 5.56633 12.3007 6.19013 12.3007C6.81393 12.3007 7.29378 12.8285 7.29378 13.4043ZM2.25539 13.4043C2.25539 14.0281 1.77554 14.508 1.15174 14.508C0.527942 14.508 0.0480957 14.0281 0.0480957 13.4043C0.0480957 12.7805 0.527942 12.3007 1.15174 12.3007C1.72756 12.3007 2.25539 12.8285 2.25539 13.4043ZM4.12679 17.8189C4.75059 17.8189 5.23044 17.3391 5.23044 16.7153C5.23044 16.0915 4.75059 15.6116 4.12679 15.6116C3.50299 15.6116 3.02314 16.0915 3.02314 16.7153C2.97516 17.3391 3.50299 17.8189 4.12679 17.8189ZM8.87727 18.1548C8.87727 18.7786 8.39742 19.2584 7.77362 19.2584C7.14982 19.2584 6.66998 18.7786 6.66998 18.1548C6.66998 17.531 7.14982 17.0512 7.77362 17.0512C8.39742 17.0512 8.87727 17.531 8.87727 18.1548ZM7.96556 23.1452C8.58936 23.1452 9.06921 22.6654 9.06921 22.0416C9.06921 21.4178 8.58936 20.9379 7.96556 20.9379C7.34176 20.9379 6.86192 21.4178 6.86192 22.0416C6.86192 22.6654 7.34176 23.1452 7.96556 23.1452ZM8.87727 8.65384C8.87727 9.27764 8.39742 9.75748 7.77362 9.75748C7.14982 9.75748 6.66998 9.27764 6.66998 8.65384C6.66998 8.03004 7.14982 7.55019 7.77362 7.55019C8.39742 7.55019 8.87727 8.07802 8.87727 8.65384ZM12.812 5.82274C12.812 6.44654 12.3322 6.92639 11.7084 6.92639C11.0846 6.92639 10.6047 6.44654 10.6047 5.82274C10.6047 5.19894 11.0846 4.7191 11.7084 4.7191C12.3322 4.67111 12.812 5.19894 12.812 5.82274ZM16.6028 6.92639C17.2266 6.92639 17.7064 6.44654 17.7064 5.82274C17.7064 5.19894 17.2266 4.7191 16.6028 4.7191C15.979 4.7191 15.4992 5.19894 15.4992 5.82274C15.4992 6.44654 15.979 6.92639 16.6028 6.92639ZM20.5855 9.85345C21.2093 9.85345 21.6892 9.37361 21.6892 8.74981C21.6892 8.12601 21.2093 7.64616 20.5855 7.64616C19.9617 7.64616 19.4819 8.12601 19.4819 8.74981C19.4339 9.37361 19.9617 9.85345 20.5855 9.85345ZM25.336 10.1414C25.336 10.7652 24.8562 11.245 24.2324 11.245C23.6086 11.245 23.1287 10.7652 23.1287 10.1414C23.1287 9.51756 23.6086 9.03771 24.2324 9.03771C24.8562 9.03771 25.336 9.51756 25.336 10.1414ZM24.2324 17.8189C24.8562 17.8189 25.336 17.3391 25.336 16.7153C25.336 16.0915 24.8562 15.6116 24.2324 15.6116C23.6086 15.6116 23.1287 16.0915 23.1287 16.7153C23.0807 17.3391 23.6086 17.8189 24.2324 17.8189ZM21.6892 18.1548C21.6892 18.7786 21.2093 19.2584 20.5855 19.2584C19.9617 19.2584 19.4819 18.7786 19.4819 18.1548C19.4819 17.531 19.9617 17.0512 20.5855 17.0512C21.2093 17.0512 21.6892 17.531 21.6892 18.1548ZM24.7122 22.1375C25.336 22.1375 25.8159 21.6577 25.8159 21.0339C25.8159 20.4101 25.336 19.9302 24.7122 19.9302C24.0884 19.9302 23.6086 20.4101 23.6086 21.0339C23.6086 21.6577 24.0884 22.1375 24.7122 22.1375ZM17.7544 21.0339C17.7544 21.6577 17.2746 22.1375 16.6508 22.1375C16.027 22.1375 15.5471 21.6577 15.5471 21.0339C15.5471 20.4101 16.027 19.9302 16.6508 19.9302C17.2266 19.9302 17.7544 20.4101 17.7544 21.0339ZM11.7084 22.1375C12.3322 22.1375 12.812 21.6577 12.812 21.0339C12.812 20.4101 12.3322 19.9302 11.7084 19.9302C11.0846 19.9302 10.6047 20.4101 10.6047 21.0339C10.6047 21.6577 11.0846 22.1375 11.7084 22.1375ZM4.75059 21.0339C4.75059 21.6577 4.27074 22.1375 3.64694 22.1375C3.02314 22.1375 2.5433 21.6577 2.5433 21.0339C2.5433 20.4101 3.02314 19.9302 3.64694 19.9302C4.27074 19.9302 4.75059 20.4101 4.75059 21.0339ZM20.3456 23.1452C20.9694 23.1452 21.4492 22.6654 21.4492 22.0416C21.4492 21.4178 20.9694 20.9379 20.3456 20.9379C19.7218 20.9379 19.242 21.4178 19.242 22.0416C19.194 22.6654 19.7218 23.1452 20.3456 23.1452ZM15.2592 24.0089C15.2592 24.6327 14.7794 25.1126 14.1556 25.1126C13.5318 25.1126 13.0519 24.6327 13.0519 24.0089C13.0519 23.3851 13.5318 22.9053 14.1556 22.9053C14.7794 22.9053 15.2592 23.3851 15.2592 24.0089ZM18.1863 26.888C18.8101 26.888 19.2899 26.4082 19.2899 25.7844C19.2899 25.1606 18.8101 24.6807 18.1863 24.6807C17.5625 24.6807 17.0826 25.1606 17.0826 25.7844C17.0826 26.4082 17.5625 26.888 18.1863 26.888ZM11.2765 25.7844C11.2765 26.4082 10.7967 26.888 10.1729 26.888C9.54906 26.888 9.06921 26.4082 9.06921 25.7844C9.06921 25.1606 9.54906 24.6807 10.1729 24.6807C10.7967 24.6807 11.2765 25.1606 11.2765 25.7844ZM22.169 14.5559C22.7928 14.5559 23.2727 14.0761 23.2727 13.4523C23.2727 12.8285 22.7928 12.3487 22.169 12.3487C21.5452 12.3487 21.0654 12.8285 21.0654 13.4523C21.0654 14.0281 21.5452 14.5559 22.169 14.5559ZM28.359 13.4043C28.359 14.0281 27.8792 14.508 27.2554 14.508C26.6316 14.508 26.1517 14.0281 26.1517 13.4043C26.1517 12.7805 26.6316 12.3007 27.2554 12.3007C27.8312 12.3007 28.359 12.8285 28.359 13.4043ZM24.7122 6.92639C25.336 6.92639 25.8159 6.44654 25.8159 5.82274C25.8159 5.19894 25.336 4.7191 24.7122 4.7191C24.0884 4.7191 23.6086 5.19894 23.6086 5.82274C23.6086 6.44654 24.0884 6.92639 24.7122 6.92639ZM19.3379 1.12025C19.3379 1.74405 18.8581 2.2239 18.2343 2.2239C17.6105 2.2239 17.1306 1.74405 17.1306 1.12025C17.1306 0.496448 17.6105 0.0166016 18.2343 0.0166016C18.8101 0.0166016 19.3379 0.496448 19.3379 1.12025ZM39.4435 13.4523C39.4435 10.2853 41.8907 7.8381 45.1057 7.8381C46.0654 7.8381 47.0731 8.07802 47.9368 8.55787C48.8005 9.03771 49.5203 9.7095 50.0001 10.5732L48.1287 11.7249C47.8408 11.149 47.4089 10.7172 46.8811 10.3813C46.3533 10.0454 45.7295 9.90144 45.1057 9.90144C43.0903 9.90144 41.6028 11.4849 41.6028 13.4523C41.6028 15.3717 43.0903 16.9552 45.0577 16.9552C45.7295 16.9552 46.3533 16.7632 46.9291 16.4274C47.5049 16.0915 47.9368 15.5636 48.1767 14.9398L50.1441 15.9955C49.6642 16.9072 48.9445 17.7229 48.0807 18.2508C47.169 18.7786 46.1613 19.0665 45.1057 19.0665C41.7947 19.0665 39.4435 16.5713 39.4435 13.4523ZM54.0788 7.98205V18.9226H61.3245V16.8592H56.2381V7.98205H54.0788ZM65.4992 18.9226V7.98205H72.9368V9.94942H67.6585V12.3966H71.9771V14.412H67.6585V16.9072H72.9368V18.9226H65.4992ZM80.9982 7.98205L76.8235 18.9226H79.0308L79.7506 16.9552H84.3571L85.0769 18.9226H87.2842L83.1095 7.98205H80.9982ZM82.0539 10.6692L83.6374 15.0358H80.4704L82.0539 10.6692ZM93.3782 13.5483V9.94942H95.5375C96.8811 9.94942 97.6009 10.6212 97.6009 11.7249C97.6009 12.6845 96.9291 13.5483 95.5375 13.5483H93.3782ZM95.7295 7.98205H91.2669V18.9226H93.3782V15.4677H95.8734L97.6489 18.9226H100.048L97.8888 14.9398C98.4646 14.6519 98.9924 14.1721 99.3283 13.5963C99.6642 13.0204 99.8562 12.3487 99.8082 11.7249C99.7602 9.61353 98.2727 7.98205 95.7295 7.98205Z" fill="white"/>
</g>
</g>
<defs>
<clipPath id="clip0_10804_664">
<rect width="100" height="26.8714" fill="white" transform="translate(0 0.0166016)"/>
</clipPath>
<clipPath id="clip1_10804_664">
<rect width="100" height="26.8714" fill="white" transform="translate(0 0.0166016)"/>
</clipPath>
</defs>
</svg>
