<svg width="110" height="15" viewBox="0 0 110 15" fill="none" xmlns="http://www.w3.org/2000/svg">
<g clip-path="url(#clip0_10804_1243)">
<path d="M81.4835 11.2988C82.0813 11.2988 82.5596 10.8206 82.5596 10.163C82.5596 9.56514 82.0813 9.0271 81.4835 9.0271C80.8856 9.0271 80.4074 9.50536 80.4074 10.163C80.3476 10.8206 80.8856 11.2988 81.4835 11.2988Z" fill="white"/>
<path d="M18.7119 10.9999C18.2336 10.8206 17.8152 10.5217 17.4565 10.1032C17.0978 9.74448 16.8586 9.26622 16.6793 8.78796C16.4999 8.3097 16.3804 7.71187 16.3804 7.17383C16.3804 6.63578 16.4402 6.03796 16.6195 5.5597C16.7988 5.08144 17.038 4.60318 17.3967 4.24448C17.7554 3.88578 18.1141 3.58687 18.5923 3.34774C19.0706 3.16839 19.6086 3.04883 20.2065 3.04883C20.7445 3.04883 21.163 3.10861 21.5815 3.22818C21.9999 3.34774 22.2989 3.58687 22.6575 3.826C22.9565 4.06513 23.1956 4.36405 23.3749 4.72274C23.5543 5.08144 23.6739 5.49992 23.7336 5.91839H21.701C21.6412 5.5597 21.4619 5.26078 21.2228 5.02165C20.9836 4.78252 20.6249 4.66296 20.2662 4.66296C19.6086 4.66296 19.1902 4.90209 18.8315 5.32057C18.5325 5.73905 18.3532 6.39665 18.3532 7.11405C18.3532 7.83144 18.4728 8.42926 18.8315 8.90752C19.1304 9.38578 19.6086 9.56513 20.2662 9.56513C20.6847 9.56513 21.0434 9.44557 21.2825 9.26622C21.5217 9.02709 21.701 8.72818 21.8206 8.24992H23.8532C23.8532 8.66839 23.7336 9.08687 23.5543 9.44557C23.3749 9.80426 23.1358 10.1032 22.8369 10.4021C22.538 10.6412 22.1793 10.8804 21.7608 11.0597C21.3423 11.1793 20.8641 11.2988 20.326 11.2988C19.7282 11.3586 19.1902 11.239 18.7119 10.9999Z" fill="white"/>
<path d="M27.0815 4.2446C27.3804 3.82612 27.6793 3.52721 28.038 3.28808C28.337 3.10873 28.7554 2.98916 29.2935 2.98916C29.712 2.98916 30.0707 3.04895 30.3696 3.22829C30.6685 3.34786 30.9674 3.58699 31.2065 3.82612C31.4457 4.06525 31.625 4.42395 31.7446 4.78264C31.8641 5.14134 31.9239 5.55981 31.9239 5.97829V11.1196H29.8315V6.27721C29.8315 5.85873 29.712 5.50003 29.4728 5.20112C29.2337 4.96199 28.875 4.78264 28.4565 4.78264C27.9783 4.78264 27.6196 4.96199 27.3207 5.2609C27.0217 5.55981 26.8424 6.03808 26.8424 6.57612V11.0598H24.75V0.0598145H26.8424L27.0815 4.2446Z" fill="white"/>
<path d="M35.3914 10.9999C34.9131 10.8205 34.4946 10.5216 34.1359 10.1031C33.7772 9.74445 33.5381 9.26619 33.3588 8.78793C33.1794 8.24988 33.1196 7.71184 33.1196 7.1738C33.1196 6.63575 33.1794 6.03793 33.4185 5.55967C33.5979 5.08141 33.8968 4.60314 34.1957 4.24445C34.5544 3.88575 34.9131 3.58684 35.3914 3.34771C35.8098 3.10858 36.3479 2.98901 36.8859 2.98901C37.5435 2.98901 38.0816 3.10858 38.5001 3.34771C38.9783 3.58684 39.337 3.88575 39.6957 4.30423C39.9946 4.72271 40.2935 5.26075 40.4131 5.7988C40.5925 6.39662 40.6522 7.05423 40.6522 7.71184H35.0327C35.0925 8.30967 35.3316 8.84771 35.6305 9.14662C35.9294 9.50532 36.4077 9.68467 37.0055 9.68467C37.424 9.68467 37.7229 9.62488 37.962 9.44554C38.2011 9.26619 38.3805 9.02706 38.5001 8.72814H40.6522C40.5925 9.08684 40.4729 9.38575 40.2935 9.74445C40.1142 10.0434 39.8751 10.3423 39.5761 10.5814C39.2772 10.8205 38.9185 10.9999 38.5001 11.1194C38.0816 11.239 37.6631 11.2988 37.1251 11.2988C36.4675 11.3586 35.8696 11.239 35.3914 10.9999ZM35.6903 5.08141C35.3914 5.38032 35.212 5.7988 35.0925 6.33684H38.5598C38.5598 5.85858 38.3805 5.4401 38.0816 5.08141C37.7827 4.78249 37.3642 4.60314 36.9457 4.60314C36.4077 4.60314 35.9892 4.78249 35.6903 5.08141Z" fill="white"/>
<path d="M43.8205 10.9999C43.3423 10.8206 42.9238 10.5217 42.5651 10.1032C42.2064 9.74448 41.9673 9.26622 41.7879 8.78796C41.6086 8.3097 41.489 7.71187 41.489 7.17383C41.489 6.63578 41.5488 6.03796 41.7281 5.5597C41.9075 5.08144 42.1466 4.60318 42.5053 4.24448C42.864 3.88578 43.2227 3.58687 43.701 3.34774C44.1792 3.16839 44.7173 3.04883 45.3151 3.04883C45.8531 3.04883 46.2716 3.10861 46.6901 3.22818C47.1086 3.34774 47.4075 3.58687 47.7662 3.826C48.0651 4.06513 48.3042 4.36405 48.4836 4.72274C48.6629 5.08144 48.7825 5.49992 48.8423 5.91839H46.8097C46.7499 5.5597 46.5705 5.26078 46.3314 5.02165C46.0923 4.78252 45.7336 4.66296 45.3749 4.66296C44.7173 4.66296 44.2988 4.90209 43.9401 5.32057C43.6412 5.73905 43.4618 6.39665 43.4618 7.11405C43.4618 7.83144 43.5814 8.42926 43.9401 8.90752C44.239 9.38578 44.7173 9.56513 45.3749 9.56513C45.7934 9.56513 46.1521 9.44557 46.3912 9.26622C46.6303 9.02709 46.8097 8.72818 46.9292 8.24992H48.9021C48.9021 8.66839 48.7825 9.08687 48.6031 9.44557C48.4238 9.80426 48.1847 10.1032 47.8858 10.4021C47.5868 10.6412 47.2281 10.8804 46.8097 11.0597C46.3912 11.1793 45.9129 11.2988 45.3749 11.2988C44.8368 11.3586 44.2988 11.239 43.8205 10.9999Z" fill="white"/>
<path d="M52.1303 8.42938V11.0598H50.0977V0.0598145H52.1303V6.15764L54.8803 3.16851H57.3314L54.4618 6.15764L57.69 11.0598H55.1792L52.9672 7.47286L52.1303 8.42938Z" fill="white"/>
<path d="M59.9618 10.9999C59.4836 10.8206 59.0651 10.5217 58.6466 10.1032C58.2879 9.74448 57.989 9.26622 57.8097 8.78796C57.6303 8.3097 57.5107 7.71187 57.5107 7.17383C57.5107 6.63578 57.5705 6.03796 57.8097 5.5597C57.989 5.08144 58.2879 4.60318 58.6466 4.24448C59.0053 3.88578 59.4238 3.58687 59.9618 3.34774C60.4401 3.16839 60.9781 3.04883 61.576 3.04883C62.1738 3.04883 62.7118 3.16839 63.1901 3.34774C63.6684 3.52709 64.0868 3.826 64.5053 4.24448C64.864 4.60318 65.1629 5.08144 65.3423 5.5597C65.5216 6.03796 65.6412 6.63578 65.6412 7.17383C65.6412 7.71187 65.5814 8.3097 65.3423 8.78796C65.1629 9.26622 64.864 9.74448 64.5053 10.1032C64.1466 10.4619 63.7281 10.7608 63.1901 10.9999C62.7716 11.239 62.1738 11.3586 61.576 11.3586C60.9781 11.3586 60.4401 11.239 59.9618 10.9999ZM63.0705 9.02709C63.4292 8.54883 63.6086 7.951 63.6086 7.17383C63.6086 6.39665 63.4292 5.79883 63.0705 5.32057C62.7118 4.84231 62.2336 4.60318 61.6357 4.60318C61.0379 4.60318 60.4999 4.84231 60.201 5.32057C59.8423 5.79883 59.6629 6.45644 59.6629 7.17383C59.6629 7.89122 59.8423 8.54883 60.201 9.02709C60.5597 9.50535 61.0379 9.74448 61.6357 9.74448C62.2336 9.74448 62.7118 9.50535 63.0705 9.02709Z" fill="white"/>
<path d="M71.6795 10.1628C71.3805 10.5215 71.0218 10.8204 70.7229 10.9998C70.3642 11.1791 69.9458 11.2987 69.4077 11.2987C68.5708 11.2987 67.9131 11.0595 67.3751 10.5215C66.8968 9.98346 66.6577 9.32585 66.6577 8.42911V3.22803H68.6903V8.1302C68.6903 8.60846 68.8099 8.96716 68.9892 9.20629C69.1686 9.44542 69.5273 9.56498 69.9458 9.56498C70.424 9.56498 70.7827 9.38564 71.0816 9.08672C71.3805 8.78781 71.5001 8.30955 71.5001 7.77151V3.22803H73.5925V11.1193H71.6197L71.6795 10.1628Z" fill="white"/>
<path d="M75.6848 3.22815V0.717285H77.7174V3.22815H79.0326V4.60315H77.7174V8.78794C77.7174 9.08685 77.7772 9.2662 77.8967 9.38576C78.0163 9.50533 78.1956 9.56511 78.4945 9.56511H78.913C78.9728 9.56511 79.0326 9.56511 79.0924 9.56511V11.1195C78.9728 11.1195 78.913 11.1195 78.7337 11.1195C78.6141 11.1195 78.4945 11.1195 78.3152 11.1195H77.7772C77.538 11.1195 77.2989 11.1195 77.0598 11.0597C76.8206 10.9999 76.5815 10.9401 76.4022 10.7608C76.2228 10.6412 76.0435 10.4021 75.9239 10.1629C75.8043 9.92381 75.7445 9.62489 75.7445 9.20642V4.60315H74.6685V3.22815H75.6848Z" fill="white"/>
<path d="M85.5489 10.9999C85.1305 10.8205 84.7718 10.5216 84.4131 10.1031C84.1141 9.74442 83.875 9.26616 83.6957 8.78789C83.5761 8.30963 83.4565 7.71181 83.4565 7.11398C83.4565 6.51616 83.5163 5.97811 83.6957 5.44007C83.875 4.96181 84.1141 4.48355 84.4131 4.12485C84.712 3.76616 85.1305 3.46724 85.5489 3.22811C85.9674 3.04876 86.5055 2.9292 87.0435 2.9292C87.8805 2.9292 88.5978 3.16833 89.1957 3.58681C89.7337 4.00529 90.0924 4.66289 90.212 5.49985H89.3152C89.1957 4.90203 88.9565 4.42376 88.5978 4.18463C88.2391 3.88572 87.7609 3.76616 87.1631 3.76616C86.6848 3.76616 86.3261 3.82594 85.9674 4.00529C85.6685 4.18463 85.3696 4.42376 85.1902 4.72268C85.0109 5.02159 84.8315 5.38029 84.712 5.79876C84.5924 6.21724 84.5924 6.63572 84.5924 7.11398C84.5924 7.59224 84.6522 8.01072 84.7718 8.4292C84.8913 8.84768 85.0109 9.20637 85.25 9.50529C85.4294 9.8042 85.7283 10.0433 86.0272 10.2227C86.3261 10.402 86.7446 10.4618 87.1631 10.4618C87.8207 10.4618 88.3587 10.2825 88.7772 9.86398C89.1957 9.50529 89.4348 8.96724 89.4946 8.30963H90.3913C90.3315 9.20637 89.9728 9.92377 89.4348 10.4618C88.8968 10.9999 88.1196 11.239 87.2228 11.239C86.5054 11.2988 85.9674 11.1792 85.5489 10.9999Z" fill="white"/>
<path d="M93.201 10.9999C92.7228 10.8205 92.3641 10.5216 92.0652 10.1031C91.7663 9.74442 91.5271 9.26616 91.3478 8.78789C91.1684 8.30963 91.1086 7.71181 91.1086 7.11398C91.1086 6.51616 91.1684 5.97811 91.3478 5.44007C91.5271 4.96181 91.7663 4.48355 92.0652 4.12485C92.3641 3.76616 92.7826 3.46724 93.201 3.22811C93.6793 3.04876 94.1576 2.9292 94.6956 2.9292C95.2934 2.9292 95.7717 3.04876 96.1902 3.22811C96.6086 3.40746 97.0271 3.70637 97.326 4.12485C97.625 4.48355 97.8641 4.96181 98.0434 5.44007C98.2228 5.91833 98.2826 6.51616 98.2826 7.11398C98.2826 7.71181 98.2228 8.24985 98.0434 8.78789C97.8641 9.26616 97.625 9.74442 97.326 10.1031C97.0271 10.4618 96.6086 10.7607 96.1902 10.9999C95.7717 11.1792 95.2336 11.2988 94.6956 11.2988C94.1576 11.2988 93.6793 11.1792 93.201 10.9999ZM95.8913 10.2825C96.2499 10.1031 96.4891 9.86398 96.7282 9.56507C96.9673 9.26616 97.1467 8.90746 97.2065 8.48898C97.326 8.0705 97.3858 7.65203 97.3858 7.17376C97.3858 6.6955 97.326 6.27703 97.2065 5.85855C97.0869 5.44007 96.9076 5.08137 96.7282 4.78246C96.4891 4.48355 96.2499 4.24442 95.8913 4.06507C95.5326 3.88572 95.1739 3.82594 94.7554 3.82594C94.3369 3.82594 93.9184 3.88572 93.6195 4.06507C93.3206 4.24442 93.0217 4.48355 92.7826 4.78246C92.5434 5.08137 92.3641 5.44007 92.2445 5.85855C92.125 6.27703 92.0652 6.6955 92.0652 7.17376C92.0652 7.65203 92.125 8.0705 92.2445 8.48898C92.3641 8.90746 92.5434 9.26616 92.7826 9.56507C93.0217 9.86398 93.3206 10.1031 93.6195 10.2825C93.9184 10.4618 94.3369 10.5216 94.7554 10.5216C95.1739 10.5216 95.5923 10.4618 95.8913 10.2825Z" fill="white"/>
<path d="M100.614 3.10855V4.3042C100.853 3.88572 101.212 3.58681 101.571 3.28789C101.929 3.04876 102.407 2.9292 103.005 2.9292C103.484 2.9292 103.902 3.04876 104.321 3.28789C104.679 3.52703 104.978 3.88572 105.098 4.36398C105.337 3.88572 105.696 3.52703 106.114 3.28789C106.532 3.04876 107.011 2.9292 107.549 2.9292C107.907 2.9292 108.206 2.98898 108.446 3.10855C108.685 3.22811 108.984 3.34768 109.163 3.58681C109.342 3.76616 109.522 4.06507 109.641 4.36398C109.761 4.66289 110 5.02159 110 5.38029V11.0596H109.103V5.49985C109.103 4.90203 108.984 4.48355 108.625 4.18463C108.266 3.88572 107.907 3.76616 107.429 3.76616C107.13 3.76616 106.831 3.82594 106.652 3.88572C106.413 4.00529 106.174 4.12485 105.994 4.3042C105.815 4.48355 105.636 4.72268 105.516 5.02159C105.397 5.3205 105.337 5.61942 105.337 5.97811V11.0596H104.38V5.49985C104.38 4.90203 104.261 4.48355 103.902 4.18463C103.603 3.88572 103.244 3.76616 102.766 3.76616C102.467 3.76616 102.228 3.82594 101.989 3.9455C101.75 4.06507 101.511 4.18463 101.272 4.42376C101.092 4.60311 100.913 4.84224 100.793 5.14116C100.674 5.38029 100.614 5.73898 100.614 6.03789V11.0596H99.6575V3.10855H100.614Z" fill="white"/>
<path d="M8.60864 7.17391L12.2554 0.657609C12.3152 0.538043 12.3152 0.358696 12.2554 0.23913C12.1956 0.0597826 12.076 0 11.8967 0H4.36408C4.18473 0 4.06516 0.0597826 3.9456 0.179348L0.0597295 6.93478C-5.30726e-05 7.05435 -5.30726e-05 7.2337 0.0597295 7.35326L3.9456 14.1087C4.06516 14.288 4.18473 14.3478 4.36408 14.3478H11.9565C12.076 14.3478 12.2554 14.288 12.3152 14.1685C12.3749 14.0489 12.3749 13.8696 12.3152 13.75L8.60864 7.17391ZM8.13038 6.33696L5.08147 0.896739H11.1793L8.13038 6.33696ZM4.30429 1.31522L7.59234 7.17391L4.30429 13.0326L0.896686 7.17391L4.30429 1.31522ZM5.08147 13.4511L8.13038 8.01087L11.1793 13.4511H5.08147Z" fill="white"/>
</g>
<defs>
<clipPath id="clip0_10804_1243">
<rect width="110" height="14.3478" fill="white"/>
</clipPath>
</defs>
</svg>
