<svg width="90" height="28" viewBox="0 0 90 28" fill="none" xmlns="http://www.w3.org/2000/svg">
<g clip-path="url(#clip0_10804_1281)">
<mask id="mask0_10804_1281" style="mask-type:luminance" maskUnits="userSpaceOnUse" x="-1" y="0" width="92" height="28">
<path d="M-0.735352 0.407904H90.7356V27.6013H-0.735352V0.407904Z" fill="white"/>
</mask>
<g mask="url(#mask0_10804_1281)">
<path d="M13.5437 0.679839C12.8004 2.57274 12.0069 4.47241 11.1894 6.38507L10.0833 8.92064L8.96426 6.38507C8.12053 4.47241 7.31174 2.57274 6.55327 0.679839H0.36269V1.17598C1.04909 1.17598 1.6131 1.74877 1.6131 2.45474C1.51248 3.76186 1.40326 5.07136 1.2699 6.38507L0.859012 10.3765C0.662167 12.287 0.43916 14.1908 0.179199 16.0815H2.15735C2.27974 14.1908 2.43268 12.287 2.62513 10.3765L3.23506 4.35862C4.11373 6.18822 4.95527 8.0288 5.77064 9.87377L5.99584 10.3765C6.84176 12.287 7.64616 14.1908 8.40903 16.0815H9.00798C9.75548 14.1908 10.5469 12.287 11.3687 10.3765L11.725 9.55673C12.5228 7.71176 13.3534 5.87137 14.2103 4.04396L14.8552 10.3765C15.0476 12.287 15.2072 14.1908 15.323 16.0815H19.874C19.6117 14.1908 19.3865 12.287 19.1942 10.3765L18.7877 6.38507C18.5974 4.47241 18.4335 2.57274 18.3221 0.679839H13.5437Z" fill="white"/>
<path d="M33.9578 14.5507C34.4539 13.6063 34.9896 12.6512 35.5578 11.6959L41.0859 2.49554V2.10642H28.9216V4.93708H29.4023C29.4023 4.25507 29.927 3.69765 30.5827 3.65612C30.963 3.64313 31.3413 3.63655 31.7151 3.63655H35.6408C35.1535 4.56114 34.6332 5.49451 34.0714 6.42788L28.5149 15.6939V16.0808H41.6346V14.4371C40.7122 14.5114 39.7766 14.5507 38.8454 14.5507H33.9578Z" fill="white"/>
<path d="M56.4462 16.0812C56.4855 16.079 56.5248 16.0746 56.562 16.0724C56.4899 15.128 56.4462 14.1817 56.4462 13.2286V9.76619H61.8781V13.2286C61.8781 14.1817 61.8453 15.1368 61.7733 16.0812H65.957C65.8805 15.1368 65.8455 14.1817 65.8455 13.2286V4.96158C65.8455 4.00187 65.8805 3.05332 65.957 2.10458H60.6235V2.5462H60.7437C61.3382 2.5462 61.817 3.016 61.8585 3.61074C61.8715 4.05877 61.8781 4.50899 61.8781 4.96158V8.23387H56.4462V4.96158C56.4462 4.00187 56.4811 3.05332 56.5576 2.10458H51.2263V2.5462H51.3421C51.9344 2.5462 52.4154 3.01179 52.4569 3.60415C52.4723 4.05657 52.4809 4.50679 52.4809 4.96158V14.6385C51.9323 14.7084 51.3682 14.7413 50.7978 14.7413C50.1835 14.7413 49.5782 14.6932 48.988 14.597C47.3135 14.2777 47.0468 12.7061 47.0468 11.7268V4.88072C47.0468 3.95156 47.0883 3.02697 47.1584 2.10458H41.8269V2.5462H41.9405C42.5351 2.5462 43.0116 3.01179 43.0532 3.60196C43.0685 4.05657 43.0773 4.50679 43.0773 4.96158V11.0645C43.0773 12.4373 43.5122 15.4712 47.237 16.0221C48.3998 16.1818 49.589 16.2734 50.7978 16.2734C52.6951 16.2734 54.5794 16.2057 56.4462 16.0812Z" fill="white"/>
<path d="M83.8653 9.09473C83.8653 13.8556 79.7493 16.2732 75.6944 16.2732C71.6396 16.2732 67.5322 13.8556 67.5322 9.09473C67.5322 4.33165 71.6396 1.91408 75.6944 1.91408C79.7493 1.91408 83.8653 4.33165 83.8653 9.09473ZM79.8826 9.09473C79.8782 6.50007 78.794 3.4464 75.6944 3.4464C72.5992 3.4464 71.5107 6.50007 71.5107 9.09473C71.5107 11.6872 72.5992 14.7409 75.6944 14.7409C78.794 14.7409 79.8782 11.6872 79.8826 9.09473Z" fill="white"/>
<path d="M26.6228 4.96196C26.6228 4.00243 26.6577 3.05369 26.7386 2.10496H21.2651V2.60128H21.3787C22.0871 2.60128 22.6401 3.17389 22.6401 3.88645C22.6509 4.24062 22.6553 4.59919 22.6553 4.96196V13.2289C22.6553 14.1821 22.6182 15.1374 22.5549 16.0815H26.7386C26.6577 15.1374 26.6228 14.1821 26.6228 13.2289V4.96196Z" fill="white"/>
<path d="M7.79091 23.7575C18.8123 21.2874 30.2663 19.9825 42.0263 19.9825C58.6283 19.9825 74.6485 22.4722 89.74 27.1019C89.7969 27.1194 89.8296 27.1719 89.8186 27.2352C89.8056 27.2943 89.7422 27.3402 89.6833 27.3271C74.1743 24.7674 58.2893 23.3073 42.1072 23.0252C30.5482 22.8219 19.1269 23.2306 7.86519 24.2055C7.75158 24.2165 7.65096 24.1444 7.62041 24.033C7.59205 23.9105 7.66852 23.7859 7.79091 23.7575Z" fill="white"/>
</g>
</g>
<defs>
<clipPath id="clip0_10804_1281">
<rect width="90" height="27.0081" fill="white" transform="translate(0 0.500488)"/>
</clipPath>
</defs>
</svg>
