<svg width="200" height="41" viewBox="0 0 200 41" fill="none" xmlns="http://www.w3.org/2000/svg">
<path d="M194.867 18.604V31.7207H190.05V19.4707C190.05 16.4874 188.767 14.8207 186.267 14.8207C183.767 14.8207 182.117 16.5707 181.65 19.504C181.517 20.204 181.484 21.2874 181.484 23.5707V31.704H176.667V10.8707H180.934C180.95 11.054 181.05 12.9207 181.05 13.0374C181.05 13.1874 181.234 13.2707 181.35 13.1707C183.117 11.7707 185.067 10.4707 187.784 10.4707C192.25 10.4707 194.867 13.4874 194.867 18.604Z" fill="white"/>
<path d="M168.9 10.8873L168.75 13.2706C168.733 13.4206 168.55 13.504 168.45 13.404C167.867 12.854 165.717 10.4873 162.067 10.4873C156.833 10.4873 152.983 15.004 152.983 21.1373C152.983 27.354 156.8 31.8873 162.067 31.8873C165.583 31.8873 167.733 29.604 168.133 29.104C168.25 28.9706 168.467 29.054 168.467 29.2206C168.417 29.854 168.333 31.4373 167.8 32.7873C167.133 34.4873 165.633 36.0706 162.617 36.0706C160.133 36.0706 157.933 35.1206 155.85 33.0873L153.333 36.5373C155.617 39.1206 159.217 40.5706 163.133 40.5706C169.433 40.5706 173.217 36.254 173.217 29.204V10.8873H168.9ZM163.1 27.5206C159.983 27.5206 157.783 24.8206 157.783 21.1373C157.783 17.454 159.983 14.8206 163.1 14.8206C166.217 14.8206 168.417 17.4373 168.417 21.1373C168.4 24.8373 166.2 27.5206 163.1 27.5206Z" fill="white"/>
<path d="M142.917 25.5372C142.917 29.4872 139.6 32.1372 134.733 32.1372C130.917 32.1372 127.517 30.6539 125.483 28.5372L127.067 24.7706C128.6 26.1539 131.067 28.1372 134.583 28.1372C137.033 28.1372 138.45 27.0539 138.45 25.6872C138.45 24.1039 136.5 23.6872 134.167 23.2372C130.85 22.5372 126.45 21.4039 126.45 16.8872C126.45 13.1039 129.517 10.5039 134.05 10.5039C137.533 10.5039 140.533 11.8372 142.6 13.5706L140.233 16.8872C138.233 15.3039 136.133 14.5206 134.05 14.5206C131.967 14.5206 130.933 15.3872 130.933 16.6372C130.933 18.3872 133.183 18.8372 134.833 19.1706C138.983 19.9706 142.917 21.2206 142.917 25.5372Z" fill="white"/>
<path d="M72.4829 10.4707C66.5995 10.4707 62.3662 15.0374 62.3662 21.304C62.3662 27.5707 66.5995 32.1374 72.4829 32.1374C78.3662 32.1374 82.6162 27.5707 82.6162 21.304C82.6162 15.0374 78.3829 10.4707 72.4829 10.4707ZM72.4829 27.7707C69.3662 27.7707 67.1662 25.1207 67.1662 21.2874C67.1662 17.4707 69.3162 14.804 72.4829 14.804C75.6329 14.804 77.7995 17.454 77.7995 21.2874C77.7995 25.1207 75.5995 27.7707 72.4829 27.7707Z" fill="white"/>
<path d="M84.3164 21.304C84.3164 15.1207 88.5497 10.4707 94.1997 10.4707C98.6831 10.4707 101.966 12.7207 103.5 16.954L99.2331 18.5707C98.0664 15.954 96.5331 14.8374 94.2164 14.8374C91.3164 14.8374 89.1497 17.5707 89.1497 21.3207C89.1497 25.054 91.2997 27.804 94.2164 27.804C96.5497 27.804 98.0664 26.6874 99.2331 24.0707L103.5 25.6874C101.966 29.9207 98.6831 32.1707 94.1997 32.1707C88.5497 32.1374 84.3164 27.4874 84.3164 21.304Z" fill="white"/>
<path d="M58.5661 1.2041C58.4828 1.2041 58.3828 1.22077 58.2995 1.27077L55.1661 2.93744C55.0995 2.97077 55.0661 3.03744 55.0661 3.1041V13.0208C55.0661 13.1874 54.8661 13.2541 54.7495 13.1541C54.2828 12.7541 53.1995 11.7374 51.6995 11.0374C50.9161 10.6708 49.7661 10.4708 48.7161 10.4708C43.4495 10.4708 39.6328 15.0374 39.6328 21.3041C39.6328 27.5708 43.4495 32.1374 48.7161 32.1374C51.4828 32.1374 53.5661 30.6874 54.8328 29.3874C54.9161 29.3041 54.9661 29.2541 55.0495 29.1708C55.1661 29.0541 55.3662 29.1208 55.3662 29.2874L55.5328 31.7208H59.8828V1.33743C59.8828 1.27077 59.8328 1.2041 59.7495 1.2041H58.5661ZM49.7495 27.7708C46.5995 27.7708 44.4328 25.1208 44.4328 21.2874C44.4328 17.4541 46.6495 14.8208 49.7495 14.8208C52.8661 14.8208 55.0661 17.4708 55.0661 21.3041C55.0661 25.1208 52.9161 27.7708 49.7495 27.7708Z" fill="white"/>
<path d="M148.583 10.9544L145.567 12.5544C145.5 12.5878 145.467 12.6544 145.467 12.7211V31.7211H150.283V11.0044C150.283 10.9378 150.233 10.8711 150.15 10.8711H148.85C148.75 10.8878 148.667 10.9044 148.583 10.9544Z" fill="white"/>
<path d="M147.867 7.5041C149.467 7.5041 150.767 6.2041 150.767 4.6041C150.767 3.0041 149.467 1.7041 147.867 1.7041C146.267 1.7041 144.967 3.0041 144.967 4.6041C144.967 6.2041 146.267 7.5041 147.867 7.5041Z" fill="white"/>
<path d="M123.75 10.8711V22.1878C123.75 30.7711 118.95 32.1211 114.666 32.1211C110.383 32.1211 105.583 30.7544 105.583 22.1878V10.8711H110.383V23.3878C110.383 24.6044 110.683 27.7711 114.666 27.7711C118.65 27.7711 118.95 24.6211 118.95 23.3878V10.8711H123.75Z" fill="white"/>
<path d="M197.617 29.5869V29.8869H196.934V31.7036H196.6V29.8869H195.917V29.5869H197.617ZM200 31.7036H199.667V30.0369L199.017 31.2869H198.834L198.184 30.0536V31.7036H197.85V29.5869H198.284L198.917 30.8036L199.55 29.5869H199.984L200 31.7036Z" fill="white"/>
<path d="M23.25 23.5711V31.8211C23.25 32.2544 22.9 32.6044 22.4667 32.6044H0.783333C0.35 32.6044 0 32.2544 0 31.8211V10.1544C0 9.72109 0.35 9.37109 0.783333 9.37109H9.01667V22.7878C9.01667 23.2211 9.36667 23.5711 9.8 23.5711H23.25Z" fill="white"/>
<path d="M32.2832 11.937C32.2832 18.8703 28.2332 23.5536 23.2499 23.5703V14.837C23.2499 14.587 23.1499 14.337 22.9665 14.1703L18.4332 9.63696C18.2499 9.45363 18.0165 9.35363 17.7665 9.35363H9.0332V1.12029C9.0332 0.686959 9.3832 0.336959 9.81654 0.336959H22.0332C27.8332 0.320292 32.2832 4.98696 32.2832 11.937Z" fill="white"/>
</svg>
