<svg width="200" height="49" viewBox="0 0 200 49" fill="none" xmlns="http://www.w3.org/2000/svg">
<g clip-path="url(#clip0_2393_29701)">
<path d="M34.0506 33.5152C31.2979 33.9197 29.9198 31.5923 30.8231 29.5838C31.5737 27.913 31.9436 26.1146 31.9436 24.2006C31.9431 22.2858 31.6036 20.5221 30.8518 18.8506C30.1851 17.2223 31.3027 14.4851 34.0562 14.8888C35.5334 15.1063 36.6828 13.7022 36.6828 11.7616C36.6828 9.82375 35.5334 7.9493 34.0562 7.56096C32.5053 7.1552 31.1913 8.52364 31.1913 10.6385C31.1913 14.325 29.1932 15.8118 27.58 14.4253C26.1564 13.1983 24.4942 12.407 22.5874 12.0986C20.5597 11.7713 18.5679 12.0861 16.7903 12.9117C14.9326 13.5907 11.4397 11.3005 11.4397 6.58979C11.4397 3.84489 9.12112 1.01065 6.08154 0.213286C2.82731 -0.640259 0.013566 1.14119 0.012369 4.24983C0.013167 7.3609 2.82692 10.2949 6.08073 10.7735C10.9138 11.4831 13.179 14.5663 12.2732 16.8364C10.9334 18.8381 10.1178 21.353 10.1175 24.2022C10.1175 26.912 10.8616 29.3142 12.0857 31.2666C12.9296 33.2182 11.0623 36.8813 6.07116 37.6152C2.81575 38.0912 0.000797998 41.0262 0 44.1364C0 47.2463 2.81495 49.0281 6.07041 48.1749C9.10956 47.3776 11.4294 44.5442 11.4294 41.7984V41.7972C11.4305 37.2192 14.3134 34.6161 16.5409 35.3626C18.3815 36.2787 20.4631 36.6489 22.5881 36.305C24.4854 35.9987 26.1293 35.2312 27.5485 34.0143C28.8715 32.9627 31.1854 34.0794 31.1854 37.7651C31.1854 39.8796 32.4993 41.2517 34.051 40.8435C35.5277 40.455 36.6776 38.5819 36.6776 36.642C36.6776 34.7022 35.5273 33.2977 34.0506 33.5152ZM22.4983 31.7657C18.5914 32.2118 15.0699 28.8474 15.0699 24.2018C15.0699 19.557 18.5914 16.1937 22.4983 16.6399C25.9929 17.0389 28.566 20.4086 28.566 24.2006C28.566 27.9951 25.9929 31.3663 22.4983 31.7657Z" fill="white"/>
<path d="M34.8818 16.9232H38.8706V18.6424L39.0694 18.4133L39.3227 18.098C40.2563 17.0953 41.2467 16.6371 42.5199 16.5801H43.0011V20.2464C42.8024 20.1894 42.6045 20.1608 42.4066 20.1321C40.1438 19.9308 39.0406 21.1068 39.0406 23.37V31.7636H34.8818V16.9232Z" fill="white"/>
<path d="M47.2079 16.7229C46.3873 16.7807 45.6522 16.8373 44.8036 16.9804V20.1892C45.0294 20.1322 45.2573 20.1039 45.4823 20.0752C47.0667 19.874 48.4808 19.874 49.3857 19.9892C51.7897 20.2761 52.7517 21.2218 52.7517 22.7401V23.7707C51.9884 23.1973 51.0826 22.8545 49.7244 22.7103C49.0737 22.6246 48.4238 22.6533 47.7733 22.7401C44.6057 23.1399 42.8222 25.0883 42.7671 27.4096C42.6529 29.7876 44.7474 31.9929 48.2832 31.9929C49.8381 32.0216 51.0539 31.6204 52.1858 30.8185C52.3275 30.7038 52.4978 30.5611 52.6379 30.4463V31.7642H56.7401V22.9976C56.7396 18.7286 54.0801 16.4655 47.2079 16.7229ZM51.8746 28.8702C51.5076 29.1293 51.0539 29.3002 50.4035 29.3867C50.0647 29.4437 49.7248 29.4437 49.3577 29.4154C47.7449 29.2719 46.9234 28.4115 46.8975 27.3526C46.9818 26.0056 48.2261 25.003 50.4035 25.2903C51.1955 25.3752 51.8467 25.6912 52.2433 26.0634C53.0341 26.8083 52.9208 28.1835 51.8746 28.8702Z" fill="white"/>
<path d="M59.8594 16.9227H63.8475V18.528C63.9599 18.4128 64.0751 18.298 64.1864 18.1833C65.3459 17.1526 66.5345 16.6657 67.9486 16.637C71.5119 16.5505 73.7189 18.9854 73.7189 23.2265V31.7639H69.5616V23.77C69.5897 21.5921 68.8254 20.4755 67.3259 20.0746C65.2616 19.5589 64.0162 20.7042 64.0162 22.9969V31.7635H59.8594V16.9227Z" fill="white"/>
<path d="M87.5183 16.9219V18.6411C85.7648 16.521 82.0313 16.0917 79.1745 18.1545C77.6183 19.2715 76.5432 20.9903 76.2318 22.9961C76.1486 23.4827 76.1199 23.9419 76.1199 24.4284C76.0907 24.887 76.1199 25.3741 76.175 25.8324C76.4864 28.4399 77.9578 30.4735 80.1637 31.4766C82.9637 32.7662 85.8216 32.1074 87.3205 30.3599V31.4487C87.3205 33.6246 85.9627 34.8851 82.9637 34.9433C82.1724 34.9715 81.381 34.8572 80.5886 34.6277V38.2953C81.4653 38.4379 82.3135 38.496 83.1616 38.496C88.7621 38.4108 91.5076 35.8308 91.5076 31.6766V16.9219H87.5183ZM87.5183 25.0305C87.2924 27.006 86.2178 28.2382 84.6621 28.4969C82.3989 28.8978 80.6453 27.522 80.3621 25.001C80.3345 24.7706 80.3059 24.5718 80.3059 24.3415C80.3059 24.1127 80.3351 23.884 80.3621 23.654C80.6453 21.3622 81.9735 20.1017 83.927 20.1017C85.8773 20.1017 87.2362 21.3622 87.5183 23.6835C87.5751 24.1131 87.5751 24.5718 87.5183 25.0305Z" fill="white"/>
<path d="M108.929 24.2487C108.854 19.8993 105.943 16.8024 101.787 16.5025C100.774 16.4418 99.7677 16.562 98.8217 16.8799C98.5596 16.9694 98.3017 17.0789 98.0552 17.1928C95.4298 18.4274 93.6055 21.1352 93.6055 24.268C93.6055 26.9087 94.899 29.2354 96.8779 30.6422L96.9087 30.6611C97.6336 31.1567 98.465 31.5522 99.3866 31.8178C102.348 32.6916 105.163 31.9103 107.351 29.6307C107.48 29.4912 107.574 29.3695 107.703 29.2273L104.54 27.0122C104.462 27.0785 104.411 27.1532 104.333 27.2186C103.739 27.8487 103.161 28.2165 102.524 28.3867C101.461 28.6995 100.429 28.6028 99.6228 28.128C98.4806 27.4919 97.8633 26.3547 97.9347 25.3912L108.876 25.4566C108.904 25.0473 108.926 24.6654 108.929 24.2487ZM98.1039 22.7558C98.1671 22.5359 98.205 22.308 98.2936 22.0958C98.8763 20.4776 100.273 19.5166 101.876 19.572C103.66 19.6204 104.94 20.8034 105.161 22.3908L105.207 22.6431L105.214 22.8249L98.1039 22.7558Z" fill="white"/>
<path d="M110.135 16.9228H111.778V13.1408L113.897 12.2529V16.9228H117.83L117.433 18.4994H113.898V26.3203L113.928 26.5776L113.955 27.6947C113.983 29.443 115.059 30.3891 117.264 30.2465C117.433 30.2465 117.604 30.2166 117.774 30.1886V31.8493C117.605 31.8779 117.433 31.9063 117.264 31.9063C113.107 32.2514 111.779 30.7896 111.779 26.3772V18.4994H109.882L110.135 16.9228Z" fill="white"/>
<path d="M119.61 11.8579L121.76 10.9951V19.3293C122.014 18.9578 122.326 18.6131 122.664 18.2991C123.487 17.5252 124.476 17.0095 125.577 16.7803C129.849 15.8634 133.019 18.6426 133.019 23.1412V31.7646H130.869V23.8564C130.869 20.2172 129.228 18.3844 126.371 18.4414C123.514 18.4709 121.76 20.3901 121.76 23.4834V31.7639H119.61V11.8579Z" fill="white"/>
<path d="M171.218 16.9234H173.31V19.0157C173.395 18.9008 173.453 18.7861 173.539 18.6713C174.555 17.239 175.856 16.5229 177.553 16.4941C177.751 16.4941 177.95 16.4941 178.149 16.5229V18.5569C177.95 18.5286 177.723 18.5 177.496 18.5C176.196 18.4421 175.065 18.9008 174.3 19.7601C173.65 20.5332 173.368 21.3357 173.368 22.6538V31.7643H171.218V16.9234Z" fill="white"/>
<path d="M197.304 11.4434C198.822 11.4434 200 12.638 200 14.126C200 15.6485 198.822 16.8266 197.287 16.8266C195.767 16.8266 194.558 15.648 194.558 14.126C194.558 12.638 195.767 11.4434 197.287 11.4434H197.304ZM197.271 11.983C196.107 11.983 195.235 12.9485 195.235 14.1257C195.235 15.3203 196.107 16.2696 197.304 16.2696C198.466 16.2854 199.323 15.3203 199.323 14.1257C199.323 12.948 198.466 11.983 197.286 11.983H197.271ZM196.867 15.5171H196.253V12.8506C196.496 12.8005 196.834 12.7516 197.271 12.7516C197.772 12.7516 197.998 12.8337 198.192 12.9646C198.337 13.0793 198.45 13.2923 198.45 13.5372C198.45 13.848 198.224 14.0772 197.9 14.1749V14.2078C198.159 14.2898 198.305 14.5027 198.385 14.8624C198.465 15.2714 198.514 15.4351 198.578 15.5171H197.917C197.835 15.4193 197.787 15.1902 197.707 14.8793C197.659 14.5844 197.496 14.4534 197.157 14.4534H196.866V15.5171H196.867ZM196.882 14.0121H197.174C197.513 14.0121 197.788 13.8973 197.788 13.6193C197.788 13.3735 197.609 13.2103 197.222 13.2103C197.061 13.2103 196.948 13.226 196.882 13.2431V14.0121Z" fill="white"/>
<path d="M161.87 16.5234C156.524 15.7494 152.621 19.2452 152.621 24.2876C152.621 29.3297 156.524 32.8255 161.87 32.0516C165.885 31.4502 168.376 28.4414 168.376 24.2876C168.376 20.1336 165.885 17.1255 161.87 16.5234ZM161.501 30.2742C160.832 30.3918 160.163 30.3918 159.523 30.2742C156.581 29.7718 154.718 27.4723 154.718 24.2873C154.718 22.37 155.358 20.8371 156.523 19.7451C157.542 18.772 158.911 18.2414 160.512 18.2414C162.112 18.2414 163.483 18.772 164.501 19.7451C165.402 20.6003 165.957 21.6619 166.19 22.9891C166.831 26.7646 164.821 29.6838 161.501 30.2742Z" fill="white"/>
<path d="M179.897 16.9189H182.048V25.0281C182.048 28.1504 183.093 29.6113 185.526 30.0692C186.176 30.1852 186.827 30.1852 187.478 30.041C189.938 29.5823 191.069 28.093 191.069 25.4858V16.9189H193.192V31.1298C193.192 35.226 190.249 37.9197 184.253 37.5482C183.885 37.5482 183.547 37.4905 183.206 37.461V35.6277C183.547 35.6859 183.885 35.713 184.225 35.7425C188.892 35.9999 191.042 34.0819 191.042 30.7576V29.4105C190.929 29.5818 190.787 29.7262 190.674 29.8692C189.402 31.3015 187.932 31.9598 185.893 31.9598C183.096 31.9598 181.42 30.5854 180.577 29.0443C180.443 28.7987 180.33 28.4867 180.238 28.167C180 27.3493 179.897 26.4203 179.897 25.3468V16.9189Z" fill="white"/>
<path d="M150.337 24.9012C150.366 24.5828 150.368 24.2555 150.363 23.9568C150.168 19.3492 146.267 16.0413 141.73 16.719C139.066 17.1224 136.924 18.8068 135.915 21.2875L135.926 21.2506C135.555 22.1955 135.355 23.2528 135.355 24.3888C135.355 28.0972 137.481 30.9581 140.733 31.8593L140.737 31.8549C143.134 32.5346 145.724 32.1313 147.696 30.7277C148.286 30.3005 148.802 29.8217 149.248 29.2644L147.651 28.1271C147.56 28.2503 147.448 28.3373 147.364 28.4327C145.352 30.3906 142.678 30.8219 140.472 29.6612C138.7 28.741 137.674 27.1426 137.555 25.2334C137.558 25.1151 137.562 24.9974 137.573 24.8515L150.337 24.9012ZM137.917 22.1228C138.723 19.7339 140.74 18.2822 143.17 18.317C145.563 18.3711 147.47 19.8641 148.077 22.0295C148.159 22.2609 148.207 22.5132 148.228 22.7561L148.269 23.0361L148.282 23.3073L137.693 23.2496C137.712 22.8685 137.817 22.4817 137.917 22.1228Z" fill="white"/>
<path d="M99.7803 48.3887H101.691V44.0236H106.674V42.3004H101.691V39.8396H106.779V38.1172H99.7803V48.3887Z" fill="white"/>
<path d="M113.24 38.1172H111.33V48.3887H113.24V38.1172Z" fill="white"/>
<path d="M117.509 39.8396H120.532V48.3887H122.442V39.8396H125.464V38.1172H117.509V39.8396Z" fill="white"/>
<path d="M136.65 45.1173L131.69 38.1507L131.668 38.1172H129.751V48.3887H131.661V41.1931L136.725 48.3548L136.749 48.3887H138.56V38.1172H136.65V45.1173Z" fill="white"/>
<path d="M143.772 48.3887H150.77V46.666H145.682V44.0236H150.665V42.3004H145.682V39.8396H150.77V38.1172H143.772V48.3887Z" fill="white"/>
<path d="M159.304 42.1523L159.291 42.1486C158.15 41.8561 157.165 41.6031 157.165 40.8812C157.165 40.1659 157.796 39.704 158.775 39.704C159.883 39.704 160.888 40.1044 161.607 40.8324L161.671 40.8974L162.773 39.4482L162.721 39.3981C161.752 38.4476 160.475 37.9658 158.925 37.9658C156.772 37.9658 155.209 39.2428 155.209 41.0025C155.209 43.2071 157.209 43.709 158.815 44.1119L158.838 44.118C160.015 44.4268 161.03 44.6935 161.03 45.5346C161.03 46.1335 160.526 46.833 159.105 46.833C157.512 46.833 156.479 45.9754 156.005 45.4642L155.939 45.3926L154.871 46.89L154.916 46.9386C155.903 48.0067 157.326 48.5709 159.029 48.5709C160.935 48.5709 162.97 47.7294 162.97 45.3676C162.971 43.0972 160.938 42.573 159.304 42.1523Z" fill="white"/>
<path d="M171.288 42.1523L171.275 42.1486C170.134 41.8561 169.148 41.6031 169.148 40.8812C169.148 40.1659 169.78 39.704 170.76 39.704C171.867 39.704 172.873 40.1044 173.592 40.8324L173.655 40.8974L174.758 39.4482L174.706 39.3981C173.737 38.4476 172.46 37.9658 170.909 37.9658C168.757 37.9658 167.194 39.2428 167.194 41.0025C167.194 43.2071 169.194 43.709 170.8 44.1119L170.823 44.118C171.999 44.4268 173.014 44.6935 173.014 45.5346C173.014 46.1335 172.51 46.833 171.09 46.833C169.496 46.833 168.463 45.9754 167.99 45.4642L167.924 45.3926L166.855 46.89L166.9 46.9386C167.887 48.0067 169.31 48.5709 171.013 48.5709C172.919 48.5709 174.954 47.7294 174.954 45.3676C174.954 43.0972 172.921 42.573 171.288 42.1523Z" fill="white"/>
</g>
<defs>
<clipPath id="clip0_2393_29701">
<rect width="200" height="48.5709" fill="white"/>
</clipPath>
</defs>
</svg>
