<svg width="200" height="42" viewBox="0 0 200 42" fill="none" xmlns="http://www.w3.org/2000/svg">
<mask id="mask0_2393_29674" style="mask-type:luminance" maskUnits="userSpaceOnUse" x="9" y="16" width="18" height="15">
<path d="M9.64258 16.4338L9.64947 25.952L18.0925 30.811L26.5355 25.9382L26.5287 16.4131L18.0856 21.3066L9.64258 16.4338Z" fill="white"/>
</mask>
<g mask="url(#mask0_2393_29674)">
<path d="M26.8184 16.1445H9.37402V31.087H26.8184V16.1445Z" fill="white"/>
</g>
<path d="M20.291 10.0307L28.7892 14.9174L28.7754 35.7665L36.1088 31.5277L36.0881 10.6924L27.5899 5.79199L20.291 10.0307Z" fill="white"/>
<path d="M25.3636 4.51012L18.0371 0.285156L0 10.727L0.0137845 20.5278L7.34027 24.7527L7.32649 14.9381L25.3636 4.51012Z" fill="white"/>
<path d="M26.542 28.6054L26.5489 37.0692L18.0714 41.9558L0.0205643 31.5622L0.0136719 23.1123L18.0645 33.5059L26.542 28.6054Z" fill="white"/>
<path d="M119.546 12.1059C119.48 12.1058 119.416 12.1318 119.368 12.1781C119.32 12.2244 119.293 12.2875 119.291 12.354V23.9537C119.291 23.9642 119.289 23.9747 119.285 23.9844C119.28 23.9941 119.274 24.0027 119.266 24.0099C119.259 24.017 119.249 24.0224 119.239 24.0258C119.229 24.0292 119.219 24.0304 119.208 24.0295C119.191 24.0364 119.171 24.0364 119.153 24.0295L107.671 12.1127C107.62 12.0485 107.551 12.0019 107.472 11.9796C107.393 11.9574 107.31 11.9607 107.233 11.9891C107.156 12.0174 107.091 12.0694 107.046 12.1374C107 12.2055 106.978 12.2861 106.981 12.3678V31.5627C106.98 31.5965 106.986 31.6301 106.999 31.6614C107.011 31.6928 107.03 31.7213 107.054 31.7452C107.078 31.7691 107.106 31.7878 107.138 31.8003C107.169 31.8128 107.203 31.8187 107.236 31.8178H109.931C109.999 31.8178 110.064 31.7909 110.112 31.7431C110.159 31.6952 110.186 31.6304 110.186 31.5627V20.1078C110.186 20.0963 110.189 20.085 110.193 20.0745C110.198 20.0639 110.204 20.0545 110.213 20.0467C110.221 20.0389 110.231 20.033 110.242 20.0293C110.253 20.0256 110.264 20.0241 110.276 20.0251H110.324L121.834 32.2726C121.885 32.3369 121.954 32.3835 122.033 32.4058C122.112 32.428 122.195 32.4247 122.272 32.3963C122.348 32.368 122.414 32.316 122.459 32.248C122.505 32.1799 122.527 32.0993 122.523 32.0176V12.3333C122.523 12.2675 122.497 12.2044 122.451 12.1579C122.404 12.1113 122.341 12.0852 122.275 12.0852H119.518L119.546 12.1059ZM199.731 28.4681H188.365C188.354 28.4702 188.343 28.4697 188.332 28.4668C188.321 28.464 188.311 28.4587 188.303 28.4514C188.294 28.4442 188.287 28.4351 188.283 28.4249C188.278 28.4147 188.276 28.4035 188.276 28.3923V23.4988C188.277 23.4762 188.288 23.4552 188.304 23.4398C188.321 23.4245 188.343 23.416 188.365 23.4161H196.994C197.063 23.4162 197.13 23.3897 197.18 23.3423C197.23 23.2948 197.26 23.2299 197.263 23.1611L197.305 20.4524C197.305 20.3811 197.276 20.3127 197.226 20.2623C197.176 20.2119 197.107 20.1836 197.036 20.1836H188.358C188.348 20.1846 188.337 20.1833 188.327 20.1799C188.317 20.1766 188.308 20.1711 188.3 20.164C188.293 20.1568 188.286 20.1482 188.282 20.1385C188.278 20.1288 188.276 20.1183 188.276 20.1078V15.2143C188.276 15.1917 188.284 15.1699 188.3 15.1532C188.315 15.1366 188.336 15.1264 188.358 15.1247H199.703C199.737 15.1256 199.77 15.1199 199.801 15.1079C199.833 15.0959 199.861 15.0779 199.886 15.0549C199.91 15.0318 199.929 15.0042 199.943 14.9736C199.957 14.943 199.964 14.91 199.965 14.8765V12.1679C199.966 12.1329 199.96 12.0981 199.947 12.0655C199.934 12.033 199.915 12.0033 199.891 11.9782C199.866 11.9532 199.837 11.9333 199.805 11.9197C199.773 11.9061 199.738 11.8991 199.703 11.8991H185.229C185.159 11.8991 185.092 11.9264 185.042 11.9754C184.991 12.0243 184.962 12.0909 184.961 12.161V31.4594C184.96 31.4949 184.966 31.5303 184.979 31.5633C184.992 31.5964 185.012 31.6264 185.037 31.6515C185.062 31.6767 185.092 31.6965 185.125 31.7096C185.158 31.7228 185.194 31.7291 185.229 31.7282H199.703C199.771 31.7246 199.836 31.6945 199.882 31.6443C199.928 31.594 199.953 31.5277 199.951 31.4594L200 28.7369C199.994 28.6619 199.961 28.5918 199.906 28.5406C199.851 28.4894 199.778 28.461 199.703 28.4612M82.7137 28.5922H70.9968C70.9749 28.5922 70.9539 28.5835 70.9383 28.5679C70.9228 28.5524 70.9141 28.5314 70.9141 28.5095V23.6573C70.9141 23.6354 70.9228 23.6143 70.9383 23.5988C70.9539 23.5833 70.9749 23.5746 70.9968 23.5746H79.9154C79.9851 23.5748 80.0523 23.5486 80.1034 23.5013C80.1546 23.454 80.1859 23.3891 80.1911 23.3196L80.2325 20.6109C80.2289 20.5384 80.1976 20.47 80.145 20.42C80.0924 20.3699 80.0225 20.342 79.9499 20.3421H70.9899C70.9794 20.3431 70.9688 20.3418 70.9588 20.3385C70.9488 20.3351 70.9396 20.3296 70.9318 20.3225C70.924 20.3154 70.9178 20.3067 70.9136 20.297C70.9094 20.2873 70.9072 20.2769 70.9072 20.2663V15.3797C70.9086 15.3575 70.9176 15.3365 70.9326 15.3202C70.9477 15.3038 70.9679 15.2932 70.9899 15.2901H82.7068C82.7772 15.2904 82.8452 15.2645 82.8975 15.2173C82.9497 15.1701 82.9825 15.1051 82.9894 15.0351V12.3402C82.9858 12.2677 82.9545 12.1993 82.9019 12.1492C82.8493 12.0992 82.7794 12.0713 82.7068 12.0714H67.7506C67.7147 12.0695 67.6788 12.0749 67.6451 12.0871C67.6113 12.0994 67.5803 12.1183 67.554 12.1427C67.5276 12.1671 67.5065 12.1966 67.4917 12.2293C67.4769 12.262 67.4689 12.2974 67.468 12.3333V31.5627C67.4715 31.6353 67.5029 31.7037 67.5555 31.7537C67.6081 31.8038 67.678 31.8316 67.7506 31.8315H82.6723C82.7427 31.8319 82.8107 31.8059 82.863 31.7588C82.9153 31.7116 82.9481 31.6466 82.9549 31.5765L82.9963 28.8679C82.9866 28.7953 82.9515 28.7285 82.8972 28.6793C82.843 28.6301 82.7731 28.6017 82.6999 28.5991M95.5195 22.0032H90.502C90.48 22.0032 90.459 21.9944 90.4435 21.9789C90.428 21.9634 90.4193 21.9424 90.4193 21.9205V15.3659C90.4192 15.3451 90.427 15.3251 90.441 15.3097C90.455 15.2944 90.4744 15.2849 90.4951 15.2832H95.6229C96.0649 15.2805 96.503 15.3651 96.9122 15.5321C97.3213 15.6991 97.6935 15.9453 98.0073 16.2565C98.3211 16.5678 98.5703 16.9379 98.7407 17.3457C98.9111 17.7535 98.9992 18.1909 99.0001 18.6328C99.0001 18.7776 99.0001 18.9292 99.0001 19.0739C98.874 19.8944 98.456 20.6418 97.8228 21.1787C97.1897 21.7156 96.3841 22.0059 95.554 21.9963L95.5195 22.0032ZM98.0628 24.8635C98.0497 24.8494 98.0424 24.8309 98.0424 24.8118C98.0424 24.7926 98.0497 24.7741 98.0628 24.7601C99.4859 24.1963 100.667 23.1532 101.403 21.8109C102.139 20.4686 102.383 18.9115 102.093 17.4085C101.803 15.9055 100.997 14.551 99.8142 13.5791C98.6317 12.6071 97.1468 12.0787 95.616 12.0852H87.5038C87.4683 12.0842 87.4329 12.0905 87.3999 12.1037C87.3668 12.1169 87.3368 12.1366 87.3116 12.1618C87.2865 12.1869 87.2667 12.217 87.2536 12.25C87.2404 12.283 87.2341 12.3184 87.235 12.354V31.5765C87.235 31.6478 87.2634 31.7162 87.3138 31.7666C87.3642 31.817 87.4325 31.8453 87.5038 31.8453H90.2263C90.2612 31.8462 90.296 31.8402 90.3286 31.8274C90.3612 31.8147 90.3909 31.7955 90.4159 31.7711C90.441 31.7467 90.4609 31.7175 90.4745 31.6853C90.4881 31.653 90.4951 31.6184 90.4951 31.5834V25.1047C90.4951 25.0827 90.5038 25.0617 90.5193 25.0462C90.5348 25.0307 90.5558 25.022 90.5778 25.022H93.8516C93.8935 25.0214 93.935 25.0311 93.9723 25.0504C94.0095 25.0696 94.0415 25.0977 94.0653 25.1323L98.9795 31.7351C99.0017 31.7695 99.0324 31.7977 99.0686 31.817C99.1047 31.8363 99.1452 31.846 99.1862 31.8453H102.501C102.535 31.8462 102.568 31.8406 102.6 31.8286C102.631 31.8166 102.659 31.7986 102.684 31.7755C102.708 31.7525 102.728 31.7249 102.741 31.6943C102.755 31.6637 102.762 31.6307 102.763 31.5972C102.766 31.5662 102.763 31.535 102.754 31.5053C102.744 31.4757 102.729 31.4483 102.708 31.4249L98.0628 24.8635ZM181.459 28.5095H169.742C169.708 28.508 169.674 28.4939 169.649 28.4698C169.624 28.4457 169.608 28.4133 169.605 28.3785V12.2575C169.601 12.185 169.57 12.1166 169.517 12.0665C169.464 12.0165 169.395 11.9886 169.322 11.9887H166.455C166.419 11.9868 166.383 11.9922 166.349 12.0044C166.316 12.0167 166.285 12.0356 166.258 12.06C166.232 12.0844 166.211 12.1138 166.196 12.1466C166.181 12.1793 166.173 12.2147 166.172 12.2506V31.48C166.176 31.5526 166.207 31.6209 166.26 31.671C166.312 31.721 166.382 31.7489 166.455 31.7488H181.377C181.447 31.7492 181.515 31.7232 181.567 31.676C181.62 31.6289 181.652 31.5639 181.659 31.4938L181.701 28.7852C181.697 28.7113 181.666 28.6414 181.614 28.5891C181.562 28.5368 181.492 28.5059 181.418 28.5026M153.532 18.1642C153.517 18.1506 153.497 18.1431 153.477 18.1431C153.456 18.1431 153.437 18.1506 153.422 18.1642L151.126 23.1197C151.122 23.1287 151.119 23.1386 151.118 23.1487C151.117 23.1589 151.119 23.1691 151.122 23.1787C151.125 23.1884 151.13 23.1973 151.137 23.2049C151.144 23.2125 151.152 23.2187 151.161 23.2231H151.195H155.841C155.859 23.2226 155.877 23.2163 155.892 23.2052C155.907 23.1941 155.918 23.1787 155.923 23.1611C155.927 23.1429 155.927 23.1241 155.923 23.1059L153.532 18.1642ZM133.248 15.2625H130.201C130.168 15.2606 130.135 15.2716 130.109 15.2935C130.083 15.3153 130.067 15.3462 130.064 15.3797V28.4268C130.067 28.4609 130.083 28.4925 130.109 28.5154C130.134 28.5384 130.167 28.551 130.201 28.5508H133.475C134.416 28.5678 135.35 28.3869 136.217 28.02C137.083 27.6531 137.863 27.1083 138.505 26.4209C139.148 25.7335 139.639 24.9188 139.947 24.0295C140.254 23.1403 140.372 22.1963 140.292 21.2588C139.988 17.8264 136.818 15.2625 133.248 15.2625ZM153.167 11.8646C153.188 11.8157 153.219 11.7716 153.258 11.7349C153.297 11.6982 153.343 11.6697 153.393 11.651C153.443 11.6324 153.497 11.624 153.55 11.6264C153.603 11.6287 153.656 11.6418 153.704 11.6648C153.789 11.7076 153.857 11.7781 153.897 11.8646L163.367 31.3835C163.398 31.4475 163.402 31.5212 163.379 31.5884C163.356 31.6555 163.307 31.7107 163.243 31.7419C163.207 31.7513 163.169 31.7513 163.133 31.7419H160.038C159.987 31.7412 159.937 31.7259 159.894 31.6978C159.852 31.6697 159.818 31.63 159.797 31.5834L157.564 26.7588C157.545 26.7122 157.512 26.6723 157.471 26.6441C157.429 26.6159 157.38 26.6006 157.329 26.6003H149.748C149.697 26.6011 149.647 26.6164 149.604 26.6444C149.562 26.6725 149.528 26.7122 149.507 26.7588L147.287 31.5834C147.267 31.6298 147.233 31.6691 147.19 31.6961C147.147 31.7231 147.097 31.7367 147.046 31.7351H143.958C143.924 31.7369 143.889 31.7317 143.857 31.7197C143.824 31.7078 143.794 31.6893 143.769 31.6654C143.744 31.6415 143.724 31.6128 143.71 31.5809C143.697 31.549 143.69 31.5147 143.69 31.48C143.679 31.437 143.679 31.3921 143.69 31.3491L153.167 11.8646ZM133.22 12.0369C138.734 12.0369 143.448 16.1723 143.669 21.5345C143.698 22.8846 143.454 24.2267 142.953 25.4807C142.452 26.7346 141.704 27.8749 140.752 28.8333C139.801 29.7917 138.666 30.5487 137.416 31.0591C136.166 31.5694 134.826 31.8228 133.475 31.804H127.017C126.946 31.8022 126.879 31.7733 126.829 31.7233C126.779 31.6733 126.75 31.6059 126.748 31.5352V12.3057C126.748 12.2368 126.775 12.1704 126.822 12.1204C126.87 12.0703 126.935 12.0405 127.003 12.0369H133.241H133.22ZM64.3871 12.0921H61.2994C61.2481 12.092 61.1979 12.1069 61.155 12.1351C61.1121 12.1633 61.0784 12.2034 61.0582 12.2506L54.8551 24.6567C54.848 24.6642 54.8395 24.6702 54.83 24.6743C54.8205 24.6784 54.8103 24.6805 54.8 24.6805C54.7897 24.6805 54.7794 24.6784 54.77 24.6743C54.7605 24.6702 54.7519 24.6642 54.7448 24.6567L48.5418 12.3333C48.5083 12.2639 48.4567 12.2048 48.3924 12.1624C48.3281 12.1199 48.2535 12.0956 48.1765 12.0921H45.2059C44.9647 12.0921 44.8682 12.2644 44.9647 12.478L54.4623 32.0107C54.5073 32.1083 54.5891 32.1841 54.6898 32.2216C54.7906 32.2591 54.902 32.2551 54.9999 32.2106C55.0942 32.174 55.1707 32.1024 55.2135 32.0107L64.6559 12.478C64.6676 12.4414 64.6719 12.4028 64.6685 12.3645C64.6651 12.3262 64.6541 12.2889 64.6361 12.2549C64.6181 12.2209 64.5936 12.1908 64.5638 12.1664C64.5341 12.142 64.4998 12.1238 64.463 12.1127H64.3871" fill="white"/>
</svg>
