<svg xmlns="http://www.w3.org/2000/svg" width="20" height="20" viewBox="0 0 20 20" fill="currentColor">
  <path d="M17.5 12.0833V15.8333C17.5 16.7538 16.7538 17.5 15.8333 17.5H4.16667C3.24619 17.5 2.5 16.7538 2.5 15.8333V4.16667C2.5 3.24619 3.24619 2.5 4.16667 2.5H7.91667C8.14679 2.5 8.33333 2.68655 8.33333 2.91667V3.75C8.33333 3.98012 8.14679 4.16667 7.91667 4.16667H4.16667V15.8333H15.8333V12.0833C15.8333 11.8532 16.0199 11.6667 16.25 11.6667H17.0833C17.3135 11.6667 17.5 11.8532 17.5 12.0833ZM17.3167 2.91667L17.0917 2.69167C16.98 2.57535 16.8278 2.50668 16.6667 2.5H11.25C11.0199 2.5 10.8333 2.68655 10.8333 2.91667V3.75C10.8333 3.98012 11.0199 4.16667 11.25 4.16667H14.6583L7.625 11.2C7.54612 11.2782 7.50175 11.3847 7.50175 11.4958C7.50175 11.6069 7.54612 11.7134 7.625 11.7917L8.20833 12.375C8.28657 12.4539 8.39307 12.4982 8.50417 12.4982C8.61527 12.4982 8.72176 12.4539 8.8 12.375L15.8333 5.35V8.75C15.8333 8.98012 16.0199 9.16667 16.25 9.16667H17.0833C17.3135 9.16667 17.5 8.98012 17.5 8.75V3.33333C17.4955 3.17342 17.4299 3.02132 17.3167 2.90833V2.91667Z"  fill="currentcolor"/>
</svg>
