<?xml version="1.0" encoding="UTF-8"?>
<svg id="Layer_2" data-name="Layer 2" xmlns="http://www.w3.org/2000/svg" width="240" height="80" xmlns:xlink="http://www.w3.org/1999/xlink" viewBox="0 0 240 80">
  <defs>
    <style>
      .cls-1 {
        fill: #0052b4;
      }

      .cls-2 {
        fill: url(#linear-gradient-2);
      }

      .cls-3 {
        fill: url(#linear-gradient);
      }

      .cls-4, .cls-5 {
        fill: #d80027;
      }

      .cls-5, .cls-6 {
        fill-rule: evenodd;
      }

      .cls-7 {
        fill: #fff;
      }

      .cls-8 {
        fill: #f2f2f2;
      }

      .cls-9 {
        fill: #e8e8e8;
      }
    </style>
    <linearGradient id="linear-gradient" x1="190.15" y1="40.79" x2="199.82" y2="4.7" gradientUnits="userSpaceOnUse">
      <stop offset=".36" stop-color="#000" stop-opacity=".5"/>
      <stop offset=".75" stop-color="#000" stop-opacity="0"/>
    </linearGradient>
    <linearGradient id="linear-gradient-2" x1="196.63" y1="53.4" x2="206.15" y2="17.85" gradientTransform="translate(29.22 -70.39) rotate(21.87)" gradientUnits="userSpaceOnUse">
      <stop offset="0" stop-color="#000" stop-opacity=".5"/>
      <stop offset=".75" stop-color="#000" stop-opacity="0"/>
    </linearGradient>
  </defs>
  <g>
    <g id="Card-3">
      <path class="cls-9" d="M191.66,2.52l18.14,6.05c1.86.62,2.86,2.62,2.24,4.48l-9.24,27.68c-.62,1.86-2.62,2.86-4.48,2.24l-18.14-6.05c-1.86-.62-2.86-2.62-2.24-4.48l9.24-27.68c.62-1.86,2.62-2.86,4.48-2.24h0Z"/>
      <g id="Card-3-2" data-name="Card-3">
        <path class="cls-3" d="M191.66,2.52l18.14,6.05c1.86.62,2.86,2.62,2.24,4.48l-9.24,27.68c-.62,1.86-2.62,2.86-4.48,2.24l-18.14-6.05c-1.86-.62-2.86-2.62-2.24-4.48l9.24-27.68c.62-1.86,2.62-2.86,4.48-2.24h0Z"/>
      </g>
      <path class="cls-5" d="M202.55,25.25c-3.65,1.02-7.06,2.74-10.08,5.05-1.02-3.65-2.72-7.07-5.04-10.07,3.68-.94,7.12-2.66,10.07-5.04.94,3.68,2.66,7.1,5.04,10.06h0Z"/>
      <g id="Card-3-3" data-name="Card-3">
        <path class="cls-5" d="M194.08,8.87c-1.2.34-2.32.9-3.31,1.66-.34-1.2-.89-2.32-1.65-3.31,1.21-.31,2.34-.87,3.31-1.65.31,1.21.87,2.33,1.66,3.31h0Z"/>
      </g>
    </g>
    <g>
      <g id="Card-2">
        <path class="cls-8" d="M205.5,17.36l15.62,11.03c1.6,1.13,1.98,3.34.85,4.94l-16.83,23.84c-1.13,1.6-3.34,1.98-4.94.85l-15.62-11.03c-1.6-1.13-1.98-3.34-.85-4.94l16.83-23.84c1.13-1.6,3.33-1.99,4.94-.85h0Z"/>
        <path class="cls-6" d="M205.74,44.9c-2.14.31-4.11-1.2-4.42-3.33-.19,1.58-.2,3.09.46,4.04l-.51.74-6.04-4.26.51-.74c1.11.31,2.54-.21,3.95-.92-2.11.44-4.18-.94-4.62-3.05s.94-4.18,3.05-4.62c1.06-.22,2.15.02,3.03.63.07.04.14.1.2.15.47-2.11,2.55-3.45,4.66-2.98.53.12,1,.33,1.42.63s.78.68,1.07,1.13c1.14,1.84.58,4.24-1.26,5.39.07.04.14.08.2.13.89.62,1.47,1.58,1.62,2.65.3,2.13-1.19,4.1-3.32,4.41h0Z"/>
      </g>
      <g id="Card-2-2" data-name="Card-2">
        <path class="cls-2" d="M205.5,17.36l15.62,11.03c1.6,1.13,1.98,3.34.85,4.94l-16.83,23.84c-1.13,1.6-3.34,1.98-4.94.85l-15.62-11.03c-1.6-1.13-1.98-3.34-.85-4.94l16.83-23.84c1.13-1.6,3.33-1.99,4.94-.85h0Z"/>
      </g>
    </g>
    <g id="Card-2-3" data-name="Card-2">
      <path class="cls-6" d="M204.64,25.03c-.75.11-1.45-.42-1.55-1.17-.07.56-.07,1.09.16,1.42l-.18.26-2.13-1.5.18-.26c.39.11.89-.07,1.39-.32-.74.15-1.47-.33-1.62-1.07s.33-1.47,1.07-1.62c.37-.08.76,0,1.07.22.03.02.05.03.07.05.16-.74.9-1.21,1.64-1.05.19.04.35.12.5.22s.27.24.38.4c.4.65.21,1.49-.44,1.9.03.02.05.03.07.05.31.22.52.55.57.93.1.75-.42,1.44-1.17,1.55h0Z"/>
    </g>
    <g id="Card-2-4" data-name="Card-2">
      <path class="cls-6" d="M203.85,56.16c-.75.11-1.45-.42-1.55-1.17-.07.56-.07,1.09.16,1.42l-.18.26-2.13-1.5.18-.26c.39.11.89-.07,1.39-.32-.74.15-1.47-.33-1.62-1.07s.33-1.47,1.07-1.62c.37-.08.76,0,1.07.22.03.02.05.03.07.05.16-.74.9-1.21,1.64-1.05.19.04.35.12.5.22s.27.24.38.4c.4.65.21,1.49-.44,1.9.03.02.05.03.07.05.31.22.52.55.57.93.1.75-.42,1.44-1.17,1.55h0Z"/>
    </g>
  </g>
  <path class="cls-1" d="M192.17,38.72l-.28-9.93h0V6.55h-80.91v4.13c-4.18-3.32-9.33-5.08-15.15-5.08-11.77,0-21.48,8.02-24.83,19.44l-7.03-18.8h-20.12l-20.46,54.72h25.01l2.04-5.95h6.69l2.09,5.95h25.21l-.77-2.06c3.48,1.91,7.43,3.01,11.66,3.01,6.07,0,11.35-1.78,15.66-5.2v4.25h81.2v-22.24h0Z"/>
  <rect class="cls-4" x="46.01" y="22.65" width="18.31" height="23.78"/>
  <path class="cls-7" d="M116.01,11.59h33.78v12.16h-20.77v4.5h19.35v10.7h-19.35v4.81h21.05v12.16h-34.06V11.59Z"/>
  <path class="cls-7" d="M153.07,11.59h33.78v12.16h-20.77v4.5h19.35v10.7h-19.35v4.81h21.05v12.16h-34.06V11.59Z"/>
  <path class="cls-7" d="M74.77,33.88v-.13c0-13.24,9.22-23.12,21.05-23.12,8.71,0,14.6,4.75,17.94,11.53l-10.92,7.16c-1.47-3.17-3.56-5.38-7.19-5.38-4.47,0-7.41,4.37-7.41,9.69v.13c0,5.76,3.06,9.82,7.41,9.82,3.73,0,5.83-2.28,7.47-5.57l10.92,6.9c-3.34,6.59-8.88,11.97-18.73,11.97-10.98,0-20.54-9.25-20.54-22.99Z"/>
  <path class="cls-7" d="M60.47,11.28h-13.13l-16.69,44.65h14.15l2.04-5.95h13.86l2.09,5.95h14.37L60.47,11.28ZM57.23,38.76c-1.02,0-1.93-.5-2.62-1.05.44,1.48,1.05,3.15,1.83,4.32-1.75-.3-3.53-.32-5.3,0,.79-1.18,1.4-2.84,1.84-4.33-.7.55-1.61,1.05-2.63,1.05-2.55,0-4.34-1.78-4.34-4.33,0-2.81,2.22-4.62,4.36-6.38,1.01-.83,2.06-1.69,2.86-2.64.14-.16.33-.25.54-.25h.04c.21,0,.41.09.54.25.8.95,1.85,1.81,2.86,2.64,2.14,1.76,4.36,3.57,4.36,6.38,0,2.55-1.78,4.33-4.34,4.33Z"/>
  <g>
    <path class="cls-7" d="M87.76,77.66c-.97,0-1.81-.19-2.51-.57-.7-.38-1.24-.93-1.61-1.63-.37-.71-.56-1.53-.56-2.48,0-.7.11-1.35.32-1.92.21-.58.52-1.07.92-1.48.4-.41.9-.73,1.48-.94.58-.21,1.23-.32,1.96-.32.45,0,.89.05,1.33.16.44.1.82.25,1.15.45.21.13.36.28.44.46.08.18.1.35.07.53-.03.18-.1.33-.22.46s-.26.22-.43.26c-.17.04-.37,0-.58-.12-.26-.15-.53-.27-.81-.34-.28-.07-.57-.1-.87-.1-.58,0-1.06.11-1.45.34-.39.23-.68.55-.88.98-.19.43-.29.96-.29,1.59s.1,1.15.29,1.59c.19.44.49.77.88,1,.39.23.88.34,1.45.34.28,0,.56-.03.85-.1.29-.07.57-.18.83-.32.22-.11.42-.15.59-.12.17.03.32.11.43.23.12.13.19.28.23.45.03.18.02.35-.05.52-.07.17-.2.31-.39.43-.33.22-.72.38-1.17.5-.46.12-.92.17-1.39.17Z"/>
    <path class="cls-7" d="M92.43,77.64c-.24,0-.44-.05-.59-.16-.15-.11-.24-.26-.28-.45-.03-.19,0-.4.1-.63l3.32-7.26c.14-.28.3-.49.5-.62s.41-.19.65-.19.47.06.66.19c.19.13.35.34.49.62l3.32,7.26c.11.24.15.45.12.64-.03.18-.12.33-.27.44-.15.11-.34.16-.56.16-.29,0-.52-.07-.68-.2-.16-.13-.3-.35-.42-.64l-.77-1.79.8.55h-5.38l.8-.55-.76,1.79c-.14.29-.28.51-.41.64s-.35.2-.63.2ZM96.13,70.56l-1.67,3.95-.35-.52h4.04l-.34.52-1.67-3.95h-.03Z"/>
    <path class="cls-7" d="M105.16,77.66c-.36,0-.73-.03-1.11-.08-.38-.05-.73-.13-1.07-.23-.33-.1-.63-.23-.9-.39-.2-.1-.33-.24-.41-.41-.08-.17-.1-.34-.08-.51s.09-.32.19-.46.24-.22.41-.26.36,0,.55.1c.36.19.75.33,1.17.43.42.09.83.14,1.25.14.62,0,1.07-.09,1.34-.28.28-.19.41-.43.41-.72,0-.26-.1-.46-.29-.6s-.53-.26-1-.36l-1.46-.31c-.83-.18-1.44-.48-1.83-.9-.4-.42-.59-.97-.59-1.65,0-.43.09-.82.26-1.18.18-.36.43-.66.75-.92.32-.25.71-.45,1.17-.58s.96-.2,1.51-.2c.47,0,.94.06,1.41.17.47.11.88.28,1.24.5.16.1.28.23.34.39.07.15.09.32.07.48-.02.17-.09.31-.19.43-.11.12-.24.19-.41.23s-.36,0-.59-.12c-.28-.15-.58-.25-.9-.32-.32-.06-.65-.1-.99-.1-.36,0-.67.05-.92.14-.25.1-.45.23-.57.39-.13.17-.19.37-.19.6s.09.44.26.59c.17.15.49.28.94.37l1.45.31c.85.18,1.49.47,1.9.87.42.4.63.93.63,1.58,0,.43-.09.82-.27,1.17s-.43.65-.75.89c-.32.24-.71.43-1.16.57-.45.13-.97.2-1.54.2Z"/>
    <path class="cls-7" d="M111.18,77.64c-.32,0-.56-.09-.74-.26-.17-.18-.26-.43-.26-.75v-7.27c0-.34.09-.59.26-.76.17-.17.42-.26.74-.26s.58.09.75.26c.17.17.26.43.26.76v7.27c0,.33-.08.58-.25.75-.17.18-.42.26-.75.26Z"/>
    <path class="cls-7" d="M114.95,77.64c-.3,0-.53-.08-.69-.24s-.24-.39-.24-.7v-7.37c0-.33.08-.57.24-.74.16-.17.37-.25.64-.25.23,0,.41.04.54.13s.27.23.43.43l4.53,5.78h-.36v-5.41c0-.29.08-.52.24-.68.16-.16.4-.24.71-.24.29,0,.52.08.68.24.16.16.24.39.24.68v7.46c0,.28-.07.51-.22.67-.15.16-.34.24-.59.24s-.43-.05-.57-.14c-.14-.09-.3-.23-.47-.43l-4.52-5.78h.35v5.41c0,.31-.08.54-.24.7-.16.16-.39.24-.69.24Z"/>
    <path class="cls-7" d="M127.96,77.66c-.89,0-1.67-.19-2.36-.58s-1.21-.93-1.58-1.64c-.37-.7-.56-1.53-.56-2.47,0-.7.11-1.35.32-1.92.21-.58.51-1.07.91-1.48.4-.41.87-.73,1.43-.94.55-.21,1.17-.32,1.84-.32.9,0,1.69.19,2.37.57s1.2.93,1.58,1.63c.37.7.56,1.52.56,2.46,0,.71-.11,1.36-.32,1.94-.21.58-.52,1.07-.92,1.49-.4.42-.88.73-1.43.95-.55.21-1.17.32-1.85.32ZM127.96,75.97c.51,0,.94-.12,1.3-.36.36-.24.63-.59.83-1.03s.29-.98.29-1.6c0-.95-.21-1.68-.64-2.2-.43-.52-1.02-.78-1.77-.78-.5,0-.93.12-1.29.35-.36.23-.64.57-.83,1.01s-.28.98-.28,1.62c0,.94.21,1.67.64,2.2.43.53,1.01.79,1.76.79Z"/>
  </g>
</svg>