<?xml version="1.0" encoding="UTF-8"?>
<svg id="Layer_1" data-name="Layer 1" xmlns="http://www.w3.org/2000/svg" width="200" height="40" viewBox="0 0 200 40">
  <g>
    <polygon points="23.215 26.713 12.584 31.644 12.739 18.548 23.215 13.463 23.215 26.713" fill="#0238a5"/>
    <polygon points="22.907 13.309 12.584 18.239 2.262 13.309 12.739 8.379 22.907 13.309" fill="#fff"/>
    <polygon points="12.276 31.644 1.953 26.713 2.108 13.771 12.276 18.548 12.276 31.644" fill="#d82920"/>
    <ellipse cx="9.58" cy="20.397" rx="1.001" ry="1.233"/>
    <ellipse cx="4.419" cy="24.865" rx=".924" ry="1.233"/>
    <ellipse cx="8.27" cy="13.155" rx="1.233" ry=".924"/>
    <ellipse cx="12.43" cy="10.998" rx="1.233" ry=".924"/>
    <ellipse cx="12.739" cy="15.158" rx="1.233" ry=".924"/>
    <ellipse cx="16.898" cy="13.309" rx="1.233" ry=".924"/>
    <ellipse cx="18.747" cy="22.399" rx=".924" ry="1.233"/>
    <path d="M12.522,31.883c-.302,0-.64-.043-1.004-.162l-.018-.006s-.492-.198-.579-.242c-1.027-.49-8.407-4.019-8.407-4.019-.043-.02-1.108-.533-1.007-1.862v-11.112c-.016-.497.041-1.122.398-1.3.078-.069.191-.149.354-.259.25-.169.505-.323.682-.411l8.757-4.179c.035-.024.076-.046.122-.06.268-.123,1.07-.379,2.17.274l.014.009c.006.003.017.007.027.012.028.012.065.028.103.051l8.412,3.998c.488.225.868.661,1.011,1.164.073.216.105.487.089.771v11.208c.001.042.023,1.251-1.152,1.745l-7.634,3.694h0c-.213.106-1.123.475-1.131.477-.273.083-.689.209-1.207.209ZM11.719,31.138c.738.239,1.306.106,1.824-.051.073-.028.901-.373,1.026-.433l.023-.012,7.658-3.705c.786-.327.781-1.138.781-1.172v-11.233s0-.009,0-.009c.012-.21-.009-.404-.062-.562,0-.001,0-.003-.001-.004l-9.56,4.454c-.512.247-1.113.248-1.647,0L2.167,13.855c-.032.156-.051.397-.044.616v11.146s0,.012,0,.012c-.073.903.627,1.254.657,1.268,0,0,7.38,3.528,8.413,4.021.056.027.416.175.527.219ZM2.649,13.401l9.374,4.452c.363.169.772.169,1.12,0l9.506-4.428c-.105-.104-.228-.19-.364-.253l-8.451-4.017-.018-.012c-.006-.003-.017-.007-.028-.012-.032-.014-.075-.032-.118-.06-.905-.535-1.5-.288-1.61-.233l-.067.033L3.211,13.063c-.162.081-.379.216-.562.338ZM12.078,8.812h0s0,0,0,0Z"/>
    <rect x="12.276" y="18.317" width=".616" height="13.404"/>
  </g>
  <path d="M182.734,15.628c-.043,0-.087-.008-.128-.025-.012-.005-.023-.01-.034-.017l-.826-.501-.792.43c-.008.004-.016.008-.024.011-.115.046-.248.023-.346-.059-.098-.081-.144-.205-.12-.324l.16-.77-.576-.72c-.075-.094-.096-.216-.055-.327.043-.117.145-.204.267-.229.008-.002.016-.003.024-.003l.768-.072s.009-.009.014-.013l.42-.616c.041-.071.138-.236.328-.236.002,0,.005,0,.007,0,.135.003.248.09.337.258l.342.642.893.13c.122.008.226.084.275.203.056.135.027.292-.072.391-.006.006-.012.011-.018.016l-.674.545.17.88c.022.13-.024.251-.121.329-.063.051-.14.077-.218.077ZM181.752,14.588c.042,0,.083.011.12.034l.696.422-.133-.689c-.003-.015-.004-.029-.004-.044,0-.104.038-.196.114-.271.006-.006.012-.011.018-.016l.514-.415-.682-.099c-.118-.008-.223-.079-.278-.189l-.309-.579-.402.591c-.018.026-.04.047-.065.064-.056.05-.128.08-.204.083l-.592.056.481.601c.01.013.019.026.026.041.04.08.04.153.04.196,0,.016-.002.032-.005.047l-.117.562.674-.365c.034-.019.072-.028.11-.028ZM182.524,13.104l.002.004s-.001-.003-.002-.004ZM182.415,13.047h0,0Z" fill="#d82920"/>
  <path d="M163.156,23.262c.847,0,1.51-.2,2.003-.601s.801-.878.955-1.402l3.174.216c-.154.632-.416,1.248-.77,1.818-.354.585-.786,1.079-1.31,1.51s-1.125.77-1.803,1.032-1.433.385-2.249.385-1.756-.169-2.558-.524c-.801-.339-1.495-.832-2.08-1.433-.585-.616-1.063-1.325-1.402-2.142-.339-.817-.524-1.71-.524-2.665s.169-1.833.524-2.65.817-1.541,1.402-2.157c.601-.616,1.294-1.094,2.08-1.433s1.649-.524,2.558-.524,1.525.123,2.188.385c.678.262,1.263.601,1.772,1.032s.955.94,1.31,1.51c.354.585.601,1.186.77,1.818l-3.174.216c-.092-.262-.2-.524-.354-.755-.154-.247-.354-.447-.601-.632-.247-.185-.524-.339-.832-.447-.324-.108-.678-.169-1.063-.169s-.924.092-1.356.277c-.431.185-.786.447-1.109.801-.324.339-.57.74-.755,1.202s-.277.971-.277,1.525.092,1.063.277,1.525.431.863.755,1.202c.324.339.693.601,1.109.801.416.185.878.293,1.356.293l-.015-.015Z" fill="#d82920"/>
  <path d="M179.38,20.319v5.716h-2.85v-5.192c0-.632-.169-1.125-.493-1.479-.324-.354-.77-.524-1.31-.524s-.971.185-1.31.524c-.324.354-.493.847-.493,1.479v5.192h-2.85v-10.539h-.786v-2.85h3.636v2.85h0v1.756c.185-.2.401-.37.663-.524.231-.123.508-.247.863-.354.339-.108.755-.169,1.233-.169s1.017.092,1.464.277c.462.185.847.462,1.171.832.324.354.585.801.77,1.294.2.508.293,1.079.293,1.71h0Z" fill="#d82920"/>
  <path d="M180.027,16.19h3.636v9.845h-2.85v-6.979h-.77v-2.85l-.015-.015Z" fill="#d82920"/>
  <path d="M187.869,12.647v13.389h-2.85v-10.523h-.77v-2.85h3.636l-.015-.015Z" fill="#d82920"/>
  <path d="M198.5,21.167c0,.108,0,.216-.015.324,0,.108-.031.2-.046.308,0,.108-.031.216-.046.324h-6.671c.108.37.339.709.693,1.017s.786.462,1.325.462.493-.031.693-.092c.185-.062.339-.139.462-.216.139-.092.247-.185.339-.324l2.958.216c-.123.401-.324.77-.57,1.14s-.57.693-.955.986-.817.524-1.325.693-1.063.247-1.71.247-1.294-.139-1.88-.385c-.585-.262-1.094-.616-1.541-1.079s-.801-1.001-1.063-1.602c-.262-.616-.385-1.279-.385-2.003s.139-1.387.385-2.003c.262-.616.616-1.156,1.063-1.602.447-.462.971-.817,1.572-1.079s1.248-.385,1.941-.385,1.279.123,1.864.354c.585.247,1.079.585,1.51,1.032.431.447.77.986,1.017,1.602.247.632.37,1.325.37,2.08l.015-.015ZM195.742,20.319c-.108-.431-.339-.801-.693-1.109s-.786-.478-1.325-.478-.971.154-1.325.478-.57.693-.693,1.109h4.037Z" fill="#d82920"/>
  <g>
    <path d="M35.11,23.205c.847,0,1.51-.2,2.003-.601s.801-.878.955-1.402l3.174.216c-.154.632-.416,1.248-.755,1.818-.354.585-.786,1.079-1.31,1.51s-1.125.77-1.803,1.032-1.433.385-2.249.385-1.756-.169-2.542-.524c-.801-.339-1.494-.832-2.08-1.433-.585-.616-1.063-1.325-1.402-2.142-.339-.817-.524-1.71-.524-2.665s.169-1.833.524-2.65.817-1.541,1.402-2.157c.601-.616,1.294-1.094,2.08-1.433s1.649-.524,2.542-.524,1.525.123,2.188.385,1.263.601,1.772,1.032c.508.431.955.94,1.31,1.51.354.585.601,1.186.77,1.818l-3.174.216c-.077-.262-.2-.524-.354-.755-.154-.247-.354-.447-.585-.632s-.524-.339-.832-.447c-.324-.108-.678-.169-1.063-.169s-.924.092-1.356.277c-.431.185-.801.447-1.109.801-.324.339-.57.74-.755,1.202s-.277.971-.277,1.525.092,1.063.277,1.525.431.863.755,1.202c.324.339.693.601,1.109.801.416.185.878.293,1.356.293l-.046-.015Z" fill="#0238a5"/>
    <path d="M50.286,20.047v5.932h-1.079c-.632,0-1.202-.37-1.464-.955-.247.2-.508.37-.801.524-.262.139-.555.262-.894.37-.339.108-.724.154-1.156.154-1.063,0-1.864-.262-2.434-.77s-.847-1.171-.847-1.972.092-.924.277-1.325c.185-.401.508-.74.955-1.032.447-.293,1.048-.508,1.787-.678s1.664-.247,2.789-.247c0-.478-.123-.847-.354-1.094-.247-.262-.539-.385-.909-.385s-.478.046-.647.154-.293.216-.385.324c-.108.139-.185.293-.231.462l-2.85-.216c.077-.478.231-.924.447-1.325s.493-.74.832-1.032c.339-.293.77-.508,1.263-.678s1.063-.247,1.695-.247,1.109.092,1.602.293c.493.2.924.478,1.279.832s.632.786.832,1.279c.2.493.293,1.032.293,1.602v.031ZM47.42,21.742c-.601,0-1.109.031-1.495.092s-.693.154-.909.262-.37.247-.447.401-.123.324-.123.508c0,.262.108.493.308.678.2.185.493.277.863.277.539,0,.971-.169,1.31-.493.339-.339.493-.77.493-1.294v-.431h0Z" fill="#0238a5"/>
    <path d="M58.883,21.68c.247.385.37.863.37,1.433s-.092.77-.262,1.14c-.185.37-.431.693-.77.986-.339.293-.755.524-1.233.693s-1.032.247-1.633.247c-1.325,0-2.326-.293-2.989-.863s-1.079-1.356-1.233-2.311l2.758-.216c.062.324.185.585.401.77s.493.277.863.277.647-.092.863-.262c.2-.169.308-.37.308-.585s-.123-.308-.37-.416-.555-.216-.924-.324-.77-.231-1.202-.37-.832-.324-1.202-.555-.678-.539-.924-.924-.37-.863-.37-1.433.077-.77.262-1.125c.169-.354.416-.678.724-.94s.709-.478,1.156-.647.971-.247,1.556-.247c1.263,0,2.234.277,2.897.847s1.079,1.263,1.233,2.111l-2.758.216c-.062-.216-.185-.401-.385-.585-.2-.169-.462-.262-.786-.262s-.57.077-.724.216-.231.324-.231.524.123.324.37.431c.247.092.555.2.924.308s.77.231,1.202.37.832.324,1.202.555.678.539.924.924h0l-.015.015Z" fill="#0238a5"/>
    <path d="M93.133,21.68c.247.385.37.863.37,1.433s-.092.77-.262,1.14c-.185.37-.431.693-.77.986-.339.293-.755.524-1.233.693s-1.032.247-1.633.247c-1.325,0-2.326-.293-2.989-.863s-1.079-1.356-1.233-2.311l2.758-.216c.062.324.185.585.401.77.216.185.493.277.863.277s.647-.092.863-.262c.2-.169.308-.37.308-.585s-.123-.308-.37-.416c-.247-.108-.555-.216-.924-.324s-.77-.231-1.202-.37-.832-.324-1.202-.555-.678-.539-.924-.924-.37-.863-.37-1.433.077-.77.262-1.125c.169-.354.416-.678.724-.94s.709-.478,1.156-.647.971-.247,1.556-.247c1.263,0,2.234.277,2.897.847s1.079,1.263,1.233,2.111l-2.758.216c-.062-.216-.185-.401-.385-.585-.2-.169-.462-.262-.786-.262s-.57.077-.724.216-.231.324-.231.524.123.324.37.431c.247.092.555.2.924.308s.77.231,1.202.37.832.324,1.202.555c.37.231.678.539.924.924h0l-.015.015Z" fill="#0238a5"/>
    <path d="M59.838,16.133h3.636v9.845h-2.85v-6.979h-.77v-2.85l-.015-.015ZM60.563,15.548v-2.958h2.958v2.958h-2.958Z" fill="#0238a5"/>
    <path d="M74.121,20.262v5.716h-2.85v-5.192c0-.632-.169-1.125-.493-1.479-.339-.354-.77-.524-1.31-.524s-.971.185-1.31.524c-.339.354-.493.847-.493,1.479v5.192h-2.85v-9.737h1.079c.632,0,1.202.37,1.464.955.231-.2.493-.37.786-.524.262-.123.555-.247.909-.354.354-.108.74-.169,1.171-.169s1.109.092,1.587.277c.478.185.894.462,1.233.832.339.354.616.801.801,1.294.185.508.293,1.079.293,1.71h-.015Z" fill="#0238a5"/>
    <path d="M84.829,21.11c0,.724-.123,1.387-.385,2.003s-.616,1.156-1.063,1.602-.971.817-1.572,1.079-1.248.385-1.941.385-1.34-.139-1.941-.385-1.125-.616-1.572-1.079c-.447-.462-.801-1.001-1.063-1.602s-.385-1.279-.385-2.003.123-1.387.385-2.003.616-1.156,1.063-1.602c.447-.462.971-.817,1.572-1.079.601-.262,1.248-.385,1.941-.385s1.34.123,1.941.385c.601.262,1.125.616,1.572,1.079s.801,1.001,1.063,1.602c.262.616.385,1.279.385,2.003ZM81.979,21.11c0-.74-.2-1.34-.616-1.772s-.909-.663-1.51-.663-1.094.216-1.51.663c-.416.431-.616,1.032-.616,1.772s.2,1.34.616,1.772.909.663,1.51.663,1.094-.216,1.51-.663c.401-.431.616-1.032.616-1.772Z" fill="#0238a5"/>
  </g>
  <g>
    <path d="M111.838,19.457c0,.955-.169,1.849-.524,2.665-.339.817-.817,1.541-1.402,2.142s-1.294,1.094-2.08,1.433c-.801.339-1.649.524-2.542.524s-1.756-.169-2.542-.524-1.495-.832-2.08-1.433c-.585-.616-1.063-1.325-1.402-2.142-.339-.817-.524-1.71-.524-2.665s.169-1.833.524-2.65.817-1.541,1.402-2.157,1.294-1.094,2.08-1.433c.801-.339,1.649-.524,2.542-.524s1.756.169,2.542.524c.801.339,1.495.832,2.08,1.433.585.616,1.063,1.34,1.402,2.157.339.832.524,1.71.524,2.65ZM108.772,19.457c0-.555-.092-1.063-.277-1.525s-.431-.863-.755-1.202c-.324-.339-.693-.601-1.109-.801s-.878-.277-1.356-.277-.924.092-1.356.277c-.431.185-.801.447-1.109.801-.324.339-.57.74-.755,1.202s-.277.971-.277,1.525.092,1.063.277,1.525.431.863.755,1.202c.324.339.693.601,1.109.801s.878.277,1.356.277.924-.092,1.356-.277c.431-.185.801-.447,1.109-.801.324-.339.57-.74.755-1.202s.277-.971.277-1.525Z" fill="#0238a5"/>
    <path d="M122.007,20.319v5.716h-2.85v-5.192c0-.632-.169-1.125-.493-1.479s-.77-.524-1.31-.524-.971.185-1.31.524c-.339.354-.493.847-.493,1.479v5.192h-2.85v-9.737h1.079c.632,0,1.202.37,1.464.955.231-.2.493-.37.786-.524.262-.123.555-.247.909-.354.354-.108.74-.169,1.171-.169s1.109.092,1.587.277c.478.185.894.462,1.233.832.339.354.616.801.801,1.294.185.508.277,1.079.277,1.71h0Z" fill="#0238a5"/>
    <path d="M125.766,12.647v13.389h-2.85v-10.523h-.77v-2.85h3.636l-.015-.015Z" fill="#0238a5"/>
    <path d="M126.721,16.19h3.636v9.845h-2.85v-6.979h-.77v-2.85h0l-.015-.015ZM127.445,15.605v-2.958h2.958v2.958h-2.958Z" fill="#0238a5"/>
    <path d="M141.004,20.319v5.716h-2.85v-5.192c0-.632-.169-1.125-.493-1.479s-.77-.524-1.294-.524-.971.185-1.294.524c-.339.354-.493.847-.493,1.479v5.192h-2.85v-9.737h1.079c.632,0,1.202.37,1.464.955.231-.2.493-.37.786-.524.262-.123.555-.247.909-.354.354-.108.74-.169,1.171-.169s1.109.092,1.587.277c.478.185.894.462,1.233.832.339.354.616.801.801,1.294.185.508.277,1.079.277,1.71h-.031Z" fill="#0238a5"/>
    <path d="M151.496,21.167c0,.108,0,.216-.015.324,0,.108-.031.2-.046.308,0,.108-.031.216-.046.324h-6.671c.108.37.339.709.693,1.017s.786.462,1.325.462.493-.031.693-.092c.185-.062.339-.139.447-.216.139-.092.262-.185.339-.324l2.958.216c-.123.401-.324.77-.57,1.14-.262.37-.57.693-.955.986s-.817.524-1.325.693-1.063.247-1.71.247-1.294-.139-1.88-.385c-.585-.262-1.094-.616-1.541-1.079s-.801-1.001-1.063-1.602-.385-1.279-.385-2.003.123-1.387.385-2.003.616-1.156,1.063-1.602c.447-.462.971-.817,1.572-1.079.601-.262,1.248-.385,1.941-.385s1.279.123,1.864.354c.585.247,1.079.585,1.51,1.032.431.447.77.986,1.017,1.602.247.632.37,1.325.37,2.08l.031-.015ZM148.753,20.319c-.108-.431-.339-.801-.693-1.109s-.786-.478-1.325-.478-.971.154-1.325.478c-.339.324-.57.693-.693,1.109h4.037Z" fill="#0238a5"/>
  </g>
</svg>