<svg width="164" height="90" viewBox="0 0 164 90" fill="none" xmlns="http://www.w3.org/2000/svg">
<ellipse cx="22.5711" cy="44.8582" rx="22.4266" ry="22.4266" fill="#080A1B"/>
<path d="M45.1355 44.6005C45.1747 49.7998 43.5872 54.301 40.6136 58.3275C39.4118 59.9582 38.0368 61.4269 36.4437 62.6946C33.9284 64.6995 31.1336 66.1459 28.0146 66.9613C26.5725 67.3355 25.1137 67.5588 23.6212 67.6259C18.9651 67.8381 14.6835 66.6653 10.7596 64.1746C7.24935 61.9519 4.56076 58.9641 2.59882 55.3062C1.6933 53.6196 0.989016 51.8605 0.569797 49.9952C0.267959 48.6717 0.0835032 47.3369 0.0276074 45.9743C-0.0282885 44.6172 -0.00593015 43.2602 0.156168 41.9143C0.435647 39.6134 1.12317 37.4298 2.12929 35.3356C4.4825 30.4323 8.11014 26.7688 12.9563 24.306C15.0245 23.2561 17.2212 22.5915 19.5241 22.262C20.6867 22.0945 21.8437 21.9604 23.0176 22.0107C26.8744 22.1727 30.4797 23.1946 33.7831 25.2163C36.3431 26.78 38.551 28.729 40.3844 31.108C42.5923 33.973 44.0735 37.1674 44.7499 40.7248C45.0014 42.0651 45.1411 43.4054 45.1355 44.6005ZM37.7014 30.1419C37.6846 30.1252 37.6623 30.1028 37.6455 30.0861C37.6064 30.0135 37.5505 29.9576 37.4778 29.9185C37.461 29.9018 37.4387 29.8794 37.4219 29.8627C37.4051 29.8459 37.3828 29.8236 37.366 29.8068C37.3493 29.7901 37.3269 29.7677 37.3101 29.751C37.1089 29.522 36.8853 29.321 36.6394 29.1367C36.4214 28.9021 36.181 28.7011 35.9239 28.5112C35.8289 28.3995 35.7283 28.2934 35.5885 28.232C35.5662 28.2152 35.5494 28.1985 35.527 28.1817C35.2532 27.9248 34.9513 27.707 34.6383 27.506C34.6159 27.4892 34.5936 27.4725 34.5768 27.4557C34.465 27.3384 34.3309 27.2491 34.1855 27.1765C34.0961 27.0704 33.9843 26.9978 33.8558 26.9475C33.811 26.8917 33.7607 26.847 33.6825 26.8358C33.6378 26.78 33.5819 26.7409 33.5092 26.7297C33.2856 26.551 33.0397 26.4058 32.7826 26.2829C32.6652 26.188 32.5366 26.1098 32.3913 26.0595C32.0503 25.8417 31.6982 25.6519 31.3293 25.5011C31.3181 25.4899 31.3069 25.4732 31.2901 25.462C28.8475 24.2501 26.2595 23.5744 23.543 23.4013C21.8885 23.2952 20.2395 23.4683 18.6186 23.8089C16.7572 24.1943 14.9853 24.8421 13.2917 25.7021C12.1458 26.2829 11.067 26.9643 10.0777 27.7852C9.60815 28.0923 9.18334 28.4498 8.79207 28.8463C8.76971 28.863 8.75295 28.8798 8.73059 28.8965C7.98717 29.4829 7.33878 30.1698 6.71275 30.8735C6.33825 31.2923 5.96374 31.7168 5.6675 32.197C5.65073 32.2194 5.63396 32.2361 5.61719 32.2585C5.57247 32.2752 5.5557 32.3143 5.55012 32.3534C5.53335 32.3758 5.51658 32.3981 5.49981 32.4148C5.43832 32.4539 5.3992 32.5098 5.38243 32.5768C5.08059 32.9398 4.82347 33.3363 4.60548 33.7496C4.47133 33.9227 4.35394 34.107 4.27569 34.3136C3.89001 34.9391 3.54904 35.5869 3.26957 36.2682C3.0907 36.5754 2.97332 36.9049 2.84476 37.2344C2.00073 39.3677 1.54797 41.5848 1.43059 43.8689C1.35793 45.3041 1.47531 46.7282 1.66536 48.1411C1.74361 48.7275 1.83863 49.3139 2.03986 49.8724L2.03427 49.8835L2.04545 49.8947C2.03427 50.0231 2.08457 50.1348 2.13488 50.2465L2.12929 50.2521C2.14047 50.4029 2.18519 50.5481 2.25226 50.6877L2.24667 50.6933C2.392 51.2629 2.57646 51.8214 2.81681 52.3631C2.86153 52.5418 2.9286 52.7149 3.02921 52.8713V52.8769C3.11306 53.0835 3.18572 53.2902 3.28074 53.4912C3.77263 54.5076 4.28128 55.5128 4.94085 56.4399C5.52776 57.3781 6.18733 58.2605 6.9531 59.0646C6.96987 59.087 6.99223 59.1093 7.009 59.1261C7.14874 59.3383 7.3276 59.5114 7.51765 59.679V59.6734C7.54001 59.6901 7.55678 59.7125 7.57913 59.7292C7.90333 60.0978 8.24429 60.444 8.63557 60.74C8.65792 60.7568 8.67469 60.7735 8.69705 60.7959C8.74177 60.8685 8.79766 60.9187 8.87033 60.9578C8.89269 60.9746 8.90945 60.9913 8.93181 61.0081C8.97094 61.0695 9.01566 61.1142 9.08832 61.131C9.11068 61.1477 9.12745 61.1645 9.14981 61.1812C9.22247 61.2817 9.31749 61.3543 9.4237 61.4102C9.44605 61.4269 9.46282 61.4437 9.48518 61.4604C9.50754 61.4772 9.52431 61.494 9.54667 61.5107C9.72553 61.6503 9.89881 61.7955 10.0777 61.9351C10.1951 62.0245 10.2901 62.1418 10.4354 62.1864C10.4578 62.2032 10.4801 62.22 10.4969 62.2367C10.9217 62.5662 11.3633 62.8734 11.8328 63.1358C11.8552 63.1805 11.8943 63.1917 11.939 63.1973C12.0173 63.281 12.1123 63.3313 12.2185 63.3648C12.6768 63.672 13.1631 63.9344 13.6718 64.1411C13.7389 64.2025 13.8115 64.2416 13.8954 64.2472C14.1245 64.3812 14.3649 64.5041 14.6276 64.5767C14.7953 64.6884 14.9853 64.7554 15.181 64.8056C15.7735 65.0737 16.3939 65.258 17.0144 65.4367C18.3447 65.8164 19.6974 66.0789 21.078 66.1906C22.4083 66.2967 23.733 66.2576 25.0522 66.0789C25.8794 65.9672 26.6955 65.8164 27.4948 65.5875C28.0314 65.4981 28.5512 65.3362 29.0599 65.1407C29.4679 65.0346 29.8592 64.8894 30.2393 64.6995C30.4349 64.6493 30.6194 64.5767 30.7927 64.4706C31.0498 64.3924 31.2901 64.2807 31.5193 64.1355C31.6032 64.1187 31.6814 64.0908 31.7429 64.0238C31.9609 63.94 32.1677 63.8283 32.3633 63.6943C32.8329 63.4709 33.28 63.214 33.6993 62.9069C33.7216 62.8901 33.744 62.8734 33.7663 62.8622C34.4427 62.4601 35.0631 61.9798 35.6668 61.466C35.9127 61.3041 36.1307 61.1142 36.3319 60.902C36.3487 60.8852 36.3711 60.8685 36.3878 60.8461C36.4102 60.8294 36.427 60.8126 36.4493 60.7959C37.4443 59.9414 38.3442 58.9976 39.1323 57.9477C39.1491 57.9254 39.1659 57.9086 39.1826 57.8863C39.2441 57.8472 39.2832 57.7969 39.3056 57.7299C39.3447 57.6797 39.3894 57.6294 39.4286 57.5736C39.5068 57.4786 39.5907 57.3948 39.6298 57.272C39.6913 57.2329 39.7304 57.177 39.7472 57.11C39.8031 57.0654 39.8422 57.0151 39.859 56.9425C39.954 56.842 40.0323 56.7359 40.0826 56.6074C40.2167 56.4566 40.3229 56.2835 40.4179 56.1048C40.4515 56.049 40.4906 55.9875 40.5241 55.9317C40.6247 55.82 40.703 55.6915 40.7533 55.5463C40.8539 55.4291 40.921 55.295 40.9713 55.1554C41.1166 54.9711 41.2228 54.7645 41.3123 54.5467C41.4464 54.3512 41.5582 54.1446 41.6309 53.9212C41.86 53.5135 42.0445 53.0891 42.201 52.6479C42.3072 52.4748 42.3743 52.2849 42.419 52.0839C42.5643 51.7823 42.6761 51.464 42.7544 51.1345C42.7879 51.0507 42.827 50.9669 42.8494 50.8776C43.0842 50.1181 43.2686 49.3418 43.3916 48.5544C43.5649 47.4207 43.7046 46.2815 43.7326 45.131C43.7717 43.679 43.5872 42.2438 43.3357 40.8197C43.1177 39.619 42.7767 38.4462 42.3016 37.3181C42.1339 36.7764 41.8992 36.2571 41.6309 35.7544C41.6197 35.6651 41.5806 35.5925 41.5247 35.5255C41.3346 35.0787 41.111 34.6543 40.8483 34.2522C40.6639 33.8724 40.4459 33.515 40.1832 33.1855C40.1664 33.1129 40.1329 33.0571 40.0714 33.018C40.0155 32.8951 39.9484 32.7778 39.8422 32.6885C39.2385 31.7782 38.5454 30.9461 37.7685 30.181C37.7349 30.181 37.7182 30.1642 37.7014 30.1419Z" fill="#FAC32D"/>
<path d="M33.7387 62.8798C33.7163 62.8965 33.694 62.9133 33.6716 62.9244L33.666 62.9133C33.6828 62.8965 33.7051 62.8798 33.7219 62.8574C33.7219 62.863 33.7387 62.8798 33.7387 62.8798Z" fill="#080A1B"/>
<path d="M22.2467 48.5657C22.2467 49.3587 22.2411 50.1461 22.2467 50.9391C22.2522 51.6986 21.5032 52.1789 20.7654 51.8829C20.3462 51.7154 19.9885 51.4417 19.614 51.2072C18.8929 50.7548 18.1607 50.3025 17.4508 49.8334C16.4503 49.1744 15.9528 48.2417 15.9528 47.0411C15.9528 45.6561 15.9807 44.2655 15.936 42.8805C15.9137 42.2048 16.6906 41.4229 17.557 41.8027C17.7918 41.9088 18.0265 42.0317 18.2445 42.1657C19.15 42.7297 20.0667 43.2826 20.9499 43.8802C21.7883 44.4442 22.2299 45.254 22.2411 46.2815C22.2522 47.0411 22.2467 47.8006 22.2467 48.5657ZM19.3513 49.1744C19.3736 49.7049 19.6754 50.2578 20.1058 50.5649C20.6313 50.9391 21.2238 50.7046 21.3411 50.0735C21.4473 49.4815 21.0058 48.6606 20.4468 48.4205C19.8431 48.1636 19.3233 48.521 19.3513 49.1744ZM16.7856 43.5395C16.808 44.1203 17.0483 44.6006 17.5123 44.9468C17.993 45.3042 18.5631 45.0976 18.7029 44.5168C18.8594 43.8578 18.5799 43.3385 18.0992 42.9196C17.8532 42.7074 17.557 42.5789 17.2272 42.7353C16.8918 42.8973 16.7856 43.1877 16.7856 43.5395Z" fill="#FAC32D"/>
<path d="M9.80981 60.1261C9.53592 59.8804 9.25644 59.6402 8.98255 59.3945C8.9602 59.3722 8.94343 59.3554 8.92107 59.3331L8.92666 59.3386C8.9043 59.3163 8.88753 59.2996 8.86517 59.2772L8.87076 59.2828C8.84841 59.2605 8.83164 59.2437 8.80928 59.2214L8.81487 59.227C8.79251 59.2102 8.77574 59.1879 8.75338 59.1711L8.75897 59.1767C8.73661 59.1599 8.71984 59.1376 8.69749 59.1208C8.65836 59.0482 8.60246 58.9924 8.5298 58.9533V58.9589C8.50744 58.9366 8.49067 58.9198 8.46831 58.8975H8.4739C8.44037 58.8193 8.38447 58.7634 8.31181 58.7299C8.29504 58.7076 8.27268 58.6852 8.25591 58.6685C7.97643 58.3502 7.69695 58.0374 7.42306 57.7191C7.33363 57.5516 7.19948 57.4231 7.07651 57.2835C7.05974 57.2612 7.03738 57.2444 7.02061 57.2221L7.0262 57.2277C7.00943 57.2053 6.99266 57.183 6.97589 57.1606H6.98148C6.64052 56.6804 6.30515 56.2001 5.96418 55.7198C5.94741 55.6975 5.93064 55.6751 5.91387 55.6528L5.91946 55.6584C5.85239 55.4908 5.75737 55.3456 5.63998 55.206C5.60086 55.0999 5.55055 55.005 5.46671 54.9324V54.938C5.46112 54.8933 5.45553 54.8486 5.40522 54.8263C5.38845 54.7425 5.34933 54.6699 5.28225 54.6085C5.26548 54.5861 5.24871 54.5638 5.23754 54.5415C5.03072 54.1338 4.82391 53.7261 4.61709 53.3184C4.26495 52.4696 3.89604 51.6319 3.62774 50.7551C3.19734 49.3645 2.86196 47.9516 2.75576 46.494C2.74458 46.3767 2.71663 46.2539 2.71104 46.1366C2.69428 45.7569 2.87314 45.5055 3.18616 45.4609C3.57184 45.3994 3.87927 45.5837 3.98547 45.9467C4.09167 46.3209 4.10285 46.7174 4.15316 47.0972C4.75683 51.4085 6.50078 55.1781 9.61418 58.2385C12.2301 60.8074 15.3323 62.5554 18.932 63.3819C18.9935 63.3987 19.0606 63.3931 19.1276 63.3987H19.1332C19.3624 63.4936 19.6139 63.5104 19.8543 63.555C20.3182 63.6388 20.7933 63.6779 21.2349 63.8622C21.7268 64.0688 21.8889 64.3704 21.7659 64.8339C21.6094 64.9624 21.4361 65.0182 21.2293 65.0015C20.4188 64.9289 19.6139 64.7892 18.8146 64.644C17.9371 64.4821 17.0986 64.1917 16.249 63.9348V63.9404C15.8018 63.7561 15.3491 63.5718 14.9019 63.3875C14.751 63.2814 14.5833 63.2088 14.4044 63.1585C13.9182 62.8961 13.4375 62.6392 12.9512 62.3767C12.6158 62.1701 12.286 61.9634 11.9506 61.7568V61.7624C11.9283 61.7456 11.9059 61.7289 11.8835 61.7121H11.8891C11.85 61.6507 11.7885 61.6172 11.7215 61.6004C11.6264 61.4999 11.5146 61.4273 11.3917 61.3714C11.0172 61.0922 10.6482 60.813 10.2737 60.5338C10.1396 60.355 9.97191 60.2434 9.80981 60.1261Z" fill="#FAC32D"/>
<path d="M41.9996 45.4434C42.0052 45.4601 42.022 45.4657 42.0332 45.4601C42.3294 45.6109 42.4189 45.8566 42.3965 46.1749C42.24 48.2468 41.7369 50.2405 40.9656 52.1672C40.5799 53.1445 40.116 54.0828 39.5794 54.9819C39.5346 55.0545 39.5067 55.1271 39.4676 55.2053C39.3837 55.2835 39.3278 55.3728 39.2999 55.4845C38.9254 56.0262 38.5565 56.5679 38.182 57.104L38.1875 57.0985C38.1708 57.1208 38.154 57.1431 38.1317 57.1599C38.0702 57.1934 38.031 57.2492 38.0087 57.3163C37.9919 57.3386 37.9751 57.3609 37.9584 57.3833C37.9416 57.4056 37.9248 57.4224 37.9025 57.4447C37.841 57.4782 37.8019 57.5341 37.7795 57.6011C37.6286 57.7742 37.4777 57.9529 37.3268 58.126L37.31 58.1316V58.1484C36.969 58.5058 36.6281 58.8688 36.2871 59.2262C36.2647 59.2485 36.248 59.2653 36.2256 59.2876V59.282C36.1138 59.3546 36.0188 59.4496 35.9405 59.5557C35.5549 59.8964 35.1636 60.2314 34.7779 60.5721C34.7555 60.5888 34.7388 60.6112 34.7164 60.6279C34.532 60.734 34.3643 60.8625 34.2078 61.0133L34.2189 61.0189L34.2078 61.0077C34.068 61.0859 33.9283 61.1696 33.8221 61.2925C33.2799 61.6443 32.7377 61.9962 32.1955 62.348C32.1117 62.3648 32.039 62.4038 31.9831 62.4709C31.8378 62.5211 31.7036 62.5937 31.5863 62.6942C31.2285 62.873 30.8708 63.0572 30.5131 63.236H30.5075C30.2503 63.3532 29.9932 63.4649 29.7361 63.5822H29.7305C28.8306 63.9173 27.9307 64.2356 27.0028 64.4869C26.1029 64.6489 25.2085 64.8499 24.2974 64.9504C24.1242 64.9672 23.9509 64.9951 23.7776 64.9895C23.3919 64.9728 23.2075 64.6265 23.4031 64.297C23.5764 63.9955 23.867 63.8447 24.1912 63.7721C24.9067 63.6157 25.6278 63.4873 26.3432 63.3253C29.915 62.4988 32.9725 60.7452 35.5493 58.1651C38.2658 55.4398 39.9203 52.1337 40.7476 48.3976C40.9041 47.6828 40.9823 46.9568 41.0774 46.2308C41.1724 45.5718 41.3513 45.4434 41.9996 45.4434Z" fill="#FAC32D"/>
<path d="M3.64451 44.2547C3.05201 44.3664 2.69428 44.1486 2.72223 43.6627C2.74459 43.2383 2.80048 42.8194 2.85079 42.395C3.05201 40.6917 3.49359 39.0498 4.14757 37.4638C4.15875 37.4303 4.16434 37.3912 4.16993 37.3577C4.23701 37.2795 4.27054 37.1845 4.28731 37.0784C4.76802 36.0509 5.26549 35.0345 5.8524 34.0627C6.02567 33.8561 6.171 33.6271 6.29956 33.3926C6.48402 33.1301 6.67406 32.8732 6.85852 32.6107C7.05975 32.4041 7.24979 32.1807 7.41189 31.9406C7.52927 31.8512 7.62429 31.7395 7.69696 31.6111C7.71932 31.5887 7.73608 31.572 7.75844 31.5497L7.75285 31.5552C7.76962 31.5329 7.79198 31.5106 7.80875 31.4882L7.80316 31.4938C7.82552 31.4715 7.84229 31.4547 7.86465 31.4324L7.85906 31.438C7.87582 31.4156 7.89818 31.3989 7.91495 31.3765V31.3821C8.28945 31.0247 8.66396 30.6617 9.03846 30.3043C9.80423 29.5727 10.665 28.9584 11.5035 28.3217C11.6823 28.2268 11.85 28.1151 12.0009 27.9811C12.2525 27.8471 12.4928 27.6963 12.7164 27.5231C12.7388 27.5064 12.7611 27.4896 12.7835 27.4729L12.7779 27.4785C13.7728 26.92 14.7957 26.4062 15.8466 25.9595H15.8522C16.6291 25.7081 17.3837 25.3954 18.1774 25.2055C19.15 24.9766 20.1282 24.7588 21.1287 24.6582C21.3579 24.6359 21.6318 24.6024 21.7324 24.8705C21.833 25.1273 21.6262 25.3061 21.4473 25.4513C21.0002 25.8143 20.4803 26.0097 19.9102 26.1158C17.1601 26.6129 14.6448 27.6907 12.3419 29.2711C9.95515 30.9074 7.9429 32.8956 6.51197 35.4366C5.422 37.3744 4.65064 39.4351 4.28172 41.6299C4.17552 42.261 4.11404 42.8976 4.05255 43.5287C4.03019 43.7632 3.94076 43.9531 3.80661 44.1374C3.76189 44.1821 3.706 44.2212 3.64451 44.2547Z" fill="#FAC32D"/>
<path d="M38.4892 35.2692C38.0588 34.4315 37.4942 33.6831 36.9017 32.9571C35.4037 31.131 33.5424 29.7348 31.5357 28.5229C29.7415 27.4395 27.813 26.6856 25.7729 26.2221C25.1692 26.0825 24.5487 26.0099 24.0177 25.658C23.8389 25.5408 23.6544 25.4346 23.5091 25.2727C23.4029 25.1498 23.3358 24.999 23.4196 24.8371C23.4979 24.6919 23.632 24.6472 23.7941 24.6528C24.6102 24.6863 25.4039 24.8985 26.2032 25.0381C26.2871 25.0549 26.3653 25.0661 26.4492 25.0828H26.4548C26.9746 25.2336 27.5 25.3844 28.0199 25.5296C28.2323 25.6357 28.4614 25.6971 28.6906 25.7586V25.753C28.8695 25.8535 29.0595 25.9261 29.2552 25.9764C29.5794 26.1495 29.9203 26.2891 30.2669 26.4175C30.4178 26.5236 30.5855 26.5907 30.7588 26.6521C30.9544 26.7861 31.1612 26.8922 31.3848 26.976C31.4407 27.043 31.5189 27.0765 31.6028 27.0933C31.7202 27.1938 31.8487 27.2664 31.9941 27.3167C32.1058 27.4172 32.24 27.4842 32.3797 27.5456C32.6033 27.7188 32.8493 27.864 33.1008 27.998C33.4194 28.2158 33.7436 28.4392 34.0622 28.657C34.6044 29.087 35.141 29.5114 35.6832 29.9414V29.9359C35.7055 29.9526 35.7223 29.9749 35.7447 29.9917H35.7391C35.8676 30.1481 36.013 30.2821 36.1807 30.3938C36.516 30.7233 36.857 31.0584 37.1924 31.3879C37.8631 32.1083 38.4668 32.8789 39.0313 33.6831C39.6462 34.6772 40.2052 35.6992 40.7082 36.7547H40.7026C40.7976 37.0395 40.9039 37.3243 41.0436 37.5924C41.2672 38.2458 41.4908 38.8936 41.7143 39.547C41.7199 39.5917 41.7199 39.6419 41.7311 39.6866C42.0777 40.9766 42.2901 42.289 42.4074 43.6182C42.441 43.9867 42.2286 44.2604 41.882 44.3218C41.4684 44.3944 41.0939 44.037 41.0604 43.5065C40.9989 42.5794 40.8535 41.6691 40.6523 40.7644C40.4064 39.6698 40.0878 38.5976 39.6071 37.5812C39.4562 37.1568 39.2773 36.7379 39.0481 36.347C38.9028 35.9561 38.7016 35.6098 38.4892 35.2692Z" fill="#FAC32D"/>
<path d="M29.1996 45.0699C29.1996 45.7233 29.194 46.3711 29.1996 47.0245C29.2108 48.2308 28.7245 49.1801 27.7184 49.8447C26.7234 50.4981 25.7173 51.1236 24.7112 51.7546C24.359 51.978 23.9734 52.0562 23.5653 51.9222C23.1517 51.7826 22.8387 51.347 22.8331 50.9058C22.8275 49.303 22.7996 47.7002 22.8443 46.103C22.8666 45.2486 23.3082 44.5505 23.9901 44.0255C24.8174 43.3889 25.7509 42.9142 26.6172 42.339C26.8967 42.1547 27.1874 41.9816 27.4836 41.8364C28.3053 41.4399 29.1996 42.0151 29.1996 42.9254C29.1996 43.6402 29.1996 44.355 29.1996 45.0699ZM28.3109 43.6011C28.3109 43.5453 28.3165 43.4894 28.3109 43.4336C28.2718 42.8025 27.7687 42.5233 27.2097 42.8248C26.729 43.0873 26.321 43.858 26.3769 44.3997C26.4104 44.7348 26.5502 45.0196 26.8688 45.148C27.2041 45.2821 27.4892 45.1313 27.7296 44.9079C28.1152 44.5617 28.2997 44.1149 28.3109 43.6011ZM25.6279 49.2639C25.5999 48.9679 25.544 48.6496 25.2198 48.4932C24.8901 48.3369 24.5882 48.4541 24.3199 48.6775C23.9063 49.0182 23.7162 49.4761 23.6883 49.9899C23.6715 50.3026 23.7666 50.6098 24.074 50.7718C24.359 50.9225 24.6385 50.8332 24.8845 50.6601C25.3484 50.3306 25.5832 49.8615 25.6279 49.2639ZM26.3657 48.1246C26.3713 48.9009 26.8632 49.2639 27.4333 49.007C28.0202 48.739 28.4394 47.7952 28.2382 47.1864C28.0873 46.7397 27.6569 46.5554 27.2321 46.7843C26.6787 47.0915 26.4216 47.5941 26.3657 48.1246ZM25.5832 45.5334C25.5776 45.1145 25.4826 44.8074 25.1304 44.6566C24.7783 44.5058 24.4988 44.6734 24.2528 44.9023C23.9007 45.2262 23.7274 45.6395 23.6827 46.103C23.6548 46.4381 23.7498 46.7508 24.074 46.9295C24.3814 47.1027 24.6721 46.9966 24.9236 46.7899C25.3428 46.4548 25.5552 46.0137 25.5832 45.5334Z" fill="#FAC32D"/>
<path d="M29.167 41.6006C28.513 41.0757 27.8479 40.9919 27.1715 41.3717C25.9977 42.0306 24.8574 42.7343 23.7507 43.4994C23.1582 43.9071 22.8005 44.5046 22.5713 45.1804C22.4595 45.1636 22.4819 45.0631 22.4595 45.0017C22.208 44.3147 21.772 43.773 21.1739 43.3598C20.179 42.6729 19.1393 42.0586 18.1052 41.4387C17.6636 41.1706 17.1829 41.0533 16.6631 41.1929C16.4172 41.2544 16.2159 41.394 15.9756 41.5839C16.1656 40.9081 16.5401 40.4446 17.0432 40.0704C17.5463 39.6907 18.0996 39.3835 18.6362 39.0485C19.4411 38.5514 20.2348 38.0321 21.0677 37.5909C22.0962 37.0436 23.1694 37.0715 24.1811 37.6467C25.4555 38.3727 26.702 39.1434 27.9261 39.942C28.5298 40.3385 28.9546 40.8579 29.167 41.6006ZM22.4539 39.5957C23.0632 39.5902 23.4544 39.4338 23.6892 39.1434C23.9519 38.8251 23.924 38.4341 23.6333 38.1773C23.1079 37.7193 22.0347 37.7249 21.5149 38.1828C21.2242 38.4397 21.1739 38.7581 21.3975 39.0764C21.677 39.4841 22.1018 39.5902 22.4539 39.5957ZM22.5881 41.2488C22.2527 41.2488 21.9061 41.3381 21.6658 41.4945C21.1348 41.8352 21.1348 42.4439 21.6658 42.7846C22.1577 43.1029 23.0408 43.0917 23.5159 42.7622C23.9519 42.4607 23.9743 41.9189 23.5662 41.5895C23.2812 41.3605 22.957 41.2376 22.5881 41.2488ZM25.2096 39.4617C24.8574 39.4505 24.5276 39.5455 24.2314 39.7354C23.801 40.009 23.7619 40.5116 24.1364 40.8411C24.6338 41.2823 25.7406 41.2935 26.2437 40.869C26.5567 40.601 26.5846 40.1877 26.294 39.8917C25.9977 39.5846 25.6232 39.4729 25.2096 39.4617ZM19.7709 39.4505C19.592 39.445 19.279 39.5399 18.9996 39.7409C18.5077 40.0984 18.5188 40.6792 19.061 40.9584C19.6927 41.2823 20.3355 41.2544 20.9391 40.869C21.3919 40.5786 21.3807 40.0537 20.9335 39.7409C20.6373 39.5287 20.2963 39.4505 19.7709 39.4505Z" fill="#FAF9E8"/>
<path d="M7.03137 41.607C7.43382 41.3725 7.83627 41.1491 8.23313 40.9089C9.07715 40.3951 9.90441 40.3728 10.7429 40.9201C11.2571 41.2552 11.7937 41.5567 12.3135 41.8807C12.7775 42.1711 12.8725 42.5285 12.4812 42.9082C11.749 43.6175 10.8826 44.1536 9.91559 44.4775C9.40694 44.645 8.93742 44.4943 8.08221 44.1424C8.21636 44.2429 8.35051 44.3379 8.48466 44.4384C9.161 44.9299 9.59699 45.5498 9.52432 46.4377C9.48519 46.9292 9.56345 47.4206 9.4796 47.912C9.44048 48.1243 9.3734 48.3253 9.24484 48.4984C9.00449 48.8056 8.69706 48.9005 8.36169 48.6995C7.63504 48.2695 6.89163 47.8506 6.22647 47.3312C5.71223 46.9292 5.4607 46.3539 5.44952 45.7005C5.43834 45.103 5.4607 44.511 5.44952 43.9135C5.42716 43.059 5.82961 42.4447 6.50036 41.97C6.66805 41.836 6.8525 41.7243 7.03137 41.607ZM8.10457 46.1641C8.09898 45.7452 7.70771 45.2258 7.29408 45.0974C6.99783 45.008 6.73512 45.1532 6.65687 45.4548C6.54507 45.8681 6.9587 46.5326 7.41705 46.6778C7.80273 46.7951 8.11016 46.5662 8.10457 46.1641ZM9.43489 43.0367C9.6417 43.0199 9.81498 42.9976 9.97149 42.9138C10.1615 42.8133 10.3069 42.6793 10.3125 42.4447C10.318 42.2157 10.1951 42.0649 10.0106 41.9477C9.78703 41.8081 9.54109 41.7857 9.28397 41.8192C8.91506 41.8639 8.61322 42.132 8.60763 42.4112C8.60204 42.6904 8.84798 42.925 9.23925 43.0087C9.31751 43.0199 9.39017 43.0311 9.43489 43.0367Z" fill="#FAC32D"/>
<path d="M26.6227 57.3944C26.6227 58.1818 26.6339 58.9749 26.6227 59.7623C26.6115 60.5106 26.3488 61.1249 25.6613 61.5215C24.9402 61.9403 24.2527 62.4094 23.5037 62.7892C22.7826 63.1577 22.0895 63.0851 21.4076 62.6998C20.7927 62.3536 20.1891 61.9906 19.5798 61.6331C19.4848 61.5605 19.3953 61.4935 19.3003 61.4209C18.8476 61.0635 18.6408 60.5721 18.5625 60.0136C18.5681 59.1759 18.5569 58.3438 18.5737 57.5061C18.5849 56.9588 18.7805 56.4785 19.1885 56.082C19.3227 56.2216 19.1438 56.4618 19.3618 56.5511C19.3562 56.6014 19.3674 56.6461 19.4177 56.6628V56.6572C19.4345 56.6796 19.4512 56.6963 19.468 56.7187V56.7243C19.468 56.7689 19.4792 56.8136 19.5295 56.8304L19.5239 56.8248C19.5463 56.8415 19.5742 56.8639 19.5966 56.8806C19.6078 56.8918 19.6245 56.903 19.6357 56.9141C19.6469 56.9756 19.686 56.9979 19.7419 56.9979L19.7475 57.0035C19.7698 57.0202 19.7866 57.037 19.809 57.0538C19.8369 57.0705 19.8593 57.0928 19.8872 57.1096C20.4741 57.4726 21.0666 57.8356 21.6535 58.1986C21.6703 58.26 21.7038 58.288 21.7653 58.2824C21.7821 58.3382 21.8268 58.3494 21.8771 58.3382V58.3326C21.8659 58.4443 21.9386 58.5225 22.0001 58.6007C22.4025 59.0754 22.5926 59.6227 22.5982 60.237C22.6038 60.8066 22.5982 61.3818 22.5982 61.9515C22.6485 61.393 22.6708 60.8401 22.6429 60.2817C22.6205 59.8181 22.7267 59.3658 22.7323 58.9023C22.7323 58.8632 22.7659 58.8129 22.7994 58.785C22.9671 58.6621 23.0845 58.4722 23.3192 58.4332C23.4143 58.4164 23.5316 58.3606 23.5484 58.2209C23.6434 58.2209 23.7552 58.2489 23.7664 58.0981V58.1037C23.8558 58.1204 23.9341 58.1148 23.9397 57.992C24.0291 58.0031 24.1074 57.9976 24.1074 57.8803C24.1577 57.8859 24.2024 57.8803 24.2192 57.8244C24.3086 57.8356 24.3813 57.83 24.3868 57.7127C24.4204 57.7127 24.4427 57.696 24.4483 57.6625C24.5434 57.6625 24.6551 57.696 24.6663 57.5396V57.5452C24.8787 57.5508 25.0296 57.4558 25.1135 57.2604L25.1079 57.266C25.1303 57.2492 25.147 57.2269 25.1694 57.2101C25.2197 57.2157 25.2588 57.199 25.2812 57.1487L25.2756 57.1543C25.2979 57.1375 25.3147 57.1152 25.3371 57.0984C25.4209 57.104 25.4992 57.0984 25.5048 56.9812C25.5271 56.9644 25.5439 56.9421 25.5662 56.9253C25.583 56.9086 25.6054 56.8862 25.6221 56.8695C25.6389 56.8527 25.6613 56.8304 25.678 56.8136C25.6948 56.7913 25.7172 56.7745 25.7339 56.7522L25.7283 56.7578C25.7507 56.7354 25.7675 56.7187 25.7898 56.6963L25.7842 56.7019C25.8401 56.6796 25.8457 56.6349 25.8401 56.5846C25.896 56.5679 25.9072 56.5232 25.9016 56.473H25.896C26.019 56.4171 25.924 56.1826 26.0637 56.1993C26.209 56.2161 26.2761 56.3836 26.3488 56.512C26.4941 56.8024 26.55 57.104 26.6227 57.3944ZM21.497 60.3375C21.4914 59.779 21.0163 59.1536 20.4574 58.9637C19.9655 58.7962 19.6078 59.0754 19.6301 59.6003C19.6525 60.1867 20.1723 60.7675 20.653 60.9406C21.1281 61.1138 21.5026 60.8401 21.497 60.3375ZM24.9514 60.8569C24.9961 60.8736 25.0185 60.801 25.052 60.7452C25.2756 60.3263 25.488 59.9075 25.7172 59.4942C25.7898 59.3602 25.7842 59.2876 25.6221 59.2318C25.3259 59.1312 25.0408 59.0084 24.7558 58.8911C24.6775 58.8576 24.6551 58.8576 24.6104 58.9358C24.3309 59.4384 24.0403 59.9298 23.7552 60.4324C23.7329 60.4771 23.677 60.5441 23.7608 60.5665C24.1409 60.6614 24.5266 60.7508 24.9514 60.8569Z" fill="#1D375F"/>
<path d="M22.0504 35.1572C21.8324 35.2075 21.648 35.107 21.4691 35.012C20.7201 34.5988 19.9991 34.1464 19.3004 33.655C18.8364 33.3311 18.5737 32.862 18.5681 32.2812C18.5625 31.3429 18.5625 30.4047 18.5737 29.4609C18.5793 28.8466 18.8644 28.344 19.3507 27.9922C20.0494 27.4895 20.7816 27.026 21.553 26.6407C22.3299 26.2498 23.1292 26.2777 23.8894 26.7356C24.4204 27.0539 24.9458 27.389 25.4768 27.7185C25.6334 27.819 25.7955 27.914 25.9128 28.0648C25.9687 28.5227 25.7563 28.8522 25.3874 29.0923C24.8285 29.4609 24.2751 29.8351 23.7161 30.2037C23.0566 30.6449 22.7268 31.248 22.7659 32.0578C22.7938 32.633 22.7715 33.2082 22.7715 33.7834C22.7715 34.3698 22.5814 34.8557 22.0504 35.1572ZM22.6653 27.0763C22.4473 27.0763 22.2461 27.1265 22.084 27.2215C21.7262 27.4337 21.7095 27.8135 22.0504 28.048C22.3858 28.2881 22.9783 28.2881 23.3081 28.0536C23.6155 27.8358 23.6155 27.4505 23.2913 27.2494C23.1069 27.1321 22.8945 27.0707 22.6653 27.0763ZM22.6932 28.7461C22.4697 28.7517 22.2293 28.7908 22.0281 28.936C21.7486 29.137 21.7486 29.4162 22.0281 29.6173C22.3914 29.8742 23.0063 29.8742 23.3696 29.6173C23.6211 29.4386 23.6267 29.1258 23.3696 28.936C23.1795 28.7963 22.9504 28.7517 22.6932 28.7461ZM21.771 32.1583C22.0225 32.1583 22.1902 32.0019 22.2069 31.7562C22.2405 31.3373 21.8772 30.8403 21.4635 30.7342C21.1673 30.656 20.8766 30.8571 20.8487 31.1698C20.8095 31.6389 21.3014 32.1639 21.771 32.1583ZM20.8654 33.4316C20.8654 33.8337 21.212 34.2469 21.6312 34.3419C21.9554 34.4145 22.2069 34.2134 22.2014 33.8839C22.1958 33.4539 21.8269 33.0351 21.402 32.9736C21.0723 32.9234 20.8654 33.1021 20.8654 33.4316ZM20.3792 30.6839C20.3792 30.2093 19.9655 29.7513 19.5519 29.7569C19.2668 29.7625 19.0712 29.9859 19.0768 30.293C19.0768 30.7286 19.496 31.1531 19.932 31.1586C20.2282 31.1642 20.3792 31.0023 20.3792 30.6839ZM20.3792 32.8731C20.3792 32.4822 20.0773 32.0969 19.6749 31.9684C19.3507 31.8623 19.0712 32.0689 19.0768 32.4096C19.0768 32.8117 19.4345 33.2138 19.8649 33.292C20.2003 33.3534 20.3847 33.2082 20.3792 32.8731Z" fill="#FAF9E8"/>
<path d="M13.0238 39.5746C12.8002 39.5913 12.6101 39.4964 12.4257 39.3791C11.7214 38.9323 11.0171 38.48 10.3184 38.0276C9.66442 37.6032 9.37376 36.9833 9.36258 36.2182C9.35699 35.5592 9.37376 34.9002 9.35699 34.2413C9.32904 33.3924 9.68677 32.7557 10.3855 32.3034C10.9947 31.9125 11.604 31.5271 12.2244 31.1585C13.007 30.6894 13.7728 30.695 14.5441 31.2144C15.0975 31.5886 15.6732 31.9236 16.2434 32.2755C16.3943 32.3704 16.5452 32.4653 16.6402 32.6161C16.6179 33.0685 16.3887 33.3924 16.0086 33.6381C15.4999 33.962 14.9969 34.2971 14.4994 34.6322C13.756 35.1348 13.3983 35.8329 13.415 36.732C13.4262 37.1676 13.4094 37.6032 13.4206 38.0388C13.4318 38.5582 13.4262 39.0664 13.0349 39.474C13.0182 39.4908 13.0293 39.5411 13.0238 39.5746ZM13.3983 34.3809C13.6107 34.3529 13.8342 34.3306 14.0299 34.2077C14.3541 34.0011 14.3764 33.6269 14.0858 33.398C13.7169 33.1132 13.0014 33.1299 12.6493 33.4259C12.4145 33.6214 12.4033 33.8503 12.6101 34.0737C12.8169 34.3139 13.102 34.3418 13.3983 34.3809ZM12.1127 35.213C11.8276 35.213 11.6487 35.3693 11.6096 35.6653C11.5537 36.1065 12.0623 36.7208 12.5095 36.7487C12.6996 36.7599 12.8337 36.6929 12.9176 36.5254C13.1523 36.0395 12.6493 35.2186 12.1127 35.213ZM11.168 35.2465C11.1233 34.8556 10.95 34.5149 10.5532 34.325C10.1842 34.1519 9.84887 34.3697 9.84887 34.7718C9.84887 35.1404 10.1563 35.5816 10.514 35.7268C10.8829 35.8775 11.1792 35.6765 11.168 35.2465ZM9.85446 36.6035C9.84328 37.0224 10.2178 37.5473 10.6146 37.6702C10.9053 37.7596 11.1009 37.6423 11.1624 37.3407C11.2574 36.866 10.8662 36.2685 10.4022 36.1791C10.1004 36.1233 9.86564 36.302 9.85446 36.6035ZM11.6431 37.6311C11.6431 38.05 12.0623 38.5302 12.476 38.5805C12.7387 38.6084 12.9679 38.4185 12.9902 38.1561C13.0238 37.754 12.6548 37.2346 12.2636 37.1397C11.9058 37.0503 11.6431 37.2569 11.6431 37.6311ZM13.3759 31.4266C13.0517 31.4266 12.8169 31.5104 12.6381 31.6891C12.4257 31.9013 12.4368 32.0744 12.6772 32.2643C13.0349 32.5435 13.728 32.5435 14.0802 32.2643C14.3149 32.08 14.3205 31.8231 14.0746 31.6388C13.8678 31.4825 13.633 31.4154 13.3759 31.4266Z" fill="#FAF9E8"/>
<path d="M9.49121 52.5369C9.603 52.0398 9.89366 51.6545 10.3073 51.3809C10.9836 50.9397 11.6656 50.5041 12.3754 50.1187C13.0797 49.7334 13.7952 49.8563 14.4659 50.2528C15.0417 50.5934 15.6118 50.9397 16.1819 51.2859C16.5341 51.4981 16.8471 51.7606 17.0707 52.1124C17.1322 52.213 17.2048 52.3135 17.1881 52.4475C16.7297 52.3135 16.3608 52.5201 15.9919 52.7491C15.3267 53.1623 14.6783 53.6147 13.9852 53.9889C13.4263 54.1955 12.9232 54.0894 12.4313 53.7767C11.8221 53.3857 11.2072 53.0171 10.5868 52.643C10.2402 52.4363 9.8713 52.4196 9.49121 52.5369ZM15.0864 51.4144C14.7231 51.4144 14.4045 51.6824 14.4156 51.9784C14.4268 52.2856 14.7119 52.5257 15.0696 52.5313C15.4497 52.5369 15.7627 52.28 15.7739 51.9617C15.7851 51.6657 15.4721 51.4199 15.0864 51.4144ZM11.7326 51.4144C11.3525 51.4144 11.0842 51.6433 11.0898 51.9617C11.0954 52.2856 11.3861 52.5257 11.7606 52.5313C12.1463 52.5369 12.4257 52.2911 12.4202 51.9617C12.409 51.6489 12.1183 51.4144 11.7326 51.4144Z" fill="#497FB7"/>
<path d="M30.7147 53.6593C31.0333 53.9106 31.3854 54.1284 31.6146 54.4747C31.8158 54.7763 31.95 55.089 31.9444 55.4576C31.9388 56.1556 31.9388 56.8537 31.9332 57.5518C31.9332 57.8366 31.855 58.1047 31.704 58.3448C31.5084 58.6576 31.0948 58.7972 30.8097 58.6129C30.0719 58.1438 29.3117 57.7138 28.6242 57.1776C28.1435 56.8035 27.9143 56.2729 27.9087 55.6698C27.8975 54.793 27.8975 53.9218 27.9199 53.045C27.9367 52.4642 28.2329 52.0119 28.6633 51.6377C28.6633 52.0565 28.8254 52.4028 29.172 52.6373C29.6806 52.9892 30.2004 53.3187 30.7147 53.6593ZM30.8656 55.9825C30.8097 55.4911 30.4911 55.1002 30.0216 54.8265C29.7868 54.6925 29.5353 54.659 29.3173 54.8433C29.0993 55.0276 29.049 55.2789 29.1049 55.5525C29.2055 56.044 29.4682 56.4181 29.9321 56.6359C30.424 56.8761 30.8544 56.6024 30.8656 55.9825Z" fill="#FAC32D"/>
<path d="M30.7145 53.6581C30.2002 53.3174 29.6804 52.9879 29.1717 52.6361C28.8308 52.4015 28.6631 52.0553 28.6631 51.6364C28.7525 51.5024 28.8867 51.413 29.0208 51.3293C29.658 50.9495 30.2897 50.5586 30.938 50.2012C31.6535 49.8047 32.3746 49.7712 33.0956 50.2124C33.6378 50.5474 34.1968 50.8602 34.739 51.1952C35.3818 51.5918 35.4097 52.0832 34.7949 52.5244C34.1688 52.9712 33.5093 53.3677 32.8161 53.7083C32.2125 54.0043 31.592 53.9931 30.9716 53.7307C30.8933 53.7027 30.8151 53.6301 30.7145 53.6581ZM31.9498 52.5411C32.1957 52.5635 32.4249 52.4909 32.6317 52.3568C32.9838 52.1335 33.0006 51.7425 32.6876 51.4745C32.3019 51.145 31.525 51.1841 31.1784 51.5527C30.9716 51.776 30.966 52.0441 31.184 52.2675C31.3908 52.4797 31.6535 52.5579 31.9498 52.5411Z" fill="#FAF9E8"/>
<path d="M39.0315 42.2271C39.4954 42.7074 39.7693 43.2491 39.7246 43.9472C39.6911 44.4274 39.7134 44.9133 39.7246 45.3936C39.7358 45.7957 39.6743 46.1866 39.5457 46.5663C39.501 46.6557 39.4507 46.745 39.406 46.84C39.1265 47.2588 38.7185 47.5381 38.3104 47.8117C37.9136 48.0574 37.5223 48.3032 37.1254 48.5433C36.3373 49.0292 35.7672 48.7555 35.6945 47.8229C35.6498 47.2197 35.633 46.611 35.7001 46.0135C35.7783 45.3098 36.2423 44.8128 36.8068 44.4107C36.913 44.3325 37.0695 44.3046 37.1198 44.1594C37.5502 43.8913 37.9751 43.6121 38.411 43.3552C38.847 43.0983 39.065 42.7409 38.9812 42.2271C38.9979 42.2215 39.0147 42.2271 39.0315 42.2271ZM37.2372 46.1587C37.2316 46.6278 37.5447 46.8512 37.9247 46.7004C38.3384 46.5384 38.6738 45.9297 38.5899 45.4941C38.5284 45.1758 38.2545 45.0138 37.9639 45.1534C37.5279 45.3601 37.2931 45.7286 37.2372 46.1587Z" fill="#497FB7"/>
<path d="M38.9754 42.2218C39.0592 42.7355 38.8412 43.0874 38.4052 43.3498C37.9693 43.6067 37.5444 43.886 37.114 44.154C36.5216 44.4612 35.8955 44.5896 35.2304 44.4556C35.0459 44.4165 34.8726 44.3495 34.7161 44.2546C34.1572 43.9195 33.6094 43.5732 33.056 43.2326C32.9945 43.1935 32.9386 43.1432 32.8827 43.093C32.3294 42.6015 32.3629 42.2162 33.0001 41.8308C33.5647 41.4902 34.1348 41.1607 34.6994 40.8144C35.398 40.39 36.1079 40.3956 36.8066 40.7977C37.3153 41.0881 37.8016 41.412 38.299 41.7191C38.3717 41.7638 38.4444 41.7973 38.5226 41.8308C38.6735 41.9593 38.8245 42.0877 38.9754 42.2218ZM35.6831 43.7296C35.9626 43.7296 36.1471 43.7128 36.3091 43.6067C36.6501 43.4001 36.6557 43.1041 36.3315 42.8807C36.0073 42.6574 35.4987 42.6685 35.1801 42.9142C34.9453 43.093 34.9397 43.361 35.1745 43.5453C35.3477 43.6849 35.5546 43.7352 35.6831 43.7296ZM35.7781 41.2835C35.5937 41.3003 35.4092 41.3059 35.2415 41.4176C35.1074 41.5069 34.9732 41.6074 34.9844 41.7862C35.0012 41.9704 35.1242 42.0933 35.2863 42.1492C35.6105 42.2664 35.9402 42.2944 36.2533 42.1212C36.393 42.043 36.5271 41.9425 36.5271 41.7638C36.5271 41.5795 36.3874 41.4958 36.2477 41.4176C36.1079 41.3338 35.9514 41.2947 35.7781 41.2835Z" fill="#FAC32D"/>
<path d="M35.0975 32.5488C35.6118 32.9565 35.9024 33.487 35.9136 34.1516C35.9192 34.7548 35.8912 35.3579 35.9136 35.961C35.9527 36.9663 35.5223 37.6867 34.6671 38.1893C34.1697 38.4797 33.6945 38.8036 33.2082 39.1163C32.6325 39.4905 32.2468 39.3676 32.0009 38.7254C31.9562 38.6026 31.9226 38.4797 31.8835 38.3568C31.8835 37.6476 31.8779 36.9383 31.8779 36.2291C32.0512 35.6427 32.3475 35.1345 32.8617 34.7771C33.4207 34.4308 33.9796 34.0846 34.5386 33.7328C34.9746 33.4591 35.2596 33.1073 35.0975 32.5488ZM33.1132 36.9104C33.1132 37.2511 33.3368 37.4298 33.6834 37.3684C34.2814 37.2567 34.941 36.5418 34.9969 35.9331C35.0305 35.5813 34.7789 35.3467 34.4268 35.397C33.8734 35.4808 33.1132 36.3575 33.1132 36.9104Z" fill="#497FB7"/>
<path d="M13.0244 39.5734C13.03 39.5343 13.0188 39.484 13.0356 39.4673C13.4269 39.0596 13.4325 38.5514 13.4213 38.032C13.4101 37.5964 13.4269 37.1608 13.4157 36.7252C13.3989 35.8261 13.7566 35.128 14.5001 34.6254C15.0031 34.2903 15.5006 33.9553 16.0093 33.6314C16.3838 33.3912 16.6185 33.0673 16.6409 32.6094C17.116 32.978 17.334 33.475 17.3452 34.0558C17.3619 34.8153 17.3675 35.5804 17.3452 36.3399C17.3228 37.0101 17.0266 37.5629 16.4676 37.9371C15.7633 38.4174 15.0478 38.8809 14.3212 39.3277C13.9355 39.579 13.4995 39.6963 13.0244 39.5734ZM16.4955 35.9043C16.0037 35.8987 15.4838 36.4907 15.5118 37.0324C15.5285 37.3954 15.7745 37.5741 16.1155 37.4512C16.5738 37.2949 16.8142 36.943 16.9036 36.4907C16.9651 36.1779 16.7527 35.9043 16.4955 35.9043ZM14.0529 36.1947C14.0473 36.5856 14.215 36.7364 14.6007 36.6806C15.059 36.6191 15.5174 35.9043 15.3776 35.4687C15.2994 35.223 15.0814 35.1057 14.8298 35.1783C14.4218 35.3012 14.0641 35.7703 14.0529 36.1947Z" fill="#FAC32D"/>
<path d="M35.0959 32.5485C35.258 33.107 34.973 33.4532 34.5426 33.7269C33.9836 34.0787 33.4247 34.4249 32.8657 34.7712C32.2285 34.9555 31.5913 34.989 30.9652 34.7153C30.4063 34.2965 29.8026 33.9502 29.2157 33.5761C28.8132 33.3192 28.6176 32.9785 28.6512 32.5094C29.4393 31.8895 30.2945 31.3646 31.2 30.9457C31.6583 30.7335 32.1614 30.7503 32.6309 30.9736C33.4526 31.3646 34.1848 31.9007 34.9506 32.3865C35.0009 32.4256 35.0456 32.4982 35.0959 32.5485ZM31.9714 34.1736C32.2229 34.1792 32.4744 34.1401 32.7036 33.9949C32.9831 33.8218 32.9943 33.5761 32.7427 33.3639C32.385 33.0679 31.6192 33.0455 31.2503 33.3192C30.9541 33.537 30.9652 33.8497 31.2894 34.0284C31.4907 34.1457 31.7198 34.1792 31.9714 34.1736ZM31.9602 31.4148C31.6639 31.4148 31.3845 31.4595 31.1553 31.6661C30.9596 31.8448 30.9596 32.0068 31.1441 32.1911C31.4795 32.5262 32.3738 32.5653 32.7371 32.2581C32.9551 32.0794 32.9551 31.8504 32.7371 31.6661C32.5136 31.4818 32.2453 31.4204 31.9602 31.4148Z" fill="#FAC32D"/>
<path d="M22.0508 35.1569C22.5874 34.8553 22.7774 34.3695 22.7774 33.7831C22.7774 33.2079 22.7998 32.6271 22.7718 32.0575C22.7327 31.2477 23.0625 30.6445 23.7221 30.2034C24.281 29.8348 24.8344 29.4606 25.3934 29.092C25.7623 28.8463 25.9747 28.5224 25.9188 28.0645C26.4051 28.4219 26.6119 28.9357 26.6286 29.5053C26.6566 30.3709 26.651 31.2309 26.6398 32.0965C26.6286 32.8002 26.3156 33.3587 25.7175 33.7496C25.1418 34.1238 24.5605 34.4868 23.9848 34.8609C23.4314 35.2183 22.8221 35.33 22.1738 35.2239C22.1234 35.2128 22.0899 35.1793 22.0508 35.1569ZM24.4599 31.2756C24.4599 31.0913 24.4375 30.9182 24.2587 30.8177C24.1022 30.7283 23.9512 30.773 23.8115 30.8623C23.4985 31.069 23.3084 31.3594 23.2805 31.7335C23.2581 32.0463 23.437 32.2027 23.7444 32.158C24.1189 32.1077 24.4599 31.6833 24.4599 31.2756ZM23.2749 33.8222C23.2749 34.2187 23.5544 34.3918 23.9121 34.2131C24.2587 34.04 24.4319 33.744 24.4543 33.3643C24.4767 33.0236 24.2698 32.8616 23.9456 32.951C23.5935 33.0459 23.2749 33.4592 23.2749 33.8222ZM26.1312 32.2864C26.1312 31.9178 25.8685 31.7559 25.5275 31.9178C25.1809 32.0854 25.0244 32.3981 24.9574 32.7555C24.9126 32.9901 25.0859 33.1576 25.3319 33.1688C25.712 33.18 26.1312 32.7164 26.1312 32.2864ZM26.1368 30.2871C26.1424 29.9185 25.9244 29.7343 25.5946 29.8292C25.2871 29.9185 25.0021 30.2704 24.9741 30.5887C24.9518 30.8623 25.1306 31.0578 25.3989 31.0522C25.7846 31.0466 26.1256 30.6948 26.1368 30.2871Z" fill="#497FB7"/>
<path d="M9.49077 52.5363C9.87086 52.4191 10.2398 52.4358 10.5863 52.648C11.2012 53.0222 11.8216 53.3964 12.4309 53.7817C12.9228 54.1 13.4314 54.2006 13.9848 53.9939C13.6382 54.4742 13.4314 55.0047 13.4426 55.6135C13.4538 56.2445 13.4538 56.8756 13.4426 57.5011C13.4314 57.9869 13.532 58.4169 13.9401 58.7241C13.4258 58.8414 12.9116 58.8637 12.4309 58.6012C11.6819 58.1936 10.9664 57.73 10.2621 57.2498C9.6361 56.8253 9.35662 56.2166 9.3678 55.4683C9.37898 54.5859 9.33426 53.7035 9.40692 52.8267C9.4181 52.7262 9.44605 52.6313 9.49077 52.5363ZM12.9731 57.3503C12.9787 56.937 12.6545 56.4958 12.2408 56.3674C11.8663 56.2501 11.5366 56.5349 11.6148 56.9258C11.6931 57.3112 11.9111 57.6016 12.2632 57.7803C12.6209 57.9702 12.9619 57.758 12.9731 57.3503ZM9.85409 53.966C9.85968 54.4072 10.2677 54.8875 10.7037 54.9321C10.9329 54.9545 11.1006 54.8651 11.1509 54.6194C11.2459 54.1894 10.9832 53.7091 10.5416 53.5136C10.1559 53.3461 9.85409 53.5416 9.85409 53.966ZM12.9451 55.3063C12.9172 54.9768 12.7104 54.6697 12.3359 54.4798C12.1458 54.3793 11.9502 54.3513 11.7713 54.5077C11.5925 54.6641 11.5589 54.8707 11.6204 55.0885C11.7266 55.4459 11.967 55.6916 12.3135 55.8257C12.6768 55.9709 12.9395 55.7922 12.9451 55.3063ZM9.85968 55.8759C9.85968 56.2724 10.1951 56.7248 10.5807 56.8365C10.8938 56.9258 11.1341 56.7695 11.1676 56.4456C11.2124 56.0379 10.9105 55.5632 10.5081 55.4236C10.1392 55.2896 9.85968 55.4794 9.85968 55.8759Z" fill="#FAF9E8"/>
<path d="M21.6587 58.2037C21.0718 57.8407 20.4793 57.4777 19.8924 57.1147C19.8644 57.098 19.8421 57.0756 19.8141 57.0589C19.7918 57.0421 19.775 57.0254 19.7527 57.0086L19.7471 57.003C19.7135 56.9751 19.6744 56.9472 19.6409 56.9192C19.6297 56.9081 19.6129 56.8969 19.6017 56.8857C19.5906 56.8522 19.5682 56.8243 19.5291 56.8299L19.5347 56.8355C19.5403 56.7852 19.5123 56.7517 19.4732 56.7294V56.7238C19.4732 56.6903 19.462 56.6679 19.4229 56.6624V56.6679C19.4229 56.6177 19.4173 56.573 19.367 56.5562C19.2664 56.048 19.3223 55.9419 19.7638 55.6739C20.3675 55.3053 20.96 54.9255 21.5693 54.5625C22.1897 54.1884 22.8437 54.1381 23.4753 54.4955C24.2131 54.9088 24.923 55.3667 25.6497 55.7967C25.9347 55.9699 25.9403 56.2212 25.89 56.5004H25.8956C25.8397 56.5172 25.8397 56.5674 25.8341 56.6121C25.7838 56.64 25.7726 56.6791 25.7782 56.7294L25.7838 56.7238C25.7391 56.7238 25.7279 56.7461 25.7223 56.7852L25.7279 56.7796C25.7112 56.802 25.6888 56.8187 25.672 56.8411C25.6553 56.8578 25.6329 56.8802 25.6161 56.8969C25.5994 56.9137 25.577 56.936 25.5602 56.9528C25.5267 56.9583 25.5043 56.9751 25.4987 57.0086C25.4261 57.0254 25.3702 57.0589 25.3311 57.1259C25.2975 57.1315 25.2752 57.1426 25.2696 57.1817L25.2752 57.1761C25.2249 57.1761 25.1857 57.1873 25.1634 57.2376C25.1298 57.2432 25.1019 57.2543 25.1019 57.2934L25.1075 57.2878C24.9342 57.3493 24.7833 57.4386 24.6603 57.5726V57.5671C24.5709 57.5726 24.5038 57.6229 24.4423 57.6899C24.4088 57.6899 24.3864 57.7067 24.3808 57.7402C24.3026 57.7458 24.2411 57.7737 24.2131 57.8519C24.1628 57.8407 24.1181 57.8575 24.1014 57.9077C24.0287 57.9245 23.9672 57.9468 23.9337 58.0194C23.861 58.0306 23.7939 58.0585 23.7604 58.1311V58.1255C23.671 58.1367 23.6039 58.1814 23.5424 58.2484C23.0002 58.5109 22.4412 58.5444 21.8711 58.3545V58.3601C21.8543 58.2986 21.804 58.2986 21.7593 58.3042C21.7593 58.2205 21.7034 58.2205 21.6587 58.2037ZM21.2115 55.7744C21.0215 55.7688 20.865 55.8247 20.7141 55.8973C20.552 55.9754 20.4458 56.1039 20.4346 56.2826C20.4234 56.4781 20.5464 56.5953 20.6973 56.6791C20.9768 56.8411 21.2786 56.8634 21.5805 56.7405C21.7984 56.6512 21.9438 56.5116 21.9382 56.2658C21.9326 56.0201 21.7481 55.914 21.5525 55.8414C21.4351 55.7967 21.3177 55.7576 21.2115 55.7744ZM24.2131 56.8187C24.297 56.802 24.4144 56.7908 24.515 56.7573C24.7162 56.6847 24.8839 56.5618 24.8951 56.3273C24.9007 56.1095 24.7665 55.9699 24.5765 55.8861C24.2523 55.7465 23.9281 55.7632 23.6206 55.9364C23.3579 56.0871 23.33 56.344 23.5424 56.5618C23.7101 56.7461 23.9448 56.7964 24.2131 56.8187ZM22.6537 55.8023C23.0282 55.8023 23.3803 55.551 23.3747 55.2885C23.3691 55.0149 23.0673 54.8194 22.6648 54.8194C22.6537 54.8194 22.6481 54.8194 22.6369 54.8194C22.24 54.8194 21.9326 55.0316 21.9326 55.2941C21.9326 55.5622 22.268 55.7967 22.6537 55.8023ZM22.6537 56.7852C22.4245 56.8187 22.1618 56.8522 22.022 57.1147C21.9494 57.2432 21.955 57.3884 22.0556 57.5056C22.2512 57.7346 22.5027 57.8184 22.799 57.7625C23.1903 57.6843 23.4082 57.4833 23.3747 57.2376C23.3412 56.9863 23.0337 56.7852 22.6537 56.7852Z" fill="#FAC32D"/>
<path d="M13.9397 58.7299C13.5317 58.4172 13.431 57.9928 13.4422 57.5069C13.459 56.8758 13.4534 56.2504 13.4422 55.6193C13.431 55.0106 13.6379 54.4856 13.9844 53.9998C14.6775 53.6312 15.3259 53.1788 15.9911 52.76C16.36 52.531 16.7289 52.3244 17.1872 52.4584C17.3326 52.6427 17.3661 52.8605 17.3661 53.0895C17.3717 53.8992 17.3829 54.709 17.3885 55.5188C17.3941 56.2057 17.1481 56.7753 16.5892 57.183C15.9072 57.68 15.1862 58.1212 14.4595 58.5568C14.303 58.6406 14.1353 58.7411 13.9397 58.7299ZM15.6725 54.2399C15.6725 54.7928 15.9967 54.9938 16.3991 54.7704C16.7009 54.6029 16.8966 54.3516 16.9301 53.9998C16.9525 53.7987 16.8966 53.6088 16.7177 53.486C16.55 53.3687 16.3768 53.4078 16.2147 53.4916C15.8793 53.6647 15.6836 53.9439 15.6725 54.2399ZM13.99 57.3394C13.99 57.7191 14.2583 57.909 14.6049 57.7638C14.9961 57.5963 15.2085 57.2723 15.2644 56.8647C15.3203 56.4905 14.9849 56.2615 14.6328 56.39C14.2639 56.5184 13.99 56.9261 13.99 57.3394ZM15.6725 56.2504C15.6725 56.7586 15.9799 56.9484 16.3768 56.7418C16.7009 56.5743 16.863 56.295 16.9357 55.9544C16.9748 55.7701 16.9301 55.5746 16.768 55.4518C16.6059 55.3289 16.4215 55.3401 16.2426 55.4294C15.8849 55.6137 15.706 55.9209 15.6725 56.2504ZM15.2365 54.8877C15.2421 54.4912 14.9794 54.279 14.6328 54.4018C14.2359 54.5415 13.9453 55.0217 13.9956 55.4406C14.0347 55.7477 14.2639 55.9041 14.5434 55.8148C14.9011 55.7031 15.2309 55.2563 15.2365 54.8877Z" fill="#FAC32D"/>
<path d="M28.6455 32.5215C28.612 32.9906 28.8021 33.3313 29.2101 33.5881C29.797 33.9567 30.4007 34.3086 30.9596 34.7274C31.1217 34.9005 31.295 35.0625 31.4459 35.2468C31.6807 35.5316 31.7813 35.8723 31.8372 36.2297C31.8372 36.9389 31.8372 37.6482 31.8372 38.3574C31.7534 38.7092 31.703 39.0778 31.2726 39.2063C31.1161 39.2509 30.982 39.2509 30.8422 39.1728C30.0429 38.7483 29.2995 38.2401 28.5673 37.7208C28.1369 37.4136 27.9357 36.9333 27.9245 36.414C27.9021 35.5707 27.8909 34.7218 27.9245 33.8785C27.9468 33.3368 28.1984 32.8621 28.6455 32.5215ZM29.6517 36.9948C29.769 37.1176 29.9144 37.1958 30.0709 37.2461C30.0262 37.7096 30.2498 38.1452 30.6298 38.3295C30.7808 38.4021 30.9485 38.4635 31.0994 38.3462C31.2559 38.229 31.2279 38.0447 31.1888 37.8883C31.1441 37.7096 31.0658 37.5421 30.9988 37.3689C31.1497 37.14 31.2167 36.9054 31.0211 36.6653C31.1385 36.5703 31.2503 36.4866 31.2615 36.3134C31.2838 35.9784 31.0658 35.5595 30.7752 35.3976C30.5013 35.2524 30.2721 35.3138 30.0877 35.5819C29.92 35.5148 29.797 35.3696 29.6125 35.325C29.6293 34.8838 29.4113 34.4761 29.0592 34.3197C28.8747 34.2415 28.6735 34.208 28.5058 34.3421C28.3325 34.4817 28.3381 34.6716 28.394 34.8726C28.4555 35.096 28.5952 35.2635 28.7406 35.4311C28.4164 35.4813 28.3269 35.5763 28.3605 35.9002C28.3661 35.9895 28.4052 36.0789 28.4275 36.1627C28.299 36.5368 28.4275 36.8942 28.8021 37.2014C29.1486 37.4918 29.5007 37.3969 29.6517 36.9948Z" fill="#497FB7"/>
<path d="M32.553 45.9068C32.2791 45.5383 32.2959 45.1138 32.363 44.695C32.3853 44.5609 32.4636 44.4381 32.6257 44.4102C32.7263 44.6782 32.9051 44.8793 33.2014 44.8625C33.4082 44.8513 33.6206 44.8346 33.8274 44.8067C34.2243 45.2311 34.4367 45.7393 34.4535 46.3201C33.833 46.1414 33.1958 45.9962 32.553 45.9068Z" fill="#497FB7"/>
<path d="M12.6376 46.6333C12.5147 46.8456 12.3582 47.0299 12.1402 47.1415C11.7545 47.3426 11.4526 47.2421 11.2682 46.8511C11.1173 46.5217 11.1284 46.1866 11.1955 45.8403C11.257 45.522 11.4135 45.2316 11.4974 44.9189C11.5085 44.8854 11.5533 44.8798 11.5868 44.9189C11.5197 44.9747 11.5477 45.0361 11.5812 45.092C11.911 45.6281 12.2519 46.1475 12.6376 46.6333Z" fill="#497FB7"/>
<path d="M16.3546 28.5391C16.6117 29.0919 16.9639 29.4326 17.5117 29.6951C17.0086 29.8626 16.7459 30.22 16.472 30.5663C16.3882 30.6724 16.2987 30.7003 16.2261 30.5328C16.0416 30.1139 15.7454 29.8124 15.2646 29.656C15.7621 29.4382 16.1478 29.1254 16.3546 28.5391Z" fill="#FAC32D"/>
<path d="M28.8311 28.5557C29.0435 29.1141 29.4013 29.4324 29.9379 29.6614C29.4125 29.8178 29.1218 30.1249 28.9373 30.5494C28.8647 30.7169 28.7529 30.7002 28.6746 30.555C28.4622 30.1529 28.1604 29.8513 27.6797 29.6726C28.1995 29.4213 28.5908 29.1085 28.8311 28.5557Z" fill="#FAC32D"/>
<path d="M28.8587 61.1859C28.8307 61.1803 28.8028 61.1803 28.7748 61.1747C28.6295 60.6498 28.2606 60.337 27.6904 60.1136C28.2326 59.9405 28.4897 59.5943 28.7133 59.2089C28.786 59.0805 28.8531 59.0805 28.9201 59.2145C29.1325 59.6278 29.3953 59.9964 29.9263 60.0913C29.4288 60.3035 29.0655 60.6107 28.9145 61.1245C28.8978 61.1468 28.881 61.1635 28.8587 61.1859Z" fill="#FAC32D"/>
<path d="M17.4671 60.1087C16.9752 60.2986 16.6846 60.6169 16.461 61.0022C16.3939 61.1139 16.3268 61.1754 16.2654 61.0078C16.0921 60.5611 15.7567 60.293 15.248 60.1255C15.7567 59.9356 16.0809 59.6396 16.2877 59.2096C16.3771 59.0253 16.4554 59.1817 16.5001 59.2543C16.7237 59.6173 17.0088 59.9132 17.4671 60.1087Z" fill="#FAC32D"/>
<path d="M33.5148 56.8147C33.5092 56.7868 33.5036 56.7533 33.498 56.7254C33.5428 56.1334 33.8558 55.7145 34.3421 55.4074C34.4874 55.3125 34.6495 55.2789 34.8116 55.3795C34.9737 55.48 34.9737 55.6308 34.9625 55.7927C34.9513 56.0217 34.8451 56.2172 34.7445 56.4126V56.4182C34.7278 56.4405 34.7166 56.4629 34.6998 56.4852C34.5209 56.7086 34.3253 56.9152 34.0514 57.0269C33.9061 57.0772 33.7663 57.0437 33.6322 56.9823C33.5931 56.932 33.5539 56.8706 33.5148 56.8147Z" fill="#FAF9E8"/>
<path d="M32.5537 45.9072C33.1965 45.991 33.8281 46.1362 34.4542 46.3205C34.6498 46.6723 34.5492 46.9739 34.1635 47.1917C34.0908 47.2196 34.0182 47.2475 33.9455 47.2699C33.7052 47.1526 33.4201 47.1414 33.2021 46.9404C32.8891 46.6612 32.6879 46.3093 32.5537 45.9072Z" fill="#FAF9E8"/>
<path d="M6.64551 38.7195C7.33303 38.3676 7.33303 38.3676 7.66281 37.4238C7.78019 38.0772 8.10998 38.5352 8.78632 38.7195C8.17705 38.8926 7.8305 39.2947 7.69635 39.909C7.60133 39.6633 7.59574 39.4175 7.42805 39.2332H7.42246C7.27154 38.8982 6.93058 38.8535 6.64551 38.7195Z" fill="#FAC32D"/>
<path d="M33.4364 54.9093C33.5147 54.4346 33.7718 54.0158 34.2748 53.7812C34.6326 53.6137 34.9009 53.8148 34.8673 54.1945C34.8282 54.6301 34.286 55.2947 33.8668 55.4175C33.5985 55.4957 33.414 55.317 33.4364 54.9093Z" fill="#FAF9E8"/>
<path d="M38.1875 51.1845C37.7571 51.3912 37.7068 51.8324 37.5392 52.24C37.4218 51.5755 37.0976 51.1064 36.3877 50.9556C37.0696 50.8271 37.3938 50.3915 37.5336 49.7549C37.6454 50.3413 37.9081 50.788 38.5006 50.9612C38.4111 51.1008 38.2546 51.0729 38.1875 51.1845Z" fill="#FAC32D"/>
<path d="M7.63988 52.2849C7.56162 51.6594 7.31009 51.1903 6.57227 51.0116C7.27096 50.8105 7.56162 50.3693 7.65106 49.7383C7.75726 50.3303 8.07586 50.7323 8.646 50.9446C8.42801 51.1679 8.12058 51.2294 7.95848 51.4918C7.80756 51.7264 7.78521 52.0112 7.63988 52.2849Z" fill="#FAC32D"/>
<path d="M38.1821 38.4796C38.2603 38.5466 38.3442 38.6136 38.4559 38.7085C37.9082 38.9319 37.6678 39.3675 37.5337 39.9204C37.4275 39.2782 37.0921 38.8705 36.4102 38.7588C37.0474 38.5466 37.4554 38.1612 37.5169 37.4688C37.679 37.8597 37.7405 38.2953 38.1821 38.4796Z" fill="#FAC32D"/>
<path d="M12.6381 46.6328C12.2524 46.1469 11.9058 45.6275 11.5816 45.097C11.5481 45.0411 11.5146 44.9797 11.5872 44.9239C11.9282 45.0691 12.2692 45.0579 12.6157 44.9462C12.9008 44.8569 12.9679 44.9015 12.9902 45.2031C13.0238 45.7169 12.9008 46.1916 12.6381 46.6328Z" fill="#FAF9E8"/>
<path d="M19.2784 54.0493C18.9263 54.0493 18.6859 53.798 18.6915 53.4517C18.6971 53.1055 18.9542 52.8597 19.2952 52.8653C19.6361 52.8709 19.91 53.1334 19.9156 53.4517C19.9156 53.7868 19.6361 54.0493 19.2784 54.0493Z" fill="#FAC32D"/>
<path d="M25.9246 54.0499C25.578 54.0499 25.293 53.7762 25.293 53.4467C25.293 53.1396 25.5892 52.8659 25.919 52.8604C26.2544 52.8604 26.5227 53.1172 26.5227 53.4523C26.5227 53.7874 26.26 54.0499 25.9246 54.0499Z" fill="#FAC32D"/>
<path d="M19.3117 36.8996C18.9764 36.8996 18.7137 36.6595 18.7025 36.3411C18.6913 36.0117 18.9708 35.7324 19.3006 35.7324C19.6303 35.7324 19.9042 36.0117 19.9098 36.33C19.9042 36.6539 19.6527 36.8996 19.3117 36.8996Z" fill="#FAC32D"/>
<path d="M25.9184 36.8997C25.5774 36.8997 25.2923 36.6372 25.2979 36.3189C25.2979 36.0285 25.6221 35.7269 25.9296 35.7325C26.2426 35.7381 26.5109 35.995 26.5109 36.291C26.5109 36.6316 26.2537 36.8997 25.9184 36.8997Z" fill="#FAC32D"/>
<path d="M31.0271 41.819C30.7085 41.8134 30.4681 41.5733 30.4737 41.255C30.4737 40.9646 30.7364 40.7133 31.0271 40.7188C31.3457 40.7244 31.6028 40.9701 31.5972 41.2717C31.5972 41.59 31.3569 41.819 31.0271 41.819Z" fill="#FAF9E8"/>
<path d="M14.1687 40.7139C14.4817 40.7139 14.7388 40.954 14.7388 41.2388C14.7388 41.5516 14.4929 41.8085 14.1855 41.814C13.8836 41.8196 13.6153 41.5571 13.6153 41.2556C13.6097 40.9763 13.8836 40.7139 14.1687 40.7139Z" fill="#FAF9E8"/>
<path d="M31.0217 48.9121C30.6919 48.9121 30.4795 48.6999 30.4795 48.376C30.4795 48.0688 30.7087 47.8454 31.0273 47.8398C31.3403 47.8398 31.5918 48.0688 31.5918 48.3648C31.5974 48.6831 31.3571 48.9121 31.0217 48.9121Z" fill="#FAF9E8"/>
<path d="M14.2091 48.9062C13.9016 48.9062 13.6222 48.6493 13.6222 48.3589C13.6166 48.0853 13.8905 47.834 14.1979 47.834C14.4885 47.834 14.7624 48.0909 14.768 48.3645C14.768 48.6493 14.4997 48.9062 14.2091 48.9062Z" fill="#FAF9E8"/>
<path d="M33.8229 44.8072C33.616 44.8351 33.4036 44.8519 33.1968 44.863C32.9006 44.8798 32.7217 44.6787 32.6211 44.4107C33.113 44.2878 33.5154 44.4051 33.8229 44.8072Z" fill="#FAF9E8"/>
<path d="M33.9463 47.2754C34.019 47.2475 34.0916 47.2196 34.1643 47.1973C34.2649 47.5547 34.4941 47.8507 34.6114 48.2025C34.3096 47.9456 34.0916 47.6385 33.9463 47.2754Z" fill="#497FB7"/>
<path d="M38.8864 40.5687C38.8416 40.5911 38.8025 40.6134 38.7578 40.6302C38.6851 40.6078 38.6181 40.5799 38.5454 40.5576C38.5454 40.5352 38.5398 40.524 38.5175 40.5129C38.4504 40.3788 38.4783 40.2672 38.6125 40.189C38.7131 40.1275 38.8081 40.1499 38.8864 40.2225C39.0037 40.3342 38.9702 40.457 38.8864 40.5687Z" fill="#FAF9E8"/>
<path d="M37.0586 53.8374C36.9021 53.8318 36.8071 53.7536 36.8183 53.6196C36.8239 53.4967 36.9189 53.3906 37.053 53.3906C37.176 53.3906 37.2934 53.4632 37.2934 53.6028C37.2934 53.7536 37.1984 53.8262 37.0586 53.8374Z" fill="#FAF9E8"/>
<path d="M37.0133 36.3523C36.9015 36.3635 36.8232 36.263 36.8176 36.1401C36.8121 36.0117 36.8959 35.9112 37.0412 35.9056C37.1754 35.9 37.2872 35.9726 37.2928 36.1066C37.2983 36.2462 37.2145 36.3468 37.0133 36.3523Z" fill="#FAF9E8"/>
<path d="M27.3605 27.8574C27.4891 27.8853 27.5897 27.9412 27.5953 28.0864C27.6009 28.2316 27.5226 28.3154 27.3829 28.3154C27.2375 28.3209 27.1313 28.2539 27.1369 28.0864C27.1369 27.9412 27.2375 27.8909 27.3605 27.8574Z" fill="#FAF9E8"/>
<path d="M38.97 49.1467C38.9924 49.2807 39.0092 49.4036 38.8471 49.4706C38.7465 49.5097 38.6626 49.4929 38.5899 49.4259C38.4782 49.3142 38.5173 49.1914 38.5955 49.0797C38.6626 49.0685 38.7241 49.0573 38.7912 49.0518H38.7968C38.8359 49.0629 38.8806 49.0797 38.9197 49.0909L38.9141 49.0853C38.9309 49.102 38.9477 49.1244 38.97 49.1467Z" fill="#FAF9E8"/>
<path d="M17.7689 61.4102C17.903 61.4437 17.9981 61.5163 18.0037 61.6503C18.0037 61.7899 17.9198 61.8681 17.7745 61.8625C17.6236 61.8569 17.523 61.7843 17.5285 61.628C17.5341 61.4883 17.6459 61.4381 17.7689 61.4102Z" fill="#FAF9E8"/>
<path d="M17.9815 28.0761C17.9759 28.2324 17.8977 28.3106 17.7523 28.3106C17.6126 28.3106 17.5176 28.2436 17.5176 28.0984C17.5176 27.9532 17.6182 27.875 17.7468 27.8694C17.8809 27.8638 17.9647 27.942 17.9815 28.0761Z" fill="#FAF9E8"/>
<path d="M8.35541 53.6252C8.33305 53.7592 8.26598 53.8597 8.12624 53.8709C7.9865 53.8821 7.89706 53.7871 7.88589 53.6531C7.87471 53.5135 7.94737 53.4297 8.09829 53.4241C8.24921 53.4185 8.32746 53.4911 8.35541 53.6252Z" fill="#FAF9E8"/>
<path d="M6.63462 49.2747C6.62344 49.4255 6.53401 49.5093 6.40545 49.5037C6.27689 49.5037 6.17627 49.4255 6.18186 49.2803C6.18745 49.1128 6.28807 49.0681 6.43898 49.0737C6.57872 49.0737 6.62903 49.1519 6.63462 49.2747Z" fill="#FAF9E8"/>
<path d="M8.3499 36.1397C8.31636 36.2402 8.28283 36.3407 8.14309 36.3463C7.98658 36.3519 7.89155 36.2737 7.88596 36.1285C7.88037 36.0001 7.98099 35.9275 8.09837 35.9219C8.22693 35.9219 8.31636 35.9945 8.3499 36.1397Z" fill="#FAF9E8"/>
<path d="M6.68497 40.4176C6.62908 40.5348 6.55641 40.613 6.41108 40.5963C6.26575 40.5795 6.20427 40.4957 6.1875 40.3617C6.20427 40.3226 6.22663 40.2891 6.2434 40.25C6.38314 40.1327 6.52287 40.0881 6.65702 40.2556C6.66261 40.317 6.67379 40.3673 6.68497 40.4176Z" fill="#FAF9E8"/>
<path d="M28.8584 61.1864C28.8752 61.1641 28.8975 61.1473 28.9143 61.125C28.8975 61.1473 28.8808 61.1641 28.8584 61.1864Z" fill="#080A1B"/>
<path d="M36.2373 59.288C36.2597 59.2657 36.2764 59.2489 36.2988 59.2266C36.2764 59.2489 36.2541 59.2712 36.2373 59.288Z" fill="#080A1B"/>
<path d="M42.5871 42.4787C42.576 42.4898 42.5704 42.501 42.5592 42.5122C42.548 42.501 42.5368 42.4898 42.5312 42.4787C42.5312 42.4731 42.5424 42.4619 42.5424 42.4619C42.5592 42.4619 42.576 42.4731 42.5871 42.4787Z" fill="#080A1B"/>
<path d="M35.7334 29.9855C35.711 29.9688 35.6942 29.9464 35.6719 29.9297C35.6942 29.9464 35.7166 29.9688 35.7334 29.9855Z" fill="#080A1B"/>
<path d="M38.9641 49.1464C38.9473 49.1241 38.925 49.1017 38.9082 49.085C38.9306 49.1017 38.9473 49.1241 38.9641 49.1464Z" fill="#080A1B"/>
<path d="M12.7168 27.5219C12.7392 27.5052 12.7615 27.4884 12.7839 27.4717C12.7615 27.494 12.7392 27.5052 12.7168 27.5219Z" fill="#080A1B"/>
<path d="M21.4968 60.3386C21.5024 60.8413 21.1279 61.1149 20.6528 60.9474C20.1721 60.7742 19.6523 60.1934 19.6299 59.6071C19.6075 59.0821 19.9653 58.8029 20.4572 58.9704C21.0217 59.1547 21.4968 59.7802 21.4968 60.3386Z" fill="#FAF9E8"/>
<path d="M24.9513 60.8579C24.5265 60.7518 24.1408 60.6624 23.7551 60.5619C23.6769 60.5396 23.7272 60.4725 23.7495 60.4279C24.0346 59.9308 24.3252 59.4338 24.6047 58.9312C24.6494 58.853 24.6718 58.853 24.7501 58.8865C25.0351 59.0094 25.3258 59.1266 25.6164 59.2272C25.7785 59.283 25.7841 59.3556 25.7115 59.4896C25.4879 59.9029 25.2699 60.3218 25.0463 60.7406C25.0239 60.802 25.0016 60.8746 24.9513 60.8579Z" fill="#FAF9E8"/>
<path d="M25.5664 56.9484C25.5832 56.9317 25.6055 56.9093 25.6223 56.8926C25.6055 56.9093 25.5832 56.9261 25.5664 56.9484Z" fill="#080A1B"/>
<path d="M25.6221 56.8918C25.6388 56.875 25.6612 56.8527 25.678 56.8359C25.6612 56.8527 25.6388 56.8694 25.6221 56.8918Z" fill="#080A1B"/>
<path d="M19.8096 57.0596C19.8375 57.0763 19.8599 57.0987 19.8878 57.1154C19.8655 57.0931 19.8375 57.0763 19.8096 57.0596Z" fill="#080A1B"/>
<path d="M15.0861 51.4131C15.4662 51.4131 15.7792 51.6644 15.7736 51.9604C15.7624 52.2787 15.4494 52.5356 15.0693 52.53C14.7116 52.5244 14.4265 52.2843 14.4153 51.9771C14.4041 51.6811 14.7228 51.4131 15.0861 51.4131Z" fill="#FAF9E8"/>
<path d="M11.7318 51.4131C12.1174 51.4131 12.4081 51.6476 12.4193 51.9604C12.4305 52.2899 12.1454 52.53 11.7597 52.53C11.3852 52.5244 11.0945 52.2843 11.089 51.9604C11.0834 51.6421 11.3517 51.4131 11.7318 51.4131Z" fill="#FAF9E8"/>
<path d="M30.8655 55.9819C30.8599 56.6018 30.4239 56.8755 29.9264 56.6353C29.4625 56.4175 29.1998 56.0434 29.0992 55.5519C29.0433 55.2783 29.0936 55.027 29.3116 54.8427C29.5296 54.6584 29.7811 54.6919 30.0159 54.8259C30.491 55.0996 30.8096 55.4905 30.8655 55.9819Z" fill="#497FB7"/>
<path d="M37.2374 46.1579C37.2933 45.7279 37.528 45.3593 37.9696 45.1471C38.2603 45.0075 38.5342 45.1695 38.5956 45.4878C38.6795 45.9234 38.3441 46.5321 37.9305 46.6941C37.5448 46.8504 37.2318 46.6271 37.2374 46.1579Z" fill="#FAC32D"/>
<path d="M28.4334 36.1734C28.4111 36.084 28.3719 36.0002 28.3663 35.9109C28.3384 35.5926 28.4222 35.492 28.7464 35.4418C28.8359 35.4809 28.9309 35.52 29.0259 35.5479C29.2774 35.6205 29.4954 35.5926 29.6184 35.3301C29.7973 35.3748 29.9202 35.52 30.0935 35.587C30.1494 36.1789 30.5127 36.5978 31.0326 36.676C31.2226 36.9161 31.1611 37.1507 31.0102 37.3796C30.932 37.3182 30.8593 37.2456 30.7755 37.1953C30.496 37.0166 30.3059 37.0334 30.0712 37.2568C29.9091 37.2065 29.7693 37.1283 29.6519 37.0055C29.5681 36.7709 29.4787 36.5419 29.2998 36.3576C29.0091 36.0505 28.78 36.0002 28.4334 36.1734Z" fill="#FAF9E8"/>
<path d="M27.1374 61.5272C27.1877 61.4993 27.2324 61.4658 27.2828 61.449C27.4393 61.4044 27.5734 61.449 27.6125 61.6054C27.6461 61.7394 27.5566 61.8344 27.4169 61.8567C27.2548 61.8791 27.143 61.8176 27.1318 61.6389C27.1318 61.6054 27.1374 61.5663 27.1374 61.5272Z" fill="#FAF9E8"/>
<path d="M158.031 39.46V44.6384H154.723V35.4324H157.863V37.1825H157.959C158.159 36.5991 158.511 36.1416 159.014 35.81C159.521 35.4783 160.113 35.3125 160.788 35.3125C161.439 35.3125 162.005 35.4623 162.484 35.762C162.968 36.0577 163.341 36.4653 163.605 36.9847C163.873 37.5041 164.005 38.0975 164.001 38.7648V44.6384H160.692V39.46C160.696 39.0045 160.58 38.6469 160.345 38.3872C160.113 38.1275 159.789 37.9976 159.374 37.9976C159.102 37.9976 158.864 38.0575 158.66 38.1774C158.461 38.2933 158.307 38.4611 158.199 38.6809C158.091 38.8966 158.035 39.1563 158.031 39.46Z" fill="#FAC32D"/>
<path d="M147.317 44.7822C146.73 44.7822 146.21 44.6864 145.759 44.4946C145.311 44.2988 144.96 44.0031 144.704 43.6075C144.448 43.2119 144.32 42.7085 144.32 42.0972C144.32 41.5937 144.406 41.1642 144.578 40.8086C144.75 40.4489 144.99 40.1553 145.297 39.9275C145.605 39.6998 145.963 39.5259 146.37 39.4061C146.782 39.2862 147.225 39.2083 147.701 39.1723C148.216 39.1324 148.63 39.0844 148.941 39.0285C149.257 38.9685 149.485 38.8866 149.625 38.7827C149.764 38.6749 149.834 38.533 149.834 38.3572V38.3332C149.834 38.0935 149.742 37.9097 149.559 37.7818C149.375 37.654 149.139 37.59 148.851 37.59C148.536 37.59 148.278 37.66 148.078 37.7998C147.882 37.9357 147.765 38.1454 147.725 38.4291H144.68C144.72 37.8697 144.898 37.3543 145.213 36.8828C145.533 36.4073 145.998 36.0277 146.61 35.744C147.221 35.4563 147.984 35.3125 148.899 35.3125C149.559 35.3125 150.15 35.3904 150.673 35.5462C151.197 35.6981 151.642 35.9119 152.01 36.1876C152.378 36.4593 152.657 36.7789 152.849 37.1465C153.045 37.5101 153.143 37.9057 153.143 38.3332V44.6384H150.05V43.3438H149.978C149.794 43.6874 149.571 43.9651 149.307 44.1769C149.047 44.3887 148.75 44.5425 148.414 44.6384C148.082 44.7343 147.717 44.7822 147.317 44.7822ZM148.396 42.6965C148.648 42.6965 148.883 42.6446 149.103 42.5407C149.327 42.4368 149.509 42.2869 149.649 42.0912C149.788 41.8954 149.858 41.6576 149.858 41.3779V40.6108C149.77 40.6467 149.677 40.6807 149.577 40.7127C149.481 40.7446 149.377 40.7746 149.265 40.8026C149.157 40.8305 149.041 40.8565 148.917 40.8805C148.797 40.9044 148.672 40.9264 148.54 40.9464C148.284 40.9864 148.074 41.0523 147.91 41.1442C147.751 41.2321 147.631 41.342 147.551 41.4738C147.475 41.6017 147.437 41.7455 147.437 41.9054C147.437 42.1611 147.527 42.3569 147.707 42.4927C147.886 42.6286 148.116 42.6965 148.396 42.6965Z" fill="#FAC32D"/>
<path d="M143.401 35.4332V37.8306H137.336V35.4332H143.401ZM138.511 33.2275H141.819V41.6784C141.819 41.8063 141.841 41.9141 141.885 42.002C141.929 42.086 141.997 42.1499 142.089 42.1938C142.181 42.2338 142.299 42.2538 142.442 42.2538C142.542 42.2538 142.658 42.2418 142.79 42.2178C142.926 42.1938 143.026 42.1739 143.09 42.1579L143.569 44.4834C143.421 44.5273 143.21 44.5812 142.934 44.6452C142.662 44.7091 142.339 44.7511 141.963 44.771C141.204 44.811 140.566 44.7331 140.051 44.5373C139.536 44.3375 139.148 44.0239 138.888 43.5963C138.629 43.1688 138.503 42.6334 138.511 41.9901V33.2275Z" fill="#FAC32D"/>
<path d="M132.947 32.3652H136.279V40.2287C136.279 41.1637 136.055 41.9728 135.608 42.6561C135.164 43.3354 134.545 43.8608 133.75 44.2324C132.955 44.6 132.032 44.7838 130.981 44.7838C129.922 44.7838 128.995 44.6 128.2 44.2324C127.405 43.8608 126.785 43.3354 126.342 42.6561C125.902 41.9728 125.683 41.1637 125.683 40.2287V32.3652H129.015V39.941C129.015 40.3206 129.099 40.6603 129.267 40.9599C129.435 41.2556 129.666 41.4874 129.962 41.6552C130.262 41.823 130.601 41.9069 130.981 41.9069C131.364 41.9069 131.704 41.823 132 41.6552C132.295 41.4874 132.527 41.2556 132.695 40.9599C132.863 40.6603 132.947 40.3206 132.947 39.941V32.3652Z" fill="#FAC32D"/>
<path d="M114.765 39.46V44.6384H111.457V35.4324H114.598V37.1825H114.694C114.893 36.5991 115.245 36.1416 115.748 35.81C116.256 35.4783 116.847 35.3125 117.522 35.3125C118.174 35.3125 118.739 35.4623 119.219 35.762C119.702 36.0577 120.076 36.4653 120.339 36.9847C120.607 37.5041 120.739 38.0975 120.735 38.7648V44.6384H117.427V39.46C117.431 39.0045 117.315 38.6469 117.079 38.3872C116.847 38.1275 116.524 37.9976 116.108 37.9976C115.836 37.9976 115.599 38.0575 115.395 38.1774C115.195 38.2933 115.041 38.4611 114.933 38.6809C114.825 38.8966 114.769 39.1563 114.765 39.46Z" fill="#FAC32D"/>
<path d="M105.344 44.8062C104.345 44.8062 103.49 44.6084 102.779 44.2129C102.068 43.8133 101.522 43.2579 101.143 42.5467C100.763 41.8314 100.573 41.0023 100.573 40.0594C100.573 39.1164 100.763 38.2893 101.143 37.578C101.522 36.8628 102.068 36.3074 102.779 35.9119C103.49 35.5123 104.345 35.3125 105.344 35.3125C106.343 35.3125 107.198 35.5123 107.909 35.9119C108.621 36.3074 109.166 36.8628 109.546 37.578C109.925 38.2893 110.115 39.1164 110.115 40.0594C110.115 41.0023 109.925 41.8314 109.546 42.5467C109.166 43.2579 108.621 43.8133 107.909 44.2129C107.198 44.6084 106.343 44.8062 105.344 44.8062ZM105.368 42.3609C105.648 42.3609 105.889 42.267 106.093 42.0792C106.297 41.8914 106.455 41.6237 106.567 41.276C106.679 40.9284 106.735 40.5149 106.735 40.0354C106.735 39.5519 106.679 39.1384 106.567 38.7947C106.455 38.4471 106.297 38.1794 106.093 37.9916C105.889 37.8038 105.648 37.7099 105.368 37.7099C105.072 37.7099 104.819 37.8038 104.607 37.9916C104.395 38.1794 104.233 38.4471 104.121 38.7947C104.01 39.1384 103.954 39.5519 103.954 40.0354C103.954 40.5149 104.01 40.9284 104.121 41.276C104.233 41.6237 104.395 41.8914 104.607 42.0792C104.819 42.267 105.072 42.3609 105.368 42.3609Z" fill="#FAC32D"/>
<path d="M93.3065 39.46V44.6384H89.998V35.4324H93.1386V37.1825H93.2345C93.4343 36.5991 93.7859 36.1416 94.2894 35.81C94.7969 35.4783 95.3882 35.3125 96.0635 35.3125C96.7148 35.3125 97.2802 35.4623 97.7596 35.762C98.2431 36.0577 98.6167 36.4653 98.8804 36.9847C99.1481 37.5041 99.28 38.0975 99.276 38.7648V44.6384H95.9676V39.46C95.9716 39.0045 95.8557 38.6469 95.62 38.3872C95.3882 38.1275 95.0646 37.9976 94.649 37.9976C94.3773 37.9976 94.1396 38.0575 93.9358 38.1774C93.736 38.2933 93.5822 38.4611 93.4743 38.6809C93.3664 38.8966 93.3105 39.1563 93.3065 39.46Z" fill="#FAC32D"/>
<path d="M85.0029 44.6388V35.4328H88.3113V44.6388H85.0029ZM86.6571 34.4739C86.2096 34.4739 85.826 34.326 85.5064 34.0303C85.1867 33.7347 85.0269 33.379 85.0269 32.9635C85.0269 32.5479 85.1867 32.1923 85.5064 31.8966C85.826 31.601 86.2096 31.4531 86.6571 31.4531C87.1087 31.4531 87.4922 31.601 87.8079 31.8966C88.1275 32.1923 88.2874 32.5479 88.2874 32.9635C88.2874 33.379 88.1275 33.7347 87.8079 34.0303C87.4922 34.326 87.1087 34.4739 86.6571 34.4739Z" fill="#FAC32D"/>
<path d="M83.4953 38.4291H80.4506C80.4346 38.2413 80.3687 38.0795 80.2528 37.9437C80.1369 37.8078 79.9871 37.7039 79.8033 37.632C79.6235 37.5561 79.4237 37.5181 79.2039 37.5181C78.9203 37.5181 78.6765 37.5701 78.4727 37.6739C78.269 37.7778 78.1691 37.9257 78.1731 38.1175C78.1691 38.2533 78.227 38.3792 78.3469 38.4951C78.4707 38.6109 78.7085 38.7008 79.0601 38.7648L80.9301 39.1004C81.8731 39.2722 82.5743 39.5619 83.0338 39.9695C83.4973 40.373 83.731 40.9144 83.735 41.5937C83.731 42.249 83.5353 42.8184 83.1477 43.3019C82.7641 43.7813 82.2387 44.1529 81.5714 44.4166C80.9081 44.6764 80.1509 44.8062 79.2998 44.8062C77.8934 44.8062 76.7926 44.5185 75.9974 43.9432C75.2063 43.3678 74.7648 42.6086 74.6729 41.6656H77.9573C78.0012 41.9573 78.1451 42.1831 78.3888 42.3429C78.6366 42.4987 78.9482 42.5766 79.3238 42.5766C79.6275 42.5766 79.8772 42.5247 80.073 42.4208C80.2728 42.3169 80.3747 42.1691 80.3787 41.9773C80.3747 41.8015 80.2868 41.6616 80.115 41.5577C79.9471 41.4539 79.6834 41.3699 79.3238 41.306L77.6936 41.0183C76.7546 40.8545 76.0514 40.5428 75.5839 40.0833C75.1164 39.6238 74.8846 39.0325 74.8886 38.3093C74.8846 37.6699 75.0524 37.1285 75.3921 36.685C75.7357 36.2375 76.2252 35.8979 76.8605 35.6661C77.4998 35.4304 78.257 35.3125 79.132 35.3125C80.4626 35.3125 81.5114 35.5882 82.2786 36.1396C83.0498 36.691 83.4553 37.4542 83.4953 38.4291Z" fill="#FAC32D"/>
<path d="M67.6755 44.7822C67.0881 44.7822 66.5687 44.6864 66.1172 44.4946C65.6696 44.2988 65.318 44.0031 65.0623 43.6075C64.8066 43.2119 64.6787 42.7085 64.6787 42.0972C64.6787 41.5937 64.7646 41.1642 64.9364 40.8086C65.1082 40.4489 65.348 40.1553 65.6557 39.9275C65.9633 39.6998 66.3209 39.5259 66.7285 39.4061C67.14 39.2862 67.5836 39.2083 68.0591 39.1723C68.5745 39.1324 68.988 39.0844 69.2997 39.0285C69.6154 38.9685 69.8431 38.8866 69.983 38.7827C70.1228 38.6749 70.1927 38.533 70.1927 38.3572V38.3332C70.1927 38.0935 70.1008 37.9097 69.917 37.7818C69.7332 37.654 69.4975 37.59 69.2098 37.59C68.8941 37.59 68.6364 37.66 68.4366 37.7998C68.2409 37.9357 68.123 38.1454 68.083 38.4291H65.0383C65.0783 37.8697 65.2561 37.3543 65.5717 36.8828C65.8914 36.4073 66.3569 36.0277 66.9682 35.744C67.5796 35.4563 68.3427 35.3125 69.2578 35.3125C69.917 35.3125 70.5084 35.3904 71.0318 35.5462C71.5553 35.6981 72.0008 35.9119 72.3684 36.1876C72.736 36.4593 73.0157 36.7789 73.2075 37.1465C73.4033 37.5101 73.5012 37.9057 73.5012 38.3332V44.6384H70.4085V43.3438H70.3366C70.1528 43.6874 69.929 43.9651 69.6653 44.1769C69.4056 44.3887 69.1079 44.5425 68.7723 44.6384C68.4406 44.7343 68.075 44.7822 67.6755 44.7822ZM68.7543 42.6965C69.006 42.6965 69.2418 42.6446 69.4615 42.5407C69.6853 42.4368 69.8671 42.2869 70.0069 42.0912C70.1468 41.8954 70.2167 41.6576 70.2167 41.3779V40.6108C70.1288 40.6467 70.0349 40.6807 69.935 40.7127C69.8391 40.7446 69.7352 40.7746 69.6234 40.8026C69.5155 40.8305 69.3996 40.8565 69.2757 40.8805C69.1559 40.9044 69.03 40.9264 68.8981 40.9464C68.6424 40.9864 68.4326 41.0523 68.2688 41.1442C68.109 41.2321 67.9891 41.342 67.9092 41.4738C67.8333 41.6017 67.7953 41.7455 67.7953 41.9054C67.7953 42.1611 67.8852 42.3569 68.065 42.4927C68.2448 42.6286 68.4746 42.6965 68.7543 42.6965Z" fill="#FAC32D"/>
<path d="M63.5495 36.9681H60.1692C60.1452 36.6884 60.0813 36.4347 59.9774 36.2069C59.8775 35.9792 59.7377 35.7834 59.5579 35.6196C59.382 35.4517 59.1683 35.3239 58.9166 35.236C58.6648 35.1441 58.3791 35.0981 58.0595 35.0981C57.5001 35.0981 57.0266 35.234 56.639 35.5057C56.2554 35.7774 55.9637 36.167 55.764 36.6744C55.5682 37.1819 55.4703 37.7912 55.4703 38.5024C55.4703 39.2536 55.5702 39.8829 55.77 40.3904C55.9737 40.8939 56.2674 41.2734 56.651 41.5292C57.0346 41.7809 57.4961 41.9068 58.0355 41.9068C58.3432 41.9068 58.6189 41.8688 58.8626 41.7929C59.1063 41.713 59.3181 41.5991 59.4979 41.4512C59.6777 41.3034 59.8236 41.1256 59.9354 40.9178C60.0513 40.7061 60.1292 40.4683 60.1692 40.2046L63.5495 40.2286C63.5096 40.748 63.3637 41.2774 63.112 41.8169C62.8603 42.3523 62.5027 42.8477 62.0392 43.3032C61.5797 43.7548 61.0103 44.1184 60.331 44.3941C59.6518 44.6698 58.8626 44.8076 57.9636 44.8076C56.8368 44.8076 55.8259 44.5659 54.9309 44.0824C54.0398 43.5989 53.3346 42.8877 52.8152 41.9487C52.2997 41.0097 52.042 39.861 52.042 38.5024C52.042 37.1359 52.3057 35.9852 52.8331 35.0502C53.3606 34.1112 54.0718 33.402 54.9668 32.9225C55.8619 32.439 56.8608 32.1973 57.9636 32.1973C58.7387 32.1973 59.452 32.3032 60.1033 32.5149C60.7546 32.7267 61.3259 33.0364 61.8174 33.4439C62.3089 33.8475 62.7044 34.3449 63.0041 34.9363C63.3038 35.5277 63.4856 36.2049 63.5495 36.9681Z" fill="#FAC32D"/>
<path d="M134.437 53.0467L133.503 53.3112C133.444 53.1555 133.357 53.0041 133.242 52.8572C133.131 52.7074 132.978 52.5839 132.784 52.487C132.59 52.39 132.342 52.3415 132.039 52.3415C131.625 52.3415 131.28 52.437 131.003 52.628C130.73 52.8161 130.594 53.0556 130.594 53.3465C130.594 53.605 130.688 53.8092 130.876 53.9591C131.064 54.109 131.358 54.2338 131.757 54.3337L132.762 54.5806C133.367 54.7275 133.818 54.9523 134.115 55.2549C134.412 55.5546 134.56 55.941 134.56 56.4141C134.56 56.802 134.449 57.1487 134.225 57.4543C134.005 57.7599 133.696 58.0008 133.3 58.1771C132.903 58.3534 132.442 58.4416 131.916 58.4416C131.225 58.4416 130.654 58.2917 130.201 57.992C129.749 57.6923 129.462 57.2545 129.342 56.6786L130.329 56.4317C130.423 56.7961 130.601 57.0694 130.862 57.2516C131.127 57.4337 131.472 57.5248 131.898 57.5248C132.383 57.5248 132.768 57.422 133.053 57.2163C133.341 57.0077 133.485 56.7579 133.485 56.467C133.485 56.2319 133.403 56.0351 133.238 55.8764C133.074 55.7148 132.821 55.5943 132.48 55.515L131.352 55.2505C130.732 55.1036 130.276 54.8759 129.985 54.5673C129.697 54.2559 129.553 53.8665 129.553 53.3993C129.553 53.0174 129.661 52.6794 129.875 52.3856C130.093 52.0918 130.388 51.8611 130.761 51.6936C131.137 51.5261 131.563 51.4424 132.039 51.4424C132.709 51.4424 133.235 51.5893 133.617 51.8831C134.002 52.177 134.275 52.5648 134.437 53.0467Z" fill="white"/>
<path d="M123.421 54.228V58.3006H122.381V51.5305H123.386V52.5883H123.474C123.633 52.2446 123.874 51.9684 124.197 51.7597C124.52 51.5482 124.937 51.4424 125.449 51.4424C125.907 51.4424 126.308 51.5364 126.652 51.7245C126.996 51.9096 127.263 52.1917 127.454 52.5707C127.645 52.9468 127.74 53.4228 127.74 53.9988V58.3006H126.7V54.0693C126.7 53.5374 126.562 53.1231 126.286 52.8264C126.01 52.5266 125.631 52.3768 125.149 52.3768C124.817 52.3768 124.52 52.4488 124.258 52.5928C124 52.7367 123.796 52.9468 123.646 53.223C123.496 53.4992 123.421 53.8342 123.421 54.228Z" fill="white"/>
<path d="M117.995 58.4416C117.342 58.4416 116.78 58.2976 116.307 58.0097C115.836 57.7188 115.474 57.3133 115.218 56.7932C114.965 56.2701 114.839 55.6619 114.839 54.9684C114.839 54.275 114.965 53.6638 115.218 53.1349C115.474 52.603 115.829 52.1887 116.285 51.892C116.743 51.5922 117.278 51.4424 117.889 51.4424C118.242 51.4424 118.59 51.5012 118.933 51.6187C119.277 51.7362 119.59 51.9272 119.872 52.1917C120.154 52.4532 120.379 52.7999 120.547 53.2319C120.714 53.6638 120.798 54.1956 120.798 54.8274V55.2681H115.579V54.369H119.74C119.74 53.987 119.664 53.6462 119.511 53.3465C119.361 53.0467 119.147 52.8102 118.867 52.6368C118.591 52.4635 118.265 52.3768 117.889 52.3768C117.475 52.3768 117.116 52.4796 116.813 52.6853C116.514 52.8881 116.283 53.1525 116.121 53.4787C115.96 53.8048 115.879 54.1545 115.879 54.5277V55.1271C115.879 55.6384 115.967 56.0718 116.144 56.4273C116.323 56.7799 116.571 57.0488 116.888 57.2339C117.206 57.4161 117.574 57.5072 117.995 57.5072C118.268 57.5072 118.515 57.469 118.735 57.3926C118.958 57.3133 119.151 57.1957 119.313 57.04C119.474 56.8813 119.599 56.6844 119.687 56.4494L120.692 56.7315C120.586 57.0723 120.409 57.372 120.159 57.6306C119.909 57.8862 119.601 58.0861 119.233 58.23C118.866 58.3711 118.453 58.4416 117.995 58.4416Z" fill="white"/>
<path d="M110.974 58.4416C110.339 58.4416 109.793 58.2917 109.334 57.992C108.876 57.6923 108.523 57.2795 108.276 56.7535C108.03 56.2275 107.906 55.6266 107.906 54.9508C107.906 54.2632 108.033 53.6564 108.285 53.1305C108.541 52.6016 108.896 52.1887 109.352 51.892C109.81 51.5922 110.345 51.4424 110.956 51.4424C111.432 51.4424 111.861 51.5305 112.243 51.7068C112.625 51.8831 112.938 52.13 113.182 52.4473C113.426 52.7647 113.577 53.1349 113.636 53.558H112.596C112.517 53.2495 112.34 52.9762 112.067 52.7382C111.797 52.4973 111.432 52.3768 110.974 52.3768C110.568 52.3768 110.213 52.4826 109.907 52.6941C109.605 52.9028 109.368 53.1981 109.198 53.5801C109.03 53.9591 108.946 54.4043 108.946 54.9155C108.946 55.4386 109.029 55.894 109.193 56.2819C109.361 56.6698 109.596 56.9709 109.898 57.1854C110.204 57.3999 110.563 57.5072 110.974 57.5072C111.244 57.5072 111.49 57.4602 111.71 57.3662C111.93 57.2721 112.117 57.137 112.27 56.9607C112.423 56.7844 112.531 56.5728 112.596 56.326H113.636C113.577 56.7256 113.432 57.0855 113.2 57.4058C112.971 57.7232 112.666 57.9759 112.287 58.1639C111.911 58.349 111.473 58.4416 110.974 58.4416Z" fill="white"/>
<path d="M105.277 58.301V51.5309H106.317V58.301H105.277ZM105.806 50.4026C105.603 50.4026 105.428 50.3336 105.281 50.1955C105.137 50.0573 105.065 49.8913 105.065 49.6974C105.065 49.5035 105.137 49.3374 105.281 49.1993C105.428 49.0612 105.603 48.9922 105.806 48.9922C106.009 48.9922 106.182 49.0612 106.326 49.1993C106.473 49.3374 106.546 49.5035 106.546 49.6974C106.546 49.8913 106.473 50.0573 106.326 50.1955C106.182 50.3336 106.009 50.4026 105.806 50.4026Z" fill="white"/>
<path d="M98.4375 58.3021V49.2754H99.5306V57.3324H103.727V58.3021H98.4375Z" fill="white"/>
<path d="M89.0244 55.8338L89.0067 54.5468H89.2183L92.1802 51.5321H93.4672L90.3114 54.7231H90.2232L89.0244 55.8338ZM88.0547 58.3021V49.2754H89.0949V58.3021H88.0547ZM92.3565 58.3021L89.7119 54.9523L90.4524 54.2295L93.6787 58.3021H92.3565Z" fill="white"/>
<path d="M86.3647 53.0467L85.4303 53.3112C85.3715 53.1555 85.2848 53.0041 85.1702 52.8572C85.0586 52.7074 84.9058 52.5839 84.7118 52.487C84.5179 52.39 84.2696 52.3415 83.967 52.3415C83.5526 52.3415 83.2074 52.437 82.9312 52.628C82.6579 52.8161 82.5213 53.0556 82.5213 53.3465C82.5213 53.605 82.6153 53.8092 82.8034 53.9591C82.9914 54.109 83.2853 54.2338 83.6849 54.3337L84.6898 54.5806C85.2951 54.7275 85.7461 54.9523 86.0429 55.2549C86.3397 55.5546 86.4881 55.941 86.4881 56.4141C86.4881 56.802 86.3764 57.1487 86.1531 57.4543C85.9327 57.7599 85.6242 58.0008 85.2275 58.1771C84.8308 58.3534 84.3695 58.4416 83.8435 58.4416C83.153 58.4416 82.5815 58.2917 82.129 57.992C81.6765 57.6923 81.39 57.2545 81.2695 56.6786L82.2568 56.4317C82.3509 56.7961 82.5286 57.0694 82.7901 57.2516C83.0546 57.4337 83.3999 57.5248 83.8259 57.5248C84.3108 57.5248 84.6957 57.422 84.9807 57.2163C85.2687 57.0077 85.4126 56.7579 85.4126 56.467C85.4126 56.2319 85.3304 56.0351 85.1658 55.8764C85.0013 55.7148 84.7486 55.5943 84.4077 55.515L83.2794 55.2505C82.6594 55.1036 82.2039 54.8759 81.913 54.5673C81.6251 54.2559 81.4811 53.8665 81.4811 53.3993C81.4811 53.0174 81.5883 52.6794 81.8028 52.3856C82.0203 52.0918 82.3156 51.8611 82.6888 51.6936C83.0649 51.5261 83.4909 51.4424 83.967 51.4424C84.6369 51.4424 85.1629 51.5893 85.5449 51.8831C85.9298 52.177 86.2031 52.5648 86.3647 53.0467Z" fill="white"/>
<path d="M75.3498 54.228V58.3006H74.3096V51.5305H75.3145V52.5883H75.4026C75.5613 52.2446 75.8023 51.9684 76.1255 51.7597C76.4487 51.5482 76.866 51.4424 77.3772 51.4424C77.8356 51.4424 78.2367 51.5364 78.5805 51.7245C78.9243 51.9096 79.1917 52.1917 79.3827 52.5707C79.5737 52.9468 79.6692 53.4228 79.6692 53.9988V58.3006H78.629V54.0693C78.629 53.5374 78.4909 53.1231 78.2147 52.8264C77.9385 52.5266 77.5594 52.3768 77.0775 52.3768C76.7455 52.3768 76.4487 52.4488 76.1872 52.5928C75.9286 52.7367 75.7244 52.9468 75.5745 53.223C75.4247 53.4992 75.3498 53.8342 75.3498 54.228Z" fill="white"/>
<path d="M69.9234 58.4416C69.2711 58.4416 68.7084 58.2976 68.2353 58.0097C67.7652 57.7188 67.4023 57.3133 67.1466 56.7932C66.8939 56.2701 66.7676 55.6619 66.7676 54.9684C66.7676 54.275 66.8939 53.6638 67.1466 53.1349C67.4023 52.603 67.7578 52.1887 68.2133 51.892C68.6716 51.5922 69.2064 51.4424 69.8176 51.4424C70.1702 51.4424 70.5184 51.5012 70.8622 51.6187C71.206 51.7362 71.5189 51.9272 71.801 52.1917C72.0831 52.4532 72.3079 52.7999 72.4754 53.2319C72.6429 53.6638 72.7266 54.1956 72.7266 54.8274V55.2681H67.508V54.369H71.6688C71.6688 53.987 71.5924 53.6462 71.4396 53.3465C71.2897 53.0467 71.0752 52.8102 70.7961 52.6368C70.5199 52.4635 70.1937 52.3768 69.8176 52.3768C69.4033 52.3768 69.0448 52.4796 68.7422 52.6853C68.4425 52.8881 68.2118 53.1525 68.0502 53.4787C67.8886 53.8048 67.8078 54.1545 67.8078 54.5277V55.1271C67.8078 55.6384 67.8959 56.0718 68.0722 56.4273C68.2515 56.7799 68.4998 57.0488 68.8171 57.2339C69.1344 57.4161 69.5032 57.5072 69.9234 57.5072C70.1967 57.5072 70.4435 57.469 70.6639 57.3926C70.8872 57.3133 71.0796 57.1957 71.2413 57.04C71.4029 56.8813 71.5277 56.6844 71.6159 56.4494L72.6208 56.7315C72.515 57.0723 72.3373 57.372 72.0875 57.6306C71.8377 57.8862 71.5292 58.0861 71.1619 58.23C70.7946 58.3711 70.3818 58.4416 69.9234 58.4416Z" fill="white"/>
<path d="M65.9545 51.5312L63.451 58.3013H62.3931L59.8896 51.5312H61.018L62.8868 56.9261H62.9573L64.8261 51.5312H65.9545Z" fill="white"/>
<path d="M57.5812 51.5324C57.5283 51.0858 57.3138 50.7391 56.9377 50.4922C56.5616 50.2454 56.1002 50.122 55.5537 50.122C55.1541 50.122 54.8044 50.1867 54.5047 50.3159C54.2079 50.4452 53.9758 50.623 53.8083 50.8493C53.6437 51.0755 53.5615 51.3326 53.5615 51.6206C53.5615 51.8615 53.6188 52.0687 53.7334 52.242C53.8509 52.4125 54.0008 52.555 54.1829 52.6696C54.3651 52.7812 54.5561 52.8738 54.7559 52.9473C54.9557 53.0178 55.1394 53.0751 55.3069 53.1192L56.2236 53.366C56.4587 53.4277 56.7202 53.5129 57.0082 53.6216C57.2991 53.7303 57.5768 53.8787 57.8412 54.0668C58.1086 54.2519 58.329 54.4899 58.5024 54.7808C58.6757 55.0717 58.7624 55.4287 58.7624 55.8518C58.7624 56.3396 58.6346 56.7804 58.3789 57.1741C58.1262 57.5679 57.756 57.8808 57.2682 58.1129C56.7834 58.3451 56.1943 58.4611 55.5008 58.4611C54.8544 58.4611 54.2946 58.3568 53.8215 58.1482C53.3514 57.9396 52.9811 57.6487 52.7108 57.2755C52.4434 56.9023 52.2921 56.4689 52.2568 55.9753H53.3852C53.4146 56.3161 53.5292 56.5982 53.729 56.8215C53.9317 57.0419 54.1873 57.2064 54.4959 57.3152C54.8073 57.4209 55.1423 57.4738 55.5008 57.4738C55.9181 57.4738 56.2927 57.4062 56.6247 57.2711C56.9568 57.133 57.2198 56.942 57.4137 56.6981C57.6076 56.4513 57.7046 56.1633 57.7046 55.8342C57.7046 55.5345 57.6208 55.2906 57.4534 55.1026C57.2859 54.9145 57.0655 54.7617 56.7922 54.6442C56.519 54.5266 56.2236 54.4238 55.9063 54.3356L54.7956 54.0183C54.0904 53.8155 53.5321 53.5261 53.1207 53.15C52.7093 52.7739 52.5037 52.2817 52.5037 51.6735C52.5037 51.1681 52.6403 50.7273 52.9136 50.3512C53.1898 49.9722 53.56 49.6783 54.0243 49.4697C54.4915 49.2581 55.013 49.1523 55.589 49.1523C56.1708 49.1523 56.6879 49.2567 57.1404 49.4653C57.5929 49.671 57.9514 49.9531 58.2159 50.3115C58.4833 50.67 58.6243 51.077 58.639 51.5324H57.5812Z" fill="white"/>
</svg>
