<svg width="413" height="57" viewBox="0 0 413 57" fill="none" xmlns="http://www.w3.org/2000/svg">
<path d="M21.5146 43.0348C48.8434 43.0348 35.7733 1.92241 48.6652 1.92241C49.3187 1.92241 50.0319 2.04126 50.8636 2.27889V0.853035C29.0597 -1.464 36.4862 30.6179 27.5745 39.5887L27.0398 38.2223L8.08781 0.853035H0.423828L21.5146 43.0348ZM63.8894 36.2024V24.736H89.317V18.498H63.8894V7.09116H93.3571V0.853035H56.6411V42.4404H93.7136V36.2024H63.8894ZM107.972 36.2024L133.816 7.09116V0.853035H100.13V7.09116H125.795L99.5951 36.2024V42.4404H135.836V36.2024H107.972ZM140.306 42.4404H148.029L151.772 34.9548C154.148 33.4695 155.871 32.8754 157.297 32.8754C161.04 32.8754 162.526 36.7965 166.803 36.7965C169.12 36.7965 172.209 35.6677 176.903 32.2219L182.072 42.4404H189.795L168.645 0.258911H161.456L140.306 42.4404ZM165.021 8.87347L176.428 31.212C174.704 32.2219 173.279 32.5784 172.031 32.5784C168.169 32.5784 166.15 28.7168 161.813 28.7168C159.614 28.7168 156.822 29.7267 152.96 32.6378L165.021 8.87347Z" fill="white"/>
<path d="M215.708 42.9362H227.645C242.483 42.9362 249.869 34.297 249.869 20.6456C249.869 10.7533 246.374 0.729187 229.557 0.729187H215.708V42.9362ZM220.984 38.3198V6.07099H228.766C238.724 6.07099 244.594 9.63221 244.594 20.7775C244.594 30.274 239.845 38.3198 228.304 38.3198H220.984ZM264.385 0.729187H258.384V6.00504H264.385V0.729187ZM258.78 42.9362H264.055V12.6H258.78V42.9362ZM270.628 51.1136C273.002 53.6859 279.003 56.1919 285.992 56.1919C294.634 56.1919 301.689 52.3007 301.689 46.5633C301.689 40.4961 292.985 38.122 285.071 39.309C286.39 37.9901 287.246 36.5393 287.709 35.3522C293.576 34.4289 297.931 30.274 297.931 24.4706C297.931 21.1072 295.754 17.612 291.732 16.6888C294.895 16.1612 297.997 15.5677 301.163 15.0401V11.2809C296.348 11.4788 291.533 11.7426 286.72 11.9404C279.86 11.9404 272.079 15.106 272.079 23.6792C272.079 30.8015 277.025 34.8906 283.355 35.4841C282.829 37.2647 280.85 39.309 277.223 41.3534V44.387C279.926 43.6616 283.093 43.1999 286.061 43.0681C291.797 42.8043 296.942 43.7275 296.942 46.2995C296.942 49.2671 292.257 51.2455 285.992 51.2455C279.333 51.2455 273.002 48.9374 270.628 46.7611V51.1136ZM285.202 31.7248C280.652 31.7248 277.354 29.0869 277.354 24.4046C277.354 20.184 280.124 17.2163 285.003 17.2163C289.818 17.2163 292.655 20.7116 292.655 24.4046C292.655 28.2296 290.347 31.7248 285.202 31.7248ZM315.069 0.729187H309.068V6.00504H315.069V0.729187ZM309.463 42.9362H314.739V12.6H309.463V42.9362ZM328.452 17.2163V33.5716C328.452 39.5728 331.817 43.5956 338.017 43.5956C341.115 43.5956 343.819 42.6064 345.533 40.562V36.7371C343.819 37.9901 341.775 38.9793 338.873 38.9793C335.51 38.9793 333.728 36.803 333.728 32.2524V17.2163H344.148V12.6H333.728V5.9391H329.705C329.705 8.57705 329.111 10.4896 327.861 11.9404C326.607 13.3914 325.024 14.3806 321.991 15.106V17.2163H328.452ZM378.904 25.0641C378.904 17.0185 374.683 11.9404 365.712 11.9404C360.306 11.9404 357.403 13.853 355.03 15.8315L354.964 20.7775C356.943 19.2607 360.505 17.2163 365.317 17.2163C369.473 17.2163 373.759 18.1396 374.155 23.7451C357.338 25.9214 352.062 27.9658 351.931 34.6268C351.863 40.0345 355.425 43.4637 361.954 43.4637C367.165 43.4637 372.176 40.0345 373.364 36.3414C373.626 38.5177 373.89 40.7599 374.155 42.9362H378.441L378.705 32.5824L378.904 25.0641ZM363.734 29.8123C366.306 29.2188 369.737 28.6912 373.956 27.9658C373.231 35.4841 367.361 39.0453 362.548 38.9793C359.581 38.9793 357.207 37.7923 357.207 34.4949C357.207 32.0545 359.316 30.8675 363.734 29.8123ZM397.475 38.9793C394.507 38.9793 393.123 36.2755 393.123 33.11L393.058 0.729187H387.782L387.847 33.4397C387.847 40.7599 391.935 43.5956 396.619 43.5956C399.257 43.5956 400.772 42.8702 402.159 41.4194V37.6604C400.906 38.5177 399.058 38.9793 397.475 38.9793Z" fill="white"/>
<path d="M406.051 6.93763H406.761V5.30213H408.089L409.306 6.93763H410.201L408.868 5.24974C409.468 5.08678 409.763 4.58626 409.763 4.08571C409.763 3.47459 409.328 2.86346 408.444 2.86346H406.051V6.93763ZM406.761 3.48042H408.316C408.785 3.48042 409.024 3.78306 409.024 4.08571C409.024 4.38836 408.785 4.68518 408.316 4.68518H406.761V3.48042Z" fill="white"/>
<path d="M407.878 8.80712C410.091 8.80712 411.884 7.01382 411.884 4.80166C411.884 2.58951 410.091 0.796204 407.878 0.796204C405.666 0.796204 403.873 2.58951 403.873 4.80166C403.873 7.01382 405.666 8.80712 407.878 8.80712Z" stroke="white" stroke-width="0.722449"/>
</svg>
