<svg width="178" height="40" viewBox="0 0 178 40" fill="none" xmlns="http://www.w3.org/2000/svg">
<path d="M20.585 0.297302C31.5432 0.297522 40.3953 9.14959 40.3955 20.1078C40.3955 31.0663 31.5434 39.9192 20.585 39.9194C9.62638 39.9194 0.773438 31.0664 0.773438 20.1078C0.773656 9.14946 9.62652 0.297302 20.585 0.297302ZM28.7236 6.72211C26.4749 6.72211 23.6545 7.40038 20.335 8.79242C18.6573 9.47063 17.0865 10.2921 15.623 11.2202C14.1595 12.1482 12.9452 13.2544 11.9814 14.5395C11.0177 15.8602 10.5186 17.1455 10.5186 18.4662C10.5186 19.787 11.0182 20.7509 11.9463 21.4291C12.3746 21.7504 12.8031 21.9997 13.2314 22.1782C13.6597 22.3566 14.2306 22.571 14.9443 22.7495C15.6582 22.9279 16.8009 23.2499 18.4072 23.6069C19.9775 23.9638 21.1196 24.2848 21.7979 24.5346C22.4761 24.7845 22.7979 24.6776 22.7979 25.4272C22.7976 26.1766 21.8694 26.8902 20.0137 27.6039C18.1575 28.3178 16.0156 28.6752 13.624 28.6752C13.3028 28.6752 12.9814 28.4969 12.5889 28.1401C12.1963 27.7832 12.0176 27.3546 12.0176 26.8549V26.3549C12.0175 25.9623 11.6604 25.748 10.8037 25.7123C10.0185 25.7124 9.34051 26.1409 8.84082 26.9975C8.3411 27.8542 8.09084 28.7822 8.09082 29.7817C8.09082 30.781 8.51942 31.6733 9.44727 32.3871C10.3754 33.1368 12.0176 33.4946 14.4092 33.4946C16.8007 33.4946 19.6206 32.6734 22.833 31.103C24.3322 30.3891 25.582 29.4601 26.6172 28.3178C27.6522 27.1756 28.1523 25.9621 28.1523 24.6772C28.1523 24.0704 27.9021 23.3564 27.4023 22.6069C26.9026 21.8573 25.9744 21.1795 24.6895 20.5727C23.4044 19.9659 20.6562 19.2511 16.5156 18.4301C15.5875 18.2516 15.123 18.0018 15.123 17.7162C15.1234 17.4306 15.4803 16.9664 16.1582 16.3598C16.8364 15.7173 17.6934 15.0751 18.7285 14.3969C19.7636 13.7187 21.0127 13.0759 22.4404 12.5405C23.8681 11.9694 25.2604 11.6842 26.5811 11.6127C26.5097 11.8982 26.3674 12.1481 26.1533 12.3979C25.9748 12.6478 25.8672 12.898 25.8672 13.1479C25.8672 13.3976 25.9036 13.5404 26.082 13.6118C26.2603 13.6831 26.3676 13.7543 26.4746 13.8969C26.5817 14.0397 26.7244 14.1111 26.8672 14.2182C27.0099 14.3253 27.3666 14.3256 27.9375 14.3256C28.5086 14.3256 29.2942 14.0757 30.2578 13.6118C31.2215 13.1478 31.9354 12.6121 32.3994 12.0053C32.8635 11.3985 33.0781 10.5772 33.0781 9.50629V9.29242C33.0781 8.86408 32.9709 8.50679 32.8281 8.14984C32.3283 7.18632 30.972 6.72217 28.7236 6.72211Z" fill="white"/>
<path d="M59.85 25.177C59.85 23.535 58.6364 22.4998 56.5303 22.0001L52.9608 21.1077C49.534 20.2867 47.1424 18.4305 47.1424 14.861C47.1424 11.2914 50.5335 8.43573 54.9597 8.43573C59.386 8.43573 62.3487 11.1843 63.134 13.6473L60.1713 15.2179C59.8143 13.6116 58.1723 11.5413 54.9597 11.5413C51.7471 11.5413 50.5692 12.8263 50.5692 14.8253C50.5692 16.8242 51.8185 17.431 53.7104 17.8951L57.4584 18.7875C61.4563 19.7513 63.3482 22.0715 63.3482 25.177C63.3482 28.2825 60.4212 31.8521 54.7455 31.8521C49.0699 31.8521 46.8568 28.9251 45.9287 26.4264L48.8201 24.7844C49.4626 26.9618 51.7471 28.6752 54.8169 28.6752C58.4579 28.6038 59.85 26.9618 59.85 25.177Z" fill="white"/>
<path d="M66.0957 14.7182H69.344V16.8242C70.1293 15.3607 71.8784 14.4326 73.9131 14.4326C75.9477 14.4326 77.9824 15.4678 79.0889 17.0384C79.9456 15.9318 81.5876 14.4326 84.4433 14.4326C87.2989 14.4326 91.047 17.2169 91.047 20.7507V31.4951H87.7987V21.536C87.7987 19.0373 86.1924 17.5024 84.0149 17.5024C81.8375 17.5024 80.1598 19.1444 80.1598 21.536V31.4951H76.9115V21.536C76.9115 19.0373 75.3409 17.5024 73.1278 17.5024C70.9146 17.5024 69.3083 19.1444 69.3083 21.536V31.4951H66.0957V14.7182Z" fill="white"/>
<path d="M93.1543 23.1066C93.1543 18.1092 96.8667 14.4326 101.971 14.4326C107.076 14.4326 110.788 18.1092 110.788 23.1066C110.788 28.104 107.111 31.745 101.971 31.745C96.831 31.745 93.1543 28.1397 93.1543 23.1066ZM101.971 28.7823C105.077 28.7823 107.504 26.4263 107.504 23.1066C107.504 19.7869 105.112 17.431 101.971 17.431C98.8299 17.431 96.4383 19.7869 96.4383 23.1066C96.4383 26.4263 98.8656 28.7823 101.971 28.7823Z" fill="white"/>
<path d="M111.752 23.1066C111.752 18.1092 115.464 14.4326 120.569 14.4326C125.673 14.4326 129.386 18.1092 129.386 23.1066C129.386 28.104 125.709 31.745 120.569 31.745C115.429 31.745 111.752 28.1397 111.752 23.1066ZM120.569 28.7823C123.674 28.7823 126.102 26.4263 126.102 23.1066C126.102 19.7869 123.71 17.431 120.569 17.431C117.428 17.431 115.036 19.7869 115.036 23.1066C115.036 26.4263 117.463 28.7823 120.569 28.7823Z" fill="white"/>
<path d="M132.918 17.5738H129.92V14.7182H133.025V10.399H136.167V14.7182H140.486V17.5738H136.167V28.4253H140.557V31.4951H132.918V17.5738Z" fill="white"/>
<path d="M144.771 7.22205C146.127 7.22205 147.162 8.22153 147.162 9.61366C147.162 11.0058 146.163 12.0053 144.771 12.0053C143.378 12.0053 142.379 10.9701 142.379 9.61366C142.379 8.22153 143.378 7.22205 144.771 7.22205ZM143.129 14.7181H146.377V31.4594H143.129V14.7181Z" fill="white"/>
<path d="M151.196 17.6095H148.34V14.7182H151.267V7.40054H157.906V10.3276H154.48V14.7182H158.692V17.6095H154.48V31.4594H151.196V17.6095Z" fill="white"/>
<path d="M166.51 31.3523L159.406 14.7181H163.047L168.33 27.5686L173.363 14.7181H177.111L166.902 38.9198H163.261L166.51 31.3523Z" fill="white"/>
</svg>
