<svg width="144" height="46" viewBox="0 0 144 46" fill="none" xmlns="http://www.w3.org/2000/svg">
<g clip-path="url(#clip0_2385_7736)">
<path d="M54.375 32.9912C54.375 28.3084 57.7111 25.3462 61.7591 25.3462C64.2818 25.3462 66.0413 26.3771 67.1717 27.6736L65.8327 28.8642C64.7551 27.067 63.7304 25.7409 62.1014 25.7409C59.896 25.7409 58.5309 28.0996 58.5309 32.0311C58.5309 36.5028 60.266 38.6447 62.84 38.6447C64.2606 38.6447 65.7834 37.9572 67.0188 36.2645L67.3347 36.45C65.8361 38.7504 63.8658 40.2063 61.1334 40.2063C57.3504 40.2135 54.375 37.4356 54.375 32.9912Z" fill="white"/>
<path d="M67.8984 32.8582C67.8984 28.3351 71.1833 25.3462 75.5449 25.3462C79.8283 25.3462 82.9816 28.1542 82.9816 32.7002C82.9816 37.2245 79.6712 40.2135 75.3351 40.2135C71.0518 40.2135 67.8984 37.4085 67.8984 32.8582ZM78.8821 32.8853C78.8821 28.599 77.6213 25.7168 75.3875 25.7168C73.0744 25.7168 71.9968 28.4935 71.9968 32.7269C71.9968 36.9852 73.2587 39.8428 75.4668 39.8428C77.7787 39.8428 78.8866 37.0649 78.8866 32.8853H78.8821Z" fill="white"/>
<path d="M94.1546 25.5043L93.1295 28.3876C92.6975 28.1678 92.2205 28.0504 91.7372 28.044C90.4241 28.044 89.3451 28.9963 88.9251 30.4524V39.8975H85.0625V26.1919L88.7142 25.2661H88.8158V29.6312C89.5005 27.0118 91.1018 25.3459 92.9936 25.3459C93.3851 25.3513 93.7757 25.4045 94.1546 25.5043Z" fill="white"/>
<path d="M109.448 30.3982V39.8952H105.584V30.0286C105.584 29.0502 105.559 26.5621 103.113 26.5621C102.089 26.5621 101.143 26.9854 100.065 28.0707V39.8952H96.2031V26.1919L99.9606 25.2661H100.066V27.5698C101.299 26.2735 102.668 25.3497 104.822 25.3497C107.765 25.3451 109.448 26.9332 109.448 30.3982Z" fill="white"/>
<path d="M115.575 31.8532V31.96C115.575 36.5362 117.521 38.6522 120.278 38.6522C121.159 38.6365 122.023 38.4187 122.806 38.0154C123.59 37.612 124.272 37.0336 124.799 36.3247L125.115 36.5099C123.354 39.1553 121.014 40.2164 118.491 40.2164C114.523 40.2164 111.555 37.4656 111.555 33.0738C111.555 28.3381 114.761 25.3491 119.123 25.3491C123.511 25.3491 125.298 28.364 125.141 31.8561L115.575 31.8532ZM115.575 31.431H121.699C122.039 27.9915 120.752 25.7428 118.909 25.7428C116.916 25.7428 115.704 28.2294 115.575 31.431Z" fill="white"/>
<path d="M136.311 25.5043L135.285 28.3876C134.853 28.1678 134.377 28.0504 133.893 28.044C132.58 28.044 131.501 28.9963 131.082 30.4524V39.8975H127.219V26.1919L130.871 25.2661H130.983V29.6312C131.667 27.0118 133.269 25.3459 135.16 25.3459C135.549 25.3521 135.935 25.4053 136.311 25.5043Z" fill="white"/>
<path d="M46.8594 14.7867C46.8594 10.104 50.1956 7.14062 54.2423 7.14062C56.7651 7.14062 58.5258 8.17169 59.656 9.4681L58.3172 10.6586C57.2406 8.86146 56.216 7.53537 54.587 7.53537C52.379 7.53537 51.0164 9.89398 51.0164 13.8324C51.0164 18.3029 52.7517 20.4458 55.3267 20.4458C56.7472 20.4458 58.27 19.7573 59.5055 18.0647L59.8202 18.2501C58.3216 20.5505 56.3525 22.0064 53.6188 22.0064C49.8308 22.0079 46.8594 19.2301 46.8594 14.7867Z" fill="white"/>
<path d="M70.8512 7.29923L69.8249 10.1825C69.3926 9.96297 68.9164 9.84552 68.4324 9.83895C67.1181 9.83895 66.0401 10.7913 65.6195 12.2473V21.6901H61.7578V7.98673L65.4099 7.06104H65.5149V11.4261C66.199 8.80669 67.8021 7.1408 69.6936 7.1408C70.0848 7.14654 70.4739 7.19973 70.8524 7.29923H70.8512Z" fill="white"/>
<path d="M74.5362 13.6488V13.7545C74.5362 18.3308 76.4823 20.4478 79.2416 20.4478C80.1211 20.4317 80.9854 20.2135 81.7684 19.81C82.5514 19.4065 83.2325 18.8281 83.7598 18.1193L84.0756 18.3048C82.315 20.9501 79.975 22.0114 77.4522 22.0114C73.4844 22.0114 70.5156 19.2606 70.5156 14.8687C70.5156 10.1329 73.7225 7.14404 78.084 7.14404C82.4723 7.14404 84.2588 10.16 84.1021 13.6521L74.5362 13.6488ZM74.5362 13.2254H80.6594C81.0018 9.78599 79.7134 7.53727 77.8702 7.53727C75.8752 7.53727 74.6622 10.0228 74.5362 13.2254Z" fill="white"/>
<path d="M99.1234 20.9228V21.0823C98.2387 21.6391 97.2199 21.9406 96.1768 21.9538C94.1005 21.9538 93.6019 20.6575 93.4696 19.9432C92.8819 20.5638 92.1772 21.061 91.3969 21.4062C90.6166 21.7513 89.777 21.9376 88.9255 21.9541C86.6391 21.9541 85.2188 20.4994 85.2188 18.5674C85.2188 16.1591 87.4267 14.4936 91.0009 14.1229C92.0053 14.0443 92.683 13.9916 93.4453 13.9119V12.4496C93.4453 10.2535 93.1024 8.19018 90.2917 8.19018C88.862 8.20718 87.4854 8.73189 86.4037 9.67173L86.167 9.38079C87.5852 8.05772 89.0825 7.13428 91.7641 7.13428C95.4694 7.13428 97.336 8.74823 97.336 12.1888V18.9622C97.336 20.2326 97.336 20.9728 98.5969 20.9728C98.7733 20.9722 98.9497 20.9554 99.1234 20.9228ZM93.4489 19.4424V14.3092C90.6103 14.6528 88.9855 15.8434 88.9855 18.0666C88.9855 19.8639 89.9323 20.686 91.036 20.686C91.5022 20.6601 91.9576 20.5361 92.3725 20.3218C92.7883 20.1076 93.1546 19.808 93.4489 19.4424Z" fill="white"/>
<path d="M108.955 20.4736C107.695 21.3722 106.433 22.0078 104.698 22.0078C101.281 22.0078 100.914 19.5995 100.914 18.2514V8.03942H99.1797V7.59012L100.866 7.45766L104.677 2.56348H104.781V7.45728H108.91L108.567 8.03942H104.777V18.3832C104.777 19.0448 104.777 20.8172 106.617 20.8172C107.371 20.7841 108.103 20.5562 108.745 20.1556L108.955 20.4736Z" fill="white"/>
<path d="M110.469 2.95989L112.914 0.5L115.331 2.95989L112.914 5.4209L110.469 2.95989ZM110.969 7.98652L114.726 7.06082H114.83V21.69H110.969V7.98652Z" fill="white"/>
<path d="M130.238 7.45752C129.029 9.73341 128.135 11.7696 126.401 15.6571L123.536 22.2191H123.408L116.914 7.45752H121.119L125.298 17.0344L125.954 15.5003C127.689 11.5844 128.214 9.17836 128.297 7.4579L130.238 7.45752Z" fill="white"/>
<path d="M134.255 13.6488V13.7545C134.255 18.3308 136.199 20.4478 138.958 20.4478C139.838 20.4317 140.703 20.2136 141.486 19.81C142.27 19.4065 142.951 18.8282 143.479 18.1193L143.793 18.3048C142.032 20.9501 139.693 22.0114 137.171 22.0114C133.202 22.0114 130.234 19.2606 130.234 14.8687C130.234 10.1329 133.44 7.14404 137.802 7.14404C142.192 7.14404 143.977 10.16 143.819 13.6521L134.255 13.6488ZM134.255 13.2254H140.376C140.718 9.78599 139.431 7.53727 137.587 7.53727C135.594 7.53727 134.386 10.0228 134.255 13.2254Z" fill="white"/>
<path d="M16.6038 6.84912L0 23.564L16.6038 40.2791L33.2077 23.564L16.6038 6.84912Z" fill="white"/>
<path d="M20.9296 44.6186L20.5859 44.2728L41.1562 23.5667L20.5871 2.85055L20.9296 2.50586L41.8403 23.5667L20.9296 44.6186Z" fill="white"/>
</g>
<defs>
<clipPath id="clip0_2385_7736">
<rect width="144" height="45" fill="white" transform="translate(0 0.5)"/>
</clipPath>
</defs>
</svg>
