<svg width="1637" height="343" viewBox="0 0 1637 343" fill="none" xmlns="http://www.w3.org/2000/svg">
<mask id="mask0_109_3" style="mask-type:alpha" maskUnits="userSpaceOnUse" x="30" y="31" width="388" height="287">
<path d="M417.151 31H30V317.536H417.151V31Z" fill="white" fill-opacity="0.2"/>
<path fill-rule="evenodd" clip-rule="evenodd" d="M223.111 161.506L223.068 161.409L193.264 94.6C187.914 82.6053 176.101 75.4965 163.74 75.5393C151.174 75.4956 139.212 82.8464 133.994 95.1143L101.719 171.002L101.317 171.947L92.7411 192.112L87.5044 204.425L77.4662 228.028C70.5224 244.355 78.1545 263.208 94.513 270.138C110.871 277.069 129.762 269.451 136.705 253.125L143.551 237.028L158.185 202.62L158.562 201.734L164.264 188.326L164.443 187.906L164.555 188.156L170.611 201.734L193.317 252.634C196.309 259.341 201.322 264.52 207.321 267.775C208.748 268.668 210.265 269.46 211.866 270.138C228.224 277.069 247.114 269.451 254.058 253.125L269.07 217.827L274.72 204.543L281.796 187.906L281.916 188.177L288.472 202.872L310.67 252.634C317.898 268.837 336.92 276.124 353.152 268.91C369.387 261.696 376.69 242.712 369.462 226.509L345.005 171.683L344.975 171.615L337.613 155.116L333.741 146.438L310.616 94.6C305.267 82.6053 293.454 75.4965 281.093 75.5393C268.527 75.4956 256.565 82.8464 251.347 95.1143L230.117 145.032L223.111 161.506Z" fill="white" fill-opacity="0.2"/>
</mask>
<g mask="url(#mask0_109_3)">
<path d="M223.067 161.409L182.324 179.532L182.325 179.533L223.067 161.409ZM223.111 161.506L182.368 179.63L224.088 273.15L264.165 178.916L223.111 161.506ZM163.74 75.5393L163.584 120.079L163.739 120.079L163.895 120.079L163.74 75.5393ZM101.719 171.002L60.665 153.592L60.6641 153.594L60.6632 153.597L101.719 171.002ZM101.317 171.947L142.371 189.358L142.372 189.355L142.373 189.353L101.317 171.947ZM92.7409 192.112L133.794 209.523L133.795 209.523L92.7409 192.112ZM87.5042 204.425L46.4505 187.014V187.015L87.5042 204.425ZM136.705 253.125L177.759 270.535L177.759 270.535L136.705 253.125ZM158.562 201.734L199.615 219.145L199.615 219.144L158.562 201.734ZM164.264 188.326L123.215 170.904L123.212 170.91L123.21 170.916L164.264 188.326ZM164.443 187.906L205.181 169.772L163.468 76.3273L123.393 170.484L164.443 187.906ZM164.554 188.156L205.297 170.033L205.295 170.028L205.293 170.023L164.554 188.156ZM207.32 267.775L230.99 230.025L229.825 229.297L228.618 228.642L207.32 267.775ZM211.866 270.138L194.445 311.14L194.446 311.14L211.866 270.138ZM281.795 187.906L322.54 169.783L280.82 76.2614L240.742 170.495L281.795 187.906ZM345.005 171.683L304.244 189.766L304.253 189.786L304.261 189.806L345.005 171.683ZM344.975 171.615L385.736 153.532L385.727 153.512L385.718 153.492L344.975 171.615ZM281.093 75.5393L280.937 120.079L281.093 120.079L281.248 120.079L281.093 75.5393ZM230.117 145.032L189.063 127.621V127.622L230.117 145.032ZM182.325 179.533L182.368 179.63L263.854 143.382L263.81 143.285L182.325 179.533ZM152.521 112.724L182.324 179.532L263.81 143.285L234.007 76.4764L152.521 112.724ZM163.895 120.079C159.238 120.095 154.621 117.431 152.521 112.724L234.007 76.4764C221.205 47.7789 192.964 30.8983 163.584 31.0005L163.895 120.079ZM175.048 112.525C173 117.34 168.327 120.095 163.584 120.079L163.895 31.0005C134.021 30.8966 105.423 48.3525 92.9404 77.7036L175.048 112.525ZM142.773 188.413L175.048 112.525L92.9404 77.7036L60.665 153.592L142.773 188.413ZM142.373 189.353L142.775 188.408L60.6632 153.597L60.2615 154.541L142.373 189.353ZM133.795 209.523L142.371 189.358L60.2636 154.537L51.6871 174.702L133.795 209.523ZM128.558 221.836L133.794 209.523L51.6874 174.702L46.4505 187.014L128.558 221.836ZM118.52 245.438L128.558 221.836L46.4505 187.015L36.4122 210.618L118.52 245.438ZM111.933 229.136C118.243 231.81 121.214 239.104 118.52 245.438L36.4122 210.618C19.8306 249.605 38.0654 294.606 77.0928 311.14L111.933 229.136ZM95.6513 235.714C98.3403 229.392 105.634 226.468 111.933 229.136L77.0928 311.14C116.108 327.668 161.182 309.511 177.759 270.535L95.6513 235.714ZM102.497 219.618L95.651 235.714L177.759 270.535L184.604 254.438L102.497 219.618ZM117.131 185.209L102.497 219.618L184.604 254.439L199.238 220.031L117.131 185.209ZM117.508 184.323L117.131 185.209L199.238 220.031L199.615 219.145L117.508 184.323ZM123.21 170.916L117.508 184.324L199.615 219.144L205.318 205.736L123.21 170.916ZM123.393 170.484L123.215 170.904L205.313 205.747L205.492 205.327L123.393 170.484ZM205.293 170.023L205.181 169.772L123.704 206.04L123.816 206.29L205.293 170.023ZM211.354 183.611L205.297 170.033L123.811 206.28L129.868 219.857L211.354 183.611ZM234.06 234.51L211.354 183.61L129.868 219.857L152.574 270.757L234.06 234.51ZM228.618 228.642C230.933 229.898 232.921 231.957 234.06 234.51L152.574 270.757C159.697 286.724 171.71 299.141 186.023 306.909L228.618 228.642ZM229.286 229.137C229.859 229.379 230.431 229.676 230.99 230.025L183.651 305.526C187.066 307.661 190.671 309.541 194.445 311.14L229.286 229.137ZM213.004 235.714C215.693 229.392 222.987 226.468 229.286 229.136L194.446 311.14C233.461 327.668 278.535 309.511 295.112 270.535L213.004 235.714ZM228.016 200.416L213.004 235.714L295.112 270.535L310.122 235.237L228.016 200.416ZM233.666 187.132L228.016 200.416L310.122 235.237L315.772 221.953L233.666 187.132ZM240.742 170.495L233.666 187.132L315.772 221.953L322.849 205.317L240.742 170.495ZM322.659 170.053L322.54 169.783L241.052 206.029L241.173 206.3L322.659 170.053ZM329.215 184.749L322.659 170.053L241.173 206.3L247.729 220.996L329.215 184.749ZM351.412 234.51L329.215 184.749L247.729 220.996L269.927 270.757L351.412 234.51ZM335.02 228.218C341.27 225.44 348.614 228.236 351.412 234.51L269.927 270.757C287.182 309.437 332.566 326.807 371.287 309.602L335.02 228.218ZM328.719 244.633C325.915 238.347 328.754 231.001 335.02 228.218L371.287 309.602C410.02 292.39 427.463 247.078 410.205 208.385L328.719 244.633ZM304.261 189.806L328.719 244.633L410.205 208.385L385.748 153.559L304.261 189.806ZM304.211 189.698L304.244 189.766L385.765 153.6L385.736 153.532L304.211 189.698ZM296.87 173.24L304.232 189.739L385.718 153.492L378.355 136.992L296.87 173.24ZM292.999 164.562L296.87 173.24L378.355 136.992L374.484 128.314L292.999 164.562ZM269.874 112.723L292.999 164.562L374.484 128.314L351.359 76.4764L269.874 112.723ZM281.248 120.079C276.591 120.095 271.975 117.431 269.874 112.723L351.359 76.4764C338.558 47.7789 310.316 30.8983 280.937 31.0005L281.248 120.079ZM292.401 112.525C290.353 117.34 285.681 120.095 280.937 120.079L281.248 31.0005C251.374 30.8966 222.777 48.3525 210.294 77.7036L292.401 112.525ZM271.171 162.442L292.401 112.525L210.294 77.7036L189.063 127.621L271.171 162.442ZM264.165 178.916L271.171 162.442L189.063 127.622L182.057 144.096L264.165 178.916Z" fill="white" fill-opacity="0.2"/>
</g>
<path d="M73.0226 228.742L98.1376 171.48C125.262 161.936 149.372 175.498 155.902 202.12L132.294 256.368C113.709 287.511 59.9628 268.926 73.0226 228.742Z" fill="white" fill-opacity="0.2"/>
<path d="M163.064 186.466C196.819 194.905 217.085 175.814 222.953 159.74C217.93 146.848 192.054 92.9344 192.054 92.9344C179.497 66.8148 141.322 71.3355 131.778 92.9344L98.124 169.786C122.234 152.206 151.511 162.356 163.064 186.466Z" fill="white" fill-opacity="0.6"/>
<path d="M227.976 148.846C211.501 187.825 186.788 191.542 163.18 186.519L192.313 250.311C205.373 276.43 242.041 277.937 255.101 250.311L282.727 186.016C303.623 149.851 334.632 160.566 347.524 170.445L311.861 93.0907C302.317 69.9848 262.133 67.9756 252.087 93.0907C251.114 95.524 244.452 109.868 227.976 148.846Z" fill="white"/>
<path d="M372.883 229.758L347.266 172.496C331.192 167.674 302.059 168.98 288.999 202.634L313.109 254.873C337.22 291.039 386.948 261.905 372.883 229.758Z" fill="white" fill-opacity="0.4"/>
<path d="M1462.17 229.94V110H1485.94V174.644L1515.25 143.431H1544.57L1513.19 178.288L1544.41 229.94H1517.47L1495.45 193.023L1485.94 203.481V229.94H1462.17Z" fill="white"/>
<path d="M1409.36 231.841C1400.7 231.841 1392.88 229.887 1385.91 225.979C1379.04 221.965 1373.55 216.526 1369.43 209.66C1365.42 202.794 1363.41 195.083 1363.41 186.527C1363.41 177.971 1365.42 170.313 1369.43 163.553C1373.45 156.687 1378.94 151.3 1385.91 147.392C1392.88 143.484 1400.7 141.53 1409.36 141.53C1415.8 141.53 1421.77 142.639 1427.27 144.857C1432.76 147.075 1437.46 150.191 1441.37 154.205C1445.27 158.113 1448.07 162.761 1449.76 168.148L1429.17 177.021C1427.69 172.69 1425.15 169.257 1421.56 166.722C1418.08 164.187 1414.01 162.919 1409.36 162.919C1403.13 162.919 1398.01 165.138 1393.99 169.574C1389.98 174.01 1387.97 179.714 1387.97 186.686C1387.97 193.657 1389.98 199.361 1393.99 203.797C1398.01 208.234 1403.13 210.452 1409.36 210.452C1414.11 210.452 1418.23 209.184 1421.72 206.649C1425.21 204.114 1427.69 200.681 1429.17 196.351L1449.76 205.382C1448.18 210.452 1445.43 214.994 1441.53 219.008C1437.62 223.022 1432.92 226.191 1427.42 228.514C1421.93 230.732 1415.91 231.841 1409.36 231.841Z" fill="white"/>
<path d="M1304.47 231.841C1295.17 231.841 1287.78 229.623 1282.29 225.187C1276.9 220.751 1274.21 214.624 1274.21 206.808C1274.21 199.519 1276.74 193.499 1281.81 188.745C1286.88 183.992 1294.59 180.771 1304.94 179.08L1328.87 175.278V172.901C1328.87 169.627 1327.55 166.88 1324.91 164.662C1322.37 162.444 1318.89 161.335 1314.45 161.335C1310.23 161.335 1306.48 162.497 1303.2 164.821C1300.03 167.145 1297.71 170.208 1296.23 174.01L1277.22 164.979C1279.75 157.797 1284.45 152.093 1291.32 147.867C1298.29 143.642 1306.37 141.53 1315.56 141.53C1322.85 141.53 1329.29 142.85 1334.89 145.491C1340.49 148.132 1344.82 151.828 1347.88 156.582C1351.05 161.229 1352.64 166.669 1352.64 172.901V229.94H1330.45V221.86C1323.9 228.514 1315.24 231.841 1304.47 231.841ZM1298.77 206.015C1298.77 208.656 1299.77 210.716 1301.78 212.195C1303.78 213.674 1306.26 214.413 1309.22 214.413C1315.14 214.413 1319.89 212.565 1323.48 208.867C1327.07 205.171 1328.87 200.681 1328.87 195.4V192.706L1309.22 196.192C1305.84 196.826 1303.25 197.935 1301.46 199.519C1299.66 200.998 1298.77 203.164 1298.77 206.015Z" fill="white"/>
<path d="M1251.09 230.891C1240.63 230.891 1232.5 228.092 1226.69 222.493C1220.98 216.79 1218.13 208.868 1218.13 198.727V164.029H1203.55V143.431H1204.35C1213.54 143.431 1218.13 138.995 1218.13 130.122V123.784H1241.9V143.431H1262.18V164.029H1241.9V197.143C1241.9 205.91 1246.81 210.293 1256.63 210.293C1258.11 210.293 1259.96 210.135 1262.18 209.818V230.099C1258.69 230.627 1255 230.891 1251.09 230.891Z" fill="white"/>
<path d="M1161.78 231.841C1152.27 231.841 1143.98 229.623 1136.91 225.187C1129.93 220.645 1125.18 214.571 1122.65 206.966L1140.07 198.727C1142.29 203.375 1145.3 207.019 1149.11 209.66C1152.91 212.3 1157.13 213.621 1161.78 213.621C1168.75 213.621 1172.24 211.033 1172.24 205.857C1172.24 202.371 1169.39 199.836 1163.68 198.252L1148.95 194.132C1141.87 192.126 1136.43 188.904 1132.63 184.467C1128.82 179.926 1126.92 174.591 1126.92 168.465C1126.92 163.078 1128.3 158.378 1131.04 154.364C1133.79 150.35 1137.65 147.234 1142.61 145.016C1147.57 142.692 1153.28 141.53 1159.72 141.53C1168.17 141.53 1175.57 143.537 1181.9 147.551C1188.35 151.459 1192.89 157.004 1195.53 164.187L1177.94 172.426C1176.67 168.835 1174.35 165.983 1170.97 163.87C1167.7 161.652 1163.95 160.543 1159.72 160.543C1156.66 160.543 1154.23 161.177 1152.43 162.444C1150.74 163.712 1149.9 165.454 1149.9 167.673C1149.9 171.053 1153.01 173.641 1159.25 175.436L1173.03 179.556C1180.21 181.668 1185.71 184.89 1189.51 189.221C1193.31 193.446 1195.21 198.674 1195.21 204.906C1195.21 212.934 1192.15 219.43 1186.02 224.395C1179.9 229.359 1171.82 231.841 1161.78 231.841Z" fill="white"/>
<path d="M1068.34 229.94V143.431H1090.52V156.423C1092.74 151.036 1095.86 147.392 1099.87 145.491C1103.99 143.484 1108.69 142.48 1113.97 142.48H1119.04V163.078H1111.59C1105.78 163.078 1101.08 164.873 1097.49 168.465C1093.9 171.951 1092.11 176.915 1092.11 183.358V229.94H1068.34Z" fill="white"/>
<path d="M1014.73 231.841C1005.54 231.841 997.568 229.835 990.807 225.821C984.046 221.701 978.818 216.209 975.121 209.343C971.425 202.477 969.576 194.872 969.576 186.527C969.576 177.866 971.477 170.155 975.28 163.395C979.189 156.635 984.417 151.3 990.966 147.392C997.514 143.484 1004.91 141.53 1013.15 141.53C1022.34 141.53 1030.1 143.431 1036.44 147.234C1042.78 151.036 1047.58 156.159 1050.86 162.603C1054.24 168.94 1055.93 176.123 1055.93 184.151C1055.93 185.841 1055.82 187.531 1055.61 189.221C1055.51 190.805 1055.24 192.178 1054.82 193.34H994.293C994.927 198.727 997.093 203.058 1000.79 206.332C1004.49 209.607 1009.24 211.244 1015.05 211.244C1019.28 211.244 1022.87 210.399 1025.82 208.709C1028.89 207.019 1031.26 204.695 1032.95 201.738L1051.97 210.769C1049.33 217.106 1044.68 222.229 1038.02 226.138C1031.37 229.94 1023.61 231.841 1014.73 231.841ZM1013.15 160.543C1008.5 160.543 1004.54 161.863 1001.26 164.504C998.096 167.145 995.93 170.947 994.768 175.912H1030.74C1030.21 171.37 1028.36 167.673 1025.19 164.821C1022.02 161.969 1018.01 160.543 1013.15 160.543Z" fill="white"/>
<path d="M916.52 231.842C911.239 231.842 906.273 230.997 901.626 229.306C897.083 227.511 893.281 224.976 890.218 221.701V229.94H868.036V110H891.802V150.719C897.93 144.593 906.221 141.53 916.678 141.53C924.918 141.53 932.365 143.537 939.019 147.551C945.674 151.564 950.955 157.004 954.864 163.87C958.773 170.63 960.726 178.236 960.726 186.686C960.726 195.03 958.773 202.636 954.864 209.501C951.061 216.367 945.832 221.807 939.178 225.821C932.523 229.835 924.97 231.842 916.52 231.842ZM913.668 210.452C920.216 210.452 925.604 208.234 929.829 203.797C934.055 199.361 936.167 193.657 936.167 186.686C936.167 179.82 934.055 174.169 929.829 169.732C925.604 165.19 920.216 162.919 913.668 162.919C907.224 162.919 901.943 165.138 897.823 169.574C893.81 174.01 891.802 179.714 891.802 186.686C891.802 193.763 893.81 199.519 897.823 203.956C901.943 208.287 907.224 210.452 913.668 210.452Z" fill="white"/>
<path d="M722.47 229.94V143.431H744.653V154.047C746.871 149.822 750.092 146.706 754.318 144.699C758.542 142.586 763.401 141.53 768.895 141.53C774.599 141.53 779.774 142.745 784.422 145.174C789.176 147.498 792.766 150.719 795.197 154.839C798.259 150.297 802.062 146.97 806.605 144.857C811.252 142.639 816.374 141.53 821.974 141.53C828.206 141.53 833.699 142.903 838.452 145.649C843.31 148.396 847.113 152.251 849.86 157.215C852.606 162.074 853.98 167.778 853.98 174.327V229.94H830.213V179.397C830.213 174.433 828.839 170.472 826.094 167.514C823.452 164.451 819.808 162.919 815.161 162.919C810.512 162.919 806.815 164.451 804.07 167.514C801.428 170.472 800.108 174.433 800.108 179.397V229.94H776.342V179.397C776.342 174.433 774.968 170.472 772.222 167.514C769.581 164.451 765.937 162.919 761.289 162.919C756.641 162.919 752.944 164.451 750.198 167.514C747.557 170.472 746.237 174.433 746.237 179.397V229.94H722.47Z" fill="white"/>
<path d="M668.863 231.841C659.674 231.841 651.699 229.835 644.938 225.821C638.178 221.701 632.949 216.209 629.252 209.343C625.555 202.477 623.707 194.872 623.707 186.527C623.707 177.866 625.608 170.155 629.411 163.395C633.319 156.635 638.548 151.3 645.097 147.392C651.645 143.484 659.04 141.53 667.279 141.53C676.469 141.53 684.233 143.431 690.571 147.234C696.908 151.036 701.714 156.159 704.989 162.603C708.369 168.94 710.059 176.123 710.059 184.151C710.059 185.841 709.953 187.531 709.742 189.221C709.636 190.805 709.373 192.178 708.95 193.34H648.424C649.058 198.727 651.224 203.058 654.92 206.332C658.617 209.607 663.37 211.244 669.18 211.244C673.406 211.244 676.996 210.399 679.955 208.709C683.017 207.019 685.394 204.695 687.085 201.738L706.098 210.769C703.457 217.106 698.81 222.229 692.155 226.138C685.5 229.94 677.736 231.841 668.863 231.841ZM667.279 160.543C662.632 160.543 658.671 161.863 655.396 164.504C652.227 167.145 650.061 170.947 648.899 175.912H684.866C684.339 171.37 682.49 167.673 679.321 164.821C676.152 161.969 672.139 160.543 667.279 160.543Z" fill="white"/>
<path d="M486 229.94V111.901H509.767L548.269 163.078L585.821 111.901H609.587V229.94H585.028V153.888L549.378 199.836H546.209L510.559 152.146V229.94H486Z" fill="white"/>
</svg>
