<svg width="198" height="41" viewBox="0 0 198 41" fill="none" xmlns="http://www.w3.org/2000/svg">
<path fill-rule="evenodd" clip-rule="evenodd" d="M34 0.314453C37.3137 0.314453 40 3.00075 40 6.31445V34.3145C40 37.6282 37.3137 40.3145 34 40.3145H6C2.68629 40.3145 0 37.6282 0 34.3145V6.31445C0 3.00075 2.68629 0.314453 6 0.314453H34ZM25.4102 20.9941L31.4893 27.6768L30.7285 28.4375L24.0566 22.3691L23.6123 33.418H22.5449L22.1006 22.3691L15.4287 28.4375L14.668 27.6768L20.6836 21.0684L3.90234 20.9033C4.24091 29.4637 11.2873 36.2997 19.9307 36.2998C28.6914 36.2998 35.812 29.2768 35.9697 20.5537L25.4102 20.9941ZM19.9307 4.2168C15.3334 4.21686 11.1875 6.1503 8.2627 9.24902C5.20692 12.762 3.73398 18.8068 9.62598 19.0947L20.6836 18.9854L14.668 12.377L15.4287 11.6162L22.1006 17.6846L22.5449 6.63574H23.6123L24.0566 17.6846L30.7285 11.6162L31.4893 12.377L25.4102 19.0596L35.9551 19.499C35.5587 10.992 28.5357 4.2168 19.9307 4.2168Z" fill="white"/>
<path fill-rule="evenodd" clip-rule="evenodd" d="M60.3343 5.58057V7.58098H54.0442V11.4754H60.2251V13.4756H54.0442V19.4088H52V5.58057H60.3343Z" fill="white"/>
<path fill-rule="evenodd" clip-rule="evenodd" d="M62.3077 11.0114C62.3077 9.21525 62.728 7.82488 63.5488 6.8342C64.385 5.82513 65.5464 5.31445 67.0383 5.31445C68.5305 5.31445 69.6919 5.82513 70.528 6.8342C71.3486 7.82488 71.7689 9.21525 71.7689 11.0114V13.9778C71.7689 15.8278 71.3464 17.2309 70.5258 18.1962C69.6901 19.1768 68.5296 19.6758 67.0383 19.6758C65.5472 19.6758 64.3867 19.1768 63.551 18.1962C62.73 17.2309 62.3077 15.8278 62.3077 13.9778V11.0114ZM67.0383 17.6752C67.9241 17.6752 68.5922 17.3644 69.0352 16.7296C69.5014 16.062 69.7249 15.1055 69.7249 13.8637V11.1255C69.7249 9.96778 69.4979 9.0316 69.0311 8.31999C68.5889 7.64626 67.9228 7.31487 67.0383 7.31487C66.154 7.31487 65.4879 7.64626 65.0458 8.31999C64.5787 9.0316 64.3519 9.96778 64.3519 11.1255V13.8637C64.3519 15.1055 64.5752 16.062 65.0416 16.7296C65.4844 17.3644 66.1525 17.6752 67.0383 17.6752Z" fill="white"/>
<path fill-rule="evenodd" clip-rule="evenodd" d="M81.2074 12.7176C81.4679 12.8152 81.6824 12.9647 81.8509 13.1633C82.0917 13.4443 82.223 13.8403 82.223 14.3579V19.4088H80.1786V14.7003C80.1786 14.4431 80.1327 14.2421 80.0189 14.1036C79.9116 13.9742 79.7212 13.932 79.4563 13.932H75.7506V19.4088H73.7062V5.58057H78.5107C79.2024 5.58057 79.8022 5.68673 80.3165 5.89445C80.8353 6.10524 81.2687 6.38892 81.6123 6.74264C81.9582 7.09811 82.2209 7.51138 82.396 7.98286C82.5711 8.44909 82.6586 8.93873 82.6586 9.45202V10.0227C82.6586 10.557 82.5207 11.0919 82.2384 11.6262C82.002 12.0754 81.6583 12.4398 81.2074 12.7176ZM75.7506 11.9318H78.3268C79.1083 11.9318 79.6905 11.7709 80.0714 11.4205C80.4413 11.0779 80.6142 10.5712 80.6142 9.90841V9.56629C80.6142 8.97135 80.4347 8.48936 80.0648 8.12447C79.6861 7.75258 79.1061 7.58098 78.3268 7.58098H75.7506V11.9318Z" fill="white"/>
<path fill-rule="evenodd" clip-rule="evenodd" d="M88.9274 17.3446L90.5188 5.58057H93.9115V19.4088H91.9765V8.74962L90.5341 19.4088H87.3186L85.8761 8.74962V19.4088H83.9412V5.58057H87.3339L88.9274 17.3446Z" fill="white"/>
<path fill-rule="evenodd" clip-rule="evenodd" d="M105.414 17.675C105.89 17.675 106.298 17.594 106.635 17.4255C106.968 17.2613 107.241 17.038 107.454 16.76C107.671 16.4733 107.832 16.1472 107.938 15.7794C108.047 15.4029 108.101 15.0046 108.101 14.5865V14.1006H110.145V14.5865C110.145 15.2869 110.043 15.9458 109.841 16.5609C109.636 17.1825 109.334 17.7253 108.937 18.1872C108.537 18.6534 108.04 19.019 107.446 19.2816C106.858 19.5421 106.181 19.6756 105.414 19.6756C103.923 19.6756 102.763 19.1787 101.927 18.1959C101.106 17.2328 100.684 15.8276 100.684 13.978V11.0121C100.684 9.21502 101.104 7.82508 101.925 6.83571C102.761 5.82664 103.922 5.31445 105.414 5.31445C106.181 5.31445 106.858 5.44796 107.446 5.70843C108.04 5.9711 108.537 6.33664 108.937 6.80287C109.334 7.26472 109.636 7.80757 109.841 8.4314C110.043 9.04428 110.145 9.70314 110.145 10.4036V10.8895H108.101C108.101 10.8895 108.101 10.408 108.101 10.4058C108.089 9.99864 108.029 9.60244 107.92 9.21939C107.814 8.84509 107.653 8.51676 107.436 8.23002C107.223 7.94984 106.952 7.72878 106.625 7.56243C106.293 7.39607 105.889 7.31508 105.414 7.31508C104.53 7.31508 103.864 7.64778 103.422 8.31977C102.955 9.03115 102.728 9.96797 102.728 11.1259V13.8642C102.728 15.1053 102.951 16.0618 103.417 16.7294C103.861 17.3642 104.529 17.675 105.414 17.675Z" fill="white"/>
<path fill-rule="evenodd" clip-rule="evenodd" d="M111.555 11.0121C111.555 9.21502 111.975 7.82508 112.796 6.83571C113.632 5.82664 114.794 5.31445 116.285 5.31445C117.778 5.31445 118.939 5.82664 119.775 6.83571C120.596 7.82508 121.016 9.21502 121.016 11.0121V13.978C121.016 15.8276 120.594 17.2328 119.773 18.1959C118.937 19.1787 117.777 19.6756 116.285 19.6756C114.794 19.6756 113.634 19.1787 112.798 18.1959C111.977 17.2328 111.555 15.8276 111.555 13.978V11.0121ZM116.285 17.675C117.171 17.675 117.839 17.3642 118.282 16.7294C118.749 16.0618 118.972 15.1053 118.972 13.8642V11.1259C118.972 9.96797 118.745 9.03115 118.278 8.31977C117.836 7.64778 117.17 7.31508 116.285 7.31508C115.401 7.31508 114.735 7.64778 114.293 8.31977C113.826 9.03115 113.599 9.96797 113.599 11.1259V13.8642C113.599 15.1053 113.822 16.0618 114.289 16.7294C114.732 17.3642 115.4 17.675 116.285 17.675Z" fill="white"/>
<path fill-rule="evenodd" clip-rule="evenodd" d="M129.679 17.4014V5.58154H131.724V19.4086H128.217L124.779 7.58875V19.4086H122.734V5.58154H126.243L129.679 17.4014Z" fill="white"/>
<path fill-rule="evenodd" clip-rule="evenodd" d="M140.624 17.4014V5.58154H142.669V19.4086H139.162L135.723 7.58875V19.4086H133.679V5.58154H137.185L140.624 17.4014Z" fill="white"/>
<path fill-rule="evenodd" clip-rule="evenodd" d="M153.229 5.58154V7.58217H147.048V11.4762H153.12V13.4768H147.048V17.408H153.339V19.4086H145.006V5.58154H153.229Z" fill="white"/>
<path fill-rule="evenodd" clip-rule="evenodd" d="M160.136 17.675C160.611 17.675 161.018 17.594 161.355 17.4255C161.687 17.2613 161.961 17.038 162.173 16.76C162.392 16.4733 162.552 16.1472 162.659 15.7794C162.767 15.4029 162.821 15.0046 162.821 14.5865V14.1006H164.866V14.5865C164.866 15.2869 164.763 15.9458 164.561 16.5609C164.356 17.1825 164.056 17.7253 163.657 18.1872C163.257 18.6534 162.76 19.019 162.167 19.2816C161.578 19.5421 160.902 19.6756 160.136 19.6756C158.643 19.6756 157.483 19.1787 156.647 18.1959C155.826 17.2328 155.403 15.8276 155.403 13.978V11.0121C155.403 9.21502 155.823 7.82508 156.644 6.83571C157.48 5.82664 158.643 5.31445 160.136 5.31445C160.902 5.31445 161.578 5.44796 162.167 5.70843C162.76 5.9711 163.257 6.33664 163.657 6.80287C164.056 7.26472 164.356 7.80757 164.561 8.4314C164.763 9.04428 164.866 9.70314 164.866 10.4036V10.8895H162.821C162.821 10.8895 162.821 10.408 162.821 10.4058C162.808 9.99864 162.749 9.60244 162.64 9.21939C162.535 8.84509 162.373 8.51676 162.156 8.23002C161.944 7.94984 161.672 7.72878 161.346 7.56243C161.013 7.39607 160.611 7.31508 160.136 7.31508C159.249 7.31508 158.584 7.64778 158.141 8.31977C157.675 9.03115 157.448 9.96797 157.448 11.1259V13.8642C157.448 15.1053 157.671 16.0618 158.137 16.7294C158.581 17.3642 159.249 17.675 160.136 17.675Z" fill="white"/>
<path fill-rule="evenodd" clip-rule="evenodd" d="M175.737 5.58154V7.58217H172.027V19.4086H169.983V7.58217H166.275V5.58154H175.737Z" fill="white"/>
<path fill-rule="evenodd" clip-rule="evenodd" d="M177.22 11.0121C177.22 9.21502 177.64 7.82508 178.461 6.83571C179.297 5.82664 180.457 5.31445 181.95 5.31445C183.443 5.31445 184.603 5.82664 185.439 6.83571C186.26 7.82508 186.68 9.21502 186.68 11.0121V13.978C186.68 15.8276 186.258 17.2328 185.437 18.1959C184.603 19.1787 183.441 19.6756 181.95 19.6756C180.46 19.6756 179.299 19.1787 178.463 18.1959C177.642 17.2328 177.22 15.8276 177.22 13.978V11.0121ZM181.95 17.675C182.837 17.675 183.504 17.3642 183.946 16.7294C184.413 16.0618 184.636 15.1053 184.636 13.8642V11.1259C184.636 9.96797 184.41 9.03115 183.944 8.31977C183.5 7.64778 182.834 7.31508 181.95 7.31508C181.066 7.31508 180.4 7.64778 179.958 8.31977C179.49 9.03115 179.264 9.96797 179.264 11.1259V13.8642C179.264 15.1053 179.488 16.0618 179.954 16.7294C180.396 17.3642 181.064 17.675 181.95 17.675Z" fill="white"/>
<path fill-rule="evenodd" clip-rule="evenodd" d="M196.118 12.7173C196.379 12.8158 196.593 12.9646 196.762 13.1638C197.003 13.444 197.134 13.8401 197.134 14.3589V19.4086H195.089V14.7004C195.089 14.4443 195.044 14.2429 194.93 14.105C194.825 13.9759 194.632 13.9321 194.367 13.9321H190.661V19.4086H188.617V5.58154H193.422C194.113 5.58154 194.715 5.68662 195.227 5.89456C195.748 6.10688 196.18 6.38925 196.523 6.74385C196.871 7.09844 197.132 7.51212 197.309 7.98273C197.482 8.44896 197.569 8.93928 197.569 9.45367V10.0228C197.569 10.5569 197.432 11.0931 197.149 11.6272C196.913 12.0759 196.569 12.4415 196.118 12.7173ZM190.661 11.9315H193.24C194.019 11.9315 194.604 11.7717 194.982 11.4215C195.352 11.0778 195.525 10.5722 195.525 9.90894V9.56747C195.525 8.97209 195.346 8.49055 194.976 8.12501C194.599 7.7529 194.017 7.58217 193.24 7.58217H190.661V11.9315Z" fill="white"/>
<path d="M161.025 37.3143V27.2918H162.014L162.163 28.2534H162.217C162.583 27.644 163.273 27.1699 164.303 27.1699C166.118 27.1699 167.242 28.5243 167.242 30.759C167.242 32.8042 166.253 34.3346 164.303 34.3346C163.273 34.3346 162.583 33.8606 162.217 33.2511H162.163V37.3143H161.025ZM164.113 33.3188C165.549 33.3188 166.091 32.1405 166.091 30.759C166.091 29.364 165.549 28.1857 164.113 28.1857C162.732 28.1857 162.136 29.3776 162.136 30.759C162.136 32.127 162.732 33.3188 164.113 33.3188Z" fill="white"/>
<path d="M155.322 34.3346C153.818 34.3346 152.911 33.4001 152.911 32.1947C152.911 31.0299 153.737 30.0277 155.769 30.0277C156.5 30.0277 157.042 30.1496 157.475 30.2715V29.5807C157.475 28.8087 157.001 28.1451 155.877 28.1451C154.861 28.1451 154.36 28.7139 154.346 29.3776H153.249C153.249 28.0503 154.36 27.1699 155.877 27.1699C157.651 27.1699 158.586 28.2399 158.586 29.5536V34.2127H157.624L157.543 33.2376H157.489C157.069 33.9418 156.297 34.3346 155.322 34.3346ZM155.525 33.3865C156.703 33.3865 157.475 32.5333 157.475 31.531V31.1789C156.906 31.0028 156.378 30.9351 155.769 30.9351C154.644 30.9351 154.062 31.3685 154.062 32.1811C154.062 32.8719 154.523 33.3865 155.525 33.3865Z" fill="white"/>
<path d="M147.437 34.3346C145.392 34.3346 144.295 32.7906 144.295 30.759C144.295 28.7546 145.284 27.1699 147.424 27.1699C149.374 27.1699 150.417 28.6191 150.417 30.5423V31.0976H145.487C145.487 32.4114 146.15 33.3188 147.437 33.3188C148.345 33.3188 148.995 32.9396 149.184 32.2082H150.322C150.132 33.4814 148.913 34.3346 147.437 34.3346ZM145.5 30.1496H149.238C149.238 29.0525 148.656 28.1857 147.424 28.1857C146.123 28.1857 145.541 29.0661 145.5 30.1496Z" fill="white"/>
<path d="M136.167 34.2131V24.7324H137.345V33.1296H141.787V34.2131H136.167Z" fill="white"/>
<path d="M122.023 34.3348C120.208 34.3348 119.071 32.9804 119.084 30.7457C119.098 28.7005 120.073 27.1701 122.023 27.1701C123.052 27.1701 123.743 27.6441 124.109 28.2536H124.163V24.1904H125.301V34.2129H124.312L124.163 33.2513H124.109C123.743 33.8607 123.052 34.3348 122.023 34.3348ZM122.213 33.319C123.594 33.319 124.19 32.1271 124.19 30.7457C124.19 29.3777 123.594 28.1859 122.213 28.1859C120.777 28.1859 120.235 29.3642 120.235 30.7457C120.235 32.1407 120.777 33.319 122.213 33.319Z" fill="white"/>
<path d="M113.963 25.9648C113.434 25.9648 113.177 25.6532 113.177 25.1657C113.177 24.6916 113.434 24.3801 113.963 24.3801C114.477 24.3801 114.748 24.6916 114.748 25.1657C114.748 25.6532 114.477 25.9648 113.963 25.9648ZM110.847 34.213V33.2649H113.394V28.2401H111.078V27.2921H114.531V33.2649H116.807V34.213H110.847Z" fill="white"/>
<path d="M105.252 34.3348C103.437 34.3348 102.3 32.9804 102.313 30.7457C102.327 28.7005 103.302 27.1701 105.252 27.1701C106.282 27.1701 106.972 27.6441 107.338 28.2536H107.392V24.1904H108.53V34.2129H107.541L107.392 33.2513H107.338C106.972 33.8607 106.282 34.3348 105.252 34.3348ZM105.442 33.319C106.823 33.319 107.419 32.1271 107.419 30.7457C107.419 29.3777 106.823 28.1859 105.442 28.1859C104.006 28.1859 103.464 29.3642 103.464 30.7457C103.464 32.1407 104.006 33.319 105.442 33.319Z" fill="white"/>
<path d="M94.212 34.2127V27.2918H95.2007L95.2955 28.3753H95.3497C95.7154 27.671 96.4197 27.1699 97.4896 27.1699C99.0201 27.1699 99.914 28.1315 99.914 29.7162V34.2127H98.7763V29.8922C98.7763 28.8087 98.2752 28.1857 97.1781 28.1857C96.0269 28.1857 95.3497 28.9983 95.3497 30.3934V34.2127H94.212Z" fill="white"/>
<path d="M88.237 34.3346C86.7336 34.3346 85.8262 33.4001 85.8262 32.1947C85.8262 31.0299 86.6523 30.0277 88.6839 30.0277C89.4153 30.0277 89.957 30.1496 90.3904 30.2715V29.5807C90.3904 28.8087 89.9164 28.1451 88.7923 28.1451C87.7765 28.1451 87.2754 28.7139 87.2618 29.3776H86.1648C86.1648 28.0503 87.2754 27.1699 88.7923 27.1699C90.5665 27.1699 91.501 28.2399 91.501 29.5536V34.2127H90.5394L90.4582 33.2376H90.404C89.9841 33.9418 89.2121 34.3346 88.237 34.3346ZM88.4401 33.3865C89.6184 33.3865 90.3904 32.5333 90.3904 31.531V31.1789C89.8216 31.0028 89.2934 30.9351 88.6839 30.9351C87.5598 30.9351 86.9774 31.3685 86.9774 32.1811C86.9774 32.8719 87.4379 33.3865 88.4401 33.3865Z" fill="white"/>
<path d="M80.353 34.3348C77.888 34.3348 76.8993 32.3574 76.8993 29.4726C76.8993 26.5471 77.9151 24.6104 80.353 24.6104C82.5065 24.6104 83.4681 25.897 83.6712 27.9015H82.4523C82.3304 26.5471 81.8293 25.7209 80.353 25.7209C78.4162 25.7209 78.1183 27.5629 78.1183 29.4726C78.1183 31.3823 78.4162 33.2378 80.353 33.2378C81.7616 33.2378 82.2356 32.4387 82.4658 31.1385H83.6712C83.4139 33.0888 82.4929 34.3348 80.353 34.3348Z" fill="white"/>
<path d="M61.8209 37.3144V37.179L62.9992 34.1587L62.9857 34.1181L60.2092 27.4274V27.292H61.4281L63.5274 32.7231H63.5816L65.6132 27.292H66.8051V27.4274L62.9721 37.3144H61.8209Z" fill="white"/>
<path d="M52 34.2131V24.7324H55.2641C56.8622 24.7324 57.8916 25.6399 57.8916 27.1974C57.8916 28.2267 57.404 28.8227 56.6997 29.1342V29.1883C57.4311 29.4863 58.2437 30.1364 58.2437 31.4773C58.2437 33.2109 57.2144 34.2131 55.3589 34.2131H52ZM53.1648 28.7956H54.9796C56.0767 28.7956 56.6862 28.308 56.6862 27.1974C56.6862 26.3035 56.2121 25.7888 55.1286 25.7888H53.1648V28.7956ZM53.1648 33.1432H55.2234C56.3476 33.1432 57.0248 32.5608 57.0248 31.4773C57.0248 30.3667 56.4288 29.8249 55.2234 29.8249H53.1648V33.1432Z" fill="white"/>
</svg>
