<svg width="402" height="68" viewBox="0 0 402 68" fill="none" xmlns="http://www.w3.org/2000/svg">
<path d="M0.96875 0.844238V16.4142H51.8387V67.2842H67.4088V0.844238H0.96875Z" fill="white"/>
<path d="M31.9888 27.9843H0.96875V59.0043L31.9888 27.9843Z" fill="white"/>
<path d="M9.24902 67.2842H40.269V36.2642L9.24902 67.2842Z" fill="white"/>
<path d="M80.3691 33.7042C80.6291 40.3442 83.7191 46.9242 93.9791 46.9242C103.379 46.9242 107.719 41.1342 107.719 34.1042C107.719 26.6742 104.099 23.1242 96.1491 19.4442C90.9591 17.0142 89.5091 15.5042 89.5091 12.2742C89.5091 9.25423 90.8891 7.21423 94.0491 7.21423C98.1291 7.21423 98.7791 10.9642 98.9791 13.5242H106.799C106.669 7.73423 104.239 0.964233 94.1791 0.964233C86.1591 0.964233 81.5591 5.83423 81.5591 12.9342C81.5591 19.5742 84.5791 22.7942 92.2091 26.4142C97.7991 29.0442 99.5691 31.2142 99.5691 34.8342C99.5691 38.1842 98.1191 40.6242 94.2391 40.6242C90.1591 40.6242 88.6491 37.4042 88.2591 33.7242H80.3691V33.7042ZM114.549 1.62423V46.1342H122.509V1.62423H114.549ZM131.729 46.1342H154.149L154.939 39.3642H139.689V1.62423H131.729V46.1342ZM172.399 46.1342L183.579 1.62423H175.229L171.289 20.6942C170.039 26.5442 168.399 33.1842 167.869 37.6542H167.739C167.209 33.0542 166.029 26.4742 164.719 20.4942L160.639 1.62423H152.029L163.079 46.1342H172.419H172.399ZM210.959 19.4342H196.629V8.58423H211.619V1.62423H188.809V46.1342H211.689L212.679 39.2942H196.639V26.3442H210.969V19.4442L210.959 19.4342ZM230.189 27.1342C235.249 27.1342 236.629 29.1742 236.629 35.1542V36.7342C236.629 40.5442 236.699 44.0942 237.349 46.1342H245.039C244.709 43.7642 244.449 41.8642 244.449 36.7942V35.0142C244.449 28.4442 242.809 25.5442 239.389 23.9042C241.689 22.9842 245.179 20.2242 245.179 13.7742C245.179 5.88423 240.579 1.61423 232.489 1.61423H218.879V46.1242H226.769V27.1242H230.189V27.1342ZM226.769 8.06423H231.309C235.389 8.06423 237.229 10.3042 237.229 14.1742C237.229 18.6442 235.319 20.6842 230.519 20.6842H226.769V8.06423ZM250.709 33.7042C250.969 40.3442 254.059 46.9242 264.319 46.9242C273.719 46.9242 278.059 41.1342 278.059 34.1042C278.059 26.6742 274.439 23.1242 266.489 19.4442C261.299 17.0142 259.849 15.5042 259.849 12.2742C259.849 9.25423 261.229 7.21423 264.389 7.21423C268.469 7.21423 269.119 10.9642 269.319 13.5242H277.139C277.009 7.73423 274.579 0.964233 264.519 0.964233C256.499 0.964233 251.899 5.83423 251.899 12.9342C251.899 19.5742 254.919 22.7942 262.549 26.4142C268.139 29.0442 269.909 31.2142 269.909 34.8342C269.909 38.1842 268.459 40.6242 264.579 40.6242C260.499 40.6242 258.989 37.4042 258.599 33.7242H250.709V33.7042ZM312.049 46.1342H319.679V1.62423H308.039C305.739 13.3942 302.979 26.8042 302.059 32.8542H301.989C301.069 26.3442 299.029 13.9142 296.729 1.62423H284.829V46.1342H292.059V30.3542C292.059 22.6642 291.859 13.3242 291.599 8.13423H291.859C293.309 16.7442 295.869 32.7242 298.039 46.1342H305.209C308.099 31.7342 310.599 16.7442 312.109 8.26423H312.309C312.179 13.3242 312.049 22.0042 312.049 29.5642V46.1342ZM328.709 1.62423V46.1342H336.669V1.62423H328.709ZM351.869 46.1342H359.829V8.58423H369.359V1.62423H342.339V8.59423H351.869V46.1342ZM375.059 46.1342H383.019V26.1442H393.739V46.1342H401.759V1.62423H393.739V19.2442H383.019V1.62423H375.059V46.1342Z" fill="white"/>
<path d="M90.8187 63.6542C90.1787 64.9942 89.3187 65.9142 87.1387 65.9142C84.4487 65.9142 82.8587 63.8442 82.8587 61.2242C82.8587 58.6042 84.4687 56.5842 87.1287 56.5842C89.4087 56.5842 90.3387 57.7042 90.8387 58.9242H92.5187C92.0587 57.0142 90.4787 55.2242 87.1487 55.2242C83.4487 55.2242 81.1387 57.9642 81.1387 61.2642C81.1387 64.5642 83.2187 67.2742 87.0687 67.2742C90.3787 67.2742 91.8187 65.6342 92.4787 63.6442H90.8387L90.8187 63.6542ZM112.019 63.5442L113.569 67.0442H115.359L110.179 55.4842H108.189L103.219 67.0442H104.909L106.409 63.5442H112.009H112.019ZM106.919 62.1442C108.089 59.3942 108.869 57.4042 109.119 56.6542H109.139C109.399 57.4342 110.069 58.9542 111.489 62.1442H106.929H106.919ZM126.979 67.0442H128.619V62.4242H132.459C135.029 62.4242 136.599 61.1542 136.599 58.8942C136.599 56.9742 135.279 55.4942 132.419 55.4942H126.979V67.0542V67.0442ZM128.619 56.8442H132.229C134.049 56.8442 134.929 57.5942 134.929 58.8942C134.929 60.5742 133.819 61.0242 132.229 61.0242H128.619V56.8442ZM148.709 55.4842V67.0442H150.349V55.4842H148.709ZM166.459 67.0442H168.099V56.8642H172.499V55.4842H162.049V56.8642H166.459V67.0442ZM189.959 63.5442L191.509 67.0442H193.299L188.119 55.4842H186.129L181.159 67.0442H182.849L184.349 63.5442H189.949H189.959ZM184.869 62.1442C186.039 59.3942 186.819 57.4042 187.069 56.6542H187.089C187.349 57.4342 188.019 58.9542 189.439 62.1442H184.879H184.869ZM204.919 67.0442H213.269L213.509 65.6642H206.539V55.4842H204.909V67.0442H204.919ZM239.739 67.0442H241.379V62.4242H245.219C247.789 62.4242 249.359 61.1542 249.359 58.8942C249.359 56.9742 248.039 55.4942 245.179 55.4942H239.739V67.0542V67.0442ZM241.379 56.8442H244.999C246.819 56.8442 247.699 57.5942 247.699 58.8942C247.699 60.5742 246.589 61.0242 244.999 61.0242H241.379V56.8442ZM267.619 63.5442L269.169 67.0442H270.959L265.779 55.4842H263.789L258.819 67.0442H260.509L262.009 63.5442H267.609H267.619ZM262.519 62.1442C263.689 59.3942 264.469 57.4042 264.719 56.6542H264.739C264.999 57.4342 265.669 58.9542 267.089 62.1442H262.529H262.519ZM287.379 62.0542C289.419 62.0542 290.079 62.5942 290.079 64.3042V64.6742C290.079 65.6542 290.049 66.5342 290.229 67.0342H291.889C291.759 66.5442 291.759 65.5642 291.759 64.6942V64.1942C291.759 62.1542 290.719 61.5842 289.949 61.3742C291.369 61.0042 292.069 60.0042 292.069 58.6042C292.069 56.5542 290.469 55.4742 288.109 55.4742H282.589V67.0342H284.199V62.0542H287.369H287.379ZM284.199 56.8142H287.749C289.489 56.8142 290.389 57.4542 290.389 58.7042C290.389 60.0842 289.499 60.7242 287.689 60.7242H284.209V56.8142H284.199ZM307.599 67.0442H309.239V56.8642H313.639V55.4842H303.189V56.8642H307.599V67.0442ZM326.879 67.0442V62.3242C326.879 60.2742 326.879 58.6442 326.799 57.1442H326.829C327.659 58.4942 332.189 64.7342 333.909 67.0442H335.749V55.4842H334.219V59.8342C334.219 61.7042 334.199 63.5442 334.319 65.0442H334.289C333.639 63.8542 329.909 59.1042 327.299 55.4842H325.349V67.0442H326.879ZM357.479 60.2642H350.539V56.8442H357.829V55.4742H348.889V67.0342H357.959L358.189 65.6542H350.539V61.6442H357.479V60.2642ZM375.149 62.0542C377.189 62.0542 377.849 62.5942 377.849 64.3042V64.6742C377.849 65.6542 377.819 66.5342 377.999 67.0342H379.659C379.529 66.5442 379.529 65.5642 379.529 64.6942V64.1942C379.529 62.1542 378.489 61.5842 377.719 61.3742C379.139 61.0042 379.839 60.0042 379.839 58.6042C379.839 56.5542 378.239 55.4742 375.879 55.4742H370.359V67.0342H371.969V62.0542H375.149ZM371.969 56.8142H375.519C377.259 56.8142 378.159 57.4542 378.159 58.7042C378.159 60.0842 377.269 60.7242 375.459 60.7242H371.979V56.8142H371.969ZM391.369 63.6742C391.759 65.8042 393.389 67.2842 396.609 67.2842C400.089 67.2842 401.559 65.7042 401.559 63.8642C401.559 62.2542 400.889 60.9642 396.719 60.2542C394.079 59.8142 393.609 59.2142 393.609 58.2642C393.609 57.1042 394.679 56.5342 396.349 56.5342C398.789 56.5342 399.279 57.5742 399.519 58.3742H401.169C401.039 57.2042 400.159 55.2342 396.399 55.2342C393.879 55.2342 391.949 56.3942 391.949 58.4242C391.949 60.0042 392.779 61.0942 396.249 61.6842C399.249 62.1842 399.879 62.8842 399.879 64.0242C399.879 65.0942 398.999 65.9742 396.719 65.9742C394.439 65.9742 393.459 65.0342 393.039 63.6642H391.359L391.369 63.6742Z" fill="white"/>
</svg>
