<svg width="175" height="77" viewBox="0 0 175 77" fill="none" xmlns="http://www.w3.org/2000/svg">
<g clip-path="url(#clip0_520_14930)">
<path d="M0 0.104553H20.4965L50.5372 56.1715V0.104553H65.504V76.0214H46.0904L15.0739 18.217V76.0214H0V0.104553Z" fill="white"/>
<path d="M108.25 59.3227H72.791V45.1175L105.648 1.51823H122.892V46.2004H133.031V59.3227H122.892V76.134H108.25V59.3227ZM108.25 46.2004L108.576 15.7274L86.6709 46.2004H108.25Z" fill="white"/>
<path d="M160.985 20.6017C161.374 20.3994 161.735 20.1653 162.072 19.8956C163.373 18.8483 164.023 17.3449 164.023 15.3932C164.023 13.5883 163.389 12.1404 162.127 11.0575C160.862 9.97457 159.18 9.43111 157.085 9.43111H149.061V28.7336H153.289V21.4664H156.978C157.058 21.4664 157.137 21.4585 157.216 21.4585L160.556 28.7336H165.003L160.993 20.5977L160.985 20.6017ZM153.285 18.2176V12.6879H156.431C157.371 12.6879 158.129 12.9219 158.708 13.394C159.287 13.866 159.577 14.5681 159.577 15.5083C159.577 17.3171 158.494 18.2216 156.324 18.2216H153.289L153.285 18.2176Z" fill="white"/>
<path d="M172.599 9.59499C171.008 6.66748 168.783 4.335 165.93 2.6015C163.074 0.868 159.802 -0.000732422 156.117 -0.000732422C152.431 -0.000732422 149.266 0.832299 146.41 2.49439C143.554 4.15649 141.328 6.45327 139.742 9.38078C138.151 12.3083 137.354 15.6166 137.354 19.3058C137.354 22.9949 138.167 26.212 139.793 29.1752C141.42 32.1424 143.661 34.4709 146.517 36.1687C149.373 37.8665 152.57 38.7193 156.113 38.7193C161.678 38.7193 166.216 36.9303 169.723 33.3522C173.229 29.7742 174.983 25.0933 174.983 19.3097C174.983 15.7674 174.185 12.5304 172.599 9.60292V9.59499ZM166.525 30.2026C164.066 32.8445 160.595 34.1615 156.113 34.1615C153.51 34.1615 151.142 33.5109 149.008 32.2098C146.874 30.9087 145.192 29.1197 143.966 26.8427C142.736 24.5657 142.122 22.0548 142.122 19.3058C142.122 15.0414 143.387 11.4792 145.918 8.62312C148.449 5.76702 151.844 4.33896 156.113 4.33896C160.381 4.33896 163.705 5.73131 166.307 8.51602C168.91 11.3007 170.211 14.9343 170.211 19.4168C170.211 23.8993 168.981 27.5686 166.522 30.2066L166.525 30.2026Z" fill="white"/>
</g>
<defs>
<clipPath id="clip0_520_14930">
<rect width="175" height="76.1311" fill="white"/>
</clipPath>
</defs>
</svg>
