<svg xmlns="http://www.w3.org/2000/svg" viewBox="0 0 1920 988.9"><defs><style>.cls-1{fill:#fff;}</style></defs><g id="Layer_2" data-name="Layer 2"><g id="Layer_1-2" data-name="Layer 1"><path class="cls-1" d="M304.56,11.84q20.25,0,20.27,19.94v74.31c0,12.6-6.77,19.94-20.27,19.94H141c-12.85,0-20.28,6.62-20.28,19.9v21.22c0,12.61,7.43,19.91,20.28,19.91H245.77q20.28,0,20.28,19.94v74.31c0,12.64-6.76,19.94-20.28,19.94H141c-12.85,0-20.28,6.62-20.28,19.9v21.22c0,12.64,7.43,19.94,20.28,19.94H304.56q20.25,0,20.27,19.91v74.34c0,13.25-6.77,19.91-20.27,19.91H20.77c-12.85,0-20.28-7.3-20.28-19.91V31.78c0-13.28,7.43-19.94,20.28-19.94Z"/><path class="cls-1" d="M547.24,11.84c126.74,0,168.55,50.46,168.55,159.3V316.49c0,108.85-41.81,160-168.55,160H396.92c-12.82,0-20.24-7.3-20.24-19.91V32.42c0-13.28,6.75-19.9,20.24-20.58Zm2,350.47c32.36,0,48.53-5.34,48.53-45.14v-146C597.8,130,581.63,126,549.27,126H512.86c-12.8,0-20.23,6.62-20.23,19.91V342.37c0,12.65,7.43,19.94,20.23,19.94Z"/><path class="cls-1" d="M770.47,161.23C770.47,117.45,779.93,0,940.08,0,1082,0,1105.63,91.56,1109,143.33c.67,12-5.4,19.26-17.56,21.89l-76.36,16.59c-13.52,2.67-21-3.31-22.29-17.23-2.7-31.86-14.19-50.44-52.71-50.44-50,0-53.37,31.18-53.37,82.27V292c0,51.08,3.37,82.27,53.37,82.27s53.38-31.19,53.38-63.69H954.27c-12.85,0-20.28-7.3-20.28-19.94V237.56c0-13.28,7.43-19.9,20.28-19.9h135.14q20.28,0,20.26,19.9v89.61c0,43.79-9.46,161.24-169.59,161.24S770.47,371,770.47,327.17Z"/><path class="cls-1" d="M1916.55,440.75c9.45,17.2-1.34,35.72-22.27,35.72h-77c-6.75,0-12.82-3.3-15.53-9.26l-70.2-132.92a6.86,6.86,0,0,0-5.4-3.3h-27c-12.15,0-20.94,8.59-20.94,20.51V456c0,11.89-8.78,20.51-20.93,20.51h-75.59c-12.15,0-20.94-8.62-20.94-20.51V34.08c0-11.88,8.79-20.5,20.94-20.5h147.82c120.16,0,168.77,50.26,168.77,158.7,0,61.52-15.53,104.47-51.31,129.62-2.7,2-3.37,5.29-2,8.59ZM1699.2,127.34c-12.15,0-20.94,8.58-20.94,20.47v48.95c0,11.88,8.79,20.51,20.94,20.51h34.42c32.41,0,48.59-4,48.59-45s-16.18-44.94-48.59-44.94Z"/><path class="cls-1" d="M331.11,966.5c0,14.49-6.74,22.4-20.27,22.4H235.17c-12.85,0-20.29-6.61-20.29-19.75V911.83q0-19.77-20.26-19.76H136.49c-12.83,0-20.27,6.58-20.27,19.76v57.32c0,13.14-6.76,19.75-20.26,19.75H20.26C7.43,988.9,0,981,0,966.5V687.17c0-83,13.5-171.26,165.56-171.26s165.55,88.28,165.55,171.26ZM214.88,687.17c0-31.59-4.73-47.43-49.32-47.43s-49.34,15.84-49.34,47.43V759c0,12.51,7.44,19.76,20.27,19.76h58.13c13.5-.64,20.26-7.25,20.26-20.39Z"/><path class="cls-1" d="M1496.29,966.5c0,14.49-6.75,22.4-20.27,22.4h-75.67c-12.86,0-20.29-6.61-20.29-19.75V911.83q0-19.77-20.26-19.76h-58.13c-12.84,0-20.27,6.58-20.27,19.76v57.32c0,13.14-6.76,19.75-20.26,19.75h-75.7c-12.83,0-20.26-7.91-20.26-22.4V687.17c0-83,13.5-171.26,165.56-171.26s165.55,88.28,165.55,171.26ZM1380.06,687.17c0-31.59-4.73-47.43-49.32-47.43s-49.34,15.84-49.34,47.43V759c0,12.51,7.43,19.76,20.27,19.76h58.13c13.5-.64,20.26-7.25,20.26-20.39Z"/><path class="cls-1" d="M1496.77,454.06c0,14.49-6.74,22.41-20.26,22.41h-75.68c-12.85,0-20.28-6.61-20.28-19.76V399.39q0-19.77-20.27-19.75h-58.13c-12.83,0-20.26,6.57-20.26,19.75v57.32c0,13.15-6.76,19.76-20.27,19.76h-75.69c-12.83,0-20.27-7.92-20.27-22.41V174.73c0-83,13.51-171.25,165.57-171.25s165.54,88.28,165.54,171.25ZM1380.55,174.73c0-31.59-4.73-47.42-49.32-47.42s-49.34,15.83-49.34,47.42v71.81c0,12.51,7.43,19.76,20.26,19.76h58.13c13.51-.64,20.27-7.25,20.27-20.39Z"/><path class="cls-1" d="M503.76,527.75q20.28,0,20.27,19.79V855.81c0,12.55,7.45,19.79,20.28,19.79H695q20.25,0,20.26,19.76v73.79c0,13.14-6.76,19.75-20.26,19.75h-267c-12.83,0-20.26-7.24-20.26-19.75V547.54c0-13.18,7.43-19.79,20.26-19.79Z"/><path class="cls-1" d="M876.78,527.75q20.28,0,20.27,19.79V855.81c0,12.55,7.45,19.79,20.28,19.79h150.73q20.25,0,20.26,19.76v73.79c0,13.14-6.76,19.75-20.26,19.75h-267c-12.83,0-20.27-7.24-20.27-19.75V547.54c0-13.18,7.44-19.79,20.27-19.79Z"/><path class="cls-1" d="M1679.83,527.75c11.48,0,18.9,4.63,23.63,15.16l91.82,219.36c2.7,5.94,8.09,4.63,8.09-2V547.54c0-13.18,7.43-19.79,20.27-19.79h75.61q20.26,0,20.26,19.79V969.15c0,12.51-6.75,19.75-20.26,19.75H1800c-11.48,0-18.9-4.63-23.63-15.16l-91.82-219.35c-2.7-5.94-8.11-4.63-8.11,2V969.15c0,12.51-6.74,19.75-20.25,19.75h-75.61c-12.84,0-20.26-7.24-20.26-19.75V547.54c0-13.18,7.42-19.79,20.26-19.79Z"/></g></g></svg>