<svg width="649" height="100" viewBox="0 0 649 100" fill="none" xmlns="http://www.w3.org/2000/svg">
<path d="M0.708435 57.6813V55.2572L31.1114 33.8972V44.7241H62.318C70.22 44.7241 74.372 41.1087 74.372 35.8864C74.372 30.3963 70.22 26.7809 62.318 26.7809H41.2405L75.6125 2.6324C93.4528 5.97488 104.373 17.3624 104.373 34.9491C104.373 48.8751 96.7389 59.5875 83.7474 64.8098L106.382 97.7503H71.2915L52.0051 68.2913H31.1114V79.1773L0.708435 57.6813Z" fill="white"/>
<path d="M112.538 1.60685V97.7503H206.291V72.3084H142.405V61.73H198.657V36.9576H142.405V27.0487H206.291V1.60685H112.538Z" fill="white"/>
<path d="M214.427 97.7503H301.886V72.3084H244.83V1.60685H214.427V97.7503Z" fill="white"/>
<path fill-rule="evenodd" clip-rule="evenodd" d="M358.934 0C324.781 0 300.539 20.8891 300.539 49.6786C300.539 78.468 324.781 99.3571 358.934 99.3571C393.087 99.3571 417.329 78.468 417.329 49.6786C417.329 20.8891 393.087 0 358.934 0ZM358.934 26.1114C374.069 26.1114 386.257 34.9491 386.257 49.6786C386.257 64.4081 374.069 73.2458 358.934 73.2458C343.8 73.2458 331.612 64.4081 331.612 49.6786C331.612 34.9491 343.8 26.1114 358.934 26.1114Z" fill="white"/>
<path fill-rule="evenodd" clip-rule="evenodd" d="M407.846 97.7503H439.99L447.223 82.4852H495.171L502.269 97.7503H535.887L489.546 1.60685H454.187L407.846 97.7503ZM471.331 31.3337L484.054 58.6502H458.473L471.331 31.3337Z" fill="white"/>
<path fill-rule="evenodd" clip-rule="evenodd" d="M539.844 97.7503H591.275C627.303 97.7503 649 79.0037 649 49.6786C649 20.3535 627.303 1.60685 591.275 1.60685H539.844V97.7503ZM569.577 27.0487H591.275C609.222 27.0487 618.865 36.0203 618.865 49.6786C618.865 63.3368 609.222 72.3084 591.275 72.3084H569.577V27.0487Z" fill="white"/>
</svg>
