<svg width="195" height="60" viewBox="0 0 195 60" fill="none" xmlns="http://www.w3.org/2000/svg">
<path fill-rule="evenodd" clip-rule="evenodd" d="M10 5C4.47715 5 0 9.47715 0 15V45C0 50.5228 4.47715 55 10 55H40C45.5228 55 50 50.5228 50 45V15C50 9.47715 45.5228 5 40 5H10ZM37.7142 19.881L40 16.6667H10L12.286 19.881H23.2669L23.2429 45.6822L24.8753 47.8251L26.5078 45.6822L26.5318 19.881H37.7142ZM19.435 40.2381L22.1557 43.4524V20.9524H13.0483L14.9534 23.631L19.4466 23.631L19.435 40.2381ZM27.5971 43.4524L30.3072 40.2381V23.631H35.0472L36.9522 20.9524H27.5971V43.4524Z" fill="white"/>
<path d="M72.496 44.5V19.736H63.312V15.8H85.985V19.736H76.801V44.5H72.496ZM95.5617 44.869C89.0837 44.869 84.8607 40.113 84.8607 33.963C84.8607 27.731 89.1247 23.016 95.5207 23.016C101.712 23.016 105.607 27.895 105.607 33.471V35.398H89.0017C89.5347 39.416 92.2407 41.179 95.5617 41.179C98.9237 41.179 101.097 39.129 101.753 37.284L104.91 38.965C104.008 41.302 101.138 44.869 95.5617 44.869ZM89.1247 31.954H101.343C101.302 29.33 99.0877 26.624 95.4797 26.624C92.3637 26.624 89.8217 28.469 89.1247 31.954ZM109.909 44.5V23.385H114.009V26.05C114.993 24.205 117.207 23.016 119.749 23.016C122.578 23.016 124.874 24.328 126.268 26.296C127.334 24.902 129.425 23.016 133.033 23.016C137.912 23.016 141.356 26.542 141.356 30.97V44.5H137.256V31.954C137.256 28.797 135.247 26.87 132.5 26.87C129.671 26.87 127.662 28.961 127.662 31.954V44.5H123.562V31.954C123.562 28.797 121.594 26.87 118.806 26.87C115.977 26.87 114.009 28.961 114.009 31.954V44.5H109.909ZM146.266 53.889V23.385H150.366V26.091C151.719 24.287 154.261 23.016 157.418 23.016C163.158 23.016 167.709 27.116 167.709 33.963C167.709 40.318 163.24 44.869 157.418 44.869C154.261 44.869 151.596 43.516 150.366 41.712V53.889H146.266ZM150.284 33.963C150.284 37.817 152.826 41.056 156.926 41.056C161.026 41.056 163.568 37.858 163.568 33.963C163.568 30.027 161.026 26.829 156.926 26.829C152.826 26.829 150.284 30.068 150.284 33.963ZM182.118 44.869C175.64 44.869 171.007 40.277 171.007 33.963C171.007 27.649 175.681 23.016 182.118 23.016C188.555 23.016 193.229 27.649 193.229 33.963C193.229 40.236 188.596 44.869 182.118 44.869ZM175.148 33.963C175.148 38.145 178.223 41.097 182.118 41.097C186.054 41.097 189.088 38.145 189.088 33.963C189.088 29.781 186.054 26.829 182.118 26.829C178.182 26.829 175.148 29.781 175.148 33.963Z" fill="white"/>
</svg>
