<svg width="254" height="26" viewBox="0 0 254 26" fill="none" xmlns="http://www.w3.org/2000/svg">
<path d="M79.2916 5.6615C75.1216 5.6615 72.0316 9.0515 72.0316 13.5615C71.9856 14.5812 72.1469 15.5997 72.5057 16.5553C72.8645 17.5109 73.4133 18.3838 74.119 19.1213C74.8247 19.8588 75.6727 20.4456 76.6116 20.8461C77.5505 21.2466 78.5608 21.4525 79.5816 21.4515C80.7891 21.4643 81.9843 21.2069 83.0795 20.6983C84.1747 20.1896 85.1424 19.4424 85.9116 18.5115L85.0316 17.7215C84.8588 17.5576 84.6297 17.4663 84.3916 17.4663C84.1534 17.4663 83.9244 17.5576 83.7516 17.7215C82.64 18.7369 81.1872 19.2974 79.6816 19.2915C76.9816 19.2915 74.5816 17.5315 74.5816 13.5615C74.5816 9.5915 76.8416 7.8215 79.2916 7.8215C79.9142 7.82091 80.5305 7.94645 81.1032 8.19053C81.676 8.4346 82.1934 8.79217 82.6242 9.24166C83.055 9.69115 83.3902 10.2232 83.6098 10.8058C83.8293 11.3884 83.9286 12.0095 83.9016 12.6315H77.5916C77.3264 12.6315 77.072 12.7369 76.8845 12.9244C76.6969 13.1119 76.5916 13.3663 76.5916 13.6315V14.5615H85.0316C85.2005 14.5616 85.3677 14.5277 85.5232 14.4619C85.6787 14.3961 85.8194 14.2997 85.937 14.1784C86.0545 14.0572 86.1465 13.9135 86.2074 13.756C86.2683 13.5985 86.2969 13.4303 86.2916 13.2615C86.1216 8.6115 83.1816 5.6615 79.2916 5.6615Z" fill="white"/>
<path d="M116.721 5.76147C114.781 5.77509 112.87 6.2299 111.131 7.09148L111.621 8.21148C111.655 8.33525 111.715 8.45032 111.797 8.54897C111.88 8.64762 111.982 8.72756 112.097 8.78344C112.213 8.83932 112.339 8.86984 112.467 8.87295C112.596 8.87606 112.723 8.85169 112.841 8.80148C114.013 8.33447 115.26 8.08702 116.521 8.07148C119.321 8.07148 120.841 9.44148 120.841 11.9915V15.5715C120.841 17.7715 118.731 19.4415 115.981 19.4415C114.221 19.4415 112.351 18.5615 112.351 16.6015C112.351 14.6415 113.921 13.6015 116.571 13.6015H117.891C118.157 13.6015 118.411 13.4961 118.598 13.3086C118.786 13.121 118.891 12.8667 118.891 12.6015V11.6615H116.341C112.281 11.6615 109.821 13.4815 109.821 16.6615C109.821 19.8415 112.771 21.4615 115.511 21.4615C116.502 21.4931 117.488 21.3031 118.396 20.9051C119.305 20.5072 120.113 19.9115 120.761 19.1615V20.1615C120.761 20.4267 120.867 20.681 121.054 20.8686C121.242 21.0561 121.496 21.1615 121.761 21.1615H123.181V11.9115C123.191 7.91148 120.891 5.76147 116.721 5.76147Z" fill="white"/>
<path d="M51.9514 0.661499H50.4814V2.1315C50.4814 2.39672 50.5868 2.65107 50.7743 2.8386C50.9619 3.02614 51.2162 3.1315 51.4814 3.1315H52.9514V1.6415C52.9462 1.37976 52.8385 1.13052 52.6516 0.947285C52.4646 0.764052 52.2132 0.661447 51.9514 0.661499Z" fill="white"/>
<path d="M190.212 0.661499H188.742V2.1315C188.742 2.39672 188.847 2.65107 189.035 2.8386C189.222 3.02614 189.476 3.1315 189.742 3.1315H191.212V1.6415C191.206 1.37976 191.099 1.13052 190.912 0.947285C190.725 0.764052 190.473 0.661447 190.212 0.661499Z" fill="white"/>
<path d="M34.3516 17.5315C33.3064 18.5688 31.9037 19.1664 30.4316 19.2015C29.7049 19.1848 28.9889 19.0238 28.3251 18.7277C27.6613 18.4316 27.063 18.0064 26.5651 17.4768C26.0672 16.9473 25.6796 16.324 25.4249 15.6432C25.1703 14.9625 25.0535 14.2378 25.0816 13.5115C25.0508 12.8005 25.1617 12.0904 25.4077 11.4226C25.6538 10.7548 26.0302 10.1426 26.515 9.62152C26.9997 9.10045 27.5833 8.68095 28.2316 8.38739C28.8799 8.09384 29.5802 7.93209 30.2916 7.91155C31.751 7.93765 33.1414 8.53763 34.1616 9.58155C34.2521 9.66573 34.3584 9.73122 34.4743 9.77428C34.5902 9.81734 34.7134 9.83711 34.837 9.83246C34.9605 9.82782 35.0819 9.79885 35.1942 9.74721C35.3066 9.69558 35.4076 9.62229 35.4916 9.53155L36.4916 8.45155C35.7312 7.55058 34.7812 6.82879 33.7094 6.33782C32.6375 5.84686 31.4704 5.59885 30.2916 5.61155C28.1911 5.61155 26.1766 6.44597 24.6913 7.93126C23.206 9.41655 22.3716 11.431 22.3716 13.5315C22.3716 15.6321 23.206 17.6465 24.6913 19.1318C26.1766 20.6171 28.1911 21.4515 30.2916 21.4515C31.4938 21.4482 32.6802 21.1772 33.7647 20.6583C34.8492 20.1394 35.8046 19.3856 36.5616 18.4515L35.6316 17.5715C35.4566 17.4162 35.2327 17.3271 34.9988 17.3198C34.7649 17.3125 34.5359 17.3874 34.3516 17.5315Z" fill="white"/>
<path d="M67.7914 7.23153L63.3714 17.7715L58.9614 7.23153C58.807 6.86688 58.5478 6.55628 58.2167 6.33909C57.8856 6.1219 57.4974 6.0079 57.1014 6.01153H55.7314L61.8514 20.1815C61.9651 20.4877 62.1697 20.7518 62.4379 20.9383C62.706 21.1248 63.0248 21.2248 63.3514 21.2248C63.6781 21.2248 63.9969 21.1248 64.265 20.9383C64.5331 20.7518 64.7378 20.4877 64.8514 20.1815L71.0214 6.01153H69.7014C69.297 5.99779 68.898 6.10706 68.557 6.32488C68.2159 6.5427 67.949 6.85883 67.7914 7.23153Z" fill="white"/>
<path d="M45.9215 6.01148H42.1915V1.64148C42.1915 1.37626 42.0861 1.12191 41.8986 0.934372C41.7111 0.746836 41.4567 0.641479 41.1915 0.641479H39.7415V17.1415C39.7309 17.6987 39.8305 18.2524 40.0346 18.771C40.2387 19.2895 40.5432 19.7627 40.9307 20.1632C41.3182 20.5637 41.781 20.8837 42.2925 21.1048C42.8041 21.3258 43.3543 21.4437 43.9115 21.4515C44.954 21.4817 45.9869 21.2442 46.9115 20.7615V18.5115C46.1941 18.8657 45.4108 19.0667 44.6115 19.1015C44.2903 19.1508 43.962 19.1237 43.6531 19.0226C43.3443 18.9214 43.0636 18.7489 42.8338 18.5191C42.604 18.2893 42.4316 18.0087 42.3304 17.6998C42.2292 17.391 42.2022 17.0627 42.2515 16.7415V8.21148H46.9615V6.99148C46.9589 6.85842 46.9298 6.7272 46.8759 6.60552C46.822 6.48385 46.7443 6.37416 46.6475 6.28288C46.5506 6.19161 46.4365 6.12059 46.3118 6.07399C46.1872 6.02738 46.0545 6.00613 45.9215 6.01148Z" fill="white"/>
<path d="M51.9514 6.01147H50.4814V20.1815C50.4691 20.3159 50.4865 20.4513 50.5324 20.5782C50.5783 20.7052 50.6516 20.8204 50.747 20.9158C50.8424 21.0113 50.9577 21.0845 51.0846 21.1304C51.2115 21.1764 51.347 21.1938 51.4814 21.1815H52.9514V6.99148C52.9461 6.72974 52.8385 6.4805 52.6515 6.29726C52.4645 6.11403 52.2132 6.01142 51.9514 6.01147Z" fill="white"/>
<path d="M105.541 16.7915C103.977 18.3095 101.881 19.1563 99.7013 19.1515C95.3913 19.1515 92.0613 15.5215 92.0613 10.9115C92.0613 6.30148 95.3413 2.77148 99.7013 2.77148C101.8 2.81178 103.816 3.59484 105.391 4.98148C105.586 5.13137 105.83 5.20405 106.075 5.1856C106.321 5.16715 106.551 5.05887 106.721 4.88148L107.791 3.75148C106.757 2.67753 105.514 1.8277 104.137 1.25484C102.761 0.681973 101.282 0.398307 99.7913 0.421479C98.4052 0.403132 97.0299 0.66611 95.7484 1.19451C94.4669 1.72291 93.3059 2.50575 92.3356 3.49568C91.3653 4.48561 90.6058 5.66207 90.1032 6.9539C89.6006 8.24573 89.3652 9.62608 89.4113 11.0115C89.3641 12.3839 89.5948 13.7517 90.0895 15.0327C90.5842 16.3137 91.3327 17.4815 92.2901 18.4659C93.2474 19.4504 94.3939 20.2312 95.6606 20.7614C96.9273 21.2916 98.2881 21.5604 99.6613 21.5515C101.213 21.5676 102.751 21.251 104.171 20.6232C105.59 19.9953 106.859 19.0707 107.891 17.9115L106.891 16.9115C106.722 16.7256 106.49 16.6101 106.24 16.5879C105.99 16.5657 105.74 16.6383 105.541 16.7915Z" fill="white"/>
<path d="M144.291 5.66151C143.245 5.63841 142.211 5.88928 141.292 6.38922C140.373 6.88916 139.6 7.6208 139.051 8.51151C138.603 7.62848 137.913 6.89142 137.061 6.38666C136.209 5.88191 135.231 5.63037 134.241 5.66151C133.316 5.64843 132.403 5.87106 131.588 6.30844C130.773 6.74581 130.082 7.38353 129.581 8.16151V6.99152C129.581 6.7263 129.476 6.47194 129.288 6.28441C129.101 6.09687 128.847 5.99152 128.581 5.99152H127.111V21.1615H128.581C128.847 21.1615 129.101 21.0562 129.288 20.8686C129.476 20.6811 129.581 20.4267 129.581 20.1615V12.5315C129.581 9.88151 131.251 7.97151 133.581 7.97151C135.911 7.97151 137.291 9.59151 137.291 12.2815V20.1815C137.291 20.4467 137.397 20.7011 137.584 20.8886C137.772 21.0762 138.026 21.1815 138.291 21.1815H139.761V12.4315C139.761 9.34151 141.761 7.97151 143.761 7.97151C146.121 7.97151 147.491 9.54151 147.491 12.3315V20.1815C147.491 20.4467 147.597 20.7011 147.784 20.8886C147.972 21.0762 148.226 21.1815 148.491 21.1815H149.961V11.7915C149.911 8.02151 147.751 5.66151 144.291 5.66151Z" fill="white"/>
<path d="M162.021 5.66145C160.914 5.65626 159.822 5.92796 158.846 6.45187C157.869 6.97579 157.04 7.73532 156.431 8.66145V6.99145C156.431 6.72624 156.326 6.47188 156.139 6.28434C155.951 6.09681 155.697 5.99145 155.431 5.99145H153.961V24.8314C153.961 25.0967 154.067 25.351 154.254 25.5386C154.442 25.7261 154.696 25.8314 154.961 25.8314H156.431V18.5615C157.058 19.4616 157.894 20.1953 158.868 20.6989C159.843 21.2025 160.925 21.4608 162.021 21.4515C165.551 21.4515 169.281 18.6615 169.281 13.5615C169.281 8.46145 165.501 5.66145 162.021 5.66145ZM161.631 19.2015C160.913 19.1849 160.206 19.0249 159.551 18.7307C158.896 18.4365 158.306 18.0141 157.817 17.4885C157.328 16.9629 156.949 16.3446 156.702 15.6702C156.456 14.9957 156.347 14.2787 156.381 13.5615C156.345 12.8434 156.453 12.1253 156.699 11.4497C156.945 10.7741 157.324 10.1546 157.813 9.62788C158.303 9.10117 158.893 8.6779 159.549 8.38309C160.204 8.08828 160.913 7.92791 161.631 7.91145C164.571 7.91145 166.731 10.3114 166.731 13.5514C166.731 16.7914 164.621 19.2015 161.631 19.2015Z" fill="white"/>
<path d="M190.161 6.01147H188.691V20.1815C188.691 20.4467 188.797 20.701 188.984 20.8886C189.172 21.0761 189.426 21.1815 189.691 21.1815H191.161V6.99148C191.156 6.72974 191.049 6.4805 190.862 6.29726C190.675 6.11403 190.423 6.01142 190.161 6.01147Z" fill="white"/>
<path d="M207.422 6.99146V8.41145C206.675 7.45643 205.698 6.70663 204.582 6.23234C203.467 5.75805 202.249 5.5748 201.043 5.69976C199.837 5.82473 198.683 6.25381 197.688 6.9468C196.693 7.63979 195.891 8.574 195.356 9.66185C194.821 10.7497 194.571 11.9556 194.629 13.1665C194.688 14.3773 195.053 15.5536 195.69 16.5849C196.327 17.6162 197.216 18.4689 198.272 19.063C199.329 19.657 200.519 19.9731 201.732 19.9815C202.843 19.9926 203.94 19.7358 204.93 19.2327C205.921 18.7296 206.775 17.9951 207.422 17.0915V18.4615C207.422 21.7515 205.512 23.6115 202.132 23.6115C200.366 23.6105 198.635 23.1189 197.132 22.1915C197.025 22.1177 196.905 22.0676 196.777 22.0448C196.65 22.022 196.519 22.0268 196.394 22.0591C196.269 22.0914 196.152 22.1503 196.051 22.2318C195.951 22.3133 195.869 22.4155 195.812 22.5315L195.172 23.6615C197.234 25.0699 199.675 25.8196 202.172 25.8115C207.082 25.8115 209.872 23.1215 209.872 18.4115V6.01145H208.402C208.143 6.01657 207.897 6.12146 207.714 6.30415C207.532 6.48684 207.427 6.73315 207.422 6.99146ZM202.082 17.7715C201.419 17.7923 200.76 17.6772 200.144 17.4333C199.528 17.1894 198.968 16.8218 198.5 16.3533C198.031 15.8848 197.664 15.3253 197.42 14.7092C197.176 14.0932 197.061 13.4337 197.082 12.7715C197.066 12.1152 197.185 11.4626 197.432 10.8544C197.679 10.2462 198.049 9.6952 198.518 9.23571C198.987 8.77621 199.545 8.41801 200.158 8.18332C200.771 7.94864 201.426 7.84248 202.082 7.87145C202.761 7.81841 203.443 7.90638 204.087 8.12983C204.73 8.35328 205.321 8.70738 205.821 9.16989C206.321 9.6324 206.72 10.1933 206.993 10.8174C207.265 11.4415 207.406 12.1153 207.406 12.7965C207.406 13.4776 207.265 14.1514 206.993 14.7755C206.72 15.3996 206.321 15.9605 205.821 16.423C205.321 16.8855 204.73 17.2396 204.087 17.4631C203.443 17.6865 202.761 17.7745 202.082 17.7215V17.7715Z" fill="white"/>
<path d="M221.342 5.66151C220.355 5.62736 219.376 5.84879 218.5 6.30433C217.624 6.75987 216.88 7.43405 216.342 8.26151V6.99151C216.342 6.7263 216.236 6.47194 216.049 6.2844C215.861 6.09687 215.607 5.99151 215.342 5.99151H213.872V21.1615H215.342C215.607 21.1615 215.861 21.0562 216.049 20.8686C216.236 20.6811 216.342 20.4267 216.342 20.1615V12.4615C216.303 11.8753 216.386 11.2873 216.587 10.7351C216.788 10.1829 217.101 9.67862 217.508 9.25432C217.914 8.83002 218.404 8.49504 218.947 8.27074C219.49 8.04643 220.074 7.93771 220.662 7.95151C223.162 7.95151 224.662 9.57151 224.662 12.3115V20.1615C224.662 20.4267 224.767 20.6811 224.954 20.8686C225.142 21.0562 225.396 21.1615 225.662 21.1615H227.132V11.7415C227.182 8.07151 224.922 5.66151 221.342 5.66151Z" fill="white"/>
<path d="M252.672 11.1114L237.292 1.10144V3.10144C237.291 3.42905 237.371 3.75176 237.524 4.04121C237.678 4.33066 237.9 4.57798 238.172 4.76144L250.871 13.2414L238.172 21.6814C237.904 21.862 237.685 22.1046 237.531 22.3884C237.378 22.6722 237.296 22.9889 237.292 23.3114V25.4214L252.682 15.3214C253.025 15.0854 253.306 14.7707 253.503 14.4036C253.699 14.0365 253.805 13.6278 253.811 13.2114C253.814 12.7937 253.71 12.3822 253.511 12.0151C253.312 11.648 253.023 11.3371 252.672 11.1114Z" fill="white"/>
<path d="M243.211 13.9115C243.549 14.127 243.941 14.2415 244.341 14.2415C244.742 14.2415 245.134 14.127 245.471 13.9115L246.551 13.1815L238.551 7.73152C238.434 7.6525 238.297 7.60664 238.155 7.59876C238.013 7.59087 237.872 7.62126 237.746 7.68673C237.621 7.75219 237.515 7.85032 237.44 7.97081C237.365 8.09131 237.324 8.22972 237.321 8.37152V9.99152L241.491 12.7815L243.211 13.9115Z" fill="white"/>
<path d="M178.402 5.76147C176.461 5.77369 174.55 6.22857 172.812 7.09148L173.292 8.21148C173.326 8.33525 173.386 8.45032 173.468 8.54897C173.55 8.64762 173.652 8.72756 173.768 8.78344C173.883 8.83932 174.009 8.86984 174.138 8.87295C174.266 8.87606 174.394 8.85169 174.512 8.80148C175.683 8.33447 176.931 8.08702 178.192 8.07148C180.982 8.07148 182.502 9.44148 182.502 11.9915V15.5715C182.502 17.7715 180.402 19.4415 177.652 19.4415C175.882 19.4415 174.022 18.5615 174.022 16.6015C174.022 14.6415 175.592 13.6015 178.242 13.6015H179.562C179.827 13.6015 180.081 13.4961 180.269 13.3086C180.456 13.121 180.562 12.8667 180.562 12.6015V11.6615H178.012C173.942 11.6615 171.492 13.4815 171.492 16.6615C171.492 19.8415 174.432 21.4615 177.182 21.4615C178.171 21.4931 179.156 21.3029 180.062 20.9049C180.969 20.507 181.775 19.9113 182.422 19.1615V20.1615C182.422 20.4267 182.527 20.681 182.715 20.8686C182.902 21.0561 183.156 21.1615 183.422 21.1615H184.842V11.9115C184.872 7.91148 182.562 5.76147 178.402 5.76147Z" fill="white"/>
<path d="M11.2915 0.661456C10.9468 0.608882 10.5945 0.680593 10.2978 0.86378C10.001 1.04697 9.77904 1.3297 9.67152 1.66146L0.811523 21.1615H2.14152C2.52965 21.153 2.90808 21.0385 3.2359 20.8306C3.56372 20.6226 3.82846 20.329 4.00152 19.9815L5.86152 15.9115H12.8615C13.1267 15.9115 13.3811 15.8061 13.5686 15.6186C13.7562 15.431 13.8615 15.1767 13.8615 14.9115V13.5615H6.86152L11.2915 3.75146L18.4615 19.9115C18.6094 20.277 18.862 20.5907 19.1876 20.8131C19.5132 21.0355 19.8972 21.1567 20.2915 21.1615H21.7115L12.9215 1.69146C12.8031 1.36294 12.5785 1.0833 12.2833 0.896751C11.9881 0.710205 11.6391 0.627409 11.2915 0.661456Z" fill="white"/>
</svg>
