<svg width="657" height="122" viewBox="0 0 657 122" fill="none" xmlns="http://www.w3.org/2000/svg">
<path fill-rule="evenodd" clip-rule="evenodd" d="M282.782 48.6348C286.176 48.6348 289.525 48.994 292.829 49.7119C296.133 50.4299 299.08 51.5966 301.67 53.2119C304.349 54.8272 306.492 56.9357 308.1 59.5381C309.707 62.0509 310.511 65.1477 310.511 68.8271V104.635C310.511 106.519 310.734 107.865 311.181 108.673C311.716 109.48 312.698 109.885 314.127 109.885H315.734C316.359 109.885 317.074 109.795 317.878 109.615V120.25C317.342 120.429 316.627 120.609 315.734 120.788C314.931 121.057 314.082 121.282 313.189 121.462C312.297 121.641 311.404 121.775 310.511 121.865C309.618 121.955 308.858 122 308.233 122C305.108 122 302.518 121.372 300.464 120.115C298.41 118.859 297.07 116.66 296.445 113.52C293.409 116.481 289.658 118.634 285.193 119.98C280.818 121.327 276.576 122 272.468 122C269.342 122 266.351 121.552 263.493 120.654C260.636 119.847 258.091 118.635 255.858 117.02C253.715 115.314 251.973 113.205 250.634 110.692C249.384 108.09 248.759 105.083 248.759 101.673C248.759 97.3653 249.518 93.8651 251.036 91.1729C252.644 88.4807 254.697 86.3713 257.197 84.8457C259.787 83.3201 262.645 82.2434 265.771 81.6152C268.985 80.8973 272.2 80.359 275.415 80C278.183 79.4615 280.818 79.1023 283.318 78.9229C285.819 78.6536 288.007 78.2503 289.882 77.7119C291.846 77.1735 293.365 76.365 294.437 75.2881C295.597 74.1214 296.178 72.4162 296.178 70.1729C296.178 68.1987 295.686 66.5835 294.704 65.3271C293.811 64.0708 292.65 63.1282 291.222 62.5C289.882 61.7821 288.364 61.3338 286.667 61.1543C284.97 60.8851 283.363 60.75 281.845 60.75C277.558 60.75 274.031 61.6476 271.263 63.4424C268.494 65.2372 266.931 68.0191 266.574 71.7881H251.304C251.572 67.3011 252.643 63.5767 254.519 60.6152C256.394 57.6538 258.761 55.2753 261.618 53.4805C264.565 51.6857 267.869 50.4298 271.53 49.7119C275.192 48.994 278.942 48.6348 282.782 48.6348ZM295.24 85.25C292.918 86.7756 290.06 87.7182 286.667 88.0771C283.274 88.3464 279.88 88.7946 276.486 89.4229C274.879 89.6921 273.316 90.0963 271.798 90.6348C270.28 91.0835 268.94 91.757 267.779 92.6543C266.619 93.462 265.681 94.5838 264.967 96.0195C264.342 97.3656 264.029 99.0257 264.029 101C264.029 102.705 264.521 104.141 265.503 105.308C266.485 106.474 267.646 107.417 268.985 108.135C270.414 108.763 271.933 109.211 273.54 109.48C275.237 109.75 276.754 109.885 278.094 109.885C279.79 109.885 281.621 109.661 283.586 109.212C285.551 108.763 287.381 108 289.078 106.923C290.864 105.846 292.338 104.5 293.499 102.885C294.66 101.18 295.24 99.1154 295.24 96.6924V85.25Z" fill="white"/>
<path fill-rule="evenodd" clip-rule="evenodd" d="M469.69 48.6348C475.227 48.6348 480.139 49.5773 484.426 51.4619C488.801 53.2567 492.462 55.7694 495.409 59C498.445 62.2308 500.723 66.09 502.241 70.5771C503.849 75.0643 504.652 79.9552 504.652 85.25C504.652 90.6346 503.849 95.5705 502.241 100.058C500.723 104.545 498.445 108.404 495.409 111.635C492.462 114.865 488.801 117.423 484.426 119.308C480.139 121.102 475.227 122 469.69 122C464.154 122 459.198 121.102 454.822 119.308C450.536 117.423 446.874 114.866 443.838 111.635C440.891 108.404 438.614 104.545 437.007 100.058C435.489 95.5704 434.729 90.6346 434.729 85.25C434.729 79.9552 435.489 75.0643 437.007 70.5771C438.614 66.09 440.891 62.2308 443.838 59C446.874 55.7692 450.536 53.2568 454.822 51.4619C459.198 49.5774 464.154 48.6348 469.69 48.6348ZM469.69 60.75C466.297 60.75 463.35 61.4684 460.85 62.9043C458.349 64.3401 456.296 66.2245 454.688 68.5576C453.081 70.8012 451.875 73.4037 451.071 76.3652C450.357 79.3268 450 82.2885 450 85.25C450 88.3013 450.357 91.308 451.071 94.2695C451.875 97.1412 453.081 99.7439 454.688 102.077C456.296 104.41 458.349 106.295 460.85 107.73C463.35 109.166 466.297 109.885 469.69 109.885C473.084 109.885 476.031 109.166 478.531 107.73C481.032 106.295 483.086 104.41 484.693 102.077C486.301 99.7439 487.461 97.1412 488.176 94.2695C488.979 91.308 489.382 88.3013 489.382 85.25C489.382 82.2885 488.979 79.3268 488.176 76.3652C487.461 73.4038 486.301 70.8011 484.693 68.5576C483.086 66.2243 481.032 64.3402 478.531 62.9043C476.031 61.4684 473.084 60.75 469.69 60.75Z" fill="white"/>
<path fill-rule="evenodd" clip-rule="evenodd" d="M579.903 120.115H565.437V110.692H565.168C563.114 114.731 560.123 117.648 556.193 119.442C552.264 121.147 548.112 122 543.736 122C538.289 122 533.511 121.057 529.403 119.173C525.385 117.198 522.035 114.551 519.356 111.23C516.678 107.91 514.669 104.006 513.329 99.5195C511.99 94.9426 511.319 90.0508 511.319 84.8457C511.319 78.5639 512.168 73.1344 513.864 68.5576C515.561 63.9807 517.794 60.2115 520.562 57.25C523.42 54.2885 526.635 52.1342 530.207 50.7881C533.868 49.3523 537.575 48.6348 541.325 48.6348C543.468 48.6348 545.656 48.8589 547.889 49.3076C550.121 49.6666 552.264 50.295 554.318 51.1924C556.372 52.0898 558.248 53.2565 559.944 54.6924C561.73 56.0384 563.203 57.6537 564.364 59.5381H564.633V24H579.903V120.115ZM546.014 60.75C542.442 60.75 539.405 61.5125 536.904 63.0381C534.493 64.474 532.484 66.4041 530.877 68.8271C529.359 71.1605 528.242 73.853 527.527 76.9043C526.902 79.8656 526.59 82.9168 526.59 86.0576C526.59 89.0192 526.948 91.9358 527.662 94.8076C528.466 97.6793 529.626 100.237 531.145 102.48C532.752 104.724 534.761 106.519 537.172 107.865C539.583 109.211 542.441 109.885 545.745 109.885C549.139 109.885 552.041 109.166 554.452 107.73C556.953 106.295 558.962 104.41 560.48 102.077C562.088 99.7439 563.248 97.1412 563.963 94.2695C564.767 91.308 565.168 88.3013 565.168 85.25C565.168 77.5322 563.427 71.5196 559.944 67.2119C556.551 62.9043 551.907 60.7501 546.014 60.75Z" fill="white"/>
<path fill-rule="evenodd" clip-rule="evenodd" d="M624.018 48.6348C629.465 48.6348 634.332 49.8015 638.618 52.1348C642.994 54.3783 646.61 57.3851 649.468 61.1543C652.325 64.9235 654.38 69.276 655.63 74.2119C656.969 79.0578 657.327 84.0832 656.702 89.2881H605.8C605.8 91.9802 606.157 94.583 606.871 97.0957C607.675 99.6085 608.836 101.808 610.354 103.692C611.873 105.577 613.792 107.103 616.114 108.27C618.436 109.346 621.204 109.885 624.419 109.885C628.884 109.885 632.457 108.942 635.136 107.058C637.904 105.083 639.957 102.166 641.297 98.3076H655.764C654.96 102.077 653.576 105.443 651.611 108.404C649.647 111.366 647.28 113.878 644.512 115.942C641.744 117.917 638.618 119.398 635.136 120.385C631.742 121.462 628.17 122 624.419 122C618.972 122 614.149 121.102 609.952 119.308C605.755 117.513 602.183 115 599.236 111.77C596.379 108.539 594.191 104.679 592.673 100.192C591.244 95.7052 590.529 90.7693 590.529 85.3848C590.529 80.4489 591.289 75.7822 592.807 71.3848C594.414 66.8976 596.646 62.9934 599.504 59.6729C602.451 56.2626 605.978 53.57 610.086 51.5957C614.194 49.6213 618.838 48.6348 624.018 48.6348ZM624.018 60.75C621.339 60.75 618.883 61.2434 616.65 62.2305C614.507 63.1279 612.632 64.4297 611.024 66.1348C609.506 67.7501 608.256 69.6794 607.273 71.9229C606.38 74.1664 605.889 76.5898 605.8 79.1924H641.431C641.252 76.7693 640.716 74.436 639.823 72.1924C639.02 69.9489 637.859 68.0196 636.341 66.4043C634.912 64.6992 633.126 63.3524 630.982 62.3652C628.929 61.2885 626.607 60.75 624.018 60.75Z" fill="white"/>
<path d="M152.744 67.75L195.341 24H215.97L177.793 62.3652L218.648 120.115H197.752L166.407 74.2119L152.744 87.8076V120.115H136V24H152.744V67.75Z" fill="white"/>
<path d="M238.55 120.115H223.279V24H238.55V120.115Z" fill="white"/>
<path d="M359.09 48.6348C360.876 48.6348 362.082 48.6798 362.707 48.7695C363.421 48.8592 364.135 48.9484 364.85 49.0381V63.8457C363.778 63.6663 362.662 63.5321 361.501 63.4424C360.429 63.2629 359.358 63.1729 358.286 63.1729C355.697 63.1729 353.241 63.7112 350.919 64.7881C348.686 65.7752 346.722 67.3012 345.025 69.3652C343.329 71.3396 341.989 73.808 341.007 76.7695C340.025 79.731 339.533 83.1411 339.533 87V120.115H324.263V50.5195H338.596V63.9805H338.863C339.31 62.0961 340.158 60.2566 341.408 58.4619C342.748 56.667 344.311 55.0511 346.097 53.6152C347.972 52.0896 350.026 50.8779 352.259 49.9805C354.491 49.0831 356.768 48.6348 359.09 48.6348Z" fill="white"/>
<path d="M384.349 78.6543L411.942 50.5195H430.696L404.174 76.0957L433.241 120.115H414.622L393.457 86.3271L384.349 95.2119V120.115H369.078V24H384.349V78.6543Z" fill="white"/>
<path d="M22.7793 23.9189H96V46.6211H53.4414L92.5723 119.968L92.5117 120H66.79L27.6416 46.6211H22.7793V119.999H0V0H22.7793V23.9189Z" fill="white"/>
</svg>
