<svg width="326" height="64" viewBox="0 0 326 64" fill="none" xmlns="http://www.w3.org/2000/svg">
<g clip-path="url(#clip0_4915_21625)">
<mask id="mask0_4915_21625" style="mask-type:luminance" maskUnits="userSpaceOnUse" x="0" y="0" width="64" height="64">
<path d="M0 0H64V64H0V0Z" fill="white"/>
</mask>
<g mask="url(#mask0_4915_21625)">
<path fill-rule="evenodd" clip-rule="evenodd" d="M16.19 0H47.798C56.74 0 63.99 7.249 63.99 16.19V47.798C63.99 56.74 56.741 63.989 47.8 63.989H16.19C7.249 63.989 0 56.74 0 47.799V16.19C0 7.249 7.249 0 16.19 0ZM30.258 28.508C33.54 22.191 37.622 14.332 48.633 14.332C49.1533 14.3323 49.6655 14.4608 50.1244 14.7061C50.5833 14.9514 50.9747 15.3059 51.264 15.7384C51.5533 16.1709 51.7317 16.6679 51.7833 17.1857C51.8349 17.7034 51.7582 18.2259 51.56 18.707C51.3202 19.2856 50.914 19.78 50.3929 20.1275C49.8719 20.475 49.2593 20.66 48.633 20.659C41.946 20.659 39.35 24.732 35.87 31.432L33.73 35.474L33.727 35.481C30.446 41.797 26.363 49.657 15.347 49.657C14.8272 49.6558 14.3157 49.5267 13.8577 49.2811C13.3996 49.0355 13.0089 48.681 12.7202 48.2488C12.4315 47.8166 12.2535 47.32 12.202 46.8028C12.1506 46.2856 12.2271 45.7636 12.425 45.283C12.6644 44.7051 13.0698 44.2111 13.5899 43.8635C14.11 43.5159 14.7214 43.3302 15.347 43.33C22.039 43.33 24.636 39.257 28.111 32.557L30.255 28.514L30.258 28.508Z" fill="white"/>
</g>
<path d="M253.868 22.5498H246.099V49.8578H253.868V22.5498ZM253.868 13.5498H246.099V19.5888H253.868V13.5498ZM84.4286 13.5498H76.3086V49.8568H101.106V42.8968H84.4286V13.5498ZM117.155 20.2808C108.511 20.2808 101.669 26.9508 101.669 35.3578C101.669 43.7648 108.511 50.4528 117.155 50.4528C125.799 50.4528 132.698 43.7828 132.698 35.3718C132.698 26.9608 125.851 20.2808 117.155 20.2808ZM117.155 43.2458C112.804 43.2458 109.557 39.9418 109.557 35.3358C109.557 30.7308 112.804 27.4528 117.155 27.4528C121.505 27.4528 124.753 30.8148 124.753 35.3358C124.753 39.8578 121.505 43.2458 117.155 43.2458ZM165.282 43.7098C163.889 43.7098 162.672 42.8958 162.672 40.4038V28.8078H170.08V22.5498H162.672V14.6798H154.902V22.5498H144.698V14.6798H136.929V22.5498H132.697V28.8078H136.929V40.5178C136.929 47.0708 140.062 50.4368 145.859 50.4368C148.476 50.4419 151.037 49.6779 153.224 48.2398L151.026 42.4998C149.926 43.2438 148.64 43.6657 147.313 43.7178C145.92 43.7178 144.703 42.9048 144.703 40.4128V28.8078H154.907V40.5178C154.907 47.0708 158.035 50.4368 163.836 50.4368C166.453 50.4408 169.014 49.6768 171.201 48.2398L169.004 42.4998C167.901 43.2436 166.611 43.6628 165.282 43.7098ZM214.403 33.3088C213.217 25.1568 206.111 19.3918 198.302 20.5298C196.338 20.7976 194.447 21.4549 192.741 22.4633C191.034 23.4716 189.546 24.8107 188.365 26.4018C187.182 27.9929 186.33 29.8041 185.857 31.729C185.384 33.654 185.3 35.654 185.611 37.6118C186.987 47.0808 195.129 51.4668 203.505 50.2448C207.298 49.7117 210.851 48.0752 213.722 45.5388L210.048 40.4458C207.951 42.2583 205.375 43.4271 202.631 43.8118C198.843 44.3608 195.296 42.9318 193.802 39.1178L214.632 36.0858C214.607 35.1566 214.53 34.2295 214.403 33.3088ZM192.941 34.0248C193.161 30.3028 195.683 27.4728 199.01 26.9948C200.7 26.7316 202.428 27.0937 203.87 28.0134C205.313 28.9332 206.37 30.3473 206.845 31.9908L192.941 34.0248ZM298.745 33.3088C297.558 25.1568 290.448 19.3918 282.644 20.5298C279.685 20.9332 276.917 22.2167 274.697 24.2136C272.478 26.2105 270.91 28.8285 270.198 31.7278C269.725 33.6529 269.641 35.6531 269.953 37.6108C271.328 47.0808 279.467 51.4668 287.847 50.2448C291.638 49.7116 295.19 48.075 298.059 45.5388L294.39 40.4458C292.291 42.2584 289.714 43.4271 286.968 43.8118C283.18 44.3608 279.634 42.9318 278.14 39.1178L298.973 36.0858C298.946 35.1568 298.87 34.2298 298.745 33.3088ZM277.283 34.0248C277.502 30.3028 280.02 27.4728 283.351 26.9948C285.039 26.7309 286.765 27.0931 288.205 28.0132C289.645 28.9333 290.699 30.3479 291.169 31.9908L277.283 34.0248ZM266.626 13.5498H258.856V49.8528H266.626V13.5498ZM314.833 31.7038C312.165 31.1238 309.731 30.6008 309.731 28.9798C309.731 27.7628 311.414 26.9498 313.211 26.9498C316.018 26.9938 318.777 27.6898 321.27 28.9798L323.881 23.1798C320.638 21.1961 316.892 20.1889 313.092 20.2788C307.643 20.2788 301.843 23.4118 301.843 29.3268C301.843 34.8948 306.54 36.7968 312.284 38.3138C314.775 39.0118 317.272 39.4168 317.272 41.1568C317.272 42.8968 314.314 43.5908 312.512 43.5908C309.23 43.6546 306.03 42.5662 303.469 40.5148L300.683 46.4958C302.309 48.0028 306.307 50.4508 312.512 50.4508C317.909 50.4508 325.155 48.0738 325.155 40.9368C325.155 35.0088 319.781 32.8728 314.833 31.7038ZM182.096 22.5498H174.326V49.8578H182.096V22.5498ZM182.096 13.5498H174.326V19.5888H182.096V13.5498ZM217.712 49.8568H225.815V35.0218H239.557V28.1358H225.815V20.4978H242.51V13.5508H217.712V49.8568Z" fill="white"/>
</g>
<defs>
<clipPath id="clip0_4915_21625">
<rect width="326" height="64" fill="white"/>
</clipPath>
</defs>
</svg>
