<svg width="317" height="66" viewBox="0 0 317 66" fill="none" xmlns="http://www.w3.org/2000/svg">
<path d="M0.50293 27.7432C3.64575 10.0697 20.643 -1.73152 38.4668 1.38477C56.2905 4.50111 68.1916 21.3547 65.0488 39.0283C61.9061 56.7019 44.9097 68.5029 27.0859 65.3867C23.8757 64.8254 20.8587 63.8156 18.0859 62.4385L19.9219 52.0908C17.2533 48.946 15.9652 45.2057 15.3457 42.4531C15.2169 41.8801 15.9982 41.6811 16.2783 42.1973C17.3665 44.2057 18.8226 46.0097 20.583 47.5107L20.7148 47.625L20.7207 47.5957C22.9201 49.4321 25.5165 50.7425 28.3086 51.4238C31.1003 52.105 34.0129 52.1398 36.8203 51.5254C39.628 50.9108 42.2557 49.6633 44.499 47.8799C46.7424 46.0965 48.5414 43.8242 49.7568 41.2402C50.9722 38.6564 51.5714 35.8298 51.5078 32.9795C51.4441 30.1292 50.72 27.3316 49.3906 24.8037C48.0611 22.2758 46.1625 20.0846 43.8418 18.4014C41.5212 16.7181 38.8403 15.5873 36.0078 15.0967L36.0312 15.1016C31.1405 14.2473 26.1081 15.3544 22.04 18.1787C17.9723 21.0029 15.2023 25.3131 14.3389 30.1621L9.65625 56.415C2.33001 49.1707 -1.42995 38.613 0.50293 27.7432ZM32.5762 24.1035C34.4277 24.0637 36.2497 24.5688 37.8115 25.5557C39.3735 26.5426 40.605 27.9673 41.3506 29.6484C42.0962 31.3294 42.3227 33.1915 42.001 35C41.5694 37.425 40.1839 39.5809 38.1494 40.9932C36.115 42.4054 33.598 42.959 31.1523 42.5312C29.3285 42.2122 27.6406 41.3638 26.3027 40.0938C24.9649 38.8237 24.0375 37.1885 23.6367 35.3955C23.236 33.6026 23.3804 31.7321 24.0518 30.0205C24.7232 28.3089 25.8918 26.8326 27.4092 25.7793C28.9263 24.7263 30.7247 24.1434 32.5762 24.1035Z" fill="white"/>
<path d="M311.098 52.7966V15.7466H317.002V52.7966H311.098Z" fill="white"/>
<path d="M288.967 53.3329C282.964 53.3329 278.93 50.7979 278.93 45.8741C278.93 39.0979 286.556 37.2454 296.446 37.2454H298.61V35.4416C298.61 32.9066 296.298 31.2004 292.509 31.2004C288.426 31.2004 286.408 33.1016 286.064 35.2954H280.16C280.553 30.1766 284.49 26.4229 292.559 26.4229C300.333 26.4229 304.515 29.7379 304.515 35.9291V46.1179C304.515 48.0191 305.105 48.5554 307.024 48.5554V52.7966H303.432C300.923 52.7966 299.299 51.4804 298.955 49.8229C297.38 51.8216 293.69 53.3329 288.967 53.3329ZM285.031 45.3379C285.031 47.7266 287.048 48.9454 290.541 48.9454C295.117 48.9454 298.61 46.7029 298.61 43.7291V40.9991H296.249C288.327 40.9991 285.031 42.4129 285.031 45.3379Z" fill="white"/>
<path d="M274.813 27.2026V52.7964H268.909V50.0664C266.744 52.6501 263.497 53.5764 260.25 53.5764C253.853 53.5764 249.77 49.7739 249.77 43.5826V27.2026H255.674V42.4126C255.674 46.4101 258.183 48.6039 261.824 48.6039C265.613 48.6039 268.515 46.2639 268.909 42.2176V27.2026H274.813Z" fill="white"/>
<path d="M241.288 52.9916C234.843 52.9916 232.284 50.4566 232.284 45.5328V32.0778H227.266V27.2028C232.087 27.2028 232.629 26.3253 232.629 23.2053V20.6216H238.188V27.2028H245.766V32.0778H238.188V44.3141C238.188 46.8978 239.468 47.7753 242.469 47.7753C243.65 47.7753 244.978 47.7266 245.766 47.6778V52.7966C244.486 52.9428 242.715 52.9916 241.288 52.9916Z" fill="white"/>
<path d="M212.252 53.5766C203.199 53.5766 198.328 47.8729 198.328 39.9754C198.328 31.8829 203.593 26.4229 212.105 26.4229C220.223 26.4229 225.783 31.3954 225.783 39.3416V41.7791H204.232C204.823 46.1179 207.48 48.7504 212.252 48.7504C215.992 48.7504 218.501 47.2391 219.485 45.1429H225.783C225.291 48.8966 220.42 53.5766 212.252 53.5766ZM204.331 37.6841H219.78C219.731 34.1741 216.828 31.2979 212.154 31.2979C208.267 31.2979 205.118 33.2478 204.331 37.6841Z" fill="white"/>
<path d="M167.789 64.4965V27.2028H173.693V30.0303C175.809 27.4465 179.253 26.374 182.697 26.374C190.57 26.374 195.588 31.8828 195.588 39.9753C195.588 48.0678 190.471 53.5765 182.697 53.5765C178.958 53.5765 175.514 52.2603 173.693 50.1153V64.4965H167.789ZM181.467 48.5065C186.584 48.5065 189.438 45.0453 189.438 39.9753C189.438 34.9053 186.535 31.444 181.467 31.444C176.596 31.444 173.693 34.5153 173.693 40.024C173.693 45.5328 176.695 48.5065 181.467 48.5065Z" fill="white"/>
<path d="M147.914 52.7963V27.2026H153.572V31.7363C156.18 27.7876 159.723 26.5688 164.348 26.5688V32.2726H163.117C157.558 32.2726 153.818 35.4413 153.818 41.0963V52.7963H147.914Z" fill="white"/>
<path d="M130.014 53.5766C120.961 53.5766 116.09 47.8729 116.09 39.9754C116.09 31.8829 121.354 26.4229 129.866 26.4229C137.985 26.4229 143.545 31.3954 143.545 39.3416V41.7791H121.994C122.584 46.1179 125.241 48.7504 130.014 48.7504C133.753 48.7504 136.263 47.2391 137.247 45.1429H143.545C143.052 48.8966 138.182 53.5766 130.014 53.5766ZM122.092 37.6841H137.542C137.493 34.1741 134.59 31.2979 129.916 31.2979C126.029 31.2979 122.88 33.2478 122.092 37.6841Z" fill="white"/>
<path d="M86.4336 52.7966V15.7466H102.916C110.592 15.7466 115.463 19.5003 115.463 26.5691C115.463 33.3941 110.592 37.2453 102.621 37.2453H92.6822V52.7966H86.4336ZM92.6822 31.7366H101.981C106.311 31.7366 109.017 30.0303 109.017 26.5203C109.017 23.1566 106.459 21.3041 101.981 21.3041H92.6822V31.7366Z" fill="white"/>
</svg>
