<svg xmlns="http://www.w3.org/2000/svg" viewBox="0 0 130 22"><defs><style>.a{fill:#fff;}</style></defs><path class="a" d="M4.94,14.46,2.83,20.4c-.06.1-.08.13-.22.13H1.14c-.13,0-.16-.05-.13-.19L7.06,3.63a2.41,2.41,0,0,0,.16-.95.13.13,0,0,1,.14-.13H9.53c.11,0,.13,0,.16.1l6.43,17.69c0,.14,0,.19-.11.19H14.36a.19.19,0,0,1-.19-.13L12,14.46Zm6.57-1.69C10.91,11,9,5.83,8.5,4h0C8,5.75,6.6,9.55,5.46,12.77Z"/><path class="a" d="M16.12,14.07c0-4,3-6.88,7.24-6.88a7.47,7.47,0,0,1,2,.19V1.16c0-.11.05-.16.13-.16H27c.13,0,.13.05.13.16V18.55c0,.3,0,.68.06,1.09,0,.1,0,.13-.11.19a9.77,9.77,0,0,1-4.34,1C19,20.8,16.12,18.52,16.12,14.07Zm9.2-5a5.51,5.51,0,0,0-2-.29A5,5,0,0,0,18,14c0,3.77,2.41,5.19,4.91,5.19a6.55,6.55,0,0,0,2.42-.41Z"/><path class="a" d="M41.35,14c0,4.07-2.47,6.83-6.05,6.83-4.26,0-6.11-3.55-6.11-6.81,0-3.85,2.44-6.8,6.11-6.8S41.35,10,41.35,14ZM31,13.94c0,2.88,1.54,5.26,4.34,5.26,2,0,4.12-1.57,4.12-5.18,0-2.66-1.25-5.23-4.28-5.23C32.72,8.79,31,10.87,31,13.94Z"/><path class="a" d="M45.14,1c.11,0,.17,0,.17.16V7.78a7.72,7.72,0,0,1,3.12-.59c3.68,0,6.1,2.63,6.1,6.29a7.06,7.06,0,0,1-7.35,7.32,10.56,10.56,0,0,1-3.56-.54.22.22,0,0,1-.13-.22V1.16c0-.11,0-.16.13-.16Zm3,7.79a6.73,6.73,0,0,0-2.84.54V19a7.06,7.06,0,0,0,2,.24,5.2,5.2,0,0,0,5.35-5.56C52.66,10.77,51,8.79,48.15,8.79Z"/><path class="a" d="M57.51,14.05c-.08,2.87,1.52,5.1,4.72,5.1a7.35,7.35,0,0,0,3.39-.73c.08-.06.14,0,.14.1v1.25a.2.2,0,0,1-.14.22,7.37,7.37,0,0,1-3.71.81c-4.59,0-6.24-3.42-6.24-6.7,0-3.82,2.19-6.91,5.83-6.91a5,5,0,0,1,5.15,5.31,6.07,6.07,0,0,1-.08,1.28c0,.1-.08.16-.19.19-.4,0-1.65.08-2.79.08ZM63,12.64a11.3,11.3,0,0,0,1.87-.06c0-.08,0-.24,0-.32a3.42,3.42,0,0,0-3.47-3.53c-2.42,0-3.64,1.9-3.91,3.91Z"/><path class="a" d="M76.28,20.37a.14.14,0,0,1-.16.16H74.57c-.11,0-.14-.05-.14-.16V2.71c0-.11,0-.16.17-.16h9.71c.11,0,.16.05.19.16l.16,1.36c0,.13,0,.16-.13.16H76.28v6.54h7.35c.11,0,.14.05.14.16v1.35a.15.15,0,0,1-.17.17H76.28Z"/><path class="a" d="M97.84,14c0,4.07-2.46,6.83-6,6.83-4.25,0-6.1-3.55-6.1-6.81,0-3.85,2.44-6.8,6.1-6.8S97.84,10,97.84,14Zm-10.3,0c0,2.88,1.54,5.26,4.34,5.26,2,0,4.12-1.57,4.12-5.18,0-2.66-1.25-5.23-4.29-5.23C89.22,8.79,87.54,10.87,87.54,13.94Z"/><path class="a" d="M100.35,10.49c0-.94-.08-2.49-.1-2.9,0-.11,0-.16.16-.16h1.33c.13,0,.19.05.21.16a10.3,10.3,0,0,1,.14,1.47,5.8,5.8,0,0,1,4.26-1.87c1.87,0,4.37.86,4.37,5.15v8c0,.11-.06.16-.19.16h-1.47c-.13,0-.19-.05-.19-.19V12.5c0-2.14-1-3.69-3-3.69a4.66,4.66,0,0,0-3.72,1.9v9.66c0,.11,0,.16-.16.16h-1.49c-.14,0-.17-.05-.17-.16Z"/><path class="a" d="M119.4,20.18c0,.11,0,.19-.11.22a4.52,4.52,0,0,1-2,.4c-1.87,0-3-.89-3-3.44V9H112.4c-.13,0-.16-.08-.16-.19V7.59c0-.11,0-.16.16-.16h1.93a32,32,0,0,1,.24-3.53c0-.11.06-.16.14-.19l1.49-.24c.08,0,.16,0,.16.08-.1,1-.19,2.55-.19,3.88h3c.14,0,.16.05.16.19V8.89c0,.11-.05.14-.16.14h-3v8.16c0,1.28.49,2,1.71,2a3.35,3.35,0,0,0,1.39-.27c.08,0,.13,0,.13.11Z"/><path class="a" d="M125.17,8.73c-1.92,0-2.6,1-2.6,1.87s.52,1.58,2.71,2.44c2.58,1,3.72,2.07,3.72,4,0,2.44-2.06,3.74-4.64,3.74a7.41,7.41,0,0,1-3.55-.78c-.08-.09-.14-.11-.14-.25V18.28c0-.14.08-.16.16-.11a6.33,6.33,0,0,0,3.58,1.06c1.85,0,2.8-.87,2.8-2s-.68-1.76-2.63-2.57c-2.58-1-3.75-2.07-3.75-3.94s1.6-3.52,4.4-3.52a6.84,6.84,0,0,1,3.06.57.25.25,0,0,1,.11.24V9.38c0,.14-.05.19-.16.11A6.25,6.25,0,0,0,125.17,8.73Z"/></svg>
