<svg width="16" height="16" viewBox="0 0 16 16" fill="none" xmlns="http://www.w3.org/2000/svg">
<path d="M7.16668 2.66602C6.71225 2.66602 6.33334 3.04492 6.33334 3.49935V3.66602H2.5534C2.36069 3.25846 1.95053 2.99935 1.50001 2.99935C0.855479 2.99935 0.333344 3.52148 0.333344 4.16602C0.333344 4.81055 0.855479 5.33268 1.50001 5.33268C1.95053 5.33268 2.35939 5.07227 2.55209 4.66602H4.68751C3.15626 5.68425 2.1211 7.38607 2.01433 9.33268H1.83334C1.37892 9.33268 1.00001 9.71159 1.00001 10.166V11.4993C1.00001 11.9538 1.37892 12.3327 1.83334 12.3327H3.16668C3.6211 12.3327 4.00001 11.9538 4.00001 11.4993V10.166C4.00001 9.71159 3.6211 9.33268 3.16668 9.33268H3.01433C3.14845 7.29883 4.4922 5.60352 6.33334 4.95247V5.16602C6.33334 5.62044 6.71225 5.99935 7.16668 5.99935H8.83334C9.28777 5.99935 9.66668 5.62044 9.66668 5.16602V4.95508C11.5065 5.60612 12.8516 7.29883 12.9857 9.33268H12.8333C12.3789 9.33268 12 9.71159 12 10.166V11.4993C12 11.9538 12.3789 12.3327 12.8333 12.3327H14.1667C14.6211 12.3327 15 11.9538 15 11.4993V10.166C15 9.71159 14.6211 9.33268 14.1667 9.33268H13.9896C13.8815 7.37956 12.8281 5.68294 11.2865 4.66602H13.4466C13.6393 5.07357 14.0495 5.33268 14.5 5.33268C15.1445 5.33268 15.6667 4.81055 15.6667 4.16602C15.6667 3.52148 15.1445 2.99935 14.5 2.99935C14.0495 2.99935 13.6406 3.25977 13.4479 3.66602H9.66668V3.49935C9.66668 3.04492 9.28777 2.66602 8.83334 2.66602H7.16668ZM7.33334 3.66602H8.66668V4.08919C8.65886 4.13997 8.65886 4.19206 8.66668 4.24284V4.99935H7.33334V4.24805C7.34246 4.19466 7.34246 4.13997 7.33334 4.08659V3.66602ZM7.9922 6.67643C7.91147 6.67773 7.83334 6.69857 7.76303 6.73763C7.48308 6.79622 7.21746 6.92904 7.0534 7.19596L5.28386 10.084C4.91537 10.6842 4.90626 11.4395 5.25652 12.0488L6.04298 13.416C6.13282 13.571 6.29819 13.666 6.47787 13.666H9.52345C9.70183 13.666 9.8672 13.5697 9.95704 13.416L10.7435 12.0488C11.0938 11.4395 11.0846 10.6842 10.7175 10.084V10.0827L8.94662 7.19596C8.78256 6.92904 8.51694 6.79622 8.23699 6.73763C8.16147 6.69596 8.07814 6.67513 7.9922 6.67643ZM7.50001 8.38086V11.166C7.49741 11.3457 7.59246 11.5137 7.74741 11.6048C7.90366 11.696 8.09636 11.696 8.25261 11.6048C8.40756 11.5137 8.50261 11.3457 8.50001 11.166V8.38086L9.86459 10.6061C10.0417 10.8952 10.0456 11.2559 9.87631 11.5501L9.23439 12.666H6.76564L6.12371 11.5501C5.95444 11.2559 5.95834 10.8952 6.13543 10.6074C6.13673 10.6061 6.13673 10.6061 6.13543 10.6061L7.50001 8.38086ZM2.00001 10.3327H3.00001V11.3327H2.00001V10.3327ZM13 10.3327H14V11.3327H13V10.3327Z" fill="black" fill-opacity="0.9" style="fill:black;fill:black;fill-opacity:0.9;"/>
</svg>
