<svg width="16" height="16" viewBox="0 0 16 16" fill="none" xmlns="http://www.w3.org/2000/svg">
<path d="M12 1.66992C11.4024 1.66992 10.8034 1.89779 10.3503 2.35091L7.71876 4.98112L5.46746 2.47721C5.46615 2.47721 5.46615 2.47591 5.46615 2.47591C5.04949 2.01628 4.47917 1.77669 3.90235 1.76237C3.32683 1.74805 2.7448 1.95898 2.306 2.39648C1.42839 3.27409 1.46485 4.72461 2.38412 5.55664L2.38542 5.55794L8.72266 11.3991C8.73438 12.028 8.92709 12.6569 9.40495 13.1361C9.70834 13.4395 10.1146 13.6257 10.5846 13.8132C11.056 13.9993 11.5885 14.1647 12.0938 14.304C13.1029 14.584 14.0065 14.7611 14.0065 14.7611C14.1706 14.7936 14.3399 14.7428 14.457 14.6243C14.5755 14.5072 14.6263 14.3379 14.5938 14.1738C14.5938 14.1738 14.4167 13.2702 14.1367 12.2611C13.9974 11.7559 13.832 11.2233 13.6458 10.752C13.4583 10.2819 13.2721 9.87565 12.9688 9.57227C12.4909 9.0944 11.862 8.90169 11.2344 8.88997L10.8438 8.45508L13.6497 5.65039C14.5573 4.74284 14.5573 3.25846 13.6497 2.35091C13.1966 1.89779 12.5977 1.66992 12 1.66992ZM12 2.66471C12.3399 2.66471 12.6797 2.79622 12.9427 3.05794C13.4675 3.58268 13.4675 4.41862 12.9427 4.94336L12.2969 5.58919L10.4115 3.70378L11.0573 3.05794C11.319 2.79622 11.6602 2.66471 12 2.66471ZM3.87761 2.75456C4.18751 2.76237 4.4961 2.89388 4.72397 3.14648L8.47527 7.31836L7.17709 8.61523L3.0599 4.81836C3.0586 4.81836 3.0573 4.81706 3.056 4.81576C2.54949 4.35742 2.52996 3.58659 3.01303 3.10482C3.25391 2.86263 3.56772 2.74674 3.87761 2.75456ZM9.70313 4.41211L11.5885 6.29753L10.1758 7.71029L9.59897 7.07227C9.56641 7.01628 9.52344 6.9681 9.47266 6.92904L8.38933 5.72591L9.70313 4.41211ZM9.14584 8.06315L10.2721 9.31576L9.15235 10.4368L7.91277 9.29362L9.14584 8.06315ZM4.39063 8.31055L2.97397 9.72721C2.83334 9.86784 2.72917 10.0436 2.67709 10.2337L1.68751 13.6973C1.63673 13.8704 1.6836 14.0605 1.81251 14.1882C1.90626 14.2845 2.03647 14.334 2.16667 14.334C2.21355 14.334 2.26042 14.3275 2.30339 14.3132L5.76693 13.3236C5.95704 13.2715 6.13282 13.1673 6.27344 13.0267L7.82292 11.4772L7.08725 10.8014L5.56641 12.321C5.54298 12.3405 5.51954 12.3574 5.4935 12.3639L2.89324 13.1074L3.63673 10.5072C3.64324 10.4811 3.66016 10.4577 3.67969 10.4342L5.12371 8.99023L4.39063 8.31055ZM11.1432 9.86003C11.5469 9.84831 11.9518 9.9707 12.2604 10.2793C12.3516 10.3691 12.5495 10.7038 12.7149 11.1217C12.8815 11.5397 13.0391 12.0449 13.1732 12.528C13.3281 13.0892 13.3529 13.2493 13.4284 13.5957C13.082 13.5202 12.9219 13.4954 12.3607 13.3405C11.8776 13.2064 11.3724 13.0488 10.9544 12.8822C10.5378 12.7168 10.2031 12.5189 10.112 12.4277C9.80339 12.1191 9.681 11.7142 9.69272 11.3105L11.1432 9.86003Z" fill="black" fill-opacity="0.9" style="fill:black;fill:black;fill-opacity:0.9;"/>
</svg>
