<svg width="16" height="16" viewBox="0 0 16 16" fill="none" xmlns="http://www.w3.org/2000/svg">
<path d="M11.7344 2C11.6367 2 11.5391 2.01172 11.4414 2.03125L6.1875 3.15625C5.49609 3.30469 5 3.92188 5 4.625V10.2812C4.70312 10.1094 4.36719 10 4 10C2.90234 10 2 10.9023 2 12C2 13.0977 2.90234 14 4 14C5.09766 14 6 13.0977 6 12V6.40625L12 5.11719V9.28125C11.7031 9.10938 11.3672 9 11 9C9.90234 9 9 9.90234 9 11C9 12.0977 9.90234 13 11 13C12.0977 13 13 12.0977 13 11V3.29297C13 2.89062 12.8281 2.51172 12.5352 2.27344C12.3125 2.09766 12.0312 2 11.7344 2ZM11.8086 3.00781C11.8516 3.01562 11.8789 3.03125 11.9062 3.05469C11.957 3.09375 12 3.16016 12 3.29297V4.09375L6 5.38281V4.625C6 4.38672 6.16016 4.1875 6.39453 4.13672L11.6523 3.00781C11.7148 2.99609 11.7656 2.99609 11.8086 3.00781ZM11 10C11.5586 10 12 10.4414 12 11C12 11.5586 11.5586 12 11 12C10.4414 12 10 11.5586 10 11C10 10.4414 10.4414 10 11 10ZM4 11C4.55859 11 5 11.4414 5 12C5 12.5586 4.55859 13 4 13C3.44141 13 3 12.5586 3 12C3 11.4414 3.44141 11 4 11Z" fill="black" fill-opacity="0.9" style="fill:black;fill:black;fill-opacity:0.9;"/>
</svg>
