<svg width="16" height="16" viewBox="0 0 16 16" fill="none" xmlns="http://www.w3.org/2000/svg">
<path d="M3.83333 2C2.82682 2 2 2.82682 2 3.83333V12.1667C2 13.1732 2.82682 14 3.83333 14H12.1667C13.1732 14 14 13.1732 14 12.1667V3.83333C14 2.82682 13.1732 2 12.1667 2H3.83333ZM3.83333 3H12.1667C12.6328 3 13 3.36719 13 3.83333V12.1667C13 12.6328 12.6328 13 12.1667 13H11.3333V10.5C11.3333 9.86198 10.8047 9.33333 10.1667 9.33333H5.83333C5.19531 9.33333 4.66667 9.86198 4.66667 10.5V13H3.83333C3.36719 13 3 12.6328 3 12.1667V3.83333C3 3.36719 3.36719 3 3.83333 3ZM8 4.66667C7.375 4.66667 6.84245 4.91927 6.5013 5.30339C6.16016 5.6875 6 6.18099 6 6.66667C6 7.15234 6.16016 7.64583 6.5013 8.02995C6.84245 8.41406 7.375 8.66667 8 8.66667C8.625 8.66667 9.15755 8.41406 9.4987 8.02995C9.83984 7.64583 10 7.15234 10 6.66667C10 6.18099 9.83984 5.6875 9.4987 5.30339C9.15755 4.91927 8.625 4.66667 8 4.66667ZM8 5.66667C8.375 5.66667 8.59245 5.78906 8.7513 5.96745C8.91016 6.14583 9 6.40234 9 6.66667C9 6.93099 8.91016 7.1875 8.7513 7.36589C8.59245 7.54427 8.375 7.66667 8 7.66667C7.625 7.66667 7.40755 7.54427 7.2487 7.36589C7.08984 7.1875 7 6.93099 7 6.66667C7 6.40234 7.08984 6.14583 7.2487 5.96745C7.40755 5.78906 7.625 5.66667 8 5.66667ZM5.83333 10.3333H10.1667C10.2656 10.3333 10.3333 10.401 10.3333 10.5V13H5.66667V10.5C5.66667 10.401 5.73438 10.3333 5.83333 10.3333Z" fill="black" fill-opacity="0.9" style="fill:black;fill:black;fill-opacity:0.9;"/>
</svg>
