<svg width="16" height="16" viewBox="0 0 16 16" fill="none" xmlns="http://www.w3.org/2000/svg">
<path d="M8.00002 1.33008C7.50491 1.33008 7.01014 1.44588 6.55731 1.67773L6.55601 1.67839L2.66083 3.68359C2.05138 3.99747 1.66669 4.62801 1.66669 5.3138V10.6875C1.66669 11.3731 2.05094 12.0034 2.66083 12.3171L6.55601 14.3229L6.55666 14.3236C7.46232 14.7873 8.53707 14.7873 9.44273 14.3236L9.44403 14.3229L13.3392 12.3171C13.9487 12.0032 14.3327 11.3731 14.3327 10.6875V5.3138C14.3327 4.62839 13.9488 3.99797 13.3392 3.68424L9.44403 1.67839L9.44338 1.67773C8.99057 1.44588 8.49513 1.33008 8.00002 1.33008ZM8.00002 2.33008C8.33858 2.33008 8.67748 2.40955 8.98765 2.56836L12.8809 4.57292L12.8815 4.57357C13.1596 4.71659 13.3327 5.00072 13.3327 5.3138V10.6875C13.3327 11.0006 13.1594 11.2849 12.8809 11.4284L8.987 13.4329C8.36709 13.7503 7.63376 13.7505 7.01369 13.4336L7.01239 13.4329L3.11851 11.4284C2.84038 11.2854 2.66669 11.0006 2.66669 10.6875V5.3138C2.66669 5.00026 2.83996 4.71637 3.11851 4.57292L7.01304 2.56836C7.32321 2.40955 7.66146 2.33008 8.00002 2.33008ZM3.82359 4.83073C3.71144 4.83169 3.60287 4.87032 3.51532 4.94041C3.42778 5.01051 3.36634 5.108 3.34087 5.21722C3.31541 5.32644 3.3274 5.44105 3.37492 5.54264C3.42244 5.64422 3.50273 5.72689 3.60289 5.77734L6.5469 7.30729C6.84899 7.46418 7.17237 7.54941 7.50002 7.60221V12.5007C7.49908 12.5669 7.51132 12.6327 7.53603 12.6942C7.56074 12.7557 7.59742 12.8116 7.64394 12.8588C7.69046 12.906 7.7459 12.9435 7.80703 12.969C7.86816 12.9946 7.93376 13.0078 8.00002 13.0078C8.06628 13.0078 8.13189 12.9946 8.19301 12.969C8.25414 12.9435 8.30958 12.906 8.3561 12.8588C8.40262 12.8116 8.4393 12.7557 8.46401 12.6942C8.48872 12.6327 8.50096 12.5669 8.50002 12.5007V7.60221C8.82767 7.54941 9.1504 7.46418 9.45249 7.30729L12.3972 5.778C12.5149 5.71687 12.6036 5.61147 12.6436 5.48498C12.6837 5.35849 12.6718 5.22127 12.6107 5.10352C12.5496 4.98576 12.4442 4.8971 12.3177 4.85706C12.1912 4.81701 12.054 4.82885 11.9362 4.88997L8.99156 6.41992C8.68253 6.5803 8.34514 6.65954 8.00783 6.66081C8.00198 6.66049 7.99612 6.66027 7.99025 6.66016C7.65342 6.65856 7.31639 6.58017 7.00783 6.41992L4.06382 4.89062C3.99003 4.85084 3.90742 4.83024 3.82359 4.83073Z" fill="black" fill-opacity="0.9" style="fill:black;fill:black;fill-opacity:0.9;"/>
</svg>
