<svg width="65" height="27" viewBox="0 0 65 27" fill="none" xmlns="http://www.w3.org/2000/svg">
<g clip-path="url(#clip0_3313_6462)">
<g clip-path="url(#clip1_3313_6462)">
<path d="M52.8067 9.05715C50.5565 9.05715 48.7214 7.22213 48.7214 4.97201C48.7214 2.72189 50.5565 0.886841 52.8067 0.886841C55.0569 0.886841 56.8918 2.72189 56.8918 4.97201C56.8918 7.22213 55.0569 9.05715 52.8067 9.05715Z" fill="white"/>
<path d="M64.8327 26.2333H60.409L59.3659 16.6431H59.1312L55.7886 26.2333H49.8465L46.5042 16.6431H46.2694L45.2261 26.2333H40.8024C40.8024 26.2333 41.6871 18.1669 42.0478 14.9009C42.3808 11.8643 43.97 10.3242 46.7663 10.3242H48.7707L52.7303 21.5147H52.8996L56.8591 10.3242H58.8472C61.6324 10.3242 63.2216 11.8698 63.5712 14.9064C63.9316 18.0412 64.8383 26.2333 64.8383 26.2333M14.0741 10.3242L21.6491 26.2333H16.002L14.5766 22.8254H6.69572L5.2703 26.2333H0C0 26.2333 3.77385 18.4072 5.06822 15.5454C6.58651 12.1866 7.88086 10.3297 11.0376 10.3297H14.0741V10.3242ZM10.5515 13.6284L7.89725 19.8599H13.3751L10.7208 13.6284H10.5515ZM39.2296 21.7332C39.2296 24.5348 37.1434 26.2333 33.2384 26.2333H22.8125V14.7917C22.8125 12.263 24.2707 10.3242 27.4329 10.3242H32.8014C36.5153 10.3242 38.2902 11.8207 38.2902 14.3712C38.2902 16.0697 37.2144 17.1783 35.7287 17.7136V17.8228C36.7774 17.9593 39.2296 19.068 39.2296 21.7332ZM31.4252 16.7141C32.6377 16.7141 33.5441 16.2062 33.5441 15.0429C33.5441 14.0162 32.8014 13.3717 31.4252 13.3717H27.5857V16.7086H31.4252V16.7141ZM31.6163 23.1804C33.0637 23.1804 34.1395 22.6126 34.1395 21.34C34.1395 19.9801 32.9981 19.4721 31.6163 19.4721H27.5803V23.186H31.6163V23.1804Z" fill="white"/>
</g>
</g>
<defs>
<clipPath id="clip0_3313_6462">
<rect width="65" height="25.4618" fill="white" transform="translate(0 0.886841)"/>
</clipPath>
<clipPath id="clip1_3313_6462">
<rect width="65" height="25.4618" fill="white" transform="translate(0 0.886841)"/>
</clipPath>
</defs>
</svg>
