<svg width="120" height="21" viewBox="0 0 120 21" fill="none" xmlns="http://www.w3.org/2000/svg">
<g clip-path="url(#clip0_11689_63270)">
<g clip-path="url(#clip1_11689_63270)">
<path d="M17.9697 0.510498C19.3098 0.510532 20.4062 1.60697 20.4062 2.94702V18.1755C20.4062 19.5156 19.3098 20.612 17.9697 20.6121H2.74121C1.40113 20.612 0.304701 19.5156 0.304688 18.1755V2.94702C0.304722 1.60696 1.40114 0.510512 2.74121 0.510498H17.9697ZM8.13184 4.43921C7.97967 4.4393 7.85055 4.51467 7.7666 4.65308L4.35547 10.2869C4.27411 10.4261 4.27715 10.6049 4.35547 10.7439L7.7666 16.3787C7.84164 16.5174 7.96648 16.5915 8.13184 16.5916H14.8936C15.2286 16.5915 15.4413 16.2262 15.2891 15.9216L12.2441 10.7136C12.1713 10.5678 12.1674 10.4729 12.2441 10.3181L15.2891 5.10913C15.4412 4.83503 15.2589 4.43923 14.8936 4.43921H8.13184ZM13.7666 15.5261H9.32031L11.543 11.7185L13.7666 15.5261ZM10.751 10.5613L8.19336 14.947L5.57324 10.5613L8.19336 6.17554L10.751 10.5613ZM11.5127 9.40405L9.28906 5.59644H13.7363L11.5127 9.40405Z" fill="white"/>
<path d="M30.6001 6.67148C31.953 6.67148 32.8283 7.31037 33.2763 8.62477L33.3108 8.72589L35.0763 8.25381L35.0489 8.14471C34.5229 6.05677 32.9017 4.85896 30.601 4.85872C29.2476 4.84051 27.981 5.34828 27.0496 6.28127C26.0147 7.3175 25.4795 8.76993 25.5019 10.4783C25.4795 12.1898 26.0147 13.6424 27.0496 14.6787C27.9672 15.5977 29.2045 16.1016 30.5386 16.1016C30.5593 16.1016 30.5797 16.1016 30.6001 16.1012C32.9014 16.1012 34.5229 14.9035 35.0489 12.8152L35.0763 12.7061L33.3108 12.234L33.2763 12.3351C32.8283 13.6496 31.953 14.2884 30.6001 14.2884C28.6686 14.2884 27.4685 12.8289 27.4685 10.4798C27.4685 8.13067 28.6686 6.67148 30.6001 6.67148Z" fill="white"/>
<path d="M40.2805 7.87364C39.2879 7.87364 38.4019 8.32513 37.8412 9.09941V4.85866H35.9824V15.978H37.8412V12.5719C37.8412 10.4732 38.8426 9.51725 39.7728 9.51725C40.5765 9.51725 40.9508 9.95506 40.9508 10.8953V15.978H42.8099V10.3875C42.8099 8.79009 41.888 7.87364 40.2805 7.87364Z" fill="white"/>
<path d="M47.3975 9.51715C48.3121 9.51715 48.9298 10.0356 49.1491 10.9809H45.6517C45.9063 10.0612 46.5505 9.51715 47.3975 9.51715ZM47.3975 7.87355C44.8248 7.87355 43.6528 10.0061 43.6528 11.9874C43.6528 13.9685 44.8248 16.1011 47.3975 16.1011C49.108 16.1011 50.2361 15.3712 50.9472 13.8037L50.9969 13.694L49.453 13.0905L49.4046 13.1783C48.9051 14.0869 48.3456 14.4575 47.4743 14.4575C46.4153 14.4575 45.7218 13.7579 45.557 12.5323H51.0651V11.7411C51.0651 9.8191 49.8054 7.87355 47.3975 7.87355Z" fill="white"/>
<path d="M57.6775 13.1535C57.2496 14.0553 56.6789 14.4575 55.8273 14.4575C54.6562 14.4575 53.9569 13.534 53.9569 11.9874C53.9569 10.4407 54.6562 9.51715 55.8273 9.51715C56.6828 9.51715 57.2703 9.93094 57.6769 10.8196L57.7229 10.9198L59.3746 10.2345L59.3332 10.1299C58.7457 8.65376 57.5332 7.87355 55.8273 7.87355C53.5601 7.87355 52.0366 9.52666 52.0366 11.9874C52.0366 14.4479 53.5601 16.1011 55.8273 16.1011C57.5292 16.1011 58.7417 15.3156 59.3332 13.8293L59.3749 13.7238L57.7238 13.0563L57.6775 13.1535Z" fill="white"/>
<path d="M66.824 7.99678H64.5178L61.9458 10.9586V4.85866H60.0867V15.978H61.9458V12.4104L64.745 15.978H67.0406L63.5508 11.6829L66.824 7.99678Z" fill="white"/>
<path d="M72.1839 13.7487C71.8226 14.2258 71.3393 14.4575 70.7058 14.4575C70.0711 14.4575 69.5685 14.2189 69.2122 13.7487C68.8449 13.2642 68.6664 12.6881 68.6664 11.9874C68.6664 11.2869 68.8449 10.7104 69.2122 10.2256C69.5685 9.75545 70.0711 9.51715 70.7058 9.51715C71.339 9.51715 71.8226 9.7489 72.1839 10.2256C72.5512 10.7104 72.7296 11.2869 72.7296 11.9874C72.7296 12.6881 72.5512 13.2642 72.1839 13.7487ZM70.7058 7.87355C68.3743 7.87355 66.7461 9.56534 66.7461 11.9874C66.7461 14.4093 68.3743 16.1011 70.7058 16.1011C73.0373 16.1011 74.6655 14.4093 74.6655 11.9874C74.6655 9.56534 73.0373 7.87355 70.7058 7.87355Z" fill="white"/>
<path d="M80.4912 11.2952C80.4912 13.1571 79.7158 14.4575 78.6056 14.4575C77.8442 14.4575 77.4738 14.0268 77.4738 13.141V7.99669H75.6147V13.5872C75.6147 15.1378 76.5723 16.1011 78.1131 16.1011C79.0116 16.1011 79.8623 15.6537 80.4912 14.862V15.9779H82.3348V7.99669H80.4912V11.2952Z" fill="white"/>
<path d="M87.8357 14.2737C87.6325 14.3956 87.3782 14.4575 87.0791 14.4575C86.4368 14.4575 86.1627 14.1146 86.1627 13.3103V9.64029H88.224V7.99669H86.1627V4.7654L84.3036 5.94024V7.99669H83.0576V9.64029H84.3036V13.2794C84.3036 15.0991 85.2618 16.1011 87.0021 16.1011C87.4994 16.1011 87.9462 16.0039 88.3303 15.8123L88.415 15.7697L87.963 14.1969L87.8357 14.2737Z" fill="white"/>
<path d="M90.2273 13.5499C89.5107 13.5499 88.9905 14.0767 88.9905 14.8024C88.9905 15.5165 89.5223 16.0552 90.2273 16.0552C90.9623 16.0552 91.4956 15.5284 91.4956 14.8024C91.4956 14.0767 90.9623 13.5499 90.2273 13.5499Z" fill="white"/>
<path d="M97.6817 13.1535C97.2538 14.0553 96.683 14.4575 95.8311 14.4575C94.6604 14.4575 93.9614 13.534 93.9614 11.9874C93.9614 10.4407 94.6604 9.51715 95.8311 9.51715C96.6867 9.51715 97.2745 9.93094 97.6814 10.8196L97.7271 10.9198L99.3787 10.2345L99.337 10.1299C98.7498 8.65376 97.5376 7.87355 95.8311 7.87355C93.5639 7.87355 92.0408 9.52666 92.0408 11.9874C92.0408 14.4479 93.5639 16.1011 95.8311 16.1011C97.5337 16.1011 98.7458 15.3156 99.337 13.8293L99.379 13.7238L97.728 13.0563L97.6817 13.1535Z" fill="white"/>
<path d="M105.366 13.7487C105.005 14.2258 104.521 14.4575 103.888 14.4575C103.253 14.4575 102.751 14.2189 102.395 13.7487C102.027 13.2642 101.849 12.6881 101.849 11.9874C101.849 11.2869 102.027 10.7104 102.395 10.2256C102.751 9.75545 103.253 9.51715 103.888 9.51715C104.521 9.51715 105.005 9.7489 105.366 10.2256C105.734 10.7104 105.912 11.2869 105.912 11.9874C105.912 12.6881 105.734 13.2642 105.366 13.7487ZM103.888 7.87355C101.557 7.87355 99.9282 9.56534 99.9282 11.9874C99.9282 14.4093 101.557 16.1011 103.888 16.1011C106.219 16.1011 107.848 14.4093 107.848 11.9874C107.848 9.56534 106.219 7.87355 103.888 7.87355Z" fill="white"/>
<path d="M117.442 7.87364C116.524 7.87364 115.647 8.41855 115.058 9.34389C114.702 8.3933 113.935 7.87364 112.874 7.87364C112.003 7.87364 111.272 8.27933 110.696 9.08062V7.99678H108.837V15.978H110.696V12.8488C110.696 10.8251 111.382 9.51725 112.443 9.51725C113.119 9.51725 113.421 9.87594 113.421 10.68V15.978H115.264V12.7257C115.264 10.8067 115.967 9.51725 117.012 9.51725C117.688 9.51725 117.99 9.87594 117.99 10.68V15.978H119.833V10.4185C119.833 8.80139 118.962 7.87364 117.442 7.87364Z" fill="white"/>
</g>
</g>
<defs>
<clipPath id="clip0_11689_63270">
<rect width="120" height="20.7107" fill="white" transform="translate(0 0.206055)"/>
</clipPath>
<clipPath id="clip1_11689_63270">
<rect width="120" height="20.7107" fill="white" transform="translate(0 0.206055)"/>
</clipPath>
</defs>
</svg>
