<svg width="100" height="28" viewBox="0 0 100 28" fill="none" xmlns="http://www.w3.org/2000/svg">
<g clip-path="url(#clip0_11248_709)">
<g clip-path="url(#clip1_11248_709)">
<path fill-rule="evenodd" clip-rule="evenodd" d="M10.1249 3.12686C10.7487 3.12686 11.2285 2.64701 11.2285 2.02321C11.2285 1.39941 10.7487 0.919567 10.1249 0.919567C9.50107 0.919567 9.02122 1.39941 9.02122 2.02321C9.02122 2.59903 9.50107 3.12686 10.1249 3.12686ZM15.2592 3.70268C15.2592 4.32648 14.7794 4.80632 14.1556 4.80632C13.5318 4.80632 13.0519 4.32648 13.0519 3.70268C13.0519 3.07888 13.5318 2.59903 14.1556 2.59903C14.7794 2.59903 15.2592 3.07888 15.2592 3.70268ZM21.4492 5.71803C21.4492 6.34183 20.9694 6.82168 20.3456 6.82168C19.7218 6.82168 19.242 6.34183 19.242 5.71803C19.242 5.09423 19.7218 4.61438 20.3456 4.61438C20.9694 4.61438 21.4492 5.09423 21.4492 5.71803ZM7.91758 6.91765C8.54138 6.91765 9.02122 6.4378 9.02122 5.814C9.02122 5.1902 8.54138 4.71035 7.91758 4.71035C7.29378 4.71035 6.81393 5.1902 6.81393 5.814C6.76595 6.38982 7.29378 6.91765 7.91758 6.91765ZM3.64694 7.78137C4.27074 7.78137 4.75059 7.30152 4.75059 6.67772C4.75059 6.05392 4.27074 5.57408 3.64694 5.57408C3.02314 5.57408 2.5433 6.05392 2.5433 6.67772C2.5433 7.30152 3.02314 7.78137 3.64694 7.78137ZM5.23044 10.9963C5.23044 11.6201 4.75059 12.1 4.12679 12.1C3.50299 12.1 3.02314 11.6201 3.02314 10.9963C3.02314 10.3725 3.50299 9.8927 4.12679 9.8927C4.75059 9.8927 5.23044 10.3725 5.23044 10.9963ZM7.29378 14.2593C7.29378 14.8831 6.81393 15.3629 6.19013 15.3629C5.56633 15.3629 5.08648 14.8831 5.08648 14.2593C5.08648 13.6355 5.56633 13.1557 6.19013 13.1557C6.81393 13.1557 7.29378 13.6835 7.29378 14.2593ZM2.25539 14.2593C2.25539 14.8831 1.77554 15.3629 1.15174 15.3629C0.527942 15.3629 0.0480957 14.8831 0.0480957 14.2593C0.0480957 13.6355 0.527942 13.1557 1.15174 13.1557C1.72756 13.1557 2.25539 13.6835 2.25539 14.2593ZM4.12679 18.6739C4.75059 18.6739 5.23044 18.194 5.23044 17.5702C5.23044 16.9464 4.75059 16.4666 4.12679 16.4666C3.50299 16.4666 3.02314 16.9464 3.02314 17.5702C2.97516 18.194 3.50299 18.6739 4.12679 18.6739ZM8.87727 19.0098C8.87727 19.6336 8.39742 20.1134 7.77362 20.1134C7.14982 20.1134 6.66998 19.6336 6.66998 19.0098C6.66998 18.386 7.14982 17.9061 7.77362 17.9061C8.39742 17.9061 8.87727 18.386 8.87727 19.0098ZM7.96556 24.0002C8.58936 24.0002 9.06921 23.5203 9.06921 22.8965C9.06921 22.2727 8.58936 21.7929 7.96556 21.7929C7.34176 21.7929 6.86192 22.2727 6.86192 22.8965C6.86192 23.5203 7.34176 24.0002 7.96556 24.0002ZM8.87727 9.50882C8.87727 10.1326 8.39742 10.6125 7.77362 10.6125C7.14982 10.6125 6.66998 10.1326 6.66998 9.50882C6.66998 8.88502 7.14982 8.40517 7.77362 8.40517C8.39742 8.40517 8.87727 8.933 8.87727 9.50882ZM12.812 6.67772C12.812 7.30152 12.3322 7.78137 11.7084 7.78137C11.0846 7.78137 10.6047 7.30152 10.6047 6.67772C10.6047 6.05392 11.0846 5.57408 11.7084 5.57408C12.3322 5.52609 12.812 6.05392 12.812 6.67772ZM16.6028 7.78137C17.2266 7.78137 17.7064 7.30152 17.7064 6.67772C17.7064 6.05392 17.2266 5.57408 16.6028 5.57408C15.979 5.57408 15.4992 6.05392 15.4992 6.67772C15.4992 7.30152 15.979 7.78137 16.6028 7.78137ZM20.5855 10.7084C21.2093 10.7084 21.6892 10.2286 21.6892 9.60479C21.6892 8.98099 21.2093 8.50114 20.5855 8.50114C19.9617 8.50114 19.4819 8.98099 19.4819 9.60479C19.4339 10.2286 19.9617 10.7084 20.5855 10.7084ZM25.336 10.9963C25.336 11.6201 24.8562 12.1 24.2324 12.1C23.6086 12.1 23.1287 11.6201 23.1287 10.9963C23.1287 10.3725 23.6086 9.8927 24.2324 9.8927C24.8562 9.8927 25.336 10.3725 25.336 10.9963ZM24.2324 18.6739C24.8562 18.6739 25.336 18.194 25.336 17.5702C25.336 16.9464 24.8562 16.4666 24.2324 16.4666C23.6086 16.4666 23.1287 16.9464 23.1287 17.5702C23.0807 18.194 23.6086 18.6739 24.2324 18.6739ZM21.6892 19.0098C21.6892 19.6336 21.2093 20.1134 20.5855 20.1134C19.9617 20.1134 19.4819 19.6336 19.4819 19.0098C19.4819 18.386 19.9617 17.9061 20.5855 17.9061C21.2093 17.9061 21.6892 18.386 21.6892 19.0098ZM24.7122 22.9925C25.336 22.9925 25.8159 22.5127 25.8159 21.8889C25.8159 21.2651 25.336 20.7852 24.7122 20.7852C24.0884 20.7852 23.6086 21.2651 23.6086 21.8889C23.6086 22.5127 24.0884 22.9925 24.7122 22.9925ZM17.7544 21.8889C17.7544 22.5127 17.2746 22.9925 16.6508 22.9925C16.027 22.9925 15.5471 22.5127 15.5471 21.8889C15.5471 21.2651 16.027 20.7852 16.6508 20.7852C17.2266 20.7852 17.7544 21.2651 17.7544 21.8889ZM11.7084 22.9925C12.3322 22.9925 12.812 22.5127 12.812 21.8889C12.812 21.2651 12.3322 20.7852 11.7084 20.7852C11.0846 20.7852 10.6047 21.2651 10.6047 21.8889C10.6047 22.5127 11.0846 22.9925 11.7084 22.9925ZM4.75059 21.8889C4.75059 22.5127 4.27074 22.9925 3.64694 22.9925C3.02314 22.9925 2.5433 22.5127 2.5433 21.8889C2.5433 21.2651 3.02314 20.7852 3.64694 20.7852C4.27074 20.7852 4.75059 21.2651 4.75059 21.8889ZM20.3456 24.0002C20.9694 24.0002 21.4492 23.5203 21.4492 22.8965C21.4492 22.2727 20.9694 21.7929 20.3456 21.7929C19.7218 21.7929 19.242 22.2727 19.242 22.8965C19.194 23.5203 19.7218 24.0002 20.3456 24.0002ZM15.2592 24.8639C15.2592 25.4877 14.7794 25.9676 14.1556 25.9676C13.5318 25.9676 13.0519 25.4877 13.0519 24.8639C13.0519 24.2401 13.5318 23.7603 14.1556 23.7603C14.7794 23.7603 15.2592 24.2401 15.2592 24.8639ZM18.1863 27.743C18.8101 27.743 19.2899 27.2631 19.2899 26.6393C19.2899 26.0155 18.8101 25.5357 18.1863 25.5357C17.5625 25.5357 17.0826 26.0155 17.0826 26.6393C17.0826 27.2631 17.5625 27.743 18.1863 27.743ZM11.2765 26.6393C11.2765 27.2631 10.7967 27.743 10.1729 27.743C9.54906 27.743 9.06921 27.2631 9.06921 26.6393C9.06921 26.0155 9.54906 25.5357 10.1729 25.5357C10.7967 25.5357 11.2765 26.0155 11.2765 26.6393ZM22.169 15.4109C22.7928 15.4109 23.2727 14.9311 23.2727 14.3073C23.2727 13.6835 22.7928 13.2036 22.169 13.2036C21.5452 13.2036 21.0654 13.6835 21.0654 14.3073C21.0654 14.8831 21.5452 15.4109 22.169 15.4109ZM28.359 14.2593C28.359 14.8831 27.8792 15.3629 27.2554 15.3629C26.6316 15.3629 26.1517 14.8831 26.1517 14.2593C26.1517 13.6355 26.6316 13.1557 27.2554 13.1557C27.8312 13.1557 28.359 13.6835 28.359 14.2593ZM24.7122 7.78137C25.336 7.78137 25.8159 7.30152 25.8159 6.67772C25.8159 6.05392 25.336 5.57408 24.7122 5.57408C24.0884 5.57408 23.6086 6.05392 23.6086 6.67772C23.6086 7.30152 24.0884 7.78137 24.7122 7.78137ZM19.3379 1.97523C19.3379 2.59903 18.8581 3.07888 18.2343 3.07888C17.6105 3.07888 17.1306 2.59903 17.1306 1.97523C17.1306 1.35143 17.6105 0.871582 18.2343 0.871582C18.8101 0.871582 19.3379 1.35143 19.3379 1.97523ZM39.4435 14.3073C39.4435 11.1403 41.8907 8.69308 45.1057 8.69308C46.0654 8.69308 47.0731 8.933 47.9368 9.41285C48.8005 9.8927 49.5203 10.5645 50.0001 11.4282L48.1287 12.5798C47.8408 12.004 47.4089 11.5722 46.8811 11.2363C46.3533 10.9004 45.7295 10.7564 45.1057 10.7564C43.0903 10.7564 41.6028 12.3399 41.6028 14.3073C41.6028 16.2267 43.0903 17.8102 45.0577 17.8102C45.7295 17.8102 46.3533 17.6182 46.9291 17.2823C47.5049 16.9464 47.9368 16.4186 48.1767 15.7948L50.1441 16.8505C49.6642 17.7622 48.9445 18.5779 48.0807 19.1057C47.169 19.6336 46.1613 19.9215 45.1057 19.9215C41.7947 19.9215 39.4435 17.4263 39.4435 14.3073ZM54.0788 8.83703V19.7775H61.3245V17.7142H56.2381V8.83703H54.0788ZM65.4992 19.7775V8.83703H72.9368V10.8044H67.6585V13.2516H71.9771V15.267H67.6585V17.7622H72.9368V19.7775H65.4992ZM80.9982 8.83703L76.8235 19.7775H79.0308L79.7506 17.8102H84.3571L85.0769 19.7775H87.2842L83.1095 8.83703H80.9982ZM82.0539 11.5242L83.6374 15.8908H80.4704L82.0539 11.5242ZM93.3782 14.4033V10.8044H95.5375C96.8811 10.8044 97.6009 11.4762 97.6009 12.5798C97.6009 13.5395 96.9291 14.4033 95.5375 14.4033H93.3782ZM95.7295 8.83703H91.2669V19.7775H93.3782V16.3226H95.8734L97.6489 19.7775H100.048L97.8888 15.7948C98.4646 15.5069 98.9924 15.0271 99.3283 14.4512C99.6642 13.8754 99.8562 13.2036 99.8082 12.5798C99.7602 10.4685 98.2727 8.83703 95.7295 8.83703Z" fill="white"/>
</g>
</g>
<defs>
<clipPath id="clip0_11248_709">
<rect width="100" height="26.8714" fill="white" transform="translate(0 0.871582)"/>
</clipPath>
<clipPath id="clip1_11248_709">
<rect width="100" height="26.8714" fill="white" transform="translate(0 0.871582)"/>
</clipPath>
</defs>
</svg>
