<svg width="117" height="25" viewBox="0 0 117 25" fill="none" xmlns="http://www.w3.org/2000/svg">
<g clip-path="url(#clip0_23_2270)">
<g clip-path="url(#clip1_23_2270)">
<path d="M24.7606 3.34757C22.8685 2.46381 20.8454 1.82153 18.7303 1.45581C18.4705 1.92465 18.167 2.55525 17.9578 3.05689C15.7093 2.71933 13.4816 2.71933 11.2745 3.05689C11.0653 2.55525 10.7549 1.92465 10.4928 1.45581C8.3754 1.82153 6.34993 2.46617 4.45782 3.35225C0.641408 9.10949 -0.393158 14.7237 0.124126 20.2582C2.65537 22.1453 5.10845 23.2916 7.52014 24.0417C8.11559 23.2236 8.64666 22.3539 9.10416 21.4374C8.23283 21.1068 7.39829 20.699 6.60974 20.2254C6.81894 20.0707 7.02357 19.909 7.22126 19.7425C12.0308 21.9882 17.2566 21.9882 22.0087 19.7425C22.2087 19.909 22.4133 20.0707 22.6202 20.2254C21.8294 20.7013 20.9925 21.1092 20.1212 21.4397C20.5787 22.3539 21.1075 23.226 21.7052 24.044C24.1192 23.2939 26.5746 22.1476 29.1058 20.2582C29.7128 13.8423 28.069 8.27965 24.7606 3.34757ZM9.7594 16.8546C8.31561 16.8546 7.13159 15.509 7.13159 13.8704C7.13159 12.2319 8.29033 10.884 9.7594 10.884C11.2285 10.884 12.4125 12.2295 12.3872 13.8704C12.3895 15.509 11.2285 16.8546 9.7594 16.8546ZM19.4706 16.8546C18.0268 16.8546 16.8428 15.509 16.8428 13.8704C16.8428 12.2319 18.0015 10.884 19.4706 10.884C20.9396 10.884 22.1237 12.2295 22.0984 13.8704C22.0984 15.509 20.9396 16.8546 19.4706 16.8546Z" fill="white"/>
<path d="M39.2788 7.21826H45.555C47.068 7.21826 48.3462 7.4597 49.3948 7.94026C50.4406 8.42078 51.2247 9.09122 51.7444 9.94918C52.2637 10.8071 52.5257 11.7893 52.5257 12.8958C52.5257 13.9788 52.2545 14.961 51.7119 15.84C51.1694 16.7214 50.344 17.4177 49.2337 17.931C48.1234 18.4444 46.7483 18.7022 45.1047 18.7022H39.2788V7.21826ZM45.0401 15.7838C46.0587 15.7838 46.8428 15.5236 47.3898 15.0055C47.9371 14.4851 48.2108 13.7772 48.2108 12.8794C48.2108 12.0472 47.9667 11.3838 47.4795 10.8868C46.9923 10.3899 46.2542 10.1391 45.2677 10.1391H43.3044V15.7838H45.0401Z" fill="white"/>
<path d="M61.9224 18.6882C61.0533 18.4585 60.2691 18.1256 59.5728 17.6873V14.9634C60.0993 15.3783 60.8049 15.7206 61.69 15.9901C62.5751 16.2574 63.4305 16.391 64.258 16.391C64.6442 16.391 64.9363 16.3394 65.1339 16.2362C65.3318 16.1331 65.4308 16.0089 65.4308 15.8659C65.4308 15.7018 65.3779 15.5658 65.2697 15.4556C65.1615 15.3455 64.9523 15.254 64.6422 15.1767L62.7109 14.7336C61.605 14.4711 60.8209 14.1078 60.3545 13.6413C59.8877 13.1771 59.6553 12.5676 59.6553 11.8128C59.6553 11.1776 59.8576 10.6267 60.2671 10.1555C60.6738 9.68435 61.2532 9.32099 62.0049 9.06547C62.757 8.80763 63.6349 8.67871 64.6442 8.67871C65.5454 8.67871 66.3708 8.77715 67.1229 8.97407C67.8745 9.17099 68.4952 9.42179 68.9897 9.72887V12.3051C68.4836 11.998 67.9042 11.7566 67.2423 11.5737C66.5823 11.3932 65.9044 11.3042 65.2052 11.3042C64.1959 11.3042 63.6926 11.48 63.6926 11.8292C63.6926 11.9934 63.7707 12.1152 63.927 12.1973C64.0833 12.2793 64.3706 12.3637 64.7869 12.4528L66.396 12.7482C67.447 12.9334 68.2308 13.2592 68.7456 13.7233C69.2609 14.1875 69.5182 14.8743 69.5182 15.7838C69.5182 16.7801 69.093 17.5701 68.24 18.1561C67.3869 18.7422 66.1776 19.0352 64.6098 19.0352C63.6878 19.0328 62.7915 18.918 61.9224 18.6882Z" fill="white"/>
<path d="M73.3165 18.3435C72.3949 17.884 71.6981 17.2605 71.2337 16.4729C70.7693 15.6852 70.5349 14.7991 70.5349 13.8146C70.5349 12.8301 70.7761 11.9487 71.259 11.1727C71.7418 10.3968 72.4498 9.78735 73.3834 9.34431C74.3166 8.90127 75.4317 8.68091 76.7307 8.68091C78.3399 8.68091 79.6757 9.02551 80.738 9.71467V12.7175C80.3633 12.455 79.9262 12.2417 79.4273 12.0776C78.9285 11.9135 78.3951 11.8314 77.825 11.8314C76.8273 11.8314 76.0479 12.0166 75.4846 12.3893C74.9212 12.7621 74.6387 13.2473 74.6387 13.8497C74.6387 14.4405 74.912 14.9234 75.4593 15.3031C76.0067 15.6805 76.7996 15.8704 77.841 15.8704C78.3767 15.8704 78.9056 15.7907 79.4273 15.6337C79.947 15.4743 80.3954 15.2797 80.77 15.0499V17.9543C79.5908 18.6763 78.2229 19.0373 76.6662 19.0373C75.356 19.0327 74.2384 18.8029 73.3165 18.3435Z" fill="white"/>
<path d="M84.7522 18.3435C83.8234 17.8841 83.1154 17.2559 82.6278 16.4565C82.1406 15.6571 81.8945 14.7664 81.8945 13.7818C81.8945 12.7973 82.1381 11.9182 82.6278 11.147C83.1174 10.3758 83.821 9.77099 84.7454 9.33263C85.667 8.89427 86.7685 8.67627 88.0442 8.67627C89.3204 8.67627 90.4215 8.89427 91.3435 9.33263C92.2655 9.77099 92.9691 10.3711 93.4519 11.1376C93.9347 11.9042 94.1759 12.7832 94.1759 13.7795C94.1759 14.764 93.9347 15.6548 93.4519 16.4541C92.9691 17.2535 92.2631 17.8817 91.3343 18.3412C90.4055 18.8007 89.3088 19.0304 88.0422 19.0304C86.7753 19.0304 85.6786 18.803 84.7522 18.3435ZM89.6422 15.4321C90.0332 15.0336 90.2308 14.5062 90.2308 13.8498C90.2308 13.1935 90.0353 12.6707 89.6422 12.2839C89.2515 11.8948 88.7178 11.7002 88.0422 11.7002C87.3547 11.7002 86.8165 11.8948 86.4235 12.2839C86.0328 12.6731 85.8373 13.1935 85.8373 13.8498C85.8373 14.5062 86.0328 15.0336 86.4235 15.4321C86.8145 15.8306 87.3547 16.0322 88.0422 16.0322C88.7178 16.0299 89.2515 15.8306 89.6422 15.4321Z" fill="white"/>
<path d="M103.846 9.28589V12.8303C103.437 12.556 102.908 12.42 102.253 12.42C101.395 12.42 100.733 12.6849 100.273 13.2147C99.8109 13.7445 99.5809 14.5696 99.5809 15.6854V18.7047H95.6382V9.10541H99.5008V12.1575C99.7144 11.0417 100.062 10.2189 100.54 9.68673C101.016 9.15697 101.632 8.89209 102.381 8.89209C102.949 8.89209 103.437 9.02337 103.846 9.28589Z" fill="white"/>
<path d="M116.946 6.89014V18.7047H113.002V16.5551C112.669 17.3638 112.163 17.9803 111.483 18.4023C110.802 18.8219 109.961 19.0329 108.963 19.0329C108.071 19.0329 107.294 18.8125 106.63 18.3695C105.965 17.9264 105.453 17.3193 105.092 16.5481C104.733 15.7768 104.551 14.9048 104.551 13.9297C104.54 12.924 104.731 12.0215 105.124 11.2221C105.515 10.4228 106.069 9.79926 106.781 9.3515C107.494 8.90378 108.308 8.67874 109.221 8.67874C111.099 8.67874 112.359 9.5109 113.002 11.1729V6.89014H116.946ZM112.414 15.3666C112.817 14.9681 113.017 14.4501 113.017 13.8171C113.017 13.2053 112.821 12.706 112.43 12.3239C112.039 11.9418 111.504 11.7496 110.83 11.7496C110.166 11.7496 109.635 11.9441 109.237 12.3333C108.839 12.7224 108.641 13.2264 108.641 13.8499C108.641 14.4735 108.839 14.9822 109.237 15.376C109.635 15.7698 110.159 15.9667 110.814 15.9667C111.478 15.9644 112.012 15.7651 112.414 15.3666Z" fill="white"/>
<path d="M55.8486 10.1272C56.934 10.1272 57.8143 9.32117 57.8143 8.32689C57.8143 7.33261 56.934 6.52661 55.8486 6.52661C54.7627 6.52661 53.8828 7.33261 53.8828 8.32689C53.8828 9.32117 54.7627 10.1272 55.8486 10.1272Z" fill="white"/>
<path d="M53.8811 11.3674C55.0856 11.8972 56.5801 11.9206 57.8122 11.3674V18.7562H53.8811V11.3674Z" fill="white"/>
</g>
</g>
<defs>
<clipPath id="clip0_23_2270">
<rect width="117" height="24" fill="white" transform="translate(0 0.75)"/>
</clipPath>
<clipPath id="clip1_23_2270">
<rect width="117" height="24" fill="white" transform="translate(0 0.75)"/>
</clipPath>
</defs>
</svg>
