<svg width="100" height="21" viewBox="0 0 100 21" fill="none" xmlns="http://www.w3.org/2000/svg">
<g clip-path="url(#clip0_11249_882)">
<g clip-path="url(#clip1_11249_882)">
<path d="M97.4332 9.79616V16.3545H95.0249V10.2295C95.0249 8.73783 94.3832 7.90449 93.1332 7.90449C91.8832 7.90449 91.0583 8.77949 90.8249 10.2462C90.7583 10.5962 90.7416 11.1378 90.7416 12.2795V16.3462H88.3333V5.92949H90.4666C90.4749 6.02116 90.5249 6.95449 90.5249 7.01283C90.5249 7.08783 90.6166 7.12949 90.6749 7.07949C91.5582 6.37949 92.5332 5.72949 93.8916 5.72949C96.1249 5.72949 97.4332 7.23782 97.4332 9.79616Z" fill="white"/>
<path d="M84.45 5.93779L84.375 7.12946C84.3667 7.20446 84.275 7.24613 84.225 7.19613C83.9334 6.92113 82.8584 5.73779 81.0334 5.73779C78.4167 5.73779 76.4917 7.99613 76.4917 11.0628C76.4917 12.6211 76.9667 13.9628 77.775 14.9128C78.5834 15.8711 79.7167 16.4378 81.0334 16.4378C82.7917 16.4378 83.8667 15.2961 84.0667 15.0461C84.125 14.9795 84.2334 15.0211 84.2334 15.1045C84.2084 15.4211 84.1667 16.2128 83.9 16.8878C83.5667 17.7378 82.8167 18.5295 81.3084 18.5295C80.0667 18.5295 78.9667 18.0545 77.925 17.0378L76.6667 18.7628C77.8084 20.0545 79.6084 20.7795 81.5667 20.7795C84.7167 20.7795 86.6084 18.6211 86.6084 15.0961V5.93779H84.45ZM81.55 14.2545C79.9917 14.2545 78.8917 12.9045 78.8917 11.0628C78.8917 9.22113 79.9917 7.90446 81.55 7.90446C83.1084 7.90446 84.2084 9.21279 84.2084 11.0628C84.2 12.9128 83.1 14.2545 81.55 14.2545Z" fill="white"/>
<path d="M71.4584 13.2628C71.4584 15.2378 69.8 16.5628 67.3667 16.5628C65.4584 16.5628 63.7584 15.8211 62.7417 14.7628L63.5334 12.8794C64.3 13.5711 65.5334 14.5628 67.2917 14.5628C68.5167 14.5628 69.225 14.0211 69.225 13.3378C69.225 12.5461 68.25 12.3378 67.0834 12.1128C65.425 11.7628 63.225 11.1961 63.225 8.93776C63.225 7.04609 64.7584 5.74609 67.025 5.74609C68.7667 5.74609 70.2667 6.41276 71.3 7.27943L70.1167 8.93776C69.1167 8.14609 68.0667 7.75443 67.025 7.75443C65.9834 7.75443 65.4667 8.18776 65.4667 8.81276C65.4667 9.68776 66.5917 9.91276 67.4167 10.0794C69.4917 10.4794 71.4584 11.1044 71.4584 13.2628Z" fill="white"/>
<path d="M36.2417 5.72949C33.3 5.72949 31.1833 8.01283 31.1833 11.1462C31.1833 14.2795 33.3 16.5628 36.2417 16.5628C39.1833 16.5628 41.3083 14.2795 41.3083 11.1462C41.3083 8.01283 39.1917 5.72949 36.2417 5.72949ZM36.2417 14.3795C34.6833 14.3795 33.5833 13.0545 33.5833 11.1378C33.5833 9.22949 34.6583 7.89616 36.2417 7.89616C37.8167 7.89616 38.9 9.22116 38.9 11.1378C38.9 13.0545 37.8 14.3795 36.2417 14.3795Z" fill="white"/>
<path d="M42.1582 11.1462C42.1582 8.05449 44.2749 5.72949 47.0999 5.72949C49.3415 5.72949 50.9832 6.85449 51.7499 8.97116L49.6165 9.77949C49.0332 8.47116 48.2665 7.91283 47.1082 7.91283C45.6582 7.91283 44.5749 9.27949 44.5749 11.1545C44.5749 13.0212 45.6499 14.3962 47.1082 14.3962C48.2749 14.3962 49.0332 13.8378 49.6165 12.5295L51.7499 13.3378C50.9832 15.4545 49.3415 16.5795 47.0999 16.5795C44.2749 16.5628 42.1582 14.2378 42.1582 11.1462Z" fill="white"/>
<path d="M29.875 1.09595H29.2833C29.2416 1.09595 29.1916 1.10428 29.15 1.12928L27.5833 1.96261C27.55 1.97928 27.5333 2.01261 27.5333 2.04595V7.00428C27.5333 7.08761 27.4333 7.12095 27.375 7.07095C27.1417 6.87095 26.6 6.36261 25.85 6.01261C25.4583 5.82928 24.8833 5.72928 24.3583 5.72928C21.725 5.72928 19.8167 8.01261 19.8167 11.1459C19.8167 14.2793 21.725 16.5626 24.3583 16.5626C25.7416 16.5626 26.7833 15.8376 27.4167 15.1876L27.525 15.0793C27.5833 15.0209 27.6833 15.0543 27.6833 15.1376L27.7667 16.3543H29.9416V1.16261C29.9416 1.12928 29.9167 1.09595 29.875 1.09595ZM24.875 14.3793C23.3 14.3793 22.2167 13.0543 22.2167 11.1376C22.2167 9.22095 23.325 7.90428 24.875 7.90428C26.4333 7.90428 27.5333 9.22928 27.5333 11.1459C27.5333 13.0543 26.4583 14.3793 24.875 14.3793Z" fill="white"/>
<path d="M74.2917 5.97111L72.7834 6.77111C72.7501 6.78778 72.7334 6.82111 72.7334 6.85444V16.3544H75.1417V5.99611C75.1417 5.96278 75.1167 5.92944 75.0751 5.92944H74.4251C74.3751 5.93778 74.3334 5.94611 74.2917 5.97111Z" fill="white"/>
<path d="M73.9334 4.24595C74.7334 4.24595 75.3834 3.59595 75.3834 2.79595C75.3834 1.99595 74.7334 1.34595 73.9334 1.34595C73.1334 1.34595 72.4834 1.99595 72.4834 2.79595C72.4834 3.59595 73.1334 4.24595 73.9334 4.24595Z" fill="white"/>
<path d="M61.8751 5.92944V11.5878C61.8751 15.8794 59.4751 16.5544 57.3334 16.5544C55.1917 16.5544 52.7917 15.8711 52.7917 11.5878V5.92944H55.1917V12.1878C55.1917 12.7961 55.3417 14.3794 57.3334 14.3794C59.3251 14.3794 59.4751 12.8044 59.4751 12.1878V5.92944H61.8751Z" fill="white"/>
<path d="M99.9999 16.3459L99.9916 15.2876H99.7749L99.4583 15.8959L99.1416 15.2876H98.9249V16.3459H99.0916V15.5209L99.4166 16.1376H99.5082L99.8333 15.5126V16.3459H99.9999ZM97.9583 15.2876V15.4376H98.2999V16.3459H98.4666V15.4376H98.8082V15.2876H97.9583Z" fill="white"/>
<path d="M11.625 12.2794V16.4044C11.625 16.6211 11.45 16.7961 11.2333 16.7961H0.391667C0.175 16.7961 0 16.6211 0 16.4044V5.57111C0 5.35444 0.175 5.17944 0.391667 5.17944H4.50833V11.8878C4.50833 12.1044 4.68333 12.2794 4.9 12.2794H11.625Z" fill="white"/>
<path d="M16.1416 6.46262C16.1416 9.92929 14.1166 12.271 11.6249 12.2793V7.91262C11.6249 7.78762 11.5749 7.66262 11.4833 7.57929L9.2166 5.31262C9.14993 5.24595 9.0666 5.19595 8.97493 5.17929C8.9416 5.17095 8.9166 5.17095 8.88327 5.17095H4.5166V1.05429C4.5166 0.83762 4.6916 0.66262 4.90827 0.66262H11.0166C13.9166 0.654287 16.1416 2.98762 16.1416 6.46262Z" fill="white"/>
<path d="M11.6251 7.90441V7.91274C11.6251 7.78774 11.5751 7.66274 11.4835 7.57941L9.2168 5.31274L11.4835 7.57108C11.5751 7.66274 11.6251 7.77941 11.6251 7.90441Z" fill="white"/>
</g>
</g>
<defs>
<clipPath id="clip0_11249_882">
<rect width="100" height="20.1167" fill="white" transform="translate(0 0.654297)"/>
</clipPath>
<clipPath id="clip1_11249_882">
<rect width="100" height="20.1167" fill="white" transform="translate(0 0.654297)"/>
</clipPath>
</defs>
</svg>
