<svg width="117" height="24" viewBox="0 0 117 24" fill="none" xmlns="http://www.w3.org/2000/svg">
<g clip-path="url(#clip0_1239_7157)">
<path d="M13.572 4.96328L6.786 9.29228L13.572 13.6213L6.786 17.9503L0 13.5979L6.786 9.26888L0 4.96328L6.786 0.634277L13.572 4.96328ZM6.7509 19.3426L13.5369 15.0136L20.3229 19.3426L13.5369 23.6716L6.7509 19.3426ZM13.572 13.5979L20.358 9.26888L13.572 4.96328L20.3229 0.634277L27.1089 4.96328L20.3229 9.29228L27.1089 13.6213L20.3229 17.9503L13.572 13.5979Z" fill="white"/>
<path d="M32.4324 4.96301H37.9197C41.418 4.96301 44.3079 6.98711 44.3079 11.6086V12.5797C44.3079 17.2363 41.6052 19.3306 38.025 19.3306H32.4324V4.96301ZM35.4978 7.57211V16.7098H37.8495C39.8385 16.7098 41.1723 15.4111 41.1723 12.5212V11.7607C41.1723 8.87081 39.7683 7.57211 37.7442 7.57211H35.4978ZM45.9342 7.71251H48.3912L48.789 10.4152C49.257 8.57831 50.4504 7.59551 52.6149 7.59551H53.3754V10.696H52.1118C49.6197 10.696 49.0113 11.5618 49.0113 14.0188V19.3657H45.981V7.71251H45.9342ZM53.9838 13.7731V13.4455C53.9838 9.54941 56.4759 7.42001 59.8689 7.42001C63.3321 7.42001 65.754 9.54941 65.754 13.4455V13.7731C65.754 17.599 63.4023 19.6582 59.8689 19.6582C56.1132 19.6231 53.9838 17.6107 53.9838 13.7731ZM62.6535 13.738V13.4455C62.6535 11.281 61.5654 9.98231 59.8338 9.98231C58.1373 9.98231 57.0141 11.1757 57.0141 13.4455V13.738C57.0141 15.8323 58.1022 17.0257 59.8338 17.0257C61.5654 16.9906 62.6535 15.8323 62.6535 13.738ZM67.3452 7.71251H69.8724L70.1649 9.91211C70.7733 8.43791 72.072 7.42001 73.9908 7.42001C76.9509 7.42001 78.9048 9.54941 78.9048 13.4923V13.8199C78.9048 17.6458 76.7403 19.6699 73.9908 19.6699C72.1539 19.6699 70.8903 18.8392 70.2702 17.5054V23.3905H67.3101L67.3452 7.71251ZM75.8277 13.738V13.4806C75.8277 11.164 74.6343 10.0174 73.0431 10.0174C71.3466 10.0174 70.2234 11.3161 70.2234 13.4806V13.7029C70.2234 15.7621 71.3115 17.0608 73.008 17.0608C74.7513 17.0257 75.8277 15.9142 75.8277 13.738ZM83.3859 17.2129L83.1285 19.3423H80.5311V3.81641H83.4912V9.77171C84.1464 8.25071 85.4451 7.42001 87.282 7.42001C90.0666 7.45511 92.1258 9.37391 92.1258 13.2349V13.5976C92.1258 17.4586 90.1719 19.6699 87.2118 19.6699C85.2579 19.6231 83.9943 18.7222 83.3859 17.2129ZM89.0136 13.5976V13.3051C89.0136 11.1757 87.8553 9.98231 86.229 9.98231C84.5676 9.98231 83.4093 11.3161 83.4093 13.3402V13.5976C83.4093 15.7621 84.5325 17.0257 86.1939 17.0257C87.9723 17.0257 89.0136 15.9142 89.0136 13.5976ZM93.4245 13.7731V13.4455C93.4245 9.54941 95.9166 7.42001 99.3096 7.42001C102.773 7.42001 105.195 9.54941 105.195 13.4455V13.7731C105.195 17.599 102.808 19.6582 99.3096 19.6582C95.5539 19.6231 93.4245 17.6107 93.4245 13.7731ZM102.118 13.738V13.4455C102.118 11.281 101.029 9.98231 99.2979 9.98231C97.6014 9.98231 96.4782 11.1757 96.4782 13.4455V13.738C96.4782 15.8323 97.5663 17.0257 99.2979 17.0257C101.041 16.9906 102.118 15.8323 102.118 13.738ZM109.161 13.3051L105.078 7.71251H108.576L110.928 11.2108L113.314 7.71251H116.778L112.636 13.27L117 19.3423H113.572L110.904 15.4813L108.307 19.3423H104.727L109.161 13.3051Z" fill="white"/>
</g>
<defs>
<clipPath id="clip0_1239_7157">
<rect width="117" height="23.0373" fill="white" transform="translate(0 0.634277)"/>
</clipPath>
</defs>
</svg>
