<svg width="109" height="26" viewBox="0 0 109 26" fill="none" xmlns="http://www.w3.org/2000/svg">
<g clip-path="url(#clip0_1239_7039)">
<path d="M9.22023 9.57136C9.22023 10.6392 8.76846 11.5838 8.0292 12.3231C7.2078 13.1445 6.01677 13.3498 6.01677 14.048C6.01677 14.9926 7.53636 14.7051 8.99435 16.1631C9.95949 17.1283 10.555 18.4014 10.555 19.8799C10.555 22.7959 8.21402 25.1164 5.27751 25.1164C2.34099 25.1164 0 22.798 0 19.882C0 18.4035 0.595516 17.1303 1.56066 16.1652C3.01865 14.7072 4.53824 14.9947 4.53824 14.05C4.53824 13.3519 3.34721 13.1465 2.52581 12.3251C1.78655 11.5858 1.33478 10.6412 1.33478 9.53234C1.33478 7.3967 3.08026 5.67175 5.2159 5.67175C5.6266 5.67175 5.99623 5.73336 6.30426 5.73336C6.8587 5.73336 7.14619 5.48694 7.14619 5.09677C7.14619 4.87089 7.04352 4.5834 7.04352 4.27537C7.04352 3.57718 7.63904 3.0022 8.35776 3.0022C9.07649 3.0022 9.65147 3.59771 9.65147 4.31644C9.65147 5.07624 9.05595 5.42533 8.60418 5.58961C8.23455 5.71282 7.94706 5.8771 7.94706 6.24673C7.94706 6.94287 9.22023 7.62053 9.22023 9.57136ZM8.80953 19.882C8.80953 17.849 7.31047 16.2062 5.27751 16.2062C3.24454 16.2062 1.74548 17.849 1.74548 19.882C1.74548 21.8944 3.24454 23.5578 5.27751 23.5578C7.31047 23.5578 8.80953 21.8924 8.80953 19.882ZM7.59797 9.53029C7.59797 8.23658 6.55068 7.16876 5.27751 7.16876C4.00433 7.16876 2.95705 8.23658 2.95705 9.53029C2.95705 10.824 4.00433 11.8918 5.27751 11.8918C6.55068 11.8918 7.59797 10.824 7.59797 9.53029Z" fill="white"/>
<path d="M16.6128 5.87508C17.2699 5.87508 17.7628 6.36792 17.7628 6.98397C17.7628 7.60003 17.2905 8.09287 16.6334 8.09287C15.9557 8.09287 15.5861 7.66163 14.9084 7.66163C14.2513 7.66163 13.7379 8.13394 13.7379 8.9348V15.4033C13.7379 15.8962 13.3477 16.2863 12.8549 16.2863C12.3826 16.2863 11.9924 15.8962 11.9924 15.4033V6.69648C11.9924 6.20364 12.3826 5.81348 12.8549 5.81348C13.7379 5.81348 13.5736 6.65541 14.4566 6.65541C15.2986 6.65541 15.6066 5.87508 16.6128 5.87508Z" fill="white"/>
<path d="M18.5227 11.0498C18.5227 7.94901 20.6584 5.71069 23.5949 5.71069C26.285 5.71069 28.4206 7.68206 28.4206 10.3721C28.4206 11.0087 28.0099 11.44 27.4144 11.44H20.7405C20.453 11.44 20.3503 11.5426 20.3503 11.7685C20.3503 12.2819 20.761 13.2265 21.3771 13.8426C21.9931 14.4586 22.8351 14.8283 24.0261 14.8283C24.9091 14.8283 25.6894 14.4997 26.285 14.0685C26.4698 13.9247 26.6751 13.8426 26.8805 13.8426C27.3117 13.8426 27.6608 14.2327 27.6608 14.6434C27.6608 14.8899 27.5787 15.0952 27.3733 15.28C26.5108 15.9987 25.2993 16.3889 23.985 16.3889C20.8021 16.3889 18.5227 14.089 18.5227 11.0498ZM25.7921 8.09276C25.2171 7.51778 24.4779 7.23029 23.5949 7.23029C22.7119 7.23029 21.8905 7.57938 21.2949 8.1749C20.8226 8.6472 20.4941 9.26326 20.4941 9.67396C20.4941 9.87931 20.6173 9.96145 20.8842 9.96145H26.2233C26.4698 9.96145 26.593 9.87931 26.593 9.67396C26.593 9.18112 26.2028 8.50346 25.7921 8.09276Z" fill="white"/>
<path d="M30.1865 11.0498C30.1865 7.94901 32.3222 5.71069 35.2587 5.71069C37.9488 5.71069 40.0844 7.68206 40.0844 10.3721C40.0844 11.0087 39.6737 11.44 39.0782 11.44H32.4043C32.1168 11.44 32.0141 11.5426 32.0141 11.7685C32.0141 12.2819 32.4248 13.2265 33.0409 13.8426C33.6569 14.4586 34.4989 14.8283 35.6899 14.8283C36.5729 14.8283 37.3533 14.4997 37.9488 14.0685C38.1336 13.9247 38.3389 13.8426 38.5443 13.8426C38.9755 13.8426 39.3246 14.2327 39.3246 14.6434C39.3246 14.8899 39.2425 15.0952 39.0371 15.28C38.1747 15.9987 36.9631 16.3889 35.6488 16.3889C32.4659 16.3889 30.1865 14.089 30.1865 11.0498ZM37.4559 8.09276C36.8809 7.51778 36.1417 7.23029 35.2587 7.23029C34.3757 7.23029 33.5543 7.57938 32.9588 8.1749C32.4864 8.6472 32.1579 9.26326 32.1579 9.67396C32.1579 9.87931 32.2811 9.96145 32.5481 9.96145H37.8872C38.1336 9.96145 38.2568 9.87931 38.2568 9.67396C38.2568 9.18112 37.8666 8.50346 37.4559 8.09276Z" fill="white"/>
<path d="M50.3725 16.2862C49.8797 16.2862 49.4895 15.8961 49.4895 15.4032V9.8177C49.4895 8.35971 48.3396 7.25082 46.8611 7.25082C45.362 7.25082 44.212 8.38025 44.212 9.8177V15.4032C44.212 15.8961 43.8219 16.2862 43.329 16.2862C42.8567 16.2862 42.4666 15.8961 42.4666 15.4032V6.67584C42.4666 6.20353 42.8567 5.81337 43.3085 5.81337C44.171 5.81337 44.1299 6.5937 44.5817 6.5937C45.0334 6.5937 45.6495 5.71069 47.2512 5.71069C49.4895 5.71069 51.235 7.57938 51.235 9.8177V15.4032C51.235 15.8961 50.8448 16.2862 50.3725 16.2862Z" fill="white"/>
<path d="M62.1594 16.2858C61.6666 16.2858 61.2764 15.8957 61.2764 15.4028V9.81729C61.2764 8.3593 60.1264 7.25041 58.6479 7.25041C57.1489 7.25041 55.9989 8.37984 55.9989 9.81729V15.4028C55.9989 15.8957 55.6087 16.2858 55.1159 16.2858C54.6436 16.2858 54.2534 15.8957 54.2534 15.4028V1.56221C54.2534 1.06937 54.6436 0.679199 55.1159 0.679199C55.6087 0.679199 55.9989 1.06937 55.9989 1.56221V6.10045C55.9989 6.34687 56.1016 6.49062 56.3685 6.49062C56.8203 6.49062 57.4363 5.71028 59.0381 5.71028C61.2764 5.71028 63.0219 7.57897 63.0219 9.81729V15.4028C63.0219 15.8957 62.6317 16.2858 62.1594 16.2858Z" fill="white"/>
<path d="M65.4226 11.0498C65.4226 8.07222 67.8047 5.71069 70.8028 5.71069C73.8009 5.71069 76.183 8.07222 76.183 11.0498C76.183 14.0274 73.8009 16.3889 70.8028 16.3889C67.8067 16.3889 65.4226 14.0274 65.4226 11.0498ZM74.4395 11.0498C74.4395 8.97576 72.8994 7.27136 70.8048 7.27136C68.7308 7.27136 67.1907 8.97576 67.1907 11.0498C67.1907 13.1238 68.7308 14.8283 70.8048 14.8283C72.8994 14.8283 74.4395 13.1238 74.4395 11.0498Z" fill="white"/>
<path d="M79.4479 5.81348C79.9408 5.81348 80.3309 6.20364 80.3309 6.69648V12.282C80.3309 13.74 81.4809 14.8489 82.9594 14.8489C84.4585 14.8489 85.6084 13.7195 85.6084 12.282V6.69648C85.6084 6.20364 85.9986 5.81348 86.4914 5.81348C86.9637 5.81348 87.3539 6.20364 87.3539 6.69648V15.4239C87.3539 15.8962 86.9637 16.2863 86.512 16.2863C85.6495 16.2863 85.6906 15.506 85.2388 15.506C84.787 15.506 84.171 16.389 82.5692 16.389C80.3309 16.389 78.5854 14.5203 78.5854 12.282V6.69648C78.5875 6.20364 78.9756 5.81348 79.4479 5.81348Z" fill="white"/>
<path d="M90.4547 15.6291C90.0646 15.3827 89.7976 15.1363 89.7976 14.664C89.7976 14.2122 90.1467 13.8631 90.5779 13.8631C91.0913 13.8631 91.3172 14.1711 91.7484 14.397C92.2823 14.705 92.8984 14.8693 93.6582 14.8693C95.0546 14.8693 95.7528 14.2327 95.7528 13.4524C95.7528 12.3435 94.726 12.1382 93.3296 11.7685C91.6047 11.3168 89.9413 10.8034 89.9413 8.81148C89.9413 7.04547 91.2967 5.71069 93.6993 5.71069C94.6439 5.71069 95.5269 5.95711 96.2251 6.38835C96.4715 6.53209 96.7179 6.84012 96.7179 7.18922C96.7179 7.64099 96.3483 8.03115 95.876 8.03115C95.568 8.03115 95.3215 7.8258 95.0135 7.62045C94.7055 7.4151 94.2537 7.23029 93.6377 7.23029C92.2618 7.23029 91.6663 7.8258 91.6663 8.62667C91.6663 9.67396 92.6725 9.92038 94.11 10.2695C95.7938 10.6802 97.4572 11.2141 97.4572 13.2471C97.4572 15.0131 96.1429 16.3889 93.6171 16.3889C92.385 16.3889 91.2761 16.1425 90.4547 15.6291Z" fill="white"/>
<path d="M99.1001 11.0498C99.1001 7.94901 101.236 5.71069 104.172 5.71069C106.862 5.71069 108.998 7.68206 108.998 10.3721C108.998 11.0087 108.587 11.44 107.992 11.44H101.318C101.03 11.44 100.928 11.5426 100.928 11.7685C100.928 12.2819 101.338 13.2265 101.954 13.8426C102.571 14.4586 103.412 14.8283 104.603 14.8283C105.486 14.8283 106.267 14.4997 106.862 14.0685C107.047 13.9247 107.253 13.8426 107.458 13.8426C107.889 13.8426 108.238 14.2327 108.238 14.6434C108.238 14.8899 108.156 15.0952 107.951 15.28C107.088 15.9987 105.877 16.3889 104.562 16.3889C101.382 16.3889 99.1001 14.089 99.1001 11.0498ZM106.372 8.09276C105.797 7.51778 105.057 7.23029 104.174 7.23029C103.291 7.23029 102.47 7.57938 101.874 8.1749C101.402 8.6472 101.074 9.26326 101.074 9.67396C101.074 9.87931 101.197 9.96145 101.464 9.96145H106.803C107.049 9.96145 107.172 9.87931 107.172 9.67396C107.172 9.18112 106.782 8.50346 106.372 8.09276Z" fill="white"/>
</g>
<defs>
<clipPath id="clip0_1239_7039">
<rect width="108.998" height="24.437" fill="white" transform="translate(0 0.679443)"/>
</clipPath>
</defs>
</svg>
