<svg width="80" height="20" viewBox="0 0 80 20" fill="none" xmlns="http://www.w3.org/2000/svg">
<g clip-path="url(#clip0_23_2322)">
<g clip-path="url(#clip1_23_2322)">
<path d="M0 4.40906H6.51832V15.8161H0V19.0753H17.1106V15.8161H10.5923V4.40906H17.1106V1.1499H0V4.40906Z" fill="white"/>
<path d="M41.5454 19.0753H58.656V15.8161H44.8046V11.7422H56.2116V8.48301H44.8046V4.40906H58.656V1.1499H41.5454V19.0753Z" fill="white"/>
<path d="M70.5501 0.334961C68.01 0.386174 65.5929 1.43854 63.8247 3.26304C62.0566 5.08754 61.0807 7.53651 61.1092 10.077C61.054 11.3524 61.2575 12.6258 61.7075 13.8204C62.1575 15.015 62.8446 16.1062 63.7276 17.0282C64.6105 17.9502 65.6709 18.684 66.845 19.1852C68.019 19.6865 69.2824 19.9449 70.559 19.9449C71.8356 19.9449 73.0989 19.6865 74.273 19.1852C75.447 18.684 76.5075 17.9502 77.3904 17.0282C78.2734 16.1062 78.9605 15.015 79.4105 13.8204C79.8605 12.6258 80.064 11.3524 80.0088 10.077C80.037 8.81375 79.8137 7.55749 79.3519 6.38133C78.8901 5.20517 78.1989 4.1326 77.3187 3.22602C76.4385 2.31945 75.3868 1.59698 74.2248 1.10065C73.0628 0.604318 71.8137 0.34404 70.5501 0.334961V0.334961ZM70.5501 16.5511C69.7194 16.5384 68.8994 16.3615 68.1373 16.0305C67.3752 15.6995 66.6862 15.2209 66.1099 14.6224C65.5336 14.0239 65.0815 13.3173 64.7796 12.5433C64.4776 11.7692 64.3319 10.9431 64.3506 10.1124C64.3506 8.46824 65.0038 6.89137 66.1664 5.72874C67.3291 4.56611 68.9059 3.91295 70.5501 3.91295C72.1943 3.91295 73.7712 4.56611 74.9338 5.72874C76.0965 6.89137 76.7496 8.46824 76.7496 10.1124C76.7684 10.9431 76.6226 11.7692 76.3207 12.5433C76.0188 13.3173 75.5666 14.0239 74.9903 14.6224C74.4141 15.2209 73.725 15.6995 72.963 16.0305C72.2009 16.3615 71.3809 16.5384 70.5501 16.5511Z" fill="white"/>
<path d="M29.5716 1.1499H21.1846V19.0753H29.4122C30.5976 19.0992 31.7755 18.8803 32.8731 18.4319C33.9708 17.9836 34.965 17.3153 35.7947 16.4682C36.6244 15.6211 37.2718 14.6132 37.6973 13.5064C38.1228 12.3997 38.3172 11.2176 38.2686 10.0329C38.2863 5.06444 34.8677 1.30932 29.5716 1.1499ZM29.4919 15.8161H24.4437V4.40906H29.4919C32.751 4.48877 34.8057 6.85343 34.8057 10.1126C34.8057 13.3718 32.7688 15.7364 29.4919 15.8161Z" fill="white"/>
</g>
</g>
<defs>
<clipPath id="clip0_23_2322">
<rect width="80" height="19.555" fill="white" transform="translate(0 0.334961)"/>
</clipPath>
<clipPath id="clip1_23_2322">
<rect width="80" height="19.555" fill="white" transform="translate(0 0.334961)"/>
</clipPath>
</defs>
</svg>
