<svg width="120" height="24" viewBox="0 0 120 24" fill="none" xmlns="http://www.w3.org/2000/svg">
<g clip-path="url(#clip0_23_2339)">
<g clip-path="url(#clip1_23_2339)">
<path fill-rule="evenodd" clip-rule="evenodd" d="M10.3519 16.6573L13.6927 20.0708L10.9058 23.0392C10.0021 24.0017 8.53653 24.0017 7.6328 23.0392L0.677796 15.6317C-0.225932 14.6688 -0.225932 13.1083 0.677796 12.1457C1.58181 11.1832 3.04705 11.1832 3.95077 12.1457L9.26929 17.8103L10.3519 16.6573ZM11.2203 15.7323L14.1793 12.5808L17.452 16.0667L14.7273 18.9688L11.2203 15.7323Z" fill="white"/>
<path fill-rule="evenodd" clip-rule="evenodd" d="M24.6085 18.9029L21.1214 15.6451L29.3161 6.91721C30.2198 5.95468 31.685 5.95468 32.5891 6.91721C33.4928 7.87974 33.4928 9.44031 32.5891 10.4031L24.6085 18.9029ZM23.524 20.058L20.7254 23.0387C19.8214 24.0012 18.3562 24.0012 17.4525 23.0387L5.58771 10.4019C4.68398 9.43907 4.68398 7.87851 5.58771 6.91598C6.49144 5.95314 7.95667 5.95314 8.86069 6.91598L19.089 17.8098L20.2394 16.5845L23.524 20.058Z" fill="white"/>
<path fill-rule="evenodd" clip-rule="evenodd" d="M19.5801 14.846L22.8376 11.3439L28.9086 17.81L34.226 12.1466C35.13 11.1841 36.5952 11.1841 37.499 12.1466C38.4027 13.1095 38.4027 14.67 37.499 15.6326L30.5451 23.0389C29.6414 24.0014 28.1762 24.0014 27.2724 23.0389L19.5801 14.846ZM18.2306 13.4087L10.4976 5.1726C9.59389 4.21007 9.59389 2.6495 10.4976 1.68697C11.4016 0.724134 12.8669 0.724134 13.7706 1.68697L21.5116 9.93166L18.2306 13.4087Z" fill="white"/>
<path fill-rule="evenodd" clip-rule="evenodd" d="M27.6793 1.68821C26.7756 0.725676 25.3103 0.725676 24.4063 1.68821L14.1792 12.5808L17.4522 16.0667L27.6793 5.17414C28.583 4.2113 28.583 2.65074 27.6793 1.68821Z" fill="white"/>
<path fill-rule="evenodd" clip-rule="evenodd" d="M50.1575 3.39036H47.3115V21.1957H57.7392V18.5068H50.1575V3.39036ZM63.8986 8.74408C65.6289 8.74408 66.7901 9.49506 67.4276 10.4156L67.5642 8.98633H70.0231V21.1957H67.5642L67.4276 19.7665C66.7901 20.687 65.6289 21.438 63.8986 21.438C60.7794 21.438 58.662 18.749 58.662 15.091C58.662 11.4088 60.7794 8.74408 63.8986 8.74408ZM64.4905 11.3119C62.7147 11.3119 61.4396 12.7897 61.4396 15.091C61.4396 17.3924 62.7147 18.8701 64.4905 18.8701C65.8566 18.8701 66.6763 18.0949 67.291 17.0533V13.1288C66.6763 12.0871 65.8566 11.3119 64.4905 11.3119ZM76.9111 4.89231H74.1789V8.98633H72.016V11.4573H74.1789V16.8837C74.1789 19.8391 75.841 21.438 78.4593 21.438C79.5977 21.438 80.4401 21.0988 81.0093 20.7112L80.2807 18.4341C79.9392 18.6521 79.4383 18.8217 78.7097 18.8217C77.6397 18.8217 76.9111 18.0949 76.9111 16.8595V11.4573H80.3718V8.98633H76.9111V4.89231ZM86.3263 4.89231H83.5941V8.98633H81.4312V11.4573H83.5941V16.8837C83.5941 19.8391 85.2562 21.438 87.8745 21.438C89.0129 21.438 89.8553 21.0988 90.4245 20.7112L89.6959 18.4341C89.3544 18.6521 88.8535 18.8217 88.1249 18.8217C87.0548 18.8217 86.3263 18.0949 86.3263 16.8595V11.4573H89.787V8.98633H86.3263V4.89231ZM94.9901 8.98633H92.258V21.1957H94.9901V8.98633ZM93.624 3.29346C92.6678 3.29346 91.9392 4.04443 91.9392 5.08611C91.9392 6.12778 92.6678 6.87876 93.624 6.87876C94.603 6.87876 95.3316 6.12778 95.3316 5.08611C95.3316 4.04443 94.603 3.29346 93.624 3.29346ZM103.244 8.74408C99.7151 8.74408 97.37 11.4088 97.37 15.091C97.37 18.749 99.7379 21.438 103.267 21.438C105.339 21.438 106.91 20.4448 107.934 18.749L105.976 17.1259C105.43 18.0949 104.542 18.8944 103.29 18.8944C101.263 18.8944 100.148 17.2228 100.148 15.091C100.148 12.935 101.218 11.2877 103.267 11.2877C104.542 11.2877 105.384 12.0629 105.908 13.0319L107.889 11.4331C106.864 9.73731 105.339 8.74408 103.244 8.74408ZM114.617 8.74408C118.146 8.74408 119.877 11.5542 119.877 14.9699V15.9874H111.771C111.84 17.9254 112.933 18.9913 114.845 18.9913C116.188 18.9913 117.167 18.3614 117.691 17.5862L119.581 19.2335C118.442 20.687 116.94 21.438 114.822 21.438C111.27 21.438 108.994 18.7732 108.994 15.1153C108.994 11.4331 111.316 8.74408 114.617 8.74408ZM114.572 11.0697C112.955 11.0697 111.862 12.2083 111.771 13.904H117.19C117.122 12.2325 116.211 11.0697 114.572 11.0697Z" fill="white"/>
</g>
</g>
<defs>
<clipPath id="clip0_23_2339">
<rect width="120" height="22.8" fill="white" transform="translate(0 0.960938)"/>
</clipPath>
<clipPath id="clip1_23_2339">
<rect width="120" height="22.8" fill="white" transform="translate(0 0.960938)"/>
</clipPath>
</defs>
</svg>
