<svg width="90" height="28" viewBox="0 0 90 28" fill="none" xmlns="http://www.w3.org/2000/svg">
<g clip-path="url(#clip0_11249_838)">
<g clip-path="url(#clip1_11249_838)">
<mask id="mask0_11249_838" style="mask-type:luminance" maskUnits="userSpaceOnUse" x="-1" y="0" width="92" height="28">
<path d="M-0.735352 0.561712H90.7356V27.7551H-0.735352V0.561712Z" fill="white"/>
</mask>
<g mask="url(#mask0_11249_838)">
<path d="M13.5437 0.833648C12.8004 2.72655 12.0069 4.62622 11.1894 6.53888L10.0833 9.07445L8.96426 6.53888C8.12053 4.62622 7.31174 2.72655 6.55327 0.833648H0.36269V1.32979C1.04909 1.32979 1.6131 1.90258 1.6131 2.60855C1.51248 3.91567 1.40326 5.22517 1.2699 6.53888L0.859012 10.5303C0.662167 12.4408 0.43916 14.3446 0.179199 16.2354H2.15735C2.27974 14.3446 2.43268 12.4408 2.62513 10.5303L3.23506 4.51243C4.11373 6.34203 4.95527 8.18261 5.77064 10.0276L5.99584 10.5303C6.84176 12.4408 7.64616 14.3446 8.40903 16.2354H9.00798C9.75548 14.3446 10.5469 12.4408 11.3687 10.5303L11.725 9.71054C12.5228 7.86557 13.3534 6.02518 14.2103 4.19777L14.8552 10.5303C15.0476 12.4408 15.2072 14.3446 15.323 16.2354H19.874C19.6117 14.3446 19.3865 12.4408 19.1942 10.5303L18.7877 6.53888C18.5974 4.62622 18.4335 2.72655 18.3221 0.833648H13.5437Z" fill="white"/>
<path d="M33.9578 14.7045C34.4539 13.7601 34.9896 12.805 35.5578 11.8497L41.0859 2.64935V2.26023H28.9216V5.09089H29.4023C29.4023 4.40888 29.927 3.85146 30.5827 3.80993C30.963 3.79694 31.3413 3.79036 31.7151 3.79036H35.6408C35.1535 4.71494 34.6332 5.64832 34.0714 6.58169L28.5149 15.8477V16.2346H41.6346V14.5909C40.7122 14.6652 39.7766 14.7045 38.8454 14.7045H33.9578Z" fill="white"/>
<path d="M56.4462 16.235C56.4855 16.2328 56.5248 16.2284 56.562 16.2262C56.4899 15.2818 56.4462 14.3355 56.4462 13.3824V9.92H61.8781V13.3824C61.8781 14.3355 61.8453 15.2906 61.7733 16.235H65.957C65.8805 15.2906 65.8455 14.3355 65.8455 13.3824V5.11539C65.8455 4.15568 65.8805 3.20712 65.957 2.25839H60.6235V2.70001H60.7437C61.3382 2.70001 61.817 3.1698 61.8585 3.76455C61.8715 4.21257 61.8781 4.66279 61.8781 5.11539V8.38768H56.4462V5.11539C56.4462 4.15568 56.4811 3.20712 56.5576 2.25839H51.2263V2.70001H51.3421C51.9344 2.70001 52.4154 3.1656 52.4569 3.75796C52.4723 4.21038 52.4809 4.6606 52.4809 5.11539V14.7923C51.9323 14.8622 51.3682 14.8951 50.7978 14.8951C50.1835 14.8951 49.5782 14.847 48.988 14.7508C47.3135 14.4315 47.0468 12.8599 47.0468 11.8806V5.03453C47.0468 4.10537 47.0883 3.18078 47.1584 2.25839H41.8269V2.70001H41.9405C42.5351 2.70001 43.0116 3.1656 43.0532 3.75577C43.0685 4.21038 43.0773 4.6606 43.0773 5.11539V11.2183C43.0773 12.5911 43.5122 15.625 47.237 16.1759C48.3998 16.3356 49.589 16.4272 50.7978 16.4272C52.6951 16.4272 54.5794 16.3596 56.4462 16.235Z" fill="white"/>
<path d="M83.8653 9.24854C83.8653 14.0094 79.7493 16.427 75.6944 16.427C71.6396 16.427 67.5322 14.0094 67.5322 9.24854C67.5322 4.48546 71.6396 2.06788 75.6944 2.06788C79.7493 2.06788 83.8653 4.48546 83.8653 9.24854ZM79.8826 9.24854C79.8782 6.65387 78.794 3.60021 75.6944 3.60021C72.5992 3.60021 71.5107 6.65387 71.5107 9.24854C71.5107 11.841 72.5992 14.8947 75.6944 14.8947C78.794 14.8947 79.8782 11.841 79.8826 9.24854Z" fill="white"/>
<path d="M26.6228 5.11577C26.6228 4.15624 26.6577 3.2075 26.7386 2.25877H21.2651V2.75509H21.3787C22.0871 2.75509 22.6401 3.3277 22.6401 4.04025C22.6509 4.39443 22.6553 4.753 22.6553 5.11577V13.3827C22.6553 14.3359 22.6182 15.2912 22.5549 16.2354H26.7386C26.6577 15.2912 26.6228 14.3359 26.6228 13.3827V5.11577Z" fill="white"/>
<path d="M7.79091 23.9113C18.8123 21.4412 30.2663 20.1363 42.0263 20.1363C58.6283 20.1363 74.6485 22.626 89.74 27.2557C89.7969 27.2732 89.8296 27.3257 89.8186 27.389C89.8056 27.4481 89.7422 27.4941 89.6833 27.4809C74.1743 24.9212 58.2893 23.4611 42.1072 23.179C30.5482 22.9758 19.1269 23.3844 7.86519 24.3593C7.75158 24.3703 7.65096 24.2982 7.62041 24.1868C7.59205 24.0643 7.66852 23.9397 7.79091 23.9113Z" fill="white"/>
</g>
</g>
</g>
<defs>
<clipPath id="clip0_11249_838">
<rect width="90" height="27.0081" fill="white" transform="translate(0 0.654297)"/>
</clipPath>
<clipPath id="clip1_11249_838">
<rect width="90" height="27.0081" fill="white" transform="translate(0 0.654297)"/>
</clipPath>
</defs>
</svg>
