<svg width="120" height="23" viewBox="0 0 120 23" fill="none" xmlns="http://www.w3.org/2000/svg">
<g clip-path="url(#clip0_1239_7007)">
<path d="M2.48791 17.6617C2.0458 17.6626 1.61135 17.5462 1.22895 17.3243C0.846555 17.1024 0.529915 16.783 0.31138 16.3987C0.0961897 16.017 -0.0111313 15.5841 0.000912958 15.1461C0.0129572 14.7081 0.143913 14.2817 0.379753 13.9125L4.86196 6.87379C5.09137 6.4955 5.41707 6.18488 5.80581 5.97366C6.19454 5.76244 6.63237 5.65819 7.07458 5.67155C7.51645 5.68214 7.94757 5.80994 8.32383 6.04187C8.70009 6.27381 9.00797 6.60154 9.21597 6.99155C9.63381 7.78164 9.58158 8.73223 9.08113 9.4739L4.60177 16.5126C4.37461 16.8666 4.06178 17.1575 3.69226 17.3583C3.32274 17.5592 2.90849 17.6635 2.48791 17.6617Z" fill="white"/>
<path d="M10.1755 17.6614C9.27148 17.6614 8.43962 17.178 8.00279 16.4012C7.78808 16.0206 7.68101 15.5888 7.69305 15.152C7.7051 14.7152 7.83581 14.2899 8.07116 13.9217L12.5448 6.89912C12.7709 6.51551 13.0954 6.19936 13.4848 5.98345C13.8742 5.76755 14.3142 5.65975 14.7593 5.67124C15.671 5.69118 16.4971 6.20114 16.915 6.99883C17.33 7.79653 17.2692 8.75282 16.7535 9.49258L12.2808 16.5152C12.0544 16.8676 11.7428 17.1574 11.3749 17.3577C11.0069 17.558 10.5945 17.6625 10.1755 17.6614Z" fill="white"/>
<path d="M17.6919 17.7205C18.9663 17.7205 19.9994 16.7091 19.9994 15.4613C19.9994 14.2136 18.9663 13.2021 17.6919 13.2021C16.4174 13.2021 15.3843 14.2136 15.3843 15.4613C15.3843 16.7091 16.4174 17.7205 17.6919 17.7205Z" fill="white"/>
<path d="M117.939 13.3331C118.636 13.3331 119.053 13.8288 119.053 14.6408V17.4232H120V14.5771C120 13.1964 119.35 12.3958 118.126 12.3958C117.648 12.3958 116.888 12.5269 116.435 13.4072C116.33 13.1475 116.156 12.9212 115.933 12.7524C115.709 12.5835 115.444 12.4783 115.166 12.448C114.99 12.4159 114.812 12.4054 114.634 12.4167C114.244 12.448 113.551 12.6902 113.292 13.2391V12.5012H112.344V17.4232H113.292V14.7671C113.292 13.7339 113.968 13.3331 114.645 13.3331C115.279 13.3331 115.696 13.8184 115.696 14.6303V17.4232H116.638V14.7671C116.638 13.9447 117.132 13.3236 117.939 13.3331ZM108.866 16.6008C109.299 16.6103 109.717 16.4375 110.02 16.1241C110.323 15.8107 110.485 15.3843 110.469 14.9465C110.469 13.9551 109.739 13.3331 108.866 13.3331C107.991 13.3331 107.263 13.9551 107.263 14.9465C107.246 15.3834 107.407 15.8088 107.709 16.1212C108.011 16.4346 108.427 16.6084 108.858 16.6008H108.866ZM108.866 17.5239C107.481 17.5239 106.325 16.5011 106.325 14.9408C106.325 13.3806 107.481 12.3901 108.866 12.3901C110.25 12.3901 111.415 13.3806 111.415 14.9408C111.415 16.5011 110.244 17.5286 108.859 17.5286L108.866 17.5239ZM101.449 14.9408L101.44 14.9465C101.44 13.3863 102.626 12.3958 104.02 12.3901C104.37 12.3833 104.718 12.4502 105.04 12.5863C105.363 12.7224 105.654 12.9247 105.893 13.1802L105.175 13.7918C105.023 13.642 104.842 13.524 104.644 13.4445C104.446 13.3649 104.233 13.3255 104.02 13.3284C103.146 13.3284 102.386 13.9504 102.386 14.9408C102.386 15.6103 102.784 16.2134 103.395 16.4698C104.006 16.7262 104.708 16.5837 105.175 16.1108L105.904 16.7224C105.663 16.9805 105.372 17.1852 105.047 17.3233C104.722 17.4614 104.372 17.5297 104.02 17.5239C102.636 17.5239 101.449 16.5011 101.449 14.9408ZM98.417 16.4783C98.416 16.3923 98.432 16.3069 98.464 16.227C98.496 16.1471 98.5434 16.0743 98.6036 16.0127C98.6637 15.9512 98.7354 15.9021 98.8145 15.8682C98.8936 15.8344 98.9786 15.8165 99.0647 15.8155C99.1507 15.8165 99.2357 15.8344 99.3149 15.8682C99.394 15.9021 99.4656 15.9512 99.5258 16.0127C99.5859 16.0743 99.6334 16.1471 99.6654 16.227C99.6974 16.3069 99.7133 16.3923 99.7123 16.4783C99.7039 16.645 99.6321 16.8021 99.5118 16.9177C99.3914 17.0333 99.2315 17.0986 99.0647 17.1003C98.8978 17.0986 98.7379 17.0333 98.6176 16.9177C98.4972 16.8021 98.4255 16.645 98.417 16.4783Z" fill="white"/>
<path fill-rule="evenodd" clip-rule="evenodd" d="M101.008 6.24392H97.6358L95.2722 12.3377L92.9209 6.24392H89.5488L93.6483 15.8732L91.0986 22.2396H94.446L101.008 6.24392ZM80.4999 11.5999C80.4999 13.1383 81.8445 14.1506 83.1655 14.1506C84.4636 14.1506 85.7389 13.2086 85.7389 11.5989C85.7389 9.98929 84.4636 9.0463 83.1655 9.0463C81.8445 9.0463 80.4999 10.0596 80.4999 11.5989V11.5999ZM85.7389 16.9767V15.7583C85.0552 16.7934 83.4598 17.1847 82.6413 17.1847C79.9311 17.1847 77.2199 15.048 77.2199 11.5989C77.2199 8.15079 79.9301 6.0141 82.6413 6.0141C83.324 6.0141 84.9194 6.24202 85.7389 7.43856V6.24771H88.8822V16.9786L85.7389 16.9777V16.9767ZM76.3253 16.9767H73.1821V15.6434C72.657 16.631 71.3835 17.2065 70.0616 17.2065C67.3277 17.2065 64.9128 15.0233 64.9128 11.6426C64.9128 8.19827 67.3277 6.0122 70.0616 6.0122C71.3816 6.0122 72.6589 6.56299 73.1821 7.55157V0.397949H76.3253V16.9767ZM73.1137 11.5752C73.1137 9.96649 71.9523 9.0235 70.6542 9.0235C69.3095 9.0235 68.1928 10.0349 68.1928 11.5752C68.1928 13.1649 69.3095 14.1715 70.6533 14.1715C71.9761 14.1734 73.1137 13.1155 73.1137 11.5752ZM57.1411 11.2979C57.1411 9.66641 57.9844 9.11467 59.1002 9.11467C60.1704 9.11467 60.9453 9.8269 60.9453 11.2514V16.9748H64.1113V10.5629C64.1113 7.50693 62.6071 6.0122 60.215 6.0122C58.9625 6.0122 57.7099 6.72443 57.1402 7.80512V6.24392H53.976V16.9748H57.1411V11.2979ZM47.5471 17.159C44.5406 17.159 42.0326 14.953 42.0326 11.5742C42.0326 8.19352 44.5377 6.00936 47.5471 6.00936C50.5564 6.00936 53.0834 8.19352 53.0834 11.5742C53.0834 14.9549 50.5536 17.16 47.5471 17.16V17.159ZM47.5471 14.0347C48.8671 14.0347 49.962 13.068 49.962 11.5752C49.962 10.127 48.868 9.13841 47.5471 9.13841C47.229 9.13343 46.9133 9.19326 46.6191 9.31423C46.3249 9.43521 46.0584 9.61481 45.8359 9.84209C45.612 10.0706 45.4364 10.3418 45.3194 10.6395C45.2025 10.9372 45.1465 11.2554 45.155 11.5752C45.1559 13.0699 46.249 14.0347 47.5471 14.0347ZM36.3568 9.11562C37.2902 9.11562 38.1107 9.85159 38.1107 11.2523V16.9767H41.2539V10.8819C41.2539 7.64178 39.6785 6.0103 37.1535 6.0103C36.4033 6.0103 34.9902 6.23822 33.9647 7.91718C33.3721 6.676 32.2335 6.03215 30.5508 6.03215C29.9665 6.02918 29.3938 6.19453 28.9011 6.50844C28.4083 6.82234 28.0164 7.27152 27.7722 7.80227V6.24487H24.6042V16.9758H27.7693V11.2979C27.7693 9.66641 28.6582 9.11467 29.6144 9.11467C30.5261 9.11467 31.3447 9.8269 31.3684 11.183V16.9758H34.5344V11.2979C34.5344 9.73763 35.3549 9.11657 36.3568 9.11657V9.11562Z" fill="white"/>
</g>
<defs>
<clipPath id="clip0_1239_7007">
<rect width="120" height="21.8417" fill="white" transform="translate(0 0.397949)"/>
</clipPath>
</defs>
</svg>
