<svg width="71" height="21" viewBox="0 0 71 21" fill="none" xmlns="http://www.w3.org/2000/svg">
<g clip-path="url(#clip0_23_2351)">
<g clip-path="url(#clip1_23_2351)">
<path d="M57.9069 20.7907C54.0536 20.7907 50.9185 17.5161 50.9185 13.4979C50.9185 9.4796 54.0536 6.20508 57.9069 6.20508C61.7602 6.20508 64.8953 9.4796 64.8953 13.4979C64.8953 17.5161 61.7505 20.7907 57.9069 20.7907ZM58.3339 9.53756C56.2957 9.53756 54.6454 11.3149 54.6454 13.4882C54.6454 15.6713 56.3053 17.4389 58.3339 17.4389C60.3625 17.4389 62.0218 15.6616 62.0218 13.4882C62.0218 11.3149 60.3625 9.53756 58.3339 9.53756Z" fill="white"/>
<path d="M25.7601 6.39795H22.033V20.5585H25.7601V6.39795Z" fill="white"/>
<path d="M8.07544 20.5589V6.39826C8.07544 5.20051 7.09513 4.23458 5.90132 4.23458C4.69775 4.23458 3.72713 5.20051 3.72713 6.39826H0C0 3.16239 2.64977 0.535049 5.90132 0.535049C9.15281 0.535049 11.8026 3.17205 11.8026 6.40794V16.8594H13.9671V6.39826C13.9671 3.16239 16.6168 0.525391 19.8683 0.525391C23.1199 0.525391 25.7697 3.16239 25.7697 6.39826H22.0425C22.0425 5.20051 21.0621 4.23458 19.8683 4.23458C18.6647 4.23458 17.6942 5.21017 17.6942 6.39826V20.5589H8.07544Z" fill="white"/>
<path d="M3.72713 6.39795H0V20.5585H3.72713V6.39795Z" fill="white"/>
<path d="M40.1734 6.39795H36.4463V14.3863H40.1734V6.39795Z" fill="white"/>
<path d="M33.7187 20.7903C30.1664 20.7903 27.2739 17.9118 27.2739 14.3765H31.0011C31.0011 15.8641 32.224 17.0811 33.7187 17.0811C35.2136 17.0811 36.4365 15.8641 36.4365 14.3765H40.1636C40.1636 17.9118 37.2712 20.7903 33.7187 20.7903Z" fill="white"/>
<path d="M31.0111 6.39795H27.2839V14.3863H31.0111V6.39795Z" fill="white"/>
<path d="M70.9997 0.756836H67.2727V6.39792H70.9997V0.756836Z" fill="white"/>
<path d="M65.749 6.39795H62.0215V20.5585H65.749V6.39795Z" fill="white"/>
<path d="M70.9997 6.39795H67.2727V20.5585H70.9997V6.39795Z" fill="white"/>
<path d="M45.4243 10.0977H41.6973V20.5491H45.4243V10.0977Z" fill="white"/>
<path d="M50.8694 6.39795H41.6973V10.1071H50.8694V6.39795Z" fill="white"/>
</g>
</g>
<defs>
<clipPath id="clip0_23_2351">
<rect width="71" height="20.2857" fill="white" transform="translate(0 0.525391)"/>
</clipPath>
<clipPath id="clip1_23_2351">
<rect width="71" height="20.2857" fill="white" transform="translate(0 0.525391)"/>
</clipPath>
</defs>
</svg>
