<svg width="110" height="16" viewBox="0 0 110 16" fill="none" xmlns="http://www.w3.org/2000/svg">
<g clip-path="url(#clip0_11566_695)">
<g clip-path="url(#clip1_11566_695)">
<path d="M3.0926 6.96414V15.2773H0V0.377776H0.0590345L9.55688 8.90826V0.596472H12.6696V15.496H12.6106L3.0926 6.96414ZM15.1665 7.93687C15.1665 3.47306 18.4577 0.338867 23.0972 0.338867C24.565 0.338867 25.7337 0.596472 26.7252 1.05265V4.04865C25.7739 3.53344 24.5436 3.25571 23.0972 3.25571C20.0838 3.25571 18.3195 5.14078 18.3195 7.93821C18.3195 10.7356 20.0838 12.6207 23.0972 12.6207C24.5449 12.6207 25.7739 12.343 26.7252 11.8264V14.8023C25.7337 15.2786 24.5637 15.5362 23.0972 15.5362C18.4577 15.5362 15.1665 12.3819 15.1665 7.93821V7.93687ZM29.6608 0.596472H34.4386C38.0665 0.596472 40.0696 2.61974 40.0696 5.61574C40.0696 7.52095 39.1774 9.06792 37.2346 9.80182L40.5258 15.2773H37.016L32.7534 7.93687H34.4976C36.0244 7.93687 36.9368 7.0044 36.9368 5.61574C36.9368 4.22709 35.9855 3.31474 34.4788 3.31474H32.7534V15.2786H29.6608V0.596472ZM44.7495 0.596472H48.1601L51.8282 8.77006L55.4763 0.596472H58.8869L51.8484 15.5161H51.7692L44.7495 0.596472ZM80.26 9.50397L75.0838 0.596472H78.6124L81.8043 6.32952L84.9962 0.596472H88.5249L83.35 9.50397V15.2773H80.2574V9.50397H80.26ZM90.732 0.596472H93.8246V15.2773H90.732V0.596472ZM103 10.1399L99.7293 15.2786H96.041L101.078 7.77989L96.2597 0.597814H99.948L103.022 5.39839L106.096 0.597814H109.784L104.946 7.75977L110.001 15.2786H106.313L103.002 10.1399H103Z" fill="white"/>
<path d="M66.4755 1.96316C66.4755 2.95199 65.6745 3.75298 64.6857 3.75298C63.6969 3.75298 62.8959 2.95199 62.8959 1.96316C62.8959 0.97433 63.6982 0.17334 64.6857 0.17334C65.6745 0.17334 66.4755 0.97433 66.4755 1.96316ZM59.3967 5.46229C59.3967 6.45112 60.1977 7.25211 61.1865 7.25211C62.1754 7.25211 62.9764 6.45112 62.9764 5.46229C62.9764 4.47346 62.1754 3.67247 61.1865 3.67247C60.1977 3.67247 59.3967 4.47346 59.3967 5.46229ZM59.3967 10.4105C59.3967 11.3993 60.1977 12.2003 61.1865 12.2003C62.1754 12.2003 62.9764 11.3993 62.9764 10.4105C62.9764 9.42163 62.1754 8.62064 61.1865 8.62064C60.1977 8.62064 59.3967 9.42163 59.3967 10.4105ZM64.6857 15.6994C65.6745 15.6994 66.4755 14.8984 66.4755 13.9096C66.4755 12.9208 65.6745 12.1198 64.6857 12.1198C63.6969 12.1198 62.8959 12.9208 62.8959 13.9096C62.8959 14.8984 63.6969 15.6994 64.6857 15.6994ZM69.6338 15.6994C70.6227 15.6994 71.4237 14.8984 71.4237 13.9096C71.4237 12.9208 70.6227 12.1198 69.6338 12.1198C68.645 12.1198 67.844 12.9208 67.844 13.9096C67.844 14.8984 68.645 15.6994 69.6338 15.6994ZM74.9228 10.4105C74.9228 9.42163 74.1218 8.62064 73.133 8.62064C72.1441 8.62064 71.3432 9.42163 71.3432 10.4105C71.3432 11.3993 72.1441 12.2003 73.133 12.2003C74.1218 12.2003 74.9228 11.3993 74.9228 10.4105ZM74.9228 5.46229C74.9228 4.47346 74.1218 3.67247 73.133 3.67247C72.1441 3.67247 71.3432 4.47346 71.3432 5.46229C71.3432 6.45112 72.1441 7.25211 73.133 7.25211C74.1218 7.25211 74.9228 6.45112 74.9228 5.46229ZM69.6352 0.17334C68.6464 0.17334 67.8454 0.97433 67.8454 1.96316C67.8454 2.95199 68.6464 3.75298 69.6352 3.75298C70.624 3.75298 71.425 2.95199 71.425 1.96316C71.425 0.97433 70.6227 0.17334 69.6352 0.17334Z" fill="white"/>
</g>
</g>
<defs>
<clipPath id="clip0_11566_695">
<rect width="110" height="15.5261" fill="white" transform="translate(0 0.17334)"/>
</clipPath>
<clipPath id="clip1_11566_695">
<rect width="110" height="15.5261" fill="white" transform="translate(0 0.17334)"/>
</clipPath>
</defs>
</svg>
