<svg width="125" height="31" viewBox="0 0 125 31" fill="none" xmlns="http://www.w3.org/2000/svg">
<g clip-path="url(#clip0_1239_7081)">
<path d="M21.2815 21.2497C19.5611 21.5024 18.6998 20.0478 19.2644 18.7925C19.7334 17.7483 19.9646 16.6243 19.9646 15.428C19.9644 14.2313 19.7521 13.129 19.2823 12.0843C18.8656 11.0666 19.5641 9.35585 21.285 9.60818C22.2082 9.7441 22.9267 8.86659 22.9267 7.65373C22.9267 6.44255 22.2082 5.27103 21.285 5.02831C20.3157 4.77471 19.4945 5.62998 19.4945 6.95176C19.4945 9.25583 18.2457 10.1851 17.2374 9.31852C16.3477 8.5516 15.3088 8.05707 14.117 7.86435C12.8497 7.65975 11.6049 7.85651 10.4939 8.37253C9.33284 8.79688 7.1498 7.3655 7.1498 4.42133C7.1498 2.70578 5.70068 0.93439 3.80095 0.436037C1.76706 -0.0974258 0.00847872 1.01597 0.00773057 2.95886C0.00822932 4.90327 1.76681 6.73704 3.80044 7.03611C6.82112 7.47966 8.23682 9.40663 7.67074 10.8255C6.83334 12.0765 6.32361 13.6483 6.32338 15.429C6.32338 17.1226 6.78845 18.624 7.55351 19.8443C8.08098 21.064 6.91389 23.3534 3.79446 23.8121C1.75983 24.1096 0.000498747 25.944 0 27.8878C0 29.8315 1.75933 30.9451 3.79399 30.4119C5.69345 29.9136 7.14334 28.1427 7.14334 26.4266V26.4259C7.14402 23.5646 8.94581 21.9377 10.338 22.4042C11.4884 22.9768 12.7894 23.2082 14.1175 22.9933C15.3033 22.8018 16.3307 22.3221 17.2177 21.5616C18.0446 20.9043 19.4908 21.6023 19.4908 23.9058C19.4908 25.2274 20.312 26.0849 21.2818 25.8298C22.2047 25.587 22.9234 24.4163 22.9234 23.2039C22.9234 21.9915 22.2045 21.1137 21.2815 21.2497ZM14.0614 20.1562C11.6196 20.435 9.41862 18.3322 9.41862 15.4288C9.41862 12.5258 11.6196 10.4238 14.0614 10.7026C16.2455 10.952 17.8536 13.058 17.8536 15.428C17.8536 17.7996 16.2455 19.9066 14.0614 20.1562Z" fill="white"/>
<path d="M21.801 10.88H24.294V11.9545L24.4183 11.8113L24.5766 11.6142C25.1601 10.9875 25.779 10.7011 26.5748 10.6655H26.8755V12.957C26.7514 12.9213 26.6276 12.9034 26.504 12.8855C25.0897 12.7597 24.4002 13.4947 24.4002 14.9092V20.1552H21.801V10.88Z" fill="white"/>
<path d="M29.5051 10.7546C28.9922 10.7907 28.5327 10.8261 28.0024 10.9155V12.921C28.1435 12.8854 28.2859 12.8677 28.4265 12.8498C29.4168 12.724 30.3006 12.724 30.8662 12.796C32.3686 12.9753 32.9699 13.5663 32.9699 14.5153V15.1594C32.4928 14.801 31.9267 14.5868 31.0779 14.4966C30.6711 14.4431 30.265 14.461 29.8584 14.5153C27.8787 14.7651 26.764 15.9829 26.7296 17.4337C26.6582 18.92 27.9672 20.2983 30.1771 20.2983C31.1489 20.3162 31.9088 20.0654 32.6162 19.5643C32.7048 19.4925 32.8112 19.4034 32.8988 19.3317V20.1553H35.4627V14.6762C35.4623 12.0081 33.8002 10.5937 29.5051 10.7546ZM32.4217 18.3466C32.1924 18.5085 31.9088 18.6153 31.5023 18.6694C31.2906 18.705 31.0781 18.705 30.8487 18.6873C29.8407 18.5977 29.3272 18.0599 29.311 17.3981C29.3637 16.5562 30.1414 15.9296 31.5023 16.1091C31.9973 16.1622 32.4043 16.3597 32.6522 16.5924C33.1464 17.0579 33.0756 17.9174 32.4217 18.3466Z" fill="white"/>
<path d="M37.4124 10.8797H39.9049V11.883C39.9752 11.811 40.0472 11.7392 40.1167 11.6675C40.8414 11.0234 41.5843 10.719 42.4681 10.7011C44.6951 10.647 46.0745 12.1689 46.0745 14.8195V20.1554H43.4762V15.1592C43.4938 13.798 43.0161 13.1002 42.0789 12.8496C40.7887 12.5273 40.0103 13.2431 40.0103 14.676V20.1551H37.4124V10.8797Z" fill="white"/>
<path d="M54.6983 10.8796V11.9542C53.6024 10.6291 51.2689 10.3608 49.4835 11.65C48.5108 12.3482 47.8389 13.4224 47.6443 14.676C47.5922 14.9802 47.5743 15.2671 47.5743 15.5712C47.5561 15.8578 47.5743 16.1622 47.6088 16.4487C47.8034 18.0784 48.723 19.3494 50.1017 19.9763C51.8517 20.7823 53.6378 20.3705 54.5747 19.2783V19.9589C54.5747 21.3188 53.726 22.1066 51.8517 22.143C51.3571 22.1606 50.8625 22.0892 50.3672 21.9457V24.2379C50.9152 24.3271 51.4453 24.3634 51.9753 24.3634C55.4757 24.3101 57.1916 22.6977 57.1916 20.1013V10.8796H54.6983ZM54.6983 15.9475C54.5571 17.1822 53.8855 17.9523 52.9132 18.114C51.4987 18.3645 50.4027 17.5047 50.2257 15.9291C50.2085 15.7851 50.1905 15.6608 50.1905 15.5169C50.1905 15.3739 50.2088 15.2309 50.2257 15.0872C50.4027 13.6548 51.2328 12.867 52.4537 12.867C53.6726 12.867 54.522 13.6548 54.6983 15.1056C54.7338 15.3742 54.7338 15.6608 54.6983 15.9475Z" fill="white"/>
<path d="M68.0804 15.4587C68.0335 12.7404 66.2146 10.8048 63.6169 10.6174C62.9838 10.5795 62.3548 10.6546 61.7636 10.8533C61.5997 10.9092 61.4386 10.9776 61.2845 11.0489C59.6436 11.8205 58.5034 13.5128 58.5034 15.4708C58.5034 17.1213 59.3119 18.5754 60.5487 19.4547L60.5679 19.4665C61.021 19.7762 61.5406 20.0235 62.1166 20.1894C63.9673 20.7355 65.7271 20.2472 67.0943 18.8225C67.175 18.7353 67.2338 18.6592 67.3142 18.5703L65.3372 17.1859C65.2889 17.2274 65.2568 17.2741 65.2082 17.3149C64.8369 17.7088 64.4757 17.9386 64.0774 18.045C63.4129 18.2405 62.7683 18.1801 62.2642 17.8833C61.5504 17.4857 61.1646 16.775 61.2092 16.1728L68.0477 16.2137C68.0652 15.9579 68.0788 15.7192 68.0804 15.4587ZM61.3149 14.5257C61.3544 14.3882 61.3781 14.2458 61.4335 14.1132C61.7977 13.1018 62.6703 12.5012 63.6727 12.5358C64.7872 12.5661 65.5875 13.3054 65.7254 14.2976L65.7541 14.4552L65.7585 14.5689L61.3149 14.5257Z" fill="white"/>
<path d="M68.8345 10.8801H69.8608V8.51635L71.1855 7.96143V10.8801H73.6436L73.3956 11.8654H71.1862V16.7535L71.2047 16.9143L71.222 17.6125C71.2392 18.7052 71.9115 19.2965 73.2899 19.2074C73.3956 19.2074 73.5024 19.1886 73.6088 19.1712V20.2091C73.5031 20.227 73.3956 20.2447 73.2899 20.2447C70.6919 20.4604 69.8615 19.5468 69.8615 16.789V11.8654H68.676L68.8345 10.8801Z" fill="white"/>
<path d="M74.7554 7.71406L76.099 7.1748V12.3836C76.2574 12.1515 76.4527 11.936 76.6642 11.7398C77.178 11.2561 77.7966 10.9338 78.4848 10.7906C81.1544 10.2175 83.1354 11.9545 83.1354 14.7661V20.1557H81.7919V15.2131C81.7919 12.9386 80.7665 11.7931 78.9807 11.8287C77.1949 11.8471 76.099 13.0466 76.099 14.98V20.1552H74.7554V7.71406Z" fill="white"/>
<path d="M107.011 10.8796H108.319V12.1873C108.371 12.1155 108.408 12.0438 108.461 11.972C109.097 11.0769 109.91 10.6293 110.97 10.6113C111.094 10.6113 111.218 10.6113 111.342 10.6293V11.9005C111.218 11.8829 111.077 11.865 110.934 11.865C110.122 11.8288 109.415 12.1155 108.937 12.6526C108.531 13.1357 108.355 13.6373 108.355 14.4611V20.1551H107.011V10.8796Z" fill="white"/>
<path d="M123.314 7.45508C124.263 7.45508 125 8.20174 125 9.13174C125 10.0833 124.263 10.8196 123.304 10.8196C122.354 10.8196 121.598 10.083 121.598 9.13174C121.598 8.20174 122.354 7.45508 123.304 7.45508H123.314ZM123.294 7.79234C122.566 7.79234 122.022 8.39576 122.022 9.13154C122.022 9.87813 122.566 10.4714 123.314 10.4714C124.041 10.4813 124.576 9.87813 124.576 9.13154C124.576 8.39545 124.041 7.79234 123.303 7.79234H123.294ZM123.041 10.0012H122.658V8.33461C122.809 8.3033 123.021 8.27274 123.294 8.27274C123.607 8.27274 123.748 8.32404 123.869 8.40582C123.96 8.47754 124.03 8.61069 124.03 8.76375C124.03 8.95798 123.889 9.10122 123.687 9.1623V9.18283C123.849 9.23409 123.94 9.36717 123.99 9.59199C124.04 9.8476 124.071 9.94992 124.111 10.0012H123.697C123.647 9.94003 123.616 9.79682 123.566 9.60256C123.536 9.41822 123.434 9.33634 123.222 9.33634H123.041V10.0012H123.041ZM123.051 9.06053H123.233C123.445 9.06053 123.617 8.98881 123.617 8.81501C123.617 8.6614 123.505 8.55943 123.263 8.55943C123.162 8.55943 123.092 8.56925 123.051 8.57989V9.06053Z" fill="white"/>
<path d="M101.169 10.6291C97.8277 10.1454 95.3882 12.3303 95.3882 15.4817C95.3882 18.633 97.8277 20.8179 101.169 20.3342C103.678 19.9583 105.235 18.0778 105.235 15.4817C105.235 12.8855 103.678 11.0054 101.169 10.6291ZM100.938 19.2233C100.52 19.2968 100.102 19.2968 99.702 19.2233C97.8632 18.9093 96.6987 17.4722 96.6987 15.4815C96.6987 14.2832 97.099 13.3252 97.827 12.6427C98.4635 12.0345 99.3193 11.7029 100.32 11.7029C101.32 11.7029 102.177 12.0345 102.813 12.6427C103.376 13.1771 103.723 13.8407 103.869 14.6702C104.269 17.0299 103.013 18.8543 100.938 19.2233Z" fill="white"/>
<path d="M112.436 10.877H113.78V15.9451C113.78 17.8966 114.433 18.8096 115.954 19.0958C116.36 19.1683 116.767 19.1683 117.174 19.0782C118.711 18.7915 119.418 17.8607 119.418 16.2312V10.877H120.745V19.7587C120.745 22.3188 118.906 24.0023 115.158 23.7702C114.928 23.7702 114.717 23.7341 114.504 23.7156V22.5699C114.717 22.6063 114.928 22.6232 115.14 22.6416C118.057 22.8025 119.402 21.6038 119.402 19.526V18.6842C119.331 18.7912 119.242 18.8814 119.172 18.9708C118.376 19.866 117.457 20.2774 116.183 20.2774C114.435 20.2774 113.388 19.4184 112.861 18.4553C112.777 18.3018 112.707 18.1067 112.649 17.907C112.5 17.3959 112.436 16.8152 112.436 16.1444V10.877Z" fill="white"/>
<path d="M93.9602 15.8657C93.9781 15.6667 93.9795 15.4621 93.9764 15.2755C93.8545 12.3957 91.4163 10.3283 88.5808 10.7519C86.9156 11.004 85.5767 12.0567 84.9463 13.6071L84.9531 13.5841C84.7217 14.1747 84.5967 14.8355 84.5967 15.5455C84.5967 17.8632 85.9251 19.6512 87.9575 20.2145L87.9602 20.2118C89.4582 20.6366 91.0767 20.3845 92.3095 19.5073C92.6784 19.2402 93.0007 18.941 93.2794 18.5927L92.2815 17.8819C92.2244 17.9589 92.1544 18.0133 92.1017 18.0729C90.8447 19.2966 89.173 19.5661 87.7947 18.8407C86.6869 18.2656 86.046 17.2666 85.9717 16.0733C85.973 15.9994 85.9757 15.9259 85.9828 15.8347L93.9602 15.8657ZM86.1977 14.1292C86.7011 12.6361 87.9622 11.7289 89.4808 11.7506C90.9764 11.7844 92.1683 12.7175 92.5474 14.0709C92.5987 14.2156 92.6291 14.3732 92.6419 14.525L92.6676 14.7L92.6757 14.8696L86.0575 14.8335C86.0693 14.5953 86.1352 14.3535 86.1977 14.1292Z" fill="white"/>
<path d="M62.3621 30.5457H63.556V27.8175H66.6705V26.7405H63.556V25.2025H66.736V24.126H62.3621V30.5457Z" fill="white"/>
<path d="M70.7744 24.126H69.5808V30.5457H70.7744V24.126Z" fill="white"/>
<path d="M73.4429 25.2025H75.3321V30.5457H76.526V25.2025H78.4152V24.126H73.4429V25.2025Z" fill="white"/>
<path d="M85.4053 28.501L82.3057 24.1469L82.2915 24.126H81.0935V30.5457H82.2871V26.0484L85.452 30.5245L85.4672 30.5457H86.5989V24.126H85.4053V28.501Z" fill="white"/>
<path d="M89.8569 30.5457H94.2302V29.4689H91.0505V27.8175H94.165V26.7405H91.0505V25.2025H94.2302V24.126H89.8569V30.5457Z" fill="white"/>
<path d="M99.5646 26.6478L99.5561 26.6455C98.8433 26.4626 98.2274 26.3045 98.2274 25.8534C98.2274 25.4063 98.622 25.1176 99.2341 25.1176C99.9264 25.1176 100.555 25.3679 101.004 25.8229L101.044 25.8635L101.733 24.9577L101.7 24.9264C101.095 24.3323 100.297 24.0312 99.3274 24.0312C97.9821 24.0312 97.0054 24.8294 97.0054 25.9291C97.0054 27.307 98.2554 27.6207 99.2588 27.8725L99.2733 27.8764C100.009 28.0694 100.643 28.236 100.643 28.7617C100.643 29.136 100.328 29.5732 99.4402 29.5732C98.4443 29.5732 97.7987 29.0372 97.5027 28.7177L97.4615 28.673L96.7939 29.6088L96.822 29.6392C97.4389 30.3067 98.3281 30.6594 99.3926 30.6594C100.584 30.6594 101.856 30.1335 101.856 28.6573C101.856 27.2383 100.586 26.9107 99.5646 26.6478Z" fill="white"/>
<path d="M107.055 26.6478L107.047 26.6455C106.334 26.4626 105.718 26.3045 105.718 25.8534C105.718 25.4063 106.112 25.1176 106.725 25.1176C107.417 25.1176 108.045 25.3679 108.495 25.8229L108.534 25.8635L109.223 24.9577L109.191 24.9264C108.585 24.3323 107.787 24.0312 106.818 24.0312C105.473 24.0312 104.496 24.8294 104.496 25.9291C104.496 27.307 105.746 27.6207 106.75 27.8725L106.764 27.8764C107.499 28.0694 108.134 28.236 108.134 28.7617C108.134 29.136 107.819 29.5732 106.931 29.5732C105.935 29.5732 105.289 29.0372 104.993 28.7177L104.952 28.673L104.284 29.6088L104.312 29.6392C104.929 30.3067 105.819 30.6594 106.883 30.6594C108.074 30.6594 109.346 30.1335 109.346 28.6573C109.346 27.2383 108.076 26.9107 107.055 26.6478Z" fill="white"/>
</g>
<defs>
<clipPath id="clip0_1239_7081">
<rect width="125" height="30.3567" fill="white" transform="translate(0 0.302734)"/>
</clipPath>
</defs>
</svg>
