<svg width="110" height="14" viewBox="0 0 110 14" fill="none" xmlns="http://www.w3.org/2000/svg">
<g clip-path="url(#clip0_11249_717)">
<g clip-path="url(#clip1_11249_717)">
<path d="M37.7799 11.1306C37.233 11.1525 36.6893 11.0369 36.1986 10.7944C35.7079 10.5519 35.2858 10.1902 34.9709 9.7425L36.012 8.78C36.2326 9.05849 36.5147 9.28206 36.8362 9.43316C37.1577 9.58425 37.5098 9.65876 37.865 9.65083C38.7227 9.65083 39.1287 9.40202 39.1287 8.82583C39.1287 8.24964 38.8799 8.11869 37.5114 7.79131C36.143 7.46393 35.2459 7.01869 35.2459 5.51274C35.2459 4.12464 36.4049 3.28 37.865 3.28C38.3629 3.2744 38.8558 3.3789 39.3086 3.58605C39.7614 3.79319 40.1628 4.09784 40.484 4.47821L39.4364 5.54547C39.2368 5.30207 38.9861 5.10552 38.7021 4.96974C38.4181 4.83396 38.1078 4.76228 37.793 4.75976C37.0204 4.75976 36.7584 5.10678 36.7584 5.44726C36.7584 5.92524 37.0727 6.10202 38.2186 6.36393C39.3644 6.62583 40.6412 7.05798 40.6412 8.71452C40.6281 10.1681 39.7573 11.1306 37.7799 11.1306Z" fill="white"/>
<path d="M45.1394 11.1306C43.2472 11.1306 41.9573 9.66391 41.9573 7.20201C41.9573 4.7401 43.2668 3.27344 45.1591 3.27344C47.0513 3.27344 48.3347 4.73356 48.3347 7.20201C48.3347 9.67046 47.0186 11.1306 45.1394 11.1306ZM45.1394 4.77284C44.1311 4.77284 43.4567 5.63058 43.4567 7.18237C43.4567 8.73415 44.1573 9.61153 45.1722 9.61153C46.187 9.61153 46.8483 8.77344 46.8483 7.20201C46.8483 5.63058 46.1412 4.79249 45.1263 4.79249L45.1394 4.77284Z" fill="white"/>
<path d="M53.0357 11.1304C51.294 11.1304 50.1155 9.8864 50.1155 7.6602V3.39771H51.5625V7.6602C51.5625 8.87806 52.119 9.62449 53.0357 9.62449C53.9524 9.62449 54.5286 8.87806 54.5286 7.6602V3.39771H55.9756V7.6602C55.9952 9.8733 54.9018 11.1304 53.0357 11.1304Z" fill="white"/>
<path d="M62.8049 11.0257L60.1465 6.8614C59.9697 6.57985 59.734 6.20663 59.6358 6.00366C59.6358 6.28521 59.6358 7.24771 59.6358 7.66675V11.0257H58.2346V3.39771H59.6162L62.2025 7.43104C62.3793 7.71259 62.615 8.0858 62.7066 8.28878C62.7066 8.00723 62.7066 7.05128 62.7066 6.62568V3.39771H64.134V11.0257H62.8049Z" fill="white"/>
<path d="M68.5406 11.0257H66.3799V3.39771H68.6454C70.7144 3.39771 72.24 4.41913 72.24 7.21497C72.24 9.89294 70.4001 11.0257 68.5406 11.0257ZM68.593 4.87747H67.8269V9.54592H68.5406C70.0596 9.54592 70.7537 8.60961 70.7537 7.21497C70.7537 5.65009 70.1251 4.87747 68.593 4.87747Z" fill="white"/>
<path d="M78.5255 5.62403C78.4163 5.36973 78.2329 5.15432 77.9992 5.00596C77.7656 4.8576 77.4926 4.7832 77.216 4.79248C76.1291 4.79248 75.5071 5.79427 75.5071 7.2151C75.5071 8.63594 76.1618 9.63117 77.2226 9.63117C77.5296 9.63215 77.8297 9.54008 78.0833 9.36709C78.337 9.1941 78.5322 8.94831 78.6434 8.66213L79.8809 9.4282C79.6608 9.95763 79.2819 10.4057 78.7964 10.7106C78.3108 11.0156 77.7426 11.1623 77.1702 11.1306C75.2976 11.1306 73.988 9.61808 73.988 7.20201C73.988 4.78594 75.2976 3.27344 77.2029 3.27344C77.76 3.25231 78.3102 3.40308 78.7787 3.70527C79.2472 4.00747 79.6114 4.44647 79.822 4.96272L78.5255 5.62403Z" fill="white"/>
<path d="M81.9436 11.0257V3.39771H83.3972V9.51973H87.0246V11.0257H81.9436Z" fill="white"/>
<path d="M90.9595 11.1306C89.0672 11.1306 87.7773 9.66391 87.7773 7.20201C87.7773 4.7401 89.0869 3.27344 90.9791 3.27344C92.8714 3.27344 94.1547 4.73356 94.1547 7.20201C94.1547 9.67046 92.8452 11.1306 90.9595 11.1306ZM90.9595 4.77284C89.9446 4.77284 89.2702 5.63058 89.2702 7.18237C89.2702 8.73415 89.9773 9.61153 90.9857 9.61153C91.994 9.61153 92.675 8.75379 92.675 7.20201C92.675 5.65022 91.9678 4.79249 90.9529 4.79249L90.9595 4.77284Z" fill="white"/>
<path d="M98.8692 11.1304C97.121 11.1304 95.9424 9.8864 95.9424 7.6602V3.39771H97.3894V7.6602C97.3894 8.87806 97.946 9.62449 98.8692 9.62449C99.7924 9.62449 100.355 8.87806 100.355 7.6602V3.39771H101.802V7.6602C101.816 9.8733 100.722 11.1304 98.8692 11.1304Z" fill="white"/>
<path d="M106.301 11.0716H104.14V3.4436H106.399C108.468 3.4436 110 4.46503 110 7.25432C110 9.93884 108.16 11.0716 106.301 11.0716ZM106.353 4.92337H105.587V9.59182H106.301C107.82 9.59182 108.514 8.64896 108.514 7.25432C108.514 5.69598 107.879 4.92337 106.353 4.92337Z" fill="white"/>
<path d="M29.3532 9.88639C29.2909 10.9418 28.8239 11.9325 28.0493 12.6521C27.2748 13.3717 26.2526 13.7648 25.1954 13.7495H15.1907C14.9713 13.7478 14.7614 13.6594 14.6069 13.5036C14.4524 13.3479 14.3657 13.1373 14.3657 12.9179V2.17329C14.36 1.99067 14.4094 1.81056 14.5075 1.65642C14.6056 1.50227 14.7478 1.38122 14.9157 1.30901C15.7867 0.826447 16.7762 0.599495 17.7704 0.654245C18.9615 0.650261 20.1314 0.969319 21.1556 1.57746C21.948 2.04191 22.6361 2.66481 23.1768 3.40724C23.7176 4.14967 24.0994 4.99566 24.2984 5.89234C24.6424 5.78925 25 5.73848 25.3591 5.74175C25.8965 5.74136 26.4285 5.84944 26.9232 6.05951C27.4178 6.26959 27.865 6.57733 28.2379 6.96431C28.6109 7.35129 28.9019 7.80955 29.0935 8.31164C29.2851 8.81374 29.3734 9.34935 29.3532 9.88639Z" fill="white"/>
<path d="M13.0953 2.84789C13.0953 2.76106 13.0608 2.67779 12.9994 2.6164C12.938 2.555 12.8548 2.52051 12.7679 2.52051C12.6811 2.52051 12.5978 2.555 12.5365 2.6164C12.4751 2.67779 12.4406 2.76106 12.4406 2.84789C12.0641 6.37577 12.0641 9.9337 12.4406 13.4616C12.4406 13.5484 12.4751 13.6317 12.5365 13.6931C12.5978 13.7545 12.6811 13.789 12.7679 13.789C12.8548 13.789 12.938 13.7545 12.9994 13.6931C13.0608 13.6317 13.0953 13.5484 13.0953 13.4616C13.6322 9.8211 13.4162 6.50146 13.0953 2.84789Z" fill="white"/>
<path d="M11.1311 4.10487C11.1108 4.03372 11.0679 3.97113 11.0088 3.92657C10.9497 3.88201 10.8778 3.85791 10.8038 3.85791C10.7298 3.85791 10.6578 3.88201 10.5987 3.92657C10.5397 3.97113 10.4967 4.03372 10.4764 4.10487C10.1163 7.2177 10.1163 10.3617 10.4764 13.4745C10.4916 13.5501 10.5325 13.6182 10.5922 13.6671C10.6519 13.7159 10.7266 13.7426 10.8038 13.7426C10.8809 13.7426 10.9557 13.7159 11.0154 13.6671C11.075 13.6182 11.1159 13.5501 11.1311 13.4745C11.5338 10.3643 11.5338 7.2151 11.1311 4.10487Z" fill="white"/>
<path d="M9.06858 3.78417C9.06858 3.69734 9.03409 3.61407 8.97269 3.55267C8.9113 3.49128 8.82803 3.45679 8.7412 3.45679C8.65437 3.45679 8.5711 3.49128 8.50971 3.55267C8.44831 3.61407 8.41382 3.69734 8.41382 3.78417C8.02743 7.00058 8.02743 10.2517 8.41382 13.4681C8.41382 13.5549 8.44831 13.6382 8.50971 13.6996C8.5711 13.761 8.65437 13.7955 8.7412 13.7955C8.82803 13.7955 8.9113 13.761 8.97269 13.6996C9.03409 13.6382 9.06858 13.5549 9.06858 13.4681C9.47126 10.2527 9.47126 6.99959 9.06858 3.78417Z" fill="white"/>
<path d="M7.05187 4.72694C7.03155 4.65579 6.9886 4.5932 6.92953 4.54864C6.87046 4.50408 6.79848 4.47998 6.72449 4.47998C6.6505 4.47998 6.57852 4.50408 6.51945 4.54864C6.46038 4.5932 6.41743 4.65579 6.39711 4.72694C6.02388 7.63306 6.02388 10.575 6.39711 13.4811C6.41231 13.5567 6.45323 13.6248 6.51291 13.6736C6.57259 13.7225 6.64735 13.7492 6.72449 13.7492C6.80163 13.7492 6.87639 13.7225 6.93607 13.6736C6.99575 13.6248 7.03667 13.5567 7.05187 13.4811C7.45127 10.5767 7.45127 7.63133 7.05187 4.72694Z" fill="white"/>
<path d="M5.0089 6.90729C4.99369 6.83166 4.95278 6.76362 4.8931 6.71475C4.83342 6.66587 4.75866 6.63916 4.68151 6.63916C4.60437 6.63916 4.52961 6.66587 4.46993 6.71475C4.41025 6.76362 4.36933 6.83166 4.35413 6.90729C3.86961 9.15967 4.09878 11.2287 4.35413 13.4942C4.35413 13.581 4.38863 13.6643 4.45002 13.7257C4.51142 13.7871 4.59469 13.8216 4.68151 13.8216C4.76834 13.8216 4.85161 13.7871 4.91301 13.7257C4.9744 13.6643 5.0089 13.581 5.0089 13.4942C5.2839 11.1894 5.51961 9.16621 5.0089 6.90729Z" fill="white"/>
<path d="M2.98582 6.54711C2.96198 6.47931 2.91768 6.42059 2.85904 6.37904C2.8004 6.3375 2.7303 6.31519 2.65844 6.31519C2.58657 6.31519 2.51647 6.3375 2.45783 6.37904C2.39919 6.42059 2.35489 6.47931 2.33105 6.54711C1.9681 8.74093 1.9681 10.9795 2.33105 13.1733C2.34626 13.2489 2.38717 13.317 2.44685 13.3658C2.50653 13.4147 2.58129 13.4414 2.65844 13.4414C2.73558 13.4414 2.81034 13.4147 2.87002 13.3658C2.9297 13.317 2.97062 13.2489 2.98582 13.1733C3.38523 10.9826 3.38523 8.73779 2.98582 6.54711Z" fill="white"/>
<path d="M0.942908 7.68652C0.919072 7.61872 0.874774 7.55999 0.816131 7.51845C0.757489 7.4769 0.687394 7.45459 0.615527 7.45459C0.54366 7.45459 0.473565 7.4769 0.414923 7.51845C0.35628 7.55999 0.311982 7.61872 0.288146 7.68652C-0.0621945 9.12341 -0.0621945 10.6234 0.288146 12.0603C0.288146 12.1472 0.322638 12.2304 0.384034 12.2918C0.44543 12.3532 0.5287 12.3877 0.615527 12.3877C0.702354 12.3877 0.785625 12.3532 0.84702 12.2918C0.908416 12.2304 0.942908 12.1472 0.942908 12.0603C1.36197 10.6325 1.36197 9.11434 0.942908 7.68652Z" fill="white"/>
</g>
</g>
<defs>
<clipPath id="clip0_11249_717">
<rect width="110" height="13.1149" fill="white" transform="translate(0 0.654297)"/>
</clipPath>
<clipPath id="clip1_11249_717">
<rect width="110" height="13.1149" fill="white" transform="translate(0 0.654297)"/>
</clipPath>
</defs>
</svg>
