<svg width="100" height="31" viewBox="0 0 100 31" fill="none" xmlns="http://www.w3.org/2000/svg">
<g clip-path="url(#clip0_11249_790)">
<g clip-path="url(#clip1_11249_790)">
<path d="M15.026 0.703857C6.7525 0.703857 0.045166 7.41101 0.045166 15.6845C0.045166 23.9584 6.7525 30.665 15.026 30.665C23.3004 30.665 30.0071 23.9584 30.0071 15.6845C30.0071 7.41155 23.3004 0.704573 15.0258 0.704573L15.026 0.703857ZM21.8962 22.3103C21.6278 22.7504 21.0518 22.8899 20.6117 22.6198C17.0944 20.4713 12.6665 19.9847 7.45179 21.1761C6.94928 21.2906 6.44839 20.9758 6.3339 20.4731C6.21887 19.9704 6.53247 19.4695 7.03622 19.355C12.7428 18.0513 17.6378 18.6126 21.5867 21.0259C22.0267 21.296 22.1663 21.8702 21.8962 22.3103ZM23.7298 18.2312C23.3917 18.7808 22.6725 18.9543 22.1233 18.6162C18.0965 16.1411 11.9582 15.4243 7.19526 16.87C6.57755 17.0566 5.92513 16.7085 5.73765 16.0919C5.55161 15.4742 5.89991 14.823 6.51654 14.6352C11.9572 12.9844 18.7208 13.784 23.3452 16.6257C23.8944 16.9638 24.0679 17.6827 23.7298 18.2312ZM23.8872 13.9836C19.0589 11.1158 11.0929 10.8522 6.48309 12.2513C5.74284 12.4758 4.96001 12.0579 4.73568 11.3176C4.51136 10.577 4.92889 9.79473 5.66967 9.56969C10.9614 7.96325 19.7584 8.27363 25.3173 11.5736C25.9845 11.9688 26.2028 12.8287 25.8074 13.4937C25.4139 14.1595 24.5516 14.379 23.8879 13.9836H23.8872ZM40.8031 14.5332C38.2164 13.9164 37.7566 13.4835 37.7566 12.5738C37.7566 11.7144 38.5652 11.1361 39.7691 11.1361C40.9355 11.1361 42.0911 11.5752 43.304 12.4793C43.3398 12.5067 43.3863 12.5176 43.431 12.5105C43.4775 12.5037 43.5169 12.4788 43.5437 12.4414L44.8067 10.6611C44.8586 10.5878 44.8443 10.4867 44.7745 10.4307C43.3309 9.27273 41.7065 8.70976 39.8067 8.70976C37.0142 8.70976 35.0625 10.3858 35.0625 12.7838C35.0625 15.3554 36.7459 16.2659 39.6546 16.9688C42.1287 17.5389 42.5473 18.0166 42.5473 18.8702C42.5473 19.8166 41.7029 20.4051 40.3434 20.4051C38.8335 20.4051 37.601 19.8953 36.2235 18.7039C36.1895 18.6734 36.143 18.6609 36.1001 18.6627C36.0536 18.6663 36.0124 18.6878 35.9838 18.7217L34.567 20.4069C34.508 20.4785 34.5151 20.5822 34.5831 20.643C36.186 22.0742 38.1573 22.8291 40.2861 22.8291C43.2951 22.8291 45.2396 21.1851 45.2396 18.6395C45.245 16.4915 43.9588 15.3019 40.8085 14.5355L40.8031 14.5332ZM52.0482 11.9822C50.7441 11.9822 49.6743 12.496 48.7906 13.5488V12.3638C48.7906 12.2702 48.7155 12.194 48.6224 12.194H46.3058C46.2128 12.194 46.1377 12.2702 46.1377 12.3638V25.5303C46.1377 25.6234 46.2128 25.7003 46.3058 25.7003H48.6224C48.7155 25.7003 48.7906 25.6234 48.7906 25.5303V21.3747C49.6743 22.364 50.7441 22.8488 52.0482 22.8488C54.4722 22.8488 56.9266 20.9829 56.9266 17.416C56.9301 13.8484 54.4758 11.982 52.05 11.982L52.0482 11.9822ZM54.2325 17.416C54.2325 19.2316 53.1144 20.4999 51.5115 20.4999C49.9284 20.4999 48.7334 19.1743 48.7334 17.416C48.7334 15.6575 49.9284 14.3323 51.5115 14.3323C53.0876 14.3321 54.2325 15.6289 54.2325 17.416ZM63.2146 11.9822C60.0929 11.9822 57.6475 14.3858 57.6475 17.4548C57.6475 20.491 60.0768 22.8684 63.177 22.8684C66.3094 22.8684 68.762 20.4731 68.762 17.416C68.762 14.3693 66.3255 11.9826 63.2146 11.9826V11.9822ZM63.2146 20.5178C61.5545 20.5178 60.3022 19.1833 60.3022 17.4151C60.3022 15.6389 61.5115 14.35 63.177 14.35C64.8479 14.35 66.1072 15.684 66.1072 17.4539C66.1072 19.2298 64.8908 20.5178 63.2146 20.5178ZM75.4275 12.194H72.8783V9.58829C72.8783 9.49491 72.8031 9.41871 72.7101 9.41871H70.3935C70.3004 9.41871 70.2235 9.49491 70.2235 9.58829V12.194H69.1108C69.0178 12.194 68.9427 12.2702 68.9427 12.3638V14.3543C68.9427 14.4477 69.0178 14.5241 69.1108 14.5241H70.2235V19.6752C70.2235 21.7557 71.2593 22.8112 73.304 22.8112C74.1341 22.8112 74.8228 22.6395 75.4722 22.2709C75.5259 22.2423 75.5581 22.1851 75.5581 22.1243V20.228C75.5581 20.1708 75.5276 20.1153 75.4776 20.0849C75.4275 20.0527 75.3648 20.0509 75.313 20.0777C74.8675 20.3014 74.4364 20.4051 73.9534 20.4051C73.211 20.4051 72.8783 20.067 72.8783 19.3121V14.525H75.4275C75.5205 14.525 75.5956 14.4488 75.5956 14.3552V12.3649C75.5992 12.2713 75.5241 12.1951 75.4292 12.1951L75.4275 12.194ZM84.3076 12.2042V11.8842C84.3076 10.9427 84.669 10.5228 85.4776 10.5228C85.9606 10.5228 86.3487 10.6187 86.7835 10.7636C86.8371 10.7804 86.8926 10.772 86.9355 10.74C86.9802 10.708 87.0053 10.6566 87.0053 10.6022V8.65055C87.0053 8.57595 86.9588 8.50994 86.8854 8.48794C86.4275 8.35144 85.8407 8.21137 84.9606 8.21137C82.8228 8.21137 81.6904 9.41602 81.6904 11.6938V12.184H80.5777C80.4847 12.184 80.4078 12.2602 80.4078 12.3536V14.3543C80.4078 14.4477 80.4847 14.5241 80.5777 14.5241H81.6904V22.4677C81.6904 22.5625 81.7674 22.6377 81.8604 22.6377H84.1752C84.27 22.6377 84.3452 22.5625 84.3452 22.4677V14.5246H86.508L89.821 22.4677C89.4454 23.3014 89.075 23.4677 88.5706 23.4677C88.1627 23.4677 87.7316 23.3461 87.2933 23.1046C87.2521 23.0831 87.2021 23.0795 87.1591 23.0921C87.1144 23.1082 87.0768 23.1404 87.0589 23.1833L86.2736 24.906C86.236 24.9883 86.2682 25.0831 86.347 25.126C87.1663 25.5697 87.9051 25.7593 88.8192 25.7593C90.5294 25.7593 91.4758 24.9615 92.3076 22.8183L96.3255 12.4361C96.347 12.3838 96.3398 12.3248 96.3076 12.2785C96.2772 12.2325 96.2253 12.2048 96.1699 12.2048H93.7584C93.6851 12.2048 93.6207 12.2507 93.5974 12.3185L91.1269 19.3729L88.4221 12.3139C88.397 12.2482 88.3344 12.2048 88.2647 12.2048H84.3076V12.2042ZM79.1591 12.194H76.8425C76.7495 12.194 76.6725 12.2702 76.6725 12.3638V22.4677C76.6725 22.5625 76.7495 22.6377 76.8425 22.6377H79.1591C79.2521 22.6377 79.3291 22.5625 79.3291 22.4677V12.3645C79.3291 12.2709 79.2539 12.1947 79.1591 12.1947V12.194ZM78.0142 7.59312C77.0965 7.59312 76.3523 8.33588 76.3523 9.25341C76.3523 10.1715 77.0965 10.9151 78.0142 10.9151C78.9319 10.9151 79.6743 10.1715 79.6743 9.25341C79.6743 8.33606 78.9301 7.59312 78.0142 7.59312ZM98.304 15.4429C97.3881 15.4429 96.6743 14.7067 96.6743 13.8128C96.6743 12.9189 97.3971 12.1743 98.313 12.1743C99.2289 12.1743 99.9427 12.9103 99.9427 13.8035C99.9427 14.6974 99.22 15.4429 98.304 15.4429ZM98.313 12.3364C97.4776 12.3364 96.8461 13.0001 96.8461 13.8128C96.8461 14.6251 97.474 15.2799 98.304 15.2799C99.1395 15.2799 99.7709 14.6167 99.7709 13.8035C99.7709 12.9912 99.143 12.3364 98.313 12.3364ZM98.6743 13.9711L99.1359 14.6166H98.7459L98.3309 14.0244H97.9749V14.6166H97.6493V12.9056H98.4114C98.8103 12.9056 99.0715 13.109 99.0715 13.4514C99.0733 13.7319 98.9105 13.9033 98.6761 13.9711H98.6743ZM98.3988 13.1992H97.9749V13.7404H98.3988C98.6099 13.7404 98.7369 13.6368 98.7369 13.4695C98.7369 13.2935 98.6099 13.1992 98.3988 13.1992Z" fill="white"/>
</g>
</g>
<defs>
<clipPath id="clip0_11249_790">
<rect width="100" height="30.0537" fill="white" transform="translate(0 0.654297)"/>
</clipPath>
<clipPath id="clip1_11249_790">
<rect width="100" height="30.0537" fill="white" transform="translate(0 0.654297)"/>
</clipPath>
</defs>
</svg>
