<svg width="113" height="16" viewBox="0 0 113 16" fill="none" xmlns="http://www.w3.org/2000/svg">
<g clip-path="url(#clip0_1239_7223)">
<path d="M8.4704 1.93586C8.4704 0.708266 7.30418 0.401367 6.38349 0.401367V0.585506C6.9359 0.585506 7.36556 0.769645 7.36556 1.1993C7.36556 1.44482 7.18142 1.8131 6.62901 1.8131C6.19935 1.8131 5.27865 1.56758 4.60348 1.32206C3.80554 1.01516 3.06898 0.769645 2.45519 0.769645C1.22759 0.769645 0.368278 1.69034 0.368278 2.7338C0.368278 3.65449 1.04345 3.96139 1.28897 4.08415L1.35035 3.96139C1.22759 3.83863 1.04345 3.71587 1.04345 3.34759C1.04345 3.10207 1.28897 2.67242 1.90277 2.67242C2.45519 2.67242 3.19174 2.91793 4.17382 3.22483C5.03313 3.47035 5.95383 3.65449 6.44487 3.71587V5.61865L5.52417 6.41659V6.47797L6.44487 7.2759V9.91523C5.95383 10.2221 5.40141 10.2835 4.91038 10.2835C3.98968 10.2835 3.19174 10.038 2.51657 9.30143L5.03313 8.07384V3.83863L1.96415 5.18898C2.20967 4.39105 2.88485 3.83863 3.56002 3.47035L3.49864 3.28621C1.65725 3.77725 0 5.49589 0 7.5828C0 10.038 2.02553 11.8794 4.29658 11.8794C6.75177 11.8794 8.34764 9.91523 8.34764 7.8897H8.22488C7.8566 8.68764 7.30418 9.42419 6.62901 9.79247V7.2759L7.61108 6.47797V6.41659L6.62901 5.61865V3.71587C7.5497 3.71587 8.4704 3.10207 8.4704 1.93586ZM3.13036 8.68763L2.39381 9.05591C1.96415 8.5035 1.71863 7.76694 1.71863 6.72348C1.71863 6.29383 1.71863 5.80279 1.84139 5.43451L3.13036 4.88208V8.68763ZM9.63661 10.0994L8.83868 10.7132L8.96143 10.8359L9.32971 10.529L10.6801 11.7566L12.5215 10.529L12.4601 10.4063L11.969 10.7132L11.3552 10.0994V5.92555L11.8463 5.55727L12.8897 6.41659V10.1607C12.8897 12.4932 12.3987 12.8615 11.3552 13.2297V13.4139C13.0739 13.4753 14.6697 12.9228 14.6697 9.91523V5.86417L15.2222 5.43451L15.0994 5.31175L14.6084 5.68003L13.0739 4.39105L11.3552 5.68003V0.646886H11.2325L9.08419 2.12V2.24276C9.32971 2.36552 9.69799 2.48828 9.69799 3.16345L9.63661 10.0994ZM20.8691 9.42419L19.3346 10.5904L17.8001 9.36281V8.62626L20.685 6.66211V6.60073L19.2118 4.39105L16.0201 6.10969V10.1607L15.4063 10.6518L15.5291 10.7745L16.0815 10.3449L18.1684 11.8794L20.9305 9.66971L20.8691 9.42419ZM17.8001 8.38074V5.37313L17.9229 5.31175L19.2732 7.46004L17.8001 8.38074ZM32.5926 1.38344C32.5926 1.1993 32.5312 1.01516 32.4699 0.831025H32.3471C32.163 1.32206 31.9174 1.56758 31.3036 1.56758C30.7512 1.56758 30.3829 1.26068 30.1374 1.01516L28.3574 3.04069L28.4802 3.16345L29.094 2.61104C29.4622 2.91793 29.7691 3.16345 30.6285 3.22483V8.31936L27.0071 2.12C26.7002 1.62896 26.2705 0.953784 25.4112 0.953784C24.4291 0.953784 23.5698 1.8131 23.6926 3.16345H23.8767C23.9381 2.79517 24.1222 2.36552 24.5519 2.36552C24.8588 2.36552 25.1657 2.67242 25.3498 2.97931V5.00484C24.245 5.00484 23.5084 5.49589 23.5084 6.41659C23.5084 6.90762 23.7539 7.64418 24.4905 7.82832V7.70556C24.3677 7.5828 24.3064 7.46004 24.3064 7.2759C24.3064 6.969 24.5519 6.72348 24.9815 6.72348H25.2884V9.30143C23.9995 9.30143 22.956 10.038 22.956 11.2656C22.956 12.4318 23.9381 12.9842 25.0429 12.9228V12.8001C24.3677 12.7387 24.0608 12.4318 24.0608 12.0021C24.0608 11.4497 24.4291 11.2042 24.9202 11.2042C25.4112 11.2042 25.8408 11.5111 26.1477 11.8794L27.9278 9.91523L27.805 9.79247L27.3753 10.2835C26.7002 9.66971 26.3319 9.48557 25.5339 9.36281V3.22483L30.4443 11.818H30.8126V3.22483C31.7333 3.16345 32.5926 2.4269 32.5926 1.38344ZM37.0733 9.42419L35.5388 10.5904L34.0043 9.36281V8.62626L36.8892 6.66211V6.60073L35.4161 4.39105L32.2243 6.10969V10.1607L31.6105 10.6518L31.7333 10.7745L32.2857 10.3449L34.3726 11.8794L37.1347 9.66971L37.0733 9.42419ZM34.0043 8.38074V5.37313L34.1271 5.31175L35.4775 7.46004L34.0043 8.38074ZM47.0782 5.06622L46.6486 5.37313L45.4823 4.39105L44.132 5.61865L44.6844 6.17107V10.7745L43.2113 9.85385V6.04831L43.7023 5.74141L42.2906 4.39105L40.9403 5.61865L41.4927 6.17107V10.5904L41.3085 10.7132L40.0196 9.79247V6.10969C40.0196 5.25036 39.5899 5.00484 39.0989 4.69795C38.6692 4.39105 38.4237 4.20691 38.4237 3.77725C38.4237 3.40897 38.792 3.22483 38.9761 3.10207V2.97931C38.4851 2.97931 37.1961 3.47035 37.1961 4.63657C37.1961 5.25036 37.503 5.49589 37.8099 5.80279C38.1168 6.10969 38.4237 6.35521 38.4237 6.90762V10.4676L37.7485 10.9587L37.8713 11.0814L38.4851 10.5904L39.8968 11.818L41.4313 10.7745L43.1499 11.818L46.403 9.91523V5.80279L47.201 5.18898L47.0782 5.06622ZM58.4948 1.69034L57.881 2.24276L56.5307 1.01516L54.5052 2.48828V1.13792H54.321L54.3824 11.0814C54.1983 11.0814 53.6458 10.9587 53.2162 10.8359L53.0934 2.54966C53.0934 1.93586 52.6638 1.07654 51.5589 1.07654C50.4541 1.07654 49.7175 1.93586 49.7175 2.79517H49.9017C49.9631 2.4269 50.1472 2.12 50.5155 2.12C50.8838 2.12 51.1907 2.36552 51.1907 3.16345V5.55727C50.0858 5.61865 49.4106 6.23245 49.4106 7.03038C49.4106 7.52142 49.6562 8.25798 50.3927 8.25798V8.13522C50.1472 8.01246 50.0858 7.82832 50.0858 7.70556C50.0858 7.33728 50.3927 7.21452 50.8838 7.21452H51.1293V11.0201C50.2086 11.327 49.8403 12.0021 49.8403 12.7387C49.8403 13.7821 50.6382 14.5187 51.8658 14.5187C52.7252 14.5187 53.4617 14.3959 54.1983 14.2118C54.8121 14.089 55.61 13.9049 55.9783 13.9049C56.4693 13.9049 56.6535 14.1504 56.6535 14.4573C56.6535 14.887 56.4693 15.0711 56.2238 15.1325V15.2553C57.2059 15.0711 57.8197 14.4573 57.8197 13.5366C57.8197 12.6159 56.899 12.0635 55.9169 12.0635C55.4259 12.0635 54.3824 12.2477 53.6458 12.3704C52.7865 12.5546 51.9272 12.6773 51.6817 12.6773C51.252 12.6773 50.761 12.4932 50.761 11.8794C50.761 11.3883 51.1907 10.9587 52.2341 10.9587C52.7865 10.9587 53.4617 11.0201 54.1369 11.2042C54.8734 11.3883 55.5486 11.5725 56.1624 11.5725C57.0831 11.5725 57.881 11.2656 57.881 9.97661V2.4269L58.6176 1.8131L58.4948 1.69034ZM55.9783 5.43451C55.7941 5.61865 55.5486 5.80279 55.2417 5.80279C54.9348 5.80279 54.6279 5.61865 54.5052 5.43451V2.7338L55.119 2.30414L55.9783 3.10207V5.43451ZM55.9783 7.2759C55.8555 7.15314 55.5486 6.969 55.2417 6.969C54.9348 6.969 54.6279 7.15314 54.5052 7.2759V5.68003C54.6279 5.80279 54.9348 5.98693 55.2417 5.98693C55.5486 5.98693 55.8555 5.80279 55.9783 5.68003V7.2759ZM55.9783 10.1607C55.9783 10.6518 55.6714 11.1428 54.9962 11.1428H54.5052V7.52142C54.6279 7.39866 54.9348 7.21452 55.2417 7.21452C55.5486 7.21452 55.7941 7.39866 55.9783 7.52142V10.1607ZM64.3873 5.80279L62.4231 4.39105L59.4155 6.10969V10.0994L58.8017 10.5904L58.8631 10.7132L59.3542 10.3449L61.3183 11.818L64.3873 9.97661V5.80279ZM61.0728 9.66971V5.25036L62.6073 6.35521V10.7132L61.0728 9.66971ZM70.2184 4.51381H70.0956C69.9115 4.63657 69.7273 4.75933 69.5432 4.75933C69.2977 4.75933 68.9908 4.63657 68.868 4.45243H68.7452L67.7018 5.61865L66.6583 4.45243L64.8169 5.68003L64.8783 5.80279L65.3694 5.49589L65.9832 6.17107V10.038L65.1852 10.6518L65.308 10.7745L65.6763 10.4676L67.1494 11.6952L69.0521 10.4063L68.9908 10.2835L68.4384 10.5904L67.7018 9.97661V5.68003C68.0087 5.98693 68.377 6.29383 68.8066 6.29383C69.6659 6.35521 70.157 5.49589 70.2184 4.51381ZM77.5839 10.4063L75.497 11.818L72.6735 7.52142L74.6991 4.39105H74.8218C75.0674 4.63657 75.4356 4.88208 75.8653 4.88208C76.295 4.88208 76.6018 4.63657 76.786 4.39105H76.9087C76.8474 5.61865 75.9881 6.35521 75.3743 6.35521C74.7605 6.35521 74.4536 6.04831 74.0853 5.86417L73.9011 6.17107L76.9701 10.7132L77.5839 10.3449V10.4063ZM70.8322 10.0994L70.0342 10.7132L70.157 10.8359L70.5253 10.529L71.8756 11.7566L73.717 10.529L73.5942 10.4063L73.1032 10.7132L72.4894 10.0994V0.646886H72.428L70.2184 2.12V2.24276C70.4639 2.36552 70.8322 2.4269 70.8322 3.16345V10.0994ZM87.773 1.93586C87.773 0.708266 86.6067 0.401367 85.686 0.401367V0.585506C86.2385 0.585506 86.6681 0.769645 86.6681 1.1993C86.6681 1.44482 86.484 1.8131 85.9316 1.8131C85.5019 1.8131 84.5812 1.56758 83.906 1.32206C83.1081 1.07654 82.3715 0.831025 81.7577 0.831025C80.5301 0.831025 79.6708 1.75172 79.6708 2.79517C79.6708 3.71587 80.346 4.02277 80.5915 4.14553L80.6529 4.02277C80.4688 3.90001 80.2846 3.77725 80.2846 3.40897C80.2846 3.16345 80.5301 2.7338 81.1439 2.7338C81.6964 2.7338 82.4329 2.97931 83.415 3.28621C84.2743 3.53173 85.195 3.71587 85.686 3.77725V5.68003L84.7653 6.47797V6.53935L85.686 7.33728V9.97661C85.195 10.2835 84.6426 10.3449 84.1516 10.3449C83.2309 10.3449 82.4329 10.0994 81.7577 9.36281L84.2743 8.13522V3.83863L81.2053 5.18898C81.5122 4.39105 82.1874 3.83863 82.8012 3.40897L82.7398 3.28621C80.8984 3.77725 79.2412 5.43451 79.2412 7.52142C79.2412 9.97661 81.2667 11.818 83.5378 11.818C85.9929 11.818 87.5888 9.85385 87.5888 7.82832H87.466C87.0978 8.62626 86.5454 9.36281 85.8702 9.73109V7.21452L86.8523 6.41659V6.35521L85.9316 5.55727V3.71587C86.8523 3.71587 87.773 3.10207 87.773 1.93586ZM82.4329 8.68763L81.6964 9.05591C81.2667 8.5035 81.0212 7.76694 81.0212 6.72348C81.0212 6.29383 81.0826 5.80279 81.2053 5.43451L82.4943 4.88208L82.4329 8.68763ZM89.9212 1.32206H89.8599L88.6323 2.36552V2.4269L89.6757 3.59311H89.7985L91.0261 2.54966V2.48828L89.9212 1.32206ZM91.7626 10.4063L91.2716 10.7132L90.6578 10.0994V5.86417L91.2716 5.43451L91.1488 5.31175L90.7192 5.68003L89.6143 4.39105L87.8343 5.61865L87.9571 5.80279L88.3867 5.49589L88.9392 6.17107V10.1607L88.1412 10.7745L88.2026 10.8973L88.6323 10.5904L89.9826 11.818L91.824 10.5904L91.7626 10.4063ZM102.013 10.3449L101.583 10.6518L100.908 10.038V5.86417L101.522 5.37313L101.399 5.25036L100.908 5.68003L99.4965 4.39105L97.6551 5.68003L96.2433 4.39105L94.5247 5.68003L93.4199 4.39105L91.6399 5.61865L91.7012 5.80279L92.1309 5.49589L92.7447 6.17107V10.1607L92.2537 10.6518L93.6654 11.818L95.0157 10.5904L94.4633 10.038V5.86417L95.0157 5.49589L95.9364 6.35521V10.038L95.4454 10.529L96.8571 11.6952L98.2075 10.4676L97.6551 9.91523V5.86417L98.1461 5.55727L99.1282 6.41659V10.0994L98.6985 10.529L100.11 11.818L102.013 10.529V10.3449ZM107.353 9.42419L105.819 10.5904L104.284 9.36281V8.62626L107.169 6.66211V6.60073L105.696 4.39105L102.504 6.10969V10.2835L104.652 11.818L107.414 9.60833L107.353 9.42419ZM104.284 8.38074V5.37313L104.407 5.31175L105.757 7.46004L104.284 8.38074ZM112.939 7.82832L111.772 6.90762C112.57 6.23245 112.877 5.31175 112.877 4.69795V4.32967H112.754C112.632 4.63657 112.386 4.94346 111.895 4.94346C111.404 4.94346 111.097 4.69795 110.79 4.32967L108.028 5.86417V8.07384L109.072 8.87177C108.028 9.79247 107.844 10.4063 107.844 10.8973C107.844 11.5111 108.151 11.9408 108.642 12.1249L108.703 12.0021C108.581 11.8794 108.458 11.818 108.458 11.5111C108.458 11.327 108.703 11.0201 109.194 11.0201C109.808 11.0201 110.177 11.4497 110.361 11.6339L113 10.038V7.82832H112.939ZM112.263 5.98693C111.834 6.72348 110.913 7.46004 110.361 7.82832L109.686 7.2759V5.1276C109.931 5.74141 110.606 6.23245 111.281 6.23245C111.711 6.23245 111.957 6.17107 112.263 5.98693ZM111.22 10.8973C110.913 10.2221 110.177 9.73109 109.44 9.73109C109.256 9.73109 108.765 9.73109 108.274 10.038C108.581 9.54695 109.379 8.68763 110.422 8.07384L111.159 8.68763L111.22 10.8973Z" fill="white"/>
</g>
<defs>
<clipPath id="clip0_1239_7223">
<rect width="113" height="14.8539" fill="white" transform="translate(0 0.401367)"/>
</clipPath>
</defs>
</svg>
