<svg width="83" height="26" viewBox="0 0 83 26" fill="none" xmlns="http://www.w3.org/2000/svg">
<g clip-path="url(#clip0_23_2490)">
<g clip-path="url(#clip1_23_2490)">
<path d="M53.7493 6.23807C52.4155 6.226 51.1082 6.61086 49.9938 7.34372C48.8793 8.07658 48.008 9.12432 47.4906 10.3537C46.9732 11.5831 46.833 12.9386 47.0881 14.2478C47.3431 15.5571 47.9817 16.7609 48.9227 17.7062C49.8637 18.6515 51.0646 19.2956 52.3727 19.5566C53.6807 19.8176 55.0368 19.6836 56.2686 19.1718C57.5003 18.66 58.552 17.7935 59.2899 16.6824C60.0279 15.5713 60.4187 14.2658 60.4127 12.932C60.4147 12.0549 60.2439 11.1861 59.9102 10.375C59.5764 9.56394 59.0861 8.82656 58.4673 8.20498C57.8486 7.58339 57.1135 7.08976 56.3039 6.75228C55.4944 6.4148 54.6263 6.24007 53.7493 6.23807ZM53.8026 16.9377C53.2875 16.9443 52.7764 16.848 52.2991 16.6545C51.8218 16.4609 51.3879 16.174 51.0229 15.8106C50.5668 15.3595 50.229 14.8029 50.0395 14.19C49.85 13.5771 49.8146 12.927 49.9365 12.2972C50.0584 11.6673 50.3338 11.0773 50.7383 10.5794C51.1429 10.0816 51.664 9.69117 52.2555 9.4429C52.847 9.19463 53.4907 9.09614 54.1293 9.15616C54.768 9.21619 55.3821 9.43288 55.917 9.78701C56.4519 10.1412 56.8911 10.6218 57.1958 11.1863C57.5005 11.7509 57.6611 12.3819 57.6636 13.0234C57.6407 14.0478 57.2261 15.0245 56.5051 15.7526C55.7841 16.4807 54.8115 16.9048 53.7873 16.9377H53.8026ZM68.5383 9.40607C68.086 9.41201 67.6393 9.50727 67.2238 9.68635C66.8084 9.86543 66.4325 10.1248 66.1176 10.4496C65.8027 10.7744 65.555 11.1582 65.3889 11.579C65.2228 11.9998 65.1414 12.4492 65.1495 12.9015V19.2908H62.248L62.2099 6.61122H65.1114V8.59884C65.5272 7.99144 66.0821 7.49212 66.7298 7.14243C67.3775 6.79273 68.0994 6.60278 68.8353 6.58838H69.6806V9.40607H68.5383ZM39.5999 6.72545L41.7703 15.4222L44.0549 6.70261H46.9563L43.3695 19.4203H40.5518L38.2672 10.556L36.0663 19.4584H33.241L29.4333 6.78638H32.2587L34.8022 15.4603L36.8355 6.74069L39.5999 6.72545ZM78.187 12.3456C79.2056 11.7504 80.0503 10.8985 80.6369 9.87499C81.2235 8.85143 81.5315 7.69196 81.5302 6.51222H78.6287C78.6409 7.53566 78.2471 8.52223 77.5334 9.25589C76.8197 9.98954 75.8444 10.4105 74.821 10.4265H74.4022L74.3717 0.419922H71.4702L71.5845 19.2604H74.4859V13.2899H74.821C74.9747 13.2731 75.1298 13.3034 75.2659 13.3768C75.4019 13.4503 75.5123 13.5634 75.5825 13.7011L79.672 19.2375H83.0685L78.187 12.3456Z" fill="white"/>
<path d="M22.7319 6.38991C19.5791 6.38991 17.1879 8.48414 16.2893 11.8044C14.8532 9.56859 13.7285 7.14748 12.9461 4.60791H9.63345V13.3961C9.63345 14.2322 9.30129 15.0341 8.71003 15.6254C8.11877 16.2167 7.31685 16.5488 6.48069 16.5488C5.64452 16.5488 4.8426 16.2167 4.25134 15.6254C3.66009 15.0341 3.32792 14.2322 3.32792 13.3961V4.60791L0 4.66883L0.0380769 13.457C0.0350699 14.313 0.20107 15.1611 0.526556 15.9528C0.852043 16.7445 1.33061 17.4641 1.93482 18.0704C2.53903 18.6768 3.25699 19.1579 4.04753 19.4861C4.83806 19.8144 5.68563 19.9834 6.54161 19.9834C7.3973 19.9715 8.2422 19.7906 9.02778 19.4512C9.81337 19.1118 10.5241 18.6205 11.1193 18.0056C11.7144 17.3906 12.1822 16.6641 12.4957 15.8679C12.8092 15.0716 12.9623 14.2212 12.9461 13.3656V11.8425C13.6427 13.2311 14.4554 14.5584 15.3754 15.8101L13.365 25.5883L16.7538 25.5502L18.216 18.4907C19.5806 19.3594 21.1676 19.8143 22.7852 19.8006C24.5286 19.7345 26.178 18.9935 27.3852 17.734C28.5923 16.4745 29.2628 14.7951 29.2549 13.0506C29.247 11.306 28.5613 9.63276 27.3428 8.38426C26.1242 7.13576 24.4682 6.40971 22.7243 6.35945L22.7319 6.38991ZM22.7776 16.4117C21.3974 16.3755 20.0739 15.8552 19.0384 14.942L19.3659 13.6169V13.5407C19.6096 12.1319 20.3407 9.73306 22.8309 9.73306C23.7096 9.73101 24.5534 10.0766 25.1783 10.6943C25.8032 11.3121 26.1584 12.1519 26.1664 13.0305C26.1289 13.9165 25.7596 14.7561 25.1318 15.3824C24.5041 16.0088 23.6637 16.3762 22.7776 16.4117Z" fill="white"/>
</g>
</g>
<defs>
<clipPath id="clip0_23_2490">
<rect width="83" height="25.1688" fill="white" transform="translate(0 0.419922)"/>
</clipPath>
<clipPath id="clip1_23_2490">
<rect width="83" height="25.1688" fill="white" transform="translate(0 0.419922)"/>
</clipPath>
</defs>
</svg>
