<svg width="120" height="32" viewBox="0 0 120 32" fill="none" xmlns="http://www.w3.org/2000/svg">
<g clip-path="url(#clip0_11339_7356)">
<g clip-path="url(#clip1_11339_7356)">
<path fill-rule="evenodd" clip-rule="evenodd" d="M25.238 14.012C25.3373 14.1202 25.4333 14.2248 25.5231 14.3254C26.3862 15.0838 26.9318 16.1948 26.9318 17.4339C26.9318 19.7191 25.0784 21.5718 22.7921 21.5718C20.5058 21.5718 18.6524 19.7191 18.6524 17.4339C18.6524 16.1975 19.1955 15.0885 20.0555 14.3303L20.0524 14.3278C20.1487 14.2201 20.2524 14.1079 20.3598 13.9915C21.0742 13.2183 21.9576 12.2622 21.9576 11.2268C21.9576 10.1916 21.0745 9.2356 20.3602 8.46236C20.2526 8.34589 20.1488 8.23353 20.0524 8.12572C20.0532 8.12523 20.0539 8.12469 20.0545 8.12415L20.0555 8.12337C19.1955 7.36517 18.6524 6.25617 18.6524 5.01976C18.6524 2.73448 20.5058 0.881836 22.7921 0.881836C25.0784 0.881836 26.9318 2.73448 26.9318 5.01976C26.9318 6.25886 26.3862 7.36987 25.5231 8.12822C25.4333 8.22887 25.3373 8.33344 25.238 8.44164C24.5249 9.21846 23.6401 10.1823 23.6401 11.2268C23.6401 12.2714 24.5249 13.2352 25.238 14.012ZM8.27931 17.4338C8.27931 15.1485 6.42593 13.2958 4.13969 13.2958C1.85347 13.2958 6.68434e-05 15.1485 6.68434e-05 17.4338C6.68434e-05 19.7192 1.85347 21.5718 4.13969 21.5718C6.42593 21.5718 8.27931 19.7192 8.27931 17.4338ZM0 5.01983C0 7.30512 1.85341 9.15777 4.13962 9.15777C6.42602 9.15777 8.27941 7.30512 8.27941 5.01983C8.27941 2.73455 6.42602 0.881903 4.13962 0.881903C1.85341 0.881903 0 2.73455 0 5.01983ZM13.4649 31.1239C11.1787 31.1239 9.32527 29.2712 9.32527 26.9859C9.32527 24.7007 11.1787 22.8481 13.4649 22.8481C15.7512 22.8481 17.6047 24.7007 17.6047 26.9859C17.6047 29.2712 15.7512 31.1239 13.4649 31.1239Z" fill="white"/>
<path fill-rule="evenodd" clip-rule="evenodd" d="M67.7869 14.2816C67.7869 13.295 68.5755 12.4951 69.5477 12.4951C70.5205 12.4951 71.3085 13.295 71.3085 14.2816C71.3085 15.2683 70.5205 16.0683 69.5477 16.0683C68.5755 16.0683 67.7869 15.2683 67.7869 14.2816ZM67.0248 17.5155H65.8258C64.205 17.5155 63.368 18.5575 62.9027 19.1667C62.7249 19.3992 62.4677 19.3803 62.4677 19.0426V17.6675C62.4677 17.5835 62.4006 17.5155 62.3178 17.5155H60.0481C59.9658 17.5155 59.8987 17.5835 59.8987 17.6675V30.997C59.8987 31.0809 59.9658 31.149 60.0481 31.149H62.4721C62.5544 31.149 62.6215 31.0809 62.6215 30.997V23.0639C62.6215 21.0082 63.8387 20.0136 65.8277 20.0136L67.0248 20.0132C67.1076 20.0132 67.1742 19.9453 67.1742 19.8614V17.6675C67.1742 17.5835 67.1076 17.5155 67.0248 17.5155ZM70.7536 17.5155H68.3423C68.2596 17.5155 68.193 17.5836 68.193 17.6676V30.9971C68.193 31.0809 68.2596 31.149 68.3423 31.149H70.7536C70.8364 31.149 70.9035 31.0809 70.9035 30.9971V17.6676C70.9035 17.5836 70.8364 17.5155 70.7536 17.5155ZM79.8285 19.6619V17.6673C79.8285 17.5834 79.7614 17.5154 79.6787 17.5154L76.9755 17.5149V16.1482C76.9755 15.781 77.0661 15.5034 77.2527 15.2994C77.4359 15.0987 77.6867 15.0011 78.0192 15.0011H79.6968L79.6983 15.0011L79.6987 15.001L79.7002 15.0008L79.7012 15.0008H79.8334C79.9162 15.0008 79.9833 14.9328 79.9833 14.8489V14.7231V12.7812V12.655C79.9833 12.571 79.9162 12.5031 79.8334 12.5031H79.6968H79.2824H77.8326C75.4571 12.5031 74.2527 13.5809 74.2527 15.7069V17.5154H72.0467C71.9639 17.5154 71.8968 17.5834 71.8968 17.6673V19.6619C71.8968 19.7458 71.9639 19.8139 72.0467 19.8139L74.2527 19.8169V30.2945V30.8708V30.9969C74.2527 31.0808 74.3198 31.1487 74.4021 31.1487H74.5387H76.7017H76.8256C76.9084 31.1487 76.9755 31.0808 76.9755 30.9969V30.8753V30.8737V30.8729V30.8708V19.8166L79.6787 19.8139C79.7614 19.8139 79.8285 19.7458 79.8285 19.6619ZM52.1903 19.8619C49.7027 19.8619 48.7234 22.0836 48.7234 23.1012L55.5944 23.1017C55.5944 22.0836 54.9146 19.8619 52.1903 19.8619ZM45.8496 24.3127C45.8496 21.8212 46.9828 17.3637 52.1889 17.3637C57.3773 17.3637 58.3559 21.7339 58.5023 23.4029C58.5587 24.044 58.4916 25.1917 58.4916 25.1917C58.4872 25.272 58.4215 25.335 58.3422 25.335L48.7219 25.3349C48.7219 28.1184 51.1206 28.7511 52.1889 28.7511C54.557 28.7511 55.2129 27.1841 55.3177 26.9336C55.3221 26.9235 55.3255 26.9155 55.328 26.9099C55.352 26.8556 55.4049 26.8217 55.4636 26.8217H58.0845C58.1546 26.8217 58.2036 26.8641 58.1869 26.9577C58.0919 27.4272 57.0996 31.2493 52.1889 31.2493C48.6478 31.2493 45.8496 28.8948 45.8496 24.3127ZM110.196 23.1012C110.196 22.0836 111.176 19.8619 113.664 19.8619C116.388 19.8619 117.068 22.0836 117.068 23.1017L110.196 23.1012ZM119.978 23.4029C119.831 21.7339 118.853 17.3637 113.664 17.3637C108.458 17.3637 107.325 21.8212 107.325 24.3127C107.325 28.8948 110.123 31.2493 113.664 31.2493C118.575 31.2493 119.567 27.4272 119.662 26.9577C119.679 26.8641 119.63 26.8217 119.56 26.8217H116.939C116.88 26.8217 116.827 26.8556 116.803 26.9099L116.798 26.9216L116.793 26.9336C116.688 27.1841 116.032 28.7511 113.664 28.7511C112.595 28.7511 110.197 28.1184 110.197 25.3349L119.817 25.335C119.897 25.335 119.962 25.272 119.967 25.1917C119.967 25.1917 120.034 24.044 119.978 23.4029ZM90.007 24.5728C90.0075 24.5659 90.0075 24.5591 90.008 24.5522C90.0104 24.4732 90.0119 24.3935 90.0119 24.3127C90.0119 24.2335 90.0104 24.1553 90.008 24.0778C90.007 24.0453 90.005 24.0133 90.0036 23.9812L90.0031 23.9702L90.0021 23.951L90.0006 23.9167C89.9996 23.8941 89.9987 23.8714 89.9972 23.8491C89.9938 23.8008 89.9898 23.7532 89.9854 23.7055L89.9835 23.6773C89.982 23.6589 89.9805 23.6402 89.9786 23.6221C89.9742 23.5794 89.9693 23.5374 89.9644 23.4952L89.9639 23.4925C89.96 23.4589 89.956 23.4254 89.9521 23.3922C89.9492 23.3716 89.9458 23.3511 89.9428 23.3306L89.9379 23.2982C89.9306 23.25 89.9232 23.2015 89.9149 23.1541C89.913 23.1417 89.9105 23.1295 89.908 23.1171C89.7611 22.3193 89.4584 21.6372 89.0024 21.0806C88.5063 20.4756 87.8671 20.0939 87.0956 19.9397L87.0883 19.9383L87.0844 19.9376C87.0805 19.9369 87.077 19.9363 87.0731 19.9355C87.0187 19.925 86.9639 19.9156 86.908 19.9073L86.8938 19.9054L86.8796 19.9035L86.8596 19.901L86.836 19.8979C86.7934 19.8924 86.7503 19.8869 86.7072 19.8828C86.6754 19.8796 86.6431 19.8774 86.6107 19.8752L86.5867 19.8735L86.5588 19.8715C86.5373 19.8699 86.5162 19.8683 86.4942 19.8672C86.4212 19.8637 86.3467 19.8617 86.2713 19.8617C86.1964 19.8617 86.1234 19.8637 86.0514 19.867C86.0103 19.869 85.9706 19.8722 85.9304 19.8754L85.9177 19.8764C85.9138 19.8767 85.9098 19.877 85.9059 19.8773C85.8991 19.8778 85.8927 19.8783 85.8858 19.8788C85.8726 19.8797 85.8589 19.8807 85.8457 19.8819C84.9009 19.9734 84.1285 20.3775 83.5461 21.0869C83.0019 21.7503 82.6747 22.5861 82.5689 23.5782L82.5675 23.5907L82.566 23.6019C82.5601 23.6599 82.5557 23.7188 82.5513 23.7778C82.5508 23.7835 82.5503 23.7893 82.5498 23.7951C82.5494 23.7998 82.5489 23.8045 82.5484 23.8092V23.81C82.5479 23.8202 82.5469 23.8304 82.5459 23.8406C82.5425 23.8945 82.5401 23.9493 82.5381 24.0041C82.5376 24.0138 82.5371 24.0233 82.5366 24.0329V24.0339V24.0349C82.5356 24.0484 82.5351 24.0618 82.5347 24.0755C82.5322 24.1538 82.5307 24.2326 82.5307 24.3127C82.5307 24.3942 82.5322 24.4747 82.5347 24.5543C82.5347 24.5584 82.5352 24.5624 82.5352 24.5663C82.5356 24.5702 82.5356 24.5741 82.5356 24.5779C82.5792 25.7774 82.9182 26.7703 83.5461 27.5318C84.1294 28.2396 84.9043 28.642 85.853 28.7317C85.8555 28.732 85.8574 28.732 85.8599 28.7322C85.9236 28.7382 85.9882 28.7427 86.0534 28.7457C86.1249 28.7491 86.1974 28.7511 86.2713 28.7511C86.3463 28.7511 86.4197 28.7491 86.4922 28.7457C86.5334 28.7438 86.5735 28.7406 86.6137 28.7375L86.6274 28.7364C86.6514 28.7345 86.6754 28.7332 86.6989 28.731C87.6506 28.6405 88.424 28.2404 89.0024 27.5382C89.5823 26.8343 89.9144 25.9259 89.9928 24.8333L89.9943 24.8165C89.9952 24.8081 89.9957 24.7998 89.9962 24.7914C90.0001 24.7333 90.0026 24.6741 90.005 24.6148C90.0055 24.6061 90.006 24.5973 90.0065 24.5886L90.007 24.5728ZM92.7288 23.9552C92.7327 24.0728 92.7351 24.1915 92.7351 24.3127C92.7351 24.4337 92.7327 24.5525 92.7288 24.6701L92.7283 24.7009L92.7278 24.7122C92.647 26.9122 91.901 28.4939 90.8039 29.5497C89.7352 30.6137 88.3187 31.182 86.5853 31.2428C86.4809 31.247 86.3766 31.2492 86.2718 31.2492C86.1675 31.2492 86.0636 31.247 85.9598 31.2428C84.0991 31.179 82.6081 30.5403 81.5252 29.3397C81.4914 29.3022 81.4586 29.2634 81.4263 29.2247L81.3998 29.1932C81.3915 29.1835 81.3832 29.1739 81.3748 29.1642C81.366 29.1536 81.3572 29.1431 81.3484 29.1326C81.3351 29.1174 81.3219 29.1021 81.3097 29.0865C80.5069 28.1175 79.9608 26.7982 79.8359 25.0804C79.8354 25.075 79.8354 25.0698 79.8349 25.0645C79.8266 24.9496 79.8202 24.833 79.8158 24.7145L79.8143 24.6668C79.8109 24.5504 79.808 24.4326 79.808 24.3127C79.808 24.1939 79.8104 24.0773 79.8143 23.9619C79.8148 23.9425 79.8153 23.9228 79.8163 23.9034C79.8202 23.7923 79.8261 23.6831 79.8339 23.5752C79.8344 23.5618 79.8359 23.5483 79.8369 23.5349L79.8383 23.5145C79.8467 23.4043 79.8565 23.2952 79.8682 23.1883C79.8692 23.178 79.8707 23.1676 79.8716 23.1572C79.8844 23.0485 79.8981 22.9414 79.9143 22.836C79.9147 22.8324 79.9152 22.8287 79.9157 22.8252C79.9162 22.8213 79.9167 22.8174 79.9172 22.8136C79.9338 22.7055 79.9525 22.5995 79.9725 22.4947L79.9809 22.4527C80.001 22.3493 80.0235 22.2474 80.0475 22.1473L80.0519 22.1283L80.0563 22.1092C80.0818 22.0067 80.1082 21.9056 80.1366 21.8065L80.1386 21.8001C80.14 21.7951 80.1415 21.79 80.143 21.7848C80.2032 21.5789 80.2703 21.3807 80.3453 21.1903C80.3497 21.179 80.3536 21.1674 80.3585 21.1561C80.3918 21.0719 80.4271 20.9895 80.4633 20.9084C80.4741 20.8841 80.4849 20.8596 80.4956 20.8356C80.5275 20.7674 80.5598 20.7006 80.5931 20.6347C80.6132 20.594 80.6343 20.5536 80.6553 20.5135C80.6587 20.507 80.6627 20.5006 80.6661 20.4941C80.9036 20.048 81.1897 19.6377 81.5257 19.2665C82.6086 18.0697 84.1005 17.4331 85.9618 17.3698C86.0651 17.3656 86.1685 17.3634 86.2718 17.3634C86.3761 17.3634 86.4805 17.3658 86.5848 17.37C88.3231 17.4309 89.743 18.0045 90.8132 19.0783C91.9054 20.137 92.6475 21.719 92.7278 23.9131C92.7283 23.9271 92.7283 23.9412 92.7288 23.9552ZM100.671 17.3651C98.9795 17.3634 97.6488 18.5294 97.1698 19.1961C97.0052 19.4246 96.6942 19.3913 96.6942 19.0101V17.6673C96.6942 17.5833 96.6271 17.5153 96.5443 17.5153H94.2751C94.1923 17.5153 94.1252 17.5833 94.1252 17.6673V30.9968C94.1252 31.0808 94.1923 31.1488 94.2751 31.1488H96.6986C96.7813 31.1488 96.8485 31.0808 96.8485 30.9968V23.0798C96.8485 21.5438 97.7683 19.8615 100.054 19.8615C102.679 19.8615 103.285 21.9044 103.285 22.9849V30.9968C103.285 31.0808 103.352 31.1488 103.435 31.1488H105.859C105.941 31.1488 106.008 31.0808 106.008 30.9968V23.3229C106.008 20.0463 104.253 17.3688 100.671 17.3651ZM43.2184 17.5155H45.9841C46.0526 17.5155 46.1009 17.5835 46.0795 17.6493L41.866 31.0455C41.8455 31.1073 41.7883 31.149 41.724 31.149H37.3457C37.2816 31.149 37.2246 31.1074 37.2039 31.0459L32.988 17.6493C32.9666 17.5835 33.0149 17.5155 33.0834 17.5155H35.8412C35.8992 17.5155 35.9504 17.5541 35.9669 17.6105L39.2815 28.4986C39.3646 28.7488 39.7135 28.7485 39.7962 28.4983L43.0928 17.6107C43.1093 17.5543 43.1605 17.5155 43.2184 17.5155Z" fill="white"/>
</g>
</g>
<defs>
<clipPath id="clip0_11339_7356">
<rect width="120" height="30.4688" fill="white" transform="translate(0 0.831055)"/>
</clipPath>
<clipPath id="clip1_11339_7356">
<rect width="120" height="30.4688" fill="white" transform="translate(0 0.831055)"/>
</clipPath>
</defs>
</svg>
