<svg width="40" height="40" viewBox="0 0 40 40" fill="none" xmlns="http://www.w3.org/2000/svg">
<path fill-rule="evenodd" clip-rule="evenodd" d="M9.5 19.4982C9.5 13.9791 13.9758 9.5 19.5 9.5C25.0246 9.5 29.5 13.9831 29.5 19.5018C29.5 25.0209 25.0242 29.5 19.5 29.5H18.6888V29.4639C13.5475 29.0507 9.5 24.7445 9.5 19.4982ZM19.7487 27.8744C24.2614 27.7428 27.8777 24.0424 27.8777 19.5018C27.8777 14.8777 24.1273 11.122 19.5 11.122C14.8723 11.122 11.1223 14.8745 11.1223 19.4982C11.1223 24.1217 14.8757 27.8744 19.5 27.8744H19.7487Z" fill="#B8519A"/>
<path fill-rule="evenodd" clip-rule="evenodd" d="M19.7487 27.8742C24.2614 27.7426 27.8777 24.0422 27.8777 19.5016C27.8777 14.8775 24.1273 11.1218 19.5 11.1218C14.8723 11.1218 11.1223 14.8743 11.1223 19.498C11.1223 24.1215 14.8757 27.8742 19.5 27.8742H19.7487Z" fill="#FFABE7"/>
<path fill-rule="evenodd" clip-rule="evenodd" d="M15.4514 12.1719C15.3401 12.1369 15.2249 12.1007 15.1047 12.0599L15.626 10.5239C15.6739 10.5402 15.7601 10.5677 15.8607 10.5998C16.0416 10.6574 16.269 10.7299 16.4045 10.7788L16.4118 10.7814L16.419 10.7842C16.456 10.7984 16.4958 10.8134 16.5374 10.8291C16.7473 10.9085 17.0062 11.0064 17.2224 11.1075L17.232 11.112L17.2749 11.1334C17.3766 11.1809 17.5294 11.2537 17.6567 11.3144C17.7281 11.3484 17.7915 11.3787 17.8334 11.3984L17.8527 11.4075L17.8715 11.4177C17.8759 11.42 17.8811 11.4228 17.8869 11.4259C17.9307 11.4494 18.0125 11.4931 18.091 11.5411L18.1125 11.5542L18.1186 11.5585C18.1275 11.5636 18.1396 11.5705 18.1546 11.5789C18.1677 11.5862 18.1803 11.5931 18.1929 11.6C18.1953 11.6014 18.1978 11.6027 18.2003 11.6041C18.2072 11.6079 18.2151 11.6123 18.2222 11.6162L18.2227 11.6165C18.2263 11.6185 18.2355 11.6236 18.246 11.6298C18.2556 11.6353 18.2704 11.6437 18.2888 11.6543C18.3452 11.6864 18.4364 11.7385 18.521 11.788C18.6082 11.8391 18.7412 11.9177 18.8397 11.9867C18.9452 12.0515 19.0612 12.1319 19.1384 12.1853C19.1523 12.195 19.165 12.2037 19.176 12.2114C19.2354 12.2475 19.2935 12.2885 19.334 12.3175C19.3919 12.359 19.4549 12.406 19.5123 12.4492C19.5389 12.4691 19.5631 12.4874 19.586 12.5047C19.6165 12.5277 19.6446 12.549 19.6727 12.5699C19.6958 12.5873 19.7151 12.6015 19.7306 12.6128C19.7383 12.6184 19.7443 12.6227 19.7488 12.6259C19.7527 12.6286 19.7545 12.6298 19.7546 12.6299L19.7757 12.644L19.7961 12.6595C20.6913 13.3414 21.4886 14.1427 22.169 15.0357L22.1697 15.0365L22.1703 15.0373C22.9226 16.0298 23.5165 17.1315 23.9284 18.3039C25.1556 21.7318 24.7947 25.6919 22.8659 28.8179L21.4852 27.9663C23.1475 25.2723 23.4675 21.8274 22.4003 18.8485L22.3994 18.8461L22.3986 18.8437C22.043 17.831 21.5296 16.8777 20.878 16.0177C20.2883 15.2442 19.5998 14.5514 18.8293 13.9622C18.7866 13.9326 18.7394 13.8975 18.7007 13.8686C18.6715 13.8467 18.6371 13.8208 18.6032 13.7952C18.5804 13.778 18.5579 13.761 18.5373 13.7455C18.4816 13.7036 18.431 13.666 18.3891 13.636C18.3517 13.6092 18.3362 13.5994 18.3363 13.5992C18.3362 13.5991 18.3363 13.5992 18.3363 13.5992L18.3124 13.5857L18.2842 13.5666C18.2428 13.5385 18.2059 13.5129 18.172 13.4895C18.0978 13.4382 18.0383 13.397 17.978 13.3612L17.9385 13.3377L17.9019 13.31C17.9041 13.3117 17.904 13.3116 17.9008 13.3094C17.8947 13.3054 17.878 13.2944 17.8468 13.2749C17.8056 13.2494 17.7551 13.2193 17.7011 13.1876C17.6246 13.1428 17.5549 13.103 17.4997 13.0716C17.474 13.0569 17.4514 13.044 17.4328 13.0333L17.4311 13.0323C17.4283 13.0308 17.4241 13.0284 17.4178 13.0249C17.4159 13.0239 17.4137 13.0227 17.4115 13.0215C17.399 13.0146 17.3822 13.0054 17.3652 12.9959C17.3453 12.9848 17.3211 12.9712 17.2975 12.9574C17.2847 12.9499 17.2607 12.9358 17.2338 12.9183C17.2008 12.8986 17.1653 12.8796 17.1231 12.8569C17.1225 12.8566 17.1219 12.8563 17.1213 12.8559C17.0708 12.832 17.008 12.8021 16.9413 12.7703C16.8159 12.7105 16.6767 12.6441 16.5801 12.5992L16.5697 12.5944L16.526 12.5726C16.3729 12.5015 16.1895 12.432 15.9841 12.3542C15.9395 12.3372 15.8938 12.3199 15.8471 12.3021C15.7205 12.2567 15.5891 12.2153 15.4514 12.1719ZM17.4328 13.0333C17.4337 13.0338 17.4343 13.0341 17.4343 13.0341L17.4328 13.0333ZM17.4328 13.0333C17.4337 13.0338 17.4343 13.0341 17.4343 13.0341L17.4328 13.0333Z" fill="#B8519A"/>
<path fill-rule="evenodd" clip-rule="evenodd" d="M18.8673 16.0321C21.3154 15.59 23.5747 14.2168 25.1199 12.2622L26.3926 13.268C24.6069 15.5268 22.0003 17.1146 19.1553 17.6283C17.7388 17.8837 16.2832 17.8923 14.8625 17.6319C13.4457 17.3793 12.0785 16.8707 10.842 16.1281L11.6773 14.7377C12.7429 15.3776 13.9238 15.8172 15.1491 16.0354L15.1513 16.0357L15.1534 16.0361C16.375 16.2603 17.6343 16.2543 18.8673 16.0321Z" fill="#B8519A"/>
<path fill-rule="evenodd" clip-rule="evenodd" d="M14.5332 27.7222C15.9182 20.6549 23.1205 16.7519 29.0109 18.3573L28.5842 19.9222C23.584 18.5594 17.3253 21.9106 16.1252 28.034L14.5332 27.7222Z" fill="#B8519A"/>
</svg>
