<svg width="40" height="40" viewBox="0 0 40 40" fill="none" xmlns="http://www.w3.org/2000/svg">
<path d="M15 26C18.3137 26 21 23.3137 21 20C21 16.6863 18.3137 14 15 14C11.6863 14 9 16.6863 9 20C9 23.3137 11.6863 26 15 26Z" fill="#424242"/>
<path d="M25 25.5C26.6569 25.5 28 23.0376 28 20C28 16.9624 26.6569 14.5 25 14.5C23.3431 14.5 22 16.9624 22 20C22 23.0376 23.3431 25.5 25 25.5Z" fill="#424242"/>
<path d="M30 25C30.5523 25 31 22.7614 31 20C31 17.2386 30.5523 15 30 15C29.4477 15 29 17.2386 29 20C29 22.7614 29.4477 25 30 25Z" fill="#424242"/>
</svg>
