<svg width="40" height="40" viewBox="0 0 40 40" fill="none" xmlns="http://www.w3.org/2000/svg">
<path d="M20 30C25.5228 30 30 25.5228 30 20C30 14.4772 25.5228 10 20 10C14.4772 10 10 14.4772 10 20C10 25.5228 14.4772 30 20 30Z" fill="#E60023"/>
<path d="M20.222 13.708C15.9058 13.708 13.6143 16.6053 13.6143 19.7596C13.6143 21.2265 14.395 23.0522 15.6443 23.6338C15.8335 23.7219 15.935 23.6838 15.9785 23.5003C16.0119 23.3611 16.1804 22.6819 16.2562 22.3661C16.2804 22.2653 16.2685 22.1788 16.187 22.0795C15.7735 21.578 15.4427 20.6565 15.4427 19.7972C15.4427 17.5915 17.1127 15.4572 19.9577 15.4572C22.4142 15.4572 24.1342 17.1315 24.1342 19.5257C24.1342 22.2307 22.7681 24.1049 20.9908 24.1049C20.0092 24.1049 19.2743 23.293 19.51 22.2972C19.7927 21.1088 20.3385 19.8265 20.3385 18.968C20.3385 18.2003 19.9269 17.5595 19.0735 17.5595C18.07 17.5595 17.2643 18.5972 17.2643 19.988C17.2643 20.873 17.5635 21.4722 17.5635 21.4722C17.5635 21.4722 16.5723 25.663 16.3908 26.443C16.1898 27.3041 16.2681 28.5138 16.3551 29.3047C16.5807 29.3931 16.8063 29.4816 17.0395 29.5537C17.4479 28.8898 18.057 27.8009 18.2827 26.9326C18.4046 26.4645 18.9062 24.5553 18.9062 24.5553C19.2319 25.1772 20.1842 25.7038 21.1977 25.7038C24.2135 25.7038 26.3869 22.9303 26.3869 19.4838C26.3869 16.1795 23.6912 13.708 20.222 13.708Z" fill="white"/>
</svg>
