<svg width="40" height="40" viewBox="0 0 40 40" fill="none" xmlns="http://www.w3.org/2000/svg">
<path d="M20 10C14.4775 10 10 14.4775 10 20C10 25.5225 14.4775 30 20 30C25.5225 30 30 25.5225 30 20C30 14.4775 25.5225 10 20 10ZM16.6667 14.9935H21.25C23.3208 14.9935 25 16.6727 25 18.7435C25 20.8143 23.3208 22.4935 21.25 22.4935H18.75V25H16.6667V15V14.9935ZM18.75 17.0768V20.4102H21.25C22.1692 20.4102 22.9167 19.6627 22.9167 18.7435C22.9167 17.8243 22.1692 17.0768 21.25 17.0768H18.75Z" fill="#DA552F"/>
</svg>
