<svg width="40" height="40" viewBox="0 0 40 40" fill="none" xmlns="http://www.w3.org/2000/svg">
<path fill-rule="evenodd" clip-rule="evenodd" d="M12.7244 10H27.275C28.78 10 30 11.22 30 12.7244V27.275C30 28.78 28.78 30 27.2756 30H12.7244C11.22 30 10 28.78 10 27.2756V12.7244C10 11.22 11.22 10 12.7244 10Z" fill="#212121"/>
<path fill-rule="evenodd" clip-rule="evenodd" d="M22.8933 18.115C23.7689 18.7405 24.8417 19.1083 26 19.1083V16.88C25.7805 16.88 25.5622 16.8572 25.3478 16.8117V18.5655C24.1894 18.5655 23.1172 18.1972 22.2411 17.5722V22.1189C22.2411 24.3933 20.3961 26.2372 18.1205 26.2372C17.2717 26.2372 16.4822 25.9805 15.8267 25.5405C16.575 26.305 17.6183 26.7794 18.7728 26.7794C21.0483 26.7794 22.8933 24.9355 22.8933 22.6611V18.115ZM23.6983 15.8672C23.2511 15.3789 22.9572 14.7472 22.8933 14.0489V13.7622H22.275C22.4305 14.6494 22.9617 15.4078 23.6983 15.8672ZM17.2661 23.7955C17.0161 23.4678 16.8811 23.0672 16.8817 22.655C16.8817 21.6144 17.7255 20.7711 18.7667 20.7711C18.9605 20.7711 19.1533 20.8005 19.3383 20.8594V18.5817C19.1222 18.5522 18.9044 18.5394 18.6861 18.5439V20.3167C18.5011 20.2578 18.3083 20.2283 18.1139 20.2283C17.0728 20.2283 16.2289 21.0717 16.2289 22.1122C16.2294 22.8483 16.6511 23.4855 17.2661 23.7955Z" fill="#EC407A"/>
<path fill-rule="evenodd" clip-rule="evenodd" d="M22.2411 17.5722C23.1167 18.1978 24.1894 18.5655 25.3478 18.5655V16.8117C24.7011 16.6739 24.1289 16.3361 23.6983 15.8667C22.9617 15.4072 22.4311 14.6494 22.2755 13.7622H20.6517V22.6611C20.6478 23.6983 19.8055 24.5383 18.7667 24.5383C18.1544 24.5383 17.6105 24.2467 17.2661 23.795C16.6511 23.485 16.2294 22.8478 16.2294 22.1122C16.2294 21.0717 17.0733 20.2283 18.1144 20.2283C18.3139 20.2283 18.5061 20.2594 18.6867 20.3167V18.5444C16.4511 18.5905 14.6533 20.4161 14.6533 22.6617C14.6533 23.7828 15.1011 24.7989 15.8278 25.5411C16.4833 25.9811 17.2728 26.2378 18.1217 26.2378C20.3972 26.2378 22.2422 24.3939 22.2422 22.1194L22.2411 17.5722Z" fill="white"/>
<path fill-rule="evenodd" clip-rule="evenodd" d="M25.3478 16.8123V16.3378C24.7644 16.3389 24.1933 16.1756 23.6983 15.8667C24.1361 16.3461 24.7128 16.6767 25.3478 16.8123ZM22.275 13.7623C22.26 13.6773 22.2489 13.5923 22.2411 13.5061V13.2195H19.9989V22.1189C19.9956 23.1561 19.1528 23.9961 18.1139 23.9961C17.8089 23.9961 17.5211 23.9239 17.2661 23.795C17.6106 24.2467 18.1544 24.5384 18.7667 24.5384C19.8056 24.5384 20.6478 23.6984 20.6517 22.6611V13.7623H22.275ZM18.6861 18.5445V18.0395C18.4989 18.0139 18.31 18.0011 18.1206 18.0011C15.8444 18.0011 14 19.845 14 22.1195C14 23.5456 14.725 24.8023 15.8267 25.5411C15.1 24.7989 14.6522 23.7828 14.6522 22.6617C14.6522 20.4161 16.4506 18.5906 18.6861 18.5445Z" fill="#81D4FA"/>
</svg>
