<svg width="40" height="40" viewBox="0 0 40 40" fill="none" xmlns="http://www.w3.org/2000/svg">
<path fill-rule="evenodd" clip-rule="evenodd" d="M27.7778 30H12.2222C10.995 30 10 29.005 10 27.7778V12.2222C10 10.995 10.995 10 12.2222 10H27.7778C29.005 10 30 10.995 30 12.2222V27.7778C30 29.005 29.005 30 27.7778 30Z" fill="#212121"/>
<path d="M25.6984 25.5554H22.1223L14.3495 14.4443H17.9256L25.6984 25.5554ZM22.5484 24.6132H23.9723L17.4995 15.3866H16.0756L22.5484 24.6132Z" fill="white"/>
<path d="M15.4811 25.5555L19.4827 20.92L18.9594 20.2261L14.3461 25.5555H15.4811Z" fill="white"/>
<path d="M20.25 18.7338L20.7528 19.4499L25.0756 14.4443H23.9644L20.25 18.7338Z" fill="white"/>
</svg>
