<svg width="40" height="40" viewBox="0 0 40 40" fill="none" xmlns="http://www.w3.org/2000/svg">
<path d="M29.6 24.95C29.4 26 28.55 26.8 27.5 26.95C25.85 27.2 23.1 27.5 20 27.5C16.95 27.5 14.2 27.2 12.5 26.95C11.45 26.8 10.6 26 10.4 24.95C10.2 23.8 10 22.1 10 20C10 17.9 10.2 16.2 10.4 15.05C10.6 14 11.45 13.2 12.5 13.05C14.15 12.8 16.9 12.5 20 12.5C23.1 12.5 25.8 12.8 27.5 13.05C28.55 13.2 29.4 14 29.6 15.05C29.8 16.2 30.05 17.9 30.05 20C30 22.1 29.8 23.8 29.6 24.95Z" fill="#FF3D00"/>
<path d="M18 23.5V16.5L24 20L18 23.5Z" fill="white"/>
</svg>
