<svg width="24" height="24" viewBox="0 0 24 24" fill="none" xmlns="http://www.w3.org/2000/svg">
<path d="M13.2422 4.49219C12.9375 4.49219 12.6621 4.67773 12.5469 4.96094C12.4316 5.24414 12.5 5.56836 12.7188 5.78125L18.4395 11.5H3.75C3.48047 11.4961 3.22852 11.6387 3.0918 11.8711C2.95508 12.1055 2.95508 12.3945 3.0918 12.6289C3.22852 12.8613 3.48047 13.0039 3.75 13H18.4395L12.7188 18.7188C12.5234 18.9082 12.4453 19.1875 12.5137 19.4492C12.582 19.7129 12.7871 19.918 13.0508 19.9863C13.3125 20.0547 13.5918 19.9766 13.7812 19.7812L20.7812 12.7812C21.0723 12.4883 21.0723 12.0117 20.7812 11.7188L13.7812 4.71875C13.6387 4.57422 13.4453 4.49219 13.2422 4.49219Z" fill="black" fill-opacity="0.4" style="fill:black;fill:black;fill-opacity:0.4;"/>
</svg>
