<svg width="1756" height="257" viewBox="0 0 1756 257" fill="none" xmlns="http://www.w3.org/2000/svg">
<path fill-rule="evenodd" clip-rule="evenodd" d="M916.96 66.7499H956.6L953.56 80.9299H913.93L891.9 181.93C890.9 186.47 890.33 191.1 890.2 195.75C890.2 208.54 898.33 214.81 911.2 214.81C921.24 214.52 931.03 211.69 939.67 206.59L936.89 221.39C927.42 226.58 916.8 229.31 906 229.3C885 229.3 870.43 218.46 870.43 199.04C870.59 193.61 871.27 188.21 872.44 182.91L894.83 80.9399H871.1L874.14 66.7599H897.87L907.34 24.3299L927.93 16.4699L916.97 66.7599L916.96 66.7499ZM809.83 66.7499H850.19L821.72 197.7C820.85 201.15 820.28 204.68 820.02 208.23C820.02 212.49 822.75 215.16 828.15 215.16C833.18 214.95 838.07 213.47 842.36 210.84L839.32 224.35C833.8 227.66 827.49 229.44 821.05 229.49C807.82 229.49 800.72 222.25 800.72 211.05C800.91 206.95 801.48 202.87 802.42 198.88L828.16 81.1299H806.8L809.84 66.7499H809.83ZM862.75 19.3799C862.31 23.6199 860.34 27.5499 857.22 30.4599C854.1 33.3699 850.03 35.0499 845.76 35.1999C843.03 35.1999 840.41 34.1199 838.48 32.1899C836.55 30.2599 835.46 27.6499 835.46 24.9199C835.78 20.7999 837.62 16.9399 840.62 14.0899C843.62 11.2399 847.58 9.60993 851.73 9.50993C854.49 9.39993 857.19 10.3599 859.25 12.2099C861.31 14.0499 862.56 16.6199 862.75 19.3799ZM735.4 107.9C735.4 99.0099 729.63 92.4899 718.46 92.4899C695.76 92.4899 676.76 115.2 669.3 139.55C675.34 140.75 681.47 141.41 687.63 141.5C718.83 141.45 735.4 126.96 735.4 107.9ZM776.58 107.9C776.58 141.14 743.02 167.44 693.86 167.44C683.85 167.48 673.86 166.48 664.05 164.46C664.05 165.8 663.69 167.13 663.69 168.11C663.69 188.66 677.59 200.01 697.92 200.01C717.87 198.99 737.28 193.23 754.55 183.21L748.11 214.03C729.21 224.06 708.15 229.35 686.75 229.44C647.78 229.44 618.59 210.02 618.59 170.21C618.59 115.91 663.01 63.9699 722.32 63.9699C753.72 63.8199 776.78 78.61 776.78 107.89H776.57L776.58 107.9ZM617 109.85C616.89 112.84 616.55 115.81 615.97 118.74L572.63 119.71C573.04 117.44 573.26 115.14 573.3 112.83C573.3 101.99 569.23 92.2799 556.36 92.2799C542.46 92.2799 530.62 102.55 522.44 115.29C512.48 131.56 507 150.17 506.53 169.23C506.53 189.78 518.37 200.05 540.09 200.05C559.85 199.03 579.06 193.16 595.99 182.94L589.19 213.51C571.57 223.71 551.6 229.16 531.23 229.33C491.59 229.33 461.07 211.25 461.07 169.79C461.07 114.82 501.79 63.8599 560.06 63.8599C594.34 63.8099 617.05 81.5799 617.05 109.84H617V109.85ZM386.79 160.19L401.51 94.0699C398.37 92.3099 394.82 91.41 391.21 91.45C351.88 91.45 326.81 137.69 326.81 171.03C326.81 189.78 334.63 199.64 349.87 199.64C354.5 199.83 359.11 199 363.39 197.23C367.67 195.46 371.5 192.77 374.63 189.37C381 180.77 385.19 170.76 386.83 160.19H386.78H386.79ZM427.97 72.8599L452.37 66.5899L426.63 183.41C425.95 186.33 425.5 189.3 425.29 192.3C425.29 196.56 427.66 198.88 432.75 198.88C438.16 198.44 443.43 196.86 448.19 194.26L443.04 219.28C433.36 224.89 422.37 227.84 411.17 227.81C397.58 227.81 386.05 221.9 383.01 210.39C376.89 216.6 369.54 221.48 361.43 224.71C353.32 227.94 344.63 229.45 335.9 229.14C301.98 229.14 281.33 207.41 281.33 172.22C281.42 157.85 284.36 143.63 289.98 130.4C295.59 117.16 303.77 105.16 314.05 95.0899C324.32 85.0199 336.49 77.07 349.85 71.7C363.21 66.33 377.5 63.6599 391.91 63.8199C404.62 63.7799 417.12 67.0099 428.2 73.2199L427.94 72.8599H427.97ZM216.91 0.939941H283.83L244.09 184.85C243.41 187.77 242.96 190.75 242.75 193.74C242.75 198 245.43 200.32 250.52 200.32C255.76 199.85 260.84 198.29 265.45 195.75L259.99 220.72C250.33 226.38 239.33 229.35 228.13 229.3C210.22 229.3 197.24 221.39 197.24 202.33C197.35 196.34 198.15 190.37 199.61 184.56L232.56 32.1399H210.53L216.91 0.959946V0.939941ZM149.27 75.9899C149.56 72.5599 149.1 69.1099 147.93 65.8699C146.76 62.6299 144.9 59.6899 142.48 57.2399C136.35 52.0999 126.57 49.9999 111.59 49.9999H85.39L68.09 128.6H87.5C109.17 128.6 123.07 124.03 132.54 115.76C137.96 110.67 142.26 104.5 145.14 97.6499C148.02 90.7999 149.43 83.4199 149.27 75.9899ZM197.92 73.2199C198.08 85.2399 195.5 97.1499 190.4 108.03C185.29 118.92 177.78 128.51 168.43 136.09C150.46 150.53 125.75 157.46 94.2 157.46H62.03L47.1 226.3H0L38.3 49.9899H14.57L21.36 18.0899H116.59C146.4 18.0899 166.78 22.3499 180.63 33.1899C192.16 42.0799 197.93 54.9199 197.93 73.2099L197.92 73.2199Z" fill="#191919"/>
<path fill-rule="evenodd" clip-rule="evenodd" d="M1006.65 220.66C1002.4 220.83 998.21 219.62 994.72 217.19C991.64 214.83 989.61 211.37 989.04 207.54L996.22 175.95C998.23 171.15 1001.71 167.11 1006.18 164.42C1010.79 161.37 1016.19 159.74 1021.72 159.73C1024.81 159.6 1027.85 160.51 1030.36 162.31C1032.81 164.28 1034.47 167.05 1035.06 170.14C1036 174.15 1036.21 178.29 1035.67 182.37L1034.45 189.07L1034.17 190.34C1032.51 198.67 1028.78 206.45 1023.33 212.97C1021.28 215.39 1018.72 217.33 1015.85 218.66C1012.97 219.99 1009.83 220.67 1006.66 220.66H1006.65ZM1042.85 189.73C1043.39 186.99 1043.79 184.22 1044.02 181.44C1044.5 176.29 1044 171.09 1042.57 166.11C1041.33 161.66 1038.64 157.75 1034.92 155C1031.07 152.4 1026.51 151.08 1021.86 151.2C1016.39 151.19 1011 152.54 1006.18 155.14C1003.7 156.44 1001.39 158.01 999.27 159.83L1006.97 125.76C1007.06 125.43 1007.06 125.08 1007 124.75C1006.93 124.42 1006.77 124.1 1006.56 123.84C1006.35 123.56 1006.08 123.34 1005.77 123.18C1005.45 123.03 1005.12 122.95 1004.77 122.95H1001.2C1000.63 122.95 1000.08 123.15 999.64 123.51C999.2 123.87 998.89 124.36 998.76 124.92L976.79 224.79C976.72 225.12 976.72 225.47 976.79 225.8C976.86 226.13 977.01 226.44 977.21 226.71C977.42 226.98 977.69 227.2 978 227.35C978.31 227.5 978.65 227.57 979 227.56H982.61C983.17 227.56 983.71 227.37 984.15 227.02C984.59 226.67 984.89 226.18 985.01 225.64L986.23 220.44C987.86 222.46 989.88 224.14 992.14 225.41C996.45 227.77 1001.31 228.97 1006.23 228.88C1010.34 228.88 1014.39 228.06 1018.16 226.45C1021.93 224.84 1025.33 222.48 1028.16 219.51C1034.82 212.37 1039.48 203.61 1041.69 194.11L1042.86 189.75L1042.85 189.73Z" fill="#191919"/>
<path fill-rule="evenodd" clip-rule="evenodd" d="M1114.83 153.73C1114.62 153.38 1114.33 153.08 1113.98 152.88C1113.62 152.67 1113.22 152.56 1112.81 152.56H1108.77C1108.34 152.56 1107.92 152.68 1107.54 152.89C1107.15 153.1 1106.84 153.41 1106.61 153.77L1071.02 213.01L1060.69 154.29C1060.59 153.77 1060.31 153.3 1059.9 152.97C1059.49 152.64 1058.97 152.46 1058.45 152.47H1054.64C1054.28 152.47 1053.92 152.56 1053.6 152.71C1053.27 152.86 1052.99 153.09 1052.76 153.36C1052.53 153.62 1052.35 153.94 1052.25 154.28C1052.16 154.62 1052.13 154.98 1052.2 155.33L1064.55 224.13L1058.11 235L1055.34 239.17C1053.95 241.62 1051.98 243.69 1049.6 245.18C1047.22 246.68 1044.49 247.56 1041.68 247.74C1040.3 247.66 1038.94 247.48 1037.59 247.18C1037.27 247.13 1036.94 247.15 1036.63 247.23C1036.31 247.31 1036.02 247.45 1035.76 247.65C1035.23 248.03 1034.86 248.6 1034.72 249.24L1034.21 252.61C1034.1 253.17 1034.21 253.74 1034.52 254.22C1034.83 254.7 1035.31 255.04 1035.85 255.19C1037.78 255.72 1039.77 255.99 1041.77 255.99C1046.37 255.92 1050.82 254.43 1054.54 251.72C1059.21 248.06 1063.04 243.44 1065.77 238.18L1114.75 156.26C1114.95 155.89 1115.06 155.48 1115.06 155.06C1115.06 154.64 1114.95 154.23 1114.75 153.86" fill="#191919"/>
<path d="M1306.71 143.56C1327.83 143.56 1348.49 156.01 1348.49 183.76C1348.49 185.97 1348.37 189.37 1348.13 191.78C1348.07 192.33 1347.61 192.75 1347.05 192.75H1287.8C1289.53 202.68 1296.47 209.15 1307.35 209.15C1314.56 209.15 1319.17 205.16 1321.67 200.4C1321.99 199.8 1322.66 199.49 1323.33 199.63L1345.49 204.46C1346.17 204.61 1346.53 205.34 1346.25 205.97C1341.07 217.71 1329.29 229.33 1307.2 229.33C1278.19 229.33 1262.74 210.41 1262.74 186.45C1262.74 162.49 1278.82 143.57 1306.72 143.57L1306.71 143.56ZM1323.74 177.61C1322.64 168.15 1316.33 163.11 1307.19 163.11C1295.21 163.11 1290.16 169.26 1288.27 177.61H1323.74Z" fill="#191919"/>
<path d="M1356.06 225.71V147.16C1356.06 146.56 1356.55 146.08 1357.14 146.08H1380.19C1380.79 146.08 1381.27 146.57 1381.27 147.16V156.48C1386.79 147.81 1394.99 143.55 1405.55 143.55C1421 143.55 1434.24 154.11 1434.24 177.76V225.7C1434.24 226.3 1433.75 226.78 1433.16 226.78H1410.11C1409.51 226.78 1409.03 226.29 1409.03 225.7V181.38C1409.03 170.82 1403.51 164.98 1395.47 164.98C1386.8 164.98 1381.28 170.66 1381.28 183.58V225.69C1381.28 226.29 1380.79 226.77 1380.2 226.77H1357.15C1356.55 226.77 1356.07 226.28 1356.07 225.69L1356.06 225.71Z" fill="#191919"/>
<path d="M1435.8 146.08H1460.25C1460.73 146.08 1461.15 146.39 1461.29 146.85L1479.66 207.72L1498.03 146.85C1498.17 146.39 1498.59 146.08 1499.07 146.08H1523.52C1524.27 146.08 1524.79 146.82 1524.54 147.53L1496.42 225.79C1496.2 226.39 1495.63 226.79 1494.99 226.79H1464.34C1463.7 226.79 1463.13 226.39 1462.91 225.79L1434.79 147.53C1434.54 146.82 1435.06 146.08 1435.81 146.08H1435.8Z" fill="#191919"/>
<path d="M1578.03 225.71V213.39C1574.09 221.59 1565.26 229.31 1551.55 229.31C1535.63 229.31 1523.8 219.22 1523.8 205.03C1523.8 190.05 1533.73 178.86 1555.49 178.86H1568.1C1575.04 178.86 1576.93 173.82 1576.3 170.5C1575.35 164.82 1570.31 161.83 1563.22 161.83C1554.26 161.83 1548.84 166.78 1548.16 173.6C1548.1 174.22 1547.53 174.67 1546.91 174.56L1525.52 171C1524.93 170.9 1524.52 170.34 1524.63 169.74C1528.11 151.13 1545.76 143.54 1563.86 143.54C1581.96 143.54 1602.01 147.95 1602.01 181.38V225.7C1602.01 226.3 1601.52 226.78 1600.93 226.78H1579.14C1578.54 226.78 1578.06 226.29 1578.06 225.7L1578.03 225.71ZM1558.96 211.03C1569.05 211.03 1575.99 203.46 1576.77 194H1561.48C1552.18 194 1548.87 197.78 1549.03 202.99C1549.19 208.51 1553.6 211.03 1558.96 211.03Z" fill="#191919"/>
<path d="M1605.78 165.17V147.16C1605.78 146.56 1606.27 146.08 1606.86 146.08H1615.86C1620.04 146.08 1623.43 142.69 1623.43 138.51V124.46C1623.43 123.86 1623.92 123.38 1624.51 123.38H1645.04C1645.64 123.38 1646.12 123.87 1646.12 124.46V146.08H1662.69C1663.29 146.08 1663.77 146.57 1663.77 147.16V165.17C1663.77 165.77 1663.28 166.25 1662.69 166.25H1646.12V195.42C1646.12 204.92 1654.2 208.8 1662.63 205.8C1663.19 205.6 1663.78 206.02 1663.78 206.62V225.62C1663.78 226.32 1663.31 226.93 1662.63 227.09C1660.45 227.61 1657.43 228.05 1653.85 228.05C1634.3 228.05 1620.9 221.43 1620.9 193.05V166.25H1606.85C1606.25 166.25 1605.77 165.76 1605.77 165.17H1605.78Z" fill="#191919"/>
<path d="M1755.86 186.44C1755.86 210.09 1739.15 229.32 1711.72 229.32C1684.29 229.32 1667.58 210.09 1667.58 186.44C1667.58 162.79 1684.29 143.56 1711.72 143.56C1739.15 143.56 1755.86 162.79 1755.86 186.44ZM1730.64 186.44C1730.64 174.77 1724.18 165 1711.72 165C1699.26 165 1692.8 174.77 1692.8 186.44C1692.8 198.11 1699.26 207.88 1711.72 207.88C1724.18 207.88 1730.64 198.11 1730.64 186.44Z" fill="#191919"/>
<path d="M1194.87 256.94C1198.35 256.94 1201.18 254.115 1201.18 250.63C1201.18 247.145 1198.35 244.32 1194.87 244.32C1191.38 244.32 1188.56 247.145 1188.56 250.63C1188.56 254.115 1191.38 256.94 1194.87 256.94Z" fill="#87E64B"/>
<path d="M1231.09 207.7L1195.57 211.5C1194.92 211.57 1194.58 210.74 1195.1 210.34L1229.86 183.28C1232.12 181.43 1233.55 178.56 1232.94 175.48C1232.32 170.76 1228.43 167.68 1223.5 168.3L1185.73 173.83C1185.07 173.93 1184.71 173.08 1185.24 172.67L1222.68 144.09C1230.07 138.34 1230.68 127.06 1223.91 120.49C1217.75 114.33 1207.91 114.54 1201.75 120.7L1141.43 182.05C1139.17 184.51 1138.15 187.8 1138.76 191.28C1139.79 196.82 1145.33 200.51 1150.87 199.49L1183.39 192.86C1184.1 192.72 1184.48 193.66 1183.87 194.05L1147.79 217.14C1143.28 220.01 1141.22 225.14 1142.66 230.27C1144.1 237.04 1150.87 240.94 1157.43 239.3L1211.36 226.02C1211.97 225.87 1212.41 226.58 1212.02 227.06L1203.6 237.46C1201.34 240.33 1205.04 244.23 1208.11 241.97L1235.81 219.19C1240.73 215.09 1237.45 207.08 1231.09 207.7Z" fill="#87E64B"/>
</svg>
