<svg width="1684" height="257" viewBox="0 0 1684 257" fill="none" xmlns="http://www.w3.org/2000/svg">
<path d="M293.781 50.8303C332.151 50.8303 369.651 73.4503 369.651 123.84C369.651 127.84 369.431 134.04 368.991 138.4C368.891 139.4 368.041 140.16 367.031 140.16H259.411C262.561 158.2 275.161 169.94 294.911 169.94C308.011 169.94 316.371 162.7 320.921 154.04C321.491 152.95 322.731 152.38 323.931 152.64L364.171 161.41C365.401 161.68 366.051 163 365.551 164.15C356.141 185.46 334.741 206.58 294.631 206.58C241.951 206.58 213.891 172.22 213.891 128.7C213.891 85.1803 243.091 50.8203 293.771 50.8203L293.781 50.8303ZM324.701 112.68C322.701 95.5003 311.241 86.3403 294.641 86.3403C272.881 86.3403 263.721 97.5103 260.281 112.68H324.701Z" fill="#191919"/>
<path d="M383.4 200.04V57.3903C383.4 56.3003 384.28 55.4203 385.37 55.4203H427.24C428.33 55.4203 429.21 56.3003 429.21 57.3903V74.3203C439.23 58.5703 454.12 50.8403 473.3 50.8403C501.36 50.8403 525.41 70.0203 525.41 112.97V200.04C525.41 201.13 524.53 202.01 523.44 202.01H481.57C480.48 202.01 479.6 201.13 479.6 200.04V119.55C479.6 100.37 469.58 89.7703 454.98 89.7703C439.23 89.7703 429.21 100.08 429.21 123.56V200.04C429.21 201.13 428.33 202.01 427.24 202.01H385.37C384.28 202.01 383.4 201.13 383.4 200.04Z" fill="#191919"/>
<path d="M528.22 55.4104H572.63C573.5 55.4104 574.26 55.9804 574.52 56.8104L607.88 167.36L641.24 56.8104C641.49 55.9804 642.26 55.4104 643.13 55.4104H687.54C688.9 55.4104 689.86 56.7604 689.39 58.0504L638.31 200.18C637.92 201.27 636.88 202.01 635.71 202.01H580.04C578.88 202.01 577.84 201.28 577.44 200.18L526.36 58.0504C525.9 56.7704 526.85 55.4104 528.21 55.4104H528.22Z" fill="#191919"/>
<path d="M786.541 200.04V177.67C779.381 192.56 763.351 206.59 738.441 206.59C709.521 206.59 688.051 188.27 688.051 162.5C688.051 135.3 706.091 114.97 745.601 114.97H768.511C781.111 114.97 784.541 105.81 783.401 99.8003C781.681 89.4903 772.521 84.0503 759.641 84.0503C743.371 84.0503 733.521 93.0403 732.281 105.42C732.171 106.55 731.131 107.36 730.011 107.17L691.171 100.7C690.091 100.52 689.351 99.4903 689.551 98.4203C695.881 64.6303 727.921 50.8403 760.801 50.8403C793.681 50.8403 830.091 58.8603 830.091 119.56V200.05C830.091 201.14 829.211 202.02 828.121 202.02H788.541C787.451 202.02 786.571 201.14 786.571 200.05L786.541 200.04ZM751.901 173.38C770.221 173.38 782.821 159.64 784.251 142.46H756.481C739.591 142.46 733.571 149.33 733.861 158.78C734.151 168.8 742.161 173.38 751.901 173.38Z" fill="#191919"/>
<path d="M836.94 90.0904V57.3804C836.94 56.2904 837.82 55.4104 838.91 55.4104H855.26C862.85 55.4104 869 49.2604 869 41.6704V16.1504C869 15.0604 869.88 14.1804 870.97 14.1804H908.26C909.35 14.1804 910.23 15.0604 910.23 16.1504V55.4104H940.33C941.42 55.4104 942.3 56.2904 942.3 57.3804V90.0904C942.3 91.1804 941.42 92.0604 940.33 92.0604H910.23V145.03C910.23 162.29 924.9 169.32 940.22 163.88C941.24 163.52 942.3 164.29 942.3 165.36V199.87C942.3 201.14 941.44 202.26 940.21 202.55C936.25 203.49 930.76 204.3 924.27 204.3C888.77 204.3 864.43 192.27 864.43 140.74V92.0704H838.91C837.82 92.0704 836.94 91.1904 836.94 90.1004V90.0904Z" fill="#191919"/>
<path d="M1109.52 128.71C1109.52 171.66 1079.17 206.59 1029.35 206.59C979.531 206.59 949.181 171.66 949.181 128.71C949.181 85.7603 979.531 50.8303 1029.35 50.8303C1079.17 50.8303 1109.52 85.7603 1109.52 128.71ZM1063.71 128.71C1063.71 107.52 1051.97 89.7703 1029.35 89.7703C1006.73 89.7703 994.991 107.52 994.991 128.71C994.991 149.9 1006.73 167.65 1029.35 167.65C1051.97 167.65 1063.71 149.9 1063.71 128.71Z" fill="#191919"/>
<path d="M102.231 256.75C108.554 256.75 113.681 251.624 113.681 245.3C113.681 238.977 108.554 233.85 102.231 233.85C95.9071 233.85 90.7808 238.977 90.7808 245.3C90.7808 251.624 95.9071 256.75 102.231 256.75Z" fill="#87E64B"/>
<path d="M168.001 167.33L103.491 174.24C102.311 174.37 101.701 172.86 102.641 172.13L165.771 122.98C169.871 119.63 172.481 114.41 171.361 108.82C170.241 100.25 163.161 94.6603 154.221 95.7803L85.6308 105.82C84.4208 106 83.7708 104.45 84.7408 103.71L152.731 51.8003C166.151 41.3703 167.261 20.8703 154.971 8.95034C143.791 -2.22966 125.901 -1.85965 114.721 9.32035L5.16079 120.74C1.06079 125.21 -0.799204 131.17 0.320796 137.51C2.1808 147.57 12.2408 154.28 22.3108 152.42L81.3708 140.37C82.6508 140.11 83.3508 141.82 82.2408 142.52L16.7108 184.46C8.5108 189.68 4.79079 198.99 7.39079 208.31C10.0008 220.61 22.3008 227.69 34.2208 224.71L132.171 200.58C133.271 200.31 134.081 201.59 133.371 202.47L118.071 221.35C113.971 226.57 120.681 233.65 126.271 229.55L176.581 188.19C185.521 180.74 179.561 166.2 168.011 167.32L168.001 167.33Z" fill="#87E64B"/>
<path d="M1141.95 74.0798V61.9898C1141.95 60.8998 1142.83 60.0198 1143.92 60.0198H1156.84C1164.43 60.0198 1170.58 53.8698 1170.58 46.2798V20.7698C1170.58 19.6798 1171.46 18.7998 1172.55 18.7998H1185.79C1186.88 18.7998 1187.76 19.6798 1187.76 20.7698V60.0198H1217.85C1218.94 60.0198 1219.82 60.8998 1219.82 61.9898V74.0798C1219.82 75.1698 1218.94 76.0498 1217.85 76.0498H1187.76V159.07C1187.76 186.99 1204.63 188.48 1217.36 185.25C1218.61 184.93 1219.83 185.86 1219.83 187.15V199.97C1219.83 200.87 1219.22 201.65 1218.35 201.88C1215.13 202.73 1211.15 203.16 1206.95 203.16C1179.75 203.16 1169.45 188.27 1169.45 157.07V76.0498H1143.94C1142.85 76.0498 1141.97 75.1698 1141.97 74.0798H1141.95Z" fill="#191919"/>
<path d="M1348.93 61.9898V200.04C1348.93 201.13 1348.05 202.01 1346.96 202.01H1332.58C1331.49 202.01 1330.61 201.13 1330.61 200.04V179.68C1320.88 196 1305.99 204.3 1287.67 204.3C1259.9 204.3 1234.42 190.27 1234.42 146.47V61.9798C1234.42 60.8898 1235.3 60.0098 1236.39 60.0098H1250.77C1251.86 60.0098 1252.74 60.8898 1252.74 61.9798V146.75C1252.74 172.86 1266.54 187.18 1290.98 187.11C1313 187.05 1330.6 168.69 1330.6 146.67V61.9698C1330.6 60.8798 1331.48 59.9998 1332.57 59.9998H1346.95C1348.04 59.9998 1348.92 60.8798 1348.92 61.9698L1348.93 61.9898Z" fill="#191919"/>
<path d="M1363.24 74.0798V61.9898C1363.24 60.8998 1364.12 60.0198 1365.21 60.0198H1378.13C1385.72 60.0198 1391.87 53.8698 1391.87 46.2798V20.7698C1391.87 19.6798 1392.75 18.7998 1393.84 18.7998H1407.08C1408.17 18.7998 1409.05 19.6798 1409.05 20.7698V60.0198H1439.14C1440.23 60.0198 1441.11 60.8998 1441.11 61.9898V74.0798C1441.11 75.1698 1440.23 76.0498 1439.14 76.0498H1409.05V159.07C1409.05 186.99 1425.92 188.48 1438.65 185.25C1439.9 184.93 1441.12 185.86 1441.12 187.15V199.97C1441.12 200.87 1440.51 201.65 1439.64 201.88C1436.42 202.73 1432.44 203.16 1428.24 203.16C1401.04 203.16 1390.74 188.27 1390.74 157.07V76.0498H1365.23C1364.14 76.0498 1363.26 75.1698 1363.26 74.0798H1363.24Z" fill="#191919"/>
<path d="M1465.21 154.03C1466.37 153.82 1467.46 154.67 1467.52 155.84C1468.56 175.75 1480.03 188.27 1503.23 188.27C1524.42 188.27 1536.73 177.68 1536.73 164.51C1536.73 147.91 1527 143.9 1498.65 137.03C1475.46 131.3 1454.28 122.14 1454.28 96.6597C1454.28 71.1797 1476.61 57.7297 1503.52 57.7297C1530.43 57.7297 1549.63 72.4997 1552.85 98.8297C1552.98 99.8597 1552.25 100.81 1551.23 100.99L1537.47 103.43C1536.34 103.63 1535.27 102.83 1535.17 101.68C1533.98 87.5097 1526.14 73.7497 1503.24 73.7497C1482.91 73.7497 1472.61 84.0597 1472.61 95.7897C1472.61 107.52 1480.34 114.68 1509.25 121.55C1534.73 127.56 1555.06 135.86 1555.06 162.77C1555.06 191.11 1530.15 204.28 1503.24 204.28C1474.3 204.28 1451.43 188.84 1449.78 158.49C1449.73 157.5 1450.44 156.63 1451.41 156.46L1465.22 154.01L1465.21 154.03Z" fill="#191919"/>
<path d="M1683.87 139.77V149.57C1683.87 150.66 1682.99 151.54 1681.9 151.54H1633.48V199.95C1633.48 201.04 1632.6 201.92 1631.51 201.92H1621.71C1620.62 201.92 1619.74 201.04 1619.74 199.95V151.54H1571.33C1570.24 151.54 1569.36 150.66 1569.36 149.57V139.77C1569.36 138.68 1570.24 137.8 1571.33 137.8H1619.74V89.3899C1619.74 88.2999 1620.62 87.4199 1621.71 87.4199H1631.51C1632.6 87.4199 1633.48 88.2999 1633.48 89.3899V137.8H1681.9C1682.99 137.8 1683.87 138.68 1683.87 139.77Z" fill="#191919"/>
</svg>
