<svg width="130" height="21" viewBox="0 0 130 21" fill="none" xmlns="http://www.w3.org/2000/svg">
<g clip-path="url(#clip0_3910_6278)">
<path d="M127.09 9.64877C126.691 9.64877 126.301 9.53032 125.968 9.30842C125.636 9.08651 125.378 8.77111 125.225 8.40209C125.072 8.03307 125.032 7.62702 125.11 7.23527C125.188 6.84352 125.38 6.48368 125.662 6.20125C125.945 5.91881 126.305 5.72647 126.696 5.64855C127.088 5.57063 127.494 5.61062 127.863 5.76347C128.232 5.91633 128.548 6.17517 128.77 6.50728C128.992 6.83938 129.11 7.22984 129.11 7.62926C129.11 8.16486 128.897 8.67853 128.518 9.05727C128.14 9.436 127.626 9.64877 127.09 9.64877ZM127.09 5.81874C126.732 5.81438 126.38 5.91671 126.08 6.11274C125.78 6.30877 125.544 6.58964 125.404 6.91966C125.264 7.24968 125.225 7.61395 125.292 7.96616C125.36 8.31838 125.53 8.64264 125.782 8.89775C126.034 9.15285 126.356 9.32727 126.708 9.39885C127.059 9.47043 127.424 9.43592 127.755 9.29973C128.087 9.16353 128.371 8.93179 128.57 8.63395C128.77 8.33612 128.877 7.98564 128.877 7.62706C128.876 7.15159 128.688 6.6956 128.354 6.35735C128.02 6.01909 127.566 5.82566 127.09 5.81874ZM127.627 8.68961L127.075 7.78105H126.714V8.68961H126.463V6.50731H127.178C127.266 6.50288 127.354 6.51609 127.437 6.54616C127.52 6.57624 127.596 6.62257 127.66 6.68244C127.725 6.7423 127.777 6.81448 127.813 6.89472C127.849 6.97496 127.869 7.06165 127.871 7.14968C127.871 7.2945 127.82 7.43458 127.727 7.54581C127.634 7.65703 127.506 7.73244 127.363 7.75905L127.926 8.68961H127.627ZM127.141 6.7471H126.701V7.54566H127.141C127.198 7.55419 127.257 7.55028 127.312 7.53419C127.368 7.5181 127.419 7.4902 127.463 7.45241C127.507 7.41462 127.542 7.36781 127.566 7.31519C127.591 7.26257 127.603 7.20536 127.603 7.14748C127.603 7.08959 127.591 7.03239 127.566 6.97977C127.542 6.92714 127.507 6.88034 127.463 6.84255C127.419 6.80475 127.368 6.77686 127.312 6.76077C127.257 6.74467 127.198 6.74076 127.141 6.7493V6.7471ZM98.1574 5.66034C98.0892 5.66034 98.0672 5.68234 97.4578 5.70654C96.8484 5.73074 95.6451 5.75494 93.245 5.75494H90.3301C87.93 5.75494 86.7443 5.73294 86.1173 5.70654C85.4903 5.68014 85.4859 5.66034 85.4178 5.66034C85.1384 5.66034 85.1384 5.84734 85.1384 6.38191V8.52462C85.1384 8.64121 85.1384 8.9206 85.3716 8.9206C85.6047 8.9206 85.6729 8.826 86.0931 7.96584C86.3659 7.36967 86.9159 6.50731 90.0815 6.47871C90.4093 6.48971 90.5479 6.5645 90.5479 7.08148V17.905C90.5479 18.8136 90.5479 19.4449 89.382 19.5109C88.8936 19.5571 88.5702 19.5813 88.5702 19.9069C88.5702 20.2325 88.8716 20.2545 89.0586 20.2545C89.4986 20.2545 91.3861 20.1621 91.7821 20.1621C92.552 20.1621 93.762 20.2545 94.5297 20.2545C94.7167 20.2545 95.0181 20.2545 95.0181 19.9069C95.0181 19.5593 94.6925 19.5329 94.202 19.5109C93.0382 19.4405 93.0382 18.8114 93.0382 17.8588V7.24427C93.0382 6.6393 93.113 6.51171 93.7928 6.48311C96.6922 6.5623 97.218 7.38727 97.482 7.96584C97.9022 8.826 97.9484 8.9206 98.2036 8.9206C98.4588 8.9206 98.4368 8.64121 98.4368 8.52462V6.37971C98.4368 5.84734 98.4368 5.66034 98.1574 5.66034ZM72.9927 16.5543C72.7727 16.5543 72.7375 16.6467 72.3173 17.4606C71.2944 19.4405 69.8512 19.4405 68.8261 19.4405C66.8704 19.4405 66.382 19.1853 66.382 17.531V13.5294C66.382 12.832 66.5668 12.832 67.6844 12.832C69.5939 12.832 70.2472 12.854 70.7356 14.6491C70.8522 15.0891 70.9908 15.2079 71.1756 15.2079C71.455 15.2079 71.455 14.8823 71.455 14.7415C71.455 14.5545 71.3846 13.7406 71.3846 13.5778C71.3846 13.0652 71.5474 10.6673 71.5474 10.3439C71.5474 10.0887 71.4308 10.0161 71.2922 10.0161C71.1536 10.0161 71.059 10.0645 70.9424 10.3659C70.5222 11.6001 70.3154 12.1105 67.7305 12.1105C66.382 12.1105 66.382 11.9235 66.382 11.1799V7.80085C66.382 6.6371 66.4744 6.48091 67.6382 6.48091C70.938 6.48091 71.5012 7.36087 71.7828 7.97024C72.2029 8.8304 72.2491 8.925 72.5043 8.925C72.7595 8.925 72.7375 8.64561 72.7375 8.52902V6.37971C72.7375 5.84514 72.7375 5.65814 72.4581 5.65814C72.3877 5.65814 72.3657 5.68014 71.7608 5.70434C71.1558 5.72854 69.9436 5.75274 67.548 5.75274H66.437C64.4571 5.75274 63.4561 5.73074 62.9458 5.70434C62.7507 5.69976 62.5561 5.68433 62.3628 5.65814C62.2 5.65814 61.8964 5.65814 61.8964 5.98593C61.8964 6.31372 62.2242 6.35771 62.7346 6.37971C63.8983 6.45011 63.8983 7.07708 63.8983 8.03184V17.8588C63.8983 18.8136 63.8983 19.4427 62.7346 19.5109C62.2462 19.5571 61.8964 19.5813 61.8964 19.9069C61.8964 20.2325 62.2 20.2545 62.3848 20.2545C62.5696 20.2545 62.7346 20.2303 63.1086 20.2083C63.4825 20.1863 64.0633 20.1621 65.0181 20.1621H65.2953C65.4361 20.1621 66.5294 20.1841 67.8581 20.2083C69.1869 20.2325 70.8368 20.2545 72.0226 20.2545C72.7001 20.2545 72.9311 19.9993 72.9531 19.5549C73.0235 18.6948 73.2809 17.2032 73.2809 16.9018C73.2721 16.7654 73.2039 16.5543 72.9927 16.5543ZM110.987 16.5543C110.767 16.5543 110.732 16.6467 110.312 17.4606C109.289 19.4405 107.846 19.4405 106.821 19.4405C104.865 19.4405 104.376 19.1853 104.376 17.531V13.5294C104.376 12.832 104.561 12.832 105.679 12.832C107.588 12.832 108.242 12.854 108.73 14.6491C108.847 15.0891 108.985 15.2079 109.17 15.2079C109.449 15.2079 109.449 14.8823 109.449 14.7415C109.449 14.5545 109.379 13.7406 109.379 13.5778C109.379 13.0652 109.542 10.6673 109.542 10.3439C109.542 10.0887 109.425 10.0161 109.287 10.0161C109.148 10.0161 109.053 10.0645 108.937 10.3659C108.517 11.6001 108.31 12.1105 105.725 12.1105C104.376 12.1105 104.376 11.9235 104.376 11.1799V7.80085C104.376 6.6371 104.469 6.48091 105.633 6.48091C108.932 6.48091 109.496 7.36087 109.777 7.97024C110.197 8.8304 110.244 8.925 110.499 8.925C110.754 8.925 110.732 8.64561 110.732 8.52902V6.37971C110.732 5.84514 110.732 5.65814 110.453 5.65814C110.382 5.65814 110.36 5.68014 109.755 5.70434C109.15 5.72854 107.938 5.75274 105.542 5.75274H104.427C102.447 5.75274 101.446 5.73074 100.936 5.70434C100.741 5.69976 100.546 5.68433 100.353 5.65814C100.19 5.65814 99.8865 5.65814 99.8865 5.98593C99.8865 6.31372 100.214 6.35771 100.725 6.37971C101.888 6.45011 101.888 7.07708 101.888 8.03184V17.8588C101.888 18.8136 101.888 19.4427 100.725 19.5109C100.236 19.5571 99.8865 19.5813 99.8865 19.9069C99.8865 20.2325 100.19 20.2545 100.375 20.2545C100.56 20.2545 100.725 20.2303 101.099 20.2083C101.473 20.1863 102.053 20.1621 103.008 20.1621H103.285C103.426 20.1621 104.519 20.1841 105.848 20.2083C107.177 20.2325 108.827 20.2545 110.013 20.2545C110.69 20.2545 110.921 19.9993 110.943 19.5549C111.014 18.6948 111.271 17.2032 111.271 16.9018C111.267 16.7654 111.196 16.5543 110.987 16.5543ZM80.3316 11.2855C78.4309 10.5023 77.0537 9.90835 77.0537 8.22103C77.0537 7.29707 77.8017 5.95293 79.643 5.97053C81.6229 5.98813 82.0409 7.29047 82.3269 8.22103C82.5645 8.958 82.6613 9.10099 82.8967 9.10099C83.2311 9.10099 83.231 8.9096 83.231 8.38822C83.231 6.29832 83.2311 6.08493 82.9451 5.91773C82.6129 5.75054 81.2137 5.37216 79.8344 5.37216C76.8183 5.37216 75.1552 7.27067 75.1552 9.45517C75.1552 11.9741 77.0317 12.898 78.9544 13.7538C80.6638 14.5369 82.2763 15.4389 82.2763 17.2912C82.2763 19.2139 80.4042 19.8651 79.4164 19.8651C77.7313 19.8651 76.1034 18.4396 75.648 16.3717C75.6018 16.1517 75.5688 15.9141 75.3576 15.9141C75.0716 15.9141 75.0562 16.2463 75.0562 16.3409C75.0544 17.0701 75.0963 17.7989 75.1816 18.5232C75.2454 19.1149 75.34 19.5923 75.6018 19.7837C76.0286 20.0917 77.2011 20.5449 79.0534 20.5449C82.2125 20.5449 84.1594 18.345 84.1594 15.7051C84.155 13.0168 81.6625 11.8531 80.3316 11.2855ZM24.3705 5.37216C19.7991 5.37216 16.3673 8.64781 16.3673 12.9222C16.3673 17.4562 20.1841 20.5449 24.3001 20.5449C28.3017 20.5449 32.2065 17.3154 32.2065 12.7088C32.2065 8.62361 28.7725 5.37216 24.3705 5.37216ZM24.4871 19.8915C21.3522 19.8915 19.1171 16.2529 19.1171 12.4272C19.1171 9.07239 21.2136 6.02333 24.0933 6.02333C27.7847 6.02333 29.4457 9.98315 29.4457 12.8034C29.4457 16.2309 27.7364 19.8915 24.4871 19.8915ZM14.8779 0C14.5552 0.0469393 14.2295 0.0697349 13.9034 0.0681969C13.0234 0.101195 11.2635 0.134194 7.77225 0.134194H7.03968C3.70683 0.134194 2.48809 0.0989955 1.61693 0.0681969C1.30132 0.0628828 0.986257 0.0401157 0.67317 0C0.43998 0 0 0 0 0.470779C0 0.941558 0.505977 0.976756 1.20995 1.04275C2.89287 1.14395 2.89287 2.05251 2.89287 3.43185V17.3616C2.89287 18.4792 2.89287 19.2535 1.45853 19.3415C0.855761 19.3987 0.457579 19.4273 0.457579 19.8299C0.457579 20.2325 0.827163 20.2589 1.05815 20.2589C1.60373 20.2589 3.97742 20.1445 4.4636 20.1445C5.41176 20.1445 6.94949 20.2589 7.89324 20.2589C8.11323 20.2589 8.49382 20.2589 8.49382 19.8299C8.49382 19.4009 8.09344 19.3591 7.49066 19.3393C6.05853 19.2535 6.05853 18.4792 6.05853 17.3044V12.1391C6.05853 11.1843 6.05853 10.8059 6.6063 10.6563C6.96489 10.5595 8.51582 10.5595 9.50357 10.5595C10.3439 10.5595 12.4976 10.5595 12.9684 12.3744C13.0366 12.5438 13.2588 13.415 13.338 13.6526C13.3952 13.822 13.525 14.207 13.8748 14.1894C14.2774 14.1696 14.2796 13.7868 14.2796 13.5514L14.1454 11.9697C14.0794 11.1953 14.0794 10.6255 14.0794 10.3219C14.0794 9.81816 14.1784 7.53026 14.1784 7.06168C14.1784 6.7251 14.0772 6.50731 13.7758 6.48751C13.4744 6.46771 13.305 6.7581 13.239 7.02648C12.81 8.7732 12.3194 9.51677 9.60477 9.51677C9.10099 9.51677 7.10348 9.51677 6.5975 9.44857C6.15752 9.38038 6.06073 9.34738 6.06073 7.53246V2.82467C6.06073 1.24514 6.6349 1.17695 7.77665 1.17695C13.0102 1.17695 13.448 1.89411 14.4511 4.13581C14.5765 4.4152 14.7085 4.80898 15.0781 4.80898C15.4477 4.80898 15.4477 4.27221 15.4477 4.16881V0.604973C15.4477 0.167192 15.4147 0 14.8779 0ZM45.7953 19.5571C45.1354 19.4603 44.8186 18.8817 44.3544 18.0678L42.0973 14.064C41.5605 13.0872 41.2811 12.9486 40.9776 12.7616C41.7695 12.5988 44.1674 12.0401 44.1674 9.31658C44.1674 8.50042 43.8176 5.66034 39.6994 5.66034C38.9998 5.66034 35.9046 5.75494 35.2754 5.75494C34.996 5.75494 33.8565 5.66034 33.6233 5.66034C32.8555 5.66034 32.7609 5.66034 32.7609 5.98813C32.7609 6.31592 33.0887 6.33571 33.5991 6.35991C34.7386 6.43031 34.7386 7.05948 34.7386 8.01204V17.8808C34.7386 18.8576 34.7386 19.4647 33.5991 19.5571C33.1107 19.5791 32.7609 19.6033 32.7609 19.9311C32.7609 20.2589 33.0645 20.2567 33.2493 20.2567C33.6695 20.2567 35.5548 20.1643 35.9508 20.1643C36.0432 20.1643 38.3025 20.2567 38.7447 20.2567C38.9294 20.2567 39.233 20.2787 39.233 19.9553C39.233 19.6319 38.9052 19.5813 38.3949 19.5593C37.2311 19.4889 37.2311 18.8598 37.2311 17.883V13.7032C37.2311 13.3072 37.2795 13.1686 37.6711 13.1686C38.7205 13.1686 38.8349 13.261 39.3474 14.2686L42.1677 19.5571C42.4229 20.0455 42.5153 20.2567 42.9355 20.2567H46.0021C46.1649 20.2567 46.3959 20.2171 46.3959 19.9773C46.3959 19.7375 46.2837 19.6297 45.7953 19.5571ZM38.3949 12.5504C37.2311 12.5504 37.2311 12.5042 37.2311 11.6881V7.77885C37.2311 6.87029 37.2531 6.31152 38.3311 6.31152C41.2173 6.31152 41.5429 8.8018 41.5429 9.63997C41.5385 12.5504 39.233 12.5504 38.3949 12.5504ZM60.3983 19.5571C59.7383 19.4603 59.4215 18.8817 58.9573 18.0678L56.7002 14.064C56.1635 13.0872 55.8841 12.9486 55.5805 12.7616C56.3725 12.5988 58.7704 12.0401 58.7704 9.31658C58.7704 8.50042 58.4206 5.66034 54.3024 5.66034C53.6028 5.66034 50.5075 5.75494 49.8784 5.75494C49.599 5.75494 48.4594 5.66034 48.2262 5.66034C47.4585 5.66034 47.3639 5.66034 47.3639 5.98813C47.3639 6.31592 47.6917 6.33571 48.202 6.35991C49.3416 6.43031 49.3416 7.05948 49.3416 8.01204V17.8808C49.3416 18.8576 49.3416 19.4647 48.202 19.5571C47.7137 19.5791 47.3639 19.6033 47.3639 19.9311C47.3639 20.2589 47.6675 20.2567 47.8522 20.2567C48.2724 20.2567 50.1577 20.1643 50.5537 20.1643C50.6461 20.1643 52.9054 20.2567 53.3476 20.2567C53.5324 20.2567 53.836 20.2787 53.836 19.9553C53.836 19.6319 53.5082 19.5813 52.9978 19.5593C51.8341 19.4889 51.8341 18.8598 51.8341 17.883V13.7032C51.8341 13.3072 51.8825 13.1686 52.274 13.1686C53.3234 13.1686 53.4378 13.261 53.9504 14.2686L56.7684 19.5571C57.0236 20.0455 57.116 20.2567 57.5362 20.2567H60.6029C60.7657 20.2567 60.9966 20.2171 60.9966 19.9773C60.9966 19.7375 60.8867 19.6297 60.3983 19.5571ZM52.9978 12.5504C51.8341 12.5504 51.8341 12.5042 51.8341 11.6881V7.77885C51.8341 6.87029 51.8561 6.31152 52.934 6.31152C55.8203 6.31152 56.1459 8.8018 56.1459 9.63997C56.1393 12.5504 53.836 12.5504 52.9978 12.5504ZM125.614 19.5571C124.954 19.4603 124.638 18.8817 124.173 18.0678L121.916 14.064C121.38 13.0872 121.1 12.9486 120.797 12.7616C121.589 12.5988 123.986 12.0401 123.986 9.31658C123.986 8.50042 123.637 5.66034 119.518 5.66034C118.819 5.66034 115.724 5.75494 115.094 5.75494C114.815 5.75494 113.675 5.66034 113.442 5.66034C112.675 5.66034 112.58 5.66034 112.58 5.98813C112.58 6.31592 112.908 6.33571 113.418 6.35991C114.558 6.43031 114.558 7.05948 114.558 8.01204V17.8808C114.558 18.8576 114.558 19.4647 113.418 19.5571C112.93 19.5791 112.58 19.6033 112.58 19.9311C112.58 20.2589 112.884 20.2567 113.068 20.2567C113.488 20.2567 115.374 20.1643 115.77 20.1643C115.862 20.1643 118.121 20.2567 118.564 20.2567C118.748 20.2567 119.052 20.2787 119.052 19.9553C119.052 19.6319 118.724 19.5813 118.214 19.5593C117.035 19.4867 117.035 18.8576 117.035 17.8808V13.701C117.035 13.305 117.083 13.1664 117.475 13.1664C118.524 13.1664 118.638 13.2588 119.151 14.2664L121.98 19.5571C122.235 20.0455 122.328 20.2567 122.748 20.2567H125.815C125.977 20.2567 126.208 20.2171 126.208 19.9773C126.208 19.7375 126.098 19.6297 125.614 19.5571ZM118.209 12.5504C117.046 12.5504 117.046 12.5042 117.046 11.6881V7.77885C117.046 6.87029 117.068 6.31152 118.146 6.31152C121.032 6.31152 121.358 8.8018 121.358 9.63997C121.351 12.5504 119.048 12.5504 118.209 12.5504Z" fill="white"/>
</g>
<defs>
<clipPath id="clip0_3910_6278">
<rect width="129.11" height="20.5449" fill="white"/>
</clipPath>
</defs>
</svg>
