<svg width="95" height="24" viewBox="0 0 95 24" fill="none" xmlns="http://www.w3.org/2000/svg">
<g clip-path="url(#clip0_3910_6426)">
<mask id="mask0_3910_6426" style="mask-type:luminance" maskUnits="userSpaceOnUse" x="0" y="0" width="95" height="24">
<path d="M94.7396 0H0V23.238H94.7396V0Z" fill="white"/>
</mask>
<g mask="url(#mask0_3910_6426)">
<path d="M61.4024 20.8839C60.8519 20.2072 60.5521 19.3621 60.5521 18.4903V12.1945C60.5521 7.72652 58.4465 5.16827 54.7216 5.16827C49.762 5.16827 48.8017 7.86994 47.4818 10.168C47.4177 10.2794 47.2765 10.3184 47.1635 10.2582L46.8876 10.1105C46.7698 10.0475 46.7268 9.89919 46.7936 9.7829L47.1701 9.12462C47.408 8.71616 47.5356 8.25229 47.5356 7.77919V6.82924C47.5356 6.21605 47.0386 5.71958 46.426 5.71958H41.0254C40.2117 5.71958 39.7739 6.67443 40.304 7.2909L41.0911 8.20612C41.8841 9.12896 42.3208 10.3054 42.3208 11.5222V18.0574C42.3208 18.7825 42.166 19.4989 41.8661 20.1594L41.2405 21.5379C40.9548 22.1679 41.4154 22.8822 42.1068 22.8822H48.8533C49.6566 22.8822 50.0982 21.9479 49.5888 21.3272L49.0429 20.6617C48.4856 19.9829 48.1809 19.1317 48.1809 18.254V14.648C48.1809 13.3889 48.4823 12.1402 49.1134 11.0506C49.8793 9.72864 50.8798 9.05294 52.1317 9.05294C53.8166 9.05294 54.7226 10.2533 54.7226 12.4211V18.2784C54.7226 18.9862 54.575 19.6857 54.2892 20.3331L53.7536 21.5466C53.4761 22.1755 53.9367 22.8822 54.6238 22.8822H61.0282C61.829 22.8822 62.2711 21.9523 61.7665 21.331L61.4037 20.885L61.4024 20.8839Z" fill="white"/>
<path d="M73.4317 20.3712C73.2161 20.4141 73.0045 20.444 72.8186 20.4483C71.0782 20.4483 70.241 19.3528 70.241 17.0992V8.14424H73.4102C73.7767 8.14424 74.0746 7.84709 74.0746 7.47993V6.39525C74.0746 6.02863 73.7767 5.73099 73.4102 5.73099H69.3544C69.2405 5.73099 69.1488 5.63865 69.1488 5.52513V5.22151C69.1488 5.10853 69.2399 5.01619 69.3532 5.01564H69.7649C70.0277 5.01619 70.241 4.80327 70.241 4.54039V2.17114C70.241 1.71924 69.8751 1.35315 69.4229 1.35315H67.0907C66.6658 1.35315 66.2899 1.62854 66.1635 2.03427C65.8949 2.92287 65.2466 5.73099 63.1385 5.73099H62.5122C62.1469 5.73099 61.8496 6.02809 61.8496 6.39525V7.47993C61.8496 7.84709 62.1469 8.14424 62.5122 8.14424H64.4446V17.3257C64.4446 21.061 66.3453 23.1222 69.7905 23.1222C71.5095 23.1222 73.0689 22.4944 74.0127 21.3625C74.3797 20.9204 73.9978 20.2604 73.4317 20.3712Z" fill="white"/>
<path d="M39.5659 19.6939C38.5388 19.8791 37.8446 19.0748 37.8446 17.8124V11.7362C37.8446 7.40287 35.0979 5.07489 29.7631 5.07489C24.9855 5.07489 21.7221 6.91184 21.7135 9.68578C21.7113 10.1838 21.8982 10.6716 22.1735 11.1419C22.6162 11.8214 23.4163 12.2772 24.3326 12.2772C25.7273 12.2772 26.8582 11.225 26.8582 9.9274C26.8538 8.59672 25.7301 7.92209 25.3895 7.79554C25.6318 7.58914 26.678 6.78313 28.2227 6.78313C30.6782 6.78313 31.9933 8.64396 31.9933 11.5422V12.6943C30.1503 12.6943 28.0825 12.8795 26.6285 13.2336C23.0702 14.0109 21.1953 16.0357 21.1953 18.5582C21.1953 21.4026 23.4591 23.1799 27.0472 23.1799C29.5376 23.1799 31.6071 22.3086 32.5765 20.8519C33.1893 22.0822 34.5477 22.8572 36.295 22.8572C38.5545 22.8572 39.7381 21.6786 40.1117 20.2773C40.2085 19.8786 39.9069 19.6282 39.5669 19.6945L39.5659 19.6939ZM31.9927 18.3311C31.8004 19.6874 30.863 20.4968 29.5045 20.4968C28.0157 20.4968 27.0141 19.4951 27.0141 17.9102C27.0141 16.6821 27.5632 15.6077 28.7614 15.0906C29.5685 14.7338 30.8287 14.5399 31.9927 14.5078V18.3311Z" fill="white"/>
<path d="M93.6127 19.6939C92.5855 19.8791 91.8914 19.0748 91.8914 17.8124V11.7362C91.8914 7.40287 89.1451 5.07489 83.8099 5.07489C79.0323 5.07489 75.7689 6.91184 75.7606 9.68578C75.7582 10.1838 75.9453 10.6716 76.2205 11.1419C76.6633 11.8214 77.4635 12.2772 78.3793 12.2772C79.7742 12.2772 80.9051 11.225 80.9051 9.9274C80.9009 8.59672 79.7772 7.92209 79.4363 7.79554C79.6788 7.58914 80.7252 6.78313 82.2696 6.78313C84.7251 6.78313 86.0401 8.64396 86.0401 11.5422V12.6943C84.1971 12.6943 82.1296 12.8795 80.6757 13.2336C77.1173 14.0109 75.2422 16.0357 75.2422 18.5582C75.2422 21.4026 77.5064 23.1799 81.094 23.1799C83.5847 23.1799 85.654 22.3086 86.6234 20.8519C87.236 22.0822 88.5945 22.8572 90.3421 22.8572C92.6015 22.8572 93.7849 21.6786 94.1585 20.2773C94.2556 19.8786 93.9541 19.6282 93.6139 19.6945L93.6127 19.6939ZM86.0395 18.3311C85.8476 19.6874 84.9098 20.4968 83.5512 20.4968C82.0628 20.4968 81.0612 19.4951 81.0612 17.9102C81.0612 16.6821 81.61 15.6077 82.8083 15.0906C83.6156 14.7338 84.8758 14.5399 86.0395 14.5078V18.3311Z" fill="white"/>
<path d="M22.1143 0.00054362H19.1817C18.5506 0.00054362 18.1726 0.701756 18.5197 1.22916L19.0221 1.99229C19.4513 2.64462 19.5355 3.46533 19.247 4.19099L13.986 17.4228C13.7437 18.0599 13.4988 18.4966 13.3869 18.6042C13.3271 18.6611 13.2277 18.6785 13.15 18.621L12.8726 18.4C12.7846 18.3337 12.7894 18.2375 12.8703 18.1474C13.0246 17.9426 13.1202 17.6954 13.1746 17.4707C13.2392 17.2006 13.2174 16.9171 13.1185 16.6575L8.66361 4.88079C8.3692 4.10354 8.38118 3.24372 8.69566 2.47461L9.17145 1.31172C9.42784 0.686002 8.96726 0 8.29103 0H1.11212C0.144767 0 -0.359284 1.15095 0.295762 1.86193L0.752554 2.35784C1.59173 3.26816 2.25492 4.32624 2.70954 5.47827L9.10627 22.195C9.27358 22.6191 9.68311 22.8978 10.1388 22.8978H13.6807C14.136 22.8978 14.5449 22.6203 14.7122 22.1971L22.998 1.30303C23.2457 0.6784 22.7857 0.00108733 22.1137 0.00108733L22.1143 0.00054362Z" fill="white"/>
</g>
</g>
<defs>
<clipPath id="clip0_3910_6426">
<rect width="94.7396" height="23.238" fill="white"/>
</clipPath>
</defs>
</svg>
