<svg width="91" height="27" viewBox="0 0 91 27" fill="none" xmlns="http://www.w3.org/2000/svg">
<g clip-path="url(#clip0_3910_6457)">
<g clip-path="url(#clip1_3910_6457)">
<g clip-path="url(#clip2_3910_6457)">
<path d="M23.6511 0.000976562L13.0582 10.5929L2.46527 0.000976562H0V2.46436L10.5939 13.0582L0 23.6511V26.1155H2.46527L13.0582 15.5235L23.6511 26.1155H26.1164V23.6511L15.5234 13.0582L26.1164 2.46436V0.000976562H23.6511Z" fill="white"/>
<path d="M15.3419 0.000915527L13.0586 2.28322L10.7754 0.000915527H6.01367L13.0586 7.04494L20.1027 0.000915527H15.3419Z" fill="white"/>
<path d="M6.01367 26.1157H10.7744L13.0577 23.8325L15.3409 26.1157H20.1017L13.0577 19.0717L6.01367 26.1157Z" fill="white"/>
<path d="M23.833 13.0577L26.1163 10.7744V6.0127L19.0723 13.0577L26.1163 20.1017V15.34L23.833 13.0577Z" fill="white"/>
<path d="M0 10.7735L2.28325 13.0567L0 15.34V20.1007L7.04402 13.0567L0 6.0127V10.7735Z" fill="white"/>
<path d="M64.5957 4.23749L61.8607 14.1674L59.1257 4.23749H53.4388L50.2266 21.8801H55.6173L56.8207 12.3284L59.451 21.8801H64.2778L66.9081 12.3284L68.1125 21.8801H73.5023L70.2826 4.23749H64.5957Z" fill="white"/>
<path d="M45.6671 4.23749L41.6268 15.799L37.5357 4.23749H31.9629L38.6759 21.8801H44.5778L51.2408 4.23749H45.6671Z" fill="white"/>
<path d="M75.707 4.23749V21.8801H87.8645L89.5951 17.2032H80.8762V4.23749H75.707Z" fill="white"/>
</g>
</g>
</g>
<defs>
<clipPath id="clip0_3910_6457">
<rect width="90.5377" height="26.4068" fill="white"/>
</clipPath>
<clipPath id="clip1_3910_6457">
<rect width="90.5377" height="26.4068" fill="white"/>
</clipPath>
<clipPath id="clip2_3910_6457">
<rect width="89.5946" height="26.1164" fill="white"/>
</clipPath>
</defs>
</svg>
