<svg width="119" height="34" viewBox="0 0 119 34" fill="none" xmlns="http://www.w3.org/2000/svg">
<g clip-path="url(#clip0_3910_6280)">
<path d="M12.8163 18.9858H4.12655V28.1397H0V5.55298H4.12655V15.0158H12.8163V5.55298H16.942V28.1397H12.8163V18.9858Z" fill="white"/>
<path d="M30.1454 20.8393C30.1454 22.7204 28.613 24.2511 26.7322 24.2511C24.851 24.2511 23.3196 22.7204 23.3196 20.8393V11.1652H19.4121V20.8393C19.4121 24.8753 22.696 28.1584 26.7322 28.1584C30.7677 28.1584 34.0515 24.8753 34.0515 20.8393V11.1652H30.1454V20.8393Z" fill="white"/>
<path d="M59.1405 12.1612C59.1405 10.1777 60.4533 9.54875 61.8906 9.54875C63.048 9.54875 64.5794 10.4296 65.5787 11.4999L68.1412 8.4792C66.8607 6.74907 64.2667 5.55298 62.1411 5.55298C57.8894 5.55298 54.8261 8.03895 54.8261 12.1612C54.8261 19.807 64.1728 17.3834 64.1728 21.6638C64.1728 22.9838 62.8917 24.1491 61.423 24.1491C59.1091 24.1491 58.3586 23.0163 57.2962 21.8204L54.4512 24.7776C56.2652 27.0118 58.5151 28.1453 61.2036 28.1453C65.2359 28.1453 68.4869 25.6279 68.4869 21.6941C68.4869 13.1989 59.1405 15.8423 59.1405 12.1612Z" fill="white"/>
<path d="M116.963 24.5315C114.65 24.5315 113.994 23.5318 113.994 21.9995V15.2169H117.588V11.7788H113.994V7.24573L110.025 9.02724V22.8437C110.025 26.3763 112.463 28.1583 115.806 28.1583C116.306 28.1583 116.994 28.126 117.37 28.0334L118.339 24.4701C117.902 24.5003 117.402 24.5315 116.963 24.5315Z" fill="white"/>
<path d="M45.0411 11.2783C43.1029 11.2783 41.75 11.8409 40.4434 13.1233V5.68787H36.5234V19.468C36.5234 24.6259 40.2525 28.1584 44.4425 28.1584C49.1001 28.1584 53.1811 24.563 53.1811 19.7187C53.1811 14.9357 49.4179 11.2783 45.0411 11.2783ZM45.0167 24.2132C42.5611 24.2132 40.5706 22.2226 40.5706 19.7671C40.5706 17.3117 42.5611 15.3211 45.0167 15.3211C47.4721 15.3211 49.4627 17.3117 49.4627 19.7671C49.4627 22.2226 47.4721 24.2132 45.0167 24.2132Z" fill="white"/>
<path d="M87.5971 19.5151C87.5971 14.6708 83.5161 11.0754 78.8585 11.0754C74.6685 11.0754 70.9395 14.608 70.9395 19.7658V33.5459H74.8595V26.1105C76.166 27.3929 77.5189 27.9555 79.4571 27.9555C83.8339 27.9555 87.5971 24.2981 87.5971 19.5151ZM83.8787 19.4667C83.8787 21.9221 81.8881 23.9128 79.4327 23.9128C76.9771 23.9128 74.9866 21.9221 74.9866 19.4667C74.9866 17.0112 76.9771 15.0206 79.4327 15.0206C81.8881 15.0206 83.8787 17.0112 83.8787 19.4667Z" fill="white"/>
<path d="M100.265 10.8856V6.948C101.293 6.46246 102.013 5.42269 102.013 4.21594V4.12495C102.013 2.45969 100.65 1.09716 98.9852 1.09716H98.8943C97.229 1.09716 95.8664 2.45969 95.8664 4.12495V4.21594C95.8664 5.42268 96.5867 6.46261 97.6144 6.94808V10.8857C96.0841 11.1221 94.6859 11.7532 93.5322 12.682L82.7211 4.27198C82.7922 3.9981 82.8421 3.71592 82.8424 3.41981C82.8449 1.53359 81.3178 0.00256386 79.4315 0.000124799C77.5452 -0.00223389 76.0142 1.52491 76.0117 3.41113C76.0094 5.29736 77.5365 6.82838 79.4228 6.83074C80.0376 6.83151 80.6065 6.65692 81.1052 6.37329L91.7402 14.6465C90.8356 16.0117 90.306 17.647 90.306 19.4074C90.306 21.2505 90.8882 22.9551 91.8722 24.3574L88.6379 27.5917C88.3822 27.515 88.1168 27.4613 87.836 27.4613C86.2861 27.4613 85.0295 28.7179 85.0295 30.2679C85.0295 31.8178 86.2861 33.0744 87.836 33.0744C89.3861 33.0744 90.6425 31.8178 90.6425 30.2679C90.6425 29.9872 90.5889 29.7217 90.5122 29.466L93.7114 26.2668C95.1636 27.3754 96.9719 28.0413 98.94 28.0413C103.708 28.0413 107.574 24.1757 107.574 19.4074C107.574 15.0908 104.403 11.5246 100.265 10.8856ZM98.94 23.8339C96.4953 23.8339 94.5132 21.8521 94.5132 19.4074C94.5132 16.9627 96.4953 14.9809 98.94 14.9809C101.384 14.9809 103.366 16.9627 103.366 19.4074C103.366 21.8521 101.384 23.8339 98.94 23.8339Z" fill="white"/>
</g>
<defs>
<clipPath id="clip0_3910_6280">
<rect width="118.34" height="33.5459" fill="white"/>
</clipPath>
</defs>
</svg>
