<svg width="120" height="24" viewBox="0 0 120 24" fill="none" xmlns="http://www.w3.org/2000/svg">
<g clip-path="url(#clip0_3910_7308)">
<path d="M93.9223 8.25174H91.0801V18.2413H93.9223V8.25174Z" fill="white"/>
<path d="M93.9223 4.95938H91.0801V7.16821H93.9223V4.95938Z" fill="white"/>
<path d="M31.9375 4.95938H28.9668V18.2412H38.0383V15.6948H31.9375V4.95938Z" fill="white"/>
<path d="M43.9072 7.42062C40.7452 7.42062 38.2422 9.86094 38.2422 12.9363C38.2422 16.0116 40.7452 18.4583 43.9072 18.4583C47.0694 18.4583 49.5933 16.0181 49.5933 12.9411C49.5933 9.86415 47.0887 7.42062 43.9072 7.42062ZM43.9072 15.8219C42.3157 15.8219 41.1277 14.613 41.1277 12.9282C41.1277 11.2435 42.3157 10.0442 43.9072 10.0442C45.4989 10.0442 46.6869 11.274 46.6869 12.9282C46.6869 14.5824 45.4989 15.8219 43.9072 15.8219Z" fill="white"/>
<path d="M61.5139 15.9922C61.0044 15.9922 60.559 15.6948 60.559 14.7833V10.5409H63.2694V8.25172H60.559V5.37253H57.7168V8.25172H53.9841V5.37253H51.1419V8.25172H49.5938V10.5409H51.1419V14.8252C51.1419 17.2221 52.288 18.4534 54.4084 18.4534C55.3659 18.4554 56.3028 18.1758 57.1027 17.6497L56.299 15.5502C55.8964 15.8223 55.426 15.9765 54.9405 15.9954C54.4309 15.9954 53.9856 15.6981 53.9856 14.7866V10.5409H57.7185V14.8252C57.7185 17.2221 58.863 18.4534 60.985 18.4534C61.9425 18.4551 62.8794 18.1756 63.6795 17.6497L62.8756 15.5502C62.4721 15.822 62.0002 15.9753 61.5139 15.9922Z" fill="white"/>
<path d="M79.4827 12.1887C79.0488 9.20664 76.4493 7.09749 73.5925 7.51384C72.8742 7.61193 72.1825 7.85245 71.5584 8.22133C70.9341 8.59023 70.3897 9.08004 69.9574 9.66204C69.525 10.2441 69.2131 10.9066 69.04 11.6107C68.8671 12.3148 68.8365 13.0464 68.9499 13.7625C69.453 17.2269 72.4318 18.8313 75.4959 18.3843C76.8837 18.1893 78.1834 17.5905 79.2336 16.6626L77.8896 14.7994C77.1225 15.4624 76.1802 15.8901 75.1761 16.0308C73.7904 16.2318 72.4929 15.7093 71.9464 14.3139L79.5664 13.2047C79.5573 12.8648 79.5294 12.5256 79.4827 12.1887ZM71.6313 12.4507C71.7117 11.0891 72.6345 10.0538 73.8514 9.87861C74.4697 9.78246 75.1018 9.91503 75.6295 10.2515C76.1571 10.588 76.5441 11.1052 76.7178 11.7064L71.6313 12.4507Z" fill="white"/>
<path d="M110.339 12.1887C109.904 9.20664 107.303 7.09749 104.448 7.51384C103.73 7.61172 103.038 7.85211 102.414 8.22093C101.789 8.58976 101.245 9.07957 100.813 9.66163C100.38 10.2437 100.068 10.9063 99.8953 11.6105C99.7224 12.3147 99.6919 13.0464 99.8056 13.7625C100.309 17.2269 103.286 18.8313 106.352 18.3843C107.739 18.1893 109.038 17.5905 110.088 16.6626L108.745 14.7994C107.978 15.4626 107.035 15.8901 106.03 16.0308C104.644 16.2318 103.347 15.7093 102.801 14.3139L110.422 13.2047C110.412 12.8648 110.384 12.5257 110.339 12.1887ZM102.487 12.4507C102.567 11.0891 103.489 10.0538 104.707 9.87861C105.325 9.78201 105.956 9.9145 106.483 10.2511C107.01 10.5878 107.395 11.1054 107.567 11.7064L102.487 12.4507Z" fill="white"/>
<path d="M98.5883 4.95938H95.7461V18.2397H98.5883V4.95938Z" fill="white"/>
<path d="M116.223 11.6003C115.248 11.3881 114.357 11.1968 114.357 10.6036C114.357 10.1583 114.973 9.86091 115.63 9.86091C116.657 9.8772 117.666 10.1314 118.579 10.6036L119.533 8.4816C118.347 7.75596 116.977 7.38759 115.587 7.42059C113.593 7.42059 111.471 8.5668 111.471 10.7306C111.471 12.7674 113.19 13.4635 115.291 14.0181C116.203 14.2737 117.116 14.4216 117.116 15.0582C117.116 15.6948 116.034 15.9489 115.375 15.9489C114.174 15.9723 113.003 15.574 112.066 14.8235L111.047 17.0115C111.642 17.5629 113.105 18.4582 115.375 18.4582C117.349 18.4582 120 17.5885 120 14.9779C120 12.8092 118.034 12.0279 116.223 11.6003Z" fill="white"/>
<path d="M67.6666 8.25174H64.8242V18.2413H67.6666V8.25174Z" fill="white"/>
<path d="M67.6666 4.95938H64.8242V7.16821H67.6666V4.95938Z" fill="white"/>
<path d="M80.6934 18.2412H83.6577V12.8141H88.6846V10.295H83.6577V7.50098H89.7651V4.95938H80.6934V18.2412Z" fill="white"/>
<path d="M17.4889 0H5.92398C2.65227 0 0 2.65225 0 5.92396V17.4889C0 20.7606 2.65227 23.4129 5.92398 23.4129H17.4889C20.7606 23.4129 23.4129 20.7606 23.4129 17.4889V5.92396C23.4129 2.65225 20.7606 0 17.4889 0Z" fill="white"/>
<path d="M17.7936 5.24384C13.7633 5.24384 12.2699 8.12142 11.069 10.4331L10.2845 11.9121C9.01292 14.3637 8.06288 15.8539 5.61452 15.8539C5.46251 15.8539 5.312 15.8838 5.17157 15.942C5.03114 16.0002 4.90352 16.0854 4.79605 16.1929C4.68857 16.3003 4.60327 16.428 4.5451 16.5684C4.48693 16.7089 4.45703 16.8594 4.45703 17.0113C4.45745 17.3182 4.57954 17.6124 4.79651 17.8293C5.01349 18.0463 5.30767 18.1684 5.61452 18.1689C9.64634 18.1689 11.1398 15.2913 12.3406 12.9795L13.1236 11.5006C14.3968 9.04899 15.3468 7.55877 17.7936 7.55877C17.9457 7.55898 18.0964 7.52919 18.237 7.47111C18.3777 7.41305 18.5055 7.32782 18.613 7.22033C18.7207 7.11282 18.8061 6.98514 18.8644 6.84461C18.9226 6.70407 18.9526 6.55344 18.9526 6.4013C18.9522 6.09417 18.8299 5.79977 18.6126 5.58275C18.3952 5.36573 18.1008 5.24384 17.7936 5.24384Z" fill="black"/>
</g>
<defs>
<clipPath id="clip0_3910_7308">
<rect width="120" height="23.55" fill="white"/>
</clipPath>
</defs>
</svg>
