<svg width="109" height="44" viewBox="0 0 109 44" fill="none" xmlns="http://www.w3.org/2000/svg">
<path d="M88.9632 14.4142C87.6164 14.415 86.2996 14.0163 85.1793 13.2685C84.0591 12.5207 83.1857 11.4575 82.6697 10.2134C82.1539 8.96924 82.0184 7.60003 82.2808 6.27893C82.5431 4.95783 83.1913 3.74422 84.1434 2.79156C85.0956 1.83892 86.3089 1.19004 87.6299 0.927008C88.9507 0.663975 90.3201 0.798605 91.5645 1.31387C92.8089 1.82913 93.8725 2.70187 94.621 3.82173C95.3693 4.94157 95.7688 6.25819 95.7688 7.60508C95.7659 9.40945 95.0481 11.1391 93.7725 12.4154C92.4969 13.6916 90.7677 14.4104 88.9632 14.4142Z" fill="white"/>
<path d="M109.004 43.0279H101.639L99.8969 27.0489H99.5065L93.9236 43.0279H84.0211L78.4457 27.0489H78.0553L76.3171 43.0279H68.9518C68.9518 43.0279 70.4248 29.5862 71.0288 24.1507C71.5775 19.0908 74.2254 16.5129 78.8876 16.5129H82.2313L88.8306 35.1582H89.1141L95.7135 16.5129H99.0277C103.668 16.5129 106.316 19.0908 106.898 24.1507C107.494 29.4021 109.004 43.0279 109.004 43.0279ZM24.4142 16.5129L37.0419 43.0279H27.6291L25.2537 37.3529H12.1252L9.74622 43.0279H0.959473C0.959473 43.0279 7.26045 29.9877 9.40742 25.2186C11.9374 19.6174 14.0991 16.5129 19.3505 16.5129H24.4142ZM18.5439 22.0369L14.1249 32.4182H23.2578L18.8313 22.0369H18.5439ZM66.3372 35.5374C66.3372 40.2106 62.8607 43.0353 56.3499 43.0353H38.9716V23.9667C38.9716 19.7573 41.3983 16.5129 46.6645 16.5129H55.6133C61.8001 16.5129 64.7647 19.0062 64.7647 23.2522C64.7647 26.0841 62.9676 27.9255 60.4966 28.824V29.0339C62.2457 29.2364 66.3372 31.085 66.3372 35.53V35.5374ZM53.3301 27.1705C55.3519 27.1705 56.8581 26.3235 56.8581 24.39C56.8581 22.6776 55.6208 21.6061 53.3301 21.6061H46.926V27.1705H53.3301ZM53.6615 37.9458C56.0699 37.9458 57.8635 36.9994 57.8635 34.8745C57.8635 32.6097 55.9632 31.7591 53.6615 31.7591H46.926V37.9458H53.6615Z" fill="white"/>
</svg>
