<svg width="1000" height="1000" viewBox="0 0 1000 1000" fill="none" xmlns="http://www.w3.org/2000/svg">
<path d="M110 342C110 259.157 177.157 192 260 192V192C342.843 192 410 259.157 410 342V342C410 424.843 342.843 492 260 492V492C177.157 492 110 424.843 110 342V342Z" fill="#146EF5"/>
<path d="M260 425.137C244.18 425.137 230.044 421.584 217.593 414.48C205.215 407.375 195.547 397.488 188.589 384.817C181.631 372.073 178.152 357.681 178.152 341.641C178.152 325.601 181.631 311.245 188.589 298.574C195.547 285.83 205.215 275.906 217.593 268.801C230.044 261.697 244.18 258.145 260 258.145C275.674 258.145 289.7 261.697 302.078 268.801C314.529 275.906 324.233 285.83 331.191 298.574C338.223 311.245 341.738 325.601 341.738 341.641C341.738 357.681 338.259 372.073 331.301 384.817C324.417 397.488 314.712 407.375 302.188 414.48C289.736 421.584 275.674 425.137 260 425.137ZM260 400.857C270.474 400.857 279.849 398.33 288.125 393.276C296.401 388.223 302.847 381.228 307.461 372.292C312.148 363.284 314.492 353.066 314.492 341.641C314.492 330.215 312.148 319.998 307.461 310.989C302.847 301.98 296.401 294.985 288.125 290.005C279.849 284.951 270.474 282.424 260 282.424C249.453 282.424 240.042 284.951 231.765 290.005C223.562 294.985 217.117 301.98 212.429 310.989C207.742 319.998 205.398 330.215 205.398 341.641C205.398 353.066 207.742 363.284 212.429 372.292C217.117 381.228 223.562 388.223 231.765 393.276C240.042 398.33 249.453 400.857 260 400.857Z" fill="white"/>
</svg>
