<svg width="1000" height="1000" viewBox="0 0 1000 1000" fill="none" xmlns="http://www.w3.org/2000/svg">
<g clip-path="url(#clip0_9616_44135)">
<path d="M258.823 158.534C237.382 78.5145 284.869 -3.73608 364.889 -25.1773C444.909 -46.6186 527.159 0.868752 548.601 80.8887C570.042 160.909 522.554 243.159 442.535 264.6C362.515 286.042 280.264 238.554 258.823 158.534Z" fill="#FFAE13"/>
<path d="M427.139 199.504C411.858 203.598 397.249 203.835 383.313 200.214C369.447 196.574 357.514 189.535 347.514 179.097C337.513 168.659 330.428 155.657 326.257 140.093C322.087 124.529 321.722 109.727 325.164 95.6869C328.605 81.6468 335.42 69.5843 345.608 59.4993C355.867 49.3953 368.637 42.2961 383.918 38.2015C396.936 34.7135 409.565 34.0213 421.806 36.125C434.117 38.2098 445.078 42.8934 454.688 50.1758C464.279 57.3875 471.683 66.6258 476.9 77.8908L449.84 85.1416C445.784 78.4942 440.566 73.03 434.187 68.749C427.879 64.449 420.921 61.6879 413.314 60.4657C405.759 59.1537 398.091 59.5403 390.309 61.6255C379.98 64.3931 371.427 69.2629 364.651 76.2347C357.927 83.1168 353.476 91.5507 351.299 101.536C349.174 111.433 349.599 121.934 352.575 133.041C355.551 144.149 360.434 153.456 367.222 160.964C374.063 168.381 382.134 173.46 391.437 176.2C400.791 178.849 410.632 178.79 420.961 176.023C429.309 173.786 436.542 170.217 442.66 165.318C448.83 160.328 453.485 154.493 456.624 147.814C459.743 141.063 461.124 133.907 460.766 126.345L487.827 119.094C489.044 131.279 487.364 142.837 482.787 153.77C478.209 164.702 471.12 174.184 461.519 182.216C451.9 190.177 440.44 195.94 427.139 199.504Z" fill="#080808"/>
</g>
<defs>
<clipPath id="clip0_9616_44135">
<rect width="1000" height="1000" fill="white"/>
</clipPath>
</defs>
</svg>
