<svg width="600" height="500" viewBox="0 0 600 500" fill="none" xmlns="http://www.w3.org/2000/svg">
<g clip-path="url(#clip0_10529_15230)">
<path d="M500 112.5C500 105.596 505.596 100 512.5 100C519.404 100 525 105.596 525 112.5C525 119.404 519.404 125 512.5 125C505.596 125 500 119.404 500 112.5Z" fill="#146EF5"/>
<path d="M500 187.5C500 180.596 505.596 175 512.5 175C519.404 175 525 180.596 525 187.5C525 194.404 519.404 200 512.5 200C505.596 200 500 194.404 500 187.5Z" fill="#146EF5"/>
<path d="M500 162.5C500 155.596 505.596 150 512.5 150C519.404 150 525 155.596 525 162.5C525 169.404 519.404 175 512.5 175C505.596 175 500 169.404 500 162.5Z" fill="#146EF5"/>
<path d="M500 137.5C500 130.596 505.596 125 512.5 125C519.404 125 525 130.596 525 137.5C525 144.404 519.404 150 512.5 150C505.596 150 500 144.404 500 137.5Z" fill="#146EF5"/>
<path d="M525 187.5C525 180.596 530.596 175 537.5 175C544.404 175 550 180.596 550 187.5C550 194.404 544.404 200 537.5 200C530.596 200 525 194.404 525 187.5Z" fill="#146EF5"/>
<path d="M525 162.5C525 155.596 530.596 150 537.5 150C544.404 150 550 155.596 550 162.5C550 169.404 544.404 175 537.5 175C530.596 175 525 169.404 525 162.5Z" fill="#146EF5"/>
<path d="M525 137.5C525 130.596 530.596 125 537.5 125C544.404 125 550 130.596 550 137.5C550 144.404 544.404 150 537.5 150C530.596 150 525 144.404 525 137.5Z" fill="#146EF5"/>
<path d="M525 112.5C525 105.596 530.596 100 537.5 100C544.404 100 550 105.596 550 112.5C550 119.404 544.404 125 537.5 125C530.596 125 525 119.404 525 112.5Z" fill="#146EF5"/>
<path d="M550 187.5C550 180.596 555.596 175 562.5 175C569.404 175 575 180.596 575 187.5C575 194.404 569.404 200 562.5 200C555.596 200 550 194.404 550 187.5Z" fill="#146EF5"/>
<path d="M550 162.5C550 155.596 555.596 150 562.5 150C569.404 150 575 155.596 575 162.5C575 169.404 569.404 175 562.5 175C555.596 175 550 169.404 550 162.5Z" fill="#146EF5"/>
<path d="M550 137.5C550 130.596 555.596 125 562.5 125C569.404 125 575 130.596 575 137.5C575 144.404 569.404 150 562.5 150C555.596 150 550 144.404 550 137.5Z" fill="#146EF5"/>
<path d="M550 112.5C550 105.596 555.596 100 562.5 100C569.404 100 575 105.596 575 112.5C575 119.404 569.404 125 562.5 125C555.596 125 550 119.404 550 112.5Z" fill="#146EF5"/>
<path d="M575 112.5C575 105.596 580.596 100 587.5 100C594.404 100 600 105.596 600 112.5C600 119.404 594.404 125 587.5 125C580.596 125 575 119.404 575 112.5Z" fill="#146EF5"/>
<path d="M575 187.5C575 180.596 580.596 175 587.5 175C594.404 175 600 180.596 600 187.5C600 194.404 594.404 200 587.5 200C580.596 200 575 194.404 575 187.5Z" fill="#146EF5"/>
<path d="M575 162.5C575 155.596 580.596 150 587.5 150C594.404 150 600 155.596 600 162.5C600 169.404 594.404 175 587.5 175C580.596 175 575 169.404 575 162.5Z" fill="#146EF5"/>
<path d="M575 137.5C575 130.596 580.596 125 587.5 125C594.404 125 600 130.596 600 137.5C600 144.404 594.404 150 587.5 150C580.596 150 575 144.404 575 137.5Z" fill="#146EF5"/>
</g>
<path d="M12.4993 95.8337C7.90213 95.8337 4.16602 92.0975 4.16602 87.5003C4.16602 82.9031 7.90213 79.167 12.4993 79.167C17.0966 79.167 20.8327 82.9031 20.8327 87.5003C20.8327 92.0975 17.0966 95.8337 12.4993 95.8337Z" fill="#146EF5"/>
<path d="M37.4993 95.8337C32.9021 95.8337 29.166 92.0975 29.166 87.5003C29.166 82.9031 32.9021 79.167 37.4993 79.167C42.0966 79.167 45.8327 82.9031 45.8327 87.5003C45.8327 92.0975 42.0966 95.8337 37.4993 95.8337Z" fill="#146EF5"/>
<path d="M62.4993 95.8337C57.9021 95.8337 54.166 92.0975 54.166 87.5003C54.166 82.9031 57.9021 79.167 62.4993 79.167C67.0966 79.167 70.8327 82.9031 70.8327 87.5003C70.8327 92.0975 67.0966 95.8337 62.4993 95.8337Z" fill="#146EF5"/>
<path d="M87.4993 95.8337C82.9021 95.8337 79.166 92.0975 79.166 87.5003C79.166 82.9031 82.9021 79.167 87.4993 79.167C92.0966 79.167 95.8327 82.9031 95.8327 87.5003C95.8327 92.0975 92.0966 95.8337 87.4993 95.8337Z" fill="#146EF5"/>
<path d="M12.4993 70.8337C7.90213 70.8337 4.16602 67.0975 4.16602 62.5003C4.16602 57.9031 7.90213 54.167 12.4993 54.167C17.0966 54.167 20.8327 57.9031 20.8327 62.5003C20.8327 67.0975 17.0966 70.8337 12.4993 70.8337Z" fill="#146EF5"/>
<path d="M37.4993 70.8337C32.9021 70.8337 29.166 67.0975 29.166 62.5003C29.166 57.9031 32.9021 54.167 37.4993 54.167C42.0966 54.167 45.8327 57.9031 45.8327 62.5003C45.8327 67.0975 42.0966 70.8337 37.4993 70.8337Z" fill="#146EF5"/>
<path d="M62.4993 70.8337C57.9021 70.8337 54.166 67.0975 54.166 62.5003C54.166 57.9031 57.9021 54.167 62.4993 54.167C67.0966 54.167 70.8327 57.9031 70.8327 62.5003C70.8327 67.0975 67.0966 70.8337 62.4993 70.8337Z" fill="#146EF5"/>
<path d="M87.4993 70.8337C82.9021 70.8337 79.166 67.0975 79.166 62.5003C79.166 57.9031 82.9021 54.167 87.4993 54.167C92.0966 54.167 95.8327 57.9031 95.8327 62.5003C95.8327 67.0975 92.0966 70.8337 87.4993 70.8337Z" fill="#146EF5"/>
<path d="M12.4993 45.8337C7.90213 45.8337 4.16602 42.0975 4.16602 37.5003C4.16602 32.9031 7.90213 29.167 12.4993 29.167C17.0966 29.167 20.8327 32.9031 20.8327 37.5003C20.8327 42.0975 17.0966 45.8337 12.4993 45.8337Z" fill="#146EF5"/>
<path d="M37.4993 45.8337C32.9021 45.8337 29.166 42.0975 29.166 37.5003C29.166 32.9031 32.9021 29.167 37.4993 29.167C42.0966 29.167 45.8327 32.9031 45.8327 37.5003C45.8327 42.0975 42.0966 45.8337 37.4993 45.8337Z" fill="#146EF5"/>
<path d="M62.4993 45.8337C57.9021 45.8337 54.166 42.0975 54.166 37.5003C54.166 32.9031 57.9021 29.167 62.4993 29.167C67.0966 29.167 70.8327 32.9031 70.8327 37.5003C70.8327 42.0975 67.0966 45.8337 62.4993 45.8337Z" fill="#146EF5"/>
<path d="M87.4993 45.8337C82.9021 45.8337 79.166 42.0975 79.166 37.5003C79.166 32.9031 82.9021 29.167 87.4993 29.167C92.0966 29.167 95.8327 32.9031 95.8327 37.5003C95.8327 42.0975 92.0966 45.8337 87.4993 45.8337Z" fill="#146EF5"/>
<path d="M12.4993 20.8337C7.90213 20.8337 4.16602 17.0975 4.16602 12.5003C4.16602 7.9031 7.90213 4.16699 12.4993 4.16699C17.0966 4.16699 20.8327 7.9031 20.8327 12.5003C20.8327 17.0975 17.0966 20.8337 12.4993 20.8337Z" fill="#146EF5"/>
<path d="M37.4993 20.8337C32.9021 20.8337 29.166 17.0975 29.166 12.5003C29.166 7.9031 32.9021 4.16699 37.4993 4.16699C42.0966 4.16699 45.8327 7.9031 45.8327 12.5003C45.8327 17.0975 42.0966 20.8337 37.4993 20.8337Z" fill="#146EF5"/>
<path d="M62.4993 20.8337C57.9021 20.8337 54.166 17.0975 54.166 12.5003C54.166 7.9031 57.9021 4.16699 62.4993 4.16699C67.0966 4.16699 70.8327 7.9031 70.8327 12.5003C70.8327 17.0975 67.0966 20.8337 62.4993 20.8337Z" fill="#146EF5"/>
<path d="M87.4993 20.8337C82.9021 20.8337 79.166 17.0975 79.166 12.5003C79.166 7.9031 82.9021 4.16699 87.4993 4.16699C92.0966 4.16699 95.8327 7.9031 95.8327 12.5003C95.8327 17.0975 92.0966 20.8337 87.4993 20.8337Z" fill="#146EF5"/>
<defs>
<clipPath id="clip0_10529_15230">
<rect width="100" height="100" fill="white" transform="matrix(4.37114e-08 -1 -1 -4.37114e-08 600 200)"/>
</clipPath>
</defs>
</svg>
