<svg width="600" height="500" viewBox="0 0 600 500" fill="none" xmlns="http://www.w3.org/2000/svg">
<path d="M312.5 193.75C309.056 193.75 306.25 190.944 306.25 187.5C306.25 184.056 309.056 181.25 312.5 181.25C315.944 181.25 318.75 184.056 318.75 187.5C318.75 190.944 315.944 193.75 312.5 193.75Z" fill="#146EF5"/>
<path d="M337.5 193.75C334.056 193.75 331.25 190.944 331.25 187.5C331.25 184.056 334.056 181.25 337.5 181.25C340.944 181.25 343.75 184.056 343.75 187.5C343.75 190.944 340.944 193.75 337.5 193.75Z" fill="#146EF5"/>
<path d="M362.5 193.75C359.056 193.75 356.25 190.944 356.25 187.5C356.25 184.056 359.056 181.25 362.5 181.25C365.944 181.25 368.75 184.056 368.75 187.5C368.75 190.944 365.944 193.75 362.5 193.75Z" fill="#146EF5"/>
<path d="M387.5 193.75C384.056 193.75 381.25 190.944 381.25 187.5C381.25 184.056 384.056 181.25 387.5 181.25C390.944 181.25 393.75 184.056 393.75 187.5C393.75 190.944 390.944 193.75 387.5 193.75Z" fill="#146EF5"/>
<path d="M312.5 168.75C309.056 168.75 306.25 165.944 306.25 162.5C306.25 159.056 309.056 156.25 312.5 156.25C315.944 156.25 318.75 159.056 318.75 162.5C318.75 165.944 315.944 168.75 312.5 168.75Z" fill="#146EF5"/>
<path d="M337.5 168.75C334.056 168.75 331.25 165.944 331.25 162.5C331.25 159.056 334.056 156.25 337.5 156.25C340.944 156.25 343.75 159.056 343.75 162.5C343.75 165.944 340.944 168.75 337.5 168.75Z" fill="#146EF5"/>
<path d="M362.5 168.75C359.056 168.75 356.25 165.944 356.25 162.5C356.25 159.056 359.056 156.25 362.5 156.25C365.944 156.25 368.75 159.056 368.75 162.5C368.75 165.944 365.944 168.75 362.5 168.75Z" fill="#146EF5"/>
<path d="M387.5 168.75C384.056 168.75 381.25 165.944 381.25 162.5C381.25 159.056 384.056 156.25 387.5 156.25C390.944 156.25 393.75 159.056 393.75 162.5C393.75 165.944 390.944 168.75 387.5 168.75Z" fill="#146EF5"/>
<path d="M312.5 143.75C309.056 143.75 306.25 140.944 306.25 137.5C306.25 134.056 309.056 131.25 312.5 131.25C315.944 131.25 318.75 134.056 318.75 137.5C318.75 140.944 315.944 143.75 312.5 143.75Z" fill="#146EF5"/>
<path d="M337.5 143.75C334.056 143.75 331.25 140.944 331.25 137.5C331.25 134.056 334.056 131.25 337.5 131.25C340.944 131.25 343.75 134.056 343.75 137.5C343.75 140.944 340.944 143.75 337.5 143.75Z" fill="#146EF5"/>
<path d="M362.5 143.75C359.056 143.75 356.25 140.944 356.25 137.5C356.25 134.056 359.056 131.25 362.5 131.25C365.944 131.25 368.75 134.056 368.75 137.5C368.75 140.944 365.944 143.75 362.5 143.75Z" fill="#146EF5"/>
<path d="M387.5 143.75C384.056 143.75 381.25 140.944 381.25 137.5C381.25 134.056 384.056 131.25 387.5 131.25C390.944 131.25 393.75 134.056 393.75 137.5C393.75 140.944 390.944 143.75 387.5 143.75Z" fill="#146EF5"/>
<path d="M312.5 118.75C309.056 118.75 306.25 115.944 306.25 112.5C306.25 109.056 309.056 106.25 312.5 106.25C315.944 106.25 318.75 109.056 318.75 112.5C318.75 115.944 315.944 118.75 312.5 118.75Z" fill="#146EF5"/>
<path d="M337.5 118.75C334.056 118.75 331.25 115.944 331.25 112.5C331.25 109.056 334.056 106.25 337.5 106.25C340.944 106.25 343.75 109.056 343.75 112.5C343.75 115.944 340.944 118.75 337.5 118.75Z" fill="#146EF5"/>
<path d="M362.5 118.75C359.056 118.75 356.25 115.944 356.25 112.5C356.25 109.056 359.056 106.25 362.5 106.25C365.944 106.25 368.75 109.056 368.75 112.5C368.75 115.944 365.944 118.75 362.5 118.75Z" fill="#146EF5"/>
<path d="M387.5 118.75C384.056 118.75 381.25 115.944 381.25 112.5C381.25 109.056 384.056 106.25 387.5 106.25C390.944 106.25 393.75 109.056 393.75 112.5C393.75 115.944 390.944 118.75 387.5 118.75Z" fill="#146EF5"/>
<path d="M412.501 91.6663C414.802 91.6663 416.667 89.8009 416.667 87.4997C416.667 85.1985 414.802 83.333 412.501 83.333C410.199 83.333 408.334 85.1985 408.334 87.4997C408.334 89.8009 410.199 91.6663 412.501 91.6663Z" fill="#146EF5"/>
<path d="M437.501 91.6663C439.802 91.6663 441.667 89.8009 441.667 87.4997C441.667 85.1985 439.802 83.333 437.501 83.333C435.199 83.333 433.334 85.1985 433.334 87.4997C433.334 89.8009 435.199 91.6663 437.501 91.6663Z" fill="#146EF5"/>
<path d="M462.501 91.6663C464.802 91.6663 466.667 89.8009 466.667 87.4997C466.667 85.1985 464.802 83.333 462.501 83.333C460.199 83.333 458.334 85.1985 458.334 87.4997C458.334 89.8009 460.199 91.6663 462.501 91.6663Z" fill="#146EF5"/>
<path d="M487.501 91.6663C489.802 91.6663 491.667 89.8009 491.667 87.4997C491.667 85.1985 489.802 83.333 487.501 83.333C485.199 83.333 483.334 85.1985 483.334 87.4997C483.334 89.8009 485.199 91.6663 487.501 91.6663Z" fill="#146EF5"/>
<path d="M412.501 66.6663C414.802 66.6663 416.667 64.8009 416.667 62.4997C416.667 60.1985 414.802 58.333 412.501 58.333C410.199 58.333 408.334 60.1985 408.334 62.4997C408.334 64.8009 410.199 66.6663 412.501 66.6663Z" fill="#146EF5"/>
<path d="M437.501 66.6663C439.802 66.6663 441.667 64.8009 441.667 62.4997C441.667 60.1985 439.802 58.333 437.501 58.333C435.199 58.333 433.334 60.1985 433.334 62.4997C433.334 64.8009 435.199 66.6663 437.501 66.6663Z" fill="#146EF5"/>
<path d="M462.501 66.6663C464.802 66.6663 466.667 64.8009 466.667 62.4997C466.667 60.1985 464.802 58.333 462.501 58.333C460.199 58.333 458.334 60.1985 458.334 62.4997C458.334 64.8009 460.199 66.6663 462.501 66.6663Z" fill="#146EF5"/>
<path d="M487.501 66.6663C489.802 66.6663 491.667 64.8009 491.667 62.4997C491.667 60.1985 489.802 58.333 487.501 58.333C485.199 58.333 483.334 60.1985 483.334 62.4997C483.334 64.8009 485.199 66.6663 487.501 66.6663Z" fill="#146EF5"/>
<path d="M412.501 41.6663C414.802 41.6663 416.667 39.8009 416.667 37.4997C416.667 35.1985 414.802 33.333 412.501 33.333C410.199 33.333 408.334 35.1985 408.334 37.4997C408.334 39.8009 410.199 41.6663 412.501 41.6663Z" fill="#146EF5"/>
<path d="M437.501 41.6663C439.802 41.6663 441.667 39.8009 441.667 37.4997C441.667 35.1985 439.802 33.333 437.501 33.333C435.199 33.333 433.334 35.1985 433.334 37.4997C433.334 39.8009 435.199 41.6663 437.501 41.6663Z" fill="#146EF5"/>
<path d="M462.501 41.6663C464.802 41.6663 466.667 39.8009 466.667 37.4997C466.667 35.1985 464.802 33.333 462.501 33.333C460.199 33.333 458.334 35.1985 458.334 37.4997C458.334 39.8009 460.199 41.6663 462.501 41.6663Z" fill="#146EF5"/>
<path d="M487.501 41.6663C489.802 41.6663 491.667 39.8009 491.667 37.4997C491.667 35.1985 489.802 33.333 487.501 33.333C485.199 33.333 483.334 35.1985 483.334 37.4997C483.334 39.8009 485.199 41.6663 487.501 41.6663Z" fill="#146EF5"/>
<path d="M412.501 16.6663C414.802 16.6663 416.667 14.8009 416.667 12.4997C416.667 10.1985 414.802 8.33301 412.501 8.33301C410.199 8.33301 408.334 10.1985 408.334 12.4997C408.334 14.8009 410.199 16.6663 412.501 16.6663Z" fill="#146EF5"/>
<path d="M437.501 16.6663C439.802 16.6663 441.667 14.8009 441.667 12.4997C441.667 10.1985 439.802 8.33301 437.501 8.33301C435.199 8.33301 433.334 10.1985 433.334 12.4997C433.334 14.8009 435.199 16.6663 437.501 16.6663Z" fill="#146EF5"/>
<path d="M462.501 16.6663C464.802 16.6663 466.667 14.8009 466.667 12.4997C466.667 10.1985 464.802 8.33301 462.501 8.33301C460.199 8.33301 458.334 10.1985 458.334 12.4997C458.334 14.8009 460.199 16.6663 462.501 16.6663Z" fill="#146EF5"/>
<path d="M487.501 16.6663C489.802 16.6663 491.667 14.8009 491.667 12.4997C491.667 10.1985 489.802 8.33301 487.501 8.33301C485.199 8.33301 483.334 10.1985 483.334 12.4997C483.334 14.8009 485.199 16.6663 487.501 16.6663Z" fill="#146EF5"/>
</svg>
