<svg width="600" height="500" viewBox="0 0 600 500" fill="none" xmlns="http://www.w3.org/2000/svg">
<g clip-path="url(#clip0_10541_15436)">
<path d="M300 12.5C300 5.59644 305.596 -8.48157e-07 312.5 -5.46392e-07C319.404 -2.44628e-07 325 5.59644 325 12.5C325 19.4036 319.404 25 312.5 25C305.596 25 300 19.4036 300 12.5Z" fill="#146EF5"/>
<path d="M300 87.5C300 80.5964 305.596 75 312.5 75C319.404 75 325 80.5964 325 87.5C325 94.4036 319.404 100 312.5 100C305.596 100 300 94.4036 300 87.5Z" fill="#146EF5"/>
<path d="M300 62.5C300 55.5964 305.596 50 312.5 50C319.404 50 325 55.5964 325 62.5C325 69.4036 319.404 75 312.5 75C305.596 75 300 69.4036 300 62.5Z" fill="#146EF5"/>
<path d="M300 37.5C300 30.5964 305.596 25 312.5 25C319.404 25 325 30.5964 325 37.5C325 44.4036 319.404 50 312.5 50C305.596 50 300 44.4036 300 37.5Z" fill="#146EF5"/>
<path d="M325 87.5C325 80.5964 330.596 75 337.5 75C344.404 75 350 80.5964 350 87.5C350 94.4036 344.404 100 337.5 100C330.596 100 325 94.4036 325 87.5Z" fill="#146EF5"/>
<path d="M325 62.5C325 55.5964 330.596 50 337.5 50C344.404 50 350 55.5964 350 62.5C350 69.4036 344.404 75 337.5 75C330.596 75 325 69.4036 325 62.5Z" fill="#146EF5"/>
<path d="M325 37.5C325 30.5964 330.596 25 337.5 25C344.404 25 350 30.5964 350 37.5C350 44.4036 344.404 50 337.5 50C330.596 50 325 44.4036 325 37.5Z" fill="#146EF5"/>
<path d="M325 12.5C325 5.59644 330.596 -8.48157e-07 337.5 -5.46392e-07C344.404 -2.44628e-07 350 5.59644 350 12.5C350 19.4036 344.404 25 337.5 25C330.596 25 325 19.4036 325 12.5Z" fill="#146EF5"/>
<path d="M350 87.5C350 80.5964 355.596 75 362.5 75C369.404 75 375 80.5964 375 87.5C375 94.4036 369.404 100 362.5 100C355.596 100 350 94.4036 350 87.5Z" fill="#146EF5"/>
<path d="M350 62.5C350 55.5964 355.596 50 362.5 50C369.404 50 375 55.5964 375 62.5C375 69.4036 369.404 75 362.5 75C355.596 75 350 69.4036 350 62.5Z" fill="#146EF5"/>
<path d="M350 37.5C350 30.5964 355.596 25 362.5 25C369.404 25 375 30.5964 375 37.5C375 44.4036 369.404 50 362.5 50C355.596 50 350 44.4036 350 37.5Z" fill="#146EF5"/>
<path d="M350 12.5C350 5.59644 355.596 -8.48157e-07 362.5 -5.46392e-07C369.404 -2.44628e-07 375 5.59644 375 12.5C375 19.4036 369.404 25 362.5 25C355.596 25 350 19.4036 350 12.5Z" fill="#146EF5"/>
<path d="M375 12.5C375 5.59644 380.596 -8.48157e-07 387.5 -5.46392e-07C394.404 -2.44628e-07 400 5.59644 400 12.5C400 19.4036 394.404 25 387.5 25C380.596 25 375 19.4036 375 12.5Z" fill="#146EF5"/>
<path d="M375 87.5C375 80.5964 380.596 75 387.5 75C394.404 75 400 80.5964 400 87.5C400 94.4036 394.404 100 387.5 100C380.596 100 375 94.4036 375 87.5Z" fill="#146EF5"/>
<path d="M375 62.5C375 55.5964 380.596 50 387.5 50C394.404 50 400 55.5964 400 62.5C400 69.4036 394.404 75 387.5 75C380.596 75 375 69.4036 375 62.5Z" fill="#146EF5"/>
<path d="M375 37.5C375 30.5964 380.596 25 387.5 25C394.404 25 400 30.5964 400 37.5C400 44.4036 394.404 50 387.5 50C380.596 50 375 44.4036 375 37.5Z" fill="#146EF5"/>
</g>
<defs>
<clipPath id="clip0_10541_15436">
<rect width="100" height="100" fill="white" transform="matrix(4.37114e-08 -1 -1 -4.37114e-08 400 100)"/>
</clipPath>
</defs>
</svg>
