<svg width="600" height="500" viewBox="0 0 600 500" fill="none" xmlns="http://www.w3.org/2000/svg">
<path d="M412.499 295.834C407.902 295.834 404.166 292.098 404.166 287.5C404.166 282.903 407.902 279.167 412.499 279.167C417.097 279.167 420.833 282.903 420.833 287.5C420.833 292.098 417.097 295.834 412.499 295.834Z" fill="#146EF5"/>
<path d="M437.499 295.834C432.902 295.834 429.166 292.098 429.166 287.5C429.166 282.903 432.902 279.167 437.499 279.167C442.097 279.167 445.833 282.903 445.833 287.5C445.833 292.098 442.097 295.834 437.499 295.834Z" fill="#146EF5"/>
<path d="M462.499 295.834C457.902 295.834 454.166 292.098 454.166 287.5C454.166 282.903 457.902 279.167 462.499 279.167C467.097 279.167 470.833 282.903 470.833 287.5C470.833 292.098 467.097 295.834 462.499 295.834Z" fill="#146EF5"/>
<path d="M487.499 295.834C482.902 295.834 479.166 292.098 479.166 287.5C479.166 282.903 482.902 279.167 487.499 279.167C492.097 279.167 495.833 282.903 495.833 287.5C495.833 292.098 492.097 295.834 487.499 295.834Z" fill="#146EF5"/>
<path d="M412.499 270.834C407.902 270.834 404.166 267.098 404.166 262.5C404.166 257.903 407.902 254.167 412.499 254.167C417.097 254.167 420.833 257.903 420.833 262.5C420.833 267.098 417.097 270.834 412.499 270.834Z" fill="#146EF5"/>
<path d="M437.499 270.834C432.902 270.834 429.166 267.098 429.166 262.5C429.166 257.903 432.902 254.167 437.499 254.167C442.097 254.167 445.833 257.903 445.833 262.5C445.833 267.098 442.097 270.834 437.499 270.834Z" fill="#146EF5"/>
<path d="M462.499 270.834C457.902 270.834 454.166 267.098 454.166 262.5C454.166 257.903 457.902 254.167 462.499 254.167C467.097 254.167 470.833 257.903 470.833 262.5C470.833 267.098 467.097 270.834 462.499 270.834Z" fill="#146EF5"/>
<path d="M487.499 270.834C482.902 270.834 479.166 267.098 479.166 262.5C479.166 257.903 482.902 254.167 487.499 254.167C492.097 254.167 495.833 257.903 495.833 262.5C495.833 267.098 492.097 270.834 487.499 270.834Z" fill="#146EF5"/>
<path d="M412.499 245.834C407.902 245.834 404.166 242.098 404.166 237.5C404.166 232.903 407.902 229.167 412.499 229.167C417.097 229.167 420.833 232.903 420.833 237.5C420.833 242.098 417.097 245.834 412.499 245.834Z" fill="#146EF5"/>
<path d="M437.499 245.834C432.902 245.834 429.166 242.098 429.166 237.5C429.166 232.903 432.902 229.167 437.499 229.167C442.097 229.167 445.833 232.903 445.833 237.5C445.833 242.098 442.097 245.834 437.499 245.834Z" fill="#146EF5"/>
<path d="M462.499 245.834C457.902 245.834 454.166 242.098 454.166 237.5C454.166 232.903 457.902 229.167 462.499 229.167C467.097 229.167 470.833 232.903 470.833 237.5C470.833 242.098 467.097 245.834 462.499 245.834Z" fill="#146EF5"/>
<path d="M487.499 245.834C482.902 245.834 479.166 242.098 479.166 237.5C479.166 232.903 482.902 229.167 487.499 229.167C492.097 229.167 495.833 232.903 495.833 237.5C495.833 242.098 492.097 245.834 487.499 245.834Z" fill="#146EF5"/>
<path d="M412.499 220.834C407.902 220.834 404.166 217.098 404.166 212.5C404.166 207.903 407.902 204.167 412.499 204.167C417.097 204.167 420.833 207.903 420.833 212.5C420.833 217.098 417.097 220.834 412.499 220.834Z" fill="#146EF5"/>
<path d="M437.499 220.834C432.902 220.834 429.166 217.098 429.166 212.5C429.166 207.903 432.902 204.167 437.499 204.167C442.097 204.167 445.833 207.903 445.833 212.5C445.833 217.098 442.097 220.834 437.499 220.834Z" fill="#146EF5"/>
<path d="M462.499 220.834C457.902 220.834 454.166 217.098 454.166 212.5C454.166 207.903 457.902 204.167 462.499 204.167C467.097 204.167 470.833 207.903 470.833 212.5C470.833 217.098 467.097 220.834 462.499 220.834Z" fill="#146EF5"/>
<path d="M487.499 220.834C482.902 220.834 479.166 217.098 479.166 212.5C479.166 207.903 482.902 204.167 487.499 204.167C492.097 204.167 495.833 207.903 495.833 212.5C495.833 217.098 492.097 220.834 487.499 220.834Z" fill="#146EF5"/>
<path d="M112.501 191.666C114.802 191.666 116.667 189.801 116.667 187.5C116.667 185.198 114.802 183.333 112.501 183.333C110.199 183.333 108.334 185.198 108.334 187.5C108.334 189.801 110.199 191.666 112.501 191.666Z" fill="#146EF5"/>
<path d="M137.501 191.666C139.802 191.666 141.667 189.801 141.667 187.5C141.667 185.198 139.802 183.333 137.501 183.333C135.199 183.333 133.334 185.198 133.334 187.5C133.334 189.801 135.199 191.666 137.501 191.666Z" fill="#146EF5"/>
<path d="M162.501 191.666C164.802 191.666 166.667 189.801 166.667 187.5C166.667 185.198 164.802 183.333 162.501 183.333C160.199 183.333 158.334 185.198 158.334 187.5C158.334 189.801 160.199 191.666 162.501 191.666Z" fill="#146EF5"/>
<path d="M187.501 191.666C189.802 191.666 191.667 189.801 191.667 187.5C191.667 185.198 189.802 183.333 187.501 183.333C185.199 183.333 183.334 185.198 183.334 187.5C183.334 189.801 185.199 191.666 187.501 191.666Z" fill="#146EF5"/>
<path d="M112.501 166.666C114.802 166.666 116.667 164.801 116.667 162.5C116.667 160.198 114.802 158.333 112.501 158.333C110.199 158.333 108.334 160.198 108.334 162.5C108.334 164.801 110.199 166.666 112.501 166.666Z" fill="#146EF5"/>
<path d="M137.501 166.666C139.802 166.666 141.667 164.801 141.667 162.5C141.667 160.198 139.802 158.333 137.501 158.333C135.199 158.333 133.334 160.198 133.334 162.5C133.334 164.801 135.199 166.666 137.501 166.666Z" fill="#146EF5"/>
<path d="M162.501 166.666C164.802 166.666 166.667 164.801 166.667 162.5C166.667 160.198 164.802 158.333 162.501 158.333C160.199 158.333 158.334 160.198 158.334 162.5C158.334 164.801 160.199 166.666 162.501 166.666Z" fill="#146EF5"/>
<path d="M187.501 166.666C189.802 166.666 191.667 164.801 191.667 162.5C191.667 160.198 189.802 158.333 187.501 158.333C185.199 158.333 183.334 160.198 183.334 162.5C183.334 164.801 185.199 166.666 187.501 166.666Z" fill="#146EF5"/>
<path d="M112.501 141.666C114.802 141.666 116.667 139.801 116.667 137.5C116.667 135.198 114.802 133.333 112.501 133.333C110.199 133.333 108.334 135.198 108.334 137.5C108.334 139.801 110.199 141.666 112.501 141.666Z" fill="#146EF5"/>
<path d="M137.501 141.666C139.802 141.666 141.667 139.801 141.667 137.5C141.667 135.198 139.802 133.333 137.501 133.333C135.199 133.333 133.334 135.198 133.334 137.5C133.334 139.801 135.199 141.666 137.501 141.666Z" fill="#146EF5"/>
<path d="M162.501 141.666C164.802 141.666 166.667 139.801 166.667 137.5C166.667 135.198 164.802 133.333 162.501 133.333C160.199 133.333 158.334 135.198 158.334 137.5C158.334 139.801 160.199 141.666 162.501 141.666Z" fill="#146EF5"/>
<path d="M187.501 141.666C189.802 141.666 191.667 139.801 191.667 137.5C191.667 135.198 189.802 133.333 187.501 133.333C185.199 133.333 183.334 135.198 183.334 137.5C183.334 139.801 185.199 141.666 187.501 141.666Z" fill="#146EF5"/>
<path d="M112.501 116.666C114.802 116.666 116.667 114.801 116.667 112.5C116.667 110.198 114.802 108.333 112.501 108.333C110.199 108.333 108.334 110.198 108.334 112.5C108.334 114.801 110.199 116.666 112.501 116.666Z" fill="#146EF5"/>
<path d="M137.501 116.666C139.802 116.666 141.667 114.801 141.667 112.5C141.667 110.198 139.802 108.333 137.501 108.333C135.199 108.333 133.334 110.198 133.334 112.5C133.334 114.801 135.199 116.666 137.501 116.666Z" fill="#146EF5"/>
<path d="M162.501 116.666C164.802 116.666 166.667 114.801 166.667 112.5C166.667 110.198 164.802 108.333 162.501 108.333C160.199 108.333 158.334 110.198 158.334 112.5C158.334 114.801 160.199 116.666 162.501 116.666Z" fill="#146EF5"/>
<path d="M187.501 116.666C189.802 116.666 191.667 114.801 191.667 112.5C191.667 110.198 189.802 108.333 187.501 108.333C185.199 108.333 183.334 110.198 183.334 112.5C183.334 114.801 185.199 116.666 187.501 116.666Z" fill="#146EF5"/>
</svg>
