<svg width="600" height="500" viewBox="0 0 600 500" fill="none" xmlns="http://www.w3.org/2000/svg">
<path d="M412.499 189.584C413.65 189.584 414.583 188.651 414.583 187.5C414.583 186.35 413.65 185.417 412.499 185.417C411.349 185.417 410.416 186.35 410.416 187.5C410.416 188.651 411.349 189.584 412.499 189.584Z" fill="#146EF5"/>
<path d="M437.499 189.584C438.65 189.584 439.583 188.651 439.583 187.5C439.583 186.35 438.65 185.417 437.499 185.417C436.349 185.417 435.416 186.35 435.416 187.5C435.416 188.651 436.349 189.584 437.499 189.584Z" fill="#146EF5"/>
<path d="M462.499 189.584C463.65 189.584 464.583 188.651 464.583 187.5C464.583 186.35 463.65 185.417 462.499 185.417C461.349 185.417 460.416 186.35 460.416 187.5C460.416 188.651 461.349 189.584 462.499 189.584Z" fill="#146EF5"/>
<path d="M487.499 189.584C488.65 189.584 489.583 188.651 489.583 187.5C489.583 186.35 488.65 185.417 487.499 185.417C486.349 185.417 485.416 186.35 485.416 187.5C485.416 188.651 486.349 189.584 487.499 189.584Z" fill="#146EF5"/>
<path d="M412.499 164.584C413.65 164.584 414.583 163.651 414.583 162.5C414.583 161.35 413.65 160.417 412.499 160.417C411.349 160.417 410.416 161.35 410.416 162.5C410.416 163.651 411.349 164.584 412.499 164.584Z" fill="#146EF5"/>
<path d="M437.499 164.584C438.65 164.584 439.583 163.651 439.583 162.5C439.583 161.35 438.65 160.417 437.499 160.417C436.349 160.417 435.416 161.35 435.416 162.5C435.416 163.651 436.349 164.584 437.499 164.584Z" fill="#146EF5"/>
<path d="M462.499 164.584C463.65 164.584 464.583 163.651 464.583 162.5C464.583 161.35 463.65 160.417 462.499 160.417C461.349 160.417 460.416 161.35 460.416 162.5C460.416 163.651 461.349 164.584 462.499 164.584Z" fill="#146EF5"/>
<path d="M487.499 164.584C488.65 164.584 489.583 163.651 489.583 162.5C489.583 161.35 488.65 160.417 487.499 160.417C486.349 160.417 485.416 161.35 485.416 162.5C485.416 163.651 486.349 164.584 487.499 164.584Z" fill="#146EF5"/>
<path d="M412.499 139.584C413.65 139.584 414.583 138.651 414.583 137.5C414.583 136.35 413.65 135.417 412.499 135.417C411.349 135.417 410.416 136.35 410.416 137.5C410.416 138.651 411.349 139.584 412.499 139.584Z" fill="#146EF5"/>
<path d="M437.499 139.584C438.65 139.584 439.583 138.651 439.583 137.5C439.583 136.35 438.65 135.417 437.499 135.417C436.349 135.417 435.416 136.35 435.416 137.5C435.416 138.651 436.349 139.584 437.499 139.584Z" fill="#146EF5"/>
<path d="M462.499 139.584C463.65 139.584 464.583 138.651 464.583 137.5C464.583 136.35 463.65 135.417 462.499 135.417C461.349 135.417 460.416 136.35 460.416 137.5C460.416 138.651 461.349 139.584 462.499 139.584Z" fill="#146EF5"/>
<path d="M487.499 139.584C488.65 139.584 489.583 138.651 489.583 137.5C489.583 136.35 488.65 135.417 487.499 135.417C486.349 135.417 485.416 136.35 485.416 137.5C485.416 138.651 486.349 139.584 487.499 139.584Z" fill="#146EF5"/>
<path d="M412.499 114.584C413.65 114.584 414.583 113.651 414.583 112.5C414.583 111.35 413.65 110.417 412.499 110.417C411.349 110.417 410.416 111.35 410.416 112.5C410.416 113.651 411.349 114.584 412.499 114.584Z" fill="#146EF5"/>
<path d="M437.499 114.584C438.65 114.584 439.583 113.651 439.583 112.5C439.583 111.35 438.65 110.417 437.499 110.417C436.349 110.417 435.416 111.35 435.416 112.5C435.416 113.651 436.349 114.584 437.499 114.584Z" fill="#146EF5"/>
<path d="M462.499 114.584C463.65 114.584 464.583 113.651 464.583 112.5C464.583 111.35 463.65 110.417 462.499 110.417C461.349 110.417 460.416 111.35 460.416 112.5C460.416 113.651 461.349 114.584 462.499 114.584Z" fill="#146EF5"/>
<path d="M487.499 114.584C488.65 114.584 489.583 113.651 489.583 112.5C489.583 111.35 488.65 110.417 487.499 110.417C486.349 110.417 485.416 111.35 485.416 112.5C485.416 113.651 486.349 114.584 487.499 114.584Z" fill="#146EF5"/>
<path d="M587.501 489.584C586.35 489.584 585.417 488.651 585.417 487.5C585.417 486.35 586.35 485.417 587.501 485.417C588.651 485.417 589.584 486.35 589.584 487.5C589.584 488.651 588.651 489.584 587.501 489.584Z" fill="#146EF5"/>
<path d="M562.501 489.584C561.35 489.584 560.417 488.651 560.417 487.5C560.417 486.35 561.35 485.417 562.501 485.417C563.651 485.417 564.584 486.35 564.584 487.5C564.584 488.651 563.651 489.584 562.501 489.584Z" fill="#146EF5"/>
<path d="M537.501 489.584C536.35 489.584 535.417 488.651 535.417 487.5C535.417 486.35 536.35 485.417 537.501 485.417C538.651 485.417 539.584 486.35 539.584 487.5C539.584 488.651 538.651 489.584 537.501 489.584Z" fill="#146EF5"/>
<path d="M512.501 489.584C511.35 489.584 510.417 488.651 510.417 487.5C510.417 486.35 511.35 485.417 512.501 485.417C513.651 485.417 514.584 486.35 514.584 487.5C514.584 488.651 513.651 489.584 512.501 489.584Z" fill="#146EF5"/>
<path d="M587.501 464.584C586.35 464.584 585.417 463.651 585.417 462.5C585.417 461.35 586.35 460.417 587.501 460.417C588.651 460.417 589.584 461.35 589.584 462.5C589.584 463.651 588.651 464.584 587.501 464.584Z" fill="#146EF5"/>
<path d="M562.501 464.584C561.35 464.584 560.417 463.651 560.417 462.5C560.417 461.35 561.35 460.417 562.501 460.417C563.651 460.417 564.584 461.35 564.584 462.5C564.584 463.651 563.651 464.584 562.501 464.584Z" fill="#146EF5"/>
<path d="M537.501 464.584C536.35 464.584 535.417 463.651 535.417 462.5C535.417 461.35 536.35 460.417 537.501 460.417C538.651 460.417 539.584 461.35 539.584 462.5C539.584 463.651 538.651 464.584 537.501 464.584Z" fill="#146EF5"/>
<path d="M512.501 464.584C511.35 464.584 510.417 463.651 510.417 462.5C510.417 461.35 511.35 460.417 512.501 460.417C513.651 460.417 514.584 461.35 514.584 462.5C514.584 463.651 513.651 464.584 512.501 464.584Z" fill="#146EF5"/>
<path d="M587.501 439.584C586.35 439.584 585.417 438.651 585.417 437.5C585.417 436.35 586.35 435.417 587.501 435.417C588.651 435.417 589.584 436.35 589.584 437.5C589.584 438.651 588.651 439.584 587.501 439.584Z" fill="#146EF5"/>
<path d="M562.501 439.584C561.35 439.584 560.417 438.651 560.417 437.5C560.417 436.35 561.35 435.417 562.501 435.417C563.651 435.417 564.584 436.35 564.584 437.5C564.584 438.651 563.651 439.584 562.501 439.584Z" fill="#146EF5"/>
<path d="M537.501 439.584C536.35 439.584 535.417 438.651 535.417 437.5C535.417 436.35 536.35 435.417 537.501 435.417C538.651 435.417 539.584 436.35 539.584 437.5C539.584 438.651 538.651 439.584 537.501 439.584Z" fill="#146EF5"/>
<path d="M512.501 439.584C511.35 439.584 510.417 438.651 510.417 437.5C510.417 436.35 511.35 435.417 512.501 435.417C513.651 435.417 514.584 436.35 514.584 437.5C514.584 438.651 513.651 439.584 512.501 439.584Z" fill="#146EF5"/>
<path d="M587.501 414.584C586.35 414.584 585.417 413.651 585.417 412.5C585.417 411.35 586.35 410.417 587.501 410.417C588.651 410.417 589.584 411.35 589.584 412.5C589.584 413.651 588.651 414.584 587.501 414.584Z" fill="#146EF5"/>
<path d="M562.501 414.584C561.35 414.584 560.417 413.651 560.417 412.5C560.417 411.35 561.35 410.417 562.501 410.417C563.651 410.417 564.584 411.35 564.584 412.5C564.584 413.651 563.651 414.584 562.501 414.584Z" fill="#146EF5"/>
<path d="M537.501 414.584C536.35 414.584 535.417 413.651 535.417 412.5C535.417 411.35 536.35 410.417 537.501 410.417C538.651 410.417 539.584 411.35 539.584 412.5C539.584 413.651 538.651 414.584 537.501 414.584Z" fill="#146EF5"/>
<path d="M512.501 414.584C511.35 414.584 510.417 413.651 510.417 412.5C510.417 411.35 511.35 410.417 512.501 410.417C513.651 410.417 514.584 411.35 514.584 412.5C514.584 413.651 513.651 414.584 512.501 414.584Z" fill="#146EF5"/>
</svg>
