<svg width="600" height="500" viewBox="0 0 600 500" fill="none" xmlns="http://www.w3.org/2000/svg">
<path d="M512.499 95.8337C507.902 95.8337 504.166 92.0975 504.166 87.5003C504.166 82.9031 507.902 79.167 512.499 79.167C517.097 79.167 520.833 82.9031 520.833 87.5003C520.833 92.0975 517.097 95.8337 512.499 95.8337Z" fill="#146EF5"/>
<path d="M537.499 95.8337C532.902 95.8337 529.166 92.0975 529.166 87.5003C529.166 82.9031 532.902 79.167 537.499 79.167C542.097 79.167 545.833 82.9031 545.833 87.5003C545.833 92.0975 542.097 95.8337 537.499 95.8337Z" fill="#146EF5"/>
<path d="M562.499 95.8337C557.902 95.8337 554.166 92.0975 554.166 87.5003C554.166 82.9031 557.902 79.167 562.499 79.167C567.097 79.167 570.833 82.9031 570.833 87.5003C570.833 92.0975 567.097 95.8337 562.499 95.8337Z" fill="#146EF5"/>
<path d="M587.499 95.8337C582.902 95.8337 579.166 92.0975 579.166 87.5003C579.166 82.9031 582.902 79.167 587.499 79.167C592.097 79.167 595.833 82.9031 595.833 87.5003C595.833 92.0975 592.097 95.8337 587.499 95.8337Z" fill="#146EF5"/>
<path d="M512.499 70.8337C507.902 70.8337 504.166 67.0975 504.166 62.5003C504.166 57.9031 507.902 54.167 512.499 54.167C517.097 54.167 520.833 57.9031 520.833 62.5003C520.833 67.0975 517.097 70.8337 512.499 70.8337Z" fill="#146EF5"/>
<path d="M537.499 70.8337C532.902 70.8337 529.166 67.0975 529.166 62.5003C529.166 57.9031 532.902 54.167 537.499 54.167C542.097 54.167 545.833 57.9031 545.833 62.5003C545.833 67.0975 542.097 70.8337 537.499 70.8337Z" fill="#146EF5"/>
<path d="M562.499 70.8337C557.902 70.8337 554.166 67.0975 554.166 62.5003C554.166 57.9031 557.902 54.167 562.499 54.167C567.097 54.167 570.833 57.9031 570.833 62.5003C570.833 67.0975 567.097 70.8337 562.499 70.8337Z" fill="#146EF5"/>
<path d="M587.499 70.8337C582.902 70.8337 579.166 67.0975 579.166 62.5003C579.166 57.9031 582.902 54.167 587.499 54.167C592.097 54.167 595.833 57.9031 595.833 62.5003C595.833 67.0975 592.097 70.8337 587.499 70.8337Z" fill="#146EF5"/>
<path d="M512.499 45.8337C507.902 45.8337 504.166 42.0975 504.166 37.5003C504.166 32.9031 507.902 29.167 512.499 29.167C517.097 29.167 520.833 32.9031 520.833 37.5003C520.833 42.0975 517.097 45.8337 512.499 45.8337Z" fill="#146EF5"/>
<path d="M537.499 45.8337C532.902 45.8337 529.166 42.0975 529.166 37.5003C529.166 32.9031 532.902 29.167 537.499 29.167C542.097 29.167 545.833 32.9031 545.833 37.5003C545.833 42.0975 542.097 45.8337 537.499 45.8337Z" fill="#146EF5"/>
<path d="M562.499 45.8337C557.902 45.8337 554.166 42.0975 554.166 37.5003C554.166 32.9031 557.902 29.167 562.499 29.167C567.097 29.167 570.833 32.9031 570.833 37.5003C570.833 42.0975 567.097 45.8337 562.499 45.8337Z" fill="#146EF5"/>
<path d="M587.499 45.8337C582.902 45.8337 579.166 42.0975 579.166 37.5003C579.166 32.9031 582.902 29.167 587.499 29.167C592.097 29.167 595.833 32.9031 595.833 37.5003C595.833 42.0975 592.097 45.8337 587.499 45.8337Z" fill="#146EF5"/>
<path d="M512.499 20.8337C507.902 20.8337 504.166 17.0975 504.166 12.5003C504.166 7.9031 507.902 4.16699 512.499 4.16699C517.097 4.16699 520.833 7.9031 520.833 12.5003C520.833 17.0975 517.097 20.8337 512.499 20.8337Z" fill="#146EF5"/>
<path d="M537.499 20.8337C532.902 20.8337 529.166 17.0975 529.166 12.5003C529.166 7.9031 532.902 4.16699 537.499 4.16699C542.097 4.16699 545.833 7.9031 545.833 12.5003C545.833 17.0975 542.097 20.8337 537.499 20.8337Z" fill="#146EF5"/>
<path d="M562.499 20.8337C557.902 20.8337 554.166 17.0975 554.166 12.5003C554.166 7.9031 557.902 4.16699 562.499 4.16699C567.097 4.16699 570.833 7.9031 570.833 12.5003C570.833 17.0975 567.097 20.8337 562.499 20.8337Z" fill="#146EF5"/>
<path d="M587.499 20.8337C582.902 20.8337 579.166 17.0975 579.166 12.5003C579.166 7.9031 582.902 4.16699 587.499 4.16699C592.097 4.16699 595.833 7.9031 595.833 12.5003C595.833 17.0975 592.097 20.8337 587.499 20.8337Z" fill="#146EF5"/>
<path d="M212.499 95.8337C207.902 95.8337 204.166 92.0975 204.166 87.5003C204.166 82.9031 207.902 79.167 212.499 79.167C217.097 79.167 220.833 82.9031 220.833 87.5003C220.833 92.0975 217.097 95.8337 212.499 95.8337Z" fill="#146EF5"/>
<path d="M237.499 95.8337C232.902 95.8337 229.166 92.0975 229.166 87.5003C229.166 82.9031 232.902 79.167 237.499 79.167C242.097 79.167 245.833 82.9031 245.833 87.5003C245.833 92.0975 242.097 95.8337 237.499 95.8337Z" fill="#146EF5"/>
<path d="M262.499 95.8337C257.902 95.8337 254.166 92.0975 254.166 87.5003C254.166 82.9031 257.902 79.167 262.499 79.167C267.097 79.167 270.833 82.9031 270.833 87.5003C270.833 92.0975 267.097 95.8337 262.499 95.8337Z" fill="#146EF5"/>
<path d="M287.499 95.8337C282.902 95.8337 279.166 92.0975 279.166 87.5003C279.166 82.9031 282.902 79.167 287.499 79.167C292.097 79.167 295.833 82.9031 295.833 87.5003C295.833 92.0975 292.097 95.8337 287.499 95.8337Z" fill="#146EF5"/>
<path d="M212.499 70.8337C207.902 70.8337 204.166 67.0975 204.166 62.5003C204.166 57.9031 207.902 54.167 212.499 54.167C217.097 54.167 220.833 57.9031 220.833 62.5003C220.833 67.0975 217.097 70.8337 212.499 70.8337Z" fill="#146EF5"/>
<path d="M237.499 70.8337C232.902 70.8337 229.166 67.0975 229.166 62.5003C229.166 57.9031 232.902 54.167 237.499 54.167C242.097 54.167 245.833 57.9031 245.833 62.5003C245.833 67.0975 242.097 70.8337 237.499 70.8337Z" fill="#146EF5"/>
<path d="M262.499 70.8337C257.902 70.8337 254.166 67.0975 254.166 62.5003C254.166 57.9031 257.902 54.167 262.499 54.167C267.097 54.167 270.833 57.9031 270.833 62.5003C270.833 67.0975 267.097 70.8337 262.499 70.8337Z" fill="#146EF5"/>
<path d="M287.499 70.8337C282.902 70.8337 279.166 67.0975 279.166 62.5003C279.166 57.9031 282.902 54.167 287.499 54.167C292.097 54.167 295.833 57.9031 295.833 62.5003C295.833 67.0975 292.097 70.8337 287.499 70.8337Z" fill="#146EF5"/>
<path d="M212.499 45.8337C207.902 45.8337 204.166 42.0975 204.166 37.5003C204.166 32.9031 207.902 29.167 212.499 29.167C217.097 29.167 220.833 32.9031 220.833 37.5003C220.833 42.0975 217.097 45.8337 212.499 45.8337Z" fill="#146EF5"/>
<path d="M237.499 45.8337C232.902 45.8337 229.166 42.0975 229.166 37.5003C229.166 32.9031 232.902 29.167 237.499 29.167C242.097 29.167 245.833 32.9031 245.833 37.5003C245.833 42.0975 242.097 45.8337 237.499 45.8337Z" fill="#146EF5"/>
<path d="M262.499 45.8337C257.902 45.8337 254.166 42.0975 254.166 37.5003C254.166 32.9031 257.902 29.167 262.499 29.167C267.097 29.167 270.833 32.9031 270.833 37.5003C270.833 42.0975 267.097 45.8337 262.499 45.8337Z" fill="#146EF5"/>
<path d="M287.499 45.8337C282.902 45.8337 279.166 42.0975 279.166 37.5003C279.166 32.9031 282.902 29.167 287.499 29.167C292.097 29.167 295.833 32.9031 295.833 37.5003C295.833 42.0975 292.097 45.8337 287.499 45.8337Z" fill="#146EF5"/>
<path d="M212.499 20.8337C207.902 20.8337 204.166 17.0975 204.166 12.5003C204.166 7.9031 207.902 4.16699 212.499 4.16699C217.097 4.16699 220.833 7.9031 220.833 12.5003C220.833 17.0975 217.097 20.8337 212.499 20.8337Z" fill="#146EF5"/>
<path d="M237.499 20.8337C232.902 20.8337 229.166 17.0975 229.166 12.5003C229.166 7.9031 232.902 4.16699 237.499 4.16699C242.097 4.16699 245.833 7.9031 245.833 12.5003C245.833 17.0975 242.097 20.8337 237.499 20.8337Z" fill="#146EF5"/>
<path d="M262.499 20.8337C257.902 20.8337 254.166 17.0975 254.166 12.5003C254.166 7.9031 257.902 4.16699 262.499 4.16699C267.097 4.16699 270.833 7.9031 270.833 12.5003C270.833 17.0975 267.097 20.8337 262.499 20.8337Z" fill="#146EF5"/>
<path d="M287.499 20.8337C282.902 20.8337 279.166 17.0975 279.166 12.5003C279.166 7.9031 282.902 4.16699 287.499 4.16699C292.097 4.16699 295.833 7.9031 295.833 12.5003C295.833 17.0975 292.097 20.8337 287.499 20.8337Z" fill="#146EF5"/>
<path d="M512.499 395.834C507.902 395.834 504.166 392.098 504.166 387.5C504.166 382.903 507.902 379.167 512.499 379.167C517.097 379.167 520.833 382.903 520.833 387.5C520.833 392.098 517.097 395.834 512.499 395.834Z" fill="#146EF5"/>
<path d="M537.499 395.834C532.902 395.834 529.166 392.098 529.166 387.5C529.166 382.903 532.902 379.167 537.499 379.167C542.097 379.167 545.833 382.903 545.833 387.5C545.833 392.098 542.097 395.834 537.499 395.834Z" fill="#146EF5"/>
<path d="M562.499 395.834C557.902 395.834 554.166 392.098 554.166 387.5C554.166 382.903 557.902 379.167 562.499 379.167C567.097 379.167 570.833 382.903 570.833 387.5C570.833 392.098 567.097 395.834 562.499 395.834Z" fill="#146EF5"/>
<path d="M587.499 395.834C582.902 395.834 579.166 392.098 579.166 387.5C579.166 382.903 582.902 379.167 587.499 379.167C592.097 379.167 595.833 382.903 595.833 387.5C595.833 392.098 592.097 395.834 587.499 395.834Z" fill="#146EF5"/>
<path d="M512.499 370.834C507.902 370.834 504.166 367.098 504.166 362.5C504.166 357.903 507.902 354.167 512.499 354.167C517.097 354.167 520.833 357.903 520.833 362.5C520.833 367.098 517.097 370.834 512.499 370.834Z" fill="#146EF5"/>
<path d="M537.499 370.834C532.902 370.834 529.166 367.098 529.166 362.5C529.166 357.903 532.902 354.167 537.499 354.167C542.097 354.167 545.833 357.903 545.833 362.5C545.833 367.098 542.097 370.834 537.499 370.834Z" fill="#146EF5"/>
<path d="M562.499 370.834C557.902 370.834 554.166 367.098 554.166 362.5C554.166 357.903 557.902 354.167 562.499 354.167C567.097 354.167 570.833 357.903 570.833 362.5C570.833 367.098 567.097 370.834 562.499 370.834Z" fill="#146EF5"/>
<path d="M587.499 370.834C582.902 370.834 579.166 367.098 579.166 362.5C579.166 357.903 582.902 354.167 587.499 354.167C592.097 354.167 595.833 357.903 595.833 362.5C595.833 367.098 592.097 370.834 587.499 370.834Z" fill="#146EF5"/>
<path d="M512.499 345.834C507.902 345.834 504.166 342.098 504.166 337.5C504.166 332.903 507.902 329.167 512.499 329.167C517.097 329.167 520.833 332.903 520.833 337.5C520.833 342.098 517.097 345.834 512.499 345.834Z" fill="#146EF5"/>
<path d="M537.499 345.834C532.902 345.834 529.166 342.098 529.166 337.5C529.166 332.903 532.902 329.167 537.499 329.167C542.097 329.167 545.833 332.903 545.833 337.5C545.833 342.098 542.097 345.834 537.499 345.834Z" fill="#146EF5"/>
<path d="M562.499 345.834C557.902 345.834 554.166 342.098 554.166 337.5C554.166 332.903 557.902 329.167 562.499 329.167C567.097 329.167 570.833 332.903 570.833 337.5C570.833 342.098 567.097 345.834 562.499 345.834Z" fill="#146EF5"/>
<path d="M587.499 345.834C582.902 345.834 579.166 342.098 579.166 337.5C579.166 332.903 582.902 329.167 587.499 329.167C592.097 329.167 595.833 332.903 595.833 337.5C595.833 342.098 592.097 345.834 587.499 345.834Z" fill="#146EF5"/>
<path d="M512.499 320.834C507.902 320.834 504.166 317.098 504.166 312.5C504.166 307.903 507.902 304.167 512.499 304.167C517.097 304.167 520.833 307.903 520.833 312.5C520.833 317.098 517.097 320.834 512.499 320.834Z" fill="#146EF5"/>
<path d="M537.499 320.834C532.902 320.834 529.166 317.098 529.166 312.5C529.166 307.903 532.902 304.167 537.499 304.167C542.097 304.167 545.833 307.903 545.833 312.5C545.833 317.098 542.097 320.834 537.499 320.834Z" fill="#146EF5"/>
<path d="M562.499 320.834C557.902 320.834 554.166 317.098 554.166 312.5C554.166 307.903 557.902 304.167 562.499 304.167C567.097 304.167 570.833 307.903 570.833 312.5C570.833 317.098 567.097 320.834 562.499 320.834Z" fill="#146EF5"/>
<path d="M587.499 320.834C582.902 320.834 579.166 317.098 579.166 312.5C579.166 307.903 582.902 304.167 587.499 304.167C592.097 304.167 595.833 307.903 595.833 312.5C595.833 317.098 592.097 320.834 587.499 320.834Z" fill="#146EF5"/>
</svg>
