<svg width="329" height="60" viewBox="0 0 329 60" fill="none" xmlns="http://www.w3.org/2000/svg">
<path d="M25.4458 44.0459L10.8463 29.4317C10.256 28.8418 9.55523 28.374 8.78411 28.055C8.01299 27.736 7.18659 27.5719 6.35208 27.5723C4.66672 27.573 3.05065 28.2431 1.85941 29.4353C0.668159 30.6276 -0.000688779 32.2442 5.32272e-07 33.9295C0.000341845 34.7641 0.165048 35.5903 0.484716 36.3612C0.804384 37.132 1.27275 37.8324 1.86308 38.4222L20.9763 57.5354C21.565 58.126 22.2644 58.5946 23.0345 58.9143C23.8047 59.234 24.6303 59.3986 25.4642 59.3986C26.2981 59.3986 27.1237 59.234 27.8938 58.9143C28.664 58.5946 29.3634 58.126 29.9521 57.5354L37.5827 49.846L28.4157 41.0246L25.4458 44.0459Z" fill="white"/>
<path d="M52.3952 44.0464L47.8963 39.5548L75.9706 11.4584C77.1638 10.2672 77.8349 8.65071 77.8363 6.96466C77.8377 5.2786 77.1692 3.66105 75.978 2.46786C74.7867 1.27466 73.1703 0.603557 71.4842 0.602178C69.7982 0.6008 68.1806 1.26926 66.9874 2.46051L52.3952 17.0674L37.7957 2.45316C36.6035 1.26191 34.9869 0.593061 33.3015 0.593751C31.6161 0.59444 30.0001 1.26461 28.8088 2.45683C27.6176 3.64905 26.9487 5.26566 26.9494 6.95103C26.9501 8.6364 27.6203 10.2525 28.8125 11.4437L43.412 26.0579L38.9204 30.5569L24.3209 15.9427C23.7306 15.3528 23.0298 14.885 22.2587 14.566C21.4876 14.2469 20.6612 14.0829 19.8267 14.0833C18.9922 14.0836 18.1659 14.2483 17.3951 14.568C16.6242 14.8876 15.9239 15.356 15.334 15.9463C14.7442 16.5367 14.2764 17.2374 13.9573 18.0085C13.6383 18.7796 13.4743 19.606 13.4746 20.4405C13.475 21.275 13.6397 22.1013 13.9593 22.8722C14.279 23.643 14.7474 24.3434 15.3377 24.9332L47.9036 57.5285C48.4929 58.1193 49.193 58.5881 49.9638 58.9079C50.7345 59.2277 51.5608 59.3923 52.3952 59.3923C53.2297 59.3923 54.056 59.2277 54.8267 58.9079C55.5974 58.5881 56.2975 58.1193 56.8868 57.5285L64.5615 49.8465L55.5489 40.8854L52.3952 44.0464Z" fill="white"/>
<path d="M93.9367 29.4328L79.3446 44.0471L74.8456 39.5555L89.4451 24.9486C90.6374 23.7573 91.3075 22.1413 91.3082 20.4559C91.3089 18.7705 90.6401 17.1539 89.4488 15.9617C88.2576 14.7695 86.6415 14.0993 84.9561 14.0986C83.2708 14.0979 81.6542 14.7668 80.4619 15.958L65.8698 30.5576L62.6793 27.3671L53.7402 36.4018L74.853 57.5292C75.4416 58.1198 76.1411 58.5884 76.9112 58.9081C77.6814 59.2278 78.507 59.3924 79.3409 59.3924C80.1747 59.3924 81.0004 59.2278 81.7705 58.9081C82.5407 58.5884 83.2401 58.1198 83.8288 57.5292L102.942 38.416C104.092 37.2161 104.727 35.6133 104.71 33.9511C104.693 32.2889 104.026 30.6993 102.852 29.523C101.677 28.3466 100.089 27.6769 98.4266 27.6573C96.7645 27.6377 95.1607 28.2698 93.9588 29.4181L93.9367 29.4328Z" fill="white"/>
<path d="M241.859 46.6564C238.918 46.6564 236.926 44.7819 236.926 41.5914V27.6241H246.416V21.2873H236.926V10.7236H229.42V21.2873H223.48V27.6609H229.413V41.6282C229.413 49.2514 233.978 53.3902 241.175 53.3902C243.639 53.4516 246.069 52.8007 248.173 51.5156L246.174 45.6346C244.855 46.3624 243.363 46.7158 241.859 46.6564Z" fill="white"/>
<path d="M329 36.7172C329 27.8957 324.251 20.6621 314.563 20.6621C305.506 20.6621 299.125 27.5943 299.125 37.0921C299.125 46.5899 305.374 53.4045 315.121 53.4045C320.929 53.4045 325.053 51.4637 328.177 47.7146L322.994 43.4656C321.524 45.4651 318.87 47.0898 315.18 47.0898C309.931 47.0898 306.939 44.3404 306.748 39.3416H328.993L329 36.7172ZM306.756 33.9678C307.006 29.5939 310.005 26.6607 314.438 26.6607C318.87 26.6607 321.436 29.66 321.627 33.9678H306.756Z" fill="white"/>
<path d="M137.655 6.84961H129.848V52.7801H158.466V45.8405H137.655V6.84961Z" fill="white"/>
<path d="M283.474 46.8402C277.916 46.8402 274.851 42.5323 274.851 37.0336C274.851 31.5349 277.791 27.2197 283.415 27.2197C286.914 27.2197 289.222 29.2193 290.663 31.7187L296.103 27.5946C294.784 25.4111 292.907 23.6181 290.666 22.3998C288.424 21.1816 285.899 20.5819 283.349 20.6624C273.667 20.6624 267.228 27.5358 267.228 37.0336C267.228 46.5314 273.726 53.4048 283.4 53.4048C285.965 53.4862 288.506 52.887 290.764 51.6682C293.023 50.4493 294.918 48.6541 296.258 46.4652L290.884 42.2824C289.347 44.7818 286.914 46.8402 283.474 46.8402Z" fill="white"/>
<path d="M256.95 6.5999C256.338 6.58265 255.729 6.69046 255.16 6.91673C254.591 7.143 254.075 7.48297 253.642 7.91583C253.209 8.34868 252.869 8.86532 252.643 9.43412C252.417 10.0029 252.309 10.6119 252.326 11.2238C252.326 12.458 252.816 13.6416 253.689 14.5142C254.562 15.3869 255.745 15.8772 256.979 15.8772C258.213 15.8772 259.397 15.3869 260.27 14.5142C261.142 13.6416 261.633 12.458 261.633 11.2238C261.648 10.6074 261.537 9.99427 261.307 9.42236C261.076 8.85046 260.731 8.33187 260.292 7.89859C259.853 7.46532 259.33 7.12655 258.755 6.90319C258.181 6.67983 257.566 6.57661 256.95 6.5999Z" fill="white"/>
<path d="M216.019 46.6564C213.079 46.6564 211.079 44.7819 211.079 41.5914V27.6241H220.577V21.2873H211.079V10.7236H203.581V21.2873H197.648V27.6609H203.581V41.6282C203.581 49.2514 208.146 53.3902 215.343 53.3902C217.807 53.4516 220.237 52.8007 222.341 51.5156L220.342 45.6346C219.021 46.3637 217.526 46.7171 216.019 46.6564Z" fill="white"/>
<path d="M260.699 21.2871H253.201V52.7798H260.699V21.2871Z" fill="white"/>
<path d="M185.056 24.9699C183.306 22.5955 180.116 20.6621 175.367 20.6621C166.81 20.6621 160.995 27.5355 160.995 37.0333C160.995 46.5311 166.81 53.4045 175.367 53.4045C180.116 53.4045 183.306 51.4638 185.056 49.0893L185.431 52.7649H192.179V21.287H185.431L185.056 24.9699ZM184.681 42.0909C182.99 44.7815 180.741 46.781 176.991 46.781C172.118 46.781 168.618 42.9657 168.618 37.0333C168.618 31.1009 172.118 27.2856 176.991 27.2856C180.741 27.2856 182.99 29.2851 184.681 31.9683V42.0909Z" fill="white"/>
</svg>
