<svg width="70" height="33" viewBox="0 0 70 33" fill="none" xmlns="http://www.w3.org/2000/svg">
<path d="M1.78503 13.9284V2.7578L8.7572 13.9284H10.7652L17.7374 2.7578V13.9284H19.5222V0H17.319L9.76119 12.1177L2.20336 0H0.0001514V13.9284H1.78503ZM23.3986 13.9284L24.9882 10.6413H33.5779L35.1676 13.9284H37.0919L30.4823 0H28.0838L21.4742 13.9284H23.3986ZM32.797 8.85841H25.7691L29.2831 1.72711L32.797 8.85841ZM40.8289 13.9284V7.85557L45.2667 7.85568L51.3708 13.9284H53.825L46.825 6.96416L53.825 0H51.3708L45.2667 6.07292L40.8289 6.07274V0H39.044V6.96416V13.9284H40.8289ZM66.9326 13.9284V12.1455H57.562V7.85557H66.9326V6.07274H57.562V1.78282H66.9326V0H55.7771V13.9284H66.9326ZM1.78502 32.6003H10.0122C10.7187 32.6003 11.3741 32.4238 11.9783 32.071C12.5826 31.7181 13.0614 31.2399 13.4146 30.6364C13.7679 30.0328 13.9445 29.3782 13.9445 28.6725C13.9445 27.9668 13.7679 27.3122 13.4146 26.7086C13.1623 26.2775 12.8459 25.9103 12.4655 25.6071L12.4435 25.5902L12.5007 25.5404C12.7893 25.2842 13.0355 24.9871 13.2391 24.649L13.2891 24.5636C13.6331 23.9601 13.8051 23.3054 13.8051 22.5997C13.8051 21.894 13.6331 21.2394 13.2891 20.6358C12.9452 20.0323 12.471 19.5541 11.8668 19.2012C11.2625 18.8484 10.6071 18.672 9.90064 18.672H0.0001514L0 24.7449L0.0001514 26.5275V32.6003H1.78502ZM1.78502 20.4548H9.90064C10.4956 20.4548 11.0022 20.6637 11.4206 21.0816C11.8389 21.4994 12.0481 22.0055 12.0481 22.5997C12.0481 23.194 11.8389 23.7001 11.4206 24.1179C11.0022 24.5358 10.4956 24.7447 9.90064 24.7447L1.78502 24.7449V20.4548ZM10.0122 26.5275C10.6071 26.5275 11.1138 26.7365 11.5321 27.1543C11.9505 27.5722 12.1596 28.0782 12.1596 28.6725C12.1596 29.2668 11.9505 29.7728 11.5321 30.1907C11.1138 30.6085 10.6071 30.8174 10.0122 30.8174L1.78502 30.8175V26.5276L9.90064 26.5275H10.0122ZM22.311 32.8788C23.3336 32.8788 24.2679 32.6281 25.1138 32.1267C25.9598 31.6253 26.6338 30.9521 27.1358 30.1071C27.6378 29.2621 27.8888 28.3289 27.8888 27.3075V18.672H26.1039V27.3075C26.1039 27.9946 25.9319 28.6261 25.5879 29.2018C25.244 29.7775 24.7838 30.2371 24.2075 30.5807C23.6311 30.9242 22.9989 31.096 22.311 31.096C21.6231 31.096 20.991 30.9242 20.4146 30.5807C19.8382 30.2371 19.3781 29.7775 19.0341 29.2018C18.6901 28.6261 18.5182 27.9946 18.5182 27.3075V18.672H16.7333V27.3075C16.7333 28.3289 16.9843 29.2621 17.4863 30.1071C17.9883 30.9521 18.6623 31.6253 19.5082 32.1267C20.3542 32.6281 21.2884 32.8788 22.311 32.8788ZM39.0441 32.6003V30.8174H35.7532V20.4548H39.0441V18.672H30.6775V20.4548H33.9683V30.8174H30.6775V32.6003H39.0441ZM50.1993 32.6003V30.8174H43.6176V18.672H41.8327V32.6003H50.1993ZM63.0278 32.6003C64.2921 32.6003 65.4588 32.2892 66.5279 31.6671C67.5969 31.0449 68.4429 30.2 69.0657 29.1321C69.6886 28.0643 70 26.8989 70 25.6361C70 24.3733 69.6886 23.2079 69.0657 22.1401C68.4429 21.0723 67.5969 20.2273 66.5279 19.6052C65.4588 18.983 64.2921 18.672 63.0278 18.672H52.9879V32.6003H63.0278ZM63.0278 30.8174H54.7728V20.4548H63.0278C63.976 20.4548 64.8452 20.6869 65.6354 21.1512C66.4256 21.6155 67.0531 22.2422 67.5179 23.0315C67.9827 23.8208 68.2151 24.689 68.2151 25.6361C68.2151 26.5832 67.9827 27.4514 67.5179 28.2407C67.0531 29.03 66.4256 29.6568 65.6354 30.121C64.8452 30.5853 63.976 30.8174 63.0278 30.8174Z" fill="white"/>
</svg>
