<svg width="157" height="25" viewBox="0 0 157 25" fill="none" xmlns="http://www.w3.org/2000/svg">
<path fill-rule="evenodd" clip-rule="evenodd" d="M0 5.42456C0 1.8517 1.40765 0 3.78009 0C6.15215 0 7.56018 1.8517 7.56018 5.42456V16.2479C7.56018 19.8208 6.15252 21.6725 3.78009 21.6725C1.40765 21.6725 0 19.8208 0 16.2479V5.42456ZM25.4643 0H17.6512C10.6419 0 10.0894 3.027 10.0894 7.06301L10.0802 14.599C10.0802 18.8069 10.6082 21.6725 17.6784 21.6725H25.4643C32.4961 21.6725 33.0128 18.656 33.0128 14.62V7.07352C33.0128 3.027 32.4736 0 25.4643 0Z" fill="white"/>
<g clip-path="url(#clip0_10834_3109)">
<path d="M136.995 19.334C136.938 19.334 136.892 19.2878 136.892 19.2308V5.69976C136.892 5.64276 136.938 5.59653 136.995 5.59653H139.962C140.019 5.59653 140.065 5.64276 140.065 5.69976V7.36776C140.065 7.48567 140.258 7.52103 140.308 7.41435C140.554 6.89308 140.908 6.37776 141.368 6.00935C142.013 5.49335 142.791 5.23535 143.703 5.23535C145.534 5.23535 146.781 6.01935 147.444 7.5874C147.479 7.67153 147.601 7.67708 147.643 7.59594C148.034 6.83731 148.501 6.26544 149.043 5.88035C149.645 5.45035 150.419 5.23535 151.365 5.23535C153.025 5.23535 154.281 5.74276 155.132 6.75753C155.983 7.76376 156.409 9.11394 156.409 10.8082V19.1569C156.409 19.2129 156.364 19.2588 156.308 19.2601L153.328 19.3315C153.271 19.3329 153.223 19.2863 153.223 19.2283V11.5434C153.223 9.20426 152.462 8.03467 150.94 8.03467C150.123 8.03467 149.469 8.44744 148.979 9.27303C148.497 10.0901 148.257 11.2339 148.257 12.7044V19.2308C148.257 19.2878 148.21 19.334 148.153 19.334H145.212C145.155 19.334 145.109 19.2878 145.109 19.2308V11.5434C145.109 11.0963 145.092 10.7093 145.057 10.3824C145.023 10.047 144.954 9.72885 144.851 9.42785C144.756 9.11826 144.623 8.86885 144.451 8.67967C144.288 8.48185 144.068 8.32703 143.793 8.21526C143.527 8.09485 143.208 8.03467 142.838 8.03467C141.041 8.03467 140.143 9.69876 140.143 13.027V19.2308C140.143 19.2878 140.096 19.334 140.039 19.334H136.995Z" fill="white"/>
<path d="M130.751 5.5971C130.807 5.5971 130.854 5.64333 130.854 5.70033V7.5396C130.854 7.65369 131.027 7.6896 131.08 7.58851C131.802 6.2076 133.064 5.49287 134.864 5.44437C134.922 5.44283 134.969 5.48933 134.969 5.54683V8.39642C134.969 8.45342 134.922 8.49956 134.866 8.50006C134.238 8.50551 133.77 8.56128 133.46 8.66733C133.176 8.72751 132.922 8.80492 132.698 8.89951C132.483 8.98551 132.26 9.13174 132.028 9.33815C131.796 9.54451 131.602 9.79824 131.447 10.0992C131.301 10.4002 131.177 10.8044 131.073 11.3118C130.978 11.8106 130.931 12.3911 130.931 13.0533V19.2314C130.931 19.2884 130.885 19.3346 130.828 19.3346H127.784C127.727 19.3346 127.681 19.2884 127.681 19.2314V5.70033C127.681 5.64333 127.727 5.5971 127.784 5.5971H130.751Z" fill="white"/>
<path d="M101.046 15.5292C101.184 15.5292 101.283 15.6627 101.238 15.7935C100.804 17.053 100.05 18.0527 98.9772 18.7929C97.839 19.5755 96.449 19.9668 94.8068 19.9668C92.7218 19.9668 91.0272 19.3003 89.724 17.9673C88.4295 16.6257 87.7822 14.8713 87.7822 12.704C87.7822 11.328 88.0818 10.094 88.6813 9.00177C89.2895 7.90095 90.1281 7.04527 91.1968 6.43463C92.2654 5.81545 93.469 5.50586 94.8068 5.50586C95.719 5.50586 96.549 5.63913 97.2963 5.90572C98.0436 6.17236 98.6731 6.53786 99.1859 7.00227C99.6986 7.46663 100.133 8.02136 100.489 8.66636C100.845 9.30277 101.106 9.98645 101.271 10.7175C101.436 11.4399 101.523 12.2053 101.532 13.0137C101.532 13.174 101.528 13.3149 101.521 13.4361C101.515 13.541 101.426 13.62 101.321 13.62H91.1413C91.0181 13.62 90.9218 13.7274 90.9404 13.8493C91.0977 14.8857 91.5004 15.7165 92.1481 16.3419C92.8518 17.0127 93.7295 17.3481 94.7809 17.3481C95.5804 17.3481 96.2668 17.1976 96.84 16.8966C97.3795 16.6175 97.77 16.2055 98.0109 15.6603C98.0454 15.5822 98.1213 15.5292 98.2068 15.5292H101.046ZM90.979 11.1632C90.9536 11.2875 91.0509 11.4012 91.1777 11.4012H98.1209C98.244 11.4012 98.34 11.2938 98.3213 11.172C98.1822 10.2778 97.8363 9.53713 97.2831 8.95013C96.6836 8.31377 95.8495 7.99554 94.7809 7.99554C93.7381 7.99554 92.8781 8.30513 92.2004 8.92436C91.575 9.48763 91.1681 10.234 90.979 11.1632Z" fill="white"/>
<path d="M43.4076 3.55793C43.2936 3.55793 43.2012 3.46552 43.2012 3.35156V0.913427C43.2012 0.79944 43.2936 0.707031 43.4076 0.707031H57.4685C57.5826 0.707031 57.6748 0.79944 57.6748 0.913427V3.35156C57.6748 3.46552 57.5826 3.55793 57.4685 3.55793H52.3344C52.2203 3.55793 52.128 3.65034 52.128 3.76434V19.3605C52.128 19.4745 52.0358 19.5669 51.9217 19.5669H48.9544C48.8408 19.5669 48.748 19.4745 48.748 19.3605V3.76434C48.748 3.65034 48.6558 3.55793 48.5417 3.55793H43.4076Z" fill="white"/>
<path d="M59.1606 5.57227C59.2488 5.57227 59.3274 5.62804 59.3561 5.7114C59.7593 6.88399 60.3452 8.55336 61.1143 10.7194C61.917 12.9489 62.5206 14.1157 62.9247 15.2859C62.9297 15.3001 62.9434 15.3097 62.9584 15.3097C62.9738 15.3097 62.9874 15.2994 62.992 15.2844C63.3538 14.0532 63.932 12.732 64.7261 10.255C65.4788 7.93372 65.9665 6.42077 66.1902 5.71613C66.2174 5.63027 66.2965 5.57227 66.387 5.57227H69.3215C69.4647 5.57227 69.5643 5.71431 69.5156 5.84881C68.3152 9.1834 67.3552 11.8174 66.6352 13.7509C65.8956 15.7289 64.8983 17.9112 63.6424 21.3856C63.0061 23.1142 61.8752 23.976 60.0215 24.3879C58.7147 24.6783 58.072 24.6944 57.8065 24.6786C57.7138 24.6731 57.6506 24.5951 57.6506 24.5019V22.0066C57.6506 21.9003 57.7315 21.8113 57.8374 21.8012L58.7861 21.7105C58.7861 21.7105 59.8697 21.5425 60.2274 21.2986C60.7993 20.9089 61.0852 20.3558 61.2574 19.8569C61.4293 19.3581 61.2947 18.9862 61.2947 18.9862C60.6324 17.249 59.7079 15.4064 58.5211 12.3706C57.4143 9.51804 56.5765 7.34508 56.0088 5.85167C55.9574 5.71667 56.057 5.57227 56.2015 5.57227H59.1606Z" fill="white"/>
<path d="M110.336 2.73827C110.336 2.86755 110.219 2.96586 110.09 2.9525C109.774 2.91959 109.357 2.91264 108.997 2.95341C107.972 3.06959 107.592 4.15109 107.592 5.49555V5.93546C107.592 6.04946 107.684 6.14186 107.798 6.14186H110.13C110.244 6.14186 110.336 6.23427 110.336 6.34827V8.62459C110.336 8.73855 110.244 8.83096 110.13 8.83096H107.798C107.684 8.83096 107.592 8.92336 107.592 9.03736V19.3294C107.592 19.4425 107.501 19.5346 107.387 19.5357L104.678 19.5635C104.563 19.5646 104.47 19.4719 104.47 19.3571V9.03736C104.47 8.92336 104.377 8.83096 104.263 8.83096H102.878C102.764 8.83096 102.672 8.73855 102.672 8.62459V6.34827C102.672 6.23427 102.764 6.14186 102.878 6.14186H104.374C104.488 6.14186 104.581 6.04941 104.582 5.93527C104.586 5.70191 104.598 5.31391 104.632 5.00064C104.686 4.51809 104.633 0.03125 109.037 0.03125H110.13C110.244 0.03125 110.336 0.123655 110.336 0.237646V2.73827Z" fill="white"/>
<path d="M79.1556 5.39551C82.9392 5.39555 86.0065 8.62864 86.0065 12.6168C86.0065 16.605 82.9392 19.838 79.1556 19.838C77.4006 19.838 75.7992 19.1419 74.5874 17.9974C74.4856 17.9013 74.3124 17.9715 74.3124 18.1114V24.8488C74.3124 24.9343 74.2433 25.0036 74.1578 25.0036H71.2683C71.1828 25.0036 71.1133 24.9343 71.1133 24.8488V5.76074C71.1133 5.67524 71.1828 5.60592 71.2683 5.60592H74.1578C74.2433 5.60592 74.3124 5.67524 74.3124 5.76074V7.12178C74.3124 7.26164 74.4856 7.33178 74.5874 7.23578C75.7992 6.09142 77.4006 5.3956 79.1556 5.39551ZM78.5501 8.14055C76.2215 8.14055 74.3337 10.1339 74.3337 12.5924C74.3337 15.0508 76.2215 17.0437 78.5501 17.0437C80.8787 17.0436 82.7669 15.0507 82.7669 12.5924C82.7669 10.1339 80.8787 8.1406 78.5501 8.14055Z" fill="white"/>
<path d="M118.448 5.50586C122.441 5.50586 125.678 8.70859 125.678 12.6592C125.678 16.6097 122.441 19.8125 118.448 19.8125C114.455 19.8125 111.218 16.6097 111.218 12.6592C111.218 8.70859 114.455 5.50586 118.448 5.50586ZM118.448 8.10481C116.19 8.10486 114.361 10.1554 114.361 12.6849C114.361 15.2143 116.191 17.265 118.448 17.265C120.706 17.265 122.536 15.2143 122.536 12.6849C122.536 10.1554 120.706 8.10481 118.448 8.10481Z" fill="white"/>
</g>
<defs>
<clipPath id="clip0_10834_3109">
<rect width="113.636" height="25" fill="white" transform="translate(43)"/>
</clipPath>
</defs>
</svg>
