<svg width="516" height="53" viewBox="0 0 516 53" fill="none" xmlns="http://www.w3.org/2000/svg">
<g clip-path="url(#clip0_10834_3110)">
<path d="M387.3 1.2002H383.8V4.7002C383.8 5.6002 384.2 6.7002 386 6.7002H389.5V3.2002C389.5 2.4002 389.2 1.2002 387.3 1.2002ZM387 12.5002H384.2V41.4002C384.2 42.6002 385 43.4002 386.1 43.5002V43.6002H389.3V14.6002C389.2 13.3002 388.5 12.5002 387 12.5002ZM217.6 35.1002C216.4 33.9002 214.9 34.2002 214 35.0002C210.3 38.1002 206.9 39.3002 202.5 39.3002C193.7 39.3002 186.7 31.9002 186.7 22.4002C186.7 12.9002 193.5 5.6002 202.5 5.6002C206.8 5.6002 210.4 6.9002 213.8 9.8002C214.6 10.5002 216 10.8002 217 9.7002C217.9 8.8002 218.8 7.8002 218.8 7.8002L219 7.6002L218.8 7.4002C215.2 3.9002 210.7 0.700195 202.5 0.700195C190.6 0.700195 181.4 10.3002 181.4 22.5002C181.4 34.8002 190.4 44.1002 202.4 44.1002C209.1 44.1002 214 41.9002 219 36.7002L219.1 36.5002L219 36.3002C219 36.5002 218.7 36.1002 217.6 35.1002ZM293.6 11.8002C289.2 11.8002 285.7 13.7002 283 17.5002C281.8 15.1002 279 11.6002 273.2 11.6002C268.2 11.6002 265.5 14.2002 263.5 16.8002V14.6002C263.5 13.1002 262.6 12.2002 261.2 12.2002H258.4V43.3002H261.2C262.6 43.3002 263.4 42.9002 263.4 41.2002V25.7002C263.4 20.3002 266.9 16.3002 271.6 16.3002C276.4 16.3002 279.2 19.6002 279.2 25.2002V41.2002C279.2 42.7002 280 43.4002 281.4 43.4002H284.2V25.6002C284.2 19.2002 288.3 16.4002 292.4 16.4002C297.3 16.4002 300.1 19.7002 300.1 25.3002V40.9002C300.1 42.2002 300.4 43.4002 302.4 43.4002H305.1V24.3002C305.2 16.6002 300.8 11.8002 293.6 11.8002ZM329.7 11.9002C325.1 11.9002 321.3 13.9002 318.2 18.2002V15.0002C318.2 13.4002 317.3 12.6002 315.7 12.6002H313.2V50.8002C313.2 52.3002 313.9 53.0002 315.4 53.0002H318.2V38.2002C321.3 42.2002 325 44.2002 329.7 44.2002C336.9 44.2002 344.5 38.5002 344.5 28.0002C344.5 17.5002 336.9 11.9002 329.7 11.9002ZM339.3 28.0002C339.3 34.8002 335 39.5002 328.8 39.5002C323.5 39.5002 318 35.1002 318 27.9002C318 20.7002 323.5 16.3002 328.8 16.3002C334 16.4002 339.3 20.4002 339.3 28.0002ZM422.2 14.7002V17.3002C420.1 14.6002 416.4 11.6002 410.5 11.6002C406.8 11.6002 403.1 13.0002 400.4 15.5002C397.5 18.2002 395.9 22.1002 395.9 26.3002C395.9 35.8002 403.4 40.9002 410.5 40.9002C415.1 40.9002 419 39.0002 422.3 35.0002V38.0002C422.3 44.8002 418.3 48.7002 411.5 48.7002C408.2 48.7002 405 47.9002 402 46.2002C401.2 45.7002 400.6 45.5002 400.1 45.5002C399.5 45.5002 398.9 45.8002 398.5 46.5002C397.7 47.8002 397.4 48.4002 397.4 48.4002L397.3 48.6002L397.5 48.7002C401.6 51.6002 406.3 53.0002 411.5 53.0002C421.5 53.0002 427.3 47.5002 427.3 37.9002V12.4002H424.5C423.6 12.4002 422.2 13.2002 422.2 14.7002ZM422.5 26.6002C422.5 33.0002 416.9 36.8002 411.5 36.8002C405.6 36.8002 401.2 32.4002 401.2 26.6002C401.2 20.7002 405.6 16.5002 411.5 16.5002C416.8 16.4002 422.5 19.9002 422.5 26.6002ZM450.9 11.9002C446.5 11.9002 443.1 13.7002 440.7 17.3002V14.7002C440.7 13.2002 439.5 12.6002 438.3 12.6002H435.5V43.7002H440.6L440.5 25.9002C440.5 20.4002 444.2 16.6002 449.5 16.6002C454.7 16.6002 457.7 19.9002 457.7 25.6002V41.6002C457.7 43.1002 458.4 43.7002 459.7 43.7002H462.7V24.3002C462.8 16.7002 458.2 11.9002 450.9 11.9002ZM363.3 12.0002C359.4 12.0002 355.9 12.8002 352.1 14.5002L351.9 14.6002L352 14.8002C352 14.8002 352.5 16.2002 352.9 17.2002C353.3 18.2002 354.5 18.3002 355.4 17.9002C358 16.9002 360.3 16.4002 362.9 16.4002C368.6 16.4002 371.7 19.3002 371.7 24.5002V32.0002C371.7 36.7002 367.5 40.0002 361.7 40.0002C358.1 40.0002 354.2 38.2002 354.2 34.2002C354.2 30.4002 357.3 28.3002 362.9 28.3002H365.4C366.9 28.3002 367.6 27.6002 367.6 26.2002V24.5002H362.4C353.9 24.5002 349.1 28.1002 349.1 34.3002C349.1 39.0002 352.7 44.2002 360.8 44.2002C365.2 44.2002 368.9 42.5002 371.6 39.3002V41.4002C371.6 42.8002 372.3 43.4002 373.8 43.4002H376.6V24.4002C376.5 16.5002 371.8 12.0002 363.3 12.0002ZM237.4 12.0002C232.6 12.0002 229.2 13.2002 226.2 14.5002L226 14.7002L226.1 14.9002C226.1 14.9002 226.6 16.3002 227 17.3002C227.4 18.3002 228.6 18.4002 229.5 18.0002C232.1 17.0002 234.4 16.5002 237 16.5002C242.7 16.5002 245.9 19.4002 245.9 24.6002V32.0002C245.9 36.7002 241.7 40.0002 235.9 40.0002C232.3 40.0002 228.5 38.2002 228.5 34.2002C228.5 30.4002 231.6 28.3002 237.1 28.3002H239.6C241.1 28.3002 241.8 27.6002 241.8 26.2002V24.5002H236.7C228.2 24.5002 223.3 28.1002 223.3 34.3002C223.3 39.0002 226.9 44.2002 234.9 44.2002C239.3 44.2002 243 42.5002 245.8 39.3002V41.4002C245.8 42.8002 246.5 43.4002 247.9 43.4002H250.7V24.4002C250.6 16.5002 245.9 12.0002 237.4 12.0002ZM514.2 23.6002C513.5 23.0002 485 3.1002 483.7 2.3002L483.3 2.0002V6.9002C483.3 8.5002 484.1 9.0002 485.1 9.8002L485.3 9.9002C486.7 10.9002 507 25.0002 509.7 26.9002C507 28.8002 486.4 43.1002 485.1 43.9002C483.5 44.9002 483.4 45.6002 483.4 47.0002V51.7002C483.4 51.7002 513.7 30.6002 514.3 30.1002C515.7 29.1002 516 27.8002 516 27.0002V26.4002C516 25.4002 515.4 24.4002 514.2 23.6002Z" fill="white"/>
<path d="M496.4 29.1002C497.2 29.1002 498 28.8002 498.8 28.2002C499.8 27.5002 500.7 26.9002 500.7 26.9002L501 26.7002L500.7 26.5002C500.6 26.4002 487.3 17.2002 485.9 16.3002C485.3 15.8002 484.5 15.7002 484 16.0002C483.5 16.3002 483.1 16.8002 483.1 17.6002V20.7002L483.2 20.8002C483.3 20.9002 492.4 27.2002 494.2 28.4002C495 28.9002 495.7 29.1002 496.4 29.1002ZM72.3004 36.4002C71.2004 35.3002 69.8004 36.0002 69.2004 36.5002C66.9004 38.6002 64.3004 39.6002 61.5004 39.6002C55.4004 39.6002 50.6004 34.5002 50.6004 27.9002C50.6004 21.4002 55.3004 16.3002 61.2004 16.3002C64.6004 16.3002 66.8004 17.8002 68.6004 19.2002C69.9004 20.3002 71.0004 20.4002 71.9004 19.4002C72.7004 18.6002 73.6004 17.6002 73.6004 17.6002L73.8004 17.4002L73.6004 17.2002C70.1004 13.4002 66.2004 11.7002 61.2004 11.7002C52.3004 11.7002 45.2004 18.8002 45.2004 27.9002C45.2004 36.8002 52.4004 44.1002 61.2004 44.1002C67.7004 44.1002 71.4004 40.8002 73.8004 38.0002H74.0004L73.8004 37.8002C73.8004 37.8002 73.3004 37.4002 72.3004 36.4002ZM105.5 1.2002H102V4.7002C102 5.6002 102.4 6.7002 104.2 6.7002H107.7V3.6002C107.8 2.2002 106.9 1.2002 105.5 1.2002ZM105.1 12.5002H102.2V41.4002C102.2 42.6002 103 43.4002 104.1 43.5002V43.6002H107.3V14.6002C107.4 13.3002 106.6 12.5002 105.1 12.5002ZM138 14.2002C137.6 15.3002 130 33.7002 128.5 37.1002C127.1 33.6002 119.5 15.2002 119.1 14.2002C118.6 13.0002 117.6 12.3002 116.3 12.3002H112.7L112.9 12.6002C113 13.0002 125.1 40.9002 125.6 42.0002C126.1 43.3002 126.9 43.6002 128.2 43.6002H128.8C130 43.6002 130.8 43.1002 131.3 42.0002C131.8 40.9002 143.9 13.2002 144 12.9002L144.2 12.5002H140.7C139.4 12.5002 138.5 13.0002 138 14.2002ZM169.3 26.2002H157.4C156.1 26.2002 155.3 27.0002 155.3 28.3002V30.3002H155.6C161.3 30.2002 167.9 30.2002 170.6 30.2002C172.2 30.2002 173.4 29.8002 174.3 28.9002C175.1 28.0002 175.5 26.6002 175.4 25.0002C174.5 17.0002 168.8 11.8002 161 11.8002C152.5 11.8002 146 18.8002 146 28.0002C146 37.3002 152.7 44.2002 161.6 44.2002C166.8 44.2002 170.7 42.4002 174.4 38.4002L174.6 38.2002L174.4 38.0002C174.4 38.0002 173.7 37.4002 172.9 36.7002C171.7 35.7002 170.6 36.1002 170 36.7002C167.8 38.7002 165.1 39.7002 161.8 39.7002C156.1 39.7002 151.9 35.6002 151.2 29.5002C151.2 29.5002 151.1 28.8002 151.1 27.9002C151.1 26.9002 151.2 26.2002 151.2 26.2002C151.8 20.2002 155.8 16.0002 160.9 16.0002C166 16.0002 169.7 19.4002 170.2 24.6002C170.3 25.1002 170.2 25.5002 170.1 25.7002C169.8 26.1002 169.6 26.2002 169.3 26.2002ZM25.5004 2.8002C24.9004 1.6002 24.2004 1.2002 22.9004 1.2002H21.7004C20.7004 1.2002 19.8004 1.8002 19.3004 2.7002C18.9004 3.6002 1.30039 42.8002 1.10039 43.2002L0.900391 43.6002H4.20039C5.60039 43.6002 6.50039 43.0002 7.20039 41.6002C7.80039 40.4002 10.7004 33.8002 11.2004 32.7002H24.1004C25.7004 32.7002 26.7004 31.7002 26.7004 30.2002V28.0002H13.2004L22.3004 7.60019C24.2004 11.8002 36.9004 40.8002 37.5004 42.0002C38.3004 43.6002 40.2004 43.6002 40.8004 43.6002H43.8004L43.6004 43.2002C43.6004 42.8002 26.1004 4.1002 25.5004 2.8002ZM94.8004 39.1002C94.3004 38.8002 93.6004 38.7002 92.9004 38.9002C91.8004 39.2002 91.0004 39.4002 90.0004 39.4002C86.8004 39.4002 85.1004 37.8002 85.1004 34.5002V17.0002H94.8004V14.9002C94.8004 13.3002 93.4004 12.5002 92.2004 12.5002H85.0004V3.7002C85.0004 2.3002 84.0004 1.3002 82.5004 1.3002H80.0004V35.2002C80.0004 40.9002 83.1004 44.1002 88.9004 44.1002C91.1004 44.1002 93.6004 43.6002 95.2004 42.8002L95.3004 42.7002V42.6002C95.3004 42.6002 95.4004 41.7002 95.4004 40.6002C95.5004 39.8002 95.1004 39.4002 94.8004 39.1002Z" fill="white"/>
</g>
<defs>
<clipPath id="clip0_10834_3110">
<rect width="516" height="53" fill="white"/>
</clipPath>
</defs>
</svg>
