<svg width="180" height="27" viewBox="0 0 180 27" fill="none" xmlns="http://www.w3.org/2000/svg">
<mask id="mask0_10834_3122" style="mask-type:luminance" maskUnits="userSpaceOnUse" x="0" y="0" width="180" height="27">
<path d="M180 0H0V26.1628H180V0Z" fill="white"/>
</mask>
<g mask="url(#mask0_10834_3122)">
<path d="M36.6073 5.21738H41.8814L47.4471 17.4401H47.8336V5.21738H50.8571V20.8927H45.583L39.9953 8.66998H39.6331V20.8927H36.6073V5.21738ZM53.8056 13.055C53.8056 8.18026 57.0235 4.84842 61.719 4.84842C65.88 4.84842 68.6849 7.25003 68.9035 10.9486H65.8115C65.3278 8.69457 64.0203 7.71515 62.5207 7.71515H60.7781C58.6733 7.71515 56.933 10.0676 56.933 13.055C56.933 16.0425 58.6689 18.3949 60.7781 18.3949H62.5207C64.0203 18.3949 65.3764 17.4155 65.8601 15.1615H68.9521C68.7312 18.7617 65.88 21.2617 61.6218 21.2617C57.145 21.2617 53.8056 18.4687 53.8056 13.055ZM71.9514 5.22856H79.2397C82.652 5.22856 84.3681 7.48035 84.3681 9.98039C84.3912 10.9293 84.1112 11.8604 83.5696 12.6351C83.0281 13.4099 82.2538 13.987 81.3622 14.2805L84.9666 20.8927H81.5388L78.226 14.7456H75.0235V20.8927H71.9514V5.22856ZM79.0189 12.2322C80.4478 12.2322 81.2937 11.2773 81.2937 10.0542C81.2937 8.83098 80.4346 7.86944 79.0144 7.86944H75.0235V12.221L79.0189 12.2322ZM96.2679 5.22856H101.789L106.937 20.8927H103.763L102.482 16.9996H95.4905L94.2073 20.8927H91.1153L96.2679 5.22856ZM101.59 14.3162L99.6029 8.28983H98.344L96.3563 14.3274L101.59 14.3162ZM111.235 8.01926H106.392V5.21738H119.117V8.00808H114.303V20.8927H111.231L111.235 8.01926ZM121.836 5.22856H124.911V18.102H132.7V20.8927H121.823L121.836 5.22856ZM135.397 5.22856H146.745V7.86944H138.432V11.5613H146.126V14.1575H138.432V18.2474H146.851V20.8927H135.384L135.397 5.22856ZM149.042 13.0662C149.042 8.16685 152.284 4.8596 157.05 4.8596C161.768 4.8596 165.034 8.16685 165.034 13.0662C165.034 17.9656 161.768 21.2728 157.05 21.2728C152.271 21.2617 149.028 17.9544 149.028 13.055L149.042 13.0662ZM156.228 18.4061H157.898C160.171 18.4061 161.889 16.0537 161.889 13.0662C161.889 10.0788 160.164 7.71515 157.885 7.71515H156.215C153.916 7.71515 152.173 10.1145 152.173 13.055C152.173 15.9956 153.916 18.3949 156.215 18.3949L156.228 18.4061ZM167.11 16.0783H170.255C170.425 17.4513 171.247 18.4799 172.722 18.4799H174.71C176.064 18.4799 176.839 17.6458 176.839 16.5188C176.839 15.4902 176.161 14.7567 175.024 14.6338L171.733 14.267C168.928 13.9473 167.523 12.2545 167.523 9.73439C167.523 6.67311 169.774 4.8596 173.486 4.8596C177.358 4.8596 179.414 6.59931 179.56 10.0296H176.413C176.316 8.81756 175.565 7.64582 174.162 7.64582H172.517C171.331 7.64582 170.529 8.35692 170.529 9.50849C170.529 10.6601 171.375 11.3444 172.439 11.4674L175.73 11.8341C178.367 12.1293 179.867 13.623 179.867 16.3422C179.867 19.428 177.738 21.2617 173.504 21.2617C169.27 21.2617 167.17 19.4974 167.097 16.0671L167.11 16.0783ZM12.8938 0.0429688C9.48527 0.0429688 6.21638 1.41388 3.80619 3.85412C1.39602 6.29435 0.0419922 9.60399 0.0419922 13.055C0.0419922 16.5061 1.39602 19.8157 3.80619 22.256C6.21638 24.6962 9.48527 26.0671 12.8938 26.0671C16.3023 26.0671 19.5712 24.6962 21.9814 22.256C24.3916 19.8157 25.7455 16.5061 25.7455 13.055C25.7455 9.60399 24.3916 6.29435 21.9814 3.85412C19.5712 1.41388 16.3023 0.0429688 12.8938 0.0429688ZM12.8938 24.996C11.3633 24.996 9.95857 23.9428 8.86973 22.1986C9.01992 22.1472 9.16568 22.0935 9.31145 22.0398C11.9928 20.9949 14.4786 19.4946 16.6617 17.6033C17.4967 16.8958 18.2895 16.1386 19.0359 15.3359C18.4838 20.839 15.9439 24.996 12.8938 24.996ZM3.88937 20.7474C3.87611 20.7295 3.86065 20.7138 3.84519 20.6959C3.12078 19.7187 4.64912 17.0734 5.6982 15.5081C5.86755 17.2884 6.28392 19.0356 6.93501 20.6982C5.6474 21.1074 4.39734 21.2863 3.88937 20.7541V20.7474ZM12.8938 1.11408C14.4244 1.11408 15.829 2.1673 16.9179 3.91148C16.7677 3.96291 16.6197 4.01658 16.4761 4.07024C13.7948 5.11521 11.309 6.61555 9.12593 8.50674C8.28806 9.21429 7.49301 9.97219 6.74507 10.7764C7.30384 5.27776 9.84817 1.11408 12.8938 1.11408ZM21.9071 5.35602L21.949 5.40522C22.6755 6.38464 21.1473 9.02999 20.0982 10.5953C19.9256 8.81611 19.5063 7.07042 18.8526 5.40969C20.1402 5.00271 21.3903 4.81711 21.9071 5.35602ZM8.6555 11.9549C9.98067 11.9034 11.403 11.8766 12.9004 11.8766C15.1444 11.8766 17.2425 11.9392 19.0271 12.0466C18.4396 12.7733 17.8101 13.4777 17.1453 14.1552C15.8202 14.2044 14.3979 14.2335 12.9004 14.2335C10.6565 14.2335 8.55832 14.1709 6.77378 14.0613C7.35464 13.3368 7.99292 12.6324 8.6555 11.9549ZM19.0624 10.9777C17.2182 10.8636 15.1002 10.8055 12.8938 10.8055C11.8337 10.8055 10.7957 10.8189 9.80177 10.8457C10.0403 10.6266 10.2825 10.4105 10.5284 10.1973C12.0197 8.94252 13.6278 7.83717 15.3299 6.89672C16.1467 6.46763 16.9873 6.08686 17.8477 5.75629C18.5029 7.42713 18.9122 9.18639 19.0624 10.9777ZM4.28912 13.8601C2.31464 13.6499 1.10432 13.3659 1.10432 13.055C1.10432 12.6816 2.84912 12.3484 5.56568 12.1315C5.12176 12.6928 4.68004 13.2697 4.28912 13.8601ZM1.78899 14.5577C2.40462 14.6933 3.0268 14.7963 3.65305 14.8663L3.53157 15.0676C2.98826 16.0045 2.45378 17.1114 2.27268 18.2406C1.68991 17.0273 1.31642 15.722 1.16837 14.3811C1.3718 14.4517 1.579 14.5107 1.78899 14.5577ZM6.72519 15.1324C8.56936 15.2442 10.6874 15.3046 12.8938 15.3046C13.9539 15.3046 14.992 15.2912 15.9858 15.2644C15.7473 15.4835 15.5044 15.6997 15.257 15.9128C13.7662 17.1666 12.1589 18.2712 10.4577 19.2111C9.64157 19.6422 8.8008 20.0238 7.93992 20.3538C7.28386 18.6832 6.87456 16.9239 6.72519 15.1324ZM21.4985 12.25C23.4728 12.4602 24.6832 12.7442 24.6832 13.055C24.6832 13.4285 22.9384 13.7617 20.2219 13.9786C20.6747 13.4173 21.1031 12.8404 21.4985 12.25ZM23.9985 11.5524C23.381 11.4156 22.7564 11.3126 22.1278 11.2438L22.2493 11.0425C22.7926 10.1056 23.3271 8.99869 23.5082 7.8672C24.091 9.0814 24.4643 10.3875 24.6125 11.729C24.4113 11.6586 24.2063 11.5997 23.9985 11.5524ZM19.7735 3.36586C19.1645 3.36351 18.5575 3.43865 17.9669 3.58947C17.5646 2.89381 17.0754 2.25347 16.5115 1.6843C17.6788 2.06904 18.7795 2.63643 19.7735 3.36586ZM9.27611 1.691C7.35464 3.59395 5.99194 6.97498 5.65182 11.0492C5.2344 11.0828 4.83243 11.1163 4.45256 11.1543C3.55759 11.2326 2.6681 11.3655 1.78899 11.5524C1.58124 11.5997 1.37626 11.6586 1.175 11.729C1.43078 9.44489 2.33074 7.28368 3.76732 5.50363C5.20392 3.72355 7.11636 2.39996 9.27611 1.691ZM6.00519 22.7442C6.61346 22.7454 7.21954 22.6702 7.80961 22.5206C8.2135 23.2158 8.70334 23.8561 9.26728 24.4258C8.09991 24.041 6.99921 23.4737 6.00519 22.7442ZM16.5115 24.4169C18.433 22.5139 19.7957 19.1217 20.1336 15.0564C20.5532 15.0251 20.9552 14.9893 21.335 14.9535C22.2301 14.8751 23.1195 14.7422 23.9985 14.5555C24.2063 14.5082 24.4113 14.4493 24.6125 14.3788C24.3567 16.663 23.4569 18.8242 22.0203 20.6042C20.5837 22.3842 18.6712 23.7078 16.5115 24.4169Z" fill="white"/>
</g>
</svg>
