<svg width="210" height="46" viewBox="0 0 210 46" fill="none" xmlns="http://www.w3.org/2000/svg">
<path d="M54.4123 26.8413V33.3739H48.8506V11.2822H57.6282C60.6992 11.2822 62.9661 11.9855 64.428 13.392C65.8926 14.7985 66.6209 16.6738 66.6209 19.0152C66.6209 21.3565 65.9013 23.3533 64.4563 24.7598C63.0114 26.1663 60.7675 26.8611 57.7188 26.8413H54.4096H54.4123ZM54.4123 16.0271V22.0654H57.5629C58.6143 22.0654 59.4441 21.8084 60.0505 21.2944C60.657 20.7803 60.963 20.0206 60.963 19.0152C60.963 18.0719 60.6683 17.3375 60.0819 16.8122C59.4954 16.2869 58.6452 16.0271 57.532 16.0271H54.4123Z" fill="white"/>
<path d="M79.2323 30.3519C78.7791 31.3799 78.1104 32.1961 77.2236 32.8006C76.3368 33.405 75.2262 33.71 73.8861 33.71C71.8887 33.71 70.3981 33.114 69.4207 31.9222C68.4403 30.7303 67.9531 29.0471 67.9531 26.8695V15.4989H73.5801V25.2032C73.5801 26.2934 73.7442 27.1717 74.0729 27.8354C74.4046 28.5019 75.073 28.8352 76.0817 28.8352C77.0904 28.8352 77.7704 28.4596 78.184 27.7112C78.5949 26.9627 78.8017 25.9912 78.8017 24.7993V15.4961H84.5193V33.3654H79.7591L79.2323 30.3462V30.3519Z" fill="white"/>
<path d="M88.5786 32.1697C87.1137 31.04 86.2412 29.447 85.9521 27.3938H91.7633C91.9501 28.1112 92.3127 28.6563 92.8595 29.0262C93.4063 29.3962 94.143 29.5798 95.0694 29.5798C95.9962 29.5798 96.5996 29.4414 97.0019 29.1646C97.4012 28.8879 97.6053 28.5037 97.6053 28.0095C97.6053 27.8033 97.56 27.6254 97.4664 27.47C97.3729 27.3176 97.2227 27.1876 97.0189 27.086C96.6475 26.8798 96.1434 26.7273 95.503 26.6228C94.8626 26.5211 94.1743 26.4279 93.432 26.346C92.6697 26.2443 91.8908 26.1031 91.0972 25.9308C90.304 25.7585 89.576 25.4846 88.9187 25.1146C88.2386 24.7644 87.6975 24.2645 87.2952 23.6036C86.8929 22.9455 86.6918 22.0841 86.6918 21.0165C86.6918 19.2711 87.3605 17.8477 88.7005 16.749C90.0376 15.6504 91.9757 15.0996 94.5113 15.0996C97.2087 15.0996 99.2088 15.6475 100.507 16.749C101.804 17.8477 102.589 19.2909 102.855 21.0787H97.3219C97.1974 20.4432 96.8944 19.9659 96.4098 19.6468C95.9253 19.3276 95.2705 19.1694 94.449 19.1694C93.5848 19.1694 92.9757 19.3135 92.6244 19.6016C92.2731 19.8896 92.0976 20.2483 92.0976 20.6805C92.0976 21.2368 92.4629 21.604 93.1939 21.7904C93.9248 21.9768 94.9505 22.1491 96.2679 22.3129C97.0528 22.4145 97.8378 22.5586 98.6337 22.745C99.4273 22.9314 100.164 23.2082 100.844 23.5753C101.504 23.9453 102.039 24.4537 102.45 25.1005C102.861 25.7472 103.068 26.5945 103.068 27.6423C103.068 28.2383 102.991 28.8031 102.836 29.3369C102.682 29.8707 102.459 30.3734 102.173 30.8479C101.555 31.7715 100.631 32.5058 99.4073 33.0508C98.1804 33.5931 96.6419 33.8671 94.7864 33.8671C92.1089 33.8671 90.0376 33.3022 88.573 32.1725L88.5786 32.1697Z" fill="white"/>
<path d="M110.406 33.3706H104.813V9.64648H110.406V18.2436C110.899 17.2777 111.591 16.518 112.477 15.9644C113.364 15.4108 114.455 15.1341 115.753 15.1341C117.77 15.1341 119.255 15.73 120.204 16.919C121.15 18.1109 121.626 19.7857 121.626 21.9406V33.3706H115.971V23.6041C115.971 22.5168 115.784 21.6356 115.416 20.9719C115.044 20.3025 114.345 19.9721 113.313 19.9721C112.282 19.9721 111.54 20.3477 111.089 21.0962C110.636 21.8474 110.409 22.8275 110.409 24.0391V33.3762L110.406 33.3706Z" fill="white"/>
<path d="M129.76 26.8413V33.3739H124.195V11.2822H132.973C136.041 11.2822 138.31 11.9855 139.772 13.392C141.237 14.7985 141.965 16.6738 141.965 19.0152C141.965 21.3565 141.246 23.3533 139.801 24.7598C138.359 26.1663 136.112 26.8611 133.063 26.8413H129.757H129.76ZM129.76 16.0271V22.0654H132.91C133.962 22.0654 134.791 21.8084 135.398 21.2944C136.004 20.7803 136.31 20.0206 136.31 19.0152C136.31 18.0719 136.016 17.3375 135.429 16.8122C134.843 16.2869 133.993 16.0271 132.879 16.0271H129.76Z" fill="white"/>
<path d="M143.351 33.3708V15.5015H147.864L148.638 19.1674C148.927 17.7722 149.533 16.7696 150.462 16.1624C151.389 15.558 152.655 15.2529 154.264 15.2529H155.285V21.1388H153.182C152.647 21.1388 152.168 21.1755 151.746 21.2461C151.324 21.3195 150.958 21.4268 150.649 21.5681C150.071 21.8335 149.669 22.2826 149.445 22.9068C149.218 23.5338 149.105 24.381 149.105 25.4487V33.368H143.354L143.351 33.3708Z" fill="white"/>
<path d="M171.295 32.1706C169.853 33.2805 167.824 33.8341 165.206 33.8341C162.095 33.8341 159.798 33.0292 158.313 31.4137C156.829 29.801 156.089 27.6207 156.089 24.867V24.3416C156.089 23.3757 156.182 22.4832 156.367 21.6614C156.554 20.8395 156.84 20.0883 157.231 19.4104C157.993 18.035 159.064 16.9759 160.446 16.2359C161.826 15.4959 163.444 15.126 165.3 15.126C166.351 15.126 167.308 15.2276 168.176 15.4338C169.04 15.64 169.802 15.9478 170.462 16.3574C171.78 17.1792 172.754 18.2638 173.383 19.6081C174.009 20.9553 174.326 22.4381 174.326 24.0592V26.0617H161.685C161.829 27.1716 162.206 28.0019 162.812 28.5583C163.419 29.1119 164.271 29.3887 165.362 29.3887C166.144 29.3887 166.77 29.2362 167.232 28.9255C167.697 28.6177 168.031 28.2081 168.235 27.6913H174.202C173.709 29.561 172.737 31.0493 171.298 32.1593L171.295 32.1706ZM162.889 20.173C162.271 20.6983 161.869 21.4919 161.685 22.5595H168.762C168.638 21.5513 168.303 20.7717 167.759 20.2182C167.212 19.6646 166.416 19.3878 165.365 19.3878C164.314 19.3878 163.512 19.6505 162.894 20.173H162.889Z" fill="white"/>
<path d="M177.699 32.1697C176.234 31.04 175.361 29.447 175.072 27.3938H180.883C181.07 28.1112 181.433 28.6563 181.98 29.0262C182.526 29.3962 183.263 29.5798 184.19 29.5798C185.116 29.5798 185.72 29.4414 186.122 29.1646C186.524 28.8879 186.725 28.5037 186.725 28.0095C186.725 27.8033 186.68 27.6254 186.587 27.47C186.493 27.3176 186.343 27.1876 186.139 27.086C185.768 26.8798 185.263 26.7273 184.626 26.6228C183.986 26.5211 183.294 26.4279 182.555 26.346C181.793 26.2443 181.014 26.1031 180.22 25.9308C179.427 25.7585 178.699 25.4846 178.041 25.1146C177.361 24.7644 176.82 24.2645 176.421 23.6036C176.019 22.9455 175.818 22.0841 175.818 21.0165C175.818 19.2711 176.486 17.8477 177.826 16.749C179.166 15.6504 181.101 15.0996 183.637 15.0996C186.334 15.0996 188.335 15.6475 189.632 16.749C190.93 17.8477 191.715 19.2909 191.981 21.0787H186.448C186.326 20.4432 186.02 19.9659 185.536 19.6468C185.051 19.3276 184.396 19.1694 183.572 19.1694C182.748 19.1694 182.099 19.3135 181.748 19.6016C181.396 19.8896 181.22 20.2483 181.22 20.6805C181.22 21.2368 181.586 21.604 182.317 21.7904C183.048 21.9768 184.074 22.1491 185.391 22.3129C186.176 22.4145 186.964 22.5586 187.757 22.745C188.55 22.9314 189.287 23.2082 189.967 23.5753C190.627 23.9453 191.162 24.4537 191.573 25.1005C191.987 25.7472 192.191 26.5945 192.191 27.6423C192.191 28.2383 192.114 28.8031 191.958 29.3369C191.806 29.8707 191.581 30.3734 191.295 30.8479C190.678 31.7715 189.754 32.5058 188.53 33.0508C187.304 33.5931 185.765 33.8671 183.912 33.8671C181.235 33.8671 179.163 33.3022 177.699 32.1725V32.1697Z" fill="white"/>
<path d="M195.511 32.1697C194.046 31.04 193.174 29.447 192.885 27.3938H198.696C198.883 28.1112 199.245 28.6563 199.792 29.0262C200.339 29.3962 201.076 29.5798 202.002 29.5798C202.929 29.5798 203.532 29.4414 203.935 29.1646C204.337 28.8879 204.538 28.5037 204.538 28.0095C204.538 27.8033 204.493 27.6254 204.399 27.47C204.305 27.3176 204.155 27.1876 203.952 27.086C203.58 26.8798 203.076 26.7273 202.436 26.6228C201.795 26.5211 201.107 26.4279 200.365 26.346C199.602 26.2443 198.823 26.1031 198.03 25.9308C197.237 25.7585 196.509 25.4846 195.851 25.1146C195.171 24.7644 194.63 24.2645 194.23 23.6036C193.828 22.9455 193.627 22.0841 193.627 21.0165C193.627 19.2711 194.296 17.8477 195.636 16.749C196.976 15.6504 198.911 15.0996 201.447 15.0996C204.144 15.0996 206.144 15.6475 207.442 16.749C208.74 17.8477 209.525 19.2909 209.791 21.0787H204.258C204.133 20.4432 203.83 19.9659 203.345 19.6468C202.861 19.3276 202.206 19.1694 201.382 19.1694C200.557 19.1694 199.908 19.3135 199.557 19.6016C199.206 19.8896 199.03 20.2483 199.03 20.6805C199.03 21.2368 199.396 21.604 200.126 21.7904C200.857 21.9768 201.883 22.1491 203.201 22.3129C203.985 22.4145 204.77 22.5586 205.566 22.745C206.36 22.9314 207.097 23.2082 207.777 23.5753C208.437 23.9453 208.972 24.4537 209.383 25.1005C209.797 25.7472 210 26.5945 210 27.6423C210 28.2383 209.924 28.8031 209.768 29.3369C209.615 29.8707 209.391 30.3734 209.105 30.8479C208.487 31.7715 207.564 32.5058 206.34 33.0508C205.113 33.5931 203.575 33.8671 201.719 33.8671C199.042 33.8671 196.971 33.3022 195.506 32.1725L195.511 32.1697Z" fill="white"/>
<path d="M13.9679 30.708H0.651645C0.291824 30.708 0 30.9989 0 31.3576V44.6316C0 45.2109 0.702643 45.5018 1.11347 45.092L14.4297 31.818C14.8405 31.4084 14.5487 30.708 13.9679 30.708Z" fill="white"/>
<path d="M7.87896 0H21.5664C28.9923 0 35.0214 6.0101 35.0214 13.4154C35.0214 20.8179 28.9923 26.8308 21.5635 26.8308H4.54139C4.18157 26.8308 3.89258 26.5399 3.89258 26.184V3.97378C3.88975 1.78213 5.67754 0 7.87896 0Z" fill="white"/>
</svg>
