<svg width="120" height="31" viewBox="0 0 120 31" fill="none" xmlns="http://www.w3.org/2000/svg">
<mask id="mask0_10834_3114" style="mask-type:luminance" maskUnits="userSpaceOnUse" x="0" y="0" width="120" height="31">
<path d="M120 0H0V30.4688H120V0Z" fill="white"/>
</mask>
<g mask="url(#mask0_10834_3114)">
<mask id="mask1_10834_3114" style="mask-type:luminance" maskUnits="userSpaceOnUse" x="0" y="0" width="120" height="31">
<path d="M120 0H0V30.4688H120V0Z" fill="white"/>
</mask>
<g mask="url(#mask1_10834_3114)">
<path fill-rule="evenodd" clip-rule="evenodd" d="M25.238 13.1809C25.3373 13.2891 25.4333 13.3937 25.5231 13.4943C26.3862 14.2527 26.9318 15.3637 26.9318 16.6028C26.9318 18.888 25.0784 20.7407 22.7921 20.7407C20.5058 20.7407 18.6524 18.888 18.6524 16.6028C18.6524 15.3664 19.1955 14.2574 20.0555 13.4992L20.0524 13.4967C20.1487 13.389 20.2524 13.2768 20.3598 13.1604C21.0742 12.3872 21.9576 11.4311 21.9576 10.3957C21.9576 9.36055 21.0745 8.40455 20.3602 7.63131C20.2526 7.51484 20.1488 7.40248 20.0524 7.29467L20.0545 7.2931L20.0555 7.29232C19.1955 6.53412 18.6524 5.42512 18.6524 4.18871C18.6524 1.90343 20.5058 0.0507812 22.7921 0.0507812C25.0784 0.0507812 26.9318 1.90343 26.9318 4.18871C26.9318 5.42781 26.3862 6.53881 25.5231 7.29716C25.4333 7.39781 25.3373 7.50239 25.238 7.61059C24.5249 8.38741 23.6401 9.35125 23.6401 10.3957C23.6401 11.4403 24.5249 12.4041 25.238 13.1809ZM8.27931 16.6027C8.27931 14.3174 6.42593 12.4647 4.13969 12.4647C1.85347 12.4647 6.68434e-05 14.3174 6.68434e-05 16.6027C6.68434e-05 18.8881 1.85347 20.7407 4.13969 20.7407C6.42593 20.7407 8.27931 18.8881 8.27931 16.6027ZM0 4.18878C0 6.47407 1.85341 8.32672 4.13962 8.32672C6.42602 8.32672 8.27941 6.47407 8.27941 4.18878C8.27941 1.9035 6.42602 0.0508482 4.13962 0.0508482C1.85341 0.0508482 0 1.9035 0 4.18878ZM13.4649 30.2928C11.1787 30.2928 9.32527 28.4401 9.32527 26.1548C9.32527 23.8696 11.1787 22.017 13.4649 22.017C15.7512 22.017 17.6047 23.8696 17.6047 26.1548C17.6047 28.4401 15.7512 30.2928 13.4649 30.2928Z" fill="white"/>
<path fill-rule="evenodd" clip-rule="evenodd" d="M67.7864 13.4506C67.7864 12.464 68.575 11.6641 69.5472 11.6641C70.52 11.6641 71.308 12.464 71.308 13.4506C71.308 14.4373 70.52 15.2373 69.5472 15.2373C68.575 15.2373 67.7864 14.4373 67.7864 13.4506ZM67.0243 16.6845H65.8253C64.2045 16.6845 63.3675 17.7265 62.9022 18.3357C62.7244 18.5682 62.4672 18.5493 62.4672 18.2116V16.8365C62.4672 16.7525 62.4001 16.6845 62.3173 16.6845H60.0476C59.9653 16.6845 59.8982 16.7525 59.8982 16.8365V30.166C59.8982 30.2499 59.9653 30.318 60.0476 30.318H62.4716C62.5539 30.318 62.621 30.2499 62.621 30.166V22.2329C62.621 20.1772 63.8382 19.1826 65.8272 19.1826L67.0243 19.1822C67.1071 19.1822 67.1737 19.1143 67.1737 19.0304V16.8365C67.1737 16.7525 67.1071 16.6845 67.0243 16.6845ZM70.7531 16.6845H68.3418C68.2591 16.6845 68.1925 16.7526 68.1925 16.8366V30.1661C68.1925 30.2499 68.2591 30.318 68.3418 30.318H70.7531C70.8359 30.318 70.903 30.2499 70.903 30.1661V16.8366C70.903 16.7526 70.8359 16.6845 70.7531 16.6845ZM79.828 18.8309V16.8363C79.828 16.7524 79.7609 16.6844 79.6782 16.6844L76.975 16.6839V15.3172C76.975 14.95 77.0656 14.6724 77.2522 14.4684C77.4354 14.2677 77.6862 14.1701 78.0187 14.1701H79.6963H79.6978L79.6997 14.1698H79.8329C79.9157 14.1698 79.9828 14.1018 79.9828 14.0179V13.8921V11.9502V11.824C79.9828 11.74 79.9157 11.6721 79.8329 11.6721H79.6963H79.2819H77.8321C75.4566 11.6721 74.2522 12.7499 74.2522 14.8759V16.6844H72.0462C71.9634 16.6844 71.8963 16.7524 71.8963 16.8363V18.8309C71.8963 18.9148 71.9634 18.9829 72.0462 18.9829L74.2522 18.9859V29.4635V30.0398V30.1659C74.2522 30.2498 74.3193 30.3177 74.4016 30.3177H74.5382H76.7012H76.8251C76.9079 30.3177 76.975 30.2498 76.975 30.1659V30.0443V30.0427V30.0398V18.9856L79.6782 18.9829C79.7609 18.9829 79.828 18.9148 79.828 18.8309ZM52.1898 19.0309C49.7022 19.0309 48.7229 21.2526 48.7229 22.2702L55.5939 22.2707C55.5939 21.2526 54.9141 19.0309 52.1898 19.0309ZM45.8491 23.4817C45.8491 20.9902 46.9823 16.5327 52.1884 16.5327C57.3768 16.5327 58.3554 20.9029 58.5018 22.5719C58.5582 23.213 58.4911 24.3607 58.4911 24.3607C58.4867 24.441 58.421 24.504 58.3417 24.504L48.7214 24.5039C48.7214 27.2874 51.1201 27.9201 52.1884 27.9201C54.5565 27.9201 55.2124 26.3531 55.3172 26.1026C55.3216 26.0925 55.325 26.0845 55.3275 26.0789C55.3515 26.0246 55.4044 25.9907 55.4631 25.9907H58.084C58.1541 25.9907 58.2031 26.0331 58.1864 26.1267C58.0914 26.5962 57.0991 30.4183 52.1884 30.4183C48.6473 30.4183 45.8491 28.0638 45.8491 23.4817ZM110.196 22.2702C110.196 21.2526 111.176 19.0309 113.664 19.0309C116.388 19.0309 117.068 21.2526 117.068 22.2707L110.196 22.2702ZM119.978 22.5719C119.831 20.9029 118.853 16.5327 113.664 16.5327C108.458 16.5327 107.325 20.9902 107.325 23.4817C107.325 28.0638 110.123 30.4183 113.664 30.4183C118.575 30.4183 119.567 26.5962 119.662 26.1267C119.679 26.0331 119.63 25.9907 119.56 25.9907H116.939C116.88 25.9907 116.827 26.0246 116.803 26.0789L116.798 26.0906L116.793 26.1026C116.688 26.3531 116.032 27.9201 113.664 27.9201C112.595 27.9201 110.197 27.2874 110.197 24.5039L119.817 24.504C119.897 24.504 119.962 24.441 119.967 24.3607C119.967 24.3607 120.034 23.213 119.978 22.5719ZM90.0065 23.7418C90.007 23.7349 90.007 23.7281 90.0075 23.7212C90.0099 23.6422 90.0114 23.5625 90.0114 23.4817C90.0114 23.4025 90.0099 23.3243 90.0075 23.2468C90.0065 23.2143 90.0045 23.1823 90.0031 23.1502L90.0026 23.1392L90.0016 23.12L90.0001 23.0857C89.9991 23.0631 89.9982 23.0404 89.9967 23.0181C89.9933 22.9698 89.9893 22.9222 89.9849 22.8745L89.983 22.8463C89.9815 22.8279 89.98 22.8092 89.9781 22.7911C89.9737 22.7484 89.9688 22.7064 89.9639 22.6642L89.9634 22.6615C89.9595 22.6279 89.9555 22.5944 89.9516 22.5612C89.9487 22.5406 89.9453 22.5201 89.9423 22.4996L89.9374 22.4672C89.9301 22.419 89.9227 22.3705 89.9144 22.3231C89.9125 22.3107 89.91 22.2985 89.9075 22.2861C89.7606 21.4883 89.4579 20.8062 89.0019 20.2496C88.5058 19.6446 87.8666 19.2629 87.0951 19.1087L87.0878 19.1073L87.0839 19.1066C87.08 19.1059 87.0765 19.1053 87.0726 19.1045C87.0182 19.094 86.9634 19.0846 86.9075 19.0763L86.8933 19.0744L86.8791 19.0725L86.8591 19.07L86.8355 19.0669C86.7929 19.0614 86.7498 19.0559 86.7067 19.0518C86.6749 19.0486 86.6426 19.0464 86.6102 19.0442L86.5862 19.0425L86.5583 19.0405C86.5368 19.0389 86.5157 19.0373 86.4937 19.0362C86.4207 19.0327 86.3462 19.0307 86.2708 19.0307C86.1959 19.0307 86.1229 19.0327 86.0509 19.036C86.0098 19.038 85.9701 19.0412 85.9299 19.0444L85.9172 19.0454C85.9133 19.0457 85.9093 19.046 85.9054 19.0463C85.8986 19.0468 85.8922 19.0473 85.8853 19.0478C85.8721 19.0487 85.8584 19.0497 85.8452 19.0509C84.9004 19.1424 84.128 19.5465 83.5456 20.2559C83.0014 20.9193 82.6742 21.7551 82.5684 22.7472L82.567 22.7597L82.5655 22.7709C82.5596 22.8289 82.5552 22.8878 82.5508 22.9468C82.5503 22.9525 82.5498 22.9583 82.5493 22.9641C82.5489 22.9688 82.5484 22.9735 82.5479 22.9782C82.5474 22.9884 82.5464 22.9994 82.5454 23.0096C82.542 23.0635 82.5396 23.1183 82.5376 23.1731C82.5371 23.1828 82.5366 23.1923 82.5361 23.2019V23.2039C82.5351 23.2174 82.5346 23.2308 82.5342 23.2445C82.5317 23.3228 82.5302 23.4016 82.5302 23.4817C82.5302 23.5632 82.5317 23.6437 82.5342 23.7233C82.5342 23.7274 82.5347 23.7314 82.5347 23.7353C82.5351 23.7392 82.5351 23.7431 82.5351 23.7469C82.5787 24.9464 82.9177 25.9393 83.5456 26.7008C84.1289 27.4086 84.9038 27.811 85.8525 27.9007C85.855 27.901 85.8569 27.901 85.8594 27.9012C85.9231 27.9072 85.9877 27.9117 86.0529 27.9147C86.1244 27.9181 86.1969 27.9201 86.2708 27.9201C86.3458 27.9201 86.4192 27.9181 86.4917 27.9147C86.5329 27.9128 86.573 27.9096 86.6132 27.9065L86.6269 27.9054C86.6509 27.9035 86.6749 27.9022 86.6984 27.9C87.6501 27.8095 88.4235 27.4094 89.0019 26.7072C89.5818 26.0033 89.9139 25.0949 89.9923 24.0023L89.9938 23.9855C89.9947 23.9771 89.9952 23.9688 89.9957 23.9604C89.9996 23.9023 90.0021 23.8431 90.0045 23.7838C90.005 23.7751 90.0055 23.7663 90.006 23.7576L90.0065 23.7418ZM92.7283 23.1242C92.7322 23.2418 92.7346 23.3605 92.7346 23.4817C92.7346 23.6027 92.7322 23.7215 92.7283 23.8391L92.7278 23.8699L92.7273 23.8812C92.6465 26.0812 91.9005 27.6629 90.8034 28.7187C89.7347 29.7827 88.3182 30.351 86.5848 30.4118C86.4804 30.416 86.3761 30.4182 86.2713 30.4182C86.167 30.4182 86.0631 30.416 85.9593 30.4118C84.0986 30.348 82.6076 29.7093 81.5247 28.5087C81.4909 28.4712 81.4581 28.4324 81.4258 28.3937L81.3993 28.3622C81.391 28.3525 81.3827 28.3429 81.3743 28.3332C81.3655 28.3226 81.3567 28.3121 81.3479 28.3016C81.3346 28.2864 81.3214 28.2711 81.3092 28.2555C80.5064 27.2865 79.9603 25.9672 79.8354 24.2494C79.8349 24.244 79.8349 24.2388 79.8344 24.2335C79.8261 24.1186 79.8197 24.002 79.8153 23.8835L79.8138 23.8358C79.8104 23.7194 79.8075 23.6016 79.8075 23.4817C79.8075 23.3629 79.8099 23.2463 79.8138 23.1309C79.8143 23.1115 79.8148 23.0918 79.8158 23.0724C79.8197 22.9613 79.8256 22.8521 79.8334 22.7442C79.8339 22.7308 79.8354 22.7173 79.8364 22.7039L79.8378 22.6835C79.8462 22.5733 79.856 22.4642 79.8677 22.3573C79.8687 22.347 79.8702 22.3366 79.8711 22.3262C79.8839 22.2175 79.8976 22.1104 79.9138 22.005C79.9142 22.0014 79.9147 21.9977 79.9152 21.9942C79.9157 21.9903 79.9162 21.9864 79.9167 21.9826C79.9333 21.8745 79.952 21.7685 79.972 21.6637L79.9804 21.6217C80.0005 21.5183 80.023 21.4164 80.047 21.3163L80.0514 21.2973L80.0558 21.2782C80.0813 21.1757 80.1077 21.0746 80.1361 20.9755L80.1381 20.9691C80.1395 20.9641 80.141 20.959 80.1425 20.9538C80.2027 20.7479 80.2698 20.5497 80.3448 20.3593C80.3492 20.348 80.3531 20.3364 80.358 20.3251C80.3913 20.2409 80.4266 20.1585 80.4628 20.0774C80.4736 20.0531 80.4844 20.0286 80.4951 20.0046C80.527 19.9364 80.5593 19.8696 80.5926 19.8037C80.6127 19.763 80.6338 19.7226 80.6548 19.6825C80.6582 19.676 80.6622 19.6696 80.6656 19.6631C80.9031 19.217 81.1892 18.8067 81.5252 18.4355C82.6081 17.2387 84.1 16.6021 85.9613 16.5388C86.0646 16.5346 86.168 16.5324 86.2713 16.5324C86.3756 16.5324 86.48 16.5348 86.5843 16.539C88.3226 16.5999 89.7425 17.1735 90.8127 18.2473C91.9049 19.306 92.647 20.888 92.7273 23.0821C92.7278 23.0961 92.7278 23.1102 92.7283 23.1242ZM100.671 16.5341C98.979 16.5324 97.6483 17.6984 97.1693 18.3651C97.0047 18.5936 96.6937 18.5603 96.6937 18.1791V16.8363C96.6937 16.7523 96.6266 16.6843 96.5438 16.6843H94.2746C94.1918 16.6843 94.1247 16.7523 94.1247 16.8363V30.1658C94.1247 30.2498 94.1918 30.3178 94.2746 30.3178H96.6981C96.7808 30.3178 96.848 30.2498 96.848 30.1658V22.2488C96.848 20.7128 97.7679 19.0305 100.054 19.0305C102.679 19.0305 103.285 21.0734 103.285 22.1539V30.1658C103.285 30.2498 103.352 30.3178 103.435 30.3178H105.859C105.941 30.3178 106.008 30.2498 106.008 30.1658V22.4919C106.008 19.2153 104.253 16.5378 100.671 16.5341ZM43.2179 16.6845H45.9836C46.0521 16.6845 46.1004 16.7525 46.079 16.8183L41.8655 30.2145C41.845 30.2763 41.7878 30.318 41.7235 30.318H37.3452C37.2811 30.318 37.2241 30.2764 37.2034 30.2149L32.9875 16.8183C32.9661 16.7525 33.0144 16.6845 33.0829 16.6845H35.8407C35.8987 16.6845 35.9499 16.7231 35.9664 16.7795L39.281 27.6676C39.3641 27.9178 39.713 27.9175 39.7957 27.6673L43.0923 16.7797C43.1088 16.7233 43.16 16.6845 43.2179 16.6845Z" fill="white"/>
</g>
</g>
</svg>
