<svg width="100" height="37" viewBox="0 0 100 37" fill="none" xmlns="http://www.w3.org/2000/svg">
<mask id="mask0_10834_3115" style="mask-type:luminance" maskUnits="userSpaceOnUse" x="0" y="0" width="100" height="37">
<path d="M100 0H0V36.6379H100V0Z" fill="white"/>
</mask>
<g mask="url(#mask0_10834_3115)">
<path d="M9.3 28.4228C9.3 30.3899 9.04474 31.9523 8.53431 33.1102C8.02388 34.268 7.34534 35.0959 6.49879 35.5939C5.6522 36.0919 4.75582 36.3409 3.80963 36.3409C3.03775 36.3409 2.36546 36.2164 1.79277 35.9674C1.22008 35.7184 0.778112 35.376 0.466866 34.9403C0.155622 34.5046 0 34.0003 0 33.4276C0 32.855 0.161847 32.4379 0.485543 32.1017C0.809237 31.7656 1.25743 31.5975 1.83012 31.5975C2.30321 31.5975 2.68293 31.7158 2.96927 31.9523C3.25562 32.1889 3.51084 32.5811 3.73493 33.1288C4.00883 33.6269 4.23292 33.9816 4.4072 34.1933C4.58151 34.405 4.79315 34.5108 5.04215 34.5108C5.41565 34.5108 5.69578 34.3676 5.8825 34.0812C6.06927 33.7949 6.16263 33.4152 6.16263 32.9421C6.16263 32.4441 6.08172 31.9648 5.91987 31.5041C5.75802 31.0435 5.55259 30.5144 5.30362 29.9168C5.05461 29.3192 4.84918 28.6096 4.68733 27.7879C4.52547 26.9662 4.44457 25.9702 4.44457 24.8V13.8193C4.44457 12.9727 4.4072 12.344 4.3325 11.9331C4.25782 11.5223 4.08353 11.2795 3.80963 11.2048C3.53574 11.1301 3.08754 11.1923 2.46506 11.3916V10.3084L9.3 7.4325V28.4228ZM8.88914 4.83672C9.38711 4.3014 9.63612 3.63533 9.63612 2.83855C9.63612 2.04176 9.38711 1.36947 8.88914 0.821685C8.39116 0.273895 7.71888 0 6.87228 0C6.02569 0 5.33474 0.273895 4.7994 0.821685C4.26405 1.36947 3.99638 2.04176 3.99638 2.83855C3.99638 3.63533 4.26405 4.3014 4.7994 4.83672C5.33474 5.37207 6.02569 5.63974 6.87228 5.63974C7.71888 5.63974 8.39116 5.37207 8.88914 4.83672Z" fill="white"/>
<path d="M16.888 29.1695C15.8423 29.1695 14.9272 28.9516 14.1429 28.5158C13.3586 28.0801 12.7236 27.4576 12.2381 26.6484C11.7525 25.8391 11.5098 24.8867 11.5098 23.7911C11.5098 22.596 11.7089 21.5938 12.1074 20.7845C12.5058 19.9753 13.0909 19.2968 13.8628 18.749C14.6346 18.2012 15.5684 17.753 16.6639 17.4044C17.3611 17.1554 18.0397 16.9251 18.6995 16.7135C19.3593 16.5018 19.9632 16.2341 20.5109 15.9104C21.1832 15.537 21.6439 15.095 21.8929 14.5845C22.1419 14.0741 22.2664 13.4329 22.2664 12.661C22.2664 11.5654 22.0361 10.7189 21.5754 10.1213C21.1148 9.52374 20.4238 9.2249 19.5025 9.2249C18.8053 9.2249 18.27 9.37434 17.8965 9.67314C17.523 9.97193 17.2616 10.3952 17.1122 10.943C16.9628 11.4907 16.8133 12.1008 16.6639 12.7731C16.5892 13.4454 16.3901 13.987 16.0664 14.3978C15.7427 14.8086 15.1824 15.0141 14.3857 15.0141C13.6636 15.0141 13.1033 14.7962 12.7049 14.3604C12.3065 13.9247 12.1074 13.3707 12.1074 12.6984C12.1074 11.7522 12.4311 10.887 13.0784 10.1026C13.7258 9.31831 14.6346 8.6896 15.8049 8.2165C16.9752 7.7434 18.3447 7.50684 19.9133 7.50684C21.2828 7.50684 22.4842 7.72473 23.5176 8.16047C24.5509 8.5962 25.3602 9.28094 25.9453 10.2147C26.5304 11.1484 26.823 12.3498 26.823 13.8189V24.7996C26.823 25.2726 26.9039 25.6275 27.0658 25.864C27.2276 26.1006 27.4828 26.2189 27.8314 26.2189C28.1053 26.2189 28.3481 26.1317 28.5597 25.9574C28.7714 25.7831 28.9643 25.5839 29.1386 25.3598L29.7736 26.0695C29.5744 26.4679 29.313 26.9036 28.9892 27.3767C28.6655 27.8498 28.2174 28.2544 27.6447 28.5905C27.072 28.9267 26.3748 29.0948 25.5531 29.0948C24.7314 29.0948 24.0965 28.9329 23.5736 28.6092C23.0507 28.2855 22.6648 27.8435 22.4158 27.2833C22.1667 26.7231 22.0423 26.1068 22.0423 25.4345V16.6201C21.9178 16.7446 21.7746 16.9064 21.6127 17.1056C21.4509 17.3048 21.2206 17.504 20.9218 17.7032C20.623 17.8775 20.3615 18.0331 20.1374 18.1701C19.9133 18.307 19.6768 18.4377 19.4278 18.5622C19.1788 18.6867 18.8551 18.8735 18.4567 19.1225C17.9836 19.3964 17.5728 19.7014 17.2242 20.0375C16.8756 20.3737 16.6204 20.7596 16.4586 21.1954C16.2967 21.6311 16.2158 22.1478 16.2158 22.7454C16.2158 23.8907 16.4897 24.7435 17.0375 25.3038C17.5852 25.864 18.2327 26.1442 18.9796 26.1442C19.7266 26.1442 20.3864 25.9201 20.8844 25.4719C21.3824 25.0237 21.8306 24.4759 22.229 23.8285L22.4158 25.4345C22.1419 25.9823 21.7621 26.5426 21.2766 27.1152C20.7911 27.6879 20.1935 28.1735 19.4839 28.5719C18.7742 28.9702 17.9089 29.1695 16.888 29.1695Z" fill="white"/>
<path d="M46.1135 36.0048V34.9217C46.6863 34.9217 47.1221 34.8159 47.4208 34.6042C47.7195 34.3926 47.8691 33.8137 47.8691 32.8675V13.8194C47.8691 12.9728 47.8316 12.3441 47.757 11.9332C47.6824 11.5224 47.5143 11.2796 47.2527 11.2049C46.9915 11.1302 46.5493 11.1925 45.9268 11.3916V10.3085L52.6872 7.43262V32.8675C52.6872 33.5149 52.7557 33.9818 52.8928 34.2681C53.0294 34.5544 53.2661 34.735 53.6023 34.8097C53.9385 34.8844 54.4053 34.9217 55.0027 34.9217V36.0048H46.1135ZM53.8824 28.7217C53.21 28.4976 52.6062 28.1739 52.0708 27.7506C51.5355 27.3273 51.0312 26.8791 50.5583 26.4061L52.6872 22.0735C52.6872 23.1193 52.8553 24.0406 53.1915 24.8374C53.5277 25.6342 54.007 26.2629 54.6294 26.7235C55.2518 27.1842 55.9613 27.4145 56.7583 27.4145C57.4553 27.4145 58.1027 27.1904 58.7006 26.7422C59.298 26.294 59.7712 25.5346 60.1195 24.4639C60.4682 23.3932 60.6424 21.9988 60.6424 20.2808C60.6424 18.239 60.4807 16.5023 60.157 15.0706C59.8333 13.6388 59.3725 12.5432 58.7751 11.7838C58.1777 11.0244 57.4057 10.6447 56.4596 10.6447C55.9368 10.6447 55.4324 10.7567 54.9467 10.9808C54.4613 11.2049 53.9945 11.541 53.5462 11.9892C53.098 12.4374 52.7122 12.9852 52.3885 13.6326L51.9027 12.4374C52.3014 11.5659 52.8118 10.7567 53.4342 10.0097C54.0566 9.2627 54.7975 8.65891 55.6566 8.19826C56.5156 7.73762 57.4928 7.50732 58.5885 7.50732C59.9329 7.50732 61.1406 7.89322 62.2113 8.66512C63.282 9.43702 64.1161 10.5575 64.7135 12.0266C65.3113 13.4956 65.61 15.3009 65.61 17.4422C65.61 19.9322 65.1993 22.03 64.3777 23.7356C63.5557 25.4412 62.4415 26.7547 61.0346 27.6759C59.6277 28.5972 58.0156 29.0578 56.198 29.0578C55.3264 29.0578 54.5544 28.9458 53.8824 28.7217Z" fill="white"/>
<path d="M76.1554 29.0569C74.2631 29.0569 72.6636 28.5963 71.3563 27.675C70.0489 26.7537 69.0468 25.5087 68.3494 23.9401C67.6524 22.3714 67.3037 20.616 67.3037 18.6738C67.3037 17.1051 67.5218 15.6485 67.9575 14.3039C68.3933 12.9594 69.0157 11.7829 69.8248 10.7744C70.6343 9.76602 71.5804 8.98166 72.6636 8.42144C73.7463 7.86118 74.9606 7.58105 76.305 7.58105C77.8735 7.58105 79.2183 7.94213 80.3386 8.6642C81.4593 9.38627 82.3369 10.4321 82.9718 11.8015C83.6067 13.171 83.9244 14.8517 83.9244 16.8437H70.2916V15.163H79.0313C78.9317 13.171 78.5834 11.6832 77.9856 10.6998C77.3881 9.71623 76.6037 9.22446 75.6325 9.22446C75.0601 9.22446 74.4998 9.42985 73.9519 9.84071C73.4041 10.2515 72.9498 10.9425 72.5886 11.9136C72.2278 12.8847 72.0472 14.2043 72.0472 15.8726C72.0472 17.8397 72.2774 19.5329 72.7382 20.9521C73.1989 22.3714 73.8774 23.4607 74.7735 24.2202C75.67 24.9796 76.7532 25.3593 78.0231 25.3593C79.1933 25.3593 80.1769 25.0357 80.9735 24.3882C81.7705 23.7409 82.4054 22.7947 82.8782 21.5497L84.0364 21.9979C83.7623 23.2927 83.2955 24.4754 82.6356 25.5461C81.9757 26.6168 81.1166 27.4696 80.0584 28.1045C79.0002 28.7394 77.6994 29.0569 76.1554 29.0569Z" fill="white"/>
<path d="M94.5558 28.722H85.6666V27.6015C86.1648 27.6015 86.5631 27.5019 86.8618 27.3027C87.1605 27.1035 87.3101 26.5308 87.3101 25.5847V13.9316C87.3101 13.0602 87.2851 12.4128 87.2355 11.9895C87.1855 11.5662 87.0239 11.3172 86.7497 11.2425C86.476 11.1678 86.0403 11.23 85.4424 11.4293V10.3088L92.2028 7.39551V25.5847C92.2028 26.2569 92.2648 26.73 92.3894 27.0039C92.514 27.2778 92.7506 27.4459 93.0993 27.5081C93.4476 27.5704 93.9334 27.6015 94.5558 27.6015V28.722ZM94.5183 11.3919C94.2196 11.3919 93.9209 11.5538 93.6222 11.8775C93.3235 12.2011 93.0243 12.6306 92.7256 13.166C92.4269 13.7013 92.1407 14.2927 91.8666 14.9401L91.3812 13.4461C91.6549 12.7489 91.9726 12.058 92.3334 11.3732C92.6946 10.6885 93.1364 10.0598 93.6592 9.48706C94.1825 8.91439 94.7179 8.44128 95.2653 8.06779C95.8131 7.6943 96.411 7.50758 97.0584 7.50758C97.9295 7.50758 98.6084 7.76279 99.0937 8.27322C99.5795 8.78366 99.8222 9.51197 99.8222 10.4581C99.8222 11.3047 99.623 11.9708 99.2243 12.4563C98.826 12.9419 98.2782 13.1847 97.5812 13.1847C97.1329 13.1847 96.7717 13.0975 96.498 12.9232C96.2239 12.7489 95.9877 12.5373 95.7885 12.2883C95.589 12.0393 95.3898 11.8276 95.1907 11.6534C94.9916 11.4791 94.7674 11.3919 94.5183 11.3919Z" fill="white"/>
<path d="M40.9095 24.6314C40.9095 24.1832 40.8224 23.7599 40.6481 23.3615C40.4738 22.9631 40.175 22.5585 39.7517 22.1476C39.3284 21.7368 38.7433 21.3197 37.9963 20.8964L35.0831 19.1037C33.9875 18.4065 33.0911 17.5848 32.3939 16.6386C31.6967 15.6924 31.3481 14.5222 31.3481 13.1278C31.3481 12.0073 31.6158 11.0362 32.1511 10.2145C32.6865 9.39286 33.4148 8.76416 34.336 8.32842C35.2573 7.89265 36.3031 7.6748 37.4734 7.6748C38.2702 7.6748 38.93 7.76196 39.4529 7.93622C39.9758 8.11054 40.4178 8.28486 40.7788 8.45912C41.1399 8.63343 41.42 8.72058 41.6192 8.72058C41.8433 8.72058 42.0113 8.65209 42.1234 8.51515C42.2354 8.37821 42.3039 8.19769 42.3288 7.9736H43.7108V13.7627H42.1794C42.03 12.8913 41.7437 12.1318 41.3204 11.4844C40.8971 10.837 40.3493 10.3453 39.677 10.0091C39.0047 9.67299 38.2204 9.50493 37.324 9.50493C36.7015 9.50493 36.1848 9.68545 35.774 10.0465C35.3631 10.4075 35.1578 10.9117 35.1578 11.5591C35.1578 12.3061 35.3819 12.9224 35.83 13.4079C36.2782 13.8935 36.9754 14.435 37.9216 15.0326L40.8348 16.8254C41.6814 17.3234 42.4222 17.8898 43.0571 18.5247C43.6922 19.1597 44.1836 19.8569 44.5323 20.6163C44.881 21.3757 45.0552 22.2161 45.0552 23.1374C45.0552 24.1832 44.7815 25.1543 44.2336 26.0507C43.6858 26.947 42.8953 27.6629 41.8619 28.1982C40.8286 28.7336 39.6023 29.0013 38.183 29.0013C37.2618 29.0013 36.4712 28.8892 35.8113 28.6651C35.1515 28.441 34.6224 28.2107 34.224 27.9741C33.8256 27.7376 33.5268 27.6193 33.3276 27.6193C33.0288 27.6193 32.8234 27.7501 32.7114 28.0115C32.5993 28.2729 32.5308 28.5157 32.506 28.7398H31.124V21.9049H32.6553C32.73 23.0004 33.0226 23.9342 33.5331 24.7061C34.0435 25.4779 34.6784 26.0818 35.4378 26.5175C36.1973 26.9532 37.0252 27.1711 37.9216 27.1711C38.8927 27.1711 39.6335 26.9657 40.1439 26.5549C40.6543 26.144 40.9095 25.5029 40.9095 24.6314Z" fill="white"/>
</g>
</svg>
