<svg width="240" height="51" viewBox="0 0 240 51" fill="none" xmlns="http://www.w3.org/2000/svg">
<mask id="mask0_10834_3120" style="mask-type:luminance" maskUnits="userSpaceOnUse" x="11" y="20" width="21" height="18">
<path d="M11.5713 20.0463L11.5796 31.4682L21.7112 37.299L31.8428 31.4516L31.8345 20.0215L21.7029 25.8937L11.5713 20.0463Z" fill="white"/>
</mask>
<g mask="url(#mask0_10834_3120)">
<path d="M32.1813 19.6992H11.248V37.6302H32.1813V19.6992Z" fill="white"/>
</g>
<path d="M24.3496 12.3629L34.5474 18.2268L34.5309 43.2458L43.3309 38.1593L43.3061 13.1568L33.1083 7.27637L24.3496 12.3629Z" fill="white"/>
<path d="M30.4363 5.73793L21.6445 0.667969L0 13.1981L0.0165415 24.9591L8.80832 30.0291L8.79176 18.2516L30.4363 5.73793Z" fill="white"/>
<path d="M31.8506 34.6523L31.8589 44.8088L21.6859 50.6727L0.0248726 38.2005L0.0166016 28.0605L21.6776 40.5328L31.8506 34.6523Z" fill="white"/>
<path d="M143.456 14.8522C143.376 14.8522 143.299 14.8833 143.242 14.9389C143.185 14.9945 143.152 15.0703 143.15 15.15V29.0696C143.15 29.0823 143.148 29.0948 143.142 29.1064C143.137 29.1181 143.13 29.1285 143.121 29.137C143.111 29.1456 143.1 29.1522 143.088 29.1562C143.076 29.1603 143.064 29.1618 143.051 29.1606C143.029 29.1689 143.006 29.1689 142.984 29.1606L129.205 14.8605C129.145 14.7833 129.061 14.7274 128.967 14.7008C128.873 14.6741 128.772 14.678 128.68 14.7121C128.589 14.7461 128.509 14.8084 128.455 14.8901C128.401 14.9717 128.374 15.0685 128.379 15.1665V38.2005C128.377 38.241 128.385 38.2813 128.4 38.319C128.415 38.3566 128.437 38.3908 128.466 38.4195C128.494 38.4481 128.529 38.4706 128.566 38.4856C128.604 38.5005 128.644 38.5077 128.685 38.5065H131.919C132 38.5065 132.078 38.4743 132.135 38.4169C132.192 38.3595 132.225 38.2817 132.225 38.2005V24.4546C132.224 24.4408 132.227 24.4272 132.232 24.4146C132.238 24.402 132.246 24.3906 132.256 24.3813C132.267 24.372 132.279 24.3648 132.291 24.3604C132.304 24.3559 132.318 24.3541 132.332 24.3553H132.39L146.202 39.0524C146.262 39.1296 146.346 39.1855 146.44 39.2121C146.535 39.2388 146.635 39.2349 146.727 39.2008C146.819 39.1668 146.898 39.1045 146.952 39.0228C147.006 38.9411 147.033 38.8443 147.029 38.7464V15.1252C147.029 15.0462 146.998 14.9705 146.942 14.9146C146.886 14.8588 146.81 14.8275 146.731 14.8275H143.423L143.456 14.8522ZM239.677 34.4869H226.039C226.026 34.4894 226.012 34.4889 225.999 34.4854C225.986 34.482 225.974 34.4757 225.964 34.467C225.954 34.4583 225.945 34.4473 225.94 34.4351C225.934 34.4228 225.931 34.4095 225.931 34.396V28.5238C225.934 28.4967 225.946 28.4715 225.966 28.453C225.986 28.4346 226.012 28.4244 226.039 28.4245H236.394C236.477 28.4246 236.557 28.3929 236.617 28.336C236.677 28.279 236.712 28.2012 236.717 28.1185L236.766 24.8681C236.766 24.7825 236.733 24.7005 236.672 24.64C236.611 24.5795 236.529 24.5455 236.444 24.5455H226.031C226.018 24.5467 226.006 24.5452 225.994 24.5412C225.982 24.5371 225.97 24.5305 225.961 24.522C225.952 24.5134 225.945 24.503 225.939 24.4914C225.934 24.4798 225.931 24.4672 225.931 24.4546V18.5823C225.931 18.5552 225.942 18.529 225.96 18.5091C225.979 18.4891 226.004 18.4769 226.031 18.4748H239.644C239.685 18.4759 239.725 18.4691 239.763 18.4547C239.8 18.4403 239.834 18.4187 239.863 18.3911C239.893 18.3634 239.916 18.3303 239.932 18.2936C239.949 18.2569 239.958 18.2173 239.959 18.1771V14.9267C239.96 14.8847 239.953 14.8429 239.937 14.8039C239.922 14.7647 239.899 14.7291 239.87 14.699C239.841 14.669 239.805 14.6451 239.767 14.6288C239.728 14.6125 239.686 14.6041 239.644 14.6041H222.276C222.192 14.6041 222.111 14.637 222.051 14.6956C221.991 14.7544 221.956 14.8343 221.953 14.9184V38.0764C221.952 38.1191 221.96 38.1616 221.976 38.2012C221.992 38.2409 222.015 38.2769 222.045 38.3071C222.076 38.3373 222.112 38.361 222.151 38.3768C222.191 38.3926 222.234 38.4001 222.276 38.399H239.644C239.727 38.3947 239.803 38.3586 239.859 38.2983C239.915 38.2381 239.944 38.1585 239.942 38.0764L240 34.8095C239.994 34.7196 239.953 34.6353 239.887 34.5739C239.821 34.5125 239.735 34.4785 239.644 34.4787M99.257 34.6358H85.1972C85.1708 34.6358 85.1456 34.6254 85.127 34.6068C85.1084 34.5882 85.0976 34.5629 85.0976 34.5366V28.714C85.0976 28.6876 85.1084 28.6624 85.127 28.6438C85.1456 28.6252 85.1708 28.6147 85.1972 28.6147H95.8994C95.9828 28.615 96.0632 28.5835 96.125 28.5268C96.1862 28.47 96.224 28.3921 96.23 28.3087L96.2798 25.0583C96.2756 24.9713 96.2378 24.8892 96.1748 24.8292C96.1118 24.7691 96.0278 24.7357 95.9408 24.7357H85.1888C85.1762 24.7369 85.1636 24.7354 85.1516 24.7314C85.1396 24.7273 85.1282 24.7208 85.1192 24.7122C85.1096 24.7036 85.1024 24.6933 85.097 24.6816C85.0922 24.67 85.0892 24.6574 85.0892 24.6448V18.7808C85.091 18.7542 85.1018 18.729 85.1198 18.7094C85.1378 18.6898 85.1624 18.6771 85.1888 18.6733H99.2492C99.3332 18.6737 99.4148 18.6426 99.4778 18.586C99.5402 18.5293 99.5798 18.4514 99.5882 18.3673V15.1335C99.584 15.0464 99.5462 14.9644 99.4832 14.9043C99.4202 14.8442 99.3362 14.8108 99.2492 14.8109H81.3014C81.2582 14.8087 81.2156 14.8151 81.1748 14.8298C81.1346 14.8445 81.0974 14.8672 81.0656 14.8965C81.0338 14.9257 81.0086 14.9611 80.9906 15.0004C80.9732 15.0397 80.9636 15.0821 80.9624 15.1252V38.2005C80.9666 38.2875 81.0044 38.3696 81.0674 38.4297C81.1304 38.4897 81.2144 38.5232 81.3014 38.5231H99.2078C99.2918 38.5235 99.3734 38.4923 99.4364 38.4357C99.4988 38.3791 99.5384 38.3011 99.5468 38.2171L99.596 34.9666C99.5846 34.8796 99.5426 34.7994 99.4772 34.7404C99.4124 34.6813 99.3284 34.6472 99.2408 34.6441M114.624 26.729H108.603C108.577 26.729 108.552 26.7186 108.533 26.7C108.514 26.6814 108.504 26.6561 108.504 26.6297V18.7643C108.504 18.7393 108.513 18.7153 108.53 18.6969C108.547 18.6785 108.57 18.6671 108.595 18.6651H114.748C115.279 18.6618 115.804 18.7633 116.295 18.9637C116.787 19.1641 117.233 19.4596 117.61 19.8331C117.986 20.2065 118.285 20.6507 118.489 21.14C118.694 21.6294 118.8 22.1543 118.801 22.6846C118.801 22.8583 118.801 23.0403 118.801 23.214C118.65 24.1986 118.148 25.0954 117.388 25.7397C116.628 26.3839 115.662 26.7323 114.666 26.7207L114.624 26.729ZM117.676 30.1614C117.66 30.1445 117.652 30.1224 117.652 30.0993C117.652 30.0763 117.66 30.0541 117.676 30.0373C119.384 29.3608 120.802 28.109 121.685 26.4983C122.568 24.8875 122.86 23.019 122.512 21.2154C122.164 19.4118 121.197 17.7865 119.778 16.6201C118.359 15.4538 116.577 14.8197 114.74 14.8275H105.006C104.962 14.8263 104.92 14.8339 104.881 14.8496C104.841 14.8655 104.805 14.8892 104.775 14.9194C104.745 14.9496 104.721 14.9855 104.705 15.0252C104.689 15.0649 104.682 15.1073 104.683 15.15V38.2171C104.683 38.3026 104.717 38.3847 104.777 38.4451C104.838 38.5056 104.92 38.5396 105.006 38.5396H108.273C108.314 38.5407 108.356 38.5334 108.395 38.5181C108.434 38.5028 108.47 38.4798 108.5 38.4505C108.53 38.4213 108.554 38.3862 108.57 38.3475C108.586 38.3089 108.595 38.2673 108.595 38.2253V30.4508C108.595 30.4245 108.606 30.3993 108.624 30.3807C108.643 30.3621 108.668 30.3516 108.694 30.3516H112.623C112.673 30.3508 112.723 30.3625 112.767 30.3856C112.812 30.4087 112.851 30.4425 112.879 30.4839L118.776 38.4073C118.803 38.4486 118.84 38.4825 118.883 38.5056C118.926 38.5288 118.975 38.5405 119.024 38.5396H123.003C123.043 38.5407 123.082 38.5339 123.12 38.5195C123.158 38.5051 123.192 38.4835 123.222 38.4559C123.25 38.4282 123.274 38.3951 123.291 38.3584C123.307 38.3217 123.316 38.2821 123.317 38.2419C123.321 38.2047 123.316 38.1672 123.305 38.1316C123.294 38.0961 123.275 38.0632 123.25 38.0351L117.676 30.1614ZM217.752 34.5366H203.692C203.65 34.5348 203.61 34.5178 203.58 34.489C203.549 34.4601 203.53 34.4212 203.526 34.3794V15.0342C203.522 14.9471 203.484 14.8651 203.421 14.805C203.358 14.7449 203.274 14.7115 203.187 14.7116H199.747C199.704 14.7094 199.66 14.7158 199.62 14.7305C199.579 14.7452 199.542 14.7679 199.51 14.7972C199.479 14.8265 199.453 14.8618 199.436 14.9011C199.418 14.9404 199.408 14.9828 199.407 15.0259V38.1013C199.412 38.1883 199.449 38.2704 199.512 38.3304C199.576 38.3905 199.659 38.4239 199.747 38.4238H217.653C217.737 38.4242 217.819 38.3931 217.881 38.3365C217.944 38.2798 217.984 38.2019 217.992 38.1178L218.041 34.8674C218.037 34.7788 218.001 34.6948 217.938 34.6321C217.875 34.5694 217.791 34.5324 217.702 34.5283M184.239 22.1222C184.221 22.1059 184.197 22.0969 184.173 22.0969C184.149 22.0969 184.125 22.1059 184.107 22.1222L181.353 28.0689C181.347 28.0797 181.344 28.0915 181.342 28.1037C181.341 28.1158 181.343 28.1281 181.347 28.1397C181.351 28.1512 181.357 28.1619 181.365 28.1711C181.373 28.1802 181.383 28.1877 181.394 28.1929H181.435H187.009C187.032 28.1923 187.053 28.1848 187.071 28.1714C187.089 28.1581 187.102 28.1397 187.109 28.1185C187.114 28.0967 187.114 28.0741 187.109 28.0523L184.239 22.1222ZM159.898 18.6402H156.243C156.202 18.6379 156.162 18.6512 156.132 18.6774C156.101 18.7036 156.081 18.7406 156.077 18.7808V34.4373C156.081 34.4783 156.1 34.5162 156.131 34.5438C156.162 34.5712 156.201 34.5864 156.243 34.5862H160.171C161.3 34.6065 162.421 34.3895 163.461 33.9492C164.5 33.5089 165.436 32.8552 166.207 32.0303C166.978 31.2054 167.568 30.2278 167.937 29.1607C168.306 28.0936 168.447 26.9608 168.351 25.8358C167.987 21.717 164.182 18.6402 159.898 18.6402ZM183.801 14.5628C183.826 14.504 183.864 14.4511 183.91 14.407C183.957 14.363 184.012 14.3288 184.072 14.3065C184.132 14.2841 184.197 14.274 184.261 14.2768C184.325 14.2797 184.388 14.2953 184.446 14.3229C184.548 14.3743 184.629 14.4589 184.677 14.5628L196.041 37.9855C196.078 38.0623 196.084 38.1507 196.056 38.2312C196.028 38.3118 195.969 38.3781 195.892 38.4156C195.849 38.4268 195.804 38.4268 195.76 38.4156H192.046C191.985 38.4147 191.925 38.3963 191.874 38.3626C191.823 38.3289 191.782 38.2813 191.757 38.2253L189.078 32.4358C189.054 32.3798 189.016 32.332 188.965 32.2981C188.916 32.2643 188.857 32.246 188.796 32.2456H179.698C179.637 32.2465 179.577 32.2648 179.526 32.2986C179.475 32.3322 179.434 32.3798 179.409 32.4358L176.746 38.2253C176.721 38.281 176.68 38.3281 176.629 38.3605C176.577 38.3929 176.517 38.4092 176.456 38.4073H172.751C172.71 38.4096 172.668 38.4033 172.629 38.3889C172.59 38.3745 172.554 38.3524 172.524 38.3237C172.494 38.2951 172.47 38.2606 172.453 38.2223C172.437 38.1841 172.428 38.1429 172.428 38.1013C172.416 38.0496 172.416 37.9958 172.428 37.9441L183.801 14.5628ZM159.865 14.7696C166.482 14.7696 172.139 19.732 172.404 26.1666C172.438 27.7867 172.146 29.3972 171.544 30.902C170.943 32.4068 170.045 33.775 168.903 34.9251C167.762 36.0752 166.401 36.9836 164.9 37.5961C163.4 38.2086 161.791 38.5126 160.171 38.49H152.421C152.337 38.4879 152.256 38.4532 152.196 38.3932C152.136 38.3331 152.101 38.2523 152.099 38.1674V15.0921C152.099 15.0093 152.13 14.9297 152.187 14.8696C152.244 14.8096 152.322 14.7738 152.405 14.7696H159.89H159.865ZM77.2652 14.8357H73.5602C73.4984 14.8355 73.4384 14.8535 73.3868 14.8873C73.3352 14.9212 73.295 14.9693 73.2704 15.0259L65.8268 29.9132C65.8184 29.9222 65.8082 29.9295 65.7968 29.9343C65.7854 29.9392 65.7734 29.9418 65.7608 29.9418C65.7482 29.9418 65.7362 29.9392 65.7248 29.9343C65.7134 29.9295 65.7032 29.9222 65.6948 29.9132L58.2509 15.1252C58.2108 15.0419 58.1488 14.971 58.0716 14.92C57.9945 14.8691 57.9049 14.8399 57.8126 14.8357H54.2479C53.9584 14.8357 53.8426 15.0425 53.9584 15.2989L65.3552 38.7381C65.4092 38.8552 65.5076 38.9462 65.6288 38.9911C65.7494 39.0361 65.8832 39.0313 66.0008 38.9779C66.1136 38.934 66.2054 38.8481 66.257 38.7381L77.588 15.2989C77.6018 15.2549 77.6072 15.2086 77.603 15.1625C77.5988 15.1166 77.5856 15.0719 77.564 15.0311C77.5424 14.9903 77.513 14.9542 77.4776 14.9249C77.4416 14.8956 77.4008 14.8737 77.3564 14.8605H77.2652" fill="white"/>
</svg>
