<svg width="276" height="35" viewBox="0 0 276 35" fill="none" xmlns="http://www.w3.org/2000/svg">
<mask id="mask0_10834_3118" style="mask-type:luminance" maskUnits="userSpaceOnUse" x="0" y="0" width="276" height="35">
<path d="M276 0H0V34.0893H276V0Z" fill="white"/>
</mask>
<g mask="url(#mask0_10834_3118)">
<path d="M242.833 7.97195H234.261V33.3356H227.051V7.97195H218.48V0.755698H242.833V7.97195ZM205.643 33.3356V0.753648H198.433V33.3335L205.643 33.3356ZM175.737 33.3356H182.947V0.753648H175.737V13.4344H164.075V0.753648H156.864V33.3335H164.075V20.6527H175.737V33.3356ZM144.256 12.4713C144.256 18.9421 139.011 24.1869 132.54 24.1869H128.022V33.3335H120.812V0.753648H132.54C139.009 0.753648 144.256 6.00052 144.256 12.4713ZM137.019 12.4713C137.019 9.99677 135.012 7.99043 132.538 7.99043H128.02V16.9522H132.538C135.012 16.9502 137.019 14.9459 137.019 12.4713ZM63.0552 21.2298L66.9878 33.3335H59.3978L56.4078 24.1294C55.9601 24.228 50.7605 24.1849 50.7605 24.1849V33.3315H43.5504V0.753648H55.2783C61.7492 0.753648 66.994 5.99846 66.994 12.4693C66.994 15.9562 65.4723 19.0838 63.0552 21.2298ZM55.2783 16.9502C57.7529 16.9502 59.7592 14.9438 59.7592 12.4693C59.7592 9.99471 57.7529 7.98837 55.2783 7.98837H50.7605V16.9502H55.2783ZM274.162 13.4365H261.408V7.97195H275.516V0.755698H254.198V33.3356H275.965V26.1193H261.408V20.6548H274.162V13.4365ZM29.7915 29.0929V13.4365H17.1744V20.6527H22.5814V25.6265C21.378 26.1686 19.3039 26.7888 16.4762 26.7888C10.872 26.7888 7.25152 22.8357 7.25152 16.7181C7.25152 12.1633 9.67473 7.29837 16.4762 7.29837C19.3224 7.29837 21.4663 8.319 22.8299 9.25337L27.9864 4.09686C25.865 2.40471 21.955 0.0800781 16.4762 0.0800781C6.79562 0.0800781 0.0332031 6.92052 0.0332031 16.7181C0.0332031 26.7354 6.94759 34.0071 16.4762 34.0071C23.1092 34.0071 27.2697 31.8693 29.7915 29.0929ZM96.9617 0.759809L89.3717 0.753648L78.7856 33.3335H86.3756L96.9617 0.759809ZM100.757 12.4405L96.9617 24.1212L99.9559 33.3356H107.546L100.757 12.4405Z" fill="white"/>
</g>
</svg>
