<svg width="16" height="16" viewBox="0 0 16 16" fill="none" xmlns="http://www.w3.org/2000/svg">
<path opacity="0.6" d="M10.4993 13.6667C10.2823 13.6667 10.0897 13.5263 10.0233 13.3197L9.04768 10.285L6.01302 9.30933C5.80635 9.243 5.66602 9.05033 5.66602 8.83333C5.66602 8.61633 5.80635 8.42367 6.01302 8.35733L9.04768 7.38167L10.0233 4.347C10.0897 4.14033 10.2823 4 10.4993 4C10.7163 4 10.909 4.14033 10.9753 4.347L11.951 7.38167L14.9857 8.35733C15.1923 8.42367 15.3327 8.61633 15.3327 8.83333C15.3327 9.05033 15.1923 9.243 14.9857 9.30933L11.951 10.285L10.9753 13.3197C10.909 13.5263 10.7163 13.6667 10.4993 13.6667ZM3.99935 7.66667C3.78402 7.66667 3.59302 7.529 3.52502 7.325L2.89568 5.437L1.00768 4.80767C0.803682 4.73967 0.666016 4.54867 0.666016 4.33333C0.666016 4.118 0.803682 3.927 1.00768 3.859L2.89568 3.22967L3.52502 1.34167C3.59302 1.13767 3.78402 1 3.99935 1C4.21468 1 4.40568 1.13767 4.47368 1.34167L5.10302 3.22967L6.99102 3.859C7.19502 3.927 7.33268 4.118 7.33268 4.33333C7.33268 4.54867 7.19502 4.73967 6.99102 4.80767L5.10302 5.437L4.47368 7.325C4.40568 7.529 4.21468 7.66667 3.99935 7.66667ZM3.49935 15C3.28402 15 3.09302 14.8623 3.02502 14.6583L2.52035 13.1453L1.00768 12.641C0.803682 12.573 0.666016 12.382 0.666016 12.1667C0.666016 11.9513 0.803682 11.7603 1.00768 11.6923L2.52035 11.188L3.02502 9.675C3.09302 9.471 3.28402 9.33333 3.49935 9.33333C3.71468 9.33333 3.90568 9.471 3.97368 9.675L4.47802 11.188L5.99102 11.6923C6.19502 11.7603 6.33268 11.9513 6.33268 12.1667C6.33268 12.382 6.19502 12.573 5.99102 12.641L4.47802 13.1453L3.97368 14.6583C3.90568 14.8623 3.71468 15 3.49935 15Z" fill="#625FF0"/>
</svg>
